<svg xmlns="http://www.w3.org/2000/svg" xmlns:xlink="http://www.w3.org/1999/xlink" width="43.366" height="85.735" viewBox="0 0 43.366 85.735"><defs><style>.a{opacity:0.4;}.b{opacity:0;}.c{opacity:0.016;}.d{opacity:0.033;}.e{opacity:0.049;}.f{opacity:0.066;}.g{opacity:0.082;}.h{opacity:0.098;}.i{opacity:0.115;}.j{opacity:0.131;}.k{opacity:0.148;}.l{opacity:0.164;}.m{opacity:0.18;}.n{opacity:0.197;}.o{opacity:0.213;}.p{opacity:0.23;}.q{opacity:0.246;}.r{opacity:0.262;}.s{opacity:0.279;}.t{opacity:0.295;}.u{opacity:0.311;}.v{opacity:0.328;}.w{opacity:0.344;}.x{opacity:0.361;}.y{opacity:0.377;}.z{opacity:0.393;}.aa{opacity:0.41;}.ab{opacity:0.426;}.ac{opacity:0.443;}.ad{opacity:0.459;}.ae{opacity:0.475;}.af{opacity:0.492;}.ag{opacity:0.508;}.ah{opacity:0.525;}.ai{opacity:0.541;}.aj{opacity:0.557;}.ak{opacity:0.574;}.al{opacity:0.59;}.am{opacity:0.607;}.an{opacity:0.623;}.ao{opacity:0.639;}.ap{opacity:0.656;}.aq{opacity:0.672;}.ar{opacity:0.689;}.as{opacity:0.705;}.at{opacity:0.721;}.au{opacity:0.738;}.av{opacity:0.754;}.aw{opacity:0.77;}.ax{opacity:0.787;}.ay{opacity:0.803;}.az{opacity:0.82;}.ba{opacity:0.836;}.bb{opacity:0.852;}.bc{opacity:0.869;}.bd{opacity:0.885;}.be{opacity:0.902;}.bf{opacity:0.918;}.bg{opacity:0.934;}.bh{opacity:0.951;}.bi{opacity:0.967;}.bj{opacity:0.984;}.bk{fill:#00000c;}.bl{fill:url(#a);}.bm{fill:url(#b);}.bn{fill:url(#c);}.bo{fill:url(#d);}.bp{fill:url(#e);}.bq{fill:url(#f);}.br{fill:url(#h);}.bs{fill:url(#i);}.bt{fill:url(#j);}.bu{fill:url(#k);}.bv,.bw{fill:none;stroke:#389ad1;}.bv{stroke-width:0.5px;}.bw{stroke-width:0.3px;}</style><linearGradient id="a" y1="0.5" x2="0.116" y2="0.5" gradientUnits="objectBoundingBox"><stop offset="0" stop-color="#666"/><stop offset="1"/></linearGradient><linearGradient id="b" x1="0.9" y1="0.5" x2="1.018" y2="0.5" gradientUnits="objectBoundingBox"><stop offset="0"/><stop offset="1" stop-color="#666"/></linearGradient><linearGradient id="c" x1="0.5" y1="1" x2="0.5" y2="0.199" gradientUnits="objectBoundingBox"><stop offset="0" stop-color="#959595"/><stop offset="1"/></linearGradient><linearGradient id="d" x1="0.5" y1="0.765" x2="0.5" y2="-0.235" gradientUnits="objectBoundingBox"><stop offset="0"/><stop offset="1" stop-color="gray"/></linearGradient><linearGradient id="e" y1="0.5" x2="1" y2="0.5" gradientUnits="objectBoundingBox"><stop offset="0" stop-color="#f1f1f1"/><stop offset="0.001" stop-color="#f0f0f0"/><stop offset="0.138" stop-color="#b7b7b7"/><stop offset="0.271" stop-color="#888"/><stop offset="0.397" stop-color="#636363"/><stop offset="0.513" stop-color="#484848"/><stop offset="0.617" stop-color="#383838"/><stop offset="0.698" stop-color="#333"/></linearGradient><linearGradient id="f" y1="0.5" x2="1" y2="0.5" gradientUnits="objectBoundingBox"><stop offset="0" stop-color="#1a1a1a"/><stop offset="0.117" stop-color="#444"/><stop offset="0.231" stop-color="#666"/><stop offset="0.339" stop-color="#7e7e7e"/><stop offset="0.439" stop-color="#8c8c8c"/><stop offset="0.523" stop-color="#929292"/><stop offset="0.593" stop-color="#8a8a8a"/><stop offset="0.697" stop-color="#757575"/><stop offset="0.825" stop-color="#545454"/><stop offset="0.968" stop-color="#252525"/><stop offset="1" stop-color="#1a1a1a"/></linearGradient><linearGradient id="h" y1="0.5" x2="0.592" y2="0.5" gradientUnits="objectBoundingBox"><stop offset="0" stop-color="#c8c8c8"/><stop offset="0.211" stop-color="#9f9f9f"/><stop offset="0.587" stop-color="#5d5d5d"/><stop offset="0.86" stop-color="#333"/><stop offset="1" stop-color="#242424"/></linearGradient><linearGradient id="i" y1="0.5" x2="1" y2="0.5" gradientUnits="objectBoundingBox"><stop offset="0" stop-color="#242424"/><stop offset="0.14" stop-color="#333"/><stop offset="0.413" stop-color="#5d5d5d"/><stop offset="0.789" stop-color="#9f9f9f"/><stop offset="1" stop-color="#c8c8c8"/></linearGradient><linearGradient id="j" y1="0.5" x2="1" y2="0.5" gradientUnits="objectBoundingBox"><stop offset="0" stop-color="#333"/><stop offset="0.09" stop-color="#2a2a2a"/><stop offset="0.289" stop-color="#1e1e1e"/><stop offset="0.479" stop-color="#1a1a1a"/><stop offset="0.788" stop-color="#1b1b1b"/><stop offset="0.9" stop-color="#222"/><stop offset="0.979" stop-color="#2e2e2e"/><stop offset="1" stop-color="#333"/></linearGradient><linearGradient id="k" x1="-0.267" y1="0.146" x2="1.267" y2="0.854" gradientUnits="objectBoundingBox"><stop offset="0" stop-color="#f2f3f4"/><stop offset="0.479" stop-color="#edeeee"/><stop offset="1" stop-color="#e2e2e2"/></linearGradient></defs><g transform="translate(-317.629 -131.909)"><g transform="translate(317.629 131.909)"><g class="a" transform="translate(0 0)"><path class="b" d="M371.639,231.549l.008,0h0Zm-2.006-82.7H339.4a5.649,5.649,0,0,0-5.65,5.649V227a5.649,5.649,0,0,0,5.65,5.649h30.23a5.649,5.649,0,0,0,5.65-5.649V154.5A5.649,5.649,0,0,0,369.633,148.847Z" transform="translate(-331.917 -146.918)"/><path class="c" d="M371.375,231.272l.008,0h0Zm-2.006-82.7h-30.23a5.649,5.649,0,0,0-5.65,5.649v72.509a5.649,5.649,0,0,0,5.65,5.649h30.23a5.649,5.649,0,0,0,5.65-5.649V154.219A5.649,5.649,0,0,0,369.369,148.57Z" transform="translate(-331.683 -146.673)"/><path class="d" d="M371.111,230.994l.008,0h0Zm-2.006-82.7h-30.23a5.649,5.649,0,0,0-5.65,5.649V226.45a5.649,5.649,0,0,0,5.65,5.649H369.1a5.649,5.649,0,0,0,5.65-5.649V153.941A5.649,5.649,0,0,0,369.1,148.292Z" transform="translate(-331.449 -146.427)"/><path class="e" d="M370.846,230.716l.008,0h0Zm-2.006-82.7H338.61a5.65,5.65,0,0,0-5.65,5.649v72.509a5.649,5.649,0,0,0,5.65,5.649h30.23a5.649,5.649,0,0,0,5.65-5.649V153.663A5.649,5.649,0,0,0,368.84,148.014Z" transform="translate(-331.214 -146.18)"/><path class="f" d="M370.582,230.439l.008,0h0Zm-2.006-82.7h-30.23a5.649,5.649,0,0,0-5.65,5.649v72.509a5.649,5.649,0,0,0,5.65,5.649h30.23a5.649,5.649,0,0,0,5.65-5.649V153.386A5.649,5.649,0,0,0,368.576,147.737Z" transform="translate(-330.98 -145.935)"/><path class="g" d="M370.318,230.161l.008,0h0Zm-2.006-82.7h-30.23a5.649,5.649,0,0,0-5.65,5.649v72.509a5.649,5.649,0,0,0,5.65,5.649h30.23a5.649,5.649,0,0,0,5.65-5.649V153.108A5.649,5.649,0,0,0,368.312,147.459Z" transform="translate(-330.747 -145.688)"/><path class="h" d="M370.053,229.883l.008,0h0Zm-2.006-82.7h-30.23a5.649,5.649,0,0,0-5.65,5.649v72.509a5.649,5.649,0,0,0,5.65,5.649h30.23a5.649,5.649,0,0,0,5.65-5.649V152.83A5.649,5.649,0,0,0,368.047,147.181Z" transform="translate(-330.512 -145.442)"/><path class="i" d="M369.789,229.606l.008,0h0Zm-2.006-82.7h-30.23a5.649,5.649,0,0,0-5.65,5.649v72.509a5.649,5.649,0,0,0,5.65,5.649h30.23a5.649,5.649,0,0,0,5.65-5.649V152.553A5.649,5.649,0,0,0,367.783,146.9Z" transform="translate(-330.278 -145.197)"/><path class="j" d="M369.525,229.328l.008,0h0Zm-2.006-82.7h-30.23a5.649,5.649,0,0,0-5.65,5.649v72.509a5.649,5.649,0,0,0,5.65,5.649h30.23a5.649,5.649,0,0,0,5.65-5.649V152.275A5.649,5.649,0,0,0,367.519,146.626Z" transform="translate(-330.044 -144.95)"/><path class="k" d="M369.26,229.05l.008,0h0Zm-2.006-82.7h-30.23a5.65,5.65,0,0,0-5.65,5.649v72.509a5.65,5.65,0,0,0,5.65,5.649h30.23a5.649,5.649,0,0,0,5.65-5.649V152A5.649,5.649,0,0,0,367.254,146.348Z" transform="translate(-329.809 -144.704)"/><path class="l" d="M369,228.773l.008,0h0Zm-2.006-82.7H336.76a5.649,5.649,0,0,0-5.65,5.649v72.509a5.649,5.649,0,0,0,5.65,5.649h30.23a5.649,5.649,0,0,0,5.65-5.649V151.72A5.649,5.649,0,0,0,366.99,146.071Z" transform="translate(-329.575 -144.458)"/><path class="m" d="M368.732,228.495l.008,0h0Zm-2.006-82.7H336.5a5.649,5.649,0,0,0-5.65,5.649v72.509a5.649,5.649,0,0,0,5.65,5.649h30.23a5.649,5.649,0,0,0,5.65-5.649V151.442A5.649,5.649,0,0,0,366.726,145.793Z" transform="translate(-329.341 -144.212)"/><path class="n" d="M368.467,228.217l.008,0h0Zm-2.006-82.7h-30.23a5.65,5.65,0,0,0-5.65,5.649v72.509a5.649,5.649,0,0,0,5.65,5.649h30.23a5.65,5.65,0,0,0,5.65-5.649V151.164A5.65,5.65,0,0,0,366.461,145.515Z" transform="translate(-329.106 -143.966)"/><path class="o" d="M368.2,227.94l.008,0h0Zm-2.006-82.7h-30.23a5.649,5.649,0,0,0-5.65,5.649V223.4a5.649,5.649,0,0,0,5.65,5.649H366.2a5.649,5.649,0,0,0,5.65-5.649V150.887A5.649,5.649,0,0,0,366.2,145.238Z" transform="translate(-328.872 -143.72)"/><path class="p" d="M367.939,227.662l.008,0h0Zm-2.006-82.7H335.7a5.649,5.649,0,0,0-5.65,5.649v72.509a5.649,5.649,0,0,0,5.65,5.649h30.23a5.649,5.649,0,0,0,5.65-5.649V150.609A5.649,5.649,0,0,0,365.933,144.96Z" transform="translate(-328.638 -143.474)"/><path class="q" d="M367.674,227.384l.008,0h0Zm-2.006-82.7h-30.23a5.649,5.649,0,0,0-5.65,5.649V222.84a5.649,5.649,0,0,0,5.65,5.649h30.23a5.65,5.65,0,0,0,5.65-5.649V150.331A5.65,5.65,0,0,0,365.668,144.682Z" transform="translate(-328.404 -143.228)"/><path class="r" d="M367.41,227.107l.008,0h0ZM365.4,144.4h-30.23a5.649,5.649,0,0,0-5.65,5.649v72.509a5.649,5.649,0,0,0,5.65,5.649H365.4a5.649,5.649,0,0,0,5.65-5.649V150.054A5.649,5.649,0,0,0,365.4,144.4Z" transform="translate(-328.17 -142.982)"/><path class="s" d="M367.146,226.829l.008,0h0Zm-2.006-82.7H334.91a5.649,5.649,0,0,0-5.65,5.649v72.509a5.649,5.649,0,0,0,5.65,5.649h30.23a5.649,5.649,0,0,0,5.65-5.649V149.776A5.649,5.649,0,0,0,365.14,144.127Z" transform="translate(-327.936 -142.736)"/><path class="t" d="M366.881,226.551l.008,0h0Zm-2.006-82.7h-30.23a5.65,5.65,0,0,0-5.65,5.649v72.509a5.65,5.65,0,0,0,5.65,5.649h30.23a5.65,5.65,0,0,0,5.65-5.649V149.5A5.65,5.65,0,0,0,364.875,143.849Z" transform="translate(-327.701 -142.49)"/><path class="u" d="M366.617,226.274l.008,0h0Zm-2.006-82.7h-30.23a5.649,5.649,0,0,0-5.65,5.649V221.73a5.649,5.649,0,0,0,5.65,5.649h30.23a5.649,5.649,0,0,0,5.65-5.649V149.221A5.649,5.649,0,0,0,364.611,143.572Z" transform="translate(-327.467 -142.244)"/><path class="v" d="M366.353,226l.008,0h0Zm-2.006-82.7h-30.23a5.649,5.649,0,0,0-5.65,5.649v72.509a5.649,5.649,0,0,0,5.65,5.649h30.23a5.649,5.649,0,0,0,5.65-5.649V148.943A5.649,5.649,0,0,0,364.347,143.294Z" transform="translate(-327.233 -141.998)"/><path class="w" d="M366.088,225.718l.008,0h0Zm-2.006-82.7h-30.23a5.65,5.65,0,0,0-5.65,5.649v72.509a5.65,5.65,0,0,0,5.65,5.649h30.23a5.649,5.649,0,0,0,5.65-5.649V148.665A5.65,5.65,0,0,0,364.082,143.016Z" transform="translate(-326.998 -141.751)"/><path class="x" d="M365.824,225.441l.008,0h0Zm-2.006-82.7h-30.23a5.649,5.649,0,0,0-5.65,5.649V220.9a5.649,5.649,0,0,0,5.65,5.649h30.23a5.649,5.649,0,0,0,5.65-5.649V148.388A5.649,5.649,0,0,0,363.818,142.739Z" transform="translate(-326.764 -141.506)"/><path class="y" d="M365.56,225.163l.008,0h0Zm-2.006-82.7h-30.23a5.649,5.649,0,0,0-5.65,5.649v72.509a5.649,5.649,0,0,0,5.65,5.649h30.23a5.649,5.649,0,0,0,5.65-5.649V148.11A5.649,5.649,0,0,0,363.554,142.461Z" transform="translate(-326.53 -141.26)"/><path class="z" d="M365.3,224.885l.008,0h0Zm-2.006-82.7h-30.23a5.65,5.65,0,0,0-5.65,5.649v72.509a5.65,5.65,0,0,0,5.65,5.649h30.23a5.65,5.65,0,0,0,5.65-5.649V147.832A5.65,5.65,0,0,0,363.289,142.183Z" transform="translate(-326.295 -141.013)"/><path class="aa" d="M365.031,224.608l.008,0h0Zm-2.006-82.7h-30.23a5.649,5.649,0,0,0-5.65,5.649v72.509a5.649,5.649,0,0,0,5.65,5.649h30.23a5.649,5.649,0,0,0,5.65-5.649V147.555A5.649,5.649,0,0,0,363.025,141.906Z" transform="translate(-326.061 -140.768)"/><path class="ab" d="M364.767,224.33l.008,0h0Zm-2.006-82.7h-30.23a5.649,5.649,0,0,0-5.65,5.649v72.509a5.649,5.649,0,0,0,5.65,5.649h30.23a5.649,5.649,0,0,0,5.65-5.649V147.277A5.649,5.649,0,0,0,362.761,141.628Z" transform="translate(-325.828 -140.521)"/><path class="ac" d="M364.5,224.052l.008,0h0Zm-2.006-82.7h-30.23a5.65,5.65,0,0,0-5.65,5.649v72.509a5.65,5.65,0,0,0,5.65,5.649H362.5a5.649,5.649,0,0,0,5.65-5.649V147A5.649,5.649,0,0,0,362.5,141.35Z" transform="translate(-325.593 -140.275)"/><path class="ad" d="M364.238,223.775l.008,0h0Zm-2.006-82.7H332a5.649,5.649,0,0,0-5.65,5.649v72.509a5.649,5.649,0,0,0,5.65,5.649h30.23a5.649,5.649,0,0,0,5.65-5.649V146.722A5.649,5.649,0,0,0,362.232,141.073Z" transform="translate(-325.359 -140.03)"/><path class="ae" d="M363.974,223.5l.008,0h0Zm-2.006-82.7h-30.23a5.649,5.649,0,0,0-5.65,5.649v72.509a5.649,5.649,0,0,0,5.65,5.649h30.23a5.649,5.649,0,0,0,5.65-5.649V146.444A5.649,5.649,0,0,0,361.968,140.795Z" transform="translate(-325.125 -139.783)"/><path class="af" d="M363.71,223.219l.008,0h0Zm-2.006-82.7h-30.23a5.649,5.649,0,0,0-5.65,5.649v72.509a5.649,5.649,0,0,0,5.65,5.649H361.7a5.649,5.649,0,0,0,5.65-5.649V146.166A5.649,5.649,0,0,0,361.7,140.517Z" transform="translate(-324.891 -139.537)"/><path class="ag" d="M363.445,222.941l.008,0h0Zm-2.006-82.7h-30.23a5.65,5.65,0,0,0-5.65,5.649V218.4a5.649,5.649,0,0,0,5.65,5.649h30.23a5.649,5.649,0,0,0,5.65-5.649V145.888A5.65,5.65,0,0,0,361.439,140.239Z" transform="translate(-324.656 -139.291)"/><path class="ah" d="M363.181,222.664l.008,0h0Zm-2.006-82.7h-30.23a5.649,5.649,0,0,0-5.65,5.649V218.12a5.649,5.649,0,0,0,5.65,5.649h30.23a5.649,5.649,0,0,0,5.65-5.649V145.611A5.649,5.649,0,0,0,361.175,139.962Z" transform="translate(-324.422 -139.045)"/><path class="ai" d="M362.916,222.386l.008,0h0Zm-2.006-82.7H330.68a5.65,5.65,0,0,0-5.65,5.649v72.509a5.65,5.65,0,0,0,5.65,5.649h30.23a5.65,5.65,0,0,0,5.65-5.649V145.333A5.649,5.649,0,0,0,360.91,139.684Z" transform="translate(-324.187 -138.799)"/><path class="aj" d="M362.652,222.108l.008,0h0Zm-2.006-82.7h-30.23a5.65,5.65,0,0,0-5.65,5.649v72.509a5.649,5.649,0,0,0,5.65,5.649h30.23a5.649,5.649,0,0,0,5.65-5.649V145.055A5.65,5.65,0,0,0,360.646,139.406Z" transform="translate(-323.953 -138.552)"/><path class="ak" d="M362.388,221.831l.008,0h0Zm-2.006-82.7h-30.23a5.649,5.649,0,0,0-5.65,5.649v72.509a5.649,5.649,0,0,0,5.65,5.649h30.23a5.649,5.649,0,0,0,5.65-5.649V144.778A5.649,5.649,0,0,0,360.382,139.129Z" transform="translate(-323.719 -138.307)"/><path class="al" d="M362.124,221.553l.008,0h0Zm-2.006-82.7h-30.23a5.649,5.649,0,0,0-5.65,5.649v72.509a5.649,5.649,0,0,0,5.65,5.649h30.23a5.649,5.649,0,0,0,5.65-5.649V144.5A5.65,5.65,0,0,0,360.118,138.851Z" transform="translate(-323.486 -138.061)"/><path class="am" d="M361.859,221.276l.008,0h0Zm-2.006-82.7h-30.23a5.649,5.649,0,0,0-5.65,5.649v72.509a5.649,5.649,0,0,0,5.65,5.649h30.23a5.649,5.649,0,0,0,5.65-5.649V144.223A5.649,5.649,0,0,0,359.853,138.574Z" transform="translate(-323.251 -137.815)"/><path class="an" d="M361.6,221l.008,0h0Zm-2.006-82.7h-30.23a5.649,5.649,0,0,0-5.65,5.649v72.509a5.649,5.649,0,0,0,5.65,5.649h30.23a5.649,5.649,0,0,0,5.65-5.649V143.945A5.649,5.649,0,0,0,359.589,138.3Z" transform="translate(-323.017 -137.569)"/><path class="ao" d="M361.331,220.72l.008,0h0Zm-2.006-82.7h-30.23a5.649,5.649,0,0,0-5.65,5.649v72.509a5.649,5.649,0,0,0,5.65,5.649h30.23a5.649,5.649,0,0,0,5.65-5.649V143.667A5.649,5.649,0,0,0,359.325,138.018Z" transform="translate(-322.783 -137.322)"/><path class="ap" d="M361.066,220.442l.008,0h0Zm-2.006-82.7H328.83a5.65,5.65,0,0,0-5.65,5.649V215.9a5.649,5.649,0,0,0,5.65,5.649h30.23a5.65,5.65,0,0,0,5.65-5.649V143.389A5.65,5.65,0,0,0,359.06,137.74Z" transform="translate(-322.548 -137.076)"/><path class="aq" d="M360.8,220.165l.008,0h0Zm-2.006-82.7h-30.23a5.649,5.649,0,0,0-5.65,5.649v72.509a5.649,5.649,0,0,0,5.65,5.649H358.8a5.649,5.649,0,0,0,5.65-5.649V143.112A5.649,5.649,0,0,0,358.8,137.463Z" transform="translate(-322.314 -136.831)"/><path class="ar" d="M360.538,219.887l.008,0h0Zm-2.006-82.7H328.3a5.649,5.649,0,0,0-5.65,5.649v72.509a5.649,5.649,0,0,0,5.65,5.649h30.23a5.649,5.649,0,0,0,5.65-5.649V142.834A5.649,5.649,0,0,0,358.532,137.185Z" transform="translate(-322.08 -136.584)"/><path class="as" d="M360.273,219.609l.008,0h0Zm-2.006-82.7h-30.23a5.65,5.65,0,0,0-5.65,5.649v72.509a5.65,5.65,0,0,0,5.65,5.649h30.23a5.65,5.65,0,0,0,5.65-5.649V142.556A5.65,5.65,0,0,0,358.267,136.907Z" transform="translate(-321.845 -136.338)"/><path class="at" d="M360.009,219.332l.008,0h0ZM358,136.63h-30.23a5.649,5.649,0,0,0-5.65,5.649v72.509a5.649,5.649,0,0,0,5.65,5.649H358a5.649,5.649,0,0,0,5.65-5.649V142.279A5.649,5.649,0,0,0,358,136.63Z" transform="translate(-321.611 -136.092)"/><path class="au" d="M359.745,219.054l.008,0h0Zm-2.006-82.7h-30.23a5.649,5.649,0,0,0-5.65,5.649V214.51a5.649,5.649,0,0,0,5.65,5.649h30.23a5.649,5.649,0,0,0,5.65-5.649V142A5.649,5.649,0,0,0,357.739,136.352Z" transform="translate(-321.377 -135.846)"/><path class="av" d="M359.48,218.776l.008,0h0Zm-2.006-82.7h-30.23a5.65,5.65,0,0,0-5.65,5.649v72.509a5.649,5.649,0,0,0,5.65,5.649h30.23a5.649,5.649,0,0,0,5.65-5.649V141.723A5.65,5.65,0,0,0,357.474,136.074Z" transform="translate(-321.143 -135.6)"/><path class="aw" d="M359.216,218.5l.008,0h0Zm-2.006-82.7H326.98a5.649,5.649,0,0,0-5.65,5.649v72.509a5.649,5.649,0,0,0,5.65,5.649h30.23a5.649,5.649,0,0,0,5.65-5.649V141.446A5.649,5.649,0,0,0,357.21,135.8Z" transform="translate(-320.909 -135.354)"/><path class="ax" d="M358.952,218.221l.008,0h0Zm-2.006-82.7h-30.23a5.649,5.649,0,0,0-5.65,5.649v72.509a5.649,5.649,0,0,0,5.65,5.649h30.23a5.649,5.649,0,0,0,5.65-5.649V141.168A5.649,5.649,0,0,0,356.946,135.519Z" transform="translate(-320.675 -135.108)"/><path class="ay" d="M358.687,217.944l.008,0h0A.051.051,0,0,0,358.687,217.944Zm-2.006-82.7h-30.23a5.649,5.649,0,0,0-5.65,5.649V213.4a5.649,5.649,0,0,0,5.65,5.649h30.23a5.649,5.649,0,0,0,5.65-5.649V140.891A5.65,5.65,0,0,0,356.681,135.242Z" transform="translate(-320.44 -134.863)"/><path class="az" d="M358.423,217.666l.008,0h0Zm-2.006-82.7h-30.23a5.649,5.649,0,0,0-5.65,5.649v72.509a5.649,5.649,0,0,0,5.65,5.649h30.23a5.649,5.649,0,0,0,5.65-5.649V140.613A5.649,5.649,0,0,0,356.417,134.964Z" transform="translate(-320.206 -134.616)"/><path class="ba" d="M358.159,217.388l.008,0h0Zm-2.006-82.7h-30.23a5.649,5.649,0,0,0-5.65,5.649v72.509a5.649,5.649,0,0,0,5.65,5.649h30.23a5.649,5.649,0,0,0,5.65-5.649V140.335A5.649,5.649,0,0,0,356.153,134.686Z" transform="translate(-319.972 -134.37)"/><path class="bb" d="M357.894,217.11l.008,0h0Zm-2.006-82.7h-30.23a5.65,5.65,0,0,0-5.65,5.649v72.509a5.65,5.65,0,0,0,5.65,5.649h30.23a5.65,5.65,0,0,0,5.65-5.649V140.057A5.65,5.65,0,0,0,355.888,134.408Z" transform="translate(-319.737 -134.123)"/><path class="bc" d="M357.63,216.833l.008,0h0Zm-2.006-82.7h-30.23a5.649,5.649,0,0,0-5.65,5.649v72.509a5.649,5.649,0,0,0,5.65,5.649h30.23a5.649,5.649,0,0,0,5.65-5.649V139.78A5.649,5.649,0,0,0,355.624,134.131Z" transform="translate(-319.503 -133.878)"/><path class="bd" d="M357.366,216.555l.008,0h0Zm-2.006-82.7H325.13a5.649,5.649,0,0,0-5.65,5.649v72.509a5.649,5.649,0,0,0,5.65,5.649h30.23a5.649,5.649,0,0,0,5.65-5.649V139.5A5.649,5.649,0,0,0,355.36,133.853Z" transform="translate(-319.269 -133.632)"/><path class="be" d="M357.1,216.277l.008,0h0Zm-2.006-82.7h-30.23a5.65,5.65,0,0,0-5.65,5.649v72.509a5.649,5.649,0,0,0,5.65,5.649h30.23a5.649,5.649,0,0,0,5.65-5.649V139.224A5.65,5.65,0,0,0,355.095,133.575Z" transform="translate(-319.034 -133.385)"/><path class="bf" d="M356.837,216l.008,0h0Zm-2.006-82.7H324.6a5.649,5.649,0,0,0-5.65,5.649v72.509a5.649,5.649,0,0,0,5.65,5.649h30.23a5.649,5.649,0,0,0,5.65-5.649V138.947A5.649,5.649,0,0,0,354.831,133.3Z" transform="translate(-318.8 -133.14)"/><path class="bg" d="M356.573,215.722l.008,0h0Zm-2.006-82.7h-30.23a5.649,5.649,0,0,0-5.65,5.649v72.509a5.649,5.649,0,0,0,5.65,5.649h30.23a5.649,5.649,0,0,0,5.65-5.649V138.669A5.649,5.649,0,0,0,354.567,133.02Z" transform="translate(-318.567 -132.894)"/><path class="bh" d="M356.308,215.444l.008,0h0Zm-2.006-82.7h-30.23a5.65,5.65,0,0,0-5.65,5.649V210.9a5.649,5.649,0,0,0,5.65,5.648H354.3a5.649,5.649,0,0,0,5.65-5.648V138.391A5.65,5.65,0,0,0,354.3,132.742Z" transform="translate(-318.332 -132.647)"/><path class="bi" d="M356.044,215.167l.008,0h0Zm-2.006-82.7h-30.23a5.649,5.649,0,0,0-5.65,5.649v72.509a5.649,5.649,0,0,0,5.65,5.649h30.23a5.649,5.649,0,0,0,5.65-5.649V138.114A5.649,5.649,0,0,0,354.038,132.465Z" transform="translate(-318.098 -132.402)"/><path class="bj" d="M355.78,214.889l.008,0h0Zm-2.006-82.7h-30.23a5.649,5.649,0,0,0-5.65,5.649v72.509a5.649,5.649,0,0,0,5.65,5.649h30.23a5.649,5.649,0,0,0,5.65-5.649V137.836A5.649,5.649,0,0,0,353.774,132.187Z" transform="translate(-317.864 -132.155)"/><path d="M355.515,214.611l.008,0h0Zm-2.006-82.7h-30.23a5.65,5.65,0,0,0-5.65,5.649v72.509a5.65,5.65,0,0,0,5.65,5.649h30.23a5.649,5.649,0,0,0,5.65-5.649V137.558A5.65,5.65,0,0,0,353.509,131.909Z" transform="translate(-317.629 -131.909)"/></g></g><g transform="translate(317.629 131.92)"><g transform="translate(0 0)"><path class="bk" d="M353.51,132.007H323.279a5.65,5.65,0,0,0-5.649,5.65v72.508a5.65,5.65,0,0,0,5.649,5.65H353.51a5.65,5.65,0,0,0,5.649-5.65V137.657A5.65,5.65,0,0,0,353.51,132.007ZM359,209.64a5.474,5.474,0,0,1-.265,1.687c-.013.041-.026.082-.041.122s-.028.081-.044.121-.022.061-.035.09q-.053.134-.113.264c-.018.039-.036.078-.054.115-.026.054-.052.106-.081.158-.018.036-.037.07-.057.1s-.041.073-.063.11c-.059.1-.122.2-.188.3-.021.03-.042.062-.064.092s-.048.068-.074.1-.049.067-.076.1-.051.066-.079.1-.054.065-.082.1c-.053.064-.11.127-.168.188-.088.094-.179.186-.275.275-.028.026-.057.052-.086.078-.066.059-.133.115-.2.172l-.09.07c-.1.078-.2.151-.307.221-.035.024-.07.047-.106.069-.071.046-.144.089-.217.131-.037.022-.072.042-.109.061-.119.065-.239.126-.363.18-.032.016-.065.029-.1.043s-.078.034-.117.049l-.12.046c-.089.034-.179.065-.271.093l-.1.029c-.12.036-.242.067-.366.094l-.13.027q-.068.014-.138.025-.127.022-.258.038h0l-.05.005a.208.208,0,0,1-.036,0h-.015c.078-.008.154-.019.231-.031l.114-.02c.038-.006.075-.015.112-.022.113-.023.224-.051.335-.082.037-.009.073-.021.109-.033.072-.022.144-.046.215-.071q.161-.058.315-.126c.035-.014.069-.029.1-.046l.1-.048c.067-.034.133-.068.2-.1s.129-.073.193-.112.114-.072.171-.109a.09.09,0,0,0,.017-.012c.092-.063.183-.128.271-.2.029-.022.059-.045.087-.069.082-.066.161-.135.239-.207a4.963,4.963,0,0,0,.53-.573c.023-.028.046-.059.068-.088a4.982,4.982,0,0,0,.587-1c.025-.057.049-.115.071-.173a4.881,4.881,0,0,0,.256-.882c.012-.06.022-.121.031-.181a5.082,5.082,0,0,0,.057-.752V137.657a4.977,4.977,0,0,0-4.442-4.942l-.133-.012-.136-.008h0c-.085,0-.169-.006-.255-.006h-30.23q-.129,0-.255.006h0a4.975,4.975,0,0,0-4.711,4.962v72.508a4.976,4.976,0,0,0,4.41,4.938l-.1-.01h0q-.131-.016-.258-.038a5.471,5.471,0,0,1-1.47-.471l-.1-.047c-.082-.043-.163-.086-.242-.132l-.108-.064a5.375,5.375,0,0,1-.52-.358l-.089-.07c-.088-.071-.174-.145-.257-.22-.027-.025-.055-.05-.081-.077s-.062-.059-.092-.089l-.089-.091c-.02-.02-.039-.04-.058-.061l-.071-.079a5.56,5.56,0,0,1-.393-.494c-.022-.03-.043-.062-.064-.092-.066-.1-.128-.2-.187-.3-.022-.036-.043-.072-.063-.109a5.453,5.453,0,0,1-.385-.856c-.015-.041-.028-.081-.041-.122a5.549,5.549,0,0,1-.163-.629c-.008-.043-.017-.086-.024-.129a5.539,5.539,0,0,1-.079-.929V137.657c0-.055,0-.108,0-.161s0-.081,0-.121c0-.088.01-.175.02-.262,0-.045.009-.09.015-.134l.009-.071c0-.028.007-.057.013-.086q.01-.068.022-.135.021-.118.047-.233c.008-.039.018-.077.027-.114.027-.114.059-.225.094-.337l.035-.1c.015-.043.029-.086.045-.128s.026-.07.04-.1.022-.058.035-.086.028-.069.043-.1.022-.051.035-.077.034-.074.052-.112c.03-.065.063-.13.1-.194.017-.032.035-.065.054-.1s.042-.076.064-.112a5.523,5.523,0,0,1,.517-.735l.083-.1c.031-.036.063-.072.1-.108.055-.059.109-.116.166-.172s.123-.12.186-.177.128-.113.194-.168l.1-.081c.067-.052.135-.1.206-.154s.139-.1.212-.145.145-.091.219-.134l.112-.064.113-.061.115-.059.118-.057c.078-.036.157-.07.238-.1l.115-.046.01,0,.117-.043.116-.04c.044-.014.088-.028.133-.041l.126-.036.128-.034.129-.03c.087-.02.174-.037.262-.051l.131-.021c.094-.014.19-.025.285-.034.076-.007.152-.013.229-.017l.141-.005.142,0h30.23l.142,0,.117,0c.089,0,.177.011.265.019h0l.133.015.133.018.132.021.13.024s0,0,0,0l.129.027.117.026.025.006.11.029c.051.014.1.028.153.044l.1.033c.076.025.152.051.228.08.051.018.1.038.151.059l.109.046c.04.017.079.035.119.054l.116.056a5.317,5.317,0,0,1,.787.473c.03.021.061.043.09.066.109.082.214.167.316.256q.068.058.132.12a5.33,5.33,0,0,1,.5.526c.028.034.054.066.081.1.056.07.108.141.158.212.026.036.051.072.076.109.043.062.084.126.124.19l.059.1c.036.062.071.124.1.188.017.03.033.061.048.092.056.106.106.213.154.323.011.028.024.057.036.086.045.109.087.22.125.332.015.042.028.083.041.125a5.488,5.488,0,0,1,.176.741q.006.039.013.082c.006.044.013.088.018.132s.01.089.015.134.008.09.013.135c.005.083.009.166.012.25q0,.08,0,.16Z" transform="translate(-317.63 -132.007)"/><g transform="translate(0.157 0.688)"><path class="bl" d="M323.977,220.461l-.132-.014h0q-.131-.016-.258-.038a5.472,5.472,0,0,1-1.47-.471l-.1-.047c-.082-.043-.163-.086-.242-.132l-.108-.064a5.375,5.375,0,0,1-.52-.358l-.089-.07c-.088-.071-.174-.145-.257-.22-.027-.025-.055-.05-.081-.077s-.062-.059-.092-.089l-.089-.091c-.02-.02-.039-.04-.058-.061l-.071-.079a5.564,5.564,0,0,1-.393-.494c-.022-.03-.043-.062-.064-.092-.066-.1-.128-.2-.187-.3-.022-.036-.043-.072-.063-.109a5.456,5.456,0,0,1-.385-.856c-.015-.041-.028-.081-.041-.122a5.547,5.547,0,0,1-.163-.629c-.008-.043-.017-.086-.024-.129a5.539,5.539,0,0,1-.079-.929V143.536a5.5,5.5,0,0,1,5.235-5.486,4.975,4.975,0,0,0-4.711,4.961v72.508A4.976,4.976,0,0,0,323.977,220.461Z" transform="translate(-319.011 -138.05)"/><path class="bm" d="M641.3,143.6V215.06a5.472,5.472,0,0,1-.265,1.687c-.013.041-.026.082-.041.122s-.028.081-.044.121-.022.061-.035.09q-.053.134-.113.264c-.018.039-.036.078-.054.115-.026.054-.052.106-.081.158-.018.036-.037.07-.057.1s-.041.073-.063.11c-.059.1-.122.2-.188.3-.021.03-.042.062-.064.092s-.049.068-.074.1-.05.068-.076.1l-.079.1c-.026.032-.053.065-.082.1-.055.064-.11.127-.168.188-.088.094-.179.186-.275.275l-.086.078c-.066.059-.133.115-.2.172l-.09.07c-.1.078-.2.151-.307.221l-.106.069c-.071.046-.144.089-.217.131-.036.021-.072.042-.109.061-.119.065-.239.126-.363.18-.032.016-.065.029-.1.043s-.078.034-.117.049l-.12.046c-.089.034-.179.065-.271.093l-.1.029c-.12.036-.242.067-.366.094l-.13.027q-.068.014-.138.025-.129.022-.258.038h0l-.132.014a4.977,4.977,0,0,0,4.442-4.942V143.076a4.976,4.976,0,0,0-4.576-4.953A5.5,5.5,0,0,1,641.3,143.6Z" transform="translate(-600.082 -138.115)"/><path class="bn" d="M360.226,813.832v.524a5.5,5.5,0,0,1-5.492,5.492H324.5a5.5,5.5,0,0,1-5.493-5.492v-.524a5.54,5.54,0,0,0,.079.929c.007.043.016.086.024.129a5.552,5.552,0,0,0,.163.629c.013.041.026.081.041.122a5.459,5.459,0,0,0,.385.856c.02.037.041.073.063.109.059.1.121.2.187.3.021.031.042.062.064.092a5.567,5.567,0,0,0,.393.494l.071.079c.019.021.038.041.058.061l.089.091c.03.03.061.06.092.089s.053.051.081.077c.083.075.169.149.257.22.029.024.059.047.089.07a5.38,5.38,0,0,0,.52.358l.108.064c.08.046.16.089.242.132l.1.047a5.471,5.471,0,0,0,1.47.471q.127.022.258.038h0c.088.01.176.019.265.025l.136.008q.127.006.258.006h30.23c.086,0,.171,0,.256-.006l.136-.008c.072-.005.144-.011.215-.02l.05-.005h0q.131-.016.258-.038.071-.011.138-.025l.13-.027c.124-.027.246-.059.366-.094l.1-.029c.091-.028.181-.06.271-.093l.12-.046c.04-.016.079-.031.117-.049s.065-.027.1-.043c.124-.055.244-.115.363-.18.037-.019.072-.039.109-.061.073-.042.146-.085.217-.131.036-.022.071-.045.106-.069.1-.07.208-.144.307-.221l.09-.07c.068-.057.135-.113.2-.172.029-.025.058-.051.086-.078.1-.089.187-.18.275-.275.058-.061.114-.124.168-.188.028-.032.056-.065.082-.1s.054-.065.079-.1.051-.067.075-.1.05-.067.074-.1.043-.062.064-.092c.066-.1.129-.2.188-.3.022-.037.043-.073.063-.11s.039-.069.057-.1c.028-.052.055-.1.081-.158.019-.038.038-.076.054-.115q.06-.131.113-.264c.013-.029.024-.06.035-.09s.03-.08.044-.121.028-.081.041-.122A5.473,5.473,0,0,0,360.226,813.832Z" transform="translate(-319.011 -736.887)"/></g><path class="bo" d="M360.226,138.881v.524a5.5,5.5,0,0,0-4.967-5.466l-.133-.012-.136-.008h0c-.085,0-.169-.006-.255-.006H324.5q-.129,0-.255.006h0a5.5,5.5,0,0,0-5.235,5.486v-.524c0-.055,0-.108,0-.161s0-.081,0-.121c0-.088.01-.175.02-.262,0-.045.009-.09.015-.134l.009-.071c0-.028.007-.057.013-.086q.01-.068.022-.135.021-.118.047-.233c.008-.039.018-.077.027-.114.027-.114.059-.225.094-.337l.035-.1c.015-.043.029-.086.045-.128s.026-.07.04-.1.022-.058.035-.086.028-.069.043-.1.022-.051.035-.077.034-.074.052-.112c.03-.065.063-.13.1-.194q.025-.049.054-.1c.02-.038.042-.076.064-.112a5.521,5.521,0,0,1,.517-.735l.083-.1c.031-.036.063-.072.1-.108.055-.059.109-.116.166-.172s.123-.12.186-.177.128-.113.194-.168l.1-.081c.067-.052.135-.1.206-.154s.139-.1.212-.145.145-.091.219-.134c.037-.022.074-.043.112-.064l.113-.061.115-.059.117-.057c.078-.036.157-.07.238-.1l.115-.046.01,0,.117-.043.116-.04c.044-.014.088-.028.133-.041l.126-.036.128-.034.129-.03c.087-.02.174-.037.262-.051l.131-.021c.094-.014.19-.025.285-.034.076-.007.152-.013.229-.017l.141-.005.142,0h30.23l.142,0,.118,0c.089,0,.177.011.265.019h0l.133.015.133.018.132.021.13.024s0,0,0,0l.129.027.117.026.025.006.11.029c.051.014.1.028.153.044l.1.033c.076.025.152.051.228.08.051.018.1.038.151.059l.109.046c.04.017.079.035.119.053l.116.056a5.317,5.317,0,0,1,.787.473c.03.021.061.043.09.066.109.082.214.167.316.256q.068.058.132.12a5.328,5.328,0,0,1,.5.526c.028.034.054.066.081.1.056.07.108.141.158.212.026.036.051.072.075.109.043.062.084.126.124.19l.059.1c.036.062.071.124.1.188.017.03.033.061.048.092.056.106.106.213.154.323.012.028.024.057.036.086.045.109.087.22.125.332.015.042.028.083.041.125a5.484,5.484,0,0,1,.176.741q.006.039.013.082c.006.044.013.088.018.132s.01.089.015.134.008.09.013.135c.005.083.009.166.011.25Q360.226,138.8,360.226,138.881Z" transform="translate(-318.854 -133.232)"/><g transform="translate(0.682 0.682)"><path d="M359.071,138h0q-.126-.006-.255-.006h-30.23q-.129,0-.255.006h0a4.975,4.975,0,0,0-4.711,4.961V215.47a4.975,4.975,0,0,0,4.574,4.953l.136.008q.127.006.258.006h30.23c.086,0,.171,0,.256-.006l.136-.008a4.976,4.976,0,0,0,4.576-4.953V142.962A4.975,4.975,0,0,0,359.071,138Zm4.292,77.469A4.57,4.57,0,0,1,359.178,220c-.042,0-.085.006-.128.007-.078,0-.156.006-.235.006h-30.23c-.08,0-.159,0-.238-.006-.042,0-.085,0-.124-.007a4.569,4.569,0,0,1-4.188-4.535V142.962a4.546,4.546,0,0,1,4.3-4.542h.013c.077,0,.155-.005.234-.005h30.23c.079,0,.157,0,.234.005h.007a4.545,4.545,0,0,1,4.307,4.542Z" transform="translate(-323.617 -137.994)"/></g><path class="bp" d="M661.288,155.846v72.508a4.5,4.5,0,0,1-.595,2.236c-.035.061-.071.121-.108.179q-.085.132-.176.258a4.7,4.7,0,0,1-.585.657,4.725,4.725,0,0,0,.625-2.351V228.5c0-.049,0-.1,0-.15V155.839c0-.051,0-.1,0-.153v-.818a4.748,4.748,0,0,0-.626-2.367A4.54,4.54,0,0,1,661.288,155.846Z" transform="translate(-620.861 -150.168)"/><g transform="translate(1.521 1.521)"><path d="M430.291,155.034v.4a2.41,2.41,0,0,1-2.41,2.41H412.146a2.41,2.41,0,0,1-2.41-2.41v-.4Z" transform="translate(-400.769 -153.933)"/></g><path d="M430.291,155.039v.4a2.41,2.41,0,0,1-2.41,2.41H412.146a2.41,2.41,0,0,1-2.41-2.41v-.4Z" transform="translate(-399.249 -152.417)"/><g transform="translate(1.101 1.123)"><path class="bq" d="M372.334,818.781v.836a4.726,4.726,0,0,1-.625,2.351,4.522,4.522,0,0,1-2.718,1.2c-.042,0-.085.006-.128.007-.078,0-.156.006-.235.006H338.4c-.08,0-.159,0-.238-.006-.042,0-.085,0-.124-.007-.058,0-.115-.011-.173-.018a4.515,4.515,0,0,1-2.545-1.179,4.725,4.725,0,0,1-.63-2.36v-.978a3.714,3.714,0,0,0,1.306,2.818,3.675,3.675,0,0,0,2.109.88c.026,0,.052.005.079.005h.023c.064,0,.129.005.194.005h30.23c.063,0,.127,0,.19-.005h.024c.029,0,.058,0,.086-.005A3.724,3.724,0,0,0,372.334,818.781Z" transform="translate(-333.847 -741.575)"/><path class="bq" d="M373.173,146.428l0-.007a4.545,4.545,0,0,0-4.307-4.542h-.007c-.077,0-.155-.005-.234-.005H338.4c-.079,0-.157,0-.234.005h-.013c-.1.005-.2.014-.292.025a4.531,4.531,0,0,0-2.546,1.172,4.748,4.748,0,0,0-.626,2.367v.978a3.708,3.708,0,0,1,3.488-3.7h.02l.027,0,.175,0h30.23l.158,0h0l.038,0a3.707,3.707,0,0,1,3.509,3.551v-.818a4.748,4.748,0,0,0-.626-2.367A4.54,4.54,0,0,1,373.173,146.428Z" transform="translate(-333.847 -141.872)"/><path class="br" d="M328.77,231.435A4.551,4.551,0,0,1,327.3,228.1V155.588a4.54,4.54,0,0,1,1.465-3.345,4.749,4.749,0,0,0-.626,2.367v74.465A4.726,4.726,0,0,0,328.77,231.435Z" transform="translate(-327.301 -151.062)"/><path class="bs" d="M661.255,155.846v72.508a4.5,4.5,0,0,1-.595,2.236c-.035.061-.071.121-.108.179q-.082.132-.176.258a4.51,4.51,0,0,1-.59.665l.005-.008a4.725,4.725,0,0,0,.625-2.351V154.868a4.749,4.749,0,0,0-.626-2.367A4.54,4.54,0,0,1,661.255,155.846Z" transform="translate(-621.929 -151.291)"/></g><g transform="translate(18.226 2.948)"><rect class="bt" width="4.824" height="0.507" rx="0.253"/></g><g transform="translate(2.62 2.617)"><path class="bu" d="M374.1,155h-.027l-.041,0c-.048,0-.092,0-.133,0h-4.362a.5.5,0,0,0-.476.452c0,.017,0,.034,0,.051v.006a2.41,2.41,0,0,1-2.407,2.3H350.914a2.41,2.41,0,0,1-2.407-2.3v-.006c0-.018,0-.035,0-.051a.5.5,0,0,0-.476-.452h-4.362c-.041,0-.085,0-.133,0l-.041,0h-.027a3.028,3.028,0,0,0-2.827,3.022v72.512a3.042,3.042,0,0,0,2.788,3.018l.041,0h.043c.052,0,.1,0,.157,0H373.9c.052,0,.1,0,.157,0h.043l.041,0a3.042,3.042,0,0,0,2.788-3.018V158.017A3.028,3.028,0,0,0,374.1,155Z" transform="translate(-340.638 -154.989)"/></g></g></g><path d="M365.564,145.369h-.019c-.066,0-.133,0-.2,0h-30.23c-.069,0-.137,0-.2,0l-.021,0h-.01a4.129,4.129,0,0,0-3.9,4.123V222a4.148,4.148,0,0,0,3.8,4.117c.031,0,.066.005.1.006h.012c.071,0,.143.006.216.006h30.23c.071,0,.142,0,.212-.006h.013c.036,0,.071,0,.1-.006a4.147,4.147,0,0,0,3.8-4.116V149.492A4.127,4.127,0,0,0,365.564,145.369ZM368.372,222a3.04,3.04,0,0,1-2.784,3.019l-.044,0H365.5c-.051,0-.1,0-.153,0h-30.23c-.052,0-.105,0-.157,0h-.043l-.041,0A3.042,3.042,0,0,1,332.086,222V149.492a3.029,3.029,0,0,1,2.827-3.021h.027l.041,0,.133,0h30.23l.136,0h.025a3.026,3.026,0,0,1,2.866,3.023Z" transform="translate(-11.835 -11.922)"/><path class="bv" d="M559.449,907.243l.742-1.482h1.07l.182-1.676" transform="translate(-202.688 -721.281)"/><path class="bw" d="M559.449,907.243l.97-1.482h1.4l.238-1.676" transform="translate(-229.301 -770.281)"/><path class="bw" d="M561.443,904.085l-.742.4h-1.07l-.182.455" transform="translate(-213.688 -769.131)"/><path class="bw" d="M561.627,904.085l-.81.489h-1.169l-.2.552" transform="translate(-241.475 -751.164)"/><path class="bv" d="M561.627,907.7l-.81-1.695h-1.169l-.2-1.916" transform="translate(-241.475 -720.733)"/></g></svg>