<svg xmlns="http://www.w3.org/2000/svg" xmlns:xlink="http://www.w3.org/1999/xlink" width="525.001" height="546.547" viewBox="0 0 525.001 546.547"><defs><style>.a{fill:#fff;}.b{fill:#c01e29;}.c{filter:url(#e);}.d{filter:url(#c);}.e{filter:url(#a);}</style><filter id="a" x="0" y="0" width="525.001" height="507" filterUnits="userSpaceOnUse"><feOffset dy="50" input="SourceAlpha"/><feGaussianBlur stdDeviation="49.5" result="b"/><feFlood flood-color="#372b7b" flood-opacity="0.141"/><feComposite operator="in" in2="b"/><feComposite in="SourceGraphic"/></filter><filter id="c" x="74" y="170.453" width="376.094" height="376.094" filterUnits="userSpaceOnUse"><feOffset dy="50" input="SourceAlpha"/><feGaussianBlur stdDeviation="49.5" result="d"/><feFlood flood-color="#372b7b" flood-opacity="0.141"/><feComposite operator="in" in2="d"/><feComposite in="SourceGraphic"/></filter><filter id="e" x="74" y="170.453" width="376.094" height="376.094" filterUnits="userSpaceOnUse"><feOffset dy="3" input="SourceAlpha"/><feGaussianBlur stdDeviation="3" result="f"/><feFlood flood-opacity="0.161" result="g"/><feComposite operator="out" in="SourceGraphic" in2="f"/><feComposite operator="in" in="g"/><feComposite operator="in" in2="SourceGraphic"/></filter></defs><g transform="translate(148.605 98.5)"><g class="e" transform="matrix(1, 0, 0, 1, -148.6, -98.5)"><path class="a" d="M66.425,210H20A20,20,0,0,1,0,190V20A20,20,0,0,1,20,0H208a20,20,0,0,1,20,20V190a20,20,0,0,1-20,20H163.371a48.473,48.473,0,0,0-96.945,0Z" transform="translate(148.5 98.5)"/></g><g transform="translate(73.895 170.453)"><g data-type="innerShadowGroup"><g class="d" transform="matrix(1, 0, 0, 1, -222.5, -268.95)"><path class="b" d="M39.547,0A39.547,39.547,0,1,1,0,39.547,39.547,39.547,0,0,1,39.547,0Z" transform="translate(222.5 268.95)"/></g><g class="c" transform="matrix(1, 0, 0, 1, -222.5, -268.95)"><path class="a" d="M39.547,0A39.547,39.547,0,1,1,0,39.547,39.547,39.547,0,0,1,39.547,0Z" transform="translate(222.5 268.95)"/></g></g><path class="a" d="M14.466,11.484a.826.826,0,0,1,.006,1.163L10.63,16.5H25.254a.822.822,0,0,1,0,1.643H10.637l3.842,3.849a.832.832,0,0,1-.006,1.163.818.818,0,0,1-1.156-.006L8.109,17.9h0a.923.923,0,0,1-.171-.259.784.784,0,0,1-.063-.316.824.824,0,0,1,.234-.575L13.316,11.5A.805.805,0,0,1,14.466,11.484Z" transform="translate(56.866 22.575) rotate(90)"/></g></g></svg>