<svg xmlns="http://www.w3.org/2000/svg" xmlns:xlink="http://www.w3.org/1999/xlink" width="418.171" height="408.874" viewBox="0 0 418.171 408.874"><defs><style>.a{fill:none;}.b{fill:url(#a);}.c{clip-path:url(#b);}.d{mix-blend-mode:soft-light;}.ae,.af,.ag,.an,.d,.n,.r,.t{isolation:isolate;}.e{fill:#fcfdfe;}.f{fill:#d8dee8;}.g{clip-path:url(#c);}.h{clip-path:url(#d);}.i{fill:url(#e);}.j{fill:#beb8f2;}.k{fill:url(#f);}.l{fill:url(#g);}.m{fill:url(#h);}.ae,.af,.ag,.an,.n,.r,.t{opacity:0.3;mix-blend-mode:multiply;}.n{fill:url(#i);}.o{fill:url(#j);}.p{fill:#de8bdf;}.q{fill:url(#k);}.r{fill:url(#l);}.s,.t{fill:url(#m);}.u{fill:url(#o);}.v{fill:url(#p);}.w{fill:url(#q);}.x{fill:url(#r);}.y{fill:url(#s);}.z{fill:url(#t);}.aa{fill:#fff;}.ab{fill:url(#u);}.ac{fill:url(#v);}.ad{fill:url(#w);}.ae{fill:url(#x);}.af{fill:url(#y);}.ah{fill:url(#aa);}.ai{fill:url(#ac);}.aj{fill:url(#ad);}.ak{fill:url(#ae);}.al{fill:url(#af);}.am{fill:url(#ag);}.an{fill:url(#ah);}</style><linearGradient id="a" x1="1.717" y1="1.79" x2="1.253" y2="3.735" gradientUnits="objectBoundingBox"><stop offset="0" stop-color="#ffc444"/><stop offset="0.996" stop-color="#f36f56"/></linearGradient><clipPath id="b"><path class="a" d="M690.488,1112.273c7.677,19.391,14.691,39.439,22.316,59.009,11.9.214,25.9.175,27.6-14.545,2.367-20.465,37.006-30.479,53.568-31.927,20.5-1.792,64.451-9.784,53.289-37.91-9.293-23.414-24.3-34.156,1.493-50.948s35.158-38.2,21.058-62.589c-14.838-25.671,8.88-63.214-17.785-78.525-46.463-26.68-75.119,52.479-69.515,94.477s-18.038,34.329-44.651,44.34c-36.331,13.667-2.632,45.879-15.22,63.226C712.774,1110.481,704.2,1108.651,690.488,1112.273Z" transform="translate(-690.488 -889.464)"/></clipPath><clipPath id="c"><path class="a" d="M1906.231,1044.95c-7.466,17.967-14.324,36.558-21.745,54.693-11.1.012-24.162-.245-25.518-14-1.885-19.127-34.039-29.012-49.467-30.624-19.094-1.995-59.965-10.141-49.111-36.2,9.038-21.695,23.208-31.479-.59-47.548s-32.194-36.182-18.657-58.715c14.244-23.712-7.288-59.106,17.825-72.969,43.761-24.156,69.245,50.136,63.357,89.223s16.286,32.306,40.952,42.064c33.675,13.32,1.734,42.838,13.2,59.217C1885.472,1042.927,1893.494,1041.355,1906.231,1044.95Z" transform="translate(-1734.671 -834.854)"/></clipPath><clipPath id="d"><path class="a" d="M1094.618,806.632q-24.738-3.943-49.386-8.952c-.274.221-4.882-33.557,12.631-50.849,34.614-33.483,12.6-64.662,6.551-82.988-9.767-25.869-3.686-56.928,26.354-50.448,29.282,5.653,35.116-50.909,31.1-94.665-3.816-21.336,18.224-46.656,39.738-52.093,21.975-6.063,43.423,7.758,49.069,50.244,8.912,49.243-30.033,78-44.786,102.277-14.514,23.835,17.416,44.047-9.183,64.873-22.4,18.532-50.377,31.6-40.841,55.68C1125.683,763.525,1122.727,782.761,1094.618,806.632Z" transform="translate(-1044.486 -465.281)"/></clipPath><linearGradient id="e" x1="-1.974" y1="1.666" x2="-1.307" y2="2.597" gradientUnits="objectBoundingBox"><stop offset="0" stop-color="#ff9085"/><stop offset="1" stop-color="#fb6fbb"/></linearGradient><linearGradient id="f" x1="-0.21" y1="0.814" x2="0.653" y2="0.446" gradientUnits="objectBoundingBox"><stop offset="0" stop-color="#444b8c"/><stop offset="0.996" stop-color="#26264f"/></linearGradient><linearGradient id="g" x1="0.548" y1="-0.413" x2="0.477" y2="0.938" xlink:href="#f"/><linearGradient id="h" x1="0.451" y1="-0.06" x2="0.636" y2="2.015" gradientUnits="objectBoundingBox"><stop offset="0" stop-color="#aa80f9"/><stop offset="0.996" stop-color="#6165d7"/></linearGradient><linearGradient id="i" x1="0.452" y1="-0.051" x2="0.635" y2="2.007" xlink:href="#h"/><linearGradient id="j" x1="0.559" y1="-8.055" x2="0.386" y2="16.64" xlink:href="#f"/><linearGradient id="k" x1="-0.007" y1="-0.542" x2="0.06" y2="2.012" xlink:href="#e"/><linearGradient id="l" x1="-0.07" y1="-0.573" x2="-0.006" y2="1.889" xlink:href="#e"/><linearGradient id="m" x1="-1.488" y1="-1.884" x2="-1.222" y2="1.759" xlink:href="#e"/><linearGradient id="o" x1="-1.487" y1="-1.903" x2="-1.222" y2="1.767" xlink:href="#e"/><linearGradient id="p" x1="7.444" y1="-3.524" x2="7.212" y2="6.387" xlink:href="#f"/><linearGradient id="q" x1="18.278" y1="1.882" x2="18.632" y2="-8.958" xlink:href="#a"/><linearGradient id="r" x1="-1.398" y1="-1.189" x2="-1.698" y2="2.684" xlink:href="#f"/><linearGradient id="s" x1="-1.266" y1="1.268" x2="-1.088" y2="-3.814" xlink:href="#a"/><linearGradient id="t" x1="4.122" y1="0.668" x2="3.117" y2="0.31" xlink:href="#h"/><linearGradient id="u" x1="1.714" y1="0.737" x2="0.096" y2="0.111" xlink:href="#h"/><linearGradient id="v" x1="1" y1="0.5" x2="0" y2="0.5" xlink:href="#e"/><linearGradient id="w" x1="0.423" y1="0.683" x2="0.639" y2="0.44" xlink:href="#f"/><linearGradient id="x" x1="5.183" y1="0.693" x2="3.779" y2="0.332" xlink:href="#h"/><linearGradient id="y" x1="3.887" y1="0.5" x2="2.887" y2="0.5" xlink:href="#e"/><linearGradient id="aa" x1="0.648" y1="-0.146" x2="0.435" y2="0.812" xlink:href="#e"/><linearGradient id="ac" x1="0.329" y1="0.554" x2="-0.255" y2="0.738" gradientUnits="objectBoundingBox"><stop offset="0" stop-color="#fcb148"/><stop offset="0.052" stop-color="#fdb946"/><stop offset="0.142" stop-color="#fec144"/><stop offset="0.318" stop-color="#ffc444"/><stop offset="0.485" stop-color="#fdb946"/><stop offset="0.775" stop-color="#f99c4c"/><stop offset="0.866" stop-color="#f8924f"/><stop offset="1" stop-color="#f8924f"/></linearGradient><linearGradient id="ad" x1="0.727" y1="0.007" x2="0.207" y2="1.135" gradientUnits="objectBoundingBox"><stop offset="0" stop-color="#ffdb44"/><stop offset="1" stop-color="#feef06"/></linearGradient><linearGradient id="ae" x1="0.636" y1="1.231" x2="0.531" y2="0.666" xlink:href="#ac"/><linearGradient id="af" x1="0.409" y1="0.31" x2="0.858" y2="1.247" xlink:href="#ac"/><linearGradient id="ag" x1="0.253" y1="0.019" x2="0.711" y2="1.039" xlink:href="#ad"/><linearGradient id="ah" x1="0.464" y1="0.369" x2="1.215" y2="1.306" xlink:href="#ac"/></defs><rect class="a" width="379.698" height="379.698" transform="translate(38.473)"/><g transform="translate(0 1.502)"><g transform="translate(199.757 61.954)"><g transform="translate(0)"><path class="b" d="M728.093,1161.984c-3.027-.2-9.438-3.3-10.776-4.8-8.9-9.966-26.785-27.542-26.843-41.67-.01-2.413,10.593-5.321,11.958-7.623,6.31-3.495,8.715-4.316,13.081-10.586,12.889-18.509-21.126-49.594,15.291-63.569,26.675-10.237,50.249-2.311,44.66-44.37s23.056-121.15,69.521-94.494c26.666,15.3,2.943,52.86,17.785,78.527,14.1,24.39,4.737,45.792-21.06,62.589s-10.775,27.513-1.493,50.951c11.15,28.154-32.744,36.034-53.319,37.943C770.328,1126.423,729.176,1141.516,728.093,1161.984Z" transform="translate(-683.444 -889.5)"/><g class="c"><g class="d" transform="translate(20.575 -6.739)"><path class="e" d="M1006.364,1038.739a244.623,244.623,0,0,1-69.8,59.38l-.34-.6c43.418-24.653,78.112-61.941,100.333-107.832,21.143-43.667,30.79-94.267,27.9-146.331l.687-.038c2.9,52.18-6.771,102.9-27.964,146.668A254.09,254.09,0,0,1,1006.364,1038.739Z" transform="translate(-936.226 -843.32)"/><path class="e" d="M944.1,2291.389c-26.3-6.83-69.424-4.344-96.121,5.543l-.239-.645c26.809-9.927,70.114-12.425,96.534-5.565Z" transform="translate(-801.935 -2076.017)"/><path class="e" d="M1611.712,1958.751q-1.326,1.646-2.807,3.163l-.492-.481c10.337-10.587,14.924-25.988,13.638-45.784-.944-14.517-4.967-31.016-11.957-49.035l.642-.25c7.016,18.087,11.055,34.652,12,49.239C1623.914,1933.718,1620.207,1948.209,1611.712,1958.751Z" transform="translate(-1591.706 -1716.945)"/><path class="e" d="M719.795,1594.207c-20.545,2.246-48.882,9.289-67.206,30.09l-.517-.455c18.47-20.967,46.982-28.061,67.648-30.319Z" transform="translate(-548.874 -1483.953)"/><path class="e" d="M1008.787,970.466l-.688-.007c.127-13.5-3.767-40.672-31.27-70.9l.509-.463C1005,929.5,1008.916,956.86,1008.787,970.466Z" transform="translate(-885.301 -890.951)"/></g></g></g></g><g transform="translate(61.574 53.978)"><g transform="translate(0 0)"><path class="f" d="M1909.048,1090.618c2.828-.138,8.856-2.93,10.128-4.306,8.461-9.156,25.417-25.27,25.694-38.446.047-2.251-9.8-5.13-11.035-7.3-5.83-3.36-8.062-4.164-12.036-10.08-11.732-17.468,20.488-45.929-13.262-59.538-24.721-9.969-46.836-2.947-40.96-42.092s-19.6-113.371-63.362-89.238c-25.114,13.85-3.577,49.261-17.825,72.97-13.54,22.529-5.139,42.641,18.659,58.715s9.618,25.834.59,47.551c-10.843,26.087,29.977,34.128,49.14,36.233C1870.21,1056.781,1908.36,1071.508,1909.048,1090.618Z" transform="translate(-1779.917 -834.888)"/><g transform="translate(0.002)"><g class="g"><g class="d" transform="translate(-5.188 -6.381)"><path class="e" d="M1921.282,974.376a228.221,228.221,0,0,0,64.173,56.489l.327-.553c-40.113-23.68-71.889-59.008-91.893-102.165-19.034-41.065-27.236-88.417-23.719-136.936l-.639-.047c-3.527,48.628,4.695,96.089,23.776,137.253A237,237,0,0,0,1921.282,974.376Z" transform="translate(-1828.614 -791.164)"/><path class="e" d="M2157.792,2143.615c24.644-5.958,64.827-2.96,89.575,6.684l.234-.6c-24.852-9.685-65.208-12.695-89.961-6.71Z" transform="translate(-2132.628 -1942.922)"/><path class="e" d="M1984.3,1843.47q1.21,1.557,2.568,2.994l.466-.441c-9.476-10.038-13.513-24.477-12-42.922,1.108-13.528,5.121-28.853,11.925-45.552l-.595-.242c-6.828,16.76-10.856,32.149-11.971,45.741C1973.31,1819.926,1976.539,1833.5,1984.3,1843.47Z" transform="translate(-1845.595 -1616.198)"/><path class="e" d="M2515.509,1487.072c19.128,2.418,45.45,9.434,62.216,29.126l.488-.416c-16.9-19.849-43.382-26.915-62.625-29.347Z" transform="translate(-2515.509 -1384.888)"/><path class="e" d="M2426.828,913.246l.642,0c.095-12.6,4.155-37.88,30.284-65.642l-.466-.44C2431.006,875.09,2426.923,900.553,2426.828,913.246Z" transform="translate(-2382.098 -838.989)"/></g></g></g></g></g><g transform="translate(166.441 0)"><g transform="translate(0)"><g class="h"><path class="i" d="M1094.618,806.632q-24.738-3.943-49.386-8.952c-.274.221-4.882-33.557,12.631-50.849,34.614-33.483,12.6-64.662,6.551-82.988-9.663-25.847-3.581-53.485,24.3-53.3,30.936-.365,37.7-48.131,33.155-91.81-3.816-21.336,18.224-46.656,39.738-52.093,21.975-6.063,43.423,7.758,49.069,50.244,8.912,49.243-30.033,78-44.786,102.277-14.514,23.835,17.416,44.047-9.183,64.873-22.4,18.532-50.377,31.6-40.841,55.68C1125.683,763.525,1122.727,782.761,1094.618,806.632Z" transform="translate(-1044.486 -465.281)"/><g class="d" transform="translate(9.196 -10.755)"><path class="e" d="M1369.6,745.285l-.738-.028c0-.3,17.527-70.777,46.471-139.143,4.035-11.08,8.4-22.249,12.62-33.051,11.3-28.923,22.984-58.83,28.913-88.729,6.626-33.417,5.288-63.67-4.095-92.486l.705-.2c9.417,28.926,10.763,59.285,4.114,92.814-5.94,29.955-17.635,59.89-28.946,88.84-4.219,10.8-8.581,21.965-12.619,33.053C1387.023,674.865,1369.655,744.868,1369.6,745.285Z" transform="translate(-1350.81 -391.646)"/><path class="e" d="M1016.8,830.4l-.537-.472c18.912-18.792,41.831-45.582,54.144-59.974,9.913-11.587,9.973-11.575,10.384-11.506l-.065.34.148.308,0,0c-.513.328-4.652,5.165-9.89,11.288C1058.663,784.785,1035.732,811.589,1016.8,830.4Z" transform="translate(-918.448 -704.866)"/><path class="j" d="M1444.655,724.411l-.792.1c-6.127-41.174-33.672-58.261-36.041-58.64a.336.336,0,0,0,.205-.05l-.43-.631c.214-.128.472-.058.874.116C1414.655,667.984,1438.918,685.853,1444.655,724.411Z" transform="translate(-1339.384 -625.185)"/><path class="j" d="M1832.928,1565.841l-.792-.1c3.1-20.388-1.461-42.487-13.546-65.683a189.18,189.18,0,0,0-24.146-35.353c-.708-.827-.956-1.119-1.037-1.255l.7-.362c.059.1.475.585.959,1.149a189.983,189.983,0,0,1,24.242,35.493C1831.465,1523.058,1836.047,1545.3,1832.928,1565.841Z" transform="translate(-1784.955 -1306.596)"/><path class="e" d="M1380.525,1808.359l-.109-.324-.038.337c-.394-.022-41.852,1.289-62.08,30.378l-.618-.376c20.576-29.593,62.49-30.773,62.839-30.677l.266.328Z" transform="translate(-1262.383 -1600.873)"/><path class="j" d="M2000.077,2454.833l-.8-.043c.565-8.888-2.467-24.124-20.117-46.244-.975-1.222-.975-1.222-.939-1.423l.789.124-.4-.062.367-.139c.053.093.407.537.818,1.053C1997.6,2430.4,2000.65,2445.822,2000.077,2454.833Z" transform="translate(-1978.211 -2112.689)"/><path class="j" d="M1651.3,2429.987l-.763-.224c2.265-6.739,10.849-19.853,42.9-31.97.441-.167.724-.273.826-.32l.349.673c-.106.048-.407.164-.875.341C1662,2410.488,1653.523,2423.375,1651.3,2429.987Z" transform="translate(-1624.829 -2104.514)"/></g></g></g></g><g transform="translate(147.354 50.009)"><path class="k" d="M1240.829,820.122v279.061c0,4.173,3.473,5.145,7.413,5.361l136.409,10.134,2.087.115a7.391,7.391,0,0,0,7.8-7.508V815.362a7.585,7.585,0,0,0-7.8-7.678l-2.832.094L1247.017,818.6C1243.078,818.728,1240.829,815.949,1240.829,820.122Z" transform="translate(-1236.626 -807.68)"/><path class="l" d="M1270.241,820.118v278.976a7.911,7.911,0,0,0,7.153,7.979l138.668,7.625a7.389,7.389,0,0,0,7.792-7.507V815.36a7.581,7.581,0,0,0-7.792-7.676L1277.394,812.3A7.7,7.7,0,0,0,1270.241,820.118Z" transform="translate(-1270.241 -807.68)"/><path class="m" d="M1303.48,933.656v258.518a7.4,7.4,0,0,0,6.715,7.441l130.4,6.94a6.9,6.9,0,0,0,7.259-7.008V929.854a7.181,7.181,0,0,0-3.559-6.255,6.934,6.934,0,0,0-3.682-.93l-130.419,3.712A7.179,7.179,0,0,0,1303.48,933.656Z" transform="translate(-1299.096 -905.871)"/><path class="n" d="M1303.48,1177.858v19.772a7.4,7.4,0,0,0,6.715,7.44l130.4,6.94a6.9,6.9,0,0,0,7.259-7.008V935.309a7.18,7.18,0,0,0-3.559-6.255c-10.719,3.655-42.054,21.086-44.567,100.63C1397.262,1107.622,1320.019,1125.646,1303.48,1177.858Z" transform="translate(-1299.096 -911.327)"/><path class="o" d="M1652.962,865.3l.145,9.665a6.126,6.126,0,0,1-5.92,6.305l-50.944.865a6.121,6.121,0,0,1-6.137-6.118l-.145-9.691Z" transform="translate(-1546.19 -856.884)"/><path class="p" d="M1744.167,900.138a2.532,2.532,0,0,0,2.573,2.6,2.727,2.727,0,0,0,2.577-2.756,2.531,2.531,0,0,0-2.577-2.6A2.728,2.728,0,0,0,1744.167,900.138Z" transform="translate(-1664.922 -884.28)"/><path class="p" d="M1839.936,904.859a2.534,2.534,0,0,0,2.576,2.6,2.731,2.731,0,0,0,2.58-2.758,2.533,2.533,0,0,0-2.58-2.6A2.73,2.73,0,0,0,1839.936,904.859Z" transform="translate(-1774.684 -888.309)"/></g><g transform="translate(79.269 116.01)"><path class="q" d="M1972.813,1128.265l12.791,1.653,1.942.249s.161-.43.468-1.236c.143-.408.353-.9.594-1.475s.537-1.235.874-1.971a53.843,53.843,0,0,1,7.179-11.384,56.491,56.491,0,0,1,6.335-6.534c1.239-1.05,2.524-2.122,3.921-3.11.172-.126.347-.254.519-.382s.359-.242.536-.364q.537-.363,1.08-.735c.745-.457,1.481-.954,2.259-1.39a55.317,55.317,0,0,1,10.046-4.615c1.793-.614,3.641-1.129,5.516-1.58l1.419-.3c.235-.047.478-.106.706-.148l.692-.121.692-.124c.231-.039.45-.084.721-.115l1.548-.209.195-.026.089-.118.019-.108.023,0,.346.068.733-.022c.484-.05.973-.081,1.459-.1l1.46-.084c.489-.012.977-.021,1.463-.036a55.009,55.009,0,0,1,5.826.167l.725.056.719.08c.478.053.959.1,1.435.164.951.142,1.9.266,2.837.453.939.156,1.862.376,2.785.575.458.11.912.231,1.366.346l.681.174.669.2c1.8.5,3.522,1.118,5.2,1.766.833.342,1.662.67,2.461,1.043.81.351,1.587.747,2.364,1.122a59.621,59.621,0,0,1,8.3,5.095,58.184,58.184,0,0,1,6.329,5.365,61.547,61.547,0,0,1,4.348,4.744c.563.7,1.071,1.317,1.476,1.871s.773,1.016,1.047,1.425c.146.21.274.393.384.551a.866.866,0,0,0,1.028.309.85.85,0,0,0,.147-.073l.061-.039a.868.868,0,0,0,.292-1.163c-.093-.167-.2-.361-.328-.582-.23-.425-.561-.95-.942-1.567s-.834-1.314-1.346-2.089a64.448,64.448,0,0,0-4.05-5.354,61.826,61.826,0,0,0-6.117-6.264,63.854,63.854,0,0,0-8.334-6.267c-.794-.485-1.592-.989-2.431-1.449-.825-.483-1.687-.927-2.557-1.379-1.752-.876-3.572-1.729-5.484-2.463-.237-.094-.475-.191-.715-.284s-.483-.177-.726-.263c-.486-.173-.973-.355-1.465-.523-.992-.315-1.988-.653-3.01-.923-1.014-.3-2.051-.544-3.094-.8-.522-.118-1.048-.222-1.578-.334l-.792-.161-.8-.139a61.542,61.542,0,0,0-6.509-.8c-.55-.036-1.1-.069-1.651-.1l-1.655-.049c-.555-.022-1.108-.013-1.661-.01l-.834.005-.414,0-.464.022-1.562.062c-.249,0-.543.029-.827.052l-.858.066-.858.07c-.287.022-.555.061-.833.091-.551.064-1.106.125-1.657.19-2.2.311-4.386.7-6.535,1.219a64.976,64.976,0,0,0-12.274,4.286c-.969.43-1.9.93-2.833,1.4-.459.249-.913.5-1.368.747-.225.125-.452.251-.677.374s-.441.263-.662.394c-1.779,1.022-3.439,2.151-5.046,3.273a68.864,68.864,0,0,0-8.42,7.179,66.771,66.771,0,0,0-10.2,13.206c-.511.876-.969,1.66-1.33,2.362s-.692,1.29-.926,1.784C1974.618,1124.124,1972.813,1128.265,1972.813,1128.265Z" transform="translate(-1965.73 -1086.36)"/><path class="r" d="M1977.02,1161.469a3.5,3.5,0,0,0,.063.56l1.941.249s.162-.431.468-1.236c.143-.408.353-.9.594-1.475s.536-1.234.874-1.971a53.793,53.793,0,0,1,7.18-11.383,56.6,56.6,0,0,1,6.335-6.534c1.239-1.05,2.524-2.122,3.922-3.109l.519-.382c.178-.122.359-.242.536-.364.358-.242.719-.488,1.08-.735.746-.458,1.482-.954,2.259-1.391a55.415,55.415,0,0,1,10.046-4.615c1.793-.613,3.641-1.128,5.515-1.58l1.42-.3c.235-.047.478-.106.706-.148l.691-.121.692-.124c.231-.039.451-.083.721-.115l1.549-.208.194-.027.089-.117.02-.108h.023l.346.067.732-.022c.484-.049.973-.081,1.459-.1l1.46-.085c.49-.013.977-.021,1.463-.037a54.94,54.94,0,0,1,5.825.167l.724.057.719.08c.479.054.96.1,1.435.164.951.142,1.9.266,2.837.453.938.155,1.861.376,2.784.575.459.11.912.23,1.367.346l.68.173.669.2c1.8.5,3.523,1.119,5.2,1.766.833.342,1.661.671,2.461,1.043.81.35,1.587.745,2.363,1.122a59.641,59.641,0,0,1,8.3,5.094,58.475,58.475,0,0,1,6.329,5.365,61.819,61.819,0,0,1,4.348,4.745c.562.695,1.071,1.316,1.476,1.87s.773,1.016,1.046,1.425c.146.21.274.393.384.551a.867.867,0,0,0,1.028.309c-3.742-5.231-21.211-27.531-47.4-27.595C2002.834,1123.893,1976.508,1145.252,1977.02,1161.469Z" transform="translate(-1957.208 -1118.472)"/><path class="s" d="M2601.97,1349.8l11.365,26.509,18.218-30.926Z" transform="translate(-2600.143 -1307.55)"/><path class="t" d="M2601.97,1349.8l11.365,26.509,18.218-30.926Z" transform="translate(-2600.143 -1307.55)"/><path class="u" d="M2614.409,1351.51l12.995,26.4,16.6-30.668Z" transform="translate(-2614.409 -1309.136)"/></g><g transform="translate(259.306 202.884)"><path class="v" d="M1084.321,3207.129a15.1,15.1,0,0,1,.1,3.32c-.21.834-7.44,1.435-9.895,1.146s1.462-2.8,3.026-3.266S1084.321,3207.129,1084.321,3207.129Z" transform="translate(-1014.135 -3009.556)"/><path class="w" d="M1074.236,3177.422l.763,4.99s1.943.873,2.877.008l.1-5.221Z" transform="translate(-1007.689 -2983.997)"/><path class="x" d="M772.987,3175.269s-1.534,1.139-1.125,2.5,3.989,6.825,6.54,8.375,1.752-1.678,1.009-3.691-2.639-6.445-3.38-7.187S772.987,3175.269,772.987,3175.269Z" transform="translate(-665.68 -2982.067)"/><path class="y" d="M788.721,3139.67c.741,2.068,1.455,3.769,2.013,5.021a17.931,17.931,0,0,0,2.673,4.717c.667.785,2.244,2.463,2.668,2.184s-.723-2.322-2.947-8.292c-.323-.868-1.344-3.629-1.344-3.629h-3.063Z" transform="translate(-684.174 -2951.948)"/><path class="z" d="M1036.837,2547.407a129.208,129.208,0,0,0-.278,23.049c.989,12.753,3.539,20.822,6.737,34.418,1.954,8.309,4.588,20.538,6.971,35.834a6.726,6.726,0,0,0,4.274.838,6.484,6.484,0,0,0,2.567-.975c6.253-19.105,4.406-30.943,1.389-38.321-1.286-3.144-2.845-5.624-3.679-10.457-1.1-6.4.26-9.969,2.205-24.782,1.386-10.557,1.146-12.189.224-13.772C1053.56,2546.91,1042.285,2547.033,1036.837,2547.407Z" transform="translate(-985.432 -2446.064)"/><path class="aa" d="M1482.278,2143s-.877-3.441-2.338-4.35-3.525-1.879-4-2.278-1.026.795.337,1.707l1.362.913a1.339,1.339,0,0,1-.055.585,2.053,2.053,0,0,1-1.863,1.173c-3.5.732-4.863.768-5.4.612-.079-.023-.383-.122-.512.013-.205.216.164.9.323,1.145.946,1.446,4.23,2.074,6.689.943.9-.413,1.242-.855,1.9-.745,1.04.177,1.68,1.549,2.058,2.686Z" transform="translate(-1469.756 -2095.117)"/><path class="ab" d="M806.17,2563.472c3.83,19.78,7.589,30.169,10.434,36.045a98.824,98.824,0,0,1,5.255,12.827,104.585,104.585,0,0,1,3.193,12.219c1.321,6.063,4.584,14.917,13.366,26.528a3.336,3.336,0,0,0,3.038.156,2.936,2.936,0,0,0,1.229-1.276c-1.148-11.1-2.466-20.431-3.61-27.629-.24-1.511-1.3-8.118-2.955-16.845-.649-3.416-1.6-8.421-2.738-13.561-1.418-6.4-3.591-15.111-6.942-25.548Z" transform="translate(-733.244 -2459.906)"/><path class="ac" d="M1164.612,2020.257l2.987-2.655c.364.367,5.68,5.555,13.111,3.982,5.116-1.082,8.067-5.284,9.956-7.965,5.677-8.055,2.283-13.965,8.4-19.439,1.7-1.52,5.028-3.36,7.205-2.8,5.187,1.338,8.174,16.938,3.153,29.208-1.014,2.477-6.594,16.114-19.251,17.591C1179.95,2039.373,1169.113,2032.173,1164.612,2020.257Z" transform="translate(-1154.911 -1971.284)"/><path class="ad" d="M600.185,1879.71c-2.172-2.007-6.328-4.322-8.412-9.7-.627-1.619-2.85-7.359.429-11.748,1.946-2.607,5.56-4.375,8.747-3.749,2.723.535,3.149,2.431,7.775,6.248a32.683,32.683,0,0,0,7.917,5.2c5.52,2.276,8.836.135,14.377.379,6.807.3,14.716,4.1,18.526,9.624,6.763,9.8-3.034,19.752,4.373,31.239,2.427,3.764,3.624,2.92,9.372,10.2s8.634,10.943,8.122,15.412c-.711,6.2-7.392,12.129-13.684,12.531-6.146.394-10.053-4.442-13.182-2.327-2.227,1.505-.954,4.432-3.319,7.951-3.049,4.537-9.042,5.441-10.01,5.586-8.984,1.356-21.1-9.179-26.242-21.66C595.7,1912.395,611.994,1890.626,600.185,1879.71Z" transform="translate(-530.522 -1854.384)"/><path class="ae" d="M1051.36,2604.515c-1.286-3.145-2.845-5.625-3.679-10.459-1.1-6.4.26-9.969,2.205-24.78,1.386-10.558,1.146-12.19.224-13.773-2-3.44-6.249-4.966-10.581-5.59.058.222.115.445.162.659,2.273,10.384-6.4,16.719-2.489,28.131,1.929,5.625,5.008,6.916,5.725,13.441.673,6.114-1.765,7.388-1.244,12.945.778,8.305,6.679,10.317,8.214,16.678,1,4.133.158,10.177-7.13,18.927.122.753.242,1.51.363,2.279a6.728,6.728,0,0,0,4.274.838,6.5,6.5,0,0,0,2.567-.975C1056.224,2623.73,1054.377,2611.892,1051.36,2604.515Z" transform="translate(-978.295 -2448.329)"/><path class="af" d="M1205.107,2074.472c-9.354,7.389-8.314,21.562-14.065,22.279-1.756.22-1.66-1.126-5.85-2.488-6.128-1.993-9.007.02-13.318-1.494a13.356,13.356,0,0,1-6.395-5.125l-.865.769c4.5,11.915,15.337,19.115,25.557,17.923,12.657-1.478,18.237-15.115,19.251-17.592a37.594,37.594,0,0,0,2.378-17.654A19.54,19.54,0,0,0,1205.107,2074.472Z" transform="translate(-1154.912 -2039.44)"/><path class="ac" d="M619,1978.768c.573-.891,2.4-3.358,10.13-5.176a44.512,44.512,0,0,1,20.266-.518,45.262,45.262,0,0,1,23.525,13.479,31.741,31.741,0,0,0-12.464,15.578c-1.034,2.852-4.088,12.6.28,21.729,2.517,5.261,6.969,9.211,10.351,12.212,5.072,4.5,7.7,5.191,9.4,9.223,1.852,4.39-.014,6.53,2.285,9.535,2.47,3.227,5.364,1.727,9.55,4.99,4.288,3.343,2.762,6.095,6.665,9.79,5.67,5.367,13.187,3.624,13.537,6.039.3,2.078-5.041,4.9-9.58,6.04-8.989,2.264-16.829-1.536-19.16-2.708-6.455-3.243-5.34-5.342-10.261-7.814-8.24-4.139-13.872.467-32.641.941-10.164.257-15.3.315-18.119-3.124-2.571-3.141-1.22-6.587.323-21.435h0c.5-4.959,1.534-15.342,1.541-21.258,0-3.5-1.209-9.21-3.634-20.637-.143-.674-1.456-6.847-2.516-15.093C617.524,1983.133,617.663,1980.852,619,1978.768Z" transform="translate(-575.596 -1954.937)"/><g class="ag" transform="translate(69.127 30.774)"><path class="ah" d="M672.131,2148.985c-3.9-3.695-2.377-6.445-6.665-9.789-4.186-3.263-7.079-1.763-9.55-4.99-2.3-3.007-.433-5.146-2.285-9.536-1.7-4.031-4.327-4.724-9.4-9.222-3.382-3-7.834-6.951-10.351-12.212-4.368-9.13-1.314-18.877-.28-21.729a31.743,31.743,0,0,1,12.464-15.578c-.234-.252-.511-.54-.806-.843-16.019,2.2-25.36,11.458-26.514,14.2-2.67,6.335,1.557,8.664,1.666,26.935.052,8.735-.89,12.184,1.944,15.829,3.241,4.169,6.976,2.879,11.663,8.33,3.6,4.189,3.025,6.844,6.387,8.608,3.615,1.9,5.919-.312,10,.556,6.813,1.453,8.27,9.309,12.773,13.607,3.406,3.25,9.7,5.523,22.122,3.083a1.727,1.727,0,0,0,.37-1.208C685.318,2152.609,677.8,2154.352,672.131,2148.985Z" transform="translate(-617.863 -2065.086)"/></g><path class="ac" d="M786.154,2025.7c-1.7,3.616,6.122,12.04,14.82,16.038,1.772.815,14.5,6.667,20.169,1.04,4.687-4.65,1.662-14.263.582-17.7-5.3-16.854-21.586-25.427-28.41-28.519-5.093,12.734-2.094,18.408-.913,20.181a67.925,67.925,0,0,0,8.33,9.163c2.572,2.409,4.173,3.581,3.957,3.957-.268.468-3.282-.416-14.989-6.114C788.344,2023.972,786.736,2024.465,786.154,2025.7Z" transform="translate(-711.285 -1975.799)"/><path class="aa" d="M1030.684,1910.762s.808,6.459,3.191,7.939,6.238,3.411,6.662,3.936-14.767,2.157-22.3-1.642h0c2.481-.517,3.156-.708,3.156-.708a13.956,13.956,0,0,0,3.188-1.262,10.836,10.836,0,0,0,3.505-3.242l-.028-3.575Z" transform="translate(-962.079 -1902.527)"/><path class="aa" d="M1078.414,1891.685a3.576,3.576,0,0,1-3.991,1.244c-2.183-.8-.88-6.433.851-7.075a3.058,3.058,0,0,1,2.346.323,3.4,3.4,0,0,1,1.067,3.818c.551-.159,1.037-.014,1.158.258.155.347-.312.818-.418.925A1.852,1.852,0,0,1,1078.414,1891.685Z" transform="translate(-1009.446 -1881.163)"/><path class="aa" d="M1034.033,2139.134s-7.136-7.3-10.04-8.38-1.161.5,0,1.41,1.936,1.213,1.342,2.6-1.674,2.615.027,3.7,2.366,1.5,3.693,1.667l1.328.167,1.743.93S1034.365,2140.96,1034.033,2139.134Z" transform="translate(-956.208 -2090.079)"/></g><g transform="translate(43.651 258.405)"><path class="ai" d="M2668.137,2285.512c0,19.636-15.356,35.083-34.983,34.481-20.424-.627-37.6-18.266-37.6-39.375s17.177-36.431,37.6-34.305C2652.781,2248.357,2668.137,2265.875,2668.137,2285.512Z" transform="translate(-2595.553 -2244.422)"/><path class="aj" d="M2704.443,2273.919c0,19.635-15.354,35.084-34.98,34.48-20.423-.627-37.6-18.267-37.6-39.374s17.178-36.431,37.6-34.3C2689.089,2236.764,2704.443,2254.282,2704.443,2273.919Z" transform="translate(-2626.559 -2234.523)"/><path class="ak" d="M2713.278,2283.715c0,18.772-14.692,33.515-33.44,32.907-19.477-.631-35.83-17.463-35.83-37.576s16.353-34.744,35.83-32.747C2698.586,2248.218,2713.278,2264.942,2713.278,2283.715Z" transform="translate(-2636.932 -2244.423)"/><path class="al" d="M2719.56,2290.709c0,18.153-14.215,32.391-32.336,31.783-18.8-.63-34.564-16.89-34.564-36.293s15.765-33.536,34.564-31.633C2705.344,2256.4,2719.56,2272.556,2719.56,2290.709Z" transform="translate(-2644.318 -2251.492)"/><g transform="translate(26.132 9.242)"><path class="am" d="M2791.059,2297.808h0a1.977,1.977,0,0,1,1.743,1.939v3.342a49.018,49.018,0,0,1,5.793,1.005q2.138.5,4.249,1.2a1.957,1.957,0,0,1,1.332,2.006l-.412,4.19a1.57,1.57,0,0,1-2.242,1.3,24.157,24.157,0,0,0-2.851-1.062,25.945,25.945,0,0,0-5.375-1l-.494-.041v9.572q7.544,2.11,11.113,5.682a12.02,12.02,0,0,1,3.558,8.87,11.673,11.673,0,0,1-3.936,9.221c-2.643,2.327-6.345,3.637-11.135,3.92v3.689a1.679,1.679,0,0,1-1.746,1.705l-.031,0a1.853,1.853,0,0,1-1.752-1.848v-3.641l-.778-.034a51.269,51.269,0,0,1-6.451-.688,42.222,42.222,0,0,1-4.457-1.024,1.92,1.92,0,0,1-1.4-1.987l.482-5.388a1.7,1.7,0,0,1,2.382-1.405,35.256,35.256,0,0,0,3.921,1.287,34.28,34.28,0,0,0,6.27,1.047l.03-10.647q-7.244-1.792-10.819-5.308a12.159,12.159,0,0,1-3.583-9.034,10.563,10.563,0,0,1,3.886-8.774c2.572-2.044,6.231-3.061,10.951-3.059v-3.416A1.579,1.579,0,0,1,2791.059,2297.808Zm-1.751,12.778a5.878,5.878,0,0,0-3.49,1.229,3.585,3.585,0,0,0-1.251,2.872,3.859,3.859,0,0,0,1.157,2.857,8.21,8.21,0,0,0,3.583,1.827Zm3.095,19.279v9.763a5.4,5.4,0,0,0,3.733-1.16,4.178,4.178,0,0,0,1.3-3.287,4.488,4.488,0,0,0-1.208-3.213A8.861,8.861,0,0,0,2792.4,2329.865Z" transform="translate(-2774.47 -2297.8)"/></g><path class="an" d="M2681.372,2296.19c1.093-10.791,11.009-15.357,9.715-25.284-.8-6.118-5.435-11.273-10.608-15.3-15.688,1.645-27.82,14.637-27.82,31.627,0,19.4,15.765,35.661,34.564,36.293a32.638,32.638,0,0,0,5.342-.262C2685.1,2315.837,2680.434,2305.461,2681.372,2296.19Z" transform="translate(-2644.319 -2252.528)"/></g><g transform="translate(0 197.295)"><path class="ai" d="M2356.84,1858.372c0,16.274-12.725,29.077-28.99,28.577-16.927-.52-31.163-15.138-31.163-32.632s14.236-30.193,31.163-28.431C2344.115,1827.58,2356.84,1842.1,2356.84,1858.372Z" transform="translate(-2296.687 -1824.32)"/><path class="aj" d="M2386.931,1848.765c0,16.274-12.725,29.076-28.99,28.577-16.927-.52-31.162-15.139-31.162-32.633s14.236-30.193,31.162-28.431C2374.206,1817.972,2386.931,1832.49,2386.931,1848.765Z" transform="translate(-2322.385 -1816.115)"/><path class="ak" d="M2394.25,1856.883c0,15.558-12.176,27.776-27.713,27.273-16.141-.523-29.693-14.475-29.693-31.143s13.552-28.793,29.693-27.139C2382.075,1827.466,2394.25,1841.325,2394.25,1856.883Z" transform="translate(-2330.979 -1824.32)"/><path class="al" d="M2399.46,1862.68c0,15.044-11.783,26.845-26.8,26.34-15.58-.523-28.645-14-28.645-30.079s13.065-27.793,28.645-26.216C2387.677,1834.247,2399.46,1847.635,2399.46,1862.68Z" transform="translate(-2337.102 -1830.178)"/><g transform="translate(21.657 7.659)"><path class="am" d="M2458.714,1868.562h0a1.638,1.638,0,0,1,1.447,1.607v2.77a40.762,40.762,0,0,1,4.8.833q1.773.417,3.521.992a1.62,1.62,0,0,1,1.1,1.663l-.341,3.473a1.3,1.3,0,0,1-1.86,1.08,19.967,19.967,0,0,0-2.362-.88,21.462,21.462,0,0,0-4.455-.832l-.408-.034v7.933c4.168,1.167,7.229,2.736,9.209,4.709a9.96,9.96,0,0,1,2.949,7.351,9.676,9.676,0,0,1-3.263,7.64c-2.19,1.93-5.26,3.015-9.229,3.25v3.057a1.39,1.39,0,0,1-1.447,1.412h-.026a1.537,1.537,0,0,1-1.452-1.533v-3.015l-.644-.029a42.621,42.621,0,0,1-5.348-.571,34.987,34.987,0,0,1-3.693-.85,1.593,1.593,0,0,1-1.16-1.646l.4-4.465a1.412,1.412,0,0,1,1.974-1.166,29.019,29.019,0,0,0,3.248,1.067,28.56,28.56,0,0,0,5.2.869l.025-8.824q-6-1.485-8.966-4.4a10.073,10.073,0,0,1-2.97-7.485,8.752,8.752,0,0,1,3.22-7.272c2.132-1.694,5.165-2.537,9.076-2.535V1869.9A1.308,1.308,0,0,1,2458.714,1868.562Zm-1.452,10.589a4.878,4.878,0,0,0-2.891,1.019,2.972,2.972,0,0,0-1.038,2.381,3.192,3.192,0,0,0,.96,2.366,6.8,6.8,0,0,0,2.968,1.515Zm2.565,15.979v8.092a4.47,4.47,0,0,0,3.094-.962,3.463,3.463,0,0,0,1.078-2.724,3.721,3.721,0,0,0-1-2.664A7.351,7.351,0,0,0,2459.827,1895.13Z" transform="translate(-2444.967 -1868.556)"/></g><path class="an" d="M2367.811,1867.222c.9-8.943,9.123-12.729,8.05-20.955-.66-5.07-4.5-9.343-8.789-12.679-13,1.363-23.057,12.13-23.057,26.211,0,16.081,13.065,29.556,28.645,30.079a27.106,27.106,0,0,0,4.427-.217C2370.9,1883.506,2367.032,1874.9,2367.811,1867.222Z" transform="translate(-2337.102 -1831.037)"/></g></g></svg>