<svg xmlns="http://www.w3.org/2000/svg" width="369.328" height="347.978" viewBox="0 0 369.328 347.978"><defs><style>.a{opacity:0.4;}.b{fill:#4d52a0;}.c{fill:#efc3b1;}.d{fill:#e79e8c;}.e{fill:#3c3d81;}.f{fill:#3b3a76;}.g{fill:#dbdbdb;}.h{fill:#c04137;}.be,.i,.z{fill:#fff;}.ak,.al,.as,.at,.j{fill:none;}.al,.at,.j{stroke:#f2f2f2;}.al,.as,.at,.bb,.j{stroke-miterlimit:10;}.j{stroke-width:1.331px;}.aa,.al,.at,.be,.j,.z{mix-blend-mode:soft-light;}.aa,.al,.an,.at,.aw,.be,.j,.n,.z{isolation:isolate;}.k{fill:#04090e;}.l{fill:#afafaf;}.m{fill:#979797;}.an,.aw,.n{mix-blend-mode:multiply;}.o{fill:#378099;}.p{fill:#7abad6;}.q{fill:#e6e6e6;}.r{fill:#e6e4e5;}.s{fill:#d1d1d1;}.t{fill:#141117;}.u{fill:#b3b3b3;}.v{fill:#67b7c9;}.v,.w,.x,.y,.z{fill-rule:evenodd;}.w{fill:#ffff7c;}.x{fill:#237ecf;}.y{fill:#3396f8;}.aa{fill:#ccc;}.ab{fill:#ffca4d;}.ac{fill:#ff2231;}.ad{fill:#ff6561;}.ae{fill:#fccb8c;}.af{fill:#b2884c;}.ag{fill:#8cc3fc;}.ah{fill:#d8605c;}.ai{fill:#bfbfbf;}.aj{fill:#393871;}.al{stroke-width:1.317px;}.am{fill:#e3b48d;}.an,.ar{fill:#d8976a;}.an{opacity:0.3;}.ao{fill:#b81f6b;}.ap{fill:#cc2782;}.aq{fill:#f2f2f2;}.as{stroke:#4d4d4d;stroke-width:1.304px;}.at{stroke-linecap:round;stroke-width:0.652px;}.au{fill:#a31263;}.av{fill:#bc7646;}.aw{fill:#8e674d;opacity:0.33;}.ax{opacity:0.5;}.ay{fill:#edac7e;}.az{fill:#cc8758;}.ba{fill:#3a397b;}.bb{fill:#42468f;stroke:#42468f;stroke-width:0.425px;}.bc{fill:#7bb0d2;}.bd{fill:#a9dbf7;}</style></defs><g transform="translate(-77.374 -97.532)"><g transform="translate(138.946 276.42)"><g class="a" transform="translate(169.339 104.467)"><path class="b" d="M400.5,387.938c7.4,4.256,7.442,11.165.08,15.426l-37.126,21.5c-7.363,4.26-19.343,4.26-26.746,0l-37.063-21.3c-7.41-4.26-7.441-11.165-.079-15.426l37.126-21.5c7.362-4.26,19.334-4.265,26.746,0Z" transform="translate(-294.067 -363.441)"/></g><g class="a"><path class="b" d="M328.106,284.488c44.034,25.423,44.3,66.655.518,92.1l-1.265.517c-43.783,25.445-114.965,25.424-159,0-44.069-25.442-44.3-66.655-.519-92.1l1.265-.517C212.888,259.045,284.037,259.044,328.106,284.488Z" transform="translate(-135.155 -265.406)"/></g></g><g transform="translate(266.347 97.532)"><g transform="translate(12.056 26.964)"><path class="c" d="M271.455,187.09a33.881,33.881,0,0,1-2.362,7.453,52.053,52.053,0,0,0-3.042,6.8c-.213.891,1,1.134,2.163-.188s1.265-2.675,2.079-2.339.683,2.012,2.116,5.462,4.567,6.085,7.526,4.346.9-10.221.64-12.221a53.946,53.946,0,0,1-.207-7.7S273.62,183.661,271.455,187.09Z" transform="translate(-266.026 -118.699)"/><path class="d" d="M271.21,187.09a39.9,39.9,0,0,1-1.442,5.272c2.926.3,5.85.659,8.492,2.06a17.966,17.966,0,0,1,1.99,1.255,57.417,57.417,0,0,1-.126-6.972S273.374,183.661,271.21,187.09Z" transform="translate(-265.78 -118.699)"/><path class="e" d="M290.14,125.91a15.724,15.724,0,0,1-5.459,1.468c-.951,7.289-12.947,58.9-14.449,66.11.423-2.033,11.145,3.934,11.926,4.454-1.262-1.437,16.065-66.52,16.735-75.107C295.946,123.755,293.022,124.748,290.14,125.91Z" transform="translate(-265.75 -122.836)"/><path d="M293.034,124.64c-1.167,8.987-12.642,62.6-14.93,71.368,1.806.925,3.268,1.755,3.538,1.935-1.262-1.437,16.065-66.52,16.735-75.107Q295.687,123.674,293.034,124.64Z" transform="translate(-265.234 -122.836)"/><path class="b" d="M284.681,127.153c-.952,7.289-12.947,58.9-14.449,66.11.157-.753,1.732-.406,3.688.355,1.155-4.317,2.4-8.613,3.278-13,.65-3.245,11.79-51.567,11.406-54.331A11.748,11.748,0,0,1,284.681,127.153Z" transform="translate(-265.75 -122.61)"/></g><g transform="translate(0)"><g transform="translate(29.014 83.554)"><path class="f" d="M297.954,273.2a13.884,13.884,0,0,1-2.463,2.311L285,283.855c-2.676,2.127-3.2,4.935-3.026,8.282a.759.759,0,0,0,.083.366.747.747,0,0,0,.514.267,22.222,22.222,0,0,0,20.238-6.484,2.115,2.115,0,0,1,1.174-.794c.55-.063,1.032.34,1.556.516,4.743,1.594,3.648-9.224,4.05-11.4.127-.685.234-1.507-.266-1.971a1.791,1.791,0,0,0-.536-.309c-2.934-1.251-5.242-.927-8.264-.962a2.617,2.617,0,0,0-1.1.147,3.541,3.541,0,0,0-1.257,1.4C298.094,273.01,298.024,273.1,297.954,273.2Z" transform="translate(-281.94 -169.682)"/><path class="e" d="M302.825,180.448l-1.33,5.3-8.278,51.19,1.206,6.524.493,37.856s.108,2.172,6.874,2.3a7.3,7.3,0,0,0,7.364-5.673l-.419-36.485s15.287-48.449,18.22-57.658l.026-.082a5.959,5.959,0,0,0-5.586-7.777H308.485A5.874,5.874,0,0,0,302.825,180.448Z" transform="translate(-281.2 -175.942)"/><path class="b" d="M300.535,255.5c.076-4.681.4-8.913-.581-13.514-.867-4.074-.037-8.4,1.051-12.339,5.022-18.157,11.689-35.783,17.424-53.708h-9.943a5.874,5.874,0,0,0-5.661,4.506l-1.33,5.3-8.278,51.19,1.206,6.524.493,37.856s.112,1.965,5.959,2.265C300.832,274.22,300.382,264.863,300.535,255.5Z" transform="translate(-281.2 -175.942)"/><path d="M321.334,200.413c2.349-7.429,4.327-13.681,5.209-16.45l.027-.083a6.083,6.083,0,0,0-5.7-7.938H307.691a6,6,0,0,0-5.778,4.6l-1.357,5.408-1.134,7.009C305.577,197.85,313.538,200.115,321.334,200.413Z" transform="translate(-280.793 -175.942)"/></g><g transform="translate(61.061 89.422)"><path class="f" d="M348.942,285.36l-.1.113a79.461,79.461,0,0,1,4.321,14.032c.5,2.875,1.06,11.618,5.519,12.278,5.635.834,7.609-5.024,7.329-9.662a64.526,64.526,0,0,0-4-18.62c-1.325-3.55-2.1-3.707-5.6-2.713A15.9,15.9,0,0,0,348.942,285.36Z" transform="translate(-309.598 -174.966)"/><path class="e" d="M331.217,181.661l-16.369,5.477a4.23,4.23,0,0,0-2.747,4.882l1.369,6.782,20.368,51.251,4.1,5.638,12.528,34.126s1.338,5.288,7.806,2.28c5.886-2.736,5.15-6.8,5.15-6.8l-12.832-38.134s-12.489-51.891-13.882-61.995l-.008-.053A4.224,4.224,0,0,0,331.217,181.661Z" transform="translate(-312.014 -181.449)"/><path class="b" d="M356.472,285.79c-2.1-5.84-4.445-11.535-6.931-17.218-2.138-4.888-4.887-10.247-5.475-15.606a17.815,17.815,0,0,1,.407-5.188,22.881,22.881,0,0,0-.46-10.008c-1.576-6.512-4.121-12.8-6.449-19.064-4.309-11.595-6.069-24.459-12.6-35.093L314.849,187a4.229,4.229,0,0,0-2.747,4.882l1.369,6.782,20.368,51.251,4.1,5.638,12.528,34.126s1.338,5.288,7.806,2.28c.127-.059.233-.121.355-.182Q357.541,288.778,356.472,285.79Z" transform="translate(-312.014 -181.306)"/><path d="M320.053,202.275c7.23-2.072,12.762-6.5,17.6-11.813-.446-2.253-.776-4.078-.943-5.29l-.008-.053a4.224,4.224,0,0,0-5.481-3.458l-16.369,5.477a4.229,4.229,0,0,0-2.747,4.882l1.369,6.782,1.814,4.562A46.694,46.694,0,0,0,320.053,202.275Z" transform="translate(-312.014 -181.449)"/></g><g transform="translate(19.752 19.041)"><path class="e" d="M274.589,140.966a50.574,50.574,0,0,0,9.8,16.994c3.105,3.6,13.754,10.856,16.156,18.771,1.342,4.423-3.362,12.907-4.8,17.859,1.612.291,7.676,4.435,8.513,3.571,2.457-2.536,1.386-7.822,3.237-10.916-.536,3.153-2.69,8.976-.144,11.56s7.565,1.191,11.2.941c9.061-.624,18.3-4.509,26.187-9.272-.394-1-.8-2-1.2-3-6.7-16.437-13.445-32.424-21.134-48.455-4.041-8.426-10.706-17.051-19.322-21.156-7.562-3.6-18.385-3.644-24.657,2.469C272.552,126.067,272.3,133.672,274.589,140.966Z" transform="translate(-273.248 -115.401)"/><path class="b" d="M302.032,135.718c-3.184-5.418-10.5-11.509-14.023-14.385-2.678.263-.738.464-3.35,1.051a1.906,1.906,0,0,0-.615.165,16.652,16.652,0,0,0-3.829,3.576c-1.882,2.174-3.573,4.457-5.307,6.8a53.657,53.657,0,0,0,1.939,14.6,15.377,15.377,0,0,0,2.2,4.746c1.257-.321,2.552-.492,3.826-.753a35.853,35.853,0,0,1-1.294,4,99.805,99.805,0,0,1,12.74,9.854c3.832,3.384,8.715,8.047,11.591,12.753,1.124-5.294-.659-11.334-.889-16.725s.1-10.555-.573-15.931c-2.219-.694-4.453-1.418-6.713-1.942.451-.828.839-1.662,1.263-2.515S301.622,136.587,302.032,135.718Z" transform="translate(-273.139 -115.012)"/><path class="g" d="M281.219,141.96c3.477,3.913,3.279,7.458,7.173,12.2s11.24,12.478,15.242,18.171c-2-7.06-6.845-17.767-8.855-23.9-2.486-7.582-4.579-10.493-6.257-17.327C284.636,135.166,283.434,136.574,281.219,141.96Z" transform="translate(-272.725 -114.37)"/><path class="h" d="M283.088,143.669c1.737,1.8,2.208.9,4.209,3.391s5.076,9.082,6.311,12.765A56.427,56.427,0,0,1,297.927,165c1.506,1.948,4.084,4.711,5.585,6.773-.84-2.567-.856-3.607-2-6.61a68.4,68.4,0,0,0-4.386-10.406,73.461,73.461,0,0,0-7.541-9.391c-.371-1.732-.689-4.144-1.053-5.772-1.6.078-2.766-.115-4.339.1C283.924,140.56,283.435,142.908,283.088,143.669Z" transform="translate(-272.602 -113.814)"/></g><g transform="translate(21.054 22.201)"><path class="c" d="M275.411,135.353l8.14,5.72a27.533,27.533,0,0,0,6.688-1.838c1.018-3.882-3.12-15.472-3.12-15.472l-12.649-5.4Z" transform="translate(-274.47 -118.366)"/><path class="d" d="M277.72,119.61l-3.25-1.244.941,16.987,8.14,5.72a17.862,17.862,0,0,0,2.432-.474C284.929,138.053,279.9,124.085,277.72,119.61Z" transform="translate(-274.47 -118.366)"/><path class="i" d="M278.309,136.384l7.393,3.306-1.317,7.4S279.535,140.914,278.309,136.384Z" transform="translate(-274.218 -117.184)"/><path class="i" d="M282.128,120.962s2.594,2.826,3.355,9.373a100.294,100.294,0,0,1-.031,10.366l9.642,4.409-5.184-20.16S284.886,120.947,282.128,120.962Z" transform="translate(-273.968 -118.196)"/></g><path class="c" d="M277.535,104.507c-5.236-3.018-16.684-2.728-19.3,9.475a17.151,17.151,0,0,0-.371,3.5l5.031,12.5a13.309,13.309,0,0,0,5.776,6.764c2.043,1.127,3.989,1.416,5.432.546a24.064,24.064,0,0,0,5.973-5.466,25.208,25.208,0,0,0,2.864-4.3,18.809,18.809,0,0,0,1.043-2.391,18.34,18.34,0,0,0-.4-12.23C282.452,109.761,280.522,106.228,277.535,104.507Z" transform="translate(-254.506 -97.179)"/><path class="f" d="M284.757,104.506c-1.784-2.878-4.1-4.689-6.984-2.941-6.951-10.121-24.425.838-22.565,10.587a11.177,11.177,0,0,0-.189,1.512c-.01.207,0,.4.014.6-.012.018-.031.026-.038.048-1.911,5.388,6.35,9.45,10.542,9.318.115,0,.113-.181,0-.2a16.819,16.819,0,0,1-6.1-2.721,9.126,9.126,0,0,0,1.562.644c2.609.78,7.875,1.974,9.553-.946.038-.067-.049-.147-.115-.116a9.809,9.809,0,0,1-4.962.583,16.315,16.315,0,0,0,2.881-.72,23.768,23.768,0,0,0,7.671-4.386c-.308.283,2,4.338,2.154,4.758l1.1-.7a.507.507,0,0,0,.273-.656q-.281-1.755-.56-3.508a1.213,1.213,0,0,1-.016-.442.962.962,0,0,1,.417-.546,2.335,2.335,0,0,1,2.7.033c.98.743,1.349,2.79,1.622,3.931a3.644,3.644,0,0,1,.118,1.49,2.083,2.083,0,0,1-1.195,1.5,5.926,5.926,0,0,0,1.674,2.907c.428.3,1.221-2.772,1.265-3.165.116-1.051.46-2.068.6-3.122,0-.019,0-.038,0-.058a.841.841,0,0,0,.179-.481c.112-2.637-.133-5.327-.215-7.962A9.678,9.678,0,0,0,284.757,104.506Z" transform="translate(-254.712 -97.532)"/><path class="j" d="M264.478,101.7a10.249,10.249,0,0,0-7.323,9.4" transform="translate(-254.552 -97.258)"/><path class="j" d="M260.86,106.056a6.236,6.236,0,0,0,1.961,10.236" transform="translate(-254.433 -96.973)"/><path class="j" d="M272.089,100.8c-2.647,1.156-5.389,2.381-7.267,4.574s-2.612,5.657-.877,7.968" transform="translate(-254.171 -97.317)"/><path class="j" d="M278.21,102.541a9.977,9.977,0,0,1,4.874,9.162" transform="translate(-253.17 -97.203)"/></g></g><g transform="translate(81.116 177.846)"><g transform="translate(67.303 48.081)"><path class="c" d="M162.619,229.117s-.505,11.123-.548,16.078-.743,6.534-2.044,12.177-2.2,29.8-2.2,37.428,4.259,14.741,5.846,17.5-3.39,7.045-7.2,3.006-4.213-4.824-6.361-6.094-3.761-6.7-2.095-12.706.783-17.876-1.065-28.279,1.084-23.662.412-26.906c-1.65-7.973-5.592-20.258-1.557-22.922C150.036,215.611,162.619,229.117,162.619,229.117Z" transform="translate(-144.046 -218.022)"/><path class="d" d="M147.052,248.385c5.575-1.207,10.386-3.853,15.1-6.873.152-5.372.471-12.4.471-12.4s-12.583-13.507-16.813-10.715c-4.035,2.664-.093,14.949,1.557,22.922C147.611,242.525,147.365,245.1,147.052,248.385Z" transform="translate(-144.046 -218.022)"/><path class="k" d="M163.644,307.324a74.349,74.349,0,0,1,6.26,6.438c1.537,2.064-1.816,2.97-3.258,3.222-2.524.441-4.824.892-7.211-.418a16.2,16.2,0,0,1-4.529-4.136,35.038,35.038,0,0,0-4.1-4.6,6.119,6.119,0,0,0-2.437-1.391,13.92,13.92,0,0,0-2.532-.189,1.279,1.279,0,0,1-.888-.308,1.366,1.366,0,0,1-.266-.75c-.562-3.947.063-8.173,2.8-11.274,0,0,1.179,8.24,6.437,11.717C158.941,308.954,161,309.469,163.644,307.324Z" transform="translate(-144.016 -213.043)"/></g><g transform="translate(0 53.522)"><path class="c" d="M145.381,242.106s-7.466,8.261-10.65,12.057-4.729,4.569-9.322,8.1-20.655,21.6-25.5,27.482-6.089,14.084-6.623,17.225-7.1,3.28-7.47-2.261-.183-6.4-1.033-8.749,1.362-7.566,6.466-11.138,11.974-13.295,17.166-22.5,15.887-17.57,17.431-20.5c3.8-7.2,8.57-19.188,13.38-18.678C144.262,223.68,145.381,242.106,145.381,242.106Z" transform="translate(-80.642 -223.128)"/><path class="d" d="M127.73,247.108a20.057,20.057,0,0,0,6.7,4.418c3.547-4.068,8.383-9.42,8.383-9.42s-1.119-18.427-6.158-18.963c-4.624-.491-9.21,10.556-12.932,17.811A24.478,24.478,0,0,0,127.73,247.108Z" transform="translate(-78.075 -223.128)"/><path class="k" d="M93.526,303.075a74.333,74.333,0,0,1,.736,8.952c-.13,2.628-5.8,1.928-8.213-2.389a20.93,20.93,0,0,1-2.147-7.8c-.27-2.265-.189-4.737-.911-6.9-.513-1.542-1.281-2.985-1.9-4.486a2.089,2.089,0,0,1-.2-.774,2.129,2.129,0,0,1,.307-.946,9.737,9.737,0,0,1,4.151-4.608,27.082,27.082,0,0,1,2.522-1.2c.239-.088,1.6-.278,1.72-.468,0,0-4.331,7.108-2.485,13.136C88.862,301.341,90.125,303.051,93.526,303.075Z" transform="translate(-80.886 -219.236)"/></g><g transform="translate(43.729)"><path class="e" d="M169.816,185.2s-1.126,12.025-2.007,22.478c-1.117,13.264-3.542,31.621-3.542,31.621s-28.452,9.342-32.235,2.754c-1.091-1.9.7-14.428.7-14.428-1.364,1.742-4.112,12.432-4.395,12.6-.51.3-6.419-5.762-6.419-5.762,3.842-17.824,8.276-36.181,15.441-52.558C144.4,165.829,170.545,175.977,169.816,185.2Z" transform="translate(-121.923 -172.865)"/><path class="b" d="M166.953,207.718c.88-10.453,2.007-22.478,2.007-22.478.466-5.9-17.1-14.069-19.393-12.015-6.694,5.992-17.212,65.286-14,70.781,2.1,3.586,27.843-4.667,27.843-4.667S165.836,220.981,166.953,207.718Z" transform="translate(-121.067 -172.901)"/><path d="M140.694,197.844a31.833,31.833,0,0,0,12.53,2.257c5.234-.109,13.416-1.77,14.878-4.014,1.785-2.739,1.017-10.878,1.017-10.878.729-9.227-24.931-19.561-32.452-3.3-1.406,3.041-4.422,8.393-4.1,10.5C132.841,194.171,137.861,196.7,140.694,197.844Z" transform="translate(-121.226 -172.87)"/></g></g><g transform="translate(138.946 202.454)"><g transform="translate(27.487 70.367)"><g transform="translate(172.357 0)"><path class="l" d="M326.152,351.206l4.061-2.345V262.028l-4.061,2.345Z" transform="translate(-322.467 -262.028)"/><path class="m" d="M322.694,262.217l3.685,2.144v86.833l-3.685-2.135Z" transform="translate(-322.694 -262.016)"/></g><g transform="translate(0 1.234)"><path class="l" d="M164.407,343.441l4.061-2.345V263.186l-4.061,2.345Z" transform="translate(-160.722 -263.186)"/><path class="m" d="M160.949,263.375l3.684,2.144v77.91l-3.684-2.135Z" transform="translate(-160.949 -263.174)"/></g><g transform="translate(92.895 46.017)"><path class="l" d="M251.583,394.39l4.061-2.345V305.212l-4.061,2.345Z" transform="translate(-247.898 -305.212)"/><path class="m" d="M248.125,305.4l3.684,2.144v86.833l-3.684-2.135Z" transform="translate(-248.125 -305.199)"/></g><g class="n"><path class="m" d="M326.152,264.373v41.814q2.033-1.661,4.061-3.331V262.028Z" transform="translate(-150.11 -262.028)"/><path class="m" d="M322.694,309.173q1.846-1.493,3.684-3V264.361l-3.684-2.144Z" transform="translate(-150.337 -262.016)"/><path class="m" d="M164.407,325.171q1.969,1.3,4.062,2.417v-64.4l-4.062,2.345Z" transform="translate(-160.722 -261.952)"/><path class="m" d="M160.949,322.436a43.273,43.273,0,0,0,3.685,2.723v-59.64l-3.685-2.144Z" transform="translate(-160.949 -261.94)"/><path class="m" d="M251.583,353.293c1.359-.164,2.714-.374,4.061-.649V305.212l-4.061,2.344Z" transform="translate(-155.003 -259.195)"/><path class="m" d="M248.125,353.618c1.232-.068,2.459-.189,3.684-.337V307.544l-3.684-2.144Z" transform="translate(-155.23 -259.182)"/></g></g><g transform="translate(0 7.225)"><path class="o" d="M328.106,221.856c44.034,25.423,44.3,66.655.518,92.1l-1.265.518c-43.783,25.444-114.965,25.423-159,0-44.069-25.444-44.3-66.655-.519-92.1l1.265-.517C212.888,196.413,284.037,196.412,328.106,221.856Z" transform="translate(-135.155 -202.774)"/></g><path class="p" d="M328.106,215.076c44.034,25.423,44.3,66.655.518,92.1l-1.265.518c-43.783,25.444-114.965,25.423-159,0-44.069-25.442-44.3-66.655-.519-92.1l1.265-.517C212.888,189.633,284.037,189.632,328.106,215.076Z" transform="translate(-135.155 -195.994)"/></g><g transform="translate(150.64 207.323)"><g transform="translate(28.521)"><path class="q" d="M233.792,220.258l-26.785,15.566-34.112-19.695,26.785-15.566Z" transform="translate(-172.894 -200.563)"/></g><g transform="translate(25.753 12.736)"><path class="q" d="M231.193,232.21l-26.785,15.566L170.3,228.08l26.785-15.566Z" transform="translate(-170.296 -212.515)"/></g><g transform="translate(31.707 61.515)"><g transform="translate(14.549 2.122)"><path class="i" d="M189.537,284.277l30.42,17.563,42.177-24-30.42-17.562Z" transform="translate(-189.537 -260.282)"/><path class="r" d="M226.375,265.178l24.525,14.4L253.733,278l-24.525-14.4Z" transform="translate(-187.12 -260.064)"/><path class="r" d="M221.585,267.9l24.525,14.4,2.832-1.578-24.525-14.4Z" transform="translate(-187.434 -259.886)"/><path class="r" d="M216.542,270.784l24.525,14.4L243.9,283.6l-24.525-14.4Z" transform="translate(-187.765 -259.696)"/><path class="r" d="M211.752,273.509l24.525,14.4,2.832-1.577-24.525-14.4Z" transform="translate(-188.079 -259.518)"/><path class="r" d="M196.078,282.845l24.525,14.4,14.522-8.078-24.525-14.4Z" transform="translate(-189.108 -259.332)"/></g><path class="i" d="M175.884,282.286l30.42,17.563,42.178-24-30.42-17.562Z" transform="translate(-175.884 -258.291)"/><path class="r" d="M212.722,263.187l24.525,14.4,2.832-1.577-24.525-14.4Z" transform="translate(-173.467 -258.073)"/><path class="r" d="M207.932,265.911l24.525,14.4,2.832-1.578-24.525-14.4Z" transform="translate(-173.781 -257.894)"/><path class="r" d="M202.889,268.793l24.525,14.4,2.832-1.578-24.525-14.4Z" transform="translate(-174.112 -257.705)"/><path class="r" d="M198.1,271.518l24.525,14.4,2.832-1.577-24.525-14.4Z" transform="translate(-174.426 -257.527)"/><path class="r" d="M182.425,280.854l24.525,14.4,14.522-8.078-24.525-14.4Z" transform="translate(-175.455 -257.341)"/><g transform="translate(5.456 10.912)"><path class="i" d="M181,292.526l30.42,17.563,42.178-24-30.42-17.562Z" transform="translate(-181.004 -268.531)"/><path class="r" d="M217.842,273.426l24.525,14.4,2.832-1.577-24.525-14.4Z" transform="translate(-178.587 -268.313)"/><path class="r" d="M213.052,276.151l24.525,14.4,2.832-1.578-24.525-14.4Z" transform="translate(-178.901 -268.134)"/><path class="r" d="M208.009,279.033l24.525,14.4,2.832-1.578-24.525-14.4Z" transform="translate(-179.232 -267.945)"/><path class="r" d="M203.219,281.758l24.525,14.4,2.832-1.577-24.525-14.4Z" transform="translate(-179.546 -267.766)"/><path class="r" d="M187.544,291.094l24.525,14.4,14.522-8.078-24.525-14.4Z" transform="translate(-180.575 -267.58)"/></g></g><g transform="translate(97.389 3.287)"><path class="s" d="M285.112,215.05l-15.622-9.02a7.317,7.317,0,0,0-6.554-.272L238.65,219.78c-1.673.965-1.461,2.668.47,3.783l15.623,9.02a7.312,7.312,0,0,0,6.552.271l24.286-14.021C287.255,217.868,287.043,216.165,285.112,215.05Z" transform="translate(-237.522 -203.552)"/><rect class="s" width="15.341" height="1.439" transform="translate(0 16.533)"/><rect class="s" width="15.34" height="1.439" transform="translate(33.849 12.264)"/><path class="i" d="M285.112,213.591l-15.622-9.02a7.31,7.31,0,0,0-6.554-.271L238.65,218.321c-1.673.965-1.461,2.668.47,3.784l15.623,9.018a7.3,7.3,0,0,0,6.552.272l24.286-14.021C287.255,216.409,287.043,214.706,285.112,213.591Z" transform="translate(-237.522 -203.648)"/><path class="t" d="M239.958,219.769l18.247,10.462,25.464-14.671-18.311-10.5Z" transform="translate(-237.362 -203.555)"/><path class="u" d="M273.164,208.712c-.481,0-.87.208-.87.464s.389.462.87.462.871-.207.871-.462S273.644,208.712,273.164,208.712Z" transform="translate(-235.241 -203.316)"/></g><g transform="translate(129.326 14.309)"><path class="b" d="M306.082,247.89l-34.4,19.861c-1.809,1.044-1.58,2.886.509,4.092l22.974,13.265a7.909,7.909,0,0,0,7.088.294l34.4-19.861c1.809-1.044,1.58-2.886-.508-4.092l-22.976-13.265A7.907,7.907,0,0,0,306.082,247.89Z" transform="translate(-267.297 -211.813)"/><path class="i" d="M306.082,246.925l-34.4,19.861c-1.809,1.044-1.58,2.887.509,4.093l22.974,13.265a7.905,7.905,0,0,0,7.088.293l34.4-19.86c1.809-1.045,1.58-2.887-.508-4.093L313.169,247.22A7.907,7.907,0,0,0,306.082,246.925Z" transform="translate(-267.297 -211.876)"/><path class="b" d="M292.079,277.9l-16.048-9.255,34.147-19.422,16.093,9.228Z" transform="translate(-266.932 -211.679)"/><path class="q" d="M307.783,275.6l-4.173-2.406a1.092,1.092,0,0,1,.005-1.895l11.347-6.453a1.088,1.088,0,0,1,1.083,0l4.185,2.4a1.092,1.092,0,0,1,0,1.9l-11.358,6.46A1.089,1.089,0,0,1,307.783,275.6Z" transform="translate(-265.158 -210.664)"/><path class="i" d="M297.926,271.533l-1.339-.776,24.092-13.849,1.388.747Z" transform="translate(-265.583 -211.175)"/><path class="i" d="M314.738,258.73l-1.339-.776,3.946-2.249,1.388.747Z" transform="translate(-264.48 -211.254)"/><path class="i" d="M310.673,261.048l-1.339-.776,2.771-1.6,1.388.747Z" transform="translate(-264.747 -211.06)"/><path class="i" d="M307.431,262.889l-1.339-.776,2.772-1.6,1.388.747Z" transform="translate(-264.959 -210.939)"/><path class="i" d="M304.207,264.737l-1.339-.776,2.771-1.6,1.388.747Z" transform="translate(-265.171 -210.817)"/><path class="i" d="M311.974,255.159l-1.339-.776,1.948-1.125,1.388.747Z" transform="translate(-264.661 -211.415)"/><path class="i" d="M309.305,256.713l-1.339-.776,1.949-1.125,1.388.747Z" transform="translate(-264.837 -211.313)"/><path class="i" d="M306.016,258.6l-1.339-.776,2.772-1.6,1.388.747Z" transform="translate(-265.052 -211.22)"/><path class="i" d="M309.823,253.914l-1.339-.776,1.949-1.125,1.388.747Z" transform="translate(-264.803 -211.496)"/><path class="i" d="M307.154,255.469l-1.339-.776,1.949-1.125,1.388.747Z" transform="translate(-264.978 -211.394)"/><path class="i" d="M307.537,252.712l-1.339-.776,1.948-1.125,1.388.747Z" transform="translate(-264.953 -211.575)"/><path class="i" d="M304.868,254.267l-1.339-.776,1.949-1.125,1.388.747Z" transform="translate(-265.128 -211.473)"/><path class="i" d="M303.865,257.356l-1.339-.776,2.771-1.6,1.388.747Z" transform="translate(-265.194 -211.302)"/><path class="i" d="M302.888,260.443l-1.339-.776,2.771-1.6,1.388.747Z" transform="translate(-265.258 -211.099)"/><path class="i" d="M299.663,262.291l-1.339-.776,2.771-1.6,1.388.747Z" transform="translate(-265.469 -210.978)"/><path class="i" d="M300.831,259.2l-1.339-.777,2.771-1.6,1.388.747Z" transform="translate(-265.393 -211.181)"/><path class="i" d="M297.606,261.049l-1.339-.776,2.771-1.6,1.388.747Z" transform="translate(-265.604 -211.059)"/><path class="i" d="M301.808,256.114l-1.339-.776,2.771-1.6,1.388.747Z" transform="translate(-265.328 -211.383)"/><path class="i" d="M298.773,257.958l-1.339-.776,2.771-1.6,1.388.747Z" transform="translate(-265.528 -211.262)"/><path class="i" d="M295.548,259.806l-1.339-.776,2.771-1.6,1.388.747Z" transform="translate(-265.739 -211.141)"/><path class="i" d="M311.846,257.911l-1.339-.777,4.615-2.637,1.388.747Z" transform="translate(-264.67 -211.333)"/><path class="i" d="M308.41,259.841l-1.339-.776,2.772-1.6,1.388.747Z" transform="translate(-264.895 -211.139)"/><path class="i" d="M305.168,261.682l-1.339-.776,2.771-1.6,1.388.747Z" transform="translate(-265.108 -211.018)"/><path class="i" d="M301.943,263.531l-1.339-.776,2.771-1.6,1.388.747Z" transform="translate(-265.32 -210.897)"/><path class="i" d="M299.713,267.439l-1.339-.776,3.946-2.249,1.388.747Z" transform="translate(-265.466 -210.683)"/><path class="i" d="M295.648,269.757l-1.339-.776,2.771-1.6,1.388.747Z" transform="translate(-265.733 -210.488)"/><path class="i" d="M292.406,271.6l-1.339-.776,2.772-1.6,1.388.747Z" transform="translate(-265.945 -210.367)"/><path class="i" d="M289.181,273.447l-1.339-.776,2.771-1.6,1.388.747Z" transform="translate(-266.157 -210.246)"/><path class="i" d="M294.416,272.651l-1.339-.776,2.772-1.6,1.388.747Z" transform="translate(-265.813 -210.298)"/><path class="i" d="M291.191,274.5l-1.339-.776,2.771-1.6,1.388.747Z" transform="translate(-266.025 -210.177)"/><path class="i" d="M296.949,263.868l-1.339-.776,1.948-1.125,1.388.747Z" transform="translate(-265.647 -210.843)"/><path class="i" d="M294.28,265.423l-1.339-.776,1.949-1.125,1.388.747Z" transform="translate(-265.822 -210.741)"/><path class="i" d="M290.991,267.31l-1.339-.777,2.772-1.6,1.388.747Z" transform="translate(-266.038 -210.649)"/><path class="i" d="M294.8,262.624l-1.339-.776,1.949-1.125,1.388.747Z" transform="translate(-265.788 -210.925)"/><path class="i" d="M292.128,264.178l-1.339-.776,1.949-1.125,1.388.747Z" transform="translate(-265.963 -210.823)"/><path class="i" d="M292.512,261.421l-1.339-.776,1.948-1.125,1.388.747Z" transform="translate(-265.938 -211.004)"/><path class="i" d="M289.843,262.976,288.5,262.2l1.949-1.125,1.388.747Z" transform="translate(-266.113 -210.902)"/><path class="i" d="M288.84,266.066l-1.339-.776,2.771-1.6,1.388.747Z" transform="translate(-266.179 -210.73)"/><path class="i" d="M287.862,269.152l-1.339-.776,2.771-1.6,1.388.747Z" transform="translate(-266.243 -210.528)"/><path class="i" d="M284.638,271l-1.339-.776,2.771-1.6,1.388.747Z" transform="translate(-266.455 -210.407)"/><path class="i" d="M285.8,267.91l-1.339-.776,2.771-1.6,1.388.747Z" transform="translate(-266.378 -210.609)"/><path class="i" d="M282.58,269.758l-1.339-.776,2.771-1.6,1.388.747Z" transform="translate(-266.59 -210.488)"/><path class="i" d="M286.782,264.823l-1.339-.776,2.771-1.6,1.388.747Z" transform="translate(-266.314 -210.812)"/><path class="i" d="M283.747,266.668l-1.339-.777,2.771-1.6,1.388.747Z" transform="translate(-266.513 -210.691)"/><path class="i" d="M280.523,268.515l-1.339-.776,2.771-1.6,1.388.747Z" transform="translate(-266.725 -210.57)"/><path class="i" d="M296.82,266.621l-1.339-.777,4.615-2.637,1.388.747Z" transform="translate(-265.656 -210.762)"/><path class="i" d="M293.384,268.55l-1.339-.776,2.772-1.6,1.388.747Z" transform="translate(-265.881 -210.567)"/><path class="i" d="M290.142,270.391l-1.339-.776,2.771-1.6,1.388.747Z" transform="translate(-266.094 -210.446)"/><path class="i" d="M286.918,272.24l-1.339-.776,2.771-1.6,1.388.747Z" transform="translate(-266.305 -210.325)"/><path class="i" d="M267.6,236.555l-.11,29.234a2.839,2.839,0,0,0,4.249,2.474l34.475-19.733a2.84,2.84,0,0,0,1.429-2.453l.109-29.234a2.837,2.837,0,0,0-4.247-2.473L269.03,234.1A2.835,2.835,0,0,0,267.6,236.555Z" transform="translate(-267.492 -213.991)"/><path class="e" d="M268.128,236.826l-.11,29.233a2.839,2.839,0,0,0,4.249,2.474L306.742,248.8a2.841,2.841,0,0,0,1.428-2.453l.109-29.233a2.838,2.838,0,0,0-4.248-2.474l-34.476,19.733A2.837,2.837,0,0,0,268.128,236.826Z" transform="translate(-267.458 -213.973)"/><g transform="translate(8.934 10.359)"><path class="v" d="M281.635,235.551l-3.874,2.261v-.419l3.874-2.272Zm0-1.131-3.874,2.261v-.419l3.874-2.272Zm10.71-3.895-3.873,2.251v-.419l3.873-2.251Zm0-1.078-3.873,2.261v-.419l3.873-2.272Zm0-1.131-3.873,2.261v-.419l3.873-2.272Zm-14.584,10.145,3.874-2.251v.419l-3.874,2.251Zm23.65.838-6.721,3.915v-.545l6.721-3.9Zm-1.738,5.224-4.983,2.911v-.546l4.983-2.9Zm0-1.371-4.983,2.911v-.545l4.983-2.9Z" transform="translate(-275.752 -223.438)"/><path class="w" d="M287.9,235.15a3.232,3.232,0,0,1,2.408.388l.2.141c.066.051.131.105.194.163l-4.826,7.14-6.135,3.539v-.147l1.1-4.512.048-.1c.039-.087.079-.175.12-.262l.052-.11c.07-.147.144-.292.22-.435l1.309-2.058,1.109-1.271c.059-.055.116-.112.174-.167a8.2,8.2,0,0,1,3.748-2.252Zm7.161-1.382a6.617,6.617,0,0,1-.827,1.477,2.3,2.3,0,0,1-.618.545,1.929,1.929,0,0,1-.23.115.1.1,0,0,1-.115-.032.16.16,0,0,1-.031-.136.388.388,0,0,1,.083-.178.28.28,0,0,1,.052-.072.242.242,0,0,1,.084-.052q.743-.253,1.434-2.094c.055-.147.112-.3.167-.461.043-.126.084-.25.126-.376a36.728,36.728,0,0,0,1-4.314,16.4,16.4,0,0,1,.618-2.565c.021-.049.042-.094.063-.136a1.963,1.963,0,0,1,.669-.984q.409-.262.785.251a6.913,6.913,0,0,1,.775,1.842q.126.449.262.838a8.167,8.167,0,0,0,1.131,2.324l.074.094a.389.389,0,0,0,.052.063,1.218,1.218,0,0,0,1.591.408.16.16,0,0,1,.095-.011.1.1,0,0,1,.042.011.152.152,0,0,1,.042.126.478.478,0,0,1-.063.178.335.335,0,0,1-.126.136,1.67,1.67,0,0,1-.471.167,1.34,1.34,0,0,1-1.109-.3c-.042-.042-.084-.08-.126-.115l-.167-.167a7.865,7.865,0,0,1-1.35-2.68q-.126-.356-.231-.733c-.02-.077-.042-.146-.063-.209-.063-.2-.125-.377-.189-.545a3.856,3.856,0,0,0-.543-1.089c-.153-.181-.287-.238-.4-.167a1.274,1.274,0,0,0-.367.607,6.938,6.938,0,0,0-.313,1.036q-.168.649-.325,1.508a32.786,32.786,0,0,1-1.329,5.308.752.752,0,0,1-.032.074C295.147,233.559,295.106,233.663,295.063,233.768Zm4.481,8.156-4.983,2.9v-.534l4.983-2.91Z" transform="translate(-275.622 -223.666)"/><path class="v" d="M290.357,235.148c-.063-.058-.128-.112-.194-.163a3.352,3.352,0,0,1,1,1.262,7.091,7.091,0,0,1,.272,4.565,13.944,13.944,0,0,1-2.376,5.224,11.038,11.038,0,0,1-3.958,3.559l.429-7.307Z" transform="translate(-275.271 -222.972)"/><path class="x" d="M278.823,247.194l6.136-3.539-.754,7.454a3.71,3.71,0,0,1-3.832-.125A4.364,4.364,0,0,1,278.823,247.194Z" transform="translate(-275.683 -222.404)"/><path class="y" d="M294.224,233.814v1l-.827.482A6.617,6.617,0,0,0,294.224,233.814Zm-1.686-4.638,1.686-.974v4.722c-.055.161-.112.314-.167.461q-.69,1.841-1.434,2.094a.242.242,0,0,0-.084.052Zm5.308,3.55-1.685.973v-6.606l1.5-.868c.064.167.126.348.189.545Zm1.937-1.11v-.942a1.34,1.34,0,0,0,1.109.3Zm0-6.93,1.686-.974v6.647a.16.16,0,0,0-.095.011,1.218,1.218,0,0,1-1.591-.408Z" transform="translate(-274.783 -223.712)"/><path class="z" d="M277.154,241a.142.142,0,0,1,.178,0c.042.021.063.081.063.178v18.363l.3-.2v-.3a.435.435,0,0,1,.062-.2.492.492,0,0,1,.158-.189c.069-.048.126-.048.167,0,.042.014.063.057.063.127v.3l2.146-1.256v-.3a.333.333,0,0,1,.095-.2.516.516,0,0,1,.146-.189.161.161,0,0,1,.178.021c.042,0,.063.034.063.1v.3l2.125-1.215v-.3a.382.382,0,0,1,.063-.189c.043-.118.1-.184.178-.2a.1.1,0,0,1,.147,0,.111.111,0,0,1,.083.125v.3l2.147-1.255v-.283a.4.4,0,0,1,.062-.209.513.513,0,0,1,.178-.2.1.1,0,0,1,.147,0c.049.014.074.06.074.136v.293l2.125-1.235v-.3a.307.307,0,0,1,.063-.189.43.43,0,0,1,.167-.22c.077-.043.136-.043.178,0a.148.148,0,0,1,.063.135v.3l2.146-1.193v-.3a.545.545,0,0,1,.063-.241.672.672,0,0,1,.178-.22.193.193,0,0,1,.167.042q.074,0,.074.115v.3l1.057-.606v.565l-13.892,8.019a.037.037,0,0,1-.042.043l-2.02,1.141h-.021v.031l-.408.23v-.565l1.037-.6v-2.45l-.409.23a.618.618,0,0,1-.146.021.194.194,0,0,1-.094-.168.427.427,0,0,1,.094-.22c.042-.1.091-.153.146-.167l.409-.241v-2.45l-.409.241a.261.261,0,0,1-.146,0,.186.186,0,0,1-.094-.178.281.281,0,0,1,.094-.2.367.367,0,0,1,.146-.209l.409-.241v-2.45l-.409.241a.337.337,0,0,1-.146.042.2.2,0,0,1-.094-.178.4.4,0,0,1,.094-.23.353.353,0,0,1,.146-.178l.409-.22v-2.471l-.409.241a.138.138,0,0,1-.146,0c-.063-.014-.094-.069-.094-.167a.307.307,0,0,1,.094-.2c.042-.118.091-.184.146-.2l.409-.241v-2.439l-.409.23a.61.61,0,0,1-.146.02.176.176,0,0,1-.094-.146.438.438,0,0,1,.094-.241c.042-.1.091-.153.146-.167l.409-.241v-2.45l-.409.241a.26.26,0,0,1-.146,0,.187.187,0,0,1-.094-.178.279.279,0,0,1,.094-.2A.364.364,0,0,1,276.5,242l.409-.221v-.345a.41.41,0,0,1,.074-.241A.291.291,0,0,1,277.154,241Zm18.289-15.818,1.686-.985V225.5c-.021.043-.042.087-.063.136a16.393,16.393,0,0,0-.618,2.565,36.724,36.724,0,0,1-1,4.314Zm1.686,8.553-1.686.985v-1.246a.747.747,0,0,0,.032-.074,32.789,32.789,0,0,0,1.329-5.308q.157-.858.325-1.508Zm2.491-6.281,1.131-.649v2.973A8.166,8.166,0,0,1,299.62,227.449Zm1.131,4.2-1.686.974v-4.847l.168-.094a7.864,7.864,0,0,0,1.35,2.68l.167.167Zm-1.371,2.063a.383.383,0,0,1-.052.189.333.333,0,0,1-.136.125l-.628.367V236.6a.376.376,0,0,1-.052.178.35.35,0,0,1-.126.136l-1.141.66v2.209a.378.378,0,0,1-.052.178.35.35,0,0,1-.126.136l-3.57,2.051v5.2a.394.394,0,0,1-.052.189.426.426,0,0,1-.126.146.139.139,0,0,1-.136.011.134.134,0,0,1-.052-.126v-5.412a.383.383,0,0,1,.052-.189.324.324,0,0,1,.136-.136l3.559-2.062v-2.2a.422.422,0,0,1,.052-.189.335.335,0,0,1,.136-.126l1.131-.66V234.39a.33.33,0,0,1,.052-.178.324.324,0,0,1,.136-.136l.806-.471a.138.138,0,0,1,.136-.01C299.362,233.609,299.379,233.647,299.379,233.71Z" transform="translate(-275.876 -223.68)"/></g><path class="aa" d="M306.568,233.18l.06-16.065a2.838,2.838,0,0,0-4.248-2.474l-9.189,5.26Q299.895,226.524,306.568,233.18Z" transform="translate(-265.806 -213.973)"/><path class="aa" d="M306.9,242.181l.011-2.89q-8.715-8.783-17.463-17.53l-1.888,1.08Z" transform="translate(-266.175 -213.481)"/></g><g transform="translate(110.51 66.515)"><path class="b" d="M257.573,268.719c-3.665,0-6.636,1.58-6.636,3.529s2.971,3.529,6.636,3.529,6.634-1.579,6.634-3.529S261.237,268.719,257.573,268.719Z" transform="translate(-249.762 -262.607)"/><g transform="translate(8.486)"><path class="ab" d="M259.975,266.244c-.516-.039-.916-.293-.9-.567l-1.282,16.77,1.866.142,1.282-16.768C260.924,266.094,260.49,266.283,259.975,266.244Z" transform="translate(-257.798 -262.806)"/><path class="ac" d="M259,265.827c.02-.275.455-.465.971-.425s.915.293.9.568l.186-2.441-1.866-.143Z" transform="translate(-257.719 -262.957)"/><path class="ac" d="M259.972,265.278c-.516-.039-.951.15-.971.425s.379.527.9.567.949-.15.971-.424S260.487,265.318,259.972,265.278Z" transform="translate(-257.719 -262.833)"/><path class="ad" d="M260.147,262.988c-.516-.039-.951.15-.971.424s.379.529.9.568.949-.15.971-.425S260.661,263.028,260.147,262.988Z" transform="translate(-257.708 -262.983)"/></g><g transform="translate(8.646 0.407)"><path class="ae" d="M262.633,266.6c-.5-.12-.859-.434-.795-.7l-3.891,16.362,1.82.433,3.892-16.362C263.6,266.594,263.136,266.715,262.633,266.6Z" transform="translate(-257.948 -263.199)"/><path class="af" d="M261.6,266.041c.064-.267.523-.387,1.025-.267s.859.433.8.7l.566-2.381-1.821-.434Z" transform="translate(-257.708 -263.345)"/><path class="af" d="M262.625,265.646c-.5-.119-.961,0-1.025.268s.293.581.795.7.962,0,1.026-.269S263.128,265.765,262.625,265.646Z" transform="translate(-257.709 -263.218)"/><path class="ae" d="M263.157,263.411c-.5-.119-.962,0-1.026.267s.293.582.8.7.961,0,1.025-.267S263.66,263.531,263.157,263.411Z" transform="translate(-257.674 -263.365)"/></g><g transform="translate(0 1.205)"><path class="i" d="M251.579,267.315c-.493.156-.96.069-1.042-.193l5.053,16.041,1.785-.563-5.053-16.041C252.4,266.821,252.071,267.16,251.579,267.315Z" transform="translate(-249.788 -263.954)"/><path class="b" d="M249.846,264.931l.736,2.335c-.083-.263.249-.6.743-.757s.959-.068,1.042.194l-.736-2.335Z" transform="translate(-249.834 -264.097)"/><path class="b" d="M251.281,266.382c-.493.156-.826.493-.743.757s.549.348,1.042.193.825-.493.743-.756S251.773,266.226,251.281,266.382Z" transform="translate(-249.789 -263.97)"/><path class="b" d="M250.59,264.191c-.492.156-.825.494-.743.757s.55.35,1.042.194.826-.494.744-.757S251.083,264.036,250.59,264.191Z" transform="translate(-249.834 -264.114)"/></g><path class="b" d="M257.573,275.56c-3.665,0-6.636-1.579-6.636-3.529v17.463h13.27V272.031C264.207,273.981,261.237,275.56,257.573,275.56Z" transform="translate(-249.762 -262.389)"/><path class="b" d="M257.573,285.106c-3.665,0-6.636,1.581-6.636,3.53s2.971,3.529,6.636,3.529,6.634-1.58,6.634-3.529S261.237,285.106,257.573,285.106Z" transform="translate(-249.762 -261.532)"/></g><g transform="translate(0 41.991)"><path class="i" d="M146.129,261.079l24.595,14.231,36.425-21.16-24.581-14.181Z" transform="translate(-146.129 -239.969)"/><path class="ag" d="M157.19,256.852l19.239,11.021,10.077-5.8-19.258-11.022Z" transform="translate(-145.403 -239.242)"/><path class="t" d="M168.463,250.008l19.261,11.019.8-.453-19.258-11.023Z" transform="translate(-144.663 -239.34)"/><path class="t" d="M170.143,249.038,189.4,260.067l.8-.469-19.251-11.024Z" transform="translate(-144.553 -239.404)"/><path class="t" d="M171.923,248.016l19.258,11.03.8-.469-19.251-11.024Z" transform="translate(-144.437 -239.472)"/><path class="t" d="M173.633,247.025l19.26,11.019.8-.453-19.258-11.022Z" transform="translate(-144.324 -239.536)"/><path class="t" d="M175.313,246.054l19.258,11.029.8-.469-19.251-11.024Z" transform="translate(-144.214 -239.6)"/><path class="t" d="M177.092,245.033l19.259,11.029.8-.469L177.9,244.569Z" transform="translate(-144.097 -239.667)"/><path class="t" d="M154.532,258.058l19.258,11.02.8-.456L155.331,257.6Z" transform="translate(-145.577 -238.812)"/><path class="ah" d="M178.849,244.057l19.242,11.029,2.82-1.625-19.258-11.022Z" transform="translate(-143.982 -239.807)"/><path class="g" d="M146.129,261.564l24.595,14.227v-1.78l-24.595-14.231Z" transform="translate(-146.129 -238.669)"/><path class="ai" d="M169.209,276.216l36.4-21.145v-1.78l-36.4,21.145Z" transform="translate(-144.615 -239.095)"/></g><g transform="translate(124.834 98.691)"><path class="k" d="M263.668,299.185l11.553,6.623a2.478,2.478,0,0,0,2.23-.1l5.583-3.247c.659-.383.729-.959.156-1.288l-11.553-6.622a2.479,2.479,0,0,0-2.229.1l-5.583,3.247C263.165,298.28,263.1,298.858,263.668,299.185Z" transform="translate(-263.277 -293.103)"/><rect class="k" width="1.23" height="1.194" transform="translate(20.301 8.644) rotate(179.816)"/><rect class="k" width="3.259" height="1.416" transform="translate(3.272 5.738) rotate(179.822)"/><path class="aj" d="M263.665,298.032l11.553,6.623a2.479,2.479,0,0,0,2.229-.1l5.584-3.247c.658-.384.728-.96.156-1.288L271.632,293.4a2.48,2.48,0,0,0-2.229.1l-5.583,3.246C263.162,297.127,263.092,297.7,263.665,298.032Z" transform="translate(-263.277 -293.178)"/><path class="i" d="M281.994,300.373l-5.787,3.522-10.285-5.9,5.794-3.514Z" transform="translate(-263.103 -293.093)"/><path class="u" d="M267.053,295.587c0,.215.33.39.734.388s.733-.177.732-.392-.329-.389-.734-.388S267.053,295.372,267.053,295.587Z" transform="translate(-263.029 -293.046)"/></g></g><g transform="translate(212.736 126.957)"><rect class="i" width="42.611" height="29.985" transform="translate(0 73.635) rotate(-24.359)"/><g transform="translate(35.131)"><g transform="translate(0 61.746)"><path class="c" d="M259.133,185.67c-.582-1.269-1.782-1.582-3.12-1.768-1.976-.274-3.9-.708-5.908-.809-1.175-.058-2.544.691-3.7.964a12.231,12.231,0,0,0-6.962,4.926,12.9,12.9,0,0,0-1.977,3.837c-.42,1.515.529,2.739,1.612,3.847a4.712,4.712,0,0,0,3.487,1.558,7.01,7.01,0,0,0,2.844-1.016,93.98,93.98,0,0,1,9.342-4.344,11.071,11.071,0,0,0,3.519-2.63,4.634,4.634,0,0,0,1.023-4.125A3.387,3.387,0,0,0,259.133,185.67Z" transform="translate(-237.37 -183.09)"/><path class="d" d="M258.6,186.111a3.4,3.4,0,0,0-.165-.441c-.582-1.269-1.782-1.582-3.12-1.768-1.976-.274-3.9-.708-5.907-.809a3.806,3.806,0,0,0-1.449.316c.655,1.272,1.514,2.455,2.07,3.806.59,1.433,1.1,2.93,1.578,4.405a11.913,11.913,0,0,1,.486,2.169c.669-.28,1.328-.585,1.965-.924a11.071,11.071,0,0,0,3.519-2.63A4.634,4.634,0,0,0,258.6,186.111Z" transform="translate(-236.675 -183.09)"/><path class="ak" d="M251.716,192.743l-.015-.019H251.7C251.706,192.727,251.708,192.74,251.716,192.743Z" transform="translate(-236.43 -182.458)"/></g><path class="e" d="M313.381,140.343c.506-4.322-.158-8.624-3.125-12.14-1.824-2.161-4.961-3.742-7.793-2.757-2.923,1.017-3.851,4.216-4.941,6.787-3.439,8.106-6.168,16.522-10.445,24.25a49.083,49.083,0,0,1-18.629,18.888c-6.345,3.753-11.973,9.216-19.259,11.144.6-.158,2.169,2.08,2.443,2.505a15.829,15.829,0,0,1,1.391,3.193,38.368,38.368,0,0,1,1.5,5.359c-.03-.142,5.848-3.1,6.355-3.362C283.037,182.6,310.1,168.423,313.381,140.343Z" transform="translate(-236.594 -125.146)"/><path d="M313.14,140.049a16.1,16.1,0,0,0-1.918-10.433c.212,11.635-6.612,23.881-13.887,32.033-3.1,3.475-6.853,6.21-10.309,9.31-3.819,3.425-7.5,7.084-11.7,10.053-4.515,3.193-9.612,5.255-14.591,7.584-2.525,1.182-5.3,2.248-7.857,3.611a39.463,39.463,0,0,1,1.408,5.07c-.03-.142,5.849-3.1,6.355-3.363C282.8,182.306,309.856,168.129,313.14,140.049Z" transform="translate(-236.352 -124.852)"/></g></g><g transform="translate(134.248 111.697)"><g transform="translate(34.807 30.941)"><g transform="translate(52.814 33.43)"><path class="c" d="M213,175.3c.147-1.067.964-1.565,1.912-2,1.4-.641,2.723-1.391,4.186-1.912a11.521,11.521,0,0,1,2.945-.111,9.442,9.442,0,0,1,6.24,2.092,9.935,9.935,0,0,1,2.313,2.394c.647,1.026.218,2.141-.336,3.2a3.637,3.637,0,0,1-2.229,1.928,5.418,5.418,0,0,1-2.327-.118,72.7,72.7,0,0,0-7.868-1.131,8.522,8.522,0,0,1-3.185-1.16,3.575,3.575,0,0,1-1.674-2.821A2.607,2.607,0,0,1,213,175.3Z" transform="translate(-212.973 -171.233)"/><path class="d" d="M212.973,175.659A2.606,2.606,0,0,1,213,175.3c.147-1.067.964-1.565,1.912-2,1.4-.641,2.723-1.391,4.185-1.912a2.941,2.941,0,0,1,1.141-.089c-.2,1.086-.572,2.151-.683,3.274-.117,1.19-.158,2.409-.185,3.606a9.039,9.039,0,0,0,.124,1.71c-.557-.059-1.111-.137-1.657-.245a8.521,8.521,0,0,1-3.185-1.16A3.575,3.575,0,0,1,212.973,175.659Z" transform="translate(-212.973 -171.229)"/><path class="ak" d="M219.1,179.04l.006-.017h0C219.1,179.026,219.1,179.036,219.1,179.04Z" transform="translate(-212.571 -170.721)"/></g><path class="e" d="M164.661,153.3a11.855,11.855,0,0,1-.391-9.666c.866-2,2.833-3.869,5.144-3.771,2.386.1,3.783,2.258,5.162,3.916,4.345,5.224,8.233,10.835,13.113,15.593a37.865,37.865,0,0,0,17.966,9.81c5.523,1.362,10.9,4.146,16.71,3.949-.475.016-1.139,2.019-1.248,2.4a12.187,12.187,0,0,0-.318,2.667,29.627,29.627,0,0,0,.084,4.293c-.01-.111-5.01-.987-5.444-1.07C196.484,177.771,173.336,173.317,164.661,153.3Z" transform="translate(-163.411 -139.861)"/><path d="M164.66,152.975a12.43,12.43,0,0,1-.9-8.137c2.432,8.645,10.2,16.175,17.388,20.58,3.065,1.877,6.446,3.063,9.69,4.584a103.145,103.145,0,0,0,10.883,4.824c4.047,1.354,8.272,1.743,12.47,2.357,2.128.311,4.416.482,6.608.92a30.376,30.376,0,0,0,.088,4.059c-.01-.111-5.01-.987-5.444-1.07C196.484,177.445,173.335,172.991,164.66,152.975Z" transform="translate(-163.41 -139.534)"/></g><path class="f" d="M161.736,124.965a40.434,40.434,0,0,0-1.625,4.889,33.014,33.014,0,0,1-1.153,4.318,28.77,28.77,0,0,0-2.4,9.84,7.528,7.528,0,0,0,.677,4.183,5.8,5.8,0,0,0,2.809,2.329,7.926,7.926,0,0,0,3.838.7,11.911,11.911,0,0,1,4.558.821c2.8.971,5.165,2.885,7.457,4.768,2.23-5.184,7.5-8.7,9.3-14.046a48.3,48.3,0,0,0,1.1-4.875c.935-4.16,2.982-8.289,2.2-12.48-.669-3.591-3.3-6.464-5.939-8.988-3.107-2.973-6.127-6.29-10.269-3.458C167.738,116.076,163.906,119.808,161.736,124.965Z" transform="translate(-129.055 -110.755)"/><g transform="translate(0 23.101)"><path class="e" d="M170.093,173.32a40.985,40.985,0,0,1,4.762-4.845c2.246-1.935,4.789-3.729,6.072-6.4,1.219-2.541,1.109-5.491.975-8.305a3.859,3.859,0,0,0-1.223-3.085l-2.624-3.027a.9.9,0,0,0-.6-.394c-.332-.005-.549.337-.693.636-2.828,5.843-3.942,12.257-6.739,18.1-1.784,3.728-4.46,6.389-6.35,9.864-.417.767-.292,1.108-.709,1.889a4.657,4.657,0,0,0-.874,2.479,23.227,23.227,0,0,0,.814,6.177,10.832,10.832,0,0,0,2.117,4.727,12.409,12.409,0,0,0,5.913,3.479,46.469,46.469,0,0,1-4.029-8.71c-1.218-3.622-1.594-5.815.571-9.07A41.218,41.218,0,0,1,170.093,173.32Z" transform="translate(-128.69 -131.536)"/><path class="b" d="M175.127,161.3c.624-.042,1.248-.133,1.868-.19-.263-2.1-.722-4.06-.929-6.191a18.4,18.4,0,0,1,.517-6.353c-.378.19-.685.362-1.071.589a5.169,5.169,0,0,0-1.223.987,3.981,3.981,0,0,0-.57.989,55.246,55.246,0,0,0-2.3,7.86,39.182,39.182,0,0,1-2.644,7.458c-1.108,2.29-2.273,4.067-3.511,6.2a63.474,63.474,0,0,0,9.962-7.75A10.994,10.994,0,0,0,175.127,161.3Z" transform="translate(-128.482 -131.45)"/><path class="i" d="M165.239,179.055c.565-3.215,2.67-4.084,5.224-5.934a4.5,4.5,0,0,0,2.124-3.41c.2-1.783.588-4.406.939-6.441a57.587,57.587,0,0,1,1.455-6.33c.356-1.2.955-2.262,1.321-3.438a4.666,4.666,0,0,1-2.608.654,4.8,4.8,0,0,1-3.831-2.7,2.779,2.779,0,0,1,.112-2.938,43.823,43.823,0,0,1,2.972-4.822c-.208.35-10.592-3.088-11.576-3.331-6.129,8.122-10.412,17.457-14.646,26.709q-3.2,7-6.405,14c-1.767,3.86-2.949,7.735-.354,11.61a12.99,12.99,0,0,0,6.422,4.769,25.737,25.737,0,0,0,7.99,1.326,27.713,27.713,0,0,0,9.258-1.075,16.034,16.034,0,0,0,4.2-2c.4-.271,1.473-.851,1.6-1.339.142-.544-.6-1.247-.74-1.752-.161-.579-.578-1.382-.77-1.913C166.512,186.838,164.508,183.209,165.239,179.055Z" transform="translate(-130.241 -131.988)"/><path class="c" d="M183.891,144.363c-6.7,2.615-7.736,7.55-9.265,9.979-2.443,3.881-7.146.288-7.73-1.673-1.321-4.44-3.119-8.294.429-9.759,5.859-2.42,9.148-5.954,12.949-10.407C180.9,137.694,188.774,142.457,183.891,144.363Z" transform="translate(-128.483 -132.504)"/><path class="d" d="M172.953,139.358a46.6,46.6,0,0,0,6.816-6.854c.631,5.19,8.5,9.953,3.617,11.859a13.587,13.587,0,0,0-6.957,5.651C175.4,146.436,174.088,142.913,172.953,139.358Z" transform="translate(-127.977 -132.504)"/><path class="e" d="M171.225,141.26c-1.638,10.414-6.253,15.621-10.762,25.736-1.219,2.736-3.022,12.244-1.364,16.458s.778,13.852-3.138,15.344c-5.638,2.148-11.33,2.425-16.65-.673a48.718,48.718,0,0,1-6.922-5.217c-.459-.391-1.549-1.011-1.637-1.647-.091-.665.907-1.968,1.205-2.56q1.37-2.72,2.741-5.44c4.57-9.073,9.151-18.168,12.713-27.683a58.453,58.453,0,0,1,3.6-8.5,15.346,15.346,0,0,1,6.415-6.457C162.126,138.36,166.411,141.373,171.225,141.26Z" transform="translate(-130.747 -132.027)"/><path class="b" d="M157.408,170.872c3.085-6.814,5.979-11.7,9.612-18.891,1.254-2.483,4.447-8.67,5.687-11.955.04-.105-.026-.169-.117-.127-2.616,1.216-5,1.092-7.806.705-.075-.011-.095.02-.164.116a45.337,45.337,0,0,0-4.114,7.606c.246,1.506.486,3.011.734,4.517-1.573.391-3.146.794-4.7,1.241A38.439,38.439,0,0,0,157.408,170.872Z" transform="translate(-129.089 -132.02)"/></g><g transform="translate(37.212)"><path class="c" d="M170.718,120.012c3.462-4.337,13.342-7.932,19.678,1.618,6.645,10.014.149,26.24-5.736,25.239-3.3-.559-10.072-2.187-13.284-7.53C167.76,133.323,168.029,123.382,170.718,120.012Z" transform="translate(-165.47 -110.512)"/><path class="f" d="M195.267,125.676a18.978,18.978,0,0,0-.871-3.067c-2.772-7.435-11.013-13.995-19.219-11.075-3.219,1.147-9.942,3.57-9.488,14.713a27.569,27.569,0,0,0,1.215,7.775c1.058,3.284,1.943,6.309,5.645,6.954a.652.652,0,0,1,.018-.093,6.994,6.994,0,0,1-.859-2.339,32.255,32.255,0,0,1-1.223-3.765,8.284,8.284,0,0,1,.232-3.749c.387-1.1,1.146-1.737,2.494-.8A4.928,4.928,0,0,1,175,133.747c.221,1.565.3,3.228,1.152,4.558.136.212.354.437.6.374a42.753,42.753,0,0,1,.293-5.452c.75-2.118,1.438-4.261,2.145-6.4a.5.5,0,0,1,.147-.254c.151-.111.361-.017.522.079,4.525,2.706,8.4,6.9,13.581,7.857.415.077,1.37-2.264,1.491-2.6a10.624,10.624,0,0,0,.595-3.351A13.687,13.687,0,0,0,195.267,125.676Z" transform="translate(-165.667 -110.825)"/><path class="al" d="M178.772,122.423a59.43,59.43,0,0,0,12.641,8.891" transform="translate(-164.808 -110.064)"/><path class="al" d="M181.007,112.86a22.123,22.123,0,0,1,12.207,15.185" transform="translate(-164.661 -110.691)"/><path class="al" d="M177.03,114.952A20.359,20.359,0,0,1,188.8,125.271" transform="translate(-164.922 -110.554)"/></g><path class="i" d="M191.371,204.958l25.823-14.8,12.368-27.314-25.823,14.8Z" transform="translate(-126.769 -107.412)"/><g transform="translate(19.139 33.695)"><g transform="translate(42.335 47.646)"><path class="c" d="M188.679,189.149a2.7,2.7,0,0,1,2.407-1.364c1.525-.211,3.007-.547,4.559-.624a11.54,11.54,0,0,1,2.853.744,9.441,9.441,0,0,1,5.372,3.8,9.964,9.964,0,0,1,1.525,2.96c.324,1.169-.408,2.113-1.245,2.969a3.632,3.632,0,0,1-2.69,1.2,5.391,5.391,0,0,1-2.2-.783,72.469,72.469,0,0,0-7.209-3.352,8.569,8.569,0,0,1-2.715-2.029,3.579,3.579,0,0,1-.79-3.184A2.687,2.687,0,0,1,188.679,189.149Z" transform="translate(-188.436 -187.158)"/><path class="d" d="M188.551,189.488a2.529,2.529,0,0,1,.128-.34,2.7,2.7,0,0,1,2.407-1.364c1.525-.211,3.007-.547,4.559-.624a2.955,2.955,0,0,1,1.118.244c-.506.981-1.169,1.895-1.6,2.938-.455,1.106-.845,2.261-1.217,3.4a9.159,9.159,0,0,0-.375,1.672c-.516-.215-1.025-.451-1.516-.712a8.569,8.569,0,0,1-2.715-2.029A3.579,3.579,0,0,1,188.551,189.488Z" transform="translate(-188.436 -187.158)"/><path class="ak" d="M193.354,194.607l.011-.015h0C193.363,194.594,193.36,194.6,193.354,194.607Z" transform="translate(-188.113 -186.67)"/></g><path class="e" d="M148.826,154.172a11.856,11.856,0,0,1,2.413-9.368c1.408-1.668,3.828-2.888,6.013-2.128,2.255.784,2.971,3.253,3.813,5.237,2.653,6.255,4.759,12.749,8.059,18.712A37.875,37.875,0,0,0,183.5,181.2c4.9,2.9,9.24,7.113,14.861,8.6-.459-.121-1.673,1.606-1.885,1.934A12.227,12.227,0,0,0,195.4,194.2a29.768,29.768,0,0,0-1.157,4.136c.023-.11-4.513-2.389-4.9-2.595C172.242,186.78,151.36,175.839,148.826,154.172Z" transform="translate(-148.708 -142.445)"/><path d="M148.826,153.946a12.414,12.414,0,0,1,1.481-8.051c-.165,8.979,5.1,18.428,10.715,24.719,2.392,2.681,5.289,4.791,7.956,7.183a103.134,103.134,0,0,0,9.03,7.758c3.485,2.464,7.418,4.054,11.259,5.852,1.949.911,4.09,1.735,6.062,2.787a30.448,30.448,0,0,0-1.086,3.912c.023-.11-4.513-2.389-4.9-2.595C172.242,186.553,151.36,175.613,148.826,153.946Z" transform="translate(-148.707 -142.219)"/></g></g><g transform="translate(77.374 144.491)"><g transform="translate(8.345 96.319)"><g transform="translate(2.8 101.645)"><path class="am" d="M91.779,327.376h9.154c-.143,4.2-.223,7.876-.223,10.109,0,7.554,4.219,14.6,5.791,17.336s-3.358,6.978-7.135,2.978-4.173-4.778-6.3-6.037-3.724-6.64-2.075-12.585C91.782,336.323,91.979,332.111,91.779,327.376Z" transform="translate(-87.67 -327.376)"/><path class="an" d="M100.7,338.856c-2.764,1.556-6.242.775-9.529-.677a46.21,46.21,0,0,0,.551-10.8h9.154c-.143,4.2-.223,7.876-.223,10.109C100.653,337.945,100.67,338.4,100.7,338.856Z" transform="translate(-87.613 -327.376)"/><path class="k" d="M106.662,353.95a73.56,73.56,0,0,1,6.2,6.379c1.556,2.09-3.219,5.127-7.782,3.348a20.725,20.725,0,0,1-6.552-4.607c-1.634-1.561-3.129-3.5-5.046-4.7-1.363-.855-2.859-1.474-4.279-2.23a2.051,2.051,0,0,1-.643-.462,2.093,2.093,0,0,1-.362-.916,9.642,9.642,0,0,1,.27-6.137,26.365,26.365,0,0,1,1.17-2.508c.126-.218,1.051-1.223,1.02-1.441,0,0,1.167,8.16,6.376,11.6C102,355.563,104.047,356.074,106.662,353.95Z" transform="translate(-87.832 -326.504)"/></g><path class="b" d="M88.935,234.774c.478-1.134,1.136-2.371,2.322-2.7a4.351,4.351,0,0,1,3.047.7l6.87,3.537c1.747.9,4.435,1.7,5.779,3.184,2.273,2.506,1.539,7.975,1.182,11-.914,9.613-1.794,19.116-2.34,28.658-.3,5.288-.5,10.587-.547,15.923-.042,4.907-.735,6.471-2.024,12.061-1.171,5.086-2.016,25.356-2.158,34.656-1,1.473-3.926,1.911-5.391,1.992a7.4,7.4,0,0,1-3.8-.786c.822-6.393-.038-16.277-1.606-25.107,0-5.274-.683-10.365-.257-15.7.34-4.249,1.056-8.557,1.205-12.809.325-9.271-3.462-18.035-5.17-27.007A48.281,48.281,0,0,1,88.935,234.774Z" transform="translate(-85.205 -231.989)"/><path class="e" d="M88.935,234.774c.478-1.134,1.136-2.371,2.322-2.7a4.351,4.351,0,0,1,3.047.7L96.87,234.1C91.514,242.582,90.9,251.363,92,261.275a127.352,127.352,0,0,0,2.237,14.09c1.266,5.592,3.309,12.05,1.924,17.807-.57,2.37-1.92,4.471-2.555,6.822-1.56,5.779-.508,12.1-.323,17.994,0,8.424-.162,17.466,1.254,25.78a7.39,7.39,0,0,1-2.663-.762c.822-6.393-.038-16.277-1.606-25.107,0-5.274-.683-10.365-.257-15.7.34-4.249,1.056-8.557,1.205-12.809.325-9.271-3.462-18.035-5.17-27.007A48.281,48.281,0,0,1,88.935,234.774Z" transform="translate(-85.205 -231.989)"/></g><g transform="translate(26.354 93.817)"><path class="am" d="M109.254,327.82h9.059c-.016.985-.025,1.851-.025,2.568,0,7.553,4.219,14.6,5.791,17.336s-3.358,6.978-7.134,2.977-4.174-4.777-6.3-6.036-3.724-6.64-2.075-12.586A24.053,24.053,0,0,0,109.254,327.82Z" transform="translate(-101.726 -223.199)"/><path class="an" d="M118.579,334.112c-3.031,1.366-6.79-.051-10.087-1.879.014-.051.022-.1.037-.153a24.05,24.05,0,0,0,.685-4.26h9.059c-.016.985-.025,1.851-.025,2.568A22.583,22.583,0,0,0,118.579,334.112Z" transform="translate(-101.686 -223.199)"/><path class="b" d="M103.883,236.619a13.243,13.243,0,0,1,4.31-5.6,7.015,7.015,0,0,1,6.786-.836c3.409,1.606,4.257,5.98,4.678,9.725,1.19,10.6,2.287,21.243,2.842,31.905.275,5.293.417,10.59.372,15.889-.043,4.906-.736,6.47-2.025,12.06s-2.18,29.517-2.179,37.071c0,.111.01.219.012.33-2.35,2.344-6.3,1.31-9.355-.384,1.1-6.308.237-16.881-1.43-26.264-2.254-9.013.461-18.174.15-27.27a123.743,123.743,0,0,0-3.795-25.012C102.482,250.986,100.647,243.766,103.883,236.619Z" transform="translate(-102.105 -229.641)"/><path class="e" d="M107.754,280.7a102.5,102.5,0,0,0-1.221-12.362c.737,1.888,1.423,3.8,2.016,5.74a42.718,42.718,0,0,1,2.16,11.7c.047,3.6-1.041,7.094-1.112,10.684a46.356,46.356,0,0,0,1.447,10.271,52.726,52.726,0,0,1,1.042,12.188c-.131,5.463-.482,10.918-.746,16.376a16.535,16.535,0,0,1-2.306-1.06c1.1-6.308.237-16.881-1.43-26.264C105.35,298.96,108.065,289.8,107.754,280.7Z" transform="translate(-101.815 -227.102)"/><path class="k" d="M124.25,347.317a73.539,73.539,0,0,1,6.2,6.378c1.523,2.044-1.8,2.941-3.227,3.19-2.5.438-4.778.884-7.142-.413a16.019,16.019,0,0,1-4.485-4.1,34.74,34.74,0,0,0-4.06-4.559,6.063,6.063,0,0,0-2.415-1.377,13.832,13.832,0,0,0-2.507-.188,1.262,1.262,0,0,1-.879-.3,1.356,1.356,0,0,1-.263-.743c-.557-3.91.062-8.1,2.774-11.167,0,0,1.167,8.162,6.376,11.606C119.592,348.93,121.636,349.441,124.25,347.317Z" transform="translate(-101.897 -222.791)"/></g><path class="am" d="M145.528,227.118s-9.585-14.232-13.794-21.76c-2.791-4.992-5.265-10.213-7.893-15.289-2.371-4.581-5.817-8.175-11.125-9.124s-8.3,4.294-6.831,8.882c1.354,4.213,4.607,7.826,7.672,10.9a51.578,51.578,0,0,0,3.972,3.642s11.564,14.964,14.2,19.567c1.415,2.465,7.965,8.849,7.965,8.849Z" transform="translate(-75.528 -139.026)"/><g transform="translate(3.891 38.214)"><path class="e" d="M113.532,242.924a29.429,29.429,0,0,1-11.694,1.586A25.582,25.582,0,0,1,87.3,238.831c.442-1.41.927-2.806,1.5-4.169a10.548,10.548,0,0,1,.456-.956,32.269,32.269,0,0,0,12.054,4.079,27.858,27.858,0,0,0,17.991-4.052,21.326,21.326,0,0,1,1.3,5.649C118.628,241.071,115.856,242.074,113.532,242.924Z" transform="translate(-80.614 -173.771)"/><path class="ao" d="M82.8,188.556a90.073,90.073,0,0,1,10.548-7.723s6.632,5.289,8.97,7.121a59.781,59.781,0,0,1,6.29,6.634l.054-.006a50.6,50.6,0,0,0-2.816-13,11.368,11.368,0,0,1-.136-4.123c1.16.108,2.319.249,3.477.394a38.625,38.625,0,0,1,4.538,2.317c1.091,1.482,2.127,2.857,2.914,3.758,2.078,2.374,8.187,10.6,6.321,18.374-.623,2.595-1.128,5.508-1.506,8.292-1.561,3.737-1.4,8.125-.907,12.054a48.182,48.182,0,0,0,1.217,6.361,39.534,39.534,0,0,0,1.938,6.347c-2.21,2.3-9.475,9.178-17.19,8.836-7.986-.354-19.3-4.122-19.1-13.524a92.34,92.34,0,0,0-1.224-17.021,123.03,123.03,0,0,0-3.863-16.223c-.293-.952-.608-1.93-.973-2.958A5.507,5.507,0,0,1,82.8,188.556Z" transform="translate(-81.026 -177.461)"/><path class="ap" d="M121.34,229.011a48.172,48.172,0,0,1-1.217-6.361c-.5-3.929-.654-8.317.907-12.054.377-2.783.882-5.7,1.506-8.292,1.866-7.774-4.243-16-6.321-18.374-.787-.9-1.823-2.276-2.914-3.758a38.625,38.625,0,0,0-4.538-2.317c-1.158-.145-2.317-.287-3.477-.394a11.367,11.367,0,0,0,.136,4.123,50.6,50.6,0,0,1,2.816,13l-.054.006a59.781,59.781,0,0,0-6.29-6.634c-2.338-1.833-8.97-7.121-8.97-7.121s-2.567,1.6-5.456,3.682c2.021,2.3,3.085,5.5,3.639,8.859,1.213,7.343-.431,15.933,6.848,20.342,3.3,2,6.165,3.648,7.724,7.346a32.458,32.458,0,0,1,2.088,11.533c.129,3.809-.139,7.692-.36,11.581,7.212-.419,13.79-6.648,15.874-8.82A39.528,39.528,0,0,1,121.34,229.011Z" transform="translate(-80.603 -177.461)"/></g><g transform="translate(38.09 68.223)"><path class="aq" d="M152.613,207.715l-16.935,29.332a12.692,12.692,0,0,1-5.028,4.567L114.956,250.7c-1.753.76-2.359-.054-1.347-1.807l16.935-29.331a12.684,12.684,0,0,1,5.029-4.568l15.693-9.085C153.019,205.148,153.625,205.962,152.613,207.715Z" transform="translate(-113.119 -205.623)"/><path class="aq" d="M113.369,248.152l1.675.962,1-2.1h-2.109Z" transform="translate(-113.102 -202.907)"/><path class="aq" d="M152.044,206.665l-1.591-.931-.966.931,1.229,1.2Z" transform="translate(-110.733 -205.616)"/><path class="q" d="M154.142,208.592l-16.934,29.332a12.707,12.707,0,0,1-5.029,4.568l-15.693,9.085c-1.753.759-2.359-.054-1.347-1.807l16.935-29.332a12.7,12.7,0,0,1,5.028-4.568l15.693-9.085C154.549,206.026,155.154,206.839,154.142,208.592Z" transform="translate(-113.018 -205.565)"/></g><path class="am" d="M90.965,213.25c4.072,11.367,14.11,19.17,26.269,21.489,2.441.466,4.626-.364,7.06,0-.3.707-1.441,3.3-.209,4.122,2.321,1.545,5.022-1.037,6.908,0,1.789.984-.3,4.685-2.972,5.986-3.948,1.92-7.622.009-11.177-1.812-6.829-3.5-14.546-3.677-21.183-7.873-6.949-4.392-10.861-7.034-14.184-14.52-3.1-6.983-6.049-21-2.446-28.278,2.091-4.222,5.926-6.305,8.828-1.262C91.572,197.557,88.55,206.51,90.965,213.25Z" transform="translate(-77.374 -138.546)"/><path class="ar" d="M143.781,223.731c-2.116-.449-5.29,3.574-4.812,5.779s3.687.474,4.942-1.51S145.594,224.115,143.781,223.731Z" transform="translate(-73.336 -136.214)"/><g transform="translate(9.017)"><path class="i" d="M94.746,179.677a34.532,34.532,0,0,0,5.416,7.173c2.743,2.743,8.638,8.741,8.638,8.741l-10.722,1.791c-1.683-2.5-3.32-5.026-4.873-7.605a23.085,23.085,0,0,1-2.736-5.029c-.65-2.281,1.821-5.692,2.793-7.846Q93.96,178.313,94.746,179.677Z" transform="translate(-85.539 -139.284)"/><path class="i" d="M106.958,178.607l1.676,1.077a15.223,15.223,0,0,1,4.436,4.308,36.611,36.611,0,0,1,2.252,3.183l-7.442,8.412q-.764-3.961-1.527-7.92a36.7,36.7,0,0,0-1.282-5.37c-.3-.844-.38-5.152-.685-5.345Z" transform="translate(-84.618 -139.281)"/><g transform="translate(7.042 6.938)"><path class="am" d="M107.235,185.877c.987,1.543,1.987,6.405,1.4,10.644-2.191-1.241-6.369-5.218-8.748-8.083-4.827-5.815-6.223-8.823-6.223-8.823l-.76-16.9,13.238,12.924S106.052,182.315,107.235,185.877Z" transform="translate(-92.414 -147.153)"/><path class="an" d="M106.982,185.235c-2.926-2.09-12.1-8.953-13.519-10.056L92.9,162.711l13.238,12.924A63.445,63.445,0,0,0,106.982,185.235Z" transform="translate(-92.414 -147.153)"/><path class="am" d="M95.459,151.818c3.733-4.031,13.75-6.863,19.312,3.026a16.285,16.285,0,0,1,1.858,5.492c-1.766,1.814-.778,4.234-.016,6.352-1.1,7.332-5.61,13.58-9.34,12.66-3.215-.792-10.3-4.362-13.087-9.872C91.053,163.275,92.557,154.95,95.459,151.818Z" transform="translate(-92.444 -148.111)"/></g><path class="ap" d="M108.385,162.2a1.7,1.7,0,0,1-.519.173,5.532,5.532,0,0,1-2.452-.557,2.011,2.011,0,0,0-2.317.455c-.506.787.01,2.014-.662,2.666a1.973,1.973,0,0,1-1.236.4l-2.7.242a2.138,2.138,0,0,0-1.847,1.611,7.207,7.207,0,0,0-.548,2.231c.033.487.267.943.291,1.43a5.2,5.2,0,0,1-.416,1.7c-.522,1.751-.032,3.575.064,5.347a32.587,32.587,0,0,1-.422,4.636c-.086,1.1,1.114,1.981,1.042,3.08-.056.864-.893,1.544-.9,2.41-.005.667.492,1.309.318,1.953a1.577,1.577,0,0,1-.539.75,3.853,3.853,0,0,1-6.155-1.7,1.508,1.508,0,0,0-.407-.773c-.359-.272-.881-.091-1.314-.216-.729-.211-.922-1.172-.775-1.917a5.77,5.77,0,0,0,.343-2.229c-.162-.789-.864-1.4-.966-2.2a4.048,4.048,0,0,1,.452-1.84,6.645,6.645,0,0,0,.13-4.138,6.438,6.438,0,0,1-.46-1.926c.028-1.235,1.087-2.5.494-3.582-.181-.33-.491-.57-.7-.882-1-1.5.406-2.456.832-3.644.51-1.419-1.035-2.674-.706-4.13.343-1.522,1.148-2.99,1.035-4.632a19.146,19.146,0,0,0-.422-2.028,2.393,2.393,0,0,1,.357-1.974c.619-.731,1.825-.775,2.372-1.561a2.223,2.223,0,0,0,.328-.946c.16-1.03.046-2.1.287-3.111.4-1.675,1.919-2.31,3.371-2.855.644-.241,1.315-.754,1.272-1.442a3.1,3.1,0,0,1-.048-.493c.051-.529.711-.731,1.24-.766a10.962,10.962,0,0,1,3.12.234,5.122,5.122,0,0,0,1.877.23,7.887,7.887,0,0,0,1.157-.368,8.816,8.816,0,0,1,4.017-.019,2.865,2.865,0,0,1,1.05.3c.645.384.891,1.2,1.453,1.7,1.335,1.179,3.947.214,4.875,1.733a10.287,10.287,0,0,1,.487,1.359c.467,1.082,1.735,1.668,2.15,2.771.45,1.2-.246,2.648.355,3.779.264.5.755.865.946,1.4a2.479,2.479,0,0,1-1.531,2.84,2.335,2.335,0,0,0-1.348,1.316,2.855,2.855,0,0,1-1.769,1.531,4.173,4.173,0,0,1-1.768.1,2.251,2.251,0,0,0-2.1.94A1.99,1.99,0,0,1,108.385,162.2Z" transform="translate(-85.835 -141.6)"/><path class="as" d="M96.443,162.755l-3.2-5.623" transform="translate(-85.349 -140.581)"/><path class="at" d="M112.646,152.163a1.078,1.078,0,0,1-.058,1.679,2.885,2.885,0,0,1-1.879.45,3.686,3.686,0,0,0-1.922.308c-.891.524-1.133,1.712-1.871,2.435-.845.824-2.144.888-3.317,1.017s-2.506.505-2.976,1.588" transform="translate(-84.865 -140.907)"/><path class="at" d="M90.909,161.286a5.241,5.241,0,0,1-.306,4.306c-.583,1.062-1.579,2.156-1.187,3.3.238.694.961,1.2.988,1.936a2.859,2.859,0,0,1-.571,1.413c-1.046,1.859-.74,4.154-.4,6.262" transform="translate(-85.621 -140.309)"/><path class="at" d="M93.417,166.565c.874.74.574,2.159.028,3.164s-1.293,2.055-1.078,3.179a14.1,14.1,0,0,0,.506,1.4,5.6,5.6,0,0,1,.136,1.786l-.282,8.995" transform="translate(-85.409 -139.962)"/><path class="at" d="M106.2,147.739l-3.27,1.228a2.593,2.593,0,0,0-1.039.586c-.59.639-.413,1.689-.859,2.437-.51.857-1.635,1.058-2.613,1.253s-2.1.633-2.318,1.607" transform="translate(-85.162 -141.197)"/></g></g><g transform="translate(330.359 103.465)"><g transform="translate(0 38.734)"><path class="ar" d="M341.885,217.92c-.38-.548-4.092,3.569-4.482,3.969a67.407,67.407,0,0,1-9.247,7.6c-3.009,2.114-6.974,3.5-10.352,2.047-1.828-.785-3.778-3.593-2.723-5.657a5.642,5.642,0,0,1,1.832-1.838l7.559-5.535c-.434-1.087-1.861-1.255-3.021-1.411s-2.583-.862-2.4-2.018a1.691,1.691,0,0,1,1.378-1.253,6.22,6.22,0,0,1,1.971.044,16.83,16.83,0,0,0,13.337-4.813S341.879,217.913,341.885,217.92Z" transform="translate(-314.783 -134.882)"/><path class="ao" d="M364.069,201.895c-1.3,1.406-2.671,2.784-4.077,4.193-5.714,5.723-11.78,11.077-17.79,16.484-.864.778-2.583,3.056-3.676,3.334-1.279.327-1.782-1.546-2.681-2.617a18.843,18.843,0,0,0-3.138-2.689,45.719,45.719,0,0,0-5.559-3.566c.639.29,4.782-4.854,5.329-5.481,5.657-6.488,11.594-12.729,17.629-18.864,5.4-5.492,5.7-4.7,8.824-11.938,3.352-7.774,3.151-16.557,4.856-24.849a25.466,25.466,0,0,1,5.878-11.046c2.183-2.53,7.4-7.949,10.669-4.024a5.86,5.86,0,0,1,1.213,3.575c.031.94-.225,1.862-.2,2.791.017.7.287,1.325.354,2.012a16.278,16.278,0,0,1-1.2,6.4c-2,5.991-2.835,12.576-4.13,18.772a93.013,93.013,0,0,1-4.089,15.211A38.9,38.9,0,0,1,364.069,201.895Z" transform="translate(-313.972 -139.449)"/><path class="ap" d="M380.333,140.831c-3.272-3.925-8.485,1.5-10.669,4.025a25.455,25.455,0,0,0-5.877,11.045c-1.706,8.293-1.5,17.076-4.857,24.85-3.12,7.234-3.421,6.446-8.824,11.938-6.036,6.136-11.972,12.376-17.629,18.864-.547.628-4.69,5.771-5.329,5.482,1.205.673,2.374,1.409,3.52,2.177,9.084-8.709,17.323-18.442,26.909-26.6,2.162-1.839,4.427-3.493,5.55-6.2a38.516,38.516,0,0,0,1.628-5.489c1.162-5.252,2.005-10.584,3.642-15.72a70.169,70.169,0,0,1,11.157-20.739c.519-.68,1.067-1.367,1.639-2.048A4.913,4.913,0,0,0,380.333,140.831Z" transform="translate(-313.972 -139.449)"/><path class="au" d="M364.182,188.866c-6.125,6.249-12.751,11.891-18.7,18.344-3.8,4.123-7.582,8.257-11.529,12.229a10.619,10.619,0,0,1,1.444,1.386c.9,1.071,1.4,2.944,2.681,2.617,1.093-.278,2.812-2.556,3.676-3.334,6.01-5.407,12.077-10.76,17.79-16.484,1.406-1.409,2.775-2.789,4.077-4.193a38.9,38.9,0,0,0,8.206-12.307,69.91,69.91,0,0,0,2.983-10.139C371.276,180.95,367.907,185.064,364.182,188.866Z" transform="translate(-313.525 -136.986)"/></g><g transform="translate(40.884 113.361)"><path class="f" d="M369.416,322.5a15.27,15.27,0,0,1-2.528,2.725L356,335.188c-2.775,2.539-3.136,5.662-2.692,9.323a.837.837,0,0,0,.119.4.824.824,0,0,0,.585.255,24.455,24.455,0,0,0,21.725-8.66,2.33,2.33,0,0,1,1.229-.961c.6-.111,1.158.294,1.748.448,5.329,1.388,3.3-10.4,3.578-12.82.087-.762.144-1.672-.442-2.144a1.993,1.993,0,0,0-.612-.3c-3.316-1.15-5.826-.618-9.147-.426a2.9,2.9,0,0,0-1.2.245,3.878,3.878,0,0,0-1.273,1.631C369.554,322.284,369.486,322.393,369.416,322.5Z" transform="translate(-353.15 -202.229)"/><path class="e" d="M362.716,221.353a171.852,171.852,0,0,0-1.408,18.182l-2.062,44.776,2.138,6.98,5.292,41.327s.391,2.361,7.8,1.654c6.747-.644,7.34-7.128,7.34-7.128l-5.037-39.838c-.157-1.252.605-3.125.842-4.345q1.068-5.513,2.137-11.027,2.914-15.033,5.832-30.065,1.263-6.51,2.531-13.021a40.56,40.56,0,0,0,.768-12.994,7.881,7.881,0,0,0-.564-2.352c-.8-1.749-2.647-2.776-4.474-3.374-3.651-1.195-6.744-.385-10.413-.335-3.025.042-6.149-.364-8.24,2.459a9.917,9.917,0,0,0-1.455,3.724C363.325,217.776,362.988,219.565,362.716,221.353Z" transform="translate(-352.75 -209.481)"/><path class="b" d="M367.246,288.379c-1.459-4.343-1.094-9.182-.4-13.622,2.632-16.789,6.511-33.329,10.04-49.938a6.621,6.621,0,0,0-1.915-3.392,18,18,0,0,0-6.035-2.215c-1.62-.37-3.717-.917-5.167.183a3.729,3.729,0,0,0-1.143,1.589l-.755,5.712L359.246,283.7l2.138,6.98,5.292,41.327s.369,2.134,6.8,1.729c-1.223-10.23-2.89-20.4-3.9-30.657C369.073,297.956,368.9,293.289,367.246,288.379Z" transform="translate(-352.75 -208.873)"/></g><g transform="translate(68.312 111.8)"><path class="f" d="M390.3,337.176l-.143.086a87.449,87.449,0,0,1,.131,16.158c-.375,3.189-2.546,12.585,1.948,14.686,5.678,2.656,9.608-2.9,10.774-7.877a71.054,71.054,0,0,0,1.655-20.893c-.278-4.16-1.042-4.57-5.049-4.627A17.483,17.483,0,0,0,390.3,337.176Z" transform="translate(-378.197 -199.704)"/><path class="e" d="M408.8,222.376a29.283,29.283,0,0,0-1.521-6.269,14.361,14.361,0,0,0-1.978-3.805c-2.449-3.183-6.754-4.493-10.763-4.259s-7.811,1.791-11.475,3.434a7.094,7.094,0,0,0-2.94,1.984,6.883,6.883,0,0,0-1.027,3.59c-.972,11.37,1.66,22.7,2.654,34.023L384.44,281.6c.369,4.2-.238,10.313,1.256,14.3l2.541,7.236,2.449,39.934s-.256,6,7.511,4.866c7.07-1.029,7.573-5.542,7.573-5.542l-1.506-44.255q1.264-23.2,2.851-46.38C407.755,242.67,410.092,231.852,408.8,222.376Z" transform="translate(-378.889 -208.016)"/><path class="b" d="M398.207,339.925c-.376-6.82-1.049-13.564-1.879-20.339-.713-5.829-1.921-12.345-.853-18.181a19.615,19.615,0,0,1,2.066-5.342,25.189,25.189,0,0,0,2.67-10.7c.391-7.363-.31-14.794-.789-22.134-.546-8.345.07-16.706-.177-25.057a77.093,77.093,0,0,0-1.239-12.391c-.481-2.48-.171-3.183-2.42-3.381-1.913-.167-4.137.726-6.126.7-3-.038-6.019-.823-8.957-.237a1.143,1.143,0,0,0-.612.263,1.163,1.163,0,0,0-.254.707c-.538,4.824.642,10.171,1.085,15,.287,3.134.551,6.271.827,9.407l4.106,46.716,2.541,7.236,2.449,39.934s-.256,6,7.511,4.866c.152-.022.285-.055.431-.08C398.457,344.58,398.335,342.248,398.207,339.925Z" transform="translate(-378.849 -207.074)"/></g><g transform="translate(50.56 36.907)"><path class="au" d="M362.23,216.913c7.919,1.883,12.963,3.283,21.066,4.048s19.65.543,25.328-5.286c-.514-.937-.522-4.338-1.008-5.29-.128-.25-18.489,1.22-26.546.442-4.262-.411-17.462.2-17.462.2A22.266,22.266,0,0,1,362.23,216.913Z" transform="translate(-362.23 -132.97)"/><g transform="translate(0.257)"><path class="ao" d="M374,140.559a31.492,31.492,0,0,0-11.31,18.653c-1.1,6.008,2.37,24.389,2.561,37.825a50.549,50.549,0,0,1-2.525,15.281,5.485,5.485,0,0,0,3.455,6.8,61.278,61.278,0,0,0,38.006.62,5.447,5.447,0,0,0,3.746-6.322c-.932-4.4-1.814-10.618-1.823-11.453a47.069,47.069,0,0,1,1.91-14.189c2.689-9.005,6.928-18.023,7.292-27.545a19.67,19.67,0,0,0-1.916-9.84c-6.522-12.616-17.165-11.359-17.165-11.359S382.414,135.268,374,140.559Z" transform="translate(-362.471 -137.735)"/></g></g><g transform="translate(89.739 43.285)"><path class="ar" d="M419.078,228c-.586-.2-1.086,4.917-1.155,5.43a62.455,62.455,0,0,1-2.709,10.767c-1.078,3.235-3.274,6.452-6.593,7.231-1.8.421-4.8-.6-5.148-2.719a5.243,5.243,0,0,1,.353-2.38l2.589-8.295c-.923-.572-2.08.09-3.032.613s-2.4.78-2.9-.182a1.566,1.566,0,0,1,.338-1.693,5.783,5.783,0,0,1,1.494-1.055,15.6,15.6,0,0,0,7.3-10.938Z" transform="translate(-398.908 -138.402)"/><path class="ao" d="M424.912,205.28q-.416,3.542-1.083,7.05c-.8,4.212-1.211,8.084-2.426,12.232-1.31,4.466-2.576,9.156-2.2,13.854-.054-.677-2.953-1.489-3.5-1.62a17.436,17.436,0,0,0-3.821-.275,42.413,42.413,0,0,0-6.111.4c.159-.02,1.074-7.2,1.164-7.826.246-10.426,2.653-21.15,3.918-31.51,1.016-8.328-3.964-14.1-7.569-21.138a39.582,39.582,0,0,1-3.193-27.173c.579-2.371,1.78-5.056,4.179-5.5a4.716,4.716,0,0,1,4.113,1.594,13.908,13.908,0,0,1,2.351,3.929q3.589,7.847,7.176,15.694c3.268,7.148,6.983,14.237,7.485,22.161A100.776,100.776,0,0,1,424.912,205.28Z" transform="translate(-398.997 -143.72)"/><path class="ap" d="M407.385,149.539c1.711,1.562,2.48,3.852,3.313,5.947,1.608,4.046,3.183,8.108,5.022,12.057,3.106,6.67,7.059,13,9.649,19.909-.006-.1-.005-.2-.012-.3-.5-7.925-4.217-15.013-7.485-22.161q-3.588-7.848-7.176-15.694a13.909,13.909,0,0,0-2.351-3.929,4.715,4.715,0,0,0-4.112-1.594c-2.4.444-3.6,3.13-4.18,5.5-.169.694-.282,1.4-.412,2.1C401.657,148.825,404.334,146.755,407.385,149.539Z" transform="translate(-398.954 -143.72)"/><path class="au" d="M406.937,228.164c-.09.623-1,7.807-1.164,7.827,1.173-.15,2.353-.257,3.535-.327.19-14.035,5.336-27.726,5.206-41.791-.075-8.192-4.958-16.082-9.273-22.817-1.711-2.671-3.747-5.138-5.051-8.052a15.179,15.179,0,0,1-1.167-5.046,39.5,39.5,0,0,0,4.263,17.558c3.6,7.034,8.585,12.811,7.569,21.138C409.591,207.015,407.183,217.74,406.937,228.164Z" transform="translate(-398.995 -142.785)"/></g><g transform="translate(54.007)"><path class="u" d="M377.76,152.631a4.207,4.207,0,0,0,1.985.423,8.45,8.45,0,0,0,4.638-1.072,13.8,13.8,0,0,0,3.362-3.382l2.151-2.726a.361.361,0,0,0,.095-.2c.007-.2-.245-.238-.419-.209a9.477,9.477,0,0,1-5.123-.572c-1.083-.439-2.1-1.075-3.177-1.524-1.985-.825-5.119-.7-5.642,2.183C375.22,147.818,375.748,151.514,377.76,152.631Z" transform="translate(-364.806 -100.486)"/><path class="b" d="M369.571,117.873l.1.539-3.306,2.659-.005,0a.363.363,0,0,1-.524.025.4.4,0,0,1,.064-.545Z" transform="translate(-365.445 -102.13)"/><path class="ar" d="M378.594,133.907l-.014,10.945a29.284,29.284,0,0,0,5.47,4.923c3.852-1.493,12.418-10.587,12.418-10.587l-4.185-16.709Z" transform="translate(-364.604 -101.828)"/><path class="av" d="M388.123,135.984l1.109-10.062-10.718,7.326-.679,10.919a18.808,18.808,0,0,0,1.534,2.029C380.9,143.764,385.595,140.568,388.123,135.984Z" transform="translate(-364.653 -101.602)"/><path class="ar" d="M393.593,108.433c-4.449-4.945-16.524-8.549-23.432,3.324l-.019.033a11.205,11.205,0,0,0-1.368,6.379l.8,11.908a14.649,14.649,0,0,0,3.734,9.049c1.752,1.877,3.689,2.843,5.5,2.425a26.452,26.452,0,0,0,8.115-3.678,27.7,27.7,0,0,0,4.467-3.525A20.6,20.6,0,0,0,393.3,132.2a20.193,20.193,0,0,0,3.762-12.929C396.943,115.608,396.13,111.254,393.593,108.433Z" transform="translate(-365.249 -103.055)"/><path class="q" d="M378.921,137.177l1.572,8.766-6.979,3.412S375.843,141.11,378.921,137.177Z" transform="translate(-364.936 -100.864)"/><path class="q" d="M394.778,131.662s-1.12,4.046-6.471,8.462a101.211,101.211,0,0,1-9.122,5.825l4.856,8.556,14.928-15.395S396.24,134.259,394.778,131.662Z" transform="translate(-364.564 -101.226)"/><g transform="translate(26.493 3.302)"><path class="e" d="M397.677,106.316a4.684,4.684,0,0,1,2.854,1.63,8.453,8.453,0,0,1,1.376,6.1c-.131.718-.464,1.377-.594,2.1a5.358,5.358,0,0,0,.544,3.469.779.779,0,0,1,.147.594.713.713,0,0,1-.4.353,7.093,7.093,0,0,1-4.082,1.121c-1.922-.276-3.268-2.073-3.965-3.884-.616-1.6-.894-3.319-1.621-4.877-.544-1.165-1.927-2.555-1.548-3.954C391.058,106.488,395.714,105.912,397.677,106.316Z" transform="translate(-390.326 -106.198)"/><path class="aw" d="M394.383,106.366c-1.8.325-3.6,1.12-3.992,2.584-.378,1.4,1,2.79,1.548,3.954.727,1.558,1,3.278,1.621,4.877a5.9,5.9,0,0,0,3.54,3.779C399.371,116.936,398.648,109.074,394.383,106.366Z" transform="translate(-390.326 -106.187)"/></g><path class="e" d="M396.66,112.428A13.515,13.515,0,0,0,388.486,104c-6.8-2.481-16.759.161-18.613,7.873.6-.143,1.156.34,1.589.783l2.353,2.418a1.8,1.8,0,0,0,2.344.646,72.792,72.792,0,0,1,9.241-2.6c.916-.169,2.093-.182,2.514.649.391.775-.071,1.906-.1,2.734a17.723,17.723,0,0,1-.648,2.881,2.666,2.666,0,0,0-.038,1.326,5.977,5.977,0,0,0,.516.971,6.737,6.737,0,0,1,.264,3.55c-.03.48.1,1.121.581,1.156s.7-.546.781-1l.54-2.933a3.867,3.867,0,0,1,.3-1.051,3.605,3.605,0,0,1,.585-.782,2.576,2.576,0,0,1,1.07-.8,1.789,1.789,0,0,1,1.968.945,4.021,4.021,0,0,1,.339,2.3,11.391,11.391,0,0,1-.733,3.16,1.861,1.861,0,0,1-.426.717.7.7,0,0,1-.776.15c.175,1.043-.111,2.265.6,3.052,1.66,1.845,3.217-.873,3.721-2.243a27.8,27.8,0,0,0,1.11-4.995A21.063,21.063,0,0,0,396.66,112.428Z" transform="translate(-365.175 -103.1)"/><path class="e" d="M371.447,133.841c.941,2.2,3.1,2.978,5.385,2.716a13.233,13.233,0,0,0,9.755-6.336,6.986,6.986,0,0,0,1.188-2.732c.089-1.132.127-2.277.2-3.413a.435.435,0,0,1,.067-.249.443.443,0,0,1,.256-.129l.953-.239a53.579,53.579,0,0,1,.741,5.9,12.815,12.815,0,0,1-4.1,9.989c-2.1,1.821-4.481,3.925-7.095,4.951a9.467,9.467,0,0,1-2.825.638c-3.06.036-3.58-2.471-4.267-4.871a51.652,51.652,0,0,1-2.279-13.724,9.847,9.847,0,0,0,.672,1.741c.185.653.313,1.322.437,1.989A17.96,17.96,0,0,0,371.447,133.841Z" transform="translate(-365.205 -101.764)"/><path class="e" d="M381.768,136.481s-6.865-2.356-7.592-3.371-1.562-2.564-1.2-2.885C376.459,127.1,381.768,136.481,381.768,136.481Z" transform="translate(-364.978 -101.362)"/><path class="e" d="M374.314,130.7a1.847,1.847,0,0,1-.415,2.274c-.7.5-5.486-1.392-5.486-1.392S370.688,125.265,374.314,130.7Z" transform="translate(-365.271 -101.434)"/><g transform="translate(0 18.312)"><g class="ax" transform="translate(9.226 3.095)"><path class="i" d="M377.97,123.411c3.592.59,5.061,1.354,4.679,3.878-.378,2.489-1.323,3.865-4.514,2.777a5.987,5.987,0,0,1-4.012-5.554C374.1,123.416,374.518,122.844,377.97,123.411Z" transform="translate(-374.122 -123.188)"/></g><g class="ax" transform="translate(0.614 0.552)"><path class="i" d="M369.627,121.341c3,1.035,3.508,1.853,3.534,2.951.079,3.432-2.262,3.865-3.423,3.718-2.585-.329-3.295-2.047-3.633-4.733S366.74,120.344,369.627,121.341Z" transform="translate(-366.041 -120.802)"/></g><path class="e" d="M365.5,120.451l-.037.6a.269.269,0,0,0,.139.258l.067.027a.767.767,0,0,1,.208.6,1.681,1.681,0,0,0,.005.175,6.545,6.545,0,0,0,.053,1.183c.3,2.4.907,4.152,2.89,4.806a5.219,5.219,0,0,0,.984.216c1.556.2,3.394-.591,3.607-3.2l.007.026c0-.037,0-.072,0-.107.008-.1.013-.207.015-.315.062-.618.312-.631.429-.6v.007l.032,0a.171.171,0,0,1,.029.013v-.007c.136.033.464.19.539.966,0,.043.006.086.01.129s.006.116.008.18l.01-.033a6.269,6.269,0,0,0,4.179,5.142,7.726,7.726,0,0,0,1.193.311c2.5.423,3.3-1.021,3.638-3.247a4.522,4.522,0,0,0,.043-1.089,1.105,1.105,0,0,0,.012-.238c-.015-.428.28-.482.28-.482l.1.011a.163.163,0,0,0,.2-.181c-.029-.25-.043-.375-.071-.626a.276.276,0,0,0-.24-.229,22.627,22.627,0,0,0-4-1.181l.023.012c-.272-.059-.559-.114-.867-.169l-.457-.078a9.6,9.6,0,0,0-2.953-.192c-.1.014-.218.033-.352.062a4.108,4.108,0,0,1-1.329.1,5.645,5.645,0,0,1-1.252-.748c-.116-.086-.221-.159-.309-.217a10.472,10.472,0,0,0-2.647-1.22c-.13-.045-.257-.087-.378-.127q-.417-.137-.768-.233l.029,0a9.494,9.494,0,0,0-2.957-.458l.011.018C365.551,120.312,365.508,120.367,365.5,120.451Zm9.436,4.313c-.018-.865.193-1.45,3.621-.889l.45.077c1.9.336,3.013.73,3.546,1.372a2.475,2.475,0,0,1,.373,2.057c-.32,2.092-.97,3.266-3.1,2.906a7.125,7.125,0,0,1-1.1-.288A5.694,5.694,0,0,1,374.938,124.764Zm-8.59-1.439a2.585,2.585,0,0,1,.219-1.93c.375-.438,1.188-.38,2.714.121.12.039.244.081.372.126,2.976,1.027,3.287,1.756,3.305,2.622.076,3.676-2.68,3.574-3.218,3.506a4.892,4.892,0,0,1-.9-.2C367.146,127.013,366.637,125.583,366.349,123.325Z" transform="translate(-365.465 -120.284)"/></g><path class="b" d="M390.012,118.6l.055-.049.067-.022,3.617-1.187a.269.269,0,0,1,.358.193.34.34,0,0,1-.227.386l-3.55,1.165.053-.048-.121.07.068-.022-7.243,6.659-.005,0a.364.364,0,0,1-.524-.012.391.391,0,0,1,.064-.537Z" transform="translate(-364.348 -102.166)"/><path class="ar" d="M391.067,126.717c-1.278,1.55-2.235-.39-2.586-1.5a8.508,8.508,0,0,1-.133-4.667c.3-1.171,1.443-3.949,3.031-3.557.629.156.922.867,1.078,1.5C393.153,121.289,392.9,124.49,391.067,126.717Z" transform="translate(-363.981 -102.191)"/></g></g><g transform="translate(292.82 216.882)"><path class="ay" d="M307.136,269.876a5.862,5.862,0,0,1-2.043-.973c-1.216-1.085-1.18-4.446-1.437-5.727-2.865-1.087-7.77,3.755-5.558,8.767.806,1.825,3.179,4.177,6.145,6.421A16.535,16.535,0,0,1,307.136,269.876Z" transform="translate(-278.376 -206.024)"/><path class="ay" d="M304.189,268.78s2.032-1.84,3.147-2.742c1.424-1.152.629-2.019-.714-1.7a36.8,36.8,0,0,0-4.395,1.709A9.267,9.267,0,0,0,304.189,268.78Z" transform="translate(-278.068 -205.942)"/><g transform="translate(13.508 107.185)"><path class="az" d="M321.7,318.252a9.535,9.535,0,0,0-2.585-6.171,7.274,7.274,0,0,0-8.263-1.169c-5.225,2.785-3.385,9.092-2.984,13.825,1.155,13.659,1.473,23.358,2.1,36.412a5.262,5.262,0,0,1-4.655,5.629,11.487,11.487,0,0,1-3.079-.515c-1.295.216-2.458.536-3.036,1.619-1.157,2.171,3.053,5.533,7.564,7.456,6.284,2.679,11.164,2.175,10.935-4.292-.1-2.691.019-6.24.247-10.135h0c.8-13.774,3.1-32.132,3.142-34.448C321.149,323.714,321.911,321.029,321.7,318.252Z" transform="translate(-291.787 -310.119)"/><path class="ba" d="M309.469,361.149a5.69,5.69,0,0,1-1.221,3.782c2.223,2.742,5.67,2.862,8.948,1.849.043-1.809.128-3.782.25-5.869h0c.8-13.774,3.1-32.132,3.142-34.448.055-2.748.817-5.434.608-8.21a9.535,9.535,0,0,0-2.585-6.171,7.274,7.274,0,0,0-8.263-1.169c-5.225,2.785-3.385,9.092-2.984,13.825C308.52,338.4,308.837,348.1,309.469,361.149Z" transform="translate(-291.281 -310.119)"/><path class="k" d="M318.845,368.858a1.839,1.839,0,0,0-.216-.393.627.627,0,0,0-.445-.279c-.3-.021-.536.226-.729.452-.941,1.1-1.741,2.479-3.2,2.907a7.888,7.888,0,0,1-4.2-.275,25.5,25.5,0,0,1-8.274-3.9c-1.491-1.07-1.7-3.784.413-4.228l.64-.135a2.3,2.3,0,0,1,.257,0c-.082-.36-.929-.349-1.329-.394q-3.154-.358-6.307-.72c-1.02-.117-2.234-.159-2.868.649a2.006,2.006,0,0,0-.271,1.742,5.034,5.034,0,0,0,.86,1.6,29.436,29.436,0,0,0,7.134,6.641c1.651,1.135,3.888,1.781,5.719,2.6l5.946,2.647a7.115,7.115,0,0,0,3.9.9C320.075,377.993,320.1,371.847,318.845,368.858Z" transform="translate(-292.232 -306.727)"/></g><g transform="translate(0 116.213)"><path class="ay" d="M305.276,366.255h-7.989l.011.239a5.26,5.26,0,0,1-4.654,5.628,11.448,11.448,0,0,1-3.079-.515c-1.295.216-2.458.536-3.036,1.619-1.157,2.171,3.053,5.533,7.564,7.456,6.283,2.679,11.164,2.175,10.935-4.292C304.933,373.7,305.048,370.15,305.276,366.255Z" transform="translate(-279.111 -315.464)"/><path class="bb" d="M296.792,369.621a4.463,4.463,0,0,1-.083.911,9.731,9.731,0,0,0,5.259,1.588,4.91,4.91,0,0,0,2.693-.8c.687-13.921,3.2-33.956,3.251-36.38.055-2.749.817-5.435.608-8.212a9.535,9.535,0,0,0-2.585-6.171,7.276,7.276,0,0,0-8.263-1.169c-5.225,2.786-3.385,9.092-2.985,13.825C295.844,346.869,296.161,356.567,296.792,369.621Z" transform="translate(-278.605 -318.592)"/><path class="k" d="M306.169,377.329a1.857,1.857,0,0,0-.216-.392.627.627,0,0,0-.445-.279c-.3-.021-.536.225-.729.452-.941,1.1-1.741,2.479-3.2,2.907a7.9,7.9,0,0,1-4.2-.275,25.5,25.5,0,0,1-8.274-3.9c-1.491-1.07-1.7-3.784.413-4.228l.64-.135a2.285,2.285,0,0,1,.256,0c-.081-.361-.928-.349-1.328-.394q-3.155-.358-6.307-.72c-1.021-.117-2.234-.159-2.868.649a2.006,2.006,0,0,0-.271,1.742,5.033,5.033,0,0,0,.86,1.6,29.436,29.436,0,0,0,7.134,6.641c1.651,1.135,3.888,1.781,5.719,2.6l5.946,2.647a7.115,7.115,0,0,0,3.9.9C307.4,386.465,307.425,380.319,306.169,377.329Z" transform="translate(-279.556 -315.2)"/></g><g transform="translate(57.444 116.17)"><path class="l" d="M341.017,332.5c1.3-9.986,2.422-18.61,15.412-11.11l6.382,3.684,9.858,5.693,6.382,3.684c12.99,7.5,14.112,17.419,15.412,28.907,1.18,10.429,3.86,40.653,3.886,40.958l-2.617-1.625c-.027-.3-2.65-29.894-3.822-40.259-1.4-12.362-2.53-18.568-12.859-24.532l-6.382-3.684-9.858-5.691-6.382-3.685c-10.329-5.963-11.46-1.062-12.859,9.684-1.172,9.011-3.781,35.554-3.807,35.826l-2.632-1.378C337.158,368.7,339.838,341.567,341.017,332.5Z" transform="translate(-333.222 -318.551)"/><path class="l" d="M339.842,369.975l-3.909,2.281s.573-18.535,1.277-25.479,3.944-22.525,3.944-22.525l1.548,1.222Z" transform="translate(-333.301 -318.177)"/><path class="l" d="M391.481,404.836l3.909-2.281s-4.51-34.33-5.281-39.576-3.548-17.588-3.548-17.588l-4.32,1.081s3.24,7.888,3.7,13.2S391.481,404.836,391.481,404.836Z" transform="translate(-330.263 -316.79)"/><path class="m" d="M337.349,334.642c1.3-9.987,2.422-18.61,15.412-11.11l6.383,3.684L369,332.907l6.382,3.685c12.99,7.5,14.112,17.418,15.412,28.906,1.18,10.429,3.86,40.653,3.886,40.959l-2.616-1.625c-.028-.3-2.65-29.895-3.823-40.259-1.4-12.362-2.53-18.569-12.859-24.532L369,336.355l-9.857-5.69-6.383-3.685c-10.329-5.963-11.46-1.063-12.859,9.684-1.172,9.01-3.781,35.554-3.807,35.826l-2.632-1.379C333.49,370.837,336.17,343.708,337.349,334.642Z" transform="translate(-333.463 -318.41)"/></g><g transform="translate(65.905 84.048)"><path class="bc" d="M341.4,319.887,379.521,341.9c13.772,7.951,18.752,7.194,23.173-3.514,4.081-9.892,16.244-41.887,18.2-47.216l-4.773-2.758c-.132.35-13.279,35.571-17.335,45.4-3.7,8.971-7.123,9.4-19.265,2.386L341.4,314.187Z" transform="translate(-341.403 -288.407)"/></g><g transform="translate(18.667 138.38)"><path class="l" d="M304.627,353.343c1.3-9.985,2.422-18.609,15.412-11.109l6.382,3.685,9.858,5.69,6.382,3.685c12.99,7.5,14.112,17.419,15.412,28.907,1.18,10.429,3.86,40.653,3.886,40.958l-2.617-1.624c-.027-.3-2.65-29.895-3.822-40.26-1.4-12.362-2.53-18.568-12.859-24.531l-6.382-3.685-9.858-5.691-6.382-3.685c-10.329-5.963-11.46-1.062-12.859,9.684-1.172,9.011-3.781,35.554-3.807,35.827l-2.632-1.379C300.768,389.541,303.448,362.41,304.627,353.343Z" transform="translate(-296.832 -339.394)"/><path class="l" d="M303.452,390.819l-3.909,2.28s.573-18.535,1.277-25.478,3.944-22.526,3.944-22.526l1.547,1.222Z" transform="translate(-296.911 -339.02)"/><path class="l" d="M355.091,425.679,359,423.4s-4.511-34.33-5.281-39.575-3.549-17.588-3.549-17.588l-4.32,1.079s3.239,7.888,3.7,13.2S355.091,425.679,355.091,425.679Z" transform="translate(-293.873 -337.633)"/><path class="m" d="M300.959,355.485c1.3-9.986,2.422-18.61,15.412-11.11l6.382,3.685,9.858,5.69,6.382,3.685c12.99,7.5,14.112,17.42,15.412,28.907,1.18,10.428,3.86,40.653,3.886,40.958l-2.616-1.625c-.028-.3-2.651-29.895-3.823-40.259-1.4-12.362-2.53-18.569-12.859-24.532l-6.382-3.684-9.858-5.691-6.382-3.685c-10.329-5.963-11.46-1.062-12.859,9.684-1.172,9.011-3.781,35.554-3.807,35.826l-2.632-1.378C297.1,391.68,299.78,364.551,300.959,355.485Z" transform="translate(-297.073 -339.253)"/></g><path class="p" d="M295.11,340.943,344.44,312.6l24.839,14.336s-13.51,40.446-18.933,41.9C336,372.7,295.11,340.943,295.11,340.943Z" transform="translate(-278.535 -202.771)"/><path class="ay" d="M346.432,220.921c-1.588,1.1-7.446,2.471-9.165,15.512-1.154,8.76,1.755,12.674,4.248,14.957,1.035.948,5.1,1.116,5.1,1.116l-.178,9.765c0,.2,1.52.936,1.679,1.029,1.348.792,2.726,1.536,4.133,2.215,3.433,1.66,7.3,3.149,11.178,2.784a4.207,4.207,0,0,0,2.838-1.328,4.311,4.311,0,0,0,.777-3.477,14.594,14.594,0,0,0-1.219-3.459,68.33,68.33,0,0,1-3.259-9.111,6.733,6.733,0,0,1-.369-2.935c.152-1.144.164-2.322.27-3.474.215-2.339.492-4.673.713-7.012.326-3.449.99-7.784-.554-11.047C359.026,218.864,350.741,217.93,346.432,220.921Z" transform="translate(-275.786 -208.89)"/><path class="i" d="M350.995,263.069c5.234.487,12.847.425,15.421-4.824l-.42-2.306-3.287-5.876c.167,2.508-3.2,4.185-3.2,4.185-5.819,2.942-15.1-.458-15.1-.458l-2.224,6.081,2.765,2.339A34.241,34.241,0,0,0,350.995,263.069Z" transform="translate(-275.447 -206.874)"/><path class="ba" d="M364.711,329.919a15.552,15.552,0,0,1,.321,1.624c.417,2.947-.223,6.361-2.689,8.027-2.325,1.572-5.458,1.085-8.111.169-5.051-1.74-9.684-3.681-14.622-5.714-6.144-2.53-12.511-4.464-18.691-6.9-4.563-1.8-12.335-3.686-13.659-9.284-1.006-4.255,3.035-7.337,6.857-7.731,6.54-.676,12.967,1.427,19.114,3.383,4.343,1.381,8.767,2.578,13.125,3.878,4.261,1.27,8.213.627,12.111,3.393A16.185,16.185,0,0,1,364.711,329.919Z" transform="translate(-277.748 -202.943)"/><path class="bb" d="M315.291,310.023a3.826,3.826,0,0,0-.086,1.142q-1.536,1.658-.151,2.8c1,1.868,3.674,3.122,5.475,4.106a52.025,52.025,0,0,0,12.918,5.045,70.938,70.938,0,0,0,14.166,1.674c2,.066,4.615.286,6.481-.531a5.122,5.122,0,0,0,2.464-4.357c-3.437-1.767-6.939-1.41-10.681-2.525-4.358-1.3-8.782-2.5-13.125-3.879C327.125,311.7,321.261,309.815,315.291,310.023Z" transform="translate(-277.27 -202.941)"/><path class="bb" d="M375.638,335.134c-1.826,10.13-12.457,16.674-22.21,16.67-10.057,0-19.213-5.391-27.973-9.692-5.964-2.928-12.191-5.277-18.2-8.114-4.435-2.095-12.066-4.489-13.019-10.162-.724-4.312,3.511-7.121,7.351-7.264,6.569-.244,12.846,2.277,18.851,4.633,5.749,2.255,11.663,4.052,17.556,5.886,3.821,1.189,12.794,3.213,13.034-3.469a47.594,47.594,0,0,1,12.323-5.956c2.642-.833,5.54-1.428,8.144-.482,3.36,1.219,3.326,4.384,3.761,7.35C375.8,328.218,376.275,331.595,375.638,335.134Z" transform="translate(-278.598 -202.512)"/><path class="b" d="M306.4,317.461c-6.71-2.926-2.451,5.434-1.181,6.654a20.128,20.128,0,0,0,3.8,2.747,52.768,52.768,0,0,0,9.879,4.3c4.537,1.532,9.2,3.065,14.04,2.547,2.822-.3,6.693-1.172,8.088-3.964a4.358,4.358,0,0,0,.473-1.7,30.818,30.818,0,0,1-4.061-.971c-5.893-1.834-11.807-3.632-17.556-5.886a74.313,74.313,0,0,0-12.374-4.043A.9.9,0,0,1,306.4,317.461Z" transform="translate(-278.036 -202.493)"/><path class="ao" d="M334.36,319.283c-1.029,2.651-2.028,5.053-2.973,7.375,7.418,8.926,20.263,9.223,30.44,5.778a20.138,20.138,0,0,0,10.385-7.33c2.456-3.62-1-10.72-1.415-14.881a74.094,74.094,0,0,1,.427-17.433c1.515-11.051,9.182-31.624-4.6-37.484-.913,2.62-3.5,3.554-5.415,4.024-5.183,1.269-11.584-.87-13.682-1.663a2.25,2.25,0,0,0-1.513-.046c-2.015.627-7.207,2.553-8.855,6.161-2.063,4.514-8.4,17.936-5.162,24.854C338.623,302.777,335.282,316.91,334.36,319.283Z" transform="translate(-276.174 -206.53)"/><path class="ap" d="M367.367,272.8c.136,9.363-3.261,20.594.97,28.606a80.594,80.594,0,0,1,.723-8.613c1.515-11.051,9.182-31.624-4.6-37.484a5.134,5.134,0,0,1-.353.768C367.149,260.407,367.314,269.217,367.367,272.8Z" transform="translate(-274.008 -206.53)"/><path class="au" d="M356.171,321.042c-5.359,1.991-10.645,1.064-13.965-3.852a22.334,22.334,0,0,1-3.382-10.181c-.487-4.347-.3-11.057-4.321-13.836,3.034,11.5.606,21.649-.161,23.626-1.029,2.651-2.028,5.053-2.973,7.375,7.418,8.925,20.263,9.223,30.441,5.777a20.131,20.131,0,0,0,10.384-7.329c1.9-2.8.262-7.694-.769-11.691C366.838,315.261,361.81,318.947,356.171,321.042Z" transform="translate(-276.156 -204.046)"/><path class="bc" d="M396.9,346,346.946,374.8s10.84-27.683,14.42-36.418,8.516-21.784,8.516-21.784l48.081-25.8Z" transform="translate(-275.134 -204.202)"/><g transform="translate(16.575 112.391)"><path class="o" d="M295.11,346.486l38.119,22.007c13.771,7.952,18.752,7.194,23.172-3.514,4.081-9.891,16.245-41.886,18.2-47.216l-4.773-2.758c-.131.351-13.279,35.571-17.334,45.4-3.7,8.971-7.124,9.4-19.265,2.386L295.11,340.785Z" transform="translate(-295.11 -315.005)"/></g><path class="bd" d="M414.558,288.407l4.773,2.758L370,319.508l-4.773-2.758Z" transform="translate(-273.935 -204.359)"/><path class="ao" d="M348,258.276c-7.878-1.585-19.533,16.336-27.4,24.51-5.23-5.512-10.528-8.765-11.249-9.99a7.48,7.48,0,0,0-6.675,5.248c2.474,6.2,10.9,15.892,14.386,17.756,7.4,3.961,26.029-17.066,29.932-23.209C350.938,266.387,350.953,259.618,348,258.276Z" transform="translate(-278.039 -206.342)"/><path class="ap" d="M311.445,281c2.2,2.153,4.975,5.722,8.4,5.455a6.823,6.823,0,0,0,3.863-1.958,161.625,161.625,0,0,0,12.818-12.528c2.259-2.527,4.461-5.116,6.918-7.455a37.451,37.451,0,0,1,3.879-3.267c1.331-.959,2.865-1.9.505-2.973-7.878-1.585-19.533,16.336-27.4,24.51-5.23-5.512-10.528-8.765-11.249-9.99a7.745,7.745,0,0,0-3.852,1.383C304.927,274.459,308.542,278.156,311.445,281Z" transform="translate(-277.867 -206.342)"/><path class="f" d="M356.443,216.965c11.041,2.675,18.541,16.184,12.1,27.076-3.406,5.76-9.14,8.286-15.643,6.71a31.549,31.549,0,0,1-6.668-2.745,5.486,5.486,0,0,0,3.093-5.878c-.375-1.955-2.813-4.364-4.752-2.521-.514.488-1.612,5.261-2.719,2.589a4.288,4.288,0,0,1-.217-1.124c-.493-3.864-4.407-4.983-4.776-8.919C336,222.956,342.563,213.6,356.443,216.965Z" transform="translate(-275.801 -209.092)"/><circle class="f" cx="12.997" cy="12.997" r="12.997" transform="translate(72.79 11.06) rotate(-25.181)"/><path class="j" d="M359.323,217.369a10.382,10.382,0,0,1,9.748,3.554c2.283,2.791,2.915,6.54,3.467,10.1" transform="translate(-274.322 -209.03)"/><path class="j" d="M369.431,217.91c1.327-.3,2.542.825,3.279,1.968a12.709,12.709,0,0,1,1.857,8.733" transform="translate(-273.659 -208.987)"/><path class="j" d="M338.621,226.25a18.172,18.172,0,0,0,14.937,8.8" transform="translate(-275.68 -208.437)"/><path class="j" d="M340.732,223.919c2.751,3.471,7.02,5.307,11.109,7.01" transform="translate(-275.542 -208.59)"/><path class="j" d="M344.542,223.321l3.36,1.872" transform="translate(-275.292 -208.629)"/><path class="i" d="M309.489,272.1l.664-.183-3.244-3.089s-6.563,1.236-6.332,7.877l2.548,2.548S302.879,273.593,309.489,272.1Z" transform="translate(-278.177 -205.643)"/></g><g transform="translate(327.121 220.971)"><rect class="b" width="11.134" height="19.425" transform="translate(0 7.817) rotate(-44.597)"/><rect class="e" width="11.246" height="14.687" transform="matrix(0.712, -0.702, 0.702, 0.712, 1.623, 9.543)"/><path class="be" d="M318.623,217.372l-5.355,5.28,5.355,5.431Z" transform="translate(-311.645 -213.109)"/><path class="be" d="M322.263,216.36l-1.422-1.443-.945.932v14.126l2.368,2.4Z" transform="translate(-311.21 -213.27)"/></g></g></svg>