<svg xmlns="http://www.w3.org/2000/svg" xmlns:xlink="http://www.w3.org/1999/xlink" width="1265.521" height="362.785" viewBox="0 0 1265.521 362.785"><defs><style>.a{fill:#c01e29;}.b{fill:none;stroke:#070707;stroke-linecap:round;stroke-linejoin:round;}.c{fill:#fff;}.d{fill:#e6e8ea;}.e{fill:#5f92e0;}.f{fill:#91b4ea;}.g{fill:#97bbf4;}.h{fill:#c7c7c7;}.ad,.ai,.h,.x{mix-blend-mode:multiply;}.ad,.ai,.h,.p,.q,.x{isolation:isolate;}.i{fill:url(#e);}.j{fill:url(#f);}.k{fill:#383838;}.l{fill:#7c78f0;}.m{fill:#484a90;}.n{fill:#6461ae;}.o{fill:#807a93;}.p,.q{mix-blend-mode:lighten;}.q{fill:#46516e;}.r{fill:#c7cdeb;}.s{fill:#9790a8;}.t{fill:#323142;}.u{fill:#3d3c47;}.v{fill:#ebeaf8;}.w{fill:url(#g);}.ar,.x{fill:#ffdfd1;}.y{fill:url(#i);}.z{fill:#ff7f00;}.aa{fill:#f1f3f3;}.ab{fill:#424c67;}.ac{fill:#454f6b;}.ad{fill:#deddf5;}.ae{fill:#ffa600;}.af{fill:#b2686b;}.ag{fill:url(#n);}.ah{fill:#4f5a7a;}.ai{fill:#ffddce;}.aj{fill:url(#s);}.ak{fill:url(#t);}.al{fill:url(#u);}.am{fill:url(#v);}.an{fill:url(#x);}.ao{fill:url(#z);}.ap{fill:url(#aa);}.aq{fill:url(#ab);}.as{fill:#e5bda0;}.at{fill:#e8ba9c;}.au{filter:url(#c);}.av{filter:url(#a);}</style><filter id="a" x="13" y="62.207" width="1054.49" height="241.724" filterUnits="userSpaceOnUse"><feOffset dx="2" dy="3" input="SourceAlpha"/><feGaussianBlur stdDeviation="2.5" result="b"/><feFlood flood-opacity="0.149"/><feComposite operator="in" in2="b"/><feComposite in="SourceGraphic"/></filter><filter id="c" x="932.24" y="29.796" width="307.778" height="307.778" filterUnits="userSpaceOnUse"><feOffset dx="2" dy="3" input="SourceAlpha"/><feGaussianBlur stdDeviation="2.5" result="d"/><feFlood flood-opacity="0.149"/><feComposite operator="in" in2="d"/><feComposite in="SourceGraphic"/></filter><linearGradient id="e" y1="0.5" x2="1" y2="0.5" gradientUnits="objectBoundingBox"><stop offset="0" stop-color="#a8a4b5"/><stop offset="0.004" stop-color="#aca8b9"/><stop offset="0.026" stop-color="#c1bbcb"/><stop offset="0.051" stop-color="#cfc8d8"/><stop offset="0.08" stop-color="#d8d0df"/><stop offset="0.128" stop-color="#dbd3e2"/></linearGradient><linearGradient id="f" x1="1.034" y1="0.814" x2="-0.034" y2="0.186" xlink:href="#e"/><linearGradient id="g" y1="0.5" x2="1" y2="0.5" gradientUnits="objectBoundingBox"><stop offset="0" stop-color="#ffdba7"/><stop offset="1" stop-color="#ffc5a4"/></linearGradient><linearGradient id="i" y1="0.5" x2="1" y2="0.5" gradientUnits="objectBoundingBox"><stop offset="0" stop-color="#ffdfb0"/><stop offset="1" stop-color="#ffcbad"/></linearGradient><linearGradient id="n" x1="0" y1="0.5" x2="1" y2="0.5" xlink:href="#i"/><linearGradient id="s" x1="325.726" y1="7.399" x2="326.714" y2="7.399" xlink:href="#i"/><linearGradient id="t" x1="397.947" y1="5.013" x2="398.926" y2="5.013" xlink:href="#i"/><linearGradient id="u" x1="177.971" y1="2.569" x2="178.939" y2="2.569" xlink:href="#i"/><linearGradient id="v" x1="163.191" y1="2.301" x2="164.164" y2="2.301" xlink:href="#g"/><linearGradient id="x" x1="671.355" y1="7.563" x2="672.323" y2="7.563" xlink:href="#i"/><linearGradient id="z" x1="354.19" y1="3.048" x2="355.233" y2="3.048" xlink:href="#i"/><linearGradient id="aa" x1="244.739" y1="2.032" x2="245.683" y2="2.032" xlink:href="#i"/><linearGradient id="ab" x1="296.822" y1="8.223" x2="297.812" y2="8.223" xlink:href="#i"/></defs><g transform="translate(0.5 0.707)"><g transform="translate(0 28.239)"><path class="a" d="M224.123,455.748h-.273a12.261,12.261,0,0,1-8.727-3.615l-140.1-140.1a12.342,12.342,0,0,1,0-17.454l140.1-140.1a12.261,12.261,0,0,1,8.727-3.615h1.227L529.971,455.748Z" transform="translate(-71.403 -150.854)"/><path class="b" d="M223.85,150.854a12.261,12.261,0,0,0-8.727,3.615l-140.1,140.1a12.342,12.342,0,0,0,0,17.454l140.1,140.1a12.261,12.261,0,0,0,8.727,3.615h798.756a12.261,12.261,0,0,0,8.727-3.615l140.1-140.1a12.342,12.342,0,0,0,0-17.454l-140.1-140.1a12.261,12.261,0,0,0-8.727-3.615H223.85Z" transform="translate(-71.403 -150.854)"/><g transform="translate(18 37.761)"><g class="av" transform="matrix(1, 0, 0, 1, -18.5, -66.71)"><path class="c" d="M268.653,364.045,82.762,196.279c-12.738-11.49-4.528-32.486,12.7-32.486l896.744-2.09a29.658,29.658,0,0,1,21.009,8.633L1116.054,272.9,1013.178,377.516a29.631,29.631,0,0,1-21.037,8.832L332.22,388.427A94.9,94.9,0,0,1,268.653,364.045Z" transform="translate(-58.06 -95)"/></g></g><path class="a" d="M143.816,299.761l75.592-75.592a37.817,37.817,0,0,1,53.482,0l75.592,75.592Z" transform="translate(110.086 5.133)"/><line class="b" x2="261.829" transform="translate(237.017 304.895)"/></g><g transform="translate(902.943)"><rect class="a" width="255.528" height="255.528" rx="8.184" transform="translate(180.685 361.37) rotate(-135)"/><rect class="b" width="255.528" height="255.528" rx="8.184" transform="translate(180.685 361.37) rotate(-135)"/><g class="au" transform="matrix(1, 0, 0, 1, -903.44, -0.71)"><rect class="c" width="207.026" height="207.026" rx="5.445" transform="translate(1084.13 327.07) rotate(-135)"/></g></g><g transform="translate(998.686 79.813)"><g transform="translate(0 82.489)"><path class="d" d="M563.338,235.269l-.422,0c-1.805-10.11-9.435-19.957-22.887-27.723-30.943-17.865-80.954-17.955-111.7-.2-13.242,7.645-20.747,17.354-22.535,27.357l-.424,0v4.722c.008,11.713,7.782,23.45,23.31,32.415,30.943,17.864,80.955,17.955,111.7.2,15.313-8.841,22.959-20.44,22.958-32.064Z" transform="translate(-405.118 -187.409)"/><path class="e" d="M563.338,229.846h-.057c-.7-11.164-8.448-22.232-23.253-30.78-30.943-17.864-80.954-17.955-111.7-.2-14.507,8.376-22.132,19.227-22.893,30.23h-.067v1.853c.01,11.711,7.785,23.446,23.31,32.409,30.943,17.865,80.955,17.955,111.7.2,15.156-8.75,22.8-20.2,22.952-31.705l.008,0Z" transform="translate(-405.118 -183.592)"/><ellipse class="f" cx="45.602" cy="78.988" rx="45.602" ry="78.988" transform="translate(0 91.202) rotate(-89.689)"/><ellipse class="g" cx="44.742" cy="77.498" rx="44.742" ry="77.498" transform="translate(1.494 89.491) rotate(-89.689)"/></g><g transform="translate(33.229)"><path class="h" d="M545.634,283.346a15.854,15.854,0,0,0-8.586-1.771,7.7,7.7,0,0,0-2-1.61,16.547,16.547,0,0,0-14.971-.027c-4.121,2.379-4.1,6.249.047,8.643a15.857,15.857,0,0,0,8.586,1.771,7.713,7.713,0,0,0,2,1.609,16.543,16.543,0,0,0,14.97.027C549.8,289.61,549.781,285.74,545.634,283.346Z" transform="translate(-488.606 -142.771)"/><path class="h" d="M477.3,272.173,521.068,246.9c1.592-.919,1.393-2.525-.446-3.586l-4.21-2.431a6.9,6.9,0,0,0-6.211-.257L466.43,265.9c-1.592.919-1.393,2.525.446,3.586l4.21,2.431A6.9,6.9,0,0,0,477.3,272.173Z" transform="translate(-465.355 -125.594)"/><g transform="translate(3.158)"><path class="i" d="M523,36.07c-.406-2.538-4.824-5.1-7.7-3.831l0,0a7.422,7.422,0,0,0-1.2.563L477.486,53.949c-3.18,1.836-5.758,5.9-5.758,9.083V170.3a4.377,4.377,0,0,0,.237,1.478l-.007,0c.577,2.23,4.272,4,6.17,3.708l.282-3.165,35.805-20.672c3.18-1.836,5.758-5.9,5.758-9.082V37.77Z" transform="translate(-471.382 -31.904)"/><path class="j" d="M477.631,66.449V173.718c0,3.18,2.578,4.27,5.758,2.434l36.621-21.143c3.18-1.836,5.758-5.9,5.758-9.083V38.657c0-3.18-2.578-4.27-5.758-2.433L483.389,57.366C480.209,59.2,477.631,63.269,477.631,66.449Z" transform="translate(-474.04 -33.447)"/><path class="k" d="M478.322,68.046V174.275c0,3.149,2.553,4.228,5.7,2.41l36.208-20.9c3.149-1.818,5.7-5.845,5.7-8.995V40.557c0-3.149-2.553-4.228-5.7-2.41l-36.208,20.9C480.875,60.87,478.322,64.9,478.322,68.046Z" transform="translate(-474.351 -34.317)"/><path class="l" d="M480.206,68.443v106.01c0,2.962,2.4,3.976,5.363,2.266l35.683-20.6c2.962-1.71,5.363-5.5,5.363-8.459V41.649c0-2.962-2.4-3.976-5.363-2.266l-35.683,20.6C482.607,61.694,480.206,65.481,480.206,68.443Z" transform="translate(-475.199 -34.897)"/><path class="l" d="M521.151,40.2,489.26,58.61l-3.838,2.216c-2.775,1.6-5.026,5.152-5.026,7.926v106c0,2.776,2.249,3.727,5.026,2.124l29.739-17.17,5.988-3.458c2.777-1.6,5.026-5.15,5.026-7.926v-106C526.176,39.545,523.926,38.595,521.151,40.2Z" transform="translate(-475.284 -35.287)"/><path class="l" d="M526.583,43.949V149.594c0,2.414-1.956,5.5-4.37,6.892l-35.726,20.628c-2.413,1.394-4.369.566-4.369-1.848V69.623c0-2.413,1.956-5.5,4.369-6.894L522.213,42.1C524.627,40.71,526.583,41.536,526.583,43.949Z" transform="translate(-476.06 -36.191)"/><path class="k" d="M521.089,61.124l.65-.375a2.673,2.673,0,0,0,1.253-1.736l.366-2.585a2.762,2.762,0,0,1,1.006-2.058l.825-.477-2.079,1.092-4.221,2.4-.984.718.567-.3c.307-.165.9.277.954.621l.41,2.419C519.926,61.365,520.46,61.488,521.089,61.124Z" transform="translate(-492.172 -41.804)"/><path class="m" d="M522.556,62.463c0,.608.429.853.959.546a2.114,2.114,0,0,0,.959-1.654c0-.608-.43-.853-.959-.547A2.113,2.113,0,0,0,522.556,62.463Z" transform="translate(-494.265 -44.858)"/><path class="n" d="M523.135,62.591c0,.311.219.435.489.279a1.079,1.079,0,0,0,.49-.844c0-.311-.219-.435-.49-.279A1.079,1.079,0,0,0,523.135,62.591Z" transform="translate(-494.526 -45.309)"/><g transform="translate(0 133.105)"><path class="o" d="M474.962,276.776a4.809,4.809,0,0,1-3.283-1.587A1.832,1.832,0,0,1,471.1,274l.379.042c-.017.154.1.468.479.887a4.377,4.377,0,0,0,3.032,1.461l0,.382Z" transform="translate(-471.099 -274.004)"/></g><g transform="translate(0 35.131)"><path class="o" d="M474.962,98.575a4.811,4.811,0,0,1-3.283-1.587A1.832,1.832,0,0,1,471.1,95.8l.379.042c-.017.154.1.468.479.887a4.407,4.407,0,0,0,3,1.461h.031l0,.382Z" transform="translate(-471.099 -95.803)"/></g><g transform="translate(6.058 23.906)"><g class="p"><path class="q" d="M515.5,209.059l-33.386-26.223V149.6l44.466,32.62v16.077c0,2.413-1.957,5.5-4.37,6.892Z" transform="translate(-482.117 -108.796)"/><path class="q" d="M491.047,75.386l35.536,27.465v23.434l-44.466-32.62V84.911c0-2.413,1.956-5.5,4.369-6.892Z" transform="translate(-482.117 -75.386)"/></g></g><g transform="translate(43.718 7.199)"><path class="c" d="M554.778,46.188l-.249.143v.3a.968.968,0,0,1-.455.744l-3,1.734c-.25.144-.455.046-.455-.219V47.543a.969.969,0,0,1,.455-.744l3-1.733c.25-.145.455-.046.455.219v.3l.249-.143c.1-.059.186-.019.186.09v.356A.4.4,0,0,1,554.778,46.188Z" transform="translate(-550.617 -44.999)"/></g><g transform="translate(9.468 26.488)"><path class="c" d="M493.434,82.867l-.047.027c-.181.1-.329.042-.329-.139V80.908a.686.686,0,0,1,.329-.519l.047-.027c.181-.1.329-.042.329.139v1.847A.685.685,0,0,1,493.434,82.867Z" transform="translate(-490.452 -80.185)"/><path class="c" d="M495.344,82.157l-.047.027c-.181.1-.329.042-.329-.139V80.679a.685.685,0,0,1,.329-.519l.047-.027c.181-.1.329-.042.329.139v1.367A.685.685,0,0,1,495.344,82.157Z" transform="translate(-491.312 -80.082)"/><path class="c" d="M497.2,81.574l-.047.027c-.181.1-.329.042-.329-.139v-.773a.685.685,0,0,1,.329-.519l.047-.027c.181-.1.329-.042.329.139v.773A.685.685,0,0,1,497.2,81.574Z" transform="translate(-492.147 -80.087)"/><g transform="translate(0 1.047)"><path class="c" d="M489.763,83.413l.411-.238V85.3l-.411.238Z" transform="translate(-488.969 -82.521)"/><g transform="translate(0 0.48)"><path class="c" d="M488.319,84.689V83.534l1.169-.675v1.5Zm.339-.96v.515l.492-.138v-.661Z" transform="translate(-488.319 -82.859)"/></g><g transform="translate(0.83)"><path class="c" d="M489.829,84.214V82.661L491,81.986v1.205Zm.339-1.357v.612l.491-.43v-.465Z" transform="translate(-489.829 -81.986)"/></g></g></g></g><g transform="translate(13.427 18.984)"><path class="r" d="M489.777,121.228V87.609l36.679-21.177v33.619Z" transform="translate(-489.777 -66.432)"/></g><g transform="translate(13.427 57.996)"><path class="r" d="M489.777,188.089v-29.52l36.679-21.177v29.52Z" transform="translate(-489.777 -137.391)"/></g><g transform="translate(13.427 93.938)"><path class="r" d="M489.777,247.074V223.942l36.679-21.177V225.9Z" transform="translate(-489.777 -202.765)"/></g><g transform="translate(16.74 77.382)"><path class="s" d="M503.25,190.987l-7.446,4.3v-1.247l7.446-4.3Z" transform="translate(-495.804 -180.344)"/><path class="s" d="M516.545,185.239l-3.369,1.945v-1.247l3.369-1.945Z" transform="translate(-503.625 -177.757)"/><path class="s" d="M522.393,180.735l3.114-1.8v1.247l-3.114,1.8Z" transform="translate(-507.774 -175.481)"/><path class="s" d="M516.935,189.646l5.628-3.249v1.247l-5.628,3.249Z" transform="translate(-505.317 -178.84)"/><path class="s" d="M498.227,203.21l-2.423,1.4v-1.247l2.423-1.4Z" transform="translate(-495.804 -185.848)"/><path class="s" d="M509.117,195.523l-5.384,3.109v-1.247l5.384-3.109Z" transform="translate(-499.373 -182.386)"/><path class="s" d="M506.289,173.9,495.8,179.952v-1.247l10.486-6.054Z" transform="translate(-495.804 -172.651)"/><path class="s" d="M501.329,186.055l-5.526,3.19V188l5.526-3.19Z" transform="translate(-495.804 -178.124)"/><path class="s" d="M512.758,180.6l-3.114,1.8v-1.247l3.114-1.8Z" transform="translate(-502.035 -175.667)"/></g><g transform="translate(16.74 112.43)"><path class="s" d="M503.25,254.736l-7.446,4.3v-1.247l7.446-4.3Z" transform="translate(-495.804 -244.093)"/><path class="s" d="M516.545,248.988l-3.369,1.945v-1.247l3.369-1.945Z" transform="translate(-503.625 -241.506)"/><path class="s" d="M522.393,244.484l3.114-1.8v1.247l-3.114,1.8Z" transform="translate(-507.774 -239.23)"/><path class="s" d="M516.935,253.4l5.628-3.249v1.247l-5.628,3.249Z" transform="translate(-505.317 -242.589)"/><path class="s" d="M498.227,266.959l-2.423,1.4v-1.247l2.423-1.4Z" transform="translate(-495.804 -249.596)"/><path class="s" d="M509.117,259.271l-5.384,3.109v-1.247l5.384-3.109Z" transform="translate(-499.373 -246.135)"/><path class="s" d="M506.289,237.648,495.8,243.7v-1.247l10.486-6.054Z" transform="translate(-495.804 -236.4)"/><path class="s" d="M501.329,249.8l-5.526,3.19v-1.247l5.526-3.19Z" transform="translate(-495.804 -241.873)"/><path class="s" d="M512.758,244.346l-3.114,1.8V244.9l3.114-1.8Z" transform="translate(-502.035 -239.416)"/></g><g transform="translate(22.055 29.925)"><path class="t" d="M528.04,281.072c-.928-.345-1.158-.379-1.428-.006a2.375,2.375,0,0,0-.5,1.839,2.658,2.658,0,0,0,.606,1.994,5.186,5.186,0,0,0,2.091,1.809,6.649,6.649,0,0,1,1.646,1.014s2.156,2.169,3.938,2.163,2.117-.775,2.294-1.066a1.715,1.715,0,0,0,.048-1.154,10.707,10.707,0,0,0-1.326-1.516C535.217,285.9,528.04,281.072,528.04,281.072Z" transform="translate(-514.763 -173.884)"/><path class="t" d="M549.3,284.843c-.648-.018-.791-.037-.972.313a2.193,2.193,0,0,0-.4,1.023,5.207,5.207,0,0,0,.365,2.091,12.541,12.541,0,0,0,1.483,1.72,18.864,18.864,0,0,1,1.2,2.911,3.064,3.064,0,0,0,1.884,2.2c1.1.372,2.71.021,2.894-.685a3.562,3.562,0,0,0,.185-1.638c-.113-.282-.515-1.674-.66-1.856S549.3,284.843,549.3,284.843Z" transform="translate(-524.582 -175.701)"/><g transform="translate(0.967)"><path class="k" d="M507.229,113.937V97l18.477-10.668v16.935Z" transform="translate(-507.229 -86.334)"/><path class="k" d="M507.888,97.382l-.659-.38,18.477-10.668.659.38Z" transform="translate(-507.229 -86.334)"/><g transform="translate(0 10.668)"><path class="k" d="M507.229,122.672V105.737l.659.38v16.935Z" transform="translate(-507.229 -105.737)"/></g><g transform="translate(0.659 0.38)"><path class="u" d="M508.427,114.629V97.694L526.9,87.026v16.935Z" transform="translate(-508.427 -87.026)"/></g><g transform="translate(4.485 10.19)"><path class="v" d="M517.833,116.5l-.459.8-1.987-1.134,1.987-3.428.459.274-1.518,2.618Z" transform="translate(-515.387 -108.412)"/><path class="v" d="M524.935,104.875l.6-.007-2.973,8.586-.6.007Z" transform="translate(-518.347 -104.868)"/><path class="v" d="M532.013,107.292l-1.522-.863.462-.805,1.988,1.133-1.988,3.43-.462-.268Z" transform="translate(-522.187 -105.208)"/></g></g><path class="w" d="M550.23,137.342a2.233,2.233,0,0,1-.581,1.674s-3.389-1.491-3.776-2.143a43.609,43.609,0,0,1-1-6.438c-.173-1.537-.306-2.938-.347-3.649-.115-2-2.389-11.5-2.389-11.5a.8.8,0,0,0-.4-.489,2.324,2.324,0,0,1-.693-1.289,5.019,5.019,0,0,1,.021-1.4c.021-.142.049-.292.087-.45.22-.914.428-2.825.428-2.825l-.1-1.6-.04-.749a8.263,8.263,0,0,1,.68.713c.064.124.57,1.555.949,2.531s.681,3.094.765,3.27,3.66,8.467,3.907,9.571.764,3.877,1.073,5.153S550.232,136.412,550.23,137.342Z" transform="translate(-521.465 -95.405)"/><path class="w" d="M542.322,111.831a9.02,9.02,0,0,1-.916-1.237,8.613,8.613,0,0,0-.692-1.1s-.218-.677-.448-.641-.368.168-.381.485a2.232,2.232,0,0,0,.157,1.019c.136.233.638,1.159.638,1.159l.062.551a4.632,4.632,0,0,0-.1,1.207,1.912,1.912,0,0,0,.588,1.394.962.962,0,0,0,1.378-.854A2.978,2.978,0,0,0,542.322,111.831Z" transform="translate(-520.963 -96.474)"/><path class="x" d="M545.873,132.067a3.67,3.67,0,0,0-.979,2.682c-.008.1-.015.2-.023.295-.173-1.537-.306-2.938-.347-3.649-.115-2-2.389-11.5-2.389-11.5a.8.8,0,0,0-.4-.489,2.324,2.324,0,0,1-.693-1.289,5.019,5.019,0,0,1,.021-1.4c.054.187.054.477.082.616a4.648,4.648,0,0,0,.207.764,17.233,17.233,0,0,0,.975,1.654,7.255,7.255,0,0,1,.526,1.547,48.079,48.079,0,0,1,1.527,7.623,7.336,7.336,0,0,0,.3,1.82A2.075,2.075,0,0,0,545.873,132.067Z" transform="translate(-521.465 -100.013)"/><path class="y" d="M545.579,120.048a.545.545,0,0,0-.412-.268c-.183,0-.305.19-.369.361a3.978,3.978,0,0,0,.1,2.336l2.029,8.115a6.251,6.251,0,0,0,.57,1.626c.511.888,2.013,1.719,2.091.123a12.7,12.7,0,0,0-.94-4.725q-.736-2.118-1.593-4.191-.421-1.019-.871-2.025A6.822,6.822,0,0,0,545.579,120.048Z" transform="translate(-523.112 -101.392)"/><path class="y" d="M551.548,140.7a1.248,1.248,0,0,0-.678-.692.925.925,0,0,0-1.024.68,3.217,3.217,0,0,0-.019,1.346c.154,1.451.015,2.918.123,4.373a23.2,23.2,0,0,0,1.131,5.107,1.485,1.485,0,0,0,.253.543,1.348,1.348,0,0,0,.454.312,6.28,6.28,0,0,0,1.628.527,3.238,3.238,0,0,0,.218-1.488,30.724,30.724,0,0,0-.466-4.424c-.234-1.378-.431-2.822-.788-4.166A9.984,9.984,0,0,0,551.548,140.7Z" transform="translate(-525.412 -110.487)"/><path class="z" d="M552.282,161.678c-1.157-.938-1.874-1.558-3.188-.919s-2.184,3.211-2.245,4.3,3.99,7.8,4.462,6.074,1.493-3.621,1.729-5.52.073-2.849-.119-3.16A6.358,6.358,0,0,0,552.282,161.678Z" transform="translate(-524.099 -119.723)"/><path class="aa" d="M552.058,284.75a3.069,3.069,0,0,0-3.148-.356c-.914.58-.9,1.514-.317,2.8s2.028,2.941,2.268,3.569.865,2.6,2.252,2.967,2.613-.036,2.647-1.068-.241-3.547-.241-3.547a13.294,13.294,0,0,0-1.086-2.67A7.081,7.081,0,0,0,552.058,284.75Z" transform="translate(-524.701 -175.371)"/><path class="aa" d="M531.65,281.61c-.524-.494-3.654-1.262-3.654-1.262a1.291,1.291,0,0,0-1.357,1.089,2.458,2.458,0,0,0,.157,2.275,4.472,4.472,0,0,0,2.189,1.883,15.822,15.822,0,0,1,2.637,1.581c.313.16,1.553,1.832,3.486,1.76s1.562-1.728,1.562-1.728a7.772,7.772,0,0,0-.289-2.58,28.15,28.15,0,0,0-2.184-1.924Z" transform="translate(-514.916 -173.68)"/><path class="w" d="M552.994,284.65c-.366,1.956-1.081,1.327-1.081,1.327s-.761-.044-.148,1.494,1.27,2.5,2.651,2.743,2.5.173,2.48-.693-.248-2.7-.248-2.7l.031-2.709Z" transform="translate(-526.204 -175.376)"/><path class="w" d="M534.774,282.811a.951.951,0,0,1-.611,1.012c-.743.346-.625.771-.042,1.656a4.985,4.985,0,0,0,2.629,1.468c.4.087,1.522.09,1.712-.676a5.414,5.414,0,0,0-.178-2.091Z" transform="translate(-518.154 -174.79)"/><path class="ab" d="M533.673,201.143c2.571-1.677,7.87-3.314,9.152-.188s3.41,8.854,3.606,10.967a15.889,15.889,0,0,1-.082,4.028c-.087.59-.107,6.634.089,8.375s1.015,5.5,1.1,6.066,1.008,4.275,1.372,7.464,1.04,7.84.735,9.441-1.966,1.642-3.151,1.135-1.773-.8-1.824-1.262-2.11-9.183-2.835-11.563a14.115,14.115,0,0,1-.789-3.277c-.065-.339-3.829-11.737-3.87-11.928s-1.717-10.091-1.717-10.091Z" transform="translate(-518.167 -137.141)"/><path class="ac" d="M549.6,218.631a3.077,3.077,0,0,0,.519-1.385,11.745,11.745,0,0,0-1.147-6.712c-.429-.945-1.069-1.956-2.092-2.134a2.892,2.892,0,0,0-1.641.31,2.039,2.039,0,0,0-.8.549,1.782,1.782,0,0,0-.322.886c-.211,1.643.656,3.212.962,4.841a13.251,13.251,0,0,1,.131,2.865c-.015.481-.037.963-.041,1.444,0,.545-.081.82.515.9a4.258,4.258,0,0,0,1.935-.474A3.757,3.757,0,0,0,549.6,218.631Z" transform="translate(-522.855 -141.277)"/><path class="ad" d="M538.063,227.087c-.516.875-.18,1.655-.116,2.56a22.01,22.01,0,0,0,.371,4.252c.313,1.156.95,2.149,1.172,3.323.311,1.65,1.188,3.172,1.384,4.807.217,1.794,1.274,3.383,1.666,5.139,1.23,5.509,3.886,10.9,3.251,16.5a23.1,23.1,0,0,1-6.181-7.605c-4.034-7.087-6.938-14.954-7.361-23.1a19.5,19.5,0,0,1,.4-5.707,9.651,9.651,0,0,1,2.8-4.916c.8-.713,2.84-1.751,3.3-.186A7.14,7.14,0,0,1,538.063,227.087Z" transform="translate(-517.506 -147.116)"/><path class="ab" d="M522.325,199.191c-.215.8-.771,4.074-1.036,6.053a52.81,52.81,0,0,0,1.092,12.505c.888,3.869,4.03,13.81,4.206,14.637s2.069,12.657,2.262,12.969a2.473,2.473,0,0,0,1.951,1.794c1.671.416,2.84-.031,3.029-.61s-.106-15-.167-16.479-1.757-10.841-1.616-12.088,2.094-3.139,2.276-5.664-.874-10.037-2.205-11.451-6.246-3.356-6.589-3.623S522.325,199.191,522.325,199.191Z" transform="translate(-512.559 -136.252)"/><path class="ac" d="M538.241,254.594a2.9,2.9,0,0,0-.459-1.4,1.9,1.9,0,0,0-1.426-.692,3.233,3.233,0,0,0-1.573.385,3.487,3.487,0,0,0-.838.568,3.726,3.726,0,0,0-.992,2.857,15.732,15.732,0,0,0,.583,3.056c.808,3.394.886,6.913,1.347,10.37a2.136,2.136,0,0,0,.2.764,2.03,2.03,0,0,0,1.682.789,11.528,11.528,0,0,0,1.3.042.409.409,0,0,0,.465-.531c-.075-2.78-.122-5.561-.115-8.341A58.531,58.531,0,0,0,538.241,254.594Z" transform="translate(-517.841 -161.142)"/><path class="ac" d="M533.484,230.911a2.687,2.687,0,0,0-.546-1.719,2.644,2.644,0,0,0-1.763-.565l-1.431-.1a4.075,4.075,0,0,0-2.551.379,2.562,2.562,0,0,0-1.037,1.715,5.181,5.181,0,0,0,.13,2.042c.283,1.216.775,2.371,1.167,3.557.96,2.9,1.323,5.972,2.243,8.886a3.252,3.252,0,0,0,.984,1.7,2.453,2.453,0,0,0,1.015.414,2.4,2.4,0,0,0,1.573-.156,3.345,3.345,0,0,0,.861-.751,4.03,4.03,0,0,0,.957-1.41,5.488,5.488,0,0,0-.3-2.852,18.719,18.719,0,0,1-.369-2.658c-.126-1.647-.374-3.27-.572-4.91Q533.628,232.7,533.484,230.911Z" transform="translate(-514.76 -150.335)"/><path class="ac" d="M534.122,213.481c-.125-.56-.3-1.108-.468-1.657a1.488,1.488,0,0,0-.335-.659,1.351,1.351,0,0,0-.747-.295c-2.309-.357-4.655.457-6.984.275a1.794,1.794,0,0,0-1.432.253,1.548,1.548,0,0,0-.338,1.023,40.067,40.067,0,0,0,.248,6.477,14.435,14.435,0,0,0,.354,2.381,4.24,4.24,0,0,0,1.041,1.962,5.5,5.5,0,0,0,1.244.855,3.553,3.553,0,0,0,1.28.492,3.315,3.315,0,0,0,1.343-.2c1.416-.441,3.064-1.25,3.674-2.7a15.977,15.977,0,0,0,1.346-5.059A10.956,10.956,0,0,0,534.122,213.481Z" transform="translate(-513.707 -142.36)"/><path class="t" d="M522.153,202.989s-.49.938,4.953,1.139,7.849-.935,9-1.924a13.832,13.832,0,0,0,1.532-1.463l-.185-2.029-14.824,1.668Z" transform="translate(-512.975 -136.928)"/><g transform="translate(10.032 64.61)"><path class="ab" d="M523.926,207.019a5.8,5.8,0,0,1,.023-3.167l.948.277a4.868,4.868,0,0,0-.02,2.627Z" transform="translate(-523.716 -203.852)"/></g><g transform="translate(18.995 63.372)"><rect class="ab" width="0.987" height="3.815" transform="matrix(0.985, -0.171, 0.171, 0.985, 0, 0.169)"/></g><path class="ae" d="M539.889,175.331c-.868,2.728-1.716,3.1-2.135,5.69a27.285,27.285,0,0,1-.85,4.551c-.232.358-1.787,1.8-4.959,2.339-2.913.5-6.98.134-8.873-.8a3.39,3.39,0,0,1-.45-.258c-.294-.437.141-6.755-.1-7.931s-.787-1.827-.224-4.062a12.6,12.6,0,0,1,2.282-4.059,6.284,6.284,0,0,1,2.229-2.046c1.02-.228,1.62-.593,2.1-.7s4.281-1.069,5.557-.8a7.231,7.231,0,0,1,3.973,1.66A6.4,6.4,0,0,1,539.889,175.331Z" transform="translate(-512.936 -122.748)"/><path class="w" d="M533.825,154.882a3.953,3.953,0,0,1-.147,1.986,11.988,11.988,0,0,0-.371,1.356c-.014.123,2.315.262,3.021.481a5.835,5.835,0,0,0,2.817.085c.277-.249,1.07-.811,1.109-1.163s-.185-2.49-.185-2.49-.553-10.358-2.377-10.16a6.163,6.163,0,0,0-3.753,2.293c-.27.467-.3,1.411-.456,1.564a3.409,3.409,0,0,0-.953,1.29,13.093,13.093,0,0,0-.032,3.584C532.669,154.254,533.785,154.55,533.825,154.882Z" transform="translate(-517.589 -112.734)"/><path class="ad" d="M541.962,168.7a3.786,3.786,0,0,1,.582.941,2.482,2.482,0,0,1,.069.851c-.111,2.932-.469,5.85-.6,8.781a56.521,56.521,0,0,0,.246,8.338.545.545,0,0,0,.065.242.374.374,0,0,0,.552,0,1.033,1.033,0,0,0,.236-.575c.465-2.563.286-5.2.535-7.79.174-1.816.558-3.614.587-5.439.02-1.246-.126-2.488-.179-3.734a9.824,9.824,0,0,0-.281-2.513c-.224-.72-1-2.038-1.947-1.74C540.752,166.413,541.569,168.135,541.962,168.7Z" transform="translate(-521.598 -122.214)"/><path class="af" d="M536.41,146.073a9.987,9.987,0,0,0-1.219,3.232c-.067,1.281-.2,2.555-.2,2.555l.2.706s.511.011.774.848a22.341,22.341,0,0,0,.828,2.563c.35.754,1.5,1.3,1.952,1.7s1.6.569,1.963.9,1.135-.151,1.135-.151A12.407,12.407,0,0,1,543.5,156a7.48,7.48,0,0,0,1.972-5.771,8.328,8.328,0,0,0-4.453-5.767c-1.941-.452-2.456.161-2.456.161S537.243,144.342,536.41,146.073Z" transform="translate(-518.762 -112.431)"/><path class="ag" d="M534.3,160.691s.331.27.709-.184a1.51,1.51,0,0,0,.352-1.466c-.158-.531-.522.081-.689.325S534.08,160.232,534.3,160.691Z" transform="translate(-518.421 -118.973)"/><path class="w" d="M516.718,143.365l-2.593.827-.4.129c-1.3-1.514-3.135-5.613-4.076-7.914s-2.025-6.456-2.245-7.1a57.593,57.593,0,0,1-1.26-7.673c-.223-2.712-.438-5.206-.5-6.051s-.167-2.782-.173-3.14a1.348,1.348,0,0,1,.362-.751s-.008-1.565.015-1.862a2.715,2.715,0,0,1,.221-.669c.01-.045.015-.466.013-.942a11.77,11.77,0,0,0-.054-1.433c-.068-.226-.313-.719-.24-.908s.532-.023.593.068a1.717,1.717,0,0,1,.122.23v0c.025.049.04.086.04.086l.01,0a1.363,1.363,0,0,1,.555.4,5.948,5.948,0,0,1,.489.98c.158.367.285.692.285.692s.423,2.118.554,2.516a10.9,10.9,0,0,1,.26,1.1l.285.125.043-.13.5-1.527s.5-.844.838-1,.634.071.511.522a14.281,14.281,0,0,1-.54,1.389l-.313,1.394a6.705,6.705,0,0,1-.451,1.16,5.838,5.838,0,0,1-.832,1.045l-.3.919s.316,2.054.482,2.693,1.167,4.159,1.473,4.929,1.081,4.916,1.318,5.377,1.789,4.871,2.147,5.563,2.509,3.265,2.782,3.679S516.718,143.365,516.718,143.365Z" transform="translate(-505.47 -95.093)"/><g transform="translate(10.608 70.626)"><path class="ah" d="M529.339,223.306l-4.063-1.473-.512-6.422,7.862-.617.1,6.892Zm-3.6-1.829,3.57,1.294,2.918-1.395-.091-6.049-6.845.537Z" transform="translate(-524.764 -214.794)"/></g><g transform="translate(22.698 67.453)"><path class="ah" d="M549.6,217.748l-2.847-6.83.237-.091c1.019-.391,2.719-1.228,2.941-1.806l.461.178c-.322.837-2.273,1.7-2.989,1.995l2.5,5.993,1.618-.316.483-1.217.459.183-.583,1.467Z" transform="translate(-546.754 -209.022)"/></g><path class="ad" d="M541.651,206.292a13.063,13.063,0,0,0,.319,2.309s.956,4.733,1.256,6.1a11.179,11.179,0,0,1-.225,3.708Z" transform="translate(-521.748 -140.34)"/><g transform="translate(8.734 64.593)"><path class="ah" d="M528.488,208.375q-.313,0-.648-.006c-5.144-.092-6.432-.721-6.485-.748l.223-.441c.013.006,1.3.605,6.271.694,4.765.092,6.065-.78,7.209-1.543l.4-.268a3.55,3.55,0,0,0,1.929-2.244l.469.153a4.007,4.007,0,0,1-2.128,2.5l-.4.265C534.183,207.51,532.887,208.375,528.488,208.375Z" transform="translate(-521.355 -203.821)"/></g><g transform="translate(8.901 65.642)"><path class="ah" d="M529.382,250.277c-.018-.107-1.787-10.737-2.267-13.368a47.562,47.562,0,0,0-2.861-9.724,46.892,46.892,0,0,1-2.582-14.738,30.153,30.153,0,0,1,.633-6.718l.481.111a29.6,29.6,0,0,0-.621,6.592,46.413,46.413,0,0,0,2.553,14.58,47.986,47.986,0,0,1,2.883,9.808c.481,2.635,2.251,13.269,2.268,13.376Z" transform="translate(-521.661 -205.729)"/></g><path class="ac" d="M550.822,228.6a2.467,2.467,0,0,0-1.415-.663,5.758,5.758,0,0,0-2.931.418,1.662,1.662,0,0,0-.627.365,1.531,1.531,0,0,0-.319.612,6.529,6.529,0,0,0-.086,3.131,30.248,30.248,0,0,0,.838,3.048c1.008,3.393,1.555,7,3.388,10.024a2.265,2.265,0,0,0,.542.667.87.87,0,0,0,.812.159,1.2,1.2,0,0,0,.606-.849,9.2,9.2,0,0,0,.181-3.789c-.162-1.268-.665-2.589-.7-3.861-.034-1.412-.1-2.822-.151-4.233-.034-.972.042-1.942.1-2.911C551.108,229.949,551.435,229.243,550.822,228.6Z" transform="translate(-523.4 -150.064)"/><path class="ac" d="M554.156,252.278c-.137-.39-.318-.826-.706-.968a1.053,1.053,0,0,0-.55-.023,2.744,2.744,0,0,0-1.989,2.331,8.044,8.044,0,0,0,.344,3.222,77.806,77.806,0,0,1,1.487,8.168q.227,1.682.453,3.364c.131.976.07,1.935.24,2.911a3.736,3.736,0,0,0,3.043.126.69.69,0,0,0,.51-.63,9.5,9.5,0,0,0-.142-3.037c-.141-1.039-.247-2.09-.4-3.135C555.841,260.443,555.558,256.264,554.156,252.278Z" transform="translate(-525.901 -160.586)"/><path class="ai" d="M523.236,179.091a5.235,5.235,0,0,0-.1,2.532,25.869,25.869,0,0,1,.315,6.429,18.984,18.984,0,0,1-.38,2,3.39,3.39,0,0,1-.45-.258c-.294-.437.141-6.755-.1-7.931s-.787-1.827-.224-4.062a12.6,12.6,0,0,1,2.282-4.059,1.8,1.8,0,0,1,.3.277c.749.87.179,2.3-.353,3.12A11.063,11.063,0,0,0,523.236,179.091Z" transform="translate(-512.936 -125.687)"/><path class="y" d="M508.27,124.564c-.208-.273-.482-.361-.861,0-.566.532-.2,1.859-.1,2.515.423,2.944.675,5.913,1.232,8.835a4.738,4.738,0,0,0,.517,1.595,1.733,1.733,0,0,0,1.349.892.917.917,0,0,0,.832-.4,1.279,1.279,0,0,0,.132-.527,11.35,11.35,0,0,0-.181-2.96c-.19-1.1-.709-2.092-1-3.151-.318-1.173-.739-2.3-1-3.5C508.954,126.782,508.963,125.476,508.27,124.564Z" transform="translate(-506.204 -103.438)"/><path class="y" d="M517.1,161.348a.29.29,0,0,0,.206.05c.123-.022.237-.276.33-.354.164-.139.379-.214.554-.339a3.522,3.522,0,0,0,.935-.97,1.779,1.779,0,0,0,.291-.748c.073-.736-.551-1.327-1.049-1.874a16.361,16.361,0,0,1-2.309-3.748,21.576,21.576,0,0,1-1.809-3.719,5.07,5.07,0,0,0-.492-1.15.871.871,0,0,0-.213-.268.707.707,0,0,0-.577-.089,1.686,1.686,0,0,0-1.167,1.236c-.294,1.055.427,2.206.808,3.176q.681,1.732,1.416,3.443c.216.5.435,1,.678,1.494a28.319,28.319,0,0,0,1.726,2.919A3.249,3.249,0,0,0,517.1,161.348Z" transform="translate(-508.291 -114.15)"/><path class="x" d="M507.112,107.176a1.465,1.465,0,0,1,.124-.685c.025.049.04.086.04.086l.01,0a1.656,1.656,0,0,0-.064.6,2.389,2.389,0,0,0,.168.523,8.623,8.623,0,0,1,.384,3.649c-.049-.3-.1-.6-.122-.9-.035-.427-.018-.858-.078-1.282-.035-.239-.091-.473-.147-.7C507.323,108.038,507.187,107.608,507.112,107.176Z" transform="translate(-506.205 -95.409)"/><path class="x" d="M511.31,117.544a.057.057,0,0,0,0,.015A.009.009,0,0,1,511.31,117.544Z" transform="translate(-508.098 -100.385)"/><path class="x" d="M509.772,111.416a7.118,7.118,0,0,1-.44-2.135c0-.037,0-.074,0-.113.158.367.285.692.285.692s.423,2.118.554,2.516a10.9,10.9,0,0,1,.26,1.1l.285.125.043-.13a2.8,2.8,0,0,1-.073.287.249.249,0,0,1-.092.143c-.051.028-.132,0-.137-.053,0-.025.01-.053,0-.073s-.026,0-.035,0c-.147-.545-.285-1.094-.422-1.641C509.937,111.89,509.849,111.653,509.772,111.416Z" transform="translate(-507.209 -96.614)"/><path class="x" d="M514.125,146.179l-.4.129c-1.3-1.514-3.135-5.613-4.076-7.914s-2.025-6.456-2.245-7.1a57.593,57.593,0,0,1-1.26-7.673c-.223-2.712-.438-5.206-.5-6.051s-.167-2.782-.173-3.14a1.348,1.348,0,0,1,.362-.751s-.008-1.565.015-1.862a2.715,2.715,0,0,1,.221-.669c.01-.045.015-.466.013-.942.056.555.092,1.114.117,1.671a15.886,15.886,0,0,1,.06,2.089,3.532,3.532,0,0,1-.366,1.622.765.765,0,0,0-.141.639c.023.273-.119.593-.063.86q.089.712.178,1.423a9.264,9.264,0,0,0,.145,1.178,10.557,10.557,0,0,1,.219,2.028c.048.782.167,1.56.284,2.334.324,2.132,1.041,4.029,1.023,6.186a8.2,8.2,0,0,0,.771,3.534c.154.33.331.648.453.99a13.819,13.819,0,0,1,.329,1.352,11.9,11.9,0,0,0,.5,1.466,38.469,38.469,0,0,0,3.438,7.113C513.348,145.18,513.748,145.669,514.125,146.179Z" transform="translate(-505.47 -97.08)"/><path class="af" d="M543.734,169.734a4.518,4.518,0,0,0-.578,3.162c.153,1.4-.714,5.277-.6,7.277s-.512,9.255-.512,9.255.526,2.554,1.958,3.441,2.593-5.174,2.593-5.174a21.683,21.683,0,0,0-.189-7.123c-.775-3.4-.587-7.271-.909-8.26a6.9,6.9,0,0,1-.249-2.2Z" transform="translate(-521.935 -123.881)"/><path class="z" d="M526.8,167.98a8.118,8.118,0,0,1-1.735,3.531,8.676,8.676,0,0,1-3.687,2.375s-.134-2.092-1.219-2.93c-.241-2.263,3.212-6.439,3.406-6.51A39.983,39.983,0,0,1,526.8,167.98Z" transform="translate(-512.077 -121.501)"/></g><g transform="translate(66.904 42.686)"><ellipse class="h" cx="8.404" cy="14.556" rx="8.404" ry="14.556" transform="matrix(0.005, -1, 1, 0.005, 7.973, 90.451)"/><path class="t" d="M616.149,247.216s.845.572.959.926a2.916,2.916,0,0,1,.079,1.26,4.965,4.965,0,0,1-1.577,1.068,6.138,6.138,0,0,0-1.4.637,13.635,13.635,0,0,1-1.946,1.723c-.641.336-2.066,1.465-3.369,1.444a2.257,2.257,0,0,1-1.957-1.338,1.759,1.759,0,0,1,.11-1.514C607.341,250.969,616.149,247.216,616.149,247.216Z" transform="translate(-595.947 -171.525)"/><path class="t" d="M638.21,255.015a2.056,2.056,0,0,1,.883.477s.079.771.069,1.1-.738,1.806-.805,2.434a5,5,0,0,1-1.539,3.34,5.253,5.253,0,0,1-3.734.662c-1.026-.1-1.2-.67-1.255-.834a3.707,3.707,0,0,1,.137-1.2c.089-.28,1.139-2.462,1.139-2.462Z" transform="translate(-607.2 -175.037)"/><path class="aa" d="M616.488,245.491c.306.14.622,1.171.608,1.674s-1.117,1.121-1.449,1.279a19.479,19.479,0,0,0-2.9,2.1c-.688.683-2.666,2.27-4.106,1.881s-1.613-.948-1.48-1.733a2.625,2.625,0,0,1,.916-1.77c.482-.327,2.9-2.147,3.209-2.349s1.13-.551,1.321-1.134,2.689-.809,2.689-.809Z" transform="translate(-596.083 -170.361)"/><path class="aa" d="M639.052,251.854a11.452,11.452,0,0,1,.122,1.917c0,.487-.6,1.788-.766,2.545s-.363,2.444-1.724,3.321a4.563,4.563,0,0,1-3.584.622c-.73-.228-.809-.512-.792-.97a4.025,4.025,0,0,1,.47-1.72c.352-.692,1.2-2.619,1.269-2.805a16.938,16.938,0,0,1,.793-1.908,22.249,22.249,0,0,1,2.73-2.091Z" transform="translate(-607.422 -173.124)"/><path class="w" d="M604.818,153.122a4.922,4.922,0,0,1-1.541,2.725,12.846,12.846,0,0,0-2.1,2.894,35.541,35.541,0,0,1-3.209,4.52c-1.57,1.9-4.089,5.046-4.344,5.336s.135.692.171,1.04.451,2.072.481,2.315a.893.893,0,0,0,.1.344l.979,1.033.517.478a1.011,1.011,0,0,1,.087.417.115.115,0,0,1-.013.028.932.932,0,0,1-.249.174l-.046-.015-.132-.041a.337.337,0,0,1-.382-.029c-.135-.084-.354-.2-.512-.287l-.2-.1a.827.827,0,0,1-.219.084.5.5,0,0,1-.286-.007c-.233-.084-1.507-.491-1.728-.614a5.487,5.487,0,0,1-1.621-1.142c-.013-.021-.026-.041-.038-.063a4.226,4.226,0,0,1-.293-1.51s.035-.312.079-.7c.068-.593.163-1.364.2-1.46.066-.156.3-.779.3-.779a5.966,5.966,0,0,1,.352-.791c.119-.168,4.477-8.163,4.858-8.764a43.063,43.063,0,0,1,2.72-3.469c.387-.366,1.577-2.161,1.784-2.366s3.007-3.509,3.595-2.86S604.818,153.122,604.818,153.122Z" transform="translate(-588.483 -127.5)"/><path class="x" d="M592.745,185.554a.985.985,0,0,1-1.041.725.849.849,0,0,0-.323.016,1.061,1.061,0,0,0-.324.273,2.49,2.49,0,0,0-.413.369,1.023,1.023,0,0,0-.1.615c.012.207.021.415.033.622a.529.529,0,0,1-.007.135c-.013-.021-.026-.041-.038-.063a4.226,4.226,0,0,1-.293-1.51s.035-.312.079-.7a1.916,1.916,0,0,1,.824-.768,2.828,2.828,0,0,1,.555-.178C592.027,185.017,592.874,184.986,592.745,185.554Z" transform="translate(-588.483 -143.539)"/><path class="aj" d="M589.727,185.108c-.161-.013-.847.864-1,1a1.055,1.055,0,0,1-.618.25c-.222.009-.972-.024-1.065-.506a.5.5,0,0,1,.386-.4,1.821,1.821,0,0,0,.648-.126c.069-.079.9-1.3.9-1.3a3.325,3.325,0,0,1,.539-.947,1.978,1.978,0,0,1,1.337.109.959.959,0,0,1,.7,1.012,1.053,1.053,0,0,1-.645.9A1.646,1.646,0,0,1,589.727,185.108Z" transform="translate(-587.045 -142.615)"/><path class="x" d="M596.071,192.64a.946.946,0,0,0,.122.291l-.2-.1a.827.827,0,0,1-.219.084c.012-.008.021-.018.033-.028a.31.31,0,0,0,.106-.183.305.305,0,0,0-.106-.234,1.542,1.542,0,0,0-.682-.3,3.557,3.557,0,0,1-1.4-.807,1.688,1.688,0,0,1,.723.318c.423.244.9.374,1.349.575a.462.462,0,0,1,.2.14A.656.656,0,0,1,596.071,192.64Z" transform="translate(-590.052 -146.379)"/><path class="x" d="M598.935,193.075a.113.113,0,0,1-.013.028.931.931,0,0,1-.249.174l-.046-.015a.438.438,0,0,0,.025-.166.8.8,0,0,0-.316-.545,3.1,3.1,0,0,0-.489-.319l-.616-.351a.847.847,0,0,1-.323-.262c-.046-.073-.111-.347.036-.314.068.016.2.278.257.338a3.522,3.522,0,0,0,.75.506,6.7,6.7,0,0,1,.614.407,1.078,1.078,0,0,1,.293.293A.622.622,0,0,1,598.935,193.075Z" transform="translate(-591.461 -146.352)"/><path class="x" d="M595.357,169.889c.186-.081.412.059.6-.016a.564.564,0,0,0,.189-.15c1.146-1.221,2.156-2.615,3.181-3.945.632-.819,1.252-1.648,1.851-2.493.3-.427.573-.89.895-1.3.255-.327.665-.516.557-1.022-.088-.415-.533-.67-.662-1.074a.078.078,0,0,1,0-.053A.072.072,0,0,1,602,159.8a.587.587,0,0,1,.5.062,1.572,1.572,0,0,0,.474.206c.513.073.88-1,1.069-1.354.333-.621.648-1.252.939-1.895a.641.641,0,0,0,.083-.372.707.707,0,0,0-.249-.348,4.123,4.123,0,0,1-1.134-1.892.782.782,0,0,1-.036-.335.741.741,0,0,1,.556-.5,4.633,4.633,0,0,1,2.818.3,2.575,2.575,0,0,1,.841.39,2.181,2.181,0,0,1,.506.653,6.973,6.973,0,0,1,.875,2.92,11.083,11.083,0,0,1-.463,3.6,13.513,13.513,0,0,1-1.187,3.116,23.093,23.093,0,0,1-1.806,2.571,16.926,16.926,0,0,1-2.113,2.526,13.709,13.709,0,0,1-2.058,1.437,9.393,9.393,0,0,1-3.189,1.425,2.221,2.221,0,0,1-2.013-.473,3.057,3.057,0,0,1-.352-.772A8.44,8.44,0,0,0,595.357,169.889Z" transform="translate(-590.787 -129.222)"/><path class="ak" d="M607.518,158.824a1.5,1.5,0,0,1-.421.579,1.767,1.767,0,0,1-.765.277,19.357,19.357,0,0,1-2.059.27.539.539,0,0,1,.016-.515,17.941,17.941,0,0,1,2.92-4.558c.066.595.518,1.146.61,1.775A3.857,3.857,0,0,1,607.518,158.824Z" transform="translate(-594.774 -129.954)"/><path class="al" d="M598.555,162.689a.8.8,0,0,1,.9.145.941.941,0,0,1,.141.366q.144.627.271,1.257a1.324,1.324,0,0,1,.031.542,1.34,1.34,0,0,1-.228.445,46.954,46.954,0,0,1-4.627,6.037,13.829,13.829,0,0,0-1.328,1.489,2.16,2.16,0,0,1-.526.6,1.809,1.809,0,0,1-1.174.151.408.408,0,0,1-.225-.068.376.376,0,0,1-.056-.395,4.162,4.162,0,0,1,.642-1.181q1.4-2.035,2.632-4.181c.674-1.175,1.2-2.421,1.862-3.6A3.28,3.28,0,0,1,598.555,162.689Z" transform="translate(-589.141 -133.44)"/><path class="z" d="M614.21,138.291c-1.388.29-2.117,2-2.619,3.085s-2.7,5.034-2.918,5.505,3.852,3.867,4.576,2.68S616.187,138.42,614.21,138.291Z" transform="translate(-596.778 -122.486)"/><path class="ab" d="M622.565,189.637c-.091,1.444-1.019,7.715-1.019,7.715s-.929,5.9-.937,6.5-.43,11.628-.636,12.349-2.17,1.073-3.214.819-1.64-.65-1.667-1.082-.554-10.584-.51-11.683-1.208-16.96-1.023-18.365A18.507,18.507,0,0,1,615.7,178.9c1.454-2.284,6.594-.1,7.239,1.8S622.565,189.637,622.565,189.637Z" transform="translate(-598.974 -140.331)"/><path class="ab" d="M636.427,179.368a86.833,86.833,0,0,1,1.32,9.325,55.746,55.746,0,0,1-.811,8.957,29.873,29.873,0,0,0-.516,4.372,42.384,42.384,0,0,1,.664,6.535,102.835,102.835,0,0,1-.9,11.384s-.463.988-2.672,1.082-2.376-.375-2.46-.621a41.689,41.689,0,0,1-.2-5.331c.1-1.354-.5-9.011-.932-12.022s-2.345-11.293-2.789-11.813-1.337-.555-1.684-1.355A18.7,18.7,0,0,1,625.3,185c.089-.394-.256-3.318,1.168-4.276a35.317,35.317,0,0,1,5.9-2.337Z" transform="translate(-604.226 -140.54)"/><g transform="translate(31.342 42.249)"><path class="ah" d="M644.415,224.014l-.363-.035c.009-.1.941-9.747.913-11.609-.02-1.331-.3-4.021-.487-5.8-.078-.738-.133-1.272-.146-1.482a23.55,23.55,0,0,1,.395-2.684,58.9,58.9,0,0,0,1.031-8.2,52.3,52.3,0,0,0-.808-7.745l.357-.072a52.724,52.724,0,0,1,.815,7.812,59.051,59.051,0,0,1-1.036,8.263c-.217,1.273-.4,2.373-.39,2.6.013.205.07.751.145,1.467.187,1.786.468,4.486.489,5.834C645.358,214.247,644.453,223.616,644.415,224.014Z" transform="translate(-644.052 -186.39)"/></g><path class="t" d="M632.658,183.7c-.367.783-2.6,1.651-6.521,2.1a30.375,30.375,0,0,1-3.16.238,9.4,9.4,0,0,1-4.862-1.423c-2.289-1.376-2.531-2.041-2.707-2.5a4,4,0,0,1,.732-2.37c.208.055,16.133,1.512,16.133,1.512A8.147,8.147,0,0,1,632.658,183.7Z" transform="translate(-599.802 -141.15)"/><g transform="translate(20.07 48.323)"><path class="ah" d="M623.915,225.6l-.365-.013c.015-.421.368-10.327.684-12.5.074-.5.151-1.062.233-1.657.269-1.955.605-4.388,1.036-6.495l.131-.639a31.245,31.245,0,0,0,.9-6.856h.364a31.52,31.52,0,0,1-.9,6.931l-.131.639c-.428,2.095-.763,4.521-1.032,6.471-.082.6-.159,1.155-.233,1.66C624.282,215.294,623.918,225.5,623.915,225.6Z" transform="translate(-623.55 -197.438)"/></g><path class="ad" d="M625.05,194.812a3.137,3.137,0,0,0-.413,1.047,7.568,7.568,0,0,0,.29,3.091,13.386,13.386,0,0,1,.112,2.36,23.044,23.044,0,0,1-.487,4.338l-.644,4.734a1.078,1.078,0,0,0,0-.234c.026.406-.089.952-.091,1.385,0,.5-.071,1.015-.1,1.517q-.1,1.748-.2,3.5c-.111,2.017-.311,4.036-.3,6.07a19.271,19.271,0,0,0-.3,3.033c.4.212,1.067.549,1.508.319a3.591,3.591,0,0,0,.955-1.183,30.808,30.808,0,0,0,1.534-3.016,25.9,25.9,0,0,0,2.52-6.684,46.018,46.018,0,0,0,.692-7.4c.078-3.077.293-6.186-.549-9.184-.29-1.031-.449-2.717-1.248-3.493a4.854,4.854,0,0,0-1.693-1.036A1.476,1.476,0,0,0,625.05,194.812Z" transform="translate(-603.175 -147.539)"/><path class="ac" d="M615.89,208.054a.952.952,0,0,1-.263-.174,2.494,2.494,0,0,1-.466-1.782c-.027-3.143-.572-6.243-.654-9.359l-.095-3.6a17.78,17.78,0,0,1,.031-2.165c.069-.722.285-2.929,1.148-3.171s2.3.877,2.872,1.4a1.985,1.985,0,0,1,.4.465,2.291,2.291,0,0,1,.227.739,39.028,39.028,0,0,1,.625,5.983c.028,1.036.014,2.073,0,3.11-.009.69-.018,1.381-.079,2.068a21.674,21.674,0,0,1-1.116,4.836c-.159.481-.308,1.578-.771,1.825A2.736,2.736,0,0,1,615.89,208.054Z" transform="translate(-599.358 -144.762)"/><path class="ac" d="M633.439,210.153c-2.2.681-2.963-2.2-3.355-3.737q-.96-3.746-1.919-7.492c-.191-.743-.382-1.488-.637-2.211a5.31,5.31,0,0,0-.672-1.373c-.218-.3-.485-.563-.691-.872a4.476,4.476,0,0,1-.523-1.222,13.356,13.356,0,0,1-.541-3.29,15.655,15.655,0,0,0,2.628.629,11.47,11.47,0,0,0,2.748-.358l4.817-.917c.248-.047.387,3.966.374,4.323-.046,1.252-.369,2.537-.346,3.78.023,1.216.044,2.443.02,3.669s-.057,2.473-.1,3.709a23.676,23.676,0,0,1-.174,3.6A2.382,2.382,0,0,1,633.439,210.153Z" transform="translate(-604.178 -145.455)"/><g transform="translate(27.237 44.493)"><path class="ah" d="M639.114,193a3.022,3.022,0,0,1-.67-.071,2.466,2.466,0,0,1-1.858-2.415l.362-.045a2.148,2.148,0,0,0,1.553,2.1,5.181,5.181,0,0,0,3.694-1.017l.306.2A5.653,5.653,0,0,1,639.114,193Z" transform="translate(-636.586 -190.471)"/></g><path class="ac" d="M637.053,219.561a2.527,2.527,0,0,1,1.7.732,2.909,2.909,0,0,1,.522.857,11.8,11.8,0,0,1,.515,5.031c-.087,2.549-.074,5.1-.214,7.647-.084,1.517-.222,3.031-.36,4.545a.665.665,0,0,1-.14.423.62.62,0,0,1-.253.134c-.564.187-2.978.72-2.9-.43l-.015.229a89.852,89.852,0,0,1-.623-9.023c-.038-1.382-.328-2.631-.444-4q-.218-2.585-.436-5.171l.047.365c-.069-.28-.112-.636.124-.8a.9.9,0,0,1,.294-.1c.336-.087.6-.318.927-.4A4.3,4.3,0,0,1,637.053,219.561Z" transform="translate(-608.361 -159.061)"/><path class="ac" d="M615.836,221.7q.02-1.147.04-2.294a4.8,4.8,0,0,1,.169-1.431,1.448,1.448,0,0,1,2.728-.292,4.459,4.459,0,0,1,.557,2.015,87.755,87.755,0,0,1,.3,9.346l-.017,4.424a1.1,1.1,0,0,1-.087.518.821.821,0,0,1-.828.336c-.314-.036-.609-.169-.92-.225-.268-.049-.862.012-1.058-.216-.213-.247-.112-1.238-.136-1.569q-.123-1.7-.245-3.4l-.49-6.8Z" transform="translate(-600.007 -157.859)"/><path class="ae" d="M629.607,135.613c1.231,1.171,6.058,5.281,6.341,5.9s-.072,3.2-.633,5.4A79.981,79.981,0,0,1,633,154.672c-.46.912-.656,7.441-.932,8.372s-6.727,1.49-10.615.671-5.074-2.237-5.061-3.486.46-8.616-.008-11.692-.473-9.9.568-11.241c1.228-.808,5.949-1.746,6.764-1.858S629.607,135.613,629.607,135.613Z" transform="translate(-600.119 -121.19)"/><path class="ad" d="M644.163,158.382a11.057,11.057,0,0,0,.2,1.842c.13.577.352,1.131.456,1.713a8.667,8.667,0,0,1-.081,2.676,37.365,37.365,0,0,0-.5,7.564,6.425,6.425,0,0,0,.768,2.929,30.946,30.946,0,0,0,3.237-12.072,17.458,17.458,0,0,0,.063-3.769,9.941,9.941,0,0,0-.764-2.807,2.055,2.055,0,0,0-.859-1.088,1.878,1.878,0,0,0-2.111.5A4.1,4.1,0,0,0,644.163,158.382Z" transform="translate(-612.75 -130.113)"/><path class="am" d="M636.294,122.068a15.931,15.931,0,0,0-1.487,4.9,12.7,12.7,0,0,0,.682,2.606c.078.269-2.254,2.883-5.48,2.417-1.733-.439-2.074-.9-2.308-1.533a1.7,1.7,0,0,1,.172-1.609,6.188,6.188,0,0,1,.791-.678c.14-.135.177-.814.177-.814l1.024-3.487,4.149-4.27,2.123,1.247Z" transform="translate(-605.294 -114.074)"/><path class="x" d="M633.517,133.412a2.732,2.732,0,0,1-.958.4,7.03,7.03,0,0,1-1.127.185.5.5,0,0,1-.609-.47,5.573,5.573,0,0,1-.227-1.635,1.347,1.347,0,0,1,.1-.582,1.519,1.519,0,0,1,.989-.641c.714-.223,2.82-.837,3.2.232.152.423-.283.939-.469,1.288A3.369,3.369,0,0,1,633.517,133.412Z" transform="translate(-606.652 -118.885)"/><path class="w" d="M636.655,116.652a55.2,55.2,0,0,1-2.132,5.845c-.328.4-3.375,2.331-4.529,2.2a5.751,5.751,0,0,1-.862-.16,2.061,2.061,0,0,1-.8-.367,19.776,19.776,0,0,1-.817-3.351c.021-.245.234-2.662.418-4.013a7.734,7.734,0,0,1,.135-.782c.195-.721,1.036-3.31,1.036-3.31s.588-1.178,1.346-1.112,3.9.278,4.393.865,1.583,1.761,1.583,1.761Z" transform="translate(-605.267 -110.468)"/><path class="af" d="M635.226,116.614a1.029,1.029,0,0,1-.293-.484s.172-1.438.179-1.679a.549.549,0,0,0-.221-.432c-.086-.1-1.315-.2-2.611-.657a13.113,13.113,0,0,1-2.634-1.215c-.3-.215-1.417,3.7-1.417,3.7s-.067-.964-.076-1.2a18.166,18.166,0,0,1,.752-2.84c.193-.378.464-1.514,2.885-2.044a5.232,5.232,0,0,1,4.5.606,5.825,5.825,0,0,1,2.206,2.749,4.043,4.043,0,0,1-.254,2.665,25.061,25.061,0,0,1-.777,2.515c-.217.368-1.2.589-1.2.589s.272-1.318.067-1.306-.573.881-.573.881l-.4-.032A4.193,4.193,0,0,0,635.226,116.614Z" transform="translate(-605.553 -109.545)"/><path class="an" d="M641.937,125.242a7.653,7.653,0,0,0,.31-.881,1.749,1.749,0,0,1,1.2-.755c.369.062.339.761.117,1.306s-1.219,1.841-1.568,1.846a.341.341,0,0,1-.368-.411C641.645,126.22,641.937,125.242,641.937,125.242Z" transform="translate(-611.615 -115.873)"/><path class="w" d="M643.358,172.012a21.951,21.951,0,0,1-1.67,4.733c-1.263,2.654-2.834,6.224-3.1,6.606a9.978,9.978,0,0,1-1.792,1.271,28.528,28.528,0,0,1-3.611,1.525,21.99,21.99,0,0,1-3.341.623c-.061,0-.119,0-.175,0-.883-.012-1.019-.094-1.042-.287s.568-.584.568-.584a4.413,4.413,0,0,1-.914-.2.44.44,0,0,1,.017-.629,1.947,1.947,0,0,1,.6-.129s-.273-.347-.191-.491.617-.336.617-.336l1,.3.176-.1.5-.033a4.527,4.527,0,0,0,1.349.041,5.257,5.257,0,0,0,1.325-.735l2.888-1.987a3.007,3.007,0,0,0,.4-.927c.157-.591,2.445-9.734,2.624-10.144a13.61,13.61,0,0,0-.445-3.249,12.968,12.968,0,0,1-.748-2.968c.073-.677.55-2.855.55-2.855l1.583-.259,1.865.834.356.159a21.821,21.821,0,0,0,.3,2.371c.11.786.422,4.252.511,5.189A6.817,6.817,0,0,1,643.358,172.012Z" transform="translate(-605.554 -132.797)"/><path class="ao" d="M651.375,168.635a3.531,3.531,0,0,1-.209,2.011.97.97,0,0,1-.895.586,1.087,1.087,0,0,1-.551-.289,3.6,3.6,0,0,1-.755-.892,7.234,7.234,0,0,1-.746-2.269l-.678-3.234a1.609,1.609,0,0,1,.039-1.124,1.587,1.587,0,0,1,.676-.544,2.072,2.072,0,0,1,1.047-.334c1.262.066,1.357,1.394,1.533,2.333Q651.187,166.744,651.375,168.635Z" transform="translate(-614.244 -133.405)"/><path class="ap" d="M647.218,176.07a1.711,1.711,0,0,1,.819-1.152,1.8,1.8,0,0,1,.588-.1.771.771,0,0,1,.36.041.746.746,0,0,1,.332.533,9.183,9.183,0,0,1,.06,4.289c-.512,2.259-1.857,4.233-2.655,6.407-.144.392-.27.791-.436,1.174-.137.317-.3.622-.463.926a2.552,2.552,0,0,1-.617.846,1.288,1.288,0,0,1-.964.258.343.343,0,0,1-.179-.067.351.351,0,0,1-.09-.158,3.675,3.675,0,0,1,.161-2.235c.444-1.461,1.013-2.879,1.525-4.316C646.408,180.42,646.535,178.172,647.218,176.07Z" transform="translate(-612.622 -138.932)"/><path class="x" d="M644.6,172.695a21.943,21.943,0,0,1-1.67,4.733c-1.263,2.654-2.834,6.224-3.1,6.606a9.978,9.978,0,0,1-1.792,1.271,28.525,28.525,0,0,1-3.611,1.525,21.983,21.983,0,0,1-3.341.623c-.061,0-.119,0-.175,0a19.237,19.237,0,0,0,7.188-2.521,6.8,6.8,0,0,0,1.573-1.288c.9-1.107,1.022-2.657,1.7-3.912.2-.371.453-.714.653-1.086a8.94,8.94,0,0,0,.456-1.061,29.012,29.012,0,0,0,1.908-5.476,11.51,11.51,0,0,0,.187-1.707,11.744,11.744,0,0,0-.176-1.84q-.331-2.207-.662-4.415a6.683,6.683,0,0,1-.11-1.436l.356.159a21.82,21.82,0,0,0,.3,2.371c.111.786.422,4.252.511,5.189A6.813,6.813,0,0,1,644.6,172.695Z" transform="translate(-606.793 -133.48)"/><path class="x" d="M637.369,202.657a3.579,3.579,0,0,1-.233.487,1.618,1.618,0,0,1-.8.5.961.961,0,0,1,.005-.66c.067-.215.168-.418.224-.636a1.7,1.7,0,0,1,.167-.532.877.877,0,0,1,.392-.3,4.168,4.168,0,0,1,.88-.243c.182-.036.543-.113.652.1s-.211.291-.345.371A2.282,2.282,0,0,0,637.369,202.657Z" transform="translate(-609.212 -150.825)"/><path class="x" d="M626.122,203.809a3.844,3.844,0,0,0,.466,2.255.273.273,0,0,0,.092.076.247.247,0,0,0,.13.01.594.594,0,0,0,.483-.425c.032-.117.026-.242.066-.357.1-.281.443-.428.7-.533a.884.884,0,0,1,.3-.049l1.207-.058-.06.038a11.018,11.018,0,0,1,1.522-.727,2.757,2.757,0,0,0-1.09.253,4.273,4.273,0,0,1-.414.15,2.151,2.151,0,0,1-1.051.032,1.646,1.646,0,0,0-.427-.071.961.961,0,0,0-.57.279c-.151.133-.19.09-.39.043s-.4-.1-.595-.16c.043-.058.018-.139,0-.209a.69.69,0,0,1,.146-.587c.085-.1.375-.233.316-.382a.652.652,0,0,1,.049.068,3.468,3.468,0,0,1,.708-.046.957.957,0,0,1,.125.069,1.867,1.867,0,0,0,.63.325,5.034,5.034,0,0,0,.772.038,9.1,9.1,0,0,0,1.541-.121c-.566-.043-1.133-.087-1.694-.164a3.568,3.568,0,0,1-.91-.217,1.425,1.425,0,0,1-.7-.593.546.546,0,0,0-.107-.158.353.353,0,0,0-.328-.038.857.857,0,0,0-.542.514A3.061,3.061,0,0,0,626.122,203.809Z" transform="translate(-604.626 -151.407)"/><path class="x" d="M628.978,123.963a.711.711,0,0,0,.422.781c.1.04.236.1.214.2a.2.2,0,0,1-.076.1,1.171,1.171,0,0,0-.41.611.507.507,0,0,0,.323.6c-.156-.045-.281.153-.27.316s.1.313.1.474a.99.99,0,0,1-.074.314,2.724,2.724,0,0,0-.173,1.1,1.46,1.46,0,0,0,.1.331,2.061,2.061,0,0,1-.8-.367,19.776,19.776,0,0,1-.817-3.351c.021-.245.234-2.662.418-4.013.57.246,2.113.778,1.957,1.135a7.242,7.242,0,0,1-.6,1.181A1.72,1.72,0,0,0,628.978,123.963Z" transform="translate(-605.267 -114.731)"/><g transform="translate(14.707 43.043)"><path class="ah" d="M615.157,189.587a1.881,1.881,0,0,1-1.361-.755l.273-.242a1.408,1.408,0,0,0,1.232.621c.819-.133,1.355-1.365,1.361-1.377l.335.143c-.025.058-.62,1.427-1.636,1.593A1.269,1.269,0,0,1,615.157,189.587Z" transform="translate(-613.796 -187.834)"/></g><g transform="translate(21.711 44.217)"><path class="ah" d="M627.038,196.144c-.629-1.22-.544-5.15-.4-6.175l.361.05c-.143,1.031-.2,4.873.365,5.958Z" transform="translate(-626.535 -189.969)"/></g><g transform="translate(20.185 44.31)"><path class="ah" d="M625.68,195.521c-.059-.007-1.449-.187-1.78-.939-.353-.8.072-4.408.076-4.444l.362.043a16.54,16.54,0,0,0-.1,4.254c.206.468,1.146.681,1.491.724Z" transform="translate(-623.759 -190.138)"/></g><path class="aq" d="M638.1,200.609s-1.079.038-1.213.077-.7.9-1.153.545a.706.706,0,0,1-.185-.993,1.659,1.659,0,0,1,.756-.565,1.446,1.446,0,0,0,.489-.214,5.555,5.555,0,0,1,1.186-.744,4.306,4.306,0,0,1,1.5-.278c.219.01.4-.1.529.187s.344.617-.048,1.039A4.882,4.882,0,0,1,638.1,200.609Z" transform="translate(-608.823 -149.558)"/><path class="z" d="M648.831,146.473c-.815-.374-2.1,1.473-2.639,2.572a16.832,16.832,0,0,0-1.483,3.5,50.509,50.509,0,0,0,.815,5.673l4.974-.314.163-.315S650.03,147.742,648.831,146.473Z" transform="translate(-613.002 -126.148)"/><g transform="translate(3.601 29.261)"><path class="ar" d="M605.222,163.052l-11.133,6.428-.494-.285,11.133-6.428Z" transform="translate(-593.594 -162.767)"/><path class="as" d="M605.626,172.005l-11.133,6.428v-8.719l11.133-6.428Z" transform="translate(-593.999 -163.001)"/></g><g transform="translate(14.734 28.976)"><path class="at" d="M631.582,181.727l-17.738-10.241v-8.719l17.738,10.241Z" transform="translate(-613.844 -162.482)"/><path class="ar" d="M613.844,162.533l17.738,10.241.494-.285-17.738-10.241Z" transform="translate(-613.844 -162.248)"/></g><g transform="translate(10.8 20.774)"><g transform="translate(0.659)"><path class="k" d="M626.365,174.933V158L607.888,147.33v16.935Z" transform="translate(-607.888 -147.33)"/></g><path class="k" d="M625.166,158.378l.659-.38L607.348,147.33l-.659.38Z" transform="translate(-606.689 -147.33)"/><g transform="translate(18.477 10.668)"><path class="k" d="M640.955,183.668V166.733l-.659.38v16.935Z" transform="translate(-640.296 -166.733)"/></g><g transform="translate(0 0.38)"><path class="u" d="M625.166,175.625V158.69l-18.477-10.668v16.935Z" transform="translate(-606.689 -148.022)"/></g><g transform="translate(3.867 10.629)"><path class="v" d="M616.167,170.955l-.458.27-1.987-3.429,1.987-1.133.458.8-1.517.865Z" transform="translate(-613.722 -166.663)"/><path class="v" d="M623.269,168.464l.6.683-2.974,5.153-.6-.684Z" transform="translate(-616.681 -167.474)"/><path class="v" d="M630.348,176.674l-1.522-2.621.462-.272,1.987,3.428-1.987,1.133-.462-.8Z" transform="translate(-620.522 -169.868)"/></g></g><g transform="translate(9.812 21.345)"><g transform="translate(0.659)"><path class="k" d="M624.567,175.971V159.036L606.09,148.368V165.3Z" transform="translate(-606.09 -148.368)"/></g><path class="k" d="M623.368,159.416l.659-.38L605.55,148.368l-.659.38Z" transform="translate(-604.891 -148.368)"/><g transform="translate(18.477 10.668)"><path class="k" d="M639.157,184.706V167.771l-.659.38v16.935Z" transform="translate(-638.498 -167.771)"/></g><g transform="translate(0 0.38)"><path class="u" d="M623.368,176.663V159.728L604.891,149.06V166Z" transform="translate(-604.891 -149.06)"/></g><g transform="translate(3.866 10.629)"><path class="v" d="M614.37,171.993l-.458.269-1.987-3.428,1.987-1.134.458.8-1.518.865Z" transform="translate(-611.924 -167.701)"/><path class="v" d="M621.471,169.5l.6.684-2.974,5.152-.6-.683Z" transform="translate(-614.883 -168.512)"/><path class="v" d="M628.55,177.712l-1.522-2.62.462-.272,1.987,3.428-1.987,1.133-.462-.8Z" transform="translate(-618.724 -170.906)"/></g></g><g transform="translate(8.823 21.916)"><g transform="translate(0.659)"><path class="k" d="M622.769,177.009V160.074l-18.477-10.668v16.935Z" transform="translate(-604.292 -149.406)"/></g><path class="k" d="M621.57,160.454l.659-.38-18.477-10.668-.659.38Z" transform="translate(-603.094 -149.406)"/><g transform="translate(18.477 10.668)"><path class="k" d="M637.359,185.744V168.809l-.659.38v16.935Z" transform="translate(-636.7 -168.809)"/></g><g transform="translate(0 0.38)"><path class="u" d="M621.57,177.7V160.766L603.094,150.1v16.935Z" transform="translate(-603.094 -150.098)"/></g><g transform="translate(3.866 10.63)"><path class="v" d="M612.572,173.032l-.458.27-1.988-3.429,1.988-1.133.458.8-1.518.865Z" transform="translate(-610.126 -168.74)"/><path class="v" d="M619.674,170.541l.6.683-2.973,5.153-.6-.684Z" transform="translate(-613.086 -169.551)"/><path class="v" d="M626.752,178.75l-1.522-2.62.462-.272,1.988,3.428-1.988,1.133-.462-.8Z" transform="translate(-616.926 -171.945)"/></g></g><g transform="translate(7.835 22.486)"><g transform="translate(0.659)"><path class="k" d="M620.971,178.047V161.112l-18.477-10.668v16.935Z" transform="translate(-602.494 -150.444)"/></g><path class="k" d="M619.773,161.492l.659-.38-18.477-10.668-.659.38Z" transform="translate(-601.296 -150.444)"/><g transform="translate(18.477 10.668)"><path class="k" d="M635.562,186.782V169.847l-.659.38v16.935Z" transform="translate(-634.903 -169.847)"/></g><g transform="translate(0 0.38)"><path class="u" d="M619.773,178.739V161.8L601.3,151.136v16.935Z" transform="translate(-601.296 -151.136)"/></g><g transform="translate(3.866 10.629)"><path class="v" d="M610.774,174.069l-.459.27-1.987-3.428,1.987-1.133.459.8-1.518.865Z" transform="translate(-608.328 -169.777)"/><path class="v" d="M617.876,171.578l.6.683-2.973,5.153-.6-.684Z" transform="translate(-611.288 -170.588)"/><path class="v" d="M624.954,179.787l-1.522-2.62.462-.272,1.988,3.428-1.988,1.133-.462-.8Z" transform="translate(-615.128 -172.982)"/></g></g><g transform="translate(4.902 24.682)"><g transform="translate(0.659)"><path class="k" d="M615.637,182.179l2.217-17.073-18.477-10.668-2.217,17.073Z" transform="translate(-597.16 -154.438)"/></g><g transform="translate(2.252)"><path class="k" d="M618.535,165.17l.623-.064-18.477-10.668-.623.064Z" transform="translate(-600.058 -154.438)"/><g transform="translate(16.224 10.668)"><path class="k" d="M630.227,190.914l2.217-17.073-.623.064-2.252,17.389Z" transform="translate(-629.568 -173.841)"/></g></g><g transform="translate(0 0.064)"><path class="u" d="M614.438,182.612l2.252-17.389-18.477-10.668-2.252,17.389Z" transform="translate(-595.962 -154.555)"/></g><g transform="translate(6.119 10.313)"><path class="v" d="M609.536,177.489l-.457.27-1.988-3.428,1.988-1.134.457.8-1.517.865Z" transform="translate(-607.091 -173.197)"/><path class="v" d="M616.639,175l.6.684-2.974,5.152-.6-.684Z" transform="translate(-610.051 -174.008)"/><path class="v" d="M623.717,183.208l-1.522-2.621.462-.272,1.988,3.428-1.988,1.133-.462-.8Z" transform="translate(-613.891 -176.402)"/></g></g><g transform="translate(20.844 39.217)"><path class="ar" d="M636.586,181.16l-11.133,6.428-.494-.285,11.133-6.428Z" transform="translate(-624.958 -180.875)"/><path class="as" d="M637.08,189.594l-12.122,7v-8.719l12.122-7Z" transform="translate(-624.958 -180.875)"/></g><g transform="translate(3.107 35.689)"><path class="ar" d="M610.433,193.937,592.7,183.7v-8.719l17.738,10.241Z" transform="translate(-592.695 -174.692)"/><path class="ar" d="M592.7,174.744l17.738,10.241.494-.285L593.19,174.458Z" transform="translate(-592.695 -174.458)"/></g></g></g></g></g></svg>