<svg xmlns="http://www.w3.org/2000/svg" xmlns:xlink="http://www.w3.org/1999/xlink" width="1260.697" height="353.908" viewBox="0 0 1260.697 353.908"><defs><style>.a{fill:#c01e29;}.b{fill:none;stroke:#070707;stroke-linecap:round;stroke-linejoin:round;}.c{fill:#fff;}.d{fill:#f48c7f;}.e{fill:#13375b;}.f,.l{fill:#f47458;}.g{fill:#f79c8d;}.h{fill:#86b1f2;}.i{fill:#50bfa5;}.j{fill:#355389;}.k{fill:#f7a491;}.l{opacity:0.5;}.m{fill:#f7cc7f;}.n{fill:#96d9c9;}.o{fill:#b75742;}.p{fill:#3c8f7c;}.q{fill:#eab054;}.r{fill:#6394db;}.s{fill:#f8a492;}.t{fill:#e5b05c;}.u{fill:#dd513a;}.v{fill:#fe875e;}.w{filter:url(#c);}.x{filter:url(#a);}</style><filter id="a" x="206.207" y="61.207" width="1054.49" height="236.155" filterUnits="userSpaceOnUse"><feOffset dx="2" dy="3" input="SourceAlpha"/><feGaussianBlur stdDeviation="2.5" result="b"/><feFlood flood-opacity="0.149"/><feComposite operator="in" in2="b"/><feComposite in="SourceGraphic"/></filter><filter id="c" x="39.332" y="41.039" width="279.244" height="279.245" filterUnits="userSpaceOnUse"><feOffset dx="2" dy="3" input="SourceAlpha"/><feGaussianBlur stdDeviation="2.5" result="d"/><feFlood flood-opacity="0.149"/><feComposite operator="in" in2="d"/><feComposite in="SourceGraphic"/></filter></defs><g transform="translate(0.707 0.707)"><g transform="translate(156.717 27.545)"><path class="a" d="M596.15,448.258h.267a11.96,11.96,0,0,0,8.513-3.526L741.59,308.069a12.031,12.031,0,0,0,0-17.026L604.93,154.38a11.96,11.96,0,0,0-8.513-3.526h-1.2l-297.408,297.4Z" transform="translate(331.421 -150.854)"/><path class="b" d="M1041.673,150.854a11.96,11.96,0,0,1,8.513,3.526l136.66,136.663a12.031,12.031,0,0,1,0,17.026l-136.66,136.663a11.96,11.96,0,0,1-8.513,3.526H262.537a11.96,11.96,0,0,1-8.513-3.526L117.361,308.069a12.039,12.039,0,0,1,0-17.026L254.024,154.38a11.96,11.96,0,0,1,8.513-3.526h779.136Z" transform="translate(-113.835 -150.854)"/><g transform="translate(54.283 37.455)"><g class="x" transform="matrix(1, 0, 0, 1, -211.71, -65.71)"><path class="c" d="M977.229,359.074,1163.12,195.429c12.735-11.208,4.525-31.688-12.7-31.688L253.671,161.7a30.033,30.033,0,0,0-21.009,8.42L129.825,270.167,232.7,372.215a30.006,30.006,0,0,0,21.037,8.615l659.919,2.028A96.262,96.262,0,0,0,977.229,359.074Z" transform="translate(81.88 -96)"/></g></g><path class="a" d="M497.454,297.632,423.719,223.9a36.888,36.888,0,0,0-52.168,0l-73.739,73.735Z" transform="translate(331.421 -0.227)"/><line class="b" x1="255.398" transform="translate(589.947 297.405)"/></g><rect class="a" width="249.251" height="249.251" rx="8.184" transform="translate(0 176.247) rotate(-45)"/><rect class="b" width="249.251" height="249.251" rx="8.184" transform="translate(0 176.247) rotate(-45)"/><g class="w" transform="matrix(1, 0, 0, 1, -0.71, -0.71)"><rect class="c" width="186.849" height="186.849" rx="5.445" transform="translate(44.83 177.66) rotate(-45)"/></g><g transform="translate(82 115.813)"><path class="d" d="M1244.731,1019.278c-.349-.292-.771-.159-1.982-.72a7.433,7.433,0,0,0-1.128-.337.139.139,0,0,1-.106-.1c-.368-1.393-1.981-7.833-2.158-9.69-.181-1.9-1.406-9.951-1.593-11.175a.14.14,0,0,0-.177-.114l-3.519.981a.14.14,0,0,0-.1.166c.217.96,1.57,6.986,1.967,10.035.317,2.431,3.939,10.231,4.011,10.73l0,.014a.305.305,0,0,0,.3.261h3.922C1244.323,1019.33,1244.84,1019.369,1244.731,1019.278Z" transform="translate(-1154.995 -971.186)"/><path class="e" d="M1224.722,895.225c-1.872-5.68-3.967-5.438-3.967-5.438l1.619,11.942c1.156-.316,2.662-1.02,3.817-1.346A52.04,52.04,0,0,0,1224.722,895.225Z" transform="translate(-1142.816 -872.221)"/><path class="f" d="M1107.088,709.131c-.573-3.736-3.953-6.422-7.488-4.609a8.389,8.389,0,0,0-2.42,1.94c-1.484,1.905-1.864,4.259-3.4,6.108a15.133,15.133,0,0,0,2.056,1.306l.955-1.273-.329,1.589a23.3,23.3,0,0,0,10.308,2.046A19.811,19.811,0,0,0,1107.088,709.131Z" transform="translate(-1025.764 -700.898)"/><path class="d" d="M1174.09,1218.7a15.126,15.126,0,0,0-2.7-1.5c-.112-.055-.521-.315-.669-.406a5.194,5.194,0,0,1-1.073-.95,5.359,5.359,0,0,1-.526-2.33c.177-1.966,3.027-33.506,3.628-36.92.62-3.524-.325-8.9-.325-8.9l-2.2-.83-4.176,14.474.329,11.018a29.48,29.48,0,0,0-1.106,5.074c-.124,1.9,1.42,17.3,1.42,17.3h0a8.052,8.052,0,0,1-.083,1.36c-.113.576-.745,1.762-.455,2.3a1.454,1.454,0,0,0,.62.678l7.5.121C1174.689,1219.21,1174.419,1218.947,1174.09,1218.7Z" transform="translate(-1091.664 -1127.66)"/><path class="g" d="M999.929,1148.626a24.6,24.6,0,0,0-3.226,7.184c-.621,3.253.455,13.251-.738,17.515-.646,2.308-3.095,5.872-3.467,8.854s-1.668,11.59-1.668,11.59h0a7.6,7.6,0,0,1-.9,2.541,7.488,7.488,0,0,0-.982,1.3,3.816,3.816,0,0,0,.132,2.96c.172.377-.012.375.38.5a2.409,2.409,0,0,0,2.893-1.361,6.928,6.928,0,0,0,.568-2.5,11.686,11.686,0,0,1,.41-2.645h0l8.329-20.432,6.03-17.633,1.545-9.082Z" transform="translate(-928.891 -1109.714)"/><path class="h" d="M989.571,1791.29a3.694,3.694,0,0,1-3.626-1.519,3.993,3.993,0,0,0-.345,2.97c.3.649,1.164.63,1.847.655a1.783,1.783,0,0,0,1.639-1.005A6.036,6.036,0,0,0,989.571,1791.29Z" transform="translate(-925.884 -1701.891)"/><path class="h" d="M1180.125,1803.945a6.778,6.778,0,0,1-4.272-.168,3.463,3.463,0,0,0-.344,1.79c.182.532.442.653.671.659,1.813.048,6.64.113,8.022.131a.226.226,0,0,0,.175-.372A36.262,36.262,0,0,0,1180.125,1803.945Z" transform="translate(-1101.067 -1714.803)"/><path class="i" d="M1083.541,1170.92l.47.03h.024l.466.026h.028l.469.022h.024l.479.018a31.03,31.03,0,0,0,5.385-.2c.719-7.195.986-13.76,1.252-15.214.645-3.524-.562-9.087-.562-9.087l-.576-.1.364-2.06-9.678,1.22s-2.71,3.931-3.355,7.184.474,13.251-.768,17.514C1077.565,1170.271,1080.328,1170.7,1083.541,1170.92Z" transform="translate(-1010.813 -1106.899)"/><path class="j" d="M1104.091,876.185s-3.04-.4-4.405,1.094,2.618,13.463,2.866,15.361-1.265,6.944-1.265,6.944,8.1,1.635,10.421.1c0,0,.248-13.646,0-15a40.159,40.159,0,0,0-2.813-7.411C1108.4,876.727,1104.091,876.185,1104.091,876.185Z" transform="translate(-1030.945 -859.64)"/><path class="k" d="M1159.188,816.7s-.018.1-.05.275a26.267,26.267,0,0,1-1.146,4.347c-.484.916,1.656,3.839,3.715,3.482.613-.106-.518-2.685-.464-2.958.1-.523.245-1.236.389-1.968l.241-1.224c.22-1.118.4-2.031.4-2.031Z" transform="translate(-1084.893 -804.779)"/><path class="l" d="M1172.375,816.979c.032-.173.05-.275.05-.275l3.085-.077s-.179.914-.4,2.031l-.24,1.217a2.887,2.887,0,0,1-1.473-.74,3.9,3.9,0,0,1-1.116-1.663C1172.32,817.276,1172.352,817.108,1172.375,816.979Z" transform="translate(-1098.13 -804.779)"/><path class="k" d="M1160.789,727.549a2.778,2.778,0,0,0-2.366,1.013c-.912,1.182-1.894,4.836.37,6.823s4.5-.262,4.834-2.647S1164.088,727.463,1160.789,727.549Z" transform="translate(-1084.417 -722.654)"/><path class="k" d="M1230.957,778.244c-.27.527-.724.818-1.013.651s-.3-.729-.035-1.256.724-.818,1.013-.651S1231.227,777.717,1230.957,778.244Z" transform="translate(-1151.077 -768.194)"/><path class="f" d="M1144.9,722.212s-1.943,3.475-3.333,3.636-1.572,2.007-1.572,2.007.5-4.255,1.873-5.075A5.1,5.1,0,0,1,1144.9,722.212Z" transform="translate(-1068.37 -717.707)"/><path class="k" d="M1147.635,768.787c.113.617-.114,1.183-.508,1.264s-.8-.354-.917-.971.114-1.183.508-1.264S1147.521,768.17,1147.635,768.787Z" transform="translate(-1074.068 -759.774)"/><path class="c" d="M1186.6,809.046l2.1.414a.937.937,0,0,1-1.135.634C1186.433,809.9,1186.6,809.046,1186.6,809.046Z" transform="translate(-1111.321 -797.791)"/><path class="k" d="M897.507,973.715c-.128-.3,1.37-.651,1.431-.97s-1.933-.22-2.021-.492c-.163-.5,2.177-.244,2.116-.479s-2.46-.62-2.23-1.045,2.447.658,2.495.377-2.152-.822-2.152-1.433c0-.326,3.642,1.4,4.039,1.2s-.546-1.677-.235-1.925,1.452,3.027,1.683,3.125,5.156,2.514,6.876,2.839c.17-.579,1.458-3.677,1.606-4.224.992.616,2.1.695,3.12,1.25-.6,1.823-2.763,6.356-3.244,6.61-1.463.775-7.59-3.692-8.8-4.445s-1.865-.445-2.668-.657S897.635,974.02,897.507,973.715Z" transform="translate(-844.16 -945.185)"/><path class="e" d="M1064.853,897.147s3.137-6.312,3.232-8.511-2.1-4.658-4-4.233-3.421,10.57-3.421,10.57Z" transform="translate(-995.235 -867.216)"/><path class="d" d="M1951.6,1123.215l10.181-2.623a89.564,89.564,0,0,1,5.829-9.372c1.133,1.122,1.763,2.845,2.9,3.956l-6.635,8.368c-.305.338-13.055,1.625-13.055,1.625Z" transform="translate(-1815.848 -1076.356)"/><path class="m" d="M2163.021,864.5a11.7,11.7,0,0,1,1.068-5.638,4.78,4.78,0,0,1,4.262-2.428c5.328-.007,6.006,7.033,9.4,9.748,1.036.83,2.195,1.506,3.175,2.4,3.621,3.3,1.99,9.42-1.335,12.317-2.307,2.01-5.934,3.152-8.778,1.581a8.943,8.943,0,0,1-3.414-3.678,50.289,50.289,0,0,1-2.684-6.826A25.467,25.467,0,0,1,2163.021,864.5Z" transform="translate(-2011.451 -841.48)"/><path class="n" d="M2142.89,1069.295a51.176,51.176,0,0,0,5.026-5.88c1.029-1.781-.7-.622-2.467-1.09-.669-.177-.5-4.1-1.764-2.823a58.187,58.187,0,0,0-4.683,5.746Z" transform="translate(-1989.321 -1028.444)"/><g transform="translate(41.612 44.852)"><path class="d" d="M764.235,1240.855c.124-.188-.18-.511-.409-.754a10.413,10.413,0,0,0-2.057-1.035,14.345,14.345,0,0,0-3.387.489,3.056,3.056,0,0,1-1.434.154c-.226-.048-.566-.113-.83-.171l-.318,2.01c2.027-.007,3.9.162,4.1.159a7.57,7.57,0,0,0,1.99-.728,1.818,1.818,0,0,1,1.134.156,4.487,4.487,0,0,0,1.546.481C764.74,1241.526,764.235,1240.855,764.235,1240.855Z" transform="translate(-755.801 -1239.052)"/></g><path class="d" d="M551.552,1092.9l-11.4-2.859a94.964,94.964,0,0,0-6.177-9.932c-1.2,1.189-1.869,3.015-3.078,4.193l6.375,8.675c.324.358,14.491,1.916,14.491,1.916Z" transform="translate(-506.86 -1047.677)"/><path class="o" d="M523.984,1065.3s-3.278-4.379-4.475-6.451.815-.723,2.87-1.268c.778-.206.133-4.456,1.6-2.973,2.414,2.432,4.834,7.7,4.834,7.7Z" transform="translate(-496.028 -1023.875)"/><path class="o" d="M630.435,1801.785s-1.391.382-2.1.477-1.652-.708-2.156-.491c-.555.239-.533,2.389-.533,2.389s7.461.612,9.559-.021C636.032,1803.888,633.28,1802.674,630.435,1801.785Z" transform="translate(-594.2 -1712.919)"/><path class="k" d="M760.571,1763.594s-.174,2.878-.175,2.884a15.767,15.767,0,0,0-.316,1.6c0,1.248,5.926-1.059,4.6-1.612-.12-.05-1.017-.209-1.057-.634-.061-.654-.175-2.678-.175-2.678Z" transform="translate(-718.135 -1677.354)"/><path class="o" d="M759.188,1801.785s-1.391.382-2.1.477-1.652-.708-2.156-.491c-.555.239-.533,2.389-.533,2.389s7.461.612,9.559-.021C764.785,1803.888,762.033,1802.674,759.188,1801.785Z" transform="translate(-712.893 -1712.919)"/><path class="p" d="M512.372,1373.621l14.165.061s6.4-.168,7.41,2.045.771,30.314.771,30.314a21.408,21.408,0,0,1-3.59.32l-3.846-16.824a11.854,11.854,0,0,1-.413-4.394l.367-3.913-5.845.3s-6.626-.105-8.811-2.3S512.372,1373.621,512.372,1373.621Z" transform="translate(-489.025 -1318.255)"/><path class="i" d="M397.237,1353.628l15.231.934s6.555.532,7.566,2.745-.646,30.555-.646,30.555a28.851,28.851,0,0,1-3.794.068c.009-.2-1.56-12.982-2.431-17.031a14.215,14.215,0,0,1-.288-3.913l.55-4.537s-14.147-.08-14.849-.787C396.391,1359.464,397.237,1353.628,397.237,1353.628Z" transform="translate(-383.491 -1299.824)"/><path class="f" d="M411.093,1039.8a39.586,39.586,0,0,0-6.092-.979,15.317,15.317,0,0,0-3.3-.23c-1.191.258-3.426.376-3.634,5.544-.149,3.7-.57,12.849-.992,19.029l15.16.92C411.55,1054.582,413.1,1040.413,411.093,1039.8Z" transform="translate(-383.491 -1009.365)"/><path class="k" d="M496.948,985.524l-2.381,4.379s1.794,3.2,3.49,3.282c1.424.072,1.2-2.033,1.2-2.033a13.111,13.111,0,0,1,.907-3.94C500.847,985.993,496.948,985.524,496.948,985.524Z" transform="translate(-473.365 -960.48)"/><path class="f" d="M519.859,987.277a8.976,8.976,0,0,0,2.4,1.8,6.975,6.975,0,0,1,.6-1.865c.315-.562-.346-.965-1.149-1.236-1.076-.286-2.067-.452-2.067-.452l-.458.841A3.838,3.838,0,0,0,519.859,987.277Z" transform="translate(-496.059 -960.48)"/><g transform="translate(20.864 14.648)"><path class="k" d="M520.834,881.73c-.1-.07-2.447,5.4-1.428,7.373s3.709,3.27,5.068,2.32c1.5-1.05,3.147-7.178,1.334-9.417S520.834,881.73,520.834,881.73Z" transform="translate(-516.892 -878.71)"/><path class="m" d="M499.148,852.478a6.518,6.518,0,0,0-3.818.963c-.819-.127-2.02.011-3.647,1.545a4.787,4.787,0,0,0-.437,6.355,3.729,3.729,0,0,1,.833,3.093l.457-.666a4.271,4.271,0,0,0,.682-1.679,3.515,3.515,0,0,0,.032-1.115c-.154-.93,1.2-1.141,1.734-1.731.407-.455.755-1.657,1.409-2.415l.675-.529a3.235,3.235,0,0,1,2.414-.009C500.52,856.847,501.517,852.645,499.148,852.478Z" transform="translate(-490.246 -852.463)"/><path class="k" d="M528.311,934.64c-.181.7-.655,1.177-1.057,1.073s-.582-.755-.4-1.451.655-1.177,1.057-1.073S528.493,933.943,528.311,934.64Z" transform="translate(-523.928 -926.868)"/></g><path class="c" d="M570.712,980.864l2.223.5a1,1,0,0,1-1.224.643C570.512,981.771,570.712,980.864,570.712,980.864Z" transform="translate(-543.549 -956.184)"/><path class="k" d="M465.835,1107.28l-11.71-3.1s-3.584-4.052-6.953-8.715c-1.2,1-1.716,3.623-2.927,4.607l7.732,7.7c.268.356,13.264,1.277,13.264,1.277Z" transform="translate(-426.975 -1061.834)"/><path class="o" d="M415.664,1056.786a68.678,68.678,0,0,1-4.953-7.045c-.972-1.986.067-5.131,2-5.5s7.517,8.7,7.517,8.7Z" transform="translate(-395.72 -1014.596)"/><g transform="translate(38.077 45.226)"><path class="k" d="M718.6,1245.648c.125-.166-.138-.481-.336-.718a9.6,9.6,0,0,0-1.841-1.068,13.252,13.252,0,0,0-3.151.265,2.826,2.826,0,0,1-1.331.063c-.206-.057-.516-.136-.756-.2l-.627,1.822c1.87.105,3.815.379,3.992.386a6.99,6.99,0,0,0,1.876-.562,1.681,1.681,0,0,1,1.038.206,4.151,4.151,0,0,0,1.4.529C719.026,1246.3,718.6,1245.648,718.6,1245.648Z" transform="translate(-710.556 -1243.836)"/></g><rect class="e" width="1.484" height="21.699" transform="translate(155.118 88.514) rotate(180)"/><g transform="translate(115.895 50.644)"><path class="k" d="M1873.044,1726.858a27.081,27.081,0,0,0-.111,4.491,4.12,4.12,0,0,0,.165.542,6.775,6.775,0,0,1-.382,2.51l-8.074.029c-.44,0-.146-.265.212-.509a16.532,16.532,0,0,1,2.922-1.5c.122-.054.565-.316.725-.407a5.527,5.527,0,0,0,1.167-.959c.588-.609.677-3.594.677-3.594Z" transform="translate(-1852.086 -1694.538)"/><path class="i" d="M1861.119,1791.475a7.642,7.642,0,0,0,4.6-.118c.22.618.6,2.941.351,2.941-2.025,0-3.7.134-9.5.047-.208,0-.182-.685-.047-.836A40.038,40.038,0,0,1,1861.119,1791.475Z" transform="translate(-1844.703 -1753.997)"/><path class="k" d="M1726.843,1648.836a27.833,27.833,0,0,0-2.052,4.042,4.1,4.1,0,0,0-.085.558c-.069.651-1.438,2.132-1.438,2.132l-7.358-3.178c-.4-.173-.018-.3.414-.38a17.04,17.04,0,0,1,3.309-.2c.134,0,.652-.063.836-.082a5.779,5.779,0,0,0,1.479-.41c.8-.321,2.176-3,2.176-3Z" transform="translate(-1715.023 -1622.131)"/><path class="i" d="M1712,1691.024a7.51,7.51,0,0,0,4.234,1.717c-.068.65-.6,2.715-.824,2.618-1.842-.8-3.56-1.15-8.8-3.531-.187-.085.132-.7.32-.779A40.947,40.947,0,0,1,1712,1691.024Z" transform="translate(-1706.554 -1661.43)"/><path class="m" d="M1927.162,1314.676v1.74l-17.117,3.441-4.249,12.2,2.368-1.545-.547,18.785,3.6.024s6.238-15.761,4.192-23.688l18.945.277s8.586-3.169,4.156-12.725Z" transform="translate(-1890.229 -1313.185)"/><path class="q" d="M1828.335,1354.544s-17.757.114-19.018,1.042-10.724,24-10.724,24l4.127,1.474s8.211-13.087,8.645-14.021,3.615-7.758,4.829-8.454S1828.335,1354.544,1828.335,1354.544Z" transform="translate(-1791.402 -1351.313)"/></g><path class="e" d="M2111.176,1810.275h-14.743a1.23,1.23,0,0,0-1.23,1.23h0a.215.215,0,0,0,.215.215h16.772a.215.215,0,0,0,.215-.215h0A1.23,1.23,0,0,0,2111.176,1810.275Z" transform="translate(-1948.943 -1720.793)"/><path class="e" d="M2178.97,1797.893h-1.806a.967.967,0,0,0-.968.967h0a.967.967,0,0,0,.968.967h1.806a.967.967,0,0,0,.968-.967h0A.967.967,0,0,0,2178.97,1797.893Z" transform="translate(-2023.609 -1709.379)"/><path class="i" d="M2178.562,1037.424s3.571-.7,5.2.656-.349,13.467-.347,15.473a67.2,67.2,0,0,0,1.119,7.676s-10.824,1.895-12.543-1.118c0,0-.489-11.477-.417-12.92a40.042,40.042,0,0,1,2.121-7.978C2174.14,1038.581,2178.562,1037.424,2178.562,1037.424Z" transform="translate(-2019.341 -1008.157)"/><path class="k" d="M2223.046,967.92s.019.107.052.288a27.47,27.47,0,0,0,1.207,4.558c.509.961-1.743,4.024-3.911,3.651-.645-.111.545-2.815.488-3.1-.11-.548-.258-1.3-.41-2.063-.085-.433-.172-.871-.254-1.283l-.421-2.13Z" transform="translate(-2063.803 -944.177)"/><path class="f" d="M2223.1,968.208c-.034-.182-.052-.288-.052-.288l-3.249-.081.421,2.13c.081.41.168.846.253,1.276a3.046,3.046,0,0,0,1.551-.776,4.088,4.088,0,0,0,1.175-1.744C2223.157,968.52,2223.124,968.343,2223.1,968.208Z" transform="translate(-2063.803 -944.177)"/><path class="k" d="M2196.131,874.446a2.932,2.932,0,0,1,2.491,1.062c.96,1.239,1.994,5.07-.39,7.153s-4.74-.275-5.089-2.775S2192.657,874.356,2196.131,874.446Z" transform="translate(-2039.074 -858.073)"/><path class="k" d="M2183.717,927.6c.285.552.762.858,1.067.683s.321-.765.036-1.317-.762-.858-1.067-.683S2183.432,927.045,2183.717,927.6Z" transform="translate(-2030.354 -905.82)"/><path class="m" d="M2231.2,868.85s2.046,3.643,3.509,3.812,1.656,2.1,1.656,2.1-.523-4.461-1.972-5.321A5.392,5.392,0,0,0,2231.2,868.85Z" transform="translate(-2074.314 -852.886)"/><path class="k" d="M2270.842,917.682c-.119.647.12,1.24.535,1.325s.847-.371.966-1.018-.12-1.24-.534-1.325S2270.961,917.035,2270.842,917.682Z" transform="translate(-2110.831 -896.992)"/><path class="c" d="M2213.072,960.879l1.789-.093a.783.783,0,0,1-.792.745C2213.111,961.609,2213.072,960.879,2213.072,960.879Z" transform="translate(-2057.603 -937.675)"/><path class="f" d="M2040.765,1166.1s-17.653.3-19.493,0-2.637,2.005-2.088,3.214,2.06,1.675,4.285,1.786,20.738.632,21.26.137c.426-.4,6.039-19.591,8.08-26.608a2.646,2.646,0,0,0-1.8-3.279h0a2.649,2.649,0,0,0-3.281,1.773Z" transform="translate(-1878.706 -1104.032)"/><g transform="translate(0 37.067)"><rect class="e" width="1.493" height="21.827" transform="translate(19.204 29.78)"/><path class="e" d="M367.414,1812.382h14.83a1.237,1.237,0,0,1,1.237,1.237h0a.216.216,0,0,1-.216.216H366.393a.216.216,0,0,1-.216-.216h0A1.237,1.237,0,0,1,367.414,1812.382Z" transform="translate(-355.006 -1759.802)"/><path class="e" d="M456.024,1799.926h1.817a.973.973,0,0,1,.973.973h0a.973.973,0,0,1-.973.973h-1.817a.973.973,0,0,1-.973-.973h0A.973.973,0,0,1,456.024,1799.926Z" transform="translate(-436.937 -1748.319)"/><path class="j" d="M356.8,1354.584l-1.02-4.248a6.891,6.891,0,0,0-6.4-5.255l-12.924-.523-.4-1.316,13.375.541a8.2,8.2,0,0,1,7.608,6.25l1.084,4.514C357.76,1354.563,357.312,1354.575,356.8,1354.584Z" transform="translate(-327.242 -1327.317)"/><path class="m" d="M235.426,1164.413s17.756.3,19.608,0,2.652,2.017,2.1,3.233-2.072,1.686-4.31,1.8-20.86.635-21.385.138c-.429-.406-6.074-19.706-8.128-26.764a2.662,2.662,0,0,1,1.809-3.3h0a2.664,2.664,0,0,1,3.3,1.784Z" transform="translate(-223.204 -1139.408)"/></g><g transform="translate(39.457 35.403)"><path class="h" d="M757.073,1118.113H742.26a.966.966,0,0,0-.894.6l-4.561,11.124h-8.167a.413.413,0,0,0-.413.413h0a.413.413,0,0,0,.413.413h23.243a1.623,1.623,0,0,0,1.48-.958l4.593-10.231A.966.966,0,0,0,757.073,1118.113Z" transform="translate(-728.225 -1118.113)"/><path class="c" d="M976.434,1188.314a.815.815,0,1,1-.611-1.063A.871.871,0,0,1,976.434,1188.314Z" transform="translate(-955.562 -1181.837)"/></g><g transform="translate(117.357 35.403)"><path class="r" d="M1726.24,1118.113h14.813a.966.966,0,0,1,.894.6l4.561,11.124h8.166a.413.413,0,0,1,.414.413h0a.413.413,0,0,1-.414.413h-23.243a1.623,1.623,0,0,1-1.48-.958l-4.593-10.231A.966.966,0,0,1,1726.24,1118.113Z" transform="translate(-1725.273 -1118.113)"/><path class="c" d="M1839.484,1188.314a.815.815,0,1,0,.611-1.063A.871.871,0,0,0,1839.484,1188.314Z" transform="translate(-1830.542 -1181.837)"/></g><rect class="e" width="110.391" height="2.484" rx="1.242" transform="translate(147.433 50.437) rotate(180)"/><path class="e" d="M1994.776,1351.391h1.768l-3.808-40.859h-1.768Z" transform="translate(-1852.852 -1260.095)"/><path class="e" d="M1826.627,1351.391h-1.768l3.808-40.859h1.768Z" transform="translate(-1699.722 -1260.095)"/><path class="e" d="M902.392,1351.391h1.768l-3.808-40.859h-1.768Z" transform="translate(-845.816 -1260.095)"/><path class="s" d="M1611.466,1012.112a2.552,2.552,0,0,1-.267.648,24.624,24.624,0,0,1-2.557,3.4l-1.382-3.115s.225-.978.616-2.376A8,8,0,0,1,1611.466,1012.112Z" transform="translate(-1499.122 -983.664)"/><path class="t" d="M1559.66,866.025s7.711,3.321,7.96,3.257a20.49,20.49,0,0,0,3.195-9.792c.015-2.183-2.252-4.808-4.781-4.289-1.273.261-1.254.616-3.137,3.353A31.546,31.546,0,0,0,1559.66,866.025Z" transform="translate(-1455.242 -840.279)"/><path class="k" d="M1422.013,1756.494s.183,3.028.184,3.035a16.556,16.556,0,0,1,.332,1.684c0,1.313-6.235-1.115-4.838-1.7.127-.053.789-.451.831-.9.064-.689.227-2.082.227-2.082Z" transform="translate(-1324.178 -1671.214)"/><path class="u" d="M1355.354,1793.061a22.321,22.321,0,0,0,2.254.561c.763.112,1.77-.833,2.309-.577.594.281.571,2.809.571,2.809s-7.992.719-10.239-.025C1349.358,1795.534,1352.307,1794.106,1355.354,1793.061Z" transform="translate(-1262.043 -1704.869)"/><path class="k" d="M1585.266,1756.494s.183,3.028.184,3.035a16.622,16.622,0,0,1,.332,1.684c0,1.313-6.235-1.115-4.838-1.7.126-.053.985-.749,1.027-1.2.064-.689.03-1.784.03-1.784Z" transform="translate(-1474.676 -1671.214)"/><path class="u" d="M1521.6,1793.061a22.31,22.31,0,0,0,2.253.561c.763.112,1.77-.833,2.31-.577.594.281.618,2.809.618,2.809s-8.028.839-10.286-.025C1515.614,1795.493,1518.549,1794.106,1521.6,1793.061Z" transform="translate(-1415.301 -1704.869)"/><g transform="translate(95.742 6.35)"><path class="k" d="M1461.563,770.034l-5.491-7.693c-.023-.067-.073-.205-.149-.416-.276-.763-.852-2.352-1.353-3.932l-.005-.017c-.157-.552-.491-1.516-.814-2.448-.359-1.036-.8-2.322-.82-2.541.014-.037.04-.1.074-.194a17.742,17.742,0,0,0,.57-2.309c.061-.345.123-1.182-.287-1.182-.644,0-.337.837-.634,1.359a13.181,13.181,0,0,1-.446-1.743l-.108-1.635c-.021-.123.11-1.026-.341-1.026h-.022c-.406.03-.4.989-.565,2.611-.053-.187-.107-.412-.147-.619a5.923,5.923,0,0,0-.137-.856c.082-.452.034-1.165-.447-1.1-.241.034-.221,1.029-.221,1.029,0,.137.017,1.189.009,1.4-.05-.353-.243-1.859-.62-1.859-.313,0-.338.405-.332.726,0,.19.2,1.821.212,2.011-.147-.247-.322-1.685-.469-1.685-.611,0-.39,2.044-.166,2.577a2.4,2.4,0,0,1,.069.285,5.017,5.017,0,0,0,.524,1.521c.383.656.912,1.7.993,1.859.059.326.243,1.5.474,2.972.1.631.207,1.322.32,2.039h.006c.021.155.135.648.57,2.5a22.1,22.1,0,0,0,.682,2.687c.258.457,6.179,8.5,6.431,8.84l.149.2Z" transform="translate(-1448.62 -746.257)"/><path class="f" d="M1483.545,806.959s.446-1.14,1.239-1.142a.913.913,0,0,0-.824.141A1.571,1.571,0,0,0,1483.545,806.959Z" transform="translate(-1480.816 -801.125)"/></g><g transform="translate(105.39)"><path class="k" d="M1580.839,789.658l.707,4.471s-2.694,2.163-4.264,1.707c-1.317-.383-.414-2.105-.414-2.105a11.188,11.188,0,0,0,.486-3.638C1577.139,788.841,1580.839,789.658,1580.839,789.658Z" transform="translate(-1576.217 -779.676)"/><path class="v" d="M1588.791,791.014a11,11,0,0,1-3.049.859,5.937,5.937,0,0,0,.072-1.776c-.1-.577.635-.714,1.455-.694,1.073.092,2.029.26,2.029.26l.136.859A2.216,2.216,0,0,1,1588.791,791.014Z" transform="translate(-1584.676 -779.681)"/><path class="k" d="M1580.121,698.39c.111,0-1.064,4.995-2.885,5.854s-4.534.411-5.043-.934c-.563-1.488,1.491-6.583,4.051-7.23S1580.121,698.39,1580.121,698.39Z" transform="translate(-1572.099 -693.565)"/><path class="e" d="M1613.323,665.223a5.731,5.731,0,0,1,2.345,2.591c.682.324,1.508,1.024,1.9,2.911a4.092,4.092,0,0,1-3.082,4.646,2.792,2.792,0,0,0-2.12,1.753l-.208-1.308a5.177,5.177,0,0,1,1.023-1.709c.614-.57-.291-1.4-.371-2.078-.061-.522.323-1.534.24-2.391a5.908,5.908,0,0,0-2.026-1.929C1609.313,667.059,1611.458,664.147,1613.323,665.223Z" transform="translate(-1607.408 -664.987)"/><path class="k" d="M1636.375,756.4c-.238.577-.141,1.15.217,1.279s.841-.233,1.079-.81.141-1.15-.217-1.279S1636.613,755.821,1636.375,756.4Z" transform="translate(-1631.234 -748.485)"/></g><path class="s" d="M1426.165,995.984l-10.593-1.727s1.205-3.034,1.636-3.034,8.01,3.308,8.01,3.308l.6,1.211Z" transform="translate(-1322.412 -965.734)"/><path class="r" d="M1524.058,1139.405a34.881,34.881,0,0,1,.626,8.982c-.431,3.874-.464,17.633-.464,17.633l1.643,22.016-3.9.085s-4.623-22.005-4.537-21.44-1.55-15.494-1.55-15.494l5.512-12.266Z" transform="translate(-1414.879 -1101.892)"/><path class="h" d="M1425.471,1122.024s.689,4.6-.172,6.617-7.387,21.812-7.473,23.426-2.256,19.453-2.256,19.453l-4.534-.127-.981-19.833,2.054-24.927,1.994-6.3Z" transform="translate(-1317.326 -1084.753)"/><path class="k" d="M1585.112,832.9a4.071,4.071,0,0,1-2.161.649,7.184,7.184,0,0,1-2.517-1.047l.2-.694s2.7-.393,2.766-.35S1585.112,832.9,1585.112,832.9Z" transform="translate(-1474.393 -818.445)"/><path class="s" d="M1402.375,945.076s-4.007,3.781-5.815,3.135-2.557-2.852,1.856-6.081C1402.365,939.241,1402.375,945.076,1402.375,945.076Z" transform="translate(-1303.573 -919.737)"/><path class="m" d="M1436.786,859.961c.6-3.238,4.909-13.315,5.254-15.171.167-.9,2.494-.923,4.711-.8,2.341.124,4.667.421,4.667.421a7.121,7.121,0,0,1,2.984,1.195c.912.854,1.154,3.217-.157,7.7-1.035,3.541-2.318,5.485-2.952,8.064-.129.865-.239,1.719-.385,2.716-.233,3.856,0,8.951,0,8.951s-11.282,2.34-15.5-1.21C1435.408,871.824,1436.176,863.279,1436.786,859.961Z" transform="translate(-1340.698 -829.953)"/><path class="t" d="M1416.226,854.525s4.427,3.654,4.685,3.654c.166,0,6.317-4.525,7.737-8.242a3.25,3.25,0,0,0-2.742-4.347c-1.3.005-1.883.341-4.467,2.52A32.981,32.981,0,0,0,1416.226,854.525Z" transform="translate(-1323.015 -831.48)"/><path class="e" d="M734.243,1351.391h-1.768l3.808-40.859h1.768Z" transform="translate(-692.686 -1260.095)"/><path class="p" d="M.352,0h166.4a.352.352,0,0,1,.352.352v0A.352.352,0,0,1,166.75.7H.352A.352.352,0,0,1,0,.352v0A.352.352,0,0,1,.352,0Z" transform="translate(6.239 90.947)"/><path class="k" d="M2051.3,1130.189c-.123-.357,1.612-.639,1.706-1s-2.189-.4-2.27-.714c-.148-.584,2.5-.114,2.451-.387s-2.761-.893-2.466-1.36,2.742.936,2.818.618-2.394-1.1-2.347-1.8c.025-.372,4.05,1.872,4.519,1.671s-.5-1.955-.123-2.214,1.429,3.564,1.686,3.692,5.694,3.257,7.631,3.758c.238-.649,1.941-4.086,2.151-4.7,1.085.778,2.346.951,3.467,1.661-.821,2.036-3.633,7.044-4.2,7.3-1.728.774-8.382-4.784-9.71-5.736s-2.094-.648-2.994-.951S2051.423,1130.546,2051.3,1130.189Z" transform="translate(-1907.916 -1089.053)"/><path class="n" d="M2251.639,1051.092a51.185,51.185,0,0,0,2.712-7.245c.358-2.025-1.38-4.568-3.2-4.4s-4.549,9.175-4.549,9.175Z" transform="translate(-2088.513 -1010.18)"/><path class="c" d="M1578.782,768.632l1.659.747a.8.8,0,0,1-1.061.305C1578.479,769.309,1578.782,768.632,1578.782,768.632Z" transform="translate(-1472.825 -760.534)"/></g></g></svg>