<svg xmlns="http://www.w3.org/2000/svg" xmlns:xlink="http://www.w3.org/1999/xlink" width="541.106" height="531.924" viewBox="0 0 541.106 531.924"><defs><style>.a,.c,.e{opacity:0.95;}.a{fill:url(#a);}.b{fill:#96bfe6;}.c{fill:url(#b);}.d{fill:#4598e6;}.e{fill:url(#c);}.f{fill:#385369;}.g{fill:#eea886;}.h{fill:#434343;}.i{fill:#a77860;}.j{fill:#0e2d3d;}.k{fill:#163342;}.l{fill:#1d3b54;}.m{fill:#285173;}.n{fill:#ffbf55;}.o{fill:#183c59;}.p{fill:#616161;}.q{fill:#e0cec7;}.r{fill:#eea987;}.s{fill:#344052;}.t{fill:#eb4747;}.u{fill:#393d63;}.v{fill:#decbc4;}.w{fill:#e8734d;}.x{fill:#3c4145;}.y{fill:#51565c;}.z{fill:#f5e2d9;}.aa{fill:#d44040;}.ab{fill:#2d3133;}.ac{fill:#292c47;}.ad{fill:#fff;}.ae{fill:#424773;}.af{fill:#3a3f47;}.ag{fill:#e2d2ca;}.ah{fill:#323657;}.ai{fill:#ffdf69;}.aj{fill:#ab9546;}.ak{fill:url(#e);}</style><linearGradient id="a" x1="0.571" y1="1.795" x2="0.493" y2="0.379" gradientUnits="objectBoundingBox"><stop offset="0" stop-color="#d1d7e0"/><stop offset="1" stop-color="#ebebff"/></linearGradient><linearGradient id="b" x1="0.5" y1="1.147" x2="0.5" y2="0.24" xlink:href="#a"/><linearGradient id="c" x1="0.5" y1="2.165" x2="0.5" y2="0.322" xlink:href="#a"/><linearGradient id="e" x1="0" y1="0.5" x2="1" y2="0.5" xlink:href="#a"/></defs><g transform="translate(-1075.651 -263.873)"><path class="a" d="M58.669,0h48.823a58.67,58.67,0,0,1,58.67,58.67v48.823a58.669,58.669,0,0,1-58.669,58.669H58.669A58.669,58.669,0,0,1,0,107.493V58.669A58.669,58.669,0,0,1,58.669,0Z" transform="translate(1195.849 337.144)"/><rect class="b" width="76.93" height="3.801" transform="translate(1240.465 465.476)"/><rect class="b" width="55.138" height="3.801" transform="translate(1251.361 477.451)"/><rect class="c" width="227.411" height="266.929" rx="69.115" transform="translate(1389.346 394.773)"/><g transform="translate(1492.456 552.245)"><rect class="d" width="18.037" height="3.341"/></g><g transform="translate(1423.98 582.854)"><rect class="b" width="104.953" height="6.467"/><rect class="b" width="84.871" height="6.468" transform="translate(0 31.05)"/><rect class="b" width="49.755" height="6.467" transform="translate(0 15.525)"/></g><g transform="translate(1425.787 421.392)"><path class="d" d="M2120.5,763.9v3.266h19.233v18.05H2143V763.9Zm-130.6,21.316h3.266v-18.05h19.232V763.9h-22.5Zm149.836,93.138v18.056H2120.5v3.266H2143V878.357Zm-146.57,0H1989.9v21.323h22.5v-3.266h-19.232Z" transform="translate(-1989.895 -763.902)"/></g><g transform="translate(1549.472 582.38)"><g transform="translate(0)"><path class="d" d="M2401.757,1313.408a19.234,19.234,0,1,1,19.234-19.234A19.256,19.256,0,0,1,2401.757,1313.408Zm0-34.746a15.511,15.511,0,1,0,15.511,15.512A15.529,15.529,0,0,0,2401.757,1278.662Z" transform="translate(-2382.523 -1274.94)"/></g><g transform="translate(9.269 12.98)"><path class="d" d="M2420.685,1329.967l-8.738-8.739,2.632-2.632,6.106,6.106,8.559-8.56,2.633,2.632Z" transform="translate(-2411.947 -1316.143)"/></g></g><rect class="e" width="111.999" height="96.094" transform="translate(1222.93 343.357)"/><g transform="translate(1222.535 329.456)"><path class="f" d="M1443.867,655.545c-3.688-9.758-12.55-14.238-16.733-15.634-1.49-.495-4.15-1.363-6.954-2.27-5.052-1.632-10.571-3.408-10.571-3.408h-17.432s-6.036,2.023-12.451,4.271a.005.005,0,0,1-.005.006c-5.909,2.072-12.132,4.332-14.232,5.387-4.381,2.188-11.753,17.827-13.243,19.62a137.912,137.912,0,0,0-7.553,13.82h18.778c1.985-3.409,3.512-6.052,3.512-6.052s1.188,2.605,2.628,6.052h60.161c.951-4,1.545-9.043,1.545-9.043s3.221,4.381,6.739,9.043h17.338C1451.178,670.26,1445.945,661.052,1443.867,655.545Z" transform="translate(-1344.693 -583.144)"/><g transform="translate(41.967 3.059)"><path class="g" d="M1494.224,481.9s13.63,2.147,11.554,23.472-14.1,19.577-14.909,19.555-12.076.389-12.955-25.648C1477.914,499.279,1477.531,480.026,1494.224,481.9Z" transform="translate(-1477.914 -481.771)"/></g><g transform="translate(69.25 19.934)"><path class="g" d="M1565.313,536.038s1.492-1.594,2.04.02-2.036,8.812-2.129,9.148c0,0-.272.626-.631.282S1565.313,536.038,1565.313,536.038Z" transform="translate(-1564.521 -535.336)"/></g><g transform="translate(40.206 19.639)"><path class="g" d="M1474.452,535.129s-1.462-1.623-2.04-.02,1.843,8.848,1.952,9.188c0,0,.26.631.625.293S1474.452,535.129,1474.452,535.129Z" transform="translate(-1472.322 -534.402)"/></g><g transform="translate(40.394 0)"><path class="h" d="M1502.561,495.966l-1.952,2.609s.055-5.719-.258-6.616-.792-3.637-1.054-4.282-11.7-3.853-21.812.936c0,0,.445,4.113-.524,4.479s-.493,6.7-.493,6.7l-1.6-1.81s-2.456-16.407-1.849-18.116,2.539-11.991,23.275-5.888c0,0,6.464-1.369,7.762,3.094S1502.561,495.966,1502.561,495.966Z" transform="translate(-1472.918 -472.059)"/></g><path class="g" d="M1492.568,604.567c-.006-.019-1.749-.859-1.749-.859-.849-1.9-.218-9.91-.218-9.91s-17.359-4.418-16.864-1.04-1.5,11.228-1.5,11.228l-8.905,4.422s9.488,25.477,20.393,22.191,15.023-23.109,15.023-23.109Z" transform="translate(-1425.961 -553.864)"/><path class="i" d="M1497.146,606.6a10.292,10.292,0,0,0,7.651,3.61c3.193,0,5.485-.9,8.666-4,0,0-1.379,5.891-8.645,6.438C1504.818,612.651,1499.549,613.321,1497.146,606.6Z" transform="translate(-1449.12 -563.952)"/></g><g transform="translate(1075.651 376.552)"><g transform="translate(37.502)"><path class="j" d="M1290.391,874.928s13.256,6.484,9.979,24.123-4.728,20.017-1.062,26.909,7.992,36.294,4.693,41.867-40.84-24.489-46.046-49.712,3.3-36.44,6.306-40.62S1278.688,868.99,1290.391,874.928Z" transform="translate(-1256.304 -872.018)"/></g><g transform="translate(63.48 375.617)"><path class="k" d="M1321.719,1809.594h3v-14.169a40.248,40.248,0,0,1,9.59,9.359c3.7,5.431,8.781,4.969,16.523,4.622s7.4-3.466,6.7-7.857-8.55-5.777-11.093-6.471-8.312-10.635-10.168-13.056a33.184,33.184,0,0,1-3.871-6.47s-1.444-5.893-8.608,0-5.084,17.216-4.275,18.256S1321.719,1809.594,1321.719,1809.594Z" transform="translate(-1318.611 -1772.933)"/></g><g transform="translate(67.039 376.678)"><path class="g" d="M1341.833,1796.563c2.657,1.734,9.59,0,9.59,0-1.964-2.541-14.039-19.526-14.039-19.526-7.337-4.275-10.236,1.608-10.236,1.608C1330.141,1779.56,1339.175,1794.831,1341.833,1796.563Z" transform="translate(-1327.148 -1775.48)"/></g><g transform="translate(158.598 128.405)"><path class="g" d="M1547.135,1187.974s4.81.922,6.453-1.339c1.4-1.922,4.592-3.4,5.575-3.853,1.315-.61,4.651-3.985,5.437-2.335s-5.233,5.829-6.32,6.957,5.9,1.628,7.107,2.725-.277,12.625-5.034,11.728-9.246-5-10.114-4.988a29.71,29.71,0,0,1-3.487-.516Z" transform="translate(-1546.752 -1179.997)"/></g><g transform="translate(172.427 138.065)"><path class="g" d="M1583.665,1203.166s14.38,3.715,15.131,4.764.5,1.817-.855,1.526-14-3.188-14-3.188,16.281,7.257,17.084,7.982c.47.425.079,1.939-.662,1.85s-17.29-6.358-17.29-6.358,15.189,6.8,15.68,7.611a1.145,1.145,0,0,1-1.438,1.578c-1.161-.427-15.616-5.944-15.616-5.944s10.744,5.647,10.757,6.574c.008.568-.269,1.892-3,.348s-9.542-4.51-9.542-4.51Z" transform="translate(-1579.92 -1203.166)"/></g><g transform="translate(26.815 387.143)"><path class="k" d="M1231.517,1826.681h1.849v-10.4a22.618,22.618,0,0,1,4.79,8.351c1.5,4.969,6.88,6.442,15.084,6.211s8.32-3.47,7.626-8.322-7.626-7.4-7.626-7.4c-3.12-2.774-10.861-14.27-10.861-14.27s-4.969-1.329-8.868,1.819-2.687,10.256-2.571,12.1S1231.517,1826.681,1231.517,1826.681Z" transform="translate(-1230.671 -1800.578)"/></g><g transform="translate(16.501 161.413)"><path class="l" d="M1222.753,1263.27s-9.775,12.709-12.427,27.788,1.566,65.688,1.45,73.14-7.049,26-5.662,40.037,6.858,83.912,6.858,83.912l14.98-2.972s-.867-71.234,0-77.126,2.606-27.373,2.952-29.8,22.005-66.141,22.005-77.012S1246.324,1245.534,1222.753,1263.27Z" transform="translate(-1205.931 -1259.166)"/></g><g transform="translate(48.817 167.303)"><path class="l" d="M1317.054,1276.475s16.061,61.3,17.967,69.789,4.668,15.5,4.668,19.1c0,8.366-3.109,21.8-3.109,21.8l-20.394,97.542h-19.424s10.822-58.518,11.114-69.961c.292-11.468,9.12-27.753,7.387-32.607s-27.9-60.834-27.9-60.834S1267.544,1258.681,1317.054,1276.475Z" transform="translate(-1283.443 -1273.293)"/></g><g transform="translate(29.654 387.421)"><path class="g" d="M1257.21,1815.516l-10.861-14.27-8.868,1.819a40.212,40.212,0,0,0,6.7,11.192C1249.283,1819.948,1257.21,1815.516,1257.21,1815.516Z" transform="translate(-1237.481 -1801.246)"/></g><g transform="translate(69.964 66.319)"><path class="m" d="M1339.995,1031.084a20.04,20.04,0,0,1,11.625,5.985c5,5.36,9.7,13.909,11.01,16.768s19.679,29.355,20.633,29.951,10.186,3.681,16.3,5.74c9.441,3.177,28.366,10.055,28.366,10.055l-3.758,11.9s-35.587-11.645-44.5-13.84c-10.9-2.685-35.987-34.871-35.987-34.871S1324.985,1040.853,1339.995,1031.084Z" transform="translate(-1334.163 -1031.084)"/></g><g transform="translate(18.267 61.225)"><path class="n" d="M1256.142,1019.314s8.577,4.051,11.555,4.646,14.534,15.606,16.559,21.086,0,13.7-4.17,23.349-.238,12.866-2.144,22.515-1.293,45.748-.936,51.109-55.76,13.486-66.838,3.718c0,0,7.5-32.533,16.38-41.819,1.921-2.007,1.717-15.39.407-18.726s-16.083-28.233-16.083-28.233-1.085-25.253,5.361-30.258c5.6-4.348,20.859-5.9,23.6-6.851S1250.543,1018.48,1256.142,1019.314Z" transform="translate(-1210.169 -1018.865)"/></g><g transform="translate(47.933 40.037)"><path class="g" d="M1301.724,979.785s-.256,2.361-.552,5.553c-.114,1.263-.239,2.657-.353,4.085a96.41,96.41,0,0,0-.449,11.22s-8.916,8.933-19.049-10.424c0,0,4.261-7.983,1.053-18.85S1301.724,979.785,1301.724,979.785Z" transform="translate(-1281.321 -968.047)"/></g><g transform="translate(89.056 91.364)"><path class="o" d="M1384.181,1114.1s2.146-14.27-.136-22.948c0,0,0,7.463-4.091,18.059Z" transform="translate(-1379.954 -1091.154)"/></g><g transform="translate(41.084 61.987)"><path class="g" d="M1264.894,1022.29s6.131,18.109,22.964,16.776,7.98-15.29,7.98-15.29-4.2-2.405-5.376-2.632-18.611-.448-18.611-.448Z" transform="translate(-1264.894 -1020.695)"/></g><g transform="translate(72.027 65.068)"><path class="m" d="M1339.112,1028.084s8.816,24.388,8.816,49.244.71,65.346,3.788,78.132,11.839,52.329,11.839,52.329l6.867-3.552s-16.512-63.109-17.759-67.659.947-52.626,2.131-56.651,6.219-21.943,5.436-26.915c-.987-6.266-6.851-15.539-16.322-23.512Z" transform="translate(-1339.112 -1028.084)"/></g><g transform="translate(7.204 62.82)"><path class="m" d="M1220.839,1022.691a253.519,253.519,0,0,1,8.257,40.018c2.777,22.472-8.524,126.78-16.1,150.458l-29.361-4.736s6.32-73.73,14.9-87.148,11.31-25.289,2.048-53.294,4.059-41.875,4.059-41.875S1218.265,1022.982,1220.839,1022.691Z" transform="translate(-1183.634 -1022.691)"/></g><g transform="translate(0.91 113.486)"><path class="p" d="M1243.713,1167.956l-35.6,61.661-39.576-22.849,34.054-62.554Z" transform="translate(-1168.537 -1144.214)"/></g><g transform="translate(5.028 118.263)"><path class="q" d="M1245.181,1176.758l-31.618,54.763-35.149-20.293,30.244-55.556Z" transform="translate(-1178.415 -1155.672)"/></g><g transform="translate(45.365 122.381)"><path class="p" d="M1289.928,1177.6l2.219-3.844-14.21-8.2-2.774,3.523Z" transform="translate(-1275.163 -1165.549)"/></g><g transform="translate(42.11 159.012)"><path class="g" d="M1283.679,1272.575a7.364,7.364,0,0,1-2.328-.335s-1.243-.722-2.158-1.181a6.707,6.707,0,0,0-.721-.324,13.5,13.5,0,0,1-3.969-1.679c-1.573-1.091-7.147-7.545-7.147-7.545l2.633-4,1.931-4.1s11.7.756,13.288,1.6a4.551,4.551,0,0,1,.438.266,17.17,17.17,0,0,1,2.477,2.533c.225.193,2.336,2.258,2.262,3.137a2.884,2.884,0,0,1-1.4,2.428,6.9,6.9,0,0,1-1.476,3.493,4.287,4.287,0,0,1-2.062,3.172S1284.98,1272.254,1283.679,1272.575Z" transform="translate(-1267.355 -1253.408)"/></g><g transform="translate(0 65.956)"><path class="m" d="M1200.664,1030.577s-10.81-3.1-17.005,8.816-6.164,17-6.992,22.813c-.782,5.493-4.311,20.489-4.668,22.038s-8.35,20.015-4.685,26.47c3.684,6.489,41.1,25.585,40.864,27.015s6.481-14.439,6.481-14.439-15.141-8.439-17.621-11.037c-4.028-4.221-12.525-8.768-10.779-14,2.051-6.151,8.211-26.9,9.64-29.939S1209.778,1034.449,1200.664,1030.577Z" transform="translate(-1166.355 -1030.215)"/></g><g transform="translate(44.281 4.304)"><path class="r" d="M1297.949,882.9s19.247,6.048,8.8,39.263-36.734-3.849-33.985-24.086S1297.949,882.9,1297.949,882.9Z" transform="translate(-1272.563 -882.342)"/></g><g transform="translate(42.763 1.636)"><path class="j" d="M1306.592,898.554a43.419,43.419,0,0,1-25.569,10.558s-6.151,7.212-6.623,10.043c0,0-14.28-24.34,3.274-38.931S1313.044,892.542,1306.592,898.554Z" transform="translate(-1268.922 -875.943)"/></g><g transform="translate(48.378 28.819)"><path class="r" d="M1289.068,947.788c-.124-2.418-1.613-7.919-5.206-6.379s.22,12.743,2.6,12.053C1286.465,953.462,1289.361,953.507,1289.068,947.788Z" transform="translate(-1282.389 -941.141)"/></g><g transform="translate(53.258 48.27)"><path class="i" d="M1308.621,996.853c-.114,1.263-.239,2.657-.353,4.085,0,0-8.495-.506-14.173-13.143C1294.464,988.347,1300.689,997.49,1308.621,996.853Z" transform="translate(-1294.095 -987.795)"/></g></g><path class="c" d="M48.233,0H73.846A48.233,48.233,0,0,1,122.08,48.233V61.714a48.233,48.233,0,0,1-48.233,48.233H48.234A48.234,48.234,0,0,1,0,61.713V48.233A48.233,48.233,0,0,1,48.233,0Z" transform="translate(1378.332 275.612)"/><g transform="translate(1434.067 364.765)"><rect class="d" width="9.682" height="1.793"/></g><g transform="translate(1415.663 263.873)"><g transform="translate(10.622)"><path class="s" d="M2012.857,265.982s7.8,4.284,5.324,14.817-3.418,11.924-1.406,16.18,3.781,22.093,1.635,25.356-23.906-15.916-26.325-31.259,3.026-21.86,4.956-24.292S2005.975,262.071,2012.857,265.982Z" transform="translate(-1991.477 -263.873)"/></g><g transform="translate(24.189 39.264)"><path class="g" d="M2057,438.416h-8.352c-.4-4.12-.777-6.987-.7-7.412.123-.7-8.311-22.823-9.1-24.653s-3.885-6.732-4.289-11.353,5.618-6.486,5.618-6.486c8.133,1.457,10.887,12.707,10.887,12.707s3.415,22.813,5.142,29.233A40.852,40.852,0,0,1,2057,438.416Z" transform="translate(-2034.545 -388.512)"/></g><path class="t" d="M2053.107,402.357,2040.67,407.6s-11.432-28.369-1.85-25.2C2048.374,385.557,2052.672,391.493,2053.107,402.357Z" transform="translate(-2010.663 -344.892)"/><g transform="translate(3.919 35.629)"><path class="t" d="M2005.956,412.168c-.363,2.817-1.85,12.794-1.518,15.488.056.445.24,1.467.516,2.858h-29.989c.8-2.847,1.523-5.367,1.963-6.834,1.457-4.831.062-6.123-.674-9.988-.286-1.513-1.293-4.386-2.393-7.632-.368-1.084-.746-2.213-1.109-3.348a69.13,69.13,0,0,1-2.31-10.7c-1.809-11.537,7.064-12.646,7.064-12.646,3.3-.608,9.057-2.387,9.057-2.387l9.022,1.876a9.782,9.782,0,0,1,2.111,1.247.005.005,0,0,1,.005.005,16.479,16.479,0,0,1,2.029,1.779,54.512,54.512,0,0,1,4.907,7.095c.6.977,1.2,1.978,1.769,2.965,1.835,3.174,3.139,5.735,3.1,8.623C2009.468,403.407,2006.319,409.352,2005.956,412.168Z" transform="translate(-1970.198 -376.975)"/></g><path class="g" d="M2020.438,379.018s5.652,9.66,3.55,10.382-13.18-1.718-17.508-10.845C2006.48,378.555,2013.752,375.25,2020.438,379.018Z" transform="translate(-1991.132 -341.509)"/><path class="g" d="M2023.759,356.495s-5.02,2.125-9.566-4.869c0,0,1.221-7.942-1.362-12.536s11.289,5.507,11.289,5.507-.225.947-.457,2.345c-.119.716-.241,1.548-.335,2.431-.078.736-.138,1.509-.165,2.279A12.465,12.465,0,0,0,2023.759,356.495Z" transform="translate(-1995.263 -314.575)"/><path class="u" d="M1987.864,431.289c-1.034,5.316-8.449,11.976-8.449,11.976-.367-1.087-.745-2.214-1.108-3.347A48.522,48.522,0,0,0,1987.864,431.289Z" transform="translate(-1971.834 -378.55)"/><g transform="translate(1.112 39.611)"><path class="g" d="M1974.346,406.974c-.47,1.937-2.632,21.56-2.4,22.23.138.384,1.186,4.923,2.234,9.968H1964.5c-.991-3.251-1.579-5.95-1.436-7.478.618-6.619-1.626-27.72-1.626-27.72s-2.009-12.763,8.582-14.358c0,0,6.257.823,6.635,5.444S1974.816,405.042,1974.346,406.974Z" transform="translate(-1961.288 -389.615)"/></g><path class="t" d="M1958.241,406.472l13.144,3.07s10.427-20.244,1.036-23.941C1962.523,381.706,1955.868,395.429,1958.241,406.472Z" transform="translate(-1957.759 -346.791)"/><g transform="translate(14.955 2.705)"><path class="r" d="M2021.064,272.987s11.423,4.192,4.183,23.9-22.021-3.365-19.788-15.479S2021.064,272.987,2021.064,272.987Z" transform="translate(-2005.231 -272.459)"/></g><g transform="translate(14.536 1.067)"><path class="s" d="M2026.087,281.409a26.184,26.184,0,0,1-15.7,5.633s-2.262,5.512-2.627,7.2c0,0-9.559-16.413,1.431-24.7S2030.146,277.97,2026.087,281.409Z" transform="translate(-2003.902 -267.262)"/></g><g transform="translate(18.381 17.91)"><path class="r" d="M2020.05,324.847c-.006-1.46-.746-4.816-2.955-3.991s-.23,7.683,1.225,7.336C2018.32,328.192,2020.063,328.3,2020.05,324.847Z" transform="translate(-2016.107 -320.727)"/></g><path class="i" d="M2030.047,365.773a12.15,12.15,0,0,1-7.508-6.772c4.365,5.641,7.658,4.831,7.658,4.831C2030.119,364.567,2030.113,365.027,2030.047,365.773Z" transform="translate(-2002.132 -329.034)"/></g><g transform="translate(1398.277 295.509)"><path class="d" d="M1972.681,364.3v1.753h10.324v9.69h1.754V364.3ZM1902.57,375.74h1.754v-9.69h10.324V364.3H1902.57Zm80.436,50v9.693h-10.324v1.754h12.078V425.739Zm-78.682,0h-1.754v11.447h12.078v-1.754h-10.324Z" transform="translate(-1902.57 -364.297)"/></g><g transform="translate(1272.463 446.91)"><rect class="d" width="12.933" height="2.395" transform="translate(0)"/></g><g transform="translate(1224.04 354.405)"><path class="d" d="M1443.117,551.257V553.6h13.79v12.943h2.342V551.257Zm-93.647,15.284h2.342V553.6h13.79v-2.342H1349.47Zm107.438,66.783v12.948h-13.79v2.342h16.132v-15.29Zm-105.1,0h-2.342v15.29H1365.6v-2.342h-13.79Z" transform="translate(-1349.47 -551.257)"/></g><g transform="translate(1426 376.551)"><g transform="translate(3.541 73.802)"><path class="v" d="M2140.092,939.833h-10.939c-.2-.438-.362-.819-.5-1.123-3.246-7.664-19.974-25.239-19.974-25.239v.038a.032.032,0,0,0-.01.019v.019c-.01.028-.019.047-.029.076s-.019.086-.038.143a.335.335,0,0,0-.019.095c-.01.029-.019.048-.029.076-.686,2.561-4.056,15.319-5.74,25.9H2028.8c-.171-.981-.371-1.914-.6-2.78a60.009,60.009,0,0,1-1.428-7.655c-.009-.123-.028-.238-.038-.362-.057-.448-.1-.9-.143-1.333a70.242,70.242,0,0,1-.124-12.253c-.209.448-1.7,5.931-3.665,12.7-1.076,3.713-2.295,7.816-3.5,11.682h-17.48l21.936-63.283c.485-.381,6.179-3.132,10.33-5.112,4.237-2.018,9.349-4.98,13.967-7.512,2.361-1.3,4.589-2.466,6.522-3.352l.3-.133v-.009c3.189-1.457,5.313-2.419,5.313-2.419h.009c.077-.009.581-.057,1.381-.133,4.456-.428,18.28-1.723,22.907-1.989.381-.029.7-.038.952-.048a3.828,3.828,0,0,1,.466,0,58.318,58.318,0,0,1,7.179,2.457c.143.048.286.1.428.162.181.067.353.133.533.2.324.124.657.248.99.381.667.266,1.362.533,2.057.809.238.1.486.19.733.286,7.492,2.971,16.08,6.655,18.118,8.121,1.352.961,5.55,8.873,10.415,18.66C2131.581,903.693,2137.988,927.894,2140.092,939.833Z" transform="translate(-2001.815 -855.835)"/></g><g transform="translate(61.604 48.95)"><path class="g" d="M2212.024,799.652c-.2,9.951-19.463,15.394-19.463,15.394s-8.059-10.1-6.134-11.071c.756-.38,1.063-1.888,1.157-3.579a34.96,34.96,0,0,0-.11-4.513c-.057-.7-.112-1.156-.112-1.156s2.752-2.9,6.254-6.365c6.12-6.051,14.532-13.8,14.546-10.718a2.746,2.746,0,0,1-.071.584C2206.613,785.168,2212.024,799.652,2212.024,799.652Z" transform="translate(-2186.13 -776.945)"/></g><g transform="translate(61.035 57.078)"><path class="i" d="M2203.367,802.748v0c-.038.058-.855,1.28-2.25,3.035-2.957,3.72-8.517,9.832-14.768,12.287a35,35,0,0,0-.11-4.513,10.042,10.042,0,0,1-1.913-.231,59.353,59.353,0,0,1,4.189-6.133l3.868-1.157Z" transform="translate(-2184.324 -802.748)"/></g><g transform="translate(48.043 16.344)"><path class="g" d="M2178.814,706.882c-1.667,3.625-3.25,6.253-3.7,7.294v0a12.888,12.888,0,0,1-2.25,3.035c-3.175,3.42-9.077,7.932-14.878,7.774a10.047,10.047,0,0,1-1.914-.231c-2.342-.512-5.109-1.6-6.631-4.58-12.019-23.532-3.317-42.775-3.317-42.775s32.865-9.294,38.007.6C2187.739,684.94,2182.729,698.363,2178.814,706.882Z" transform="translate(-2143.08 -673.442)"/></g><g transform="translate(47.073)"><path class="w" d="M2144.017,641.862s-3.052-.169-3.807-5.956c-.746-5.717.762-7.3.762-7.3s13.567-5.68,18.44-6.418,16.853-1.448,19.661,1.763c0,0,6.823-1.586,8.682,9.741,2.949,17.969-10.049,35.418-10.049,35.418s.111-11.74-2.478-13.295-4.823,2.144-4.823,2.144l-5.3.948s8.043-17.368-1.6-18.011S2149.541,642.869,2144.017,641.862Z" transform="translate(-2140.003 -621.559)"/></g><g transform="translate(77.45 26.765)"><path class="g" d="M2236.6,711.477c.5-5.172,9.856-7.146,9.23-1.726s-5.233,10.629-7.36,10.446S2236.217,715.419,2236.6,711.477Z" transform="translate(-2236.431 -706.523)"/></g><g transform="translate(69.356 76.265)"><path class="x" d="M2273.747,892.759c-3.047-9.759-5.684-17.479-6.855-18.318-2.047-1.466-18.27-5.931-25.972-8.949-.248-.1-.495-.19-.733-.286-.695-.276-1.39-.543-2.057-.809-.333-.133-.667-.257-.99-.381-.181-.066-.352-.133-.533-.2-.143-.057-.286-.114-.428-.162-.009.009-.019.029-.038.038a126.518,126.518,0,0,0-8.5,10.873c-7.959,11.31-18.327,29.637-16.737,46.556.514,5.427,1.142,13.224,2.2,21.974.077.695.162,1.39.257,2.095h35.912c.438-9.159,1.219-21.222,2.4-25.9.01-.028.019-.048.029-.076a.344.344,0,0,1,.019-.095c.01-.048.029-.1.039-.143.01-.028.019-.047.028-.076v-.019a.032.032,0,0,1,.01-.019s8.692,13.586,9.139,26.324h22.6C2282.429,933.355,2278.973,909.506,2273.747,892.759Z" transform="translate(-2210.738 -863.655)"/></g><g transform="translate(0 78.54)"><path class="x" d="M2047.021,870.992s-2.714,9.026-6.217,31.561v.009c-.123.753-.238,1.523-.362,2.314-.01.086-.029.181-.038.276-.086.514-.162,1.047-.238,1.581-.009.066-.019.124-.028.191-.057.352-.114.714-.162,1.085-.133.885-.267,1.8-.4,2.723-1.314,9.2-3.066,23.811-4.846,39.406h-14.2c-.771-4.332-1.495-8.273-1.437-10.978a1.342,1.342,0,0,0-.067.181c-1.133,3.142-2.38,6.56-3.646,9.882l-.343.914h-24.468l24.372-63.759c.485-.381,6.76-3.76,10.911-5.731,4.332-2.066,9.806-4.608,14.662-6.846,2.323-1.076,4.5-2.075,6.35-2.923Z" transform="translate(-1990.573 -870.878)"/></g><g transform="translate(69.358 76.265)"><path class="y" d="M2230.84,888.342l-9.378,5.294,4.008,4.085-8.8,47.469h-3.313c-1.219-9.6-1.914-18.213-2.456-24.068-2.447-26.163,23.658-55.667,25.277-57.466,1.257.476,2.608,1,4.008,1.552Z" transform="translate(-2210.743 -863.655)"/></g><g transform="translate(40.958 78.407)"><path class="y" d="M2136.222,870.455s-3.5,11.434-7.579,39.987c-1.313,9.187-3.075,23.811-4.855,39.406h-1.381L2120.589,905l4.465-4.837-3.97-4.96,8.493-21.688c2.323-1.076,4.5-2.075,6.35-2.923Z" transform="translate(-2120.589 -870.455)"/></g><g transform="translate(68.035 71.657)"><path class="z" d="M2233.778,853.748l-7.771-4.72s-.217,4.262-19.463,15.394l5.466,15.393Z" transform="translate(-2206.544 -849.028)"/></g><g transform="translate(56.591 73.804)"><path class="z" d="M2176.541,855.844s.3,4.6,5.119,13.247L2170.994,883l-.778-22.552Z" transform="translate(-2170.216 -855.844)"/></g><g transform="translate(61.574 87.051)"><path class="aa" d="M2192.525,897.9s2.067,8.269,1.323,10.583c0,0-4.546,1.654-7.813-.413A36.318,36.318,0,0,1,2192.525,897.9Z" transform="translate(-2186.035 -897.895)"/></g><g transform="translate(54.538 95.316)"><path class="aa" d="M2174.718,943.98a207.9,207.9,0,0,0-1.371,42.633h-9.112c-.123-1.8-.238-3.675-.352-5.636-1.695-29.409,8.7-55.686,8.7-55.686l4.636-1.161S2175.728,937.125,2174.718,943.98Z" transform="translate(-2163.697 -924.13)"/></g><g transform="translate(24.495 115.958)"><path class="ab" d="M2072.654,1007.19c-.347,7.057-.3,13.323-.3,13.323v0c0,.034-.01.225-.024.54-.015-.12-.029-.237-.044-.354-1.129,3.141-2.38,6.555-3.642,9.879a105.891,105.891,0,0,1-.283-10.767c.506-19.785,6.729-30.161,6.729-30.161C2073.666,993.1,2072.981,1000.5,2072.654,1007.19Z" transform="translate(-2068.331 -989.656)"/></g></g><g transform="translate(1267.5 376.552)"><g transform="translate(0 48.571)"><path class="ac" d="M1703.724,1044.481l-38.529,21.179-38.691-60.887,46.8-16.255Z" transform="translate(-1626.504 -988.517)"/></g><g transform="translate(2.562 50.37)"><path class="ad" d="M1704.865,1045.167l-36.031,19.805-36.183-56.94,43.763-15.2Z" transform="translate(-1632.651 -992.83)"/></g><g transform="translate(42.288 79.404)"><path class="g" d="M1773.615,1075.121s-6.706-3.207-9.649-4.883-10.515-3.977-11.126-4.524-22.445-1.893-23.769-3.036-2.612,2.677,3.047,3.917,13.533,4.27,13.964,6.482-5.812,2.736-6.444,4.558.177,1.413,1.072,1.8,7.426-3.226,10.3-2.2,7.261-.395,9.463.359,12.9,4.355,12.9,4.355Z" transform="translate(-1727.931 -1062.468)"/></g><g transform="translate(7.311 79.466)"><path class="g" d="M1673.542,1101.225s-5.634-5.071-8.36-7.192-7.842-8.36-8.6-8.724-10.524-20.414-12.117-21.217,1.507-3.5,4.878,1.346,9.294,11.09,11.546,10.635.315-6.543,1.785-7.848,1.4-.383,2.117.309-.149,8.254,1.937,10.561,2.455,7,4.022,8.778,9.129,10.464,9.129,10.464Z" transform="translate(-1644.04 -1062.617)"/></g><g transform="translate(158.141 387.996)"><path class="ae" d="M2005.805,1803.717s1.219,8.459,1.371,9.729,13.557-.749,13.557-.749l1.085-10.07S2007.48,1802.523,2005.805,1803.717Z" transform="translate(-2005.805 -1802.625)"/></g><g transform="translate(136.108 397.169)"><path class="ac" d="M1976.22,1825.2s-4.247,5.1-8.354,7.319-10.563,3.1-12.992,5.4c-1.753,1.66-6.386,8.807,10.673,8.663s25.286,1.01,27.113-1.731-2.645-20.225-2.645-20.225S1985.976,1826.079,1976.22,1825.2Z" transform="translate(-1952.959 -1824.625)"/></g><g transform="translate(62.098 387.996)"><path class="ae" d="M1775.445,1803.717s1.219,8.459,1.371,9.729,13.557-.749,13.557-.749l1.085-10.07S1777.121,1802.523,1775.445,1803.717Z" transform="translate(-1775.445 -1802.625)"/></g><g transform="translate(32.185 397.169)"><path class="ac" d="M1734.841,1825.2s-4.248,5.1-8.355,7.319-19.224,4.046-21.652,6.345c-1.753,1.661-4.669,8.343,19.335,7.718,17.053-.444,25.285,1.01,27.112-1.731s-2.645-20.225-2.645-20.225S1744.831,1826.178,1734.841,1825.2Z" transform="translate(-1703.7 -1824.625)"/></g><g transform="translate(116.287 171.736)"><path class="ac" d="M1936.172,1283.926s12.595,20.011,11.655,38.1,4.567,37.837,6.459,56.733c2.109,21.065,10.741,70.936,11.054,82.2s-1.34,47.25-1.34,47.25l-17.28.4s-14.512-87.185-18.271-96.081-22.4-72.317-23.024-79.433S1936.172,1283.926,1936.172,1283.926Z" transform="translate(-1905.418 -1283.926)"/></g><g transform="translate(59.763 168.289)"><path class="ac" d="M1790.821,1281.816s-9.491,49.577-10.744,60.648-2.089,53.576-2.715,60.5-4.177,90.546-7.517,100.826h22.09s16.957-60.793,16.957-89.557,13.1-62.532,21.557-81.51,27.814-19.427,33.012-54.638C1863.462,1278.081,1797.859,1270.649,1790.821,1281.816Z" transform="translate(-1769.845 -1275.658)"/></g><g transform="translate(95.915 1.947)"><path class="g" d="M1886.665,878.239s-16.9-6.314-24.7,6.554-7.043,38.632,1.478,41.8,21.322,1.511,25.685-6.541,8.3-19.693,8.112-27.473S1891.1,880.485,1886.665,878.239Z" transform="translate(-1856.557 -876.69)"/></g><g transform="translate(104.134 36.394)"><path class="g" d="M1876.772,975.356s.7,4.564-.459,6.813,21.9,2.307,21.9,2.307a151.986,151.986,0,0,1,5.422-22.563C1907.186,951.58,1876.772,975.356,1876.772,975.356Z" transform="translate(-1876.27 -959.311)"/></g><g transform="translate(96.641)"><path class="af" d="M1893.156,911.015s-1.591,2.626-8.089,1.607-14.426-9.664-17.139-10.613-2.739-2.542-2.739-2.542l-1.7,2.481-2.882.182s2.628-7.733-1.337-10.887,4.116-25.031,24.955-17.747c0,0,16.006,4.412,15.424,13.515S1896.739,906.482,1893.156,911.015Z" transform="translate(-1858.297 -872.019)"/></g><g transform="translate(102.808 52.663)"><path class="ag" d="M1873.088,1004.649s.073-4.3,2.021-4.708,21.494-2.291,23.884-1.351v5S1894.387,1006.428,1873.088,1004.649Z" transform="translate(-1873.088 -998.33)"/></g><g transform="translate(103.453 20.818)"><path class="g" d="M1875.146,925.27c.365-1.527,4.248-5.89,5.734-1.218s-2.246,10.956-4.328,10.418S1874.222,929.141,1875.146,925.27Z" transform="translate(-1874.635 -921.951)"/></g><g transform="translate(25.152 109.736)"><path class="ah" d="M1686.912,1135.224a.055.055,0,0,1,.032,0C1686.811,1135.279,1686.791,1135.285,1686.912,1135.224Z" transform="translate(-1686.832 -1135.22)"/></g><g transform="translate(25.266 57.926)"><path class="ai" d="M1823.089,1172.435s-10.367,3.052-28.047,5-61.853-.7-62.131-2.792,9.5-77.775,8.946-81.673-.855-17.785-.855-17.785c-.218,3.805-4.1,19.349-8.775,27.822-1.691,3.062-7.364,12.657-10.1,10.475-13.234-10.566-33.726-50.382-35.025-50.717,1.093-.475,9.712-4.444,10.921-4.847,1.059-.354,10.606,9.754,16.391,16.02,2.58,2.794,4.411,4.823,4.411,4.823,1.67-3.758,7.755-27.434,9.645-35.628,4.265-18.48,3.609-19.248,3.609-19.248,12.934-3.912,32.566-11.876,32.566-11.876l25.9-1.055s23.774,5.233,33.137,9.463c.888.4.892,21.21,3.329,26.666l-7.763,16.377s-4.484,32.441-5.414,46.869C1813.414,1116.951,1823.089,1172.435,1823.089,1172.435Z" transform="translate(-1687.105 -1010.954)"/></g><g transform="translate(137.416 67.389)"><path class="ai" d="M1984.935,1087.331c-.677,2.183-3.748,4.028-5.743,4.835a7.422,7.422,0,0,1-4.147.417l-1.015-.188h0l-17.752-3.292s-3.885-44.734,24.251-55.452C1981.274,1033.893,1991.149,1067.3,1984.935,1087.331Z" transform="translate(-1956.097 -1033.65)"/></g><g transform="translate(155.35 103.274)"><path class="aj" d="M2004.273,1142.349h0a7.422,7.422,0,0,1-4.147.417l-1.015-.188h0l1.751-22.859Z" transform="translate(-1999.111 -1119.72)"/></g><g transform="translate(52.574 120.911)"><path class="aj" d="M1757.018,1166.845l-2.17,9.188s-2.354-9.22-2.241-14.011C1755.186,1164.816,1757.018,1166.845,1757.018,1166.845Z" transform="translate(-1752.603 -1162.023)"/></g><g transform="translate(130.839 4.968)"><path class="af" d="M1940.32,883.981s22.156-2.775.377,34.233Z" transform="translate(-1940.32 -883.934)"/></g><g transform="translate(15.559 51.57)"><path class="ac" d="M1666.075,1005.7l-2.252-3.869,17.739-6.12,2.251,3.849Z" transform="translate(-1663.823 -995.709)"/></g></g><g transform="translate(1271.76 527.742)"><path class="ak" d="M1531.487,1112.321h17.044l-5.217-10.821h-17.044Z" transform="translate(-1518.295 -1101.5)"/><path class="ak" d="M1506.17,1112.321h4.062l-5.217-10.821h-4.061Z" transform="translate(-1500.953 -1101.5)"/></g></g></svg>