<svg xmlns="http://www.w3.org/2000/svg" width="265" height="535" viewBox="0 0 265 535"><defs><style>.a{fill:#d4d4d4;}.b{fill:#fff;}.c{fill:#3e3d51;}.d{fill:#8282a8;}.e{fill:#f5f5f5;}.f{fill:#ececec;}.g{fill:#e1e1e1;}.h{fill:#1a2e35;}.i{fill:#fafafa;}.j{fill:#375a64;}.k{fill:#c01e29;}.l{fill:none;stroke:#fafafa;stroke-linecap:round;stroke-linejoin:round;}.m{fill:#ff4f5b;}.n{opacity:0.38;}.o{fill:#ffbf9d;}.p{fill:#ff9a6c;}</style></defs><g transform="translate(-321.531 -33.011)"><g transform="translate(-3.537 -2.332)"><g transform="translate(325.068 35.343)"><path class="a" d="M584.766,117.6h-.5V64.736A31.728,31.728,0,0,0,552.542,33H360.272a31.728,31.728,0,0,0-31.72,31.736V117.6h-.5a4.142,4.142,0,0,0-4.141,4.143v36.567a4.142,4.142,0,0,0,4.141,4.143h.5v8.722h-.5a4.142,4.142,0,0,0-4.141,4.143v36.567a4.142,4.142,0,0,0,4.141,4.143h.5V536.264A31.729,31.729,0,0,0,360.272,568h192.27a31.729,31.729,0,0,0,31.72-31.736V184.878h.5a4.142,4.142,0,0,0,4.141-4.144V121.742A4.142,4.142,0,0,0,584.766,117.6Z" transform="translate(-323.907 -33)"/><path class="b" d="M52.343,0H184.382a52.343,52.343,0,0,1,52.343,52.343V466.67a52.342,52.342,0,0,1-52.342,52.342H52.343A52.343,52.343,0,0,1,0,466.67V52.343A52.343,52.343,0,0,1,52.343,0Z" transform="translate(14.138 7.994)"/><g transform="translate(40.052 35.31)"><g transform="translate(0 5.754)"><path class="c" d="M422.206,118.529h-15.48a.634.634,0,1,1,0-1.269h15.48a.634.634,0,1,1,0,1.269Z" transform="translate(-406.092 -117.26)"/><path class="c" d="M422.206,130.245h-15.48a.635.635,0,1,1,0-1.269h15.48a.635.635,0,1,1,0,1.269Z" transform="translate(-406.092 -123.266)"/><path class="c" d="M422.206,141.962h-15.48a.634.634,0,1,1,0-1.269h15.48a.634.634,0,1,1,0,1.269Z" transform="translate(-406.092 -129.273)"/></g><g transform="translate(130.926)"><g transform="translate(15.512 7.055)"><path class="c" d="M718.118,128.548a3.4,3.4,0,0,1-1.257-.691l.4-.848a3.331,3.331,0,0,0,1.115.636,4.1,4.1,0,0,0,1.4.245,2.518,2.518,0,0,0,1.414-.321.989.989,0,0,0,.468-.854.842.842,0,0,0-.255-.636,1.714,1.714,0,0,0-.631-.375q-.376-.131-1.061-.294a10.834,10.834,0,0,1-1.387-.413,2.292,2.292,0,0,1-.9-.636,1.7,1.7,0,0,1-.376-1.159,1.962,1.962,0,0,1,.321-1.1,2.2,2.2,0,0,1,.974-.783,3.949,3.949,0,0,1,1.621-.294,5.131,5.131,0,0,1,1.327.174,3.552,3.552,0,0,1,1.121.5l-.359.87a3.951,3.951,0,0,0-1.023-.462,3.829,3.829,0,0,0-1.066-.157,2.35,2.35,0,0,0-1.387.337,1.032,1.032,0,0,0-.463.87.833.833,0,0,0,.261.636,1.807,1.807,0,0,0,.648.381,9.922,9.922,0,0,0,1.05.289,10.644,10.644,0,0,1,1.382.413,2.33,2.33,0,0,1,.9.631,1.663,1.663,0,0,1,.375,1.142,1.943,1.943,0,0,1-.326,1.094,2.186,2.186,0,0,1-.99.783,4.092,4.092,0,0,1-1.632.288A5.2,5.2,0,0,1,718.118,128.548Z" transform="translate(-716.861 -120.491)"/><path class="c" d="M734.082,125.651l-1.2,1.11v1.577h-1.044v-8.073h1.044v5.179l3.144-2.872h1.262l-2.426,2.383,2.666,3.384h-1.284Z" transform="translate(-724.541 -120.102)"/><path class="c" d="M745.258,121.094a.643.643,0,0,1-.2-.479.662.662,0,0,1,.2-.484.687.687,0,0,1,.506-.2.71.71,0,0,1,.506.191.625.625,0,0,1,.2.473.673.673,0,0,1-.2.5.688.688,0,0,1-.506.2A.7.7,0,0,1,745.258,121.094Zm-.016,1.306h1.044v5.766h-1.044Z" transform="translate(-731.316 -119.93)"/><path class="c" d="M756.224,125.256a2.669,2.669,0,0,1,1.039,1.034,3.334,3.334,0,0,1,0,3.074,2.653,2.653,0,0,1-1.039,1.039,3.031,3.031,0,0,1-1.5.37,2.674,2.674,0,0,1-1.137-.239,2.355,2.355,0,0,1-.876-.7v2.981h-1.045v-7.877h1v.914a2.217,2.217,0,0,1,.881-.723,2.784,2.784,0,0,1,1.176-.245A3.036,3.036,0,0,1,756.224,125.256Zm-.593,4.347a1.837,1.837,0,0,0,.7-.718,2.328,2.328,0,0,0,0-2.122,1.8,1.8,0,0,0-.7-.712,1.982,1.982,0,0,0-1-.25,1.931,1.931,0,0,0-.985.255,1.858,1.858,0,0,0-.7.713,2.128,2.128,0,0,0-.255,1.055,2.194,2.194,0,0,0,.25,1.061,1.8,1.8,0,0,0,.7.718,2.055,2.055,0,0,0,1.986,0Z" transform="translate(-734.704 -122.471)"/></g><path class="c" d="M726.9,129.649H697.129a12.1,12.1,0,1,1,0-24.2H726.9a12.1,12.1,0,1,1,0,24.2Zm-29.774-22.926a10.829,10.829,0,1,0,0,21.657H726.9a10.829,10.829,0,1,0,0-21.657Z" transform="translate(-685.031 -105.454)"/></g><g transform="translate(57.874 442.899)"><path class="d" d="M564.939,1036.44a3.823,3.823,0,1,0,3.822,3.823A3.827,3.827,0,0,0,564.939,1036.44Z" transform="translate(-561.116 -1036.44)"/><path class="d" d="M596.8,1044.2a3.823,3.823,0,1,1,3.822-3.823A3.827,3.827,0,0,1,596.8,1044.2Zm0-6.394a2.571,2.571,0,1,0,2.571,2.571A2.574,2.574,0,0,0,596.8,1037.808Z" transform="translate(-577.979 -1036.501)"/><path class="d" d="M596.8,1044.2a3.823,3.823,0,1,1,3.822-3.823A3.827,3.827,0,0,1,596.8,1044.2Zm0-6.394a2.571,2.571,0,1,0,2.571,2.571A2.574,2.574,0,0,0,596.8,1037.808Z" transform="translate(-546.979 -1036.501)"/><path class="d" d="M628.665,1044.319a3.823,3.823,0,1,1,3.822-3.823A3.828,3.828,0,0,1,628.665,1044.319Zm0-6.395a2.572,2.572,0,1,0,2.571,2.572A2.574,2.574,0,0,0,628.665,1037.925Z" transform="translate(-594.842 -1036.561)"/><path class="d" d="M628.665,1044.319a3.823,3.823,0,1,1,3.822-3.823A3.828,3.828,0,0,1,628.665,1044.319Zm0-6.395a2.572,2.572,0,1,0,2.571,2.572A2.574,2.574,0,0,0,628.665,1037.925Z" transform="translate(-563.842 -1036.561)"/></g></g><line class="c" x1="205.745" transform="translate(34.579 298.721)"/></g><g transform="translate(387.3 143.04)"><g transform="translate(0 119.211)"><g transform="translate(5.647)"><path class="e" d="M442.82,543.742c-1.926.31-2.788,2.677-2.619,4.621s.967,3.844.754,5.783c-.272,2.463-2.133,4.545-2.349,7.013-.256,2.911,1.8,5.493,2.417,8.35a26.613,26.613,0,0,0,.775,4.184,5.231,5.231,0,0,0,10.1-1.8c.043-2.235-1.337-4.341-1.169-6.57.124-1.648,1.09-3.209.883-4.848-.246-1.951-2.054-3.336-2.692-5.2s-.025-3.91-.245-5.865c-.395-3.506-2.339-5.95-5.856-5.669" transform="translate(-438.583 -543.72)"/></g><g transform="translate(0 16.998)"><path class="f" d="M424.385,586.593c-.328,3.249,1.109,7.071,2.779,9.876a15.484,15.484,0,0,0,7.273,6.312.8.8,0,0,0,1.314-.8,15.95,15.95,0,0,0-11.366-15.384" transform="translate(-424.338 -586.593)"/></g><g transform="translate(4.19 22.855)"><path class="g" d="M444.916,618.49a.888.888,0,0,1-.092-.181l-.232-.532c-.2-.464-.487-1.132-.859-1.951a67.439,67.439,0,0,0-7.083-12.12c-.532-.726-.97-1.308-1.279-1.706l-.35-.463a.1.1,0,1,1,.029-.024l.377.442c.326.385.781.956,1.327,1.673a58.979,58.979,0,0,1,7.1,12.145c.357.828.631,1.5.806,1.978l.2.545A.825.825,0,0,1,444.916,618.49Z" transform="translate(-434.908 -601.366)"/></g><g transform="translate(12.102 9.01)"><path class="g" d="M454.867,566.445a1.891,1.891,0,0,1,.035.312q.024.331.065.894c.051.795.123,1.915.212,3.292.175,2.779.422,6.619.72,10.858s.593,8.076.808,10.853c.105,1.375.191,2.495.252,3.289q.038.564.061.895a.157.157,0,1,1-.037,0q-.035-.329-.1-.892c-.075-.793-.18-1.911-.31-3.284-.249-2.774-.563-6.61-.862-10.851s-.524-8.081-.666-10.864c-.064-1.378-.116-2.5-.153-3.3q-.019-.564-.031-.9A2.014,2.014,0,0,1,454.867,566.445Z" transform="translate(-454.862 -566.445)"/></g><g transform="translate(9.119 35.345)"><path class="g" d="M447.339,632.871h8.136v5.973a3.905,3.905,0,0,1-3.906,3.905h0a3.9,3.9,0,0,1-3.9-3.7Z" transform="translate(-447.339 -632.871)"/></g></g><g transform="translate(118.203 118.469)"><g transform="translate(5.647)"><path class="e" d="M740.961,541.872c-1.926.31-2.788,2.677-2.619,4.621s.967,3.844.754,5.783c-.272,2.463-2.133,4.545-2.349,7.013-.256,2.911,1.8,5.493,2.417,8.35a26.656,26.656,0,0,0,.775,4.184,5.231,5.231,0,0,0,10.1-1.8c.042-2.235-1.337-4.341-1.169-6.57.124-1.648,1.089-3.209.883-4.848-.246-1.951-2.054-3.336-2.692-5.2s-.025-3.91-.245-5.865c-.4-3.506-2.339-5.95-5.856-5.669" transform="translate(-736.724 -541.85)"/></g><g transform="translate(0 16.998)"><path class="f" d="M722.526,584.722c-.328,3.249,1.109,7.071,2.78,9.876a15.482,15.482,0,0,0,7.272,6.312.8.8,0,0,0,1.314-.8,15.95,15.95,0,0,0-11.366-15.384" transform="translate(-722.479 -584.722)"/></g><g transform="translate(4.19 22.855)"><path class="g" d="M743.057,616.619a.861.861,0,0,1-.093-.181l-.231-.532c-.2-.464-.487-1.132-.859-1.952a67.512,67.512,0,0,0-7.084-12.12c-.532-.726-.97-1.308-1.279-1.706l-.35-.463a.878.878,0,0,1-.112-.169.819.819,0,0,1,.141.146l.377.442c.326.385.781.955,1.327,1.673a58.927,58.927,0,0,1,7.1,12.145c.357.828.632,1.5.806,1.978l.2.545A.842.842,0,0,1,743.057,616.619Z" transform="translate(-733.049 -599.496)"/></g><g transform="translate(12.102 9.009)"><path class="g" d="M753.009,564.574a1.983,1.983,0,0,1,.035.312q.024.331.065.895c.051.794.123,1.915.212,3.291.176,2.78.422,6.619.72,10.858s.593,8.076.808,10.853c.105,1.376.191,2.495.251,3.289q.039.563.061.894a1.989,1.989,0,0,1,.009.313,2.045,2.045,0,0,1-.046-.31q-.035-.33-.1-.892c-.075-.793-.18-1.911-.31-3.284-.249-2.774-.564-6.61-.862-10.851s-.524-8.081-.666-10.864c-.064-1.378-.116-2.5-.153-3.3q-.019-.565-.03-.9A1.948,1.948,0,0,1,753.009,564.574Z" transform="translate(-753.003 -564.574)"/></g><g transform="translate(9.119 35.345)"><path class="g" d="M745.48,631h8.135v5.973a3.905,3.905,0,0,1-3.905,3.906h0a3.906,3.906,0,0,1-3.9-3.7Z" transform="translate(-745.48 -631)"/></g></g><g transform="translate(48.753)"><path class="h" d="M601.11,373.354l-44.215-.2a9.631,9.631,0,0,1-9.587-9.672l.469-110.849a9.632,9.632,0,0,1,9.676-9.591l44.216.2a9.632,9.632,0,0,1,9.587,9.672l-.469,110.849A9.632,9.632,0,0,1,601.11,373.354Z" transform="translate(-547.308 -243.038)"/><g transform="translate(2.936 3.826)"><path class="i" d="M606.074,252.893l-8.572-.04a2.13,2.13,0,0,0-2.091,2.167l-.007,1.555a2.129,2.129,0,0,1-2.091,2.166l-16.71-.077a2.132,2.132,0,0,1-2.072-2.186l.007-1.555a2.132,2.132,0,0,0-2.073-2.186l-3.015-.014-7.5-.034a6.746,6.746,0,0,0-6.776,6.717l-.457,108.2a6.745,6.745,0,0,0,6.714,6.774l44.127.2a6.746,6.746,0,0,0,6.776-6.716l.457-108.2A6.745,6.745,0,0,0,606.074,252.893Z" transform="translate(-554.714 -252.689)"/></g><g transform="translate(26.978 17.326)"><rect class="j" width="11.384" height="2.089" transform="translate(0.01 0) rotate(0.264)"/></g><g transform="translate(6.156 24.033)"><g transform="translate(4.086 3.034)"><path class="j" d="M581.941,329.973a1.052,1.052,0,0,1,.268.038c0-.014.088-.017.249-.036Z" transform="translate(-578.451 -322.573)"/><path class="i" d="M580.054,313.328a3.347,3.347,0,0,0-.756-.749,3.539,3.539,0,0,0-4.195,0,3.572,3.572,0,0,0-1.242,1.647,3.572,3.572,0,0,0,.494,3.377c.043.058.09.108.134.162a2.556,2.556,0,0,1,2.147-1.783,1.714,1.714,0,0,1-1.026-1.6,1.613,1.613,0,1,1,3.22.015,1.716,1.716,0,0,1-1.023,1.588,2.512,2.512,0,0,1,2.109,1.777c.044-.052.088-.1.13-.156a3.57,3.57,0,0,0,.494-3.377A3.342,3.342,0,0,0,580.054,313.328Z" transform="translate(-573.443 -311.659)"/><path class="j" d="M580.435,313.8a3.764,3.764,0,0,0-1.308-1.756,3.745,3.745,0,0,0-4.462,0,3.759,3.759,0,0,0-1.308,1.756,3.756,3.756,0,0,0-.152,1.977,3.7,3.7,0,0,0,.715,1.572,3.643,3.643,0,0,0,2.07,1.325,2.918,2.918,0,0,0,.67.082.89.89,0,0,0,.235-.012,1.05,1.05,0,0,0-.268-.038l.517,0c-.162.019-.251.022-.249.036a.885.885,0,0,0,.235.012,2.916,2.916,0,0,0,.67-.082,3.645,3.645,0,0,0,2.07-1.326,3.7,3.7,0,0,0,.716-1.572A3.757,3.757,0,0,0,580.435,313.8Zm-.036,1.942a3.566,3.566,0,0,1-.657,1.508c-.042.056-.086.1-.13.156a2.512,2.512,0,0,0-2.109-1.777,1.717,1.717,0,0,0,1.023-1.588,1.613,1.613,0,1,0-3.22-.015,1.714,1.714,0,0,0,1.026,1.6,2.556,2.556,0,0,0-2.147,1.783c-.045-.053-.091-.1-.134-.162a3.572,3.572,0,0,1-.494-3.377,3.572,3.572,0,0,1,1.242-1.647,3.539,3.539,0,0,1,4.195,0,3.564,3.564,0,0,1,1.242,1.647A3.59,3.59,0,0,1,580.4,315.743Z" transform="translate(-573.139 -311.308)"/></g><path class="j" d="M613.511,317.43c0-.01.114,0,.329-.044a1.728,1.728,0,0,0,.844-.444,1.758,1.758,0,0,0,.534-1.417c0-.629-.007-1.354-.011-2.168-.005-1.633-.012-3.628-.019-5.944q0-.869,0-1.8a1.685,1.685,0,0,0-.828-1.541,3.96,3.96,0,0,0-1.945-.227l-2.135,0-45.581.034a1.635,1.635,0,0,0-1.329.687,1.588,1.588,0,0,0-.282.711c-.032.247-.013.538-.018.809q0,1.649,0,3.274,0,3.248,0,6.4a1.616,1.616,0,0,0,.672,1.245,1.573,1.573,0,0,0,.663.282,5.024,5.024,0,0,0,.753.027h3.06l5.923,0,20.492.025,13.815.036,3.756.022.977.011c.22,0,.333.012.333.012s-.113.008-.333.012l-.977.012-3.756.021-13.815.037-20.492.025-5.923,0-3.06,0a5.156,5.156,0,0,1-.793-.03,1.8,1.8,0,0,1-.756-.321,1.842,1.842,0,0,1-.766-1.417q0-3.15-.006-6.407,0-1.626,0-3.274a8.19,8.19,0,0,1,.02-.84,1.824,1.824,0,0,1,.322-.813,1.865,1.865,0,0,1,1.516-.784l45.581.034,2.135,0,1.027,0a1.823,1.823,0,0,1,1.885,1.921q0,.928,0,1.8c-.008,2.315-.014,4.311-.019,5.944,0,.815-.008,1.539-.011,2.168a1.807,1.807,0,0,1-.57,1.451,1.723,1.723,0,0,1-.872.434A1.229,1.229,0,0,1,613.511,317.43Z" transform="translate(-562.834 -303.655)"/><rect class="j" width="12.875" height="0.966" transform="translate(14.906 3.666)"/><rect class="j" width="22.559" height="0.966" transform="translate(14.906 9.123)"/><rect class="j" width="32.692" height="0.966" transform="translate(14.906 6.328)"/></g><g transform="translate(6.156 58.195)"><g transform="translate(4.086 3.034)"><path class="j" d="M581.941,416.139a1.051,1.051,0,0,1,.268.038c0-.014.088-.017.249-.036Z" transform="translate(-578.451 -408.739)"/><path class="i" d="M580.054,399.494a3.345,3.345,0,0,0-.756-.749,3.539,3.539,0,0,0-4.195,0,3.571,3.571,0,0,0-1.242,1.647,3.572,3.572,0,0,0,.494,3.377c.043.058.09.108.134.162a2.556,2.556,0,0,1,2.147-1.783,1.714,1.714,0,0,1-1.026-1.6,1.613,1.613,0,1,1,3.22.015,1.716,1.716,0,0,1-1.023,1.588,2.512,2.512,0,0,1,2.109,1.777c.044-.052.088-.1.13-.156a3.57,3.57,0,0,0,.494-3.377A3.342,3.342,0,0,0,580.054,399.494Z" transform="translate(-573.443 -397.825)"/><path class="j" d="M580.435,399.967a3.763,3.763,0,0,0-1.308-1.756,3.745,3.745,0,0,0-4.462,0,3.759,3.759,0,0,0-1.308,1.756,3.756,3.756,0,0,0-.152,1.977,3.7,3.7,0,0,0,.715,1.572,3.643,3.643,0,0,0,2.07,1.325,2.915,2.915,0,0,0,.67.083.889.889,0,0,0,.235-.012,1.053,1.053,0,0,0-.268-.038l.517,0c-.162.019-.251.022-.249.036a.884.884,0,0,0,.235.012,2.913,2.913,0,0,0,.67-.083,3.645,3.645,0,0,0,2.07-1.326,3.7,3.7,0,0,0,.716-1.572A3.757,3.757,0,0,0,580.435,399.967Zm-.036,1.942a3.566,3.566,0,0,1-.657,1.508c-.042.056-.086.1-.13.156A2.512,2.512,0,0,0,577.5,401.8a1.717,1.717,0,0,0,1.023-1.588,1.613,1.613,0,1,0-3.22-.015,1.714,1.714,0,0,0,1.026,1.6,2.556,2.556,0,0,0-2.147,1.783c-.045-.054-.091-.1-.134-.162a3.572,3.572,0,0,1-.494-3.377,3.572,3.572,0,0,1,1.242-1.647,3.539,3.539,0,0,1,4.195,0,3.565,3.565,0,0,1,1.242,1.647A3.591,3.591,0,0,1,580.4,401.909Z" transform="translate(-573.139 -397.474)"/></g><path class="j" d="M613.511,403.6c0-.01.114,0,.329-.044a1.728,1.728,0,0,0,.844-.444,1.758,1.758,0,0,0,.534-1.417c0-.629-.007-1.354-.011-2.168-.005-1.633-.012-3.628-.019-5.944q0-.869,0-1.8a1.685,1.685,0,0,0-.828-1.541,3.96,3.96,0,0,0-1.945-.227l-2.135,0-45.581.034a1.635,1.635,0,0,0-1.329.687,1.588,1.588,0,0,0-.282.711c-.032.247-.013.538-.018.809q0,1.648,0,3.274,0,3.248,0,6.4a1.616,1.616,0,0,0,.672,1.245,1.573,1.573,0,0,0,.663.282,5.012,5.012,0,0,0,.753.027h3.06l5.923,0,20.492.025,13.815.036,3.756.022.977.011c.22,0,.333.012.333.012s-.113.008-.333.012l-.977.011-3.756.021-13.815.037-20.492.025-5.923,0-3.06,0a5.144,5.144,0,0,1-.793-.03,1.8,1.8,0,0,1-.756-.321,1.842,1.842,0,0,1-.766-1.417q0-3.15-.006-6.407,0-1.626,0-3.274a8.191,8.191,0,0,1,.02-.841,1.825,1.825,0,0,1,.322-.813,1.865,1.865,0,0,1,1.516-.784l45.581.034,2.135,0,1.027,0a1.823,1.823,0,0,1,1.885,1.921q0,.928,0,1.8c-.008,2.315-.014,4.311-.019,5.944,0,.815-.008,1.539-.011,2.168a1.807,1.807,0,0,1-.57,1.451,1.723,1.723,0,0,1-.872.434A1.233,1.233,0,0,1,613.511,403.6Z" transform="translate(-562.834 -389.821)"/><rect class="j" width="12.875" height="0.966" transform="translate(14.906 3.666)"/><rect class="j" width="22.559" height="0.966" transform="translate(14.906 9.123)"/><rect class="j" width="32.692" height="0.966" transform="translate(14.906 6.328)"/></g><g transform="translate(6.369 40.796)"><g transform="translate(0)"><rect class="k" width="13.66" height="52.302" rx="3.932" transform="translate(0 13.66) rotate(-89.836)"/><rect class="i" width="12.875" height="0.966" transform="translate(14.819 3.593) rotate(0.164)"/><rect class="i" width="22.559" height="0.966" transform="translate(14.803 9.05) rotate(0.164)"/><rect class="i" width="32.692" height="0.966" transform="translate(14.811 6.255) rotate(0.164)"/><g transform="translate(3.999 2.954)"><path class="i" d="M579.43,359.2a1.716,1.716,0,0,0,.989-1.61,1.613,1.613,0,1,0-3.219.054,1.714,1.714,0,0,0,1.06,1.581,2.576,2.576,0,0,0-2.14,1.919,3.652,3.652,0,0,0,2.259,1.156l.992-.017a3.65,3.65,0,0,0,2.242-1.262A2.533,2.533,0,0,0,579.43,359.2Z" transform="translate(-575.065 -354.903)"/><path class="i" d="M577.285,360.812c0-.026.326-.015.881-.172a3.653,3.653,0,0,0,1.939-1.379,3.581,3.581,0,0,0,.424-3.4,3.583,3.583,0,0,0-1.28-1.625,3.55,3.55,0,0,0-4.208.09,3.578,3.578,0,0,0-1.21,1.679,3.579,3.579,0,0,0,.57,3.375,3.652,3.652,0,0,0,2,1.294c.561.134.888.109.887.134a2.771,2.771,0,0,1-.905-.056,3.645,3.645,0,0,1-2.093-1.281,3.7,3.7,0,0,1-.746-1.553,3.748,3.748,0,0,1,.11-1.974,3.749,3.749,0,0,1,1.267-1.778,3.733,3.733,0,0,1,4.447-.1,3.749,3.749,0,0,1,1.341,1.722,3.744,3.744,0,0,1,.195,1.968,3.688,3.688,0,0,1-.678,1.583,3.644,3.644,0,0,1-2.036,1.37A2.779,2.779,0,0,1,577.285,360.812Z" transform="translate(-573.459 -353.386)"/></g></g></g><g transform="translate(27.503 114.572)"><path class="j" d="M618.5,532.807a.921.921,0,1,1-.907-.787A.853.853,0,0,1,618.5,532.807Z" transform="translate(-616.677 -532.02)"/></g><g transform="translate(30.324 114.585)"><path class="j" d="M625.614,532.839a.921.921,0,1,1-.907-.786A.854.854,0,0,1,625.614,532.839Z" transform="translate(-623.793 -532.053)"/></g><g transform="translate(33.145 114.598)"><path class="j" d="M632.729,532.872a.921.921,0,1,1-.907-.787A.853.853,0,0,1,632.729,532.872Z" transform="translate(-630.908 -532.085)"/></g><g transform="translate(6.156 75.912)"><g transform="translate(4.086 3.035)"><path class="j" d="M581.941,460.827a1.041,1.041,0,0,1,.268.039c0-.014.088-.017.249-.036Z" transform="translate(-578.451 -453.427)"/><path class="i" d="M580.054,444.182a3.348,3.348,0,0,0-.756-.749,3.538,3.538,0,0,0-4.195,0,3.566,3.566,0,0,0-1.242,1.647,3.572,3.572,0,0,0,.494,3.377c.043.058.09.108.134.161a2.557,2.557,0,0,1,2.147-1.783,1.713,1.713,0,0,1-1.026-1.6,1.613,1.613,0,1,1,3.22.015,1.716,1.716,0,0,1-1.023,1.588,2.512,2.512,0,0,1,2.109,1.777c.044-.052.088-.1.13-.156a3.569,3.569,0,0,0,.494-3.377A3.342,3.342,0,0,0,580.054,444.182Z" transform="translate(-573.443 -442.514)"/><path class="j" d="M580.435,444.656a3.762,3.762,0,0,0-1.308-1.756,3.746,3.746,0,0,0-4.462,0,3.76,3.76,0,0,0-1.308,1.756,3.754,3.754,0,0,0-.152,1.977,3.693,3.693,0,0,0,.715,1.572,3.646,3.646,0,0,0,2.07,1.326,2.918,2.918,0,0,0,.67.082.906.906,0,0,0,.235-.012,1.04,1.04,0,0,0-.268-.039l.517,0c-.162.019-.251.022-.249.036a.9.9,0,0,0,.235.012,2.915,2.915,0,0,0,.67-.082,3.645,3.645,0,0,0,2.07-1.326,3.7,3.7,0,0,0,.716-1.572A3.757,3.757,0,0,0,580.435,444.656ZM580.4,446.6a3.564,3.564,0,0,1-.657,1.508c-.042.056-.086.1-.13.156a2.513,2.513,0,0,0-2.109-1.777,1.716,1.716,0,0,0,1.023-1.588,1.613,1.613,0,1,0-3.22-.015,1.713,1.713,0,0,0,1.026,1.6,2.557,2.557,0,0,0-2.147,1.783c-.045-.053-.091-.1-.134-.161a3.572,3.572,0,0,1-.494-3.377,3.567,3.567,0,0,1,1.242-1.647,3.538,3.538,0,0,1,4.195,0,3.568,3.568,0,0,1,1.242,1.647A3.589,3.589,0,0,1,580.4,446.6Z" transform="translate(-573.139 -442.163)"/></g><path class="j" d="M613.511,448.284c0-.01.114,0,.329-.044a1.735,1.735,0,0,0,.844-.444,1.76,1.76,0,0,0,.534-1.417c0-.629-.007-1.353-.011-2.168-.005-1.633-.012-3.629-.019-5.944q0-.869,0-1.8a1.685,1.685,0,0,0-.828-1.541,3.964,3.964,0,0,0-1.945-.226l-2.135,0-45.581.034a1.634,1.634,0,0,0-1.329.687,1.59,1.59,0,0,0-.282.712c-.032.247-.013.538-.018.808q0,1.648,0,3.274,0,3.249,0,6.4a1.616,1.616,0,0,0,.672,1.245,1.568,1.568,0,0,0,.663.282,5.024,5.024,0,0,0,.753.027l3.06,0,5.923,0,20.492.025,13.815.037,3.756.021.977.011c.22,0,.333.012.333.012s-.113.008-.333.011l-.977.012-3.756.022-13.815.036-20.492.025-5.923,0-3.06,0a5.061,5.061,0,0,1-.793-.03,1.793,1.793,0,0,1-.756-.32,1.842,1.842,0,0,1-.766-1.417q0-3.15-.006-6.407,0-1.625,0-3.274a8.193,8.193,0,0,1,.02-.841,1.821,1.821,0,0,1,.322-.813,1.866,1.866,0,0,1,1.516-.784l45.581.034,2.135,0,1.027,0a1.823,1.823,0,0,1,1.885,1.92q0,.928,0,1.8c-.008,2.315-.014,4.31-.019,5.944,0,.815-.008,1.539-.011,2.168a1.807,1.807,0,0,1-.57,1.451,1.717,1.717,0,0,1-.872.434A1.243,1.243,0,0,1,613.511,448.284Z" transform="translate(-562.834 -434.509)"/><rect class="j" width="12.875" height="0.966" transform="translate(14.906 3.666)"/><rect class="j" width="22.559" height="0.966" transform="translate(14.906 9.124)"/><rect class="j" width="32.692" height="0.966" transform="translate(14.906 6.329)"/></g><g transform="translate(6.156 93.277)"><g transform="translate(4.086 3.035)"><path class="j" d="M581.941,504.625a1.041,1.041,0,0,1,.268.039c0-.014.088-.017.249-.036Z" transform="translate(-578.451 -497.225)"/><path class="i" d="M580.054,487.98a3.355,3.355,0,0,0-.756-.749,3.539,3.539,0,0,0-4.195,0,3.571,3.571,0,0,0-1.242,1.647,3.573,3.573,0,0,0,.494,3.378c.043.058.09.108.134.161a2.556,2.556,0,0,1,2.147-1.783,1.713,1.713,0,0,1-1.026-1.6,1.613,1.613,0,1,1,3.22.015,1.716,1.716,0,0,1-1.023,1.588,2.512,2.512,0,0,1,2.109,1.777c.044-.052.088-.1.13-.156a3.57,3.57,0,0,0,.494-3.377A3.354,3.354,0,0,0,580.054,487.98Z" transform="translate(-573.443 -486.312)"/><path class="j" d="M580.435,488.454a3.762,3.762,0,0,0-1.308-1.756,3.746,3.746,0,0,0-4.462,0,3.763,3.763,0,0,0-1.308,1.757,3.754,3.754,0,0,0-.152,1.977,3.693,3.693,0,0,0,.715,1.572,3.646,3.646,0,0,0,2.07,1.326,2.935,2.935,0,0,0,.67.082.913.913,0,0,0,.235-.011,1.037,1.037,0,0,0-.268-.039l.517,0c-.162.019-.251.022-.249.036a.909.909,0,0,0,.235.011,2.933,2.933,0,0,0,.67-.082,3.645,3.645,0,0,0,2.07-1.326,3.7,3.7,0,0,0,.716-1.572A3.757,3.757,0,0,0,580.435,488.454ZM580.4,490.4a3.564,3.564,0,0,1-.657,1.508c-.042.056-.086.1-.13.156a2.513,2.513,0,0,0-2.109-1.777,1.716,1.716,0,0,0,1.023-1.588,1.613,1.613,0,1,0-3.22-.015,1.713,1.713,0,0,0,1.026,1.6,2.556,2.556,0,0,0-2.147,1.783c-.045-.053-.091-.1-.134-.161a3.573,3.573,0,0,1-.494-3.378,3.572,3.572,0,0,1,1.242-1.647,3.539,3.539,0,0,1,4.195,0,3.565,3.565,0,0,1,1.242,1.647A3.591,3.591,0,0,1,580.4,490.4Z" transform="translate(-573.139 -485.961)"/></g><path class="j" d="M613.511,492.082c0-.01.114,0,.329-.044a1.733,1.733,0,0,0,.844-.445,1.759,1.759,0,0,0,.534-1.417c0-.629-.007-1.353-.011-2.168-.005-1.633-.012-3.628-.019-5.944q0-.869,0-1.8a1.685,1.685,0,0,0-.828-1.541,3.964,3.964,0,0,0-1.945-.227l-2.135,0-45.581.034a1.634,1.634,0,0,0-1.329.687,1.59,1.59,0,0,0-.282.712c-.032.247-.013.538-.018.808q0,1.648,0,3.274,0,3.249,0,6.4a1.616,1.616,0,0,0,.672,1.245,1.568,1.568,0,0,0,.663.282,5.02,5.02,0,0,0,.753.027l3.06,0,5.923,0,20.492.025,13.815.036,3.756.022.977.011c.22,0,.333.012.333.012s-.113.008-.333.011l-.977.011-3.756.022-13.815.036-20.492.025-5.923,0-3.06,0a5.047,5.047,0,0,1-.793-.03,1.793,1.793,0,0,1-.756-.32,1.842,1.842,0,0,1-.766-1.417q0-3.15-.006-6.407,0-1.625,0-3.274a8.191,8.191,0,0,1,.02-.841,1.822,1.822,0,0,1,.322-.813,1.866,1.866,0,0,1,1.516-.784l45.581.034,2.135,0,1.027,0a1.823,1.823,0,0,1,1.885,1.92q0,.928,0,1.8c-.008,2.315-.014,4.31-.019,5.944,0,.815-.008,1.539-.011,2.168a1.806,1.806,0,0,1-.57,1.451,1.717,1.717,0,0,1-.872.434A1.246,1.246,0,0,1,613.511,492.082Z" transform="translate(-562.834 -478.307)"/><rect class="j" width="12.875" height="0.966" transform="translate(14.906 3.666)"/><rect class="j" width="22.559" height="0.966" transform="translate(14.906 9.124)"/><rect class="j" width="32.692" height="0.966" transform="translate(14.906 6.329)"/></g><g transform="translate(54.345 39.284)"><circle class="h" cx="2.642" cy="2.642" r="2.642"/><path class="l" d="M687.782,347.411l1.109.976,1.479-1.525" transform="translate(-686.434 -344.983)"/></g></g><g transform="translate(16.125 42.099)"><g transform="translate(15.793 117.39)"><path class="m" d="M505.5,645.312l-.648,3.757,5.788.422.021-3.691Z" transform="translate(-504.847 -645.312)"/><g transform="translate(2.856 0.052)"><path class="h" d="M512.448,645.442a16.967,16.967,0,0,1-.38,3.411,17.048,17.048,0,0,1,.38-3.411Z" transform="translate(-512.05 -645.442)"/></g><g transform="translate(0.11 3.02)"><path class="h" d="M510.8,653.682a4.472,4.472,0,0,1-.839-.063l-2.012-.223c-.786-.09-1.5-.186-2.009-.274a3.741,3.741,0,0,1-.821-.184,4.441,4.441,0,0,1,.838.063l2.013.223c.785.09,1.5.186,2.008.274A3.754,3.754,0,0,1,510.8,653.682Z" transform="translate(-505.124 -652.93)"/></g></g><g transform="translate(30.882 116.013)"><g transform="translate(0.087)"><path class="m" d="M549.488,645.265l.01-3.367-6.307-.059-.067,4.926.391.029c1.739.113,8.852.452,10.019.111C554.835,646.522,549.488,645.265,549.488,645.265Z" transform="translate(-543.124 -641.838)"/><g class="n" transform="translate(0.008 3.068)"><path d="M545.423,651.406a2.188,2.188,0,0,0-.792-1.352,2.126,2.126,0,0,0-1.47-.473l-.018,1.763Z" transform="translate(-543.143 -649.576)"/></g></g><g class="n" transform="translate(0.087 4.134)"><path d="M552.1,652.266s1.873.559,1.636.867-7.438.234-10.611-.075l.012-.141,8.4.156S551.732,652.278,552.1,652.266Z" transform="translate(-543.124 -652.266)"/></g><g transform="translate(0 4.777)"><path class="h" d="M542.9,653.89a.549.549,0,0,0,.108.013l.311.022,1.146.061c.968.044,2.305.088,3.784.1s2.817,0,3.786-.023l1.147-.036.312-.015a.55.55,0,0,0,.109-.011.662.662,0,0,0-.109,0h-.312l-1.147.012c-.968.01-2.306.016-3.784,0s-2.815-.052-3.783-.082l-1.147-.036-.312-.008A.647.647,0,0,0,542.9,653.89Z" transform="translate(-542.904 -653.887)"/></g><g transform="translate(8.484 4.057)"><path class="h" d="M564.313,653.053a2.6,2.6,0,0,1,.22-.545,2.57,2.57,0,0,1,.4-.435,1.019,1.019,0,0,0-.615.98Z" transform="translate(-564.303 -652.071)"/></g><g transform="translate(6.64 3.554)"><path class="h" d="M559.655,651.324c.017.011.108-.1.2-.24s.155-.27.137-.281-.108.1-.2.24S559.637,651.313,559.655,651.324Z" transform="translate(-559.652 -650.802)"/></g><g transform="translate(6.134 3.449)"><path class="h" d="M558.377,650.889c.014.016.114-.05.224-.146s.187-.187.173-.2-.114.05-.224.146S558.363,650.873,558.377,650.889Z" transform="translate(-558.375 -650.537)"/></g><g transform="translate(5.819 3.171)"><path class="h" d="M557.58,649.867a.735.735,0,0,0,.328.046.167.167,0,1,0-.328-.046Z" transform="translate(-557.58 -649.835)"/></g><g transform="translate(5.712 2.776)"><path class="h" d="M557.311,648.845a.926.926,0,0,0,.746.064,27.227,27.227,0,0,1-.746-.064Z" transform="translate(-557.31 -648.839)"/></g><g transform="translate(6.862 2.969)"><path class="h" d="M560.213,649.886a1.188,1.188,0,0,0,.406,0,2.393,2.393,0,0,0,.432-.091,1.177,1.177,0,0,0,.248-.1.218.218,0,0,0,.1-.125.159.159,0,0,0-.06-.163.743.743,0,0,0-.921.208.72.72,0,0,0-.135.269.224.224,0,0,0-.012.109,1.143,1.143,0,0,1,.188-.344.731.731,0,0,1,.348-.221.63.63,0,0,1,.483.038c.064.048.038.124-.034.166a1.211,1.211,0,0,1-.229.1,2.8,2.8,0,0,1-.418.1C560.368,649.874,560.213,649.873,560.213,649.886Z" transform="translate(-560.213 -649.327)"/></g><g transform="translate(6.445 2.761)"><path class="h" d="M559.682,649.59a.4.4,0,0,0,.05-.281.667.667,0,0,0-.108-.3.406.406,0,0,0-.335-.21.161.161,0,0,0-.126.186.437.437,0,0,0,.067.182,1.227,1.227,0,0,0,.189.247.589.589,0,0,0,.23.167c.007-.01-.08-.074-.19-.2a1.392,1.392,0,0,1-.167-.245c-.055-.086-.092-.24.01-.258s.2.093.265.174a.669.669,0,0,1,.112.265A1.49,1.49,0,0,1,559.682,649.59Z" transform="translate(-559.16 -648.802)"/></g><g transform="translate(0.146 3.017)"><path class="h" d="M543.272,649.486c0,.014.181-.015.465.021a1.975,1.975,0,0,1,1.639,1.333c.094.272.1.453.115.452a.36.36,0,0,0,0-.127,1.682,1.682,0,0,0-.065-.341,1.918,1.918,0,0,0-1.684-1.371,1.639,1.639,0,0,0-.347.006A.377.377,0,0,0,543.272,649.486Z" transform="translate(-543.272 -649.447)"/></g><g transform="translate(0.748 0.438)"><path class="h" d="M544.869,642.942a22.121,22.121,0,0,0-.059,2.592,11.057,11.057,0,0,0,.067-1.295A10.839,10.839,0,0,0,544.869,642.942Z" transform="translate(-544.792 -642.942)"/></g><g transform="translate(3.175 4.284)"><path class="h" d="M550.911,652.65a5.18,5.18,0,0,0,1.843.036c0-.022-.414,0-.922-.012S550.913,652.628,550.911,652.65Z" transform="translate(-550.911 -652.643)"/></g><g transform="translate(1.935 4.274)"><path class="h" d="M547.789,652.621c-.016.015.033.088.074.182s.063.179.085.178.033-.1-.015-.209S547.8,652.606,547.789,652.621Z" transform="translate(-547.786 -652.619)"/></g><g transform="translate(1.475 3.689)"><path class="h" d="M546.628,651.147c-.015.015.025.081.089.148s.129.109.145.094-.025-.081-.09-.147S546.643,651.132,546.628,651.147Z" transform="translate(-546.625 -651.144)"/></g><g transform="translate(0.814 3.386)"><path class="h" d="M544.958,650.413c0,.021.088.021.18.055s.159.083.175.069-.035-.1-.15-.142S544.952,650.393,544.958,650.413Z" transform="translate(-544.957 -650.378)"/></g><g transform="translate(0.34 3.277)"><path class="h" d="M543.763,650.117c-.008.019.028.052.08.073s.1.022.109,0-.028-.052-.08-.073S543.771,650.1,543.763,650.117Z" transform="translate(-543.762 -650.103)"/></g></g><g transform="translate(17.279)"><g transform="translate(3.892 1.616)"><path class="o" d="M525.011,368.8c.048-.988.152-2.1.152-2.1a2.958,2.958,0,0,0,2.591-2.793c.148-2.523,0-8.342,0-8.342L523.3,353.3l-4.894,3.862.742,12.617,4.5.286A1.3,1.3,0,0,0,525.011,368.8Z" transform="translate(-518.41 -353.299)"/></g><g transform="translate(9.917 8.793)"><path class="p" d="M534.622,372.836c.007,0,.008.047-.038.109a.347.347,0,0,1-.281.124c-.283-.013-.556-.327-.657-.71a1.209,1.209,0,0,1-.012-.561.481.481,0,0,1,.266-.38.24.24,0,0,1,.188,0,.214.214,0,0,1,.1.1c.033.075.008.121,0,.117s-.007-.042-.044-.089a.164.164,0,0,0-.21-.044.4.4,0,0,0-.182.316,1.17,1.17,0,0,0,.021.5c.088.343.326.623.538.649a.32.32,0,0,0,.238-.065C534.6,372.867,534.613,372.832,534.622,372.836Z" transform="translate(-533.607 -371.4)"/></g><g transform="translate(0.751)"><path class="h" d="M520.652,361.011c.034-.093.054-.19.08-.285l.059-.209h0a3.267,3.267,0,0,0,.07-.63,1.211,1.211,0,0,1-1.28-.277,1.337,1.337,0,0,1-.3-1.325,1.917,1.917,0,0,1,1.141-1.076c.491-.207,1.019-.309,1.5-.538a5.013,5.013,0,0,0,2.213-2.554,3.492,3.492,0,0,0,.36-2.374c-.34-1.162-1.575-1.739-2.7-2.058a8.526,8.526,0,0,0-5.239-.084c-1.672.616-3.684,1.7-3.683,3.547-.987-.081-1.551.784-1.943,1.855a14.5,14.5,0,0,0-.436,2.031" transform="translate(-510.489 -349.222)"/></g><path class="h" d="M514.2,374.138a8.675,8.675,0,0,1-3.73-7.7c.252-5.3,10.163,3.978,10.163,3.978s-1.9,6.241-6.23,3.724" transform="translate(-509.72 -358.625)"/><g transform="translate(1.541 6.827)"><path class="m" d="M513.95,369.845c-.027-.025.172-.211.333-.6a1.915,1.915,0,0,0-1.14-2.607c-.392-.143-.663-.123-.663-.159a1.09,1.09,0,0,1,.708.02,1.951,1.951,0,0,1,1.227,2.807C514.2,369.709,513.96,369.862,513.95,369.845Z" transform="translate(-512.48 -366.441)"/></g><g transform="translate(0 3.145)"><path class="h" d="M509.564,361c0,.01-.1.016-.259-.055a1.161,1.161,0,0,1-.523-.5,1.758,1.758,0,0,1-.172-1.061,3.288,3.288,0,0,1,.408-1.242,2.006,2.006,0,0,1,.985-.873,1.411,1.411,0,0,1,1.078,0,1.191,1.191,0,0,1,.554.468c.086.151.1.247.086.251a1.424,1.424,0,0,0-.693-.582,1.3,1.3,0,0,0-.953.045,1.881,1.881,0,0,0-.879.8,2.493,2.493,0,0,0-.284,2.13A1.352,1.352,0,0,0,509.564,361Z" transform="translate(-508.594 -357.154)"/></g></g><g transform="translate(0 2.807)"><path class="o" d="M528.277,362.27c-.177-.183-.613-.1-.613-.1a2.352,2.352,0,0,0,0-.768c-.08-.25-.638-.2-.638-.2a2.6,2.6,0,0,1,.014-.629.224.224,0,0,0-.13-.223,2.066,2.066,0,0,0-.834-.152c-.342-.244,1.041-2.178,1.554-2.8s.421-1.1-.036-1.1a12.989,12.989,0,0,0-2.419,2.483c-.492.624-1.813,2.359-1.858.974a3.561,3.561,0,0,0-.95-2.611c-.348-.178-.723.24-.531.625a5.068,5.068,0,0,1,.31,1.363,3.31,3.31,0,0,1-.051,1.12,12.919,12.919,0,0,1-.6,2l-.034-.019S511.8,371.5,511.1,372.162c-.627.6-13.182-.7-15.7-.971a17.443,17.443,0,0,0-2.588-.176c-1.091.048-1.285.2-2.377.217a48.458,48.458,0,0,0-7.754.648c-2.507.424-3.887,2.386-4.664,4.808-2.539,7.923-9.408,26.576-10.432,37.113a44,44,0,0,0-2.073,4.282c-.711,1.937-.539,2-.3,2.047.643.119,1.38-3.359,1.655-2.52s-1.4,4.149-.718,4.246c.884.126,1.588-3.529,1.67-3.834s.526-.2.437.075c-.128.39-1.374,4.521-.508,4.653.481.074.532-.8.532-.8s.881-3.95,1.288-3.874-.026,2.414-.23,3.191.082,1.176.5.983a12.96,12.96,0,0,0,1.146-3.272c.184-.773.649-2.9,1.274-1.667a3.561,3.561,0,0,0,1.962,1.968.434.434,0,0,0,.217-.791,5.05,5.05,0,0,1-.855-1.1,3.287,3.287,0,0,1-.426-1.037,11.464,11.464,0,0,1-.309-2.24l-.072-.455c.991-4.911,4.352-21.643,8.457-30.847l1.186,5.8.734,2.575-4.5,11.128,19.218-.253-2.865-11.04,3.481-11.512h0c3.767.084,13.443.224,15.069-.5,2.027-.906,12.518-14.131,12.518-14.131h0a24.9,24.9,0,0,0,1.961-1.7S528.661,362.665,528.277,362.27Z" transform="translate(-465.011 -356.302)"/></g><g transform="translate(6.811 16.923)"><path class="k" d="M488.185,415.606c.557-1.9,3.422-11.313,3.422-11.313s1.406,7.672,1.036,8.6a16.288,16.288,0,0,1-1.208,2.283c-3.249,4.948-2.823,7.422-2.823,7.422l19.629-.6c.048-2.745-1.577-9.127-1.917-10.144s.787-4.354.787-4.354,2.218-2.253,2.133-3.412a18.708,18.708,0,0,0-.387-3.09l14.538.278-1.627-7.9-14.018-1.024-4.664-.437c-2.344,1.979-5.862,0-5.862,0-4.473.437-5.128,1.153-6.964,2.987-2.178,2.175-8.069,18.8-8.069,18.8Z" transform="translate(-482.19 -391.907)"/><g transform="translate(10.603 21.07)"><path class="h" d="M515.935,445.766a4.19,4.19,0,0,1-1.034.052c-.639,0-1.522-.044-2.492-.141s-1.844-.235-2.471-.358a4.23,4.23,0,0,1-1-.257,5.123,5.123,0,0,1,1.029.1c.631.082,1.5.192,2.468.29s1.841.162,2.476.207A5.1,5.1,0,0,1,515.935,445.766Z" transform="translate(-508.934 -445.052)"/></g><g transform="translate(11.337 20.109)"><path class="h" d="M518.4,442.633a4.585,4.585,0,0,1-1.072.365,19.424,19.424,0,0,1-5.412.643,4.582,4.582,0,0,1-1.127-.1,6.891,6.891,0,0,1,1.127-.059c.694-.022,1.651-.073,2.7-.2s1.993-.3,2.673-.442A6.931,6.931,0,0,1,518.4,442.633Z" transform="translate(-510.785 -442.627)"/></g><g transform="translate(23.907 12.669)"><path class="h" d="M544.133,423.862a4.267,4.267,0,0,1-.134,1c-.114.612-.293,1.453-.52,2.376s-.456,1.752-.638,2.347a4.217,4.217,0,0,1-.345.95,4.578,4.578,0,0,1,.187-.992l.572-2.36c.217-.874.414-1.666.585-2.357A4.557,4.557,0,0,1,544.133,423.862Z" transform="translate(-542.489 -423.862)"/></g></g><g transform="translate(12.149 47.144)"><path class="j" d="M496.605,468.73l19.629-.6,8.537,33.351L523.2,539.738H512.809L514.1,502.3,506.5,479.079l1.153,61.053-10.489.155-1.088-57.322c-.046-1.624-.58-5.286-.381-6.9Z" transform="translate(-495.654 -468.131)"/><g transform="translate(7.039 10.12)"><path class="h" d="M519.834,494.957a3.779,3.779,0,0,1-.963-.057c-.591-.07-1.4-.194-2.293-.373s-1.687-.379-2.259-.543a3.773,3.773,0,0,1-.91-.32c.017-.064,1.443.282,3.214.636S519.842,494.891,519.834,494.957Z" transform="translate(-513.41 -493.657)"/></g><g transform="translate(17.228 69.394)"><path class="h" d="M549.33,643.276c0,.064-2.352.116-5.253.116a43.4,43.4,0,0,1-4.969-.153c0-.063,2.067-.078,4.969-.078S549.33,643.213,549.33,643.276Z" transform="translate(-539.109 -643.161)"/></g><g transform="translate(1.661 69.509)"><path class="h" d="M510.037,643.567c0,.064-2.282.115-5.1.115s-5.1-.051-5.1-.115,2.282-.115,5.1-.115S510.037,643.5,510.037,643.567Z" transform="translate(-499.845 -643.452)"/></g><g transform="translate(9.559 10.66)"><path class="h" d="M520.781,553.983c-.064,0-.339-13.2-.616-29.479s-.449-29.485-.386-29.485.34,13.2.617,29.482S520.845,553.982,520.781,553.983Z" transform="translate(-519.766 -495.019)"/></g><g transform="translate(18.987 0.599)"><path class="h" d="M550.612,538.551a1.053,1.053,0,0,1,0-.18c0-.131.005-.306.01-.53.014-.479.033-1.163.059-2.038.062-1.782.151-4.34.26-7.495.242-6.338.576-15.074.945-24.724,0-.089.007-.178.011-.26l0,.033-5.953-23.84c-.748-3.041-1.354-5.5-1.776-7.221l-.471-1.965c-.05-.216-.088-.386-.117-.512a1.059,1.059,0,0,1-.033-.176,1.015,1.015,0,0,1,.055.171l.139.507c.121.459.293,1.115.513,1.955.439,1.712,1.069,4.169,1.847,7.2l6.02,23.823,0,.016v.017c0,.082-.007.171-.01.26-.4,9.648-.753,18.383-1.013,24.721-.14,3.154-.254,5.71-.333,7.492-.044.875-.079,1.559-.1,2.037-.013.224-.024.4-.032.53A1.022,1.022,0,0,1,550.612,538.551Z" transform="translate(-543.544 -469.641)"/></g><g transform="translate(17.951 33.486)"><path class="h" d="M545.649,552.608a12.09,12.09,0,0,1-2.3.511c-.954.164-1.779.277-2.139.3v-.09c.119.033.184.058.181.075s-.072.021-.2.015l-.268-.011.268-.078c.346-.1,1.16-.27,2.115-.434A12.028,12.028,0,0,1,545.649,552.608Z" transform="translate(-540.932 -552.592)"/></g><g transform="translate(18.347 34.395)"><path class="h" d="M546.054,555.264a32.238,32.238,0,0,1-4.123-.321,13.1,13.1,0,0,1,4.123.321Z" transform="translate(-541.931 -554.883)"/></g><g transform="translate(0.864)"><path class="h" d="M497.833,469.435a2.7,2.7,0,0,0,1.938,1.031,8.775,8.775,0,0,0,2.38-.045,123.445,123.445,0,0,0,15.4-2.29c-6.423.36-13.206.239-19.629.6,0,0-.055.442-.067.548" transform="translate(-497.833 -468.131)"/></g><g transform="translate(7.484 10.357)"><path class="h" d="M514.532,494.254l3.619,14.047-.253-13.456Z" transform="translate(-514.532 -494.254)"/></g></g><g transform="translate(10.495 6.901)"><g transform="translate(0.126 0.19)"><path class="h" d="M500.084,367.165c-1.4-.37-2.851,1.116-2.9,2.558-.015.412.046.887-.247,1.178-.31.31-.819.218-1.257.252a2,2,0,0,0-1.773,1.741c-.062.644.193,1.332-.075,1.921-.255.56-.892.823-1.324,1.261a2.826,2.826,0,0,0-.695,2.194,8.226,8.226,0,0,0,.615,2.282,2.556,2.556,0,0,0,1.269,1.674h5.863l.442-2.214.716,2.214h.954l-.513-14.366S501.154,367.449,500.084,367.165Z" transform="translate(-491.801 -367.107)"/></g><path class="h" d="M491.874,373.737a.392.392,0,0,0-.157.032.308.308,0,0,0-.14.381.67.67,0,0,0,.53.43.7.7,0,0,0,.772-.928,2.4,2.4,0,0,0-.321-.53,1.889,1.889,0,0,1-.363-1.4,1.79,1.79,0,0,1,.89-1.328,1.889,1.889,0,0,1,1.709-.1,3.125,3.125,0,0,0,1.526.509.7.7,0,0,0,.576-.346,1.459,1.459,0,0,0,.08-.705,3.208,3.208,0,0,1,.926-2.478,2.366,2.366,0,0,1,1.67-.643,1.859,1.859,0,0,1,.486.083.49.49,0,0,1,.157.07,3.678,3.678,0,0,0-.644-.073,2.347,2.347,0,0,0-1.569.668,3.09,3.09,0,0,0-.837,2.365,1.613,1.613,0,0,1-.094.8.9.9,0,0,1-.73.458,1.654,1.654,0,0,1-.858-.153c-.267-.114-.512-.26-.77-.367a1.691,1.691,0,0,0-1.53.083,1.6,1.6,0,0,0-.8,1.18,1.715,1.715,0,0,0,.316,1.278,2.486,2.486,0,0,1,.33.574.828.828,0,0,1-.031.634.839.839,0,0,1-.4.41.809.809,0,0,1-.509.05.756.756,0,0,1-.585-.523.359.359,0,0,1,.2-.44C491.816,373.691,491.878,373.736,491.874,373.737Z" transform="translate(-491.484 -366.629)"/></g><g transform="translate(29.439 17.701)"><path class="h" d="M543.428,402.042a1.463,1.463,0,0,1-.452-.009,3.843,3.843,0,0,1-1.186-.347,4.465,4.465,0,0,1-1.467-1.1,4.066,4.066,0,0,1-.775-4.251,4.465,4.465,0,0,1,.983-1.55,3.86,3.86,0,0,1,.987-.743,1.5,1.5,0,0,1,.42-.169,5.886,5.886,0,0,0-1.3,1.011,4.521,4.521,0,0,0-.911,1.516,3.971,3.971,0,0,0,.741,4.06,4.527,4.527,0,0,0,1.388,1.1A5.9,5.9,0,0,0,543.428,402.042Z" transform="translate(-539.265 -393.87)"/></g></g></g></g></g></svg>