<svg xmlns="http://www.w3.org/2000/svg" width="265" height="535" viewBox="0 0 265 535"><defs><style>.a{fill:#d4d4d4;}.b,.k{fill:#fff;}.c{fill:#3e3d51;}.d{fill:#8282a8;}.e,.w{fill:none;}.e{stroke:#e4e4e4;stroke-width:4px;stroke-dasharray:32.088 32.088;}.e,.k,.w{stroke-miterlimit:10;}.f{fill:#f6f5f5;}.g{fill:#a9bae6;}.h{fill:#e4e4e4;}.i{fill:#708cd5;}.j{fill:#d3dfff;}.k{stroke:#708cd5;stroke-width:6px;}.l{fill:#c01e29;}.m{fill:#f9b384;}.n,.r{fill:#1f3c88;}.o,.s{fill:#e28b6d;}.p,.q{fill:#102048;}.q,.s,.y{opacity:0.6;}.r,.w{opacity:0.3;}.t,.y{fill:#6f3428;}.u{fill:#ee6f57;}.v{fill:#fbc343;}.w{stroke:#6f3428;stroke-width:8px;}.x{fill:#fc8879;opacity:0.4;}</style></defs><g transform="translate(-322.412 -32)"><g transform="translate(-1.495 -1)"><g transform="translate(323.907 33)"><path class="a" d="M584.766,117.6h-.5V64.736A31.728,31.728,0,0,0,552.542,33H360.272a31.728,31.728,0,0,0-31.72,31.736V117.6h-.5a4.142,4.142,0,0,0-4.141,4.143v36.567a4.142,4.142,0,0,0,4.141,4.143h.5v8.722h-.5a4.142,4.142,0,0,0-4.141,4.143v36.567a4.142,4.142,0,0,0,4.141,4.143h.5V536.264A31.729,31.729,0,0,0,360.272,568h192.27a31.729,31.729,0,0,0,31.72-31.736V184.878h.5a4.142,4.142,0,0,0,4.141-4.144V121.742A4.142,4.142,0,0,0,584.766,117.6Z" transform="translate(-323.907 -33)"/><path class="b" d="M52.343,0H185.294a52.343,52.343,0,0,1,52.343,52.343V467.186a52.342,52.342,0,0,1-52.342,52.342H52.343A52.343,52.343,0,0,1,0,467.185V52.343A52.343,52.343,0,0,1,52.343,0Z" transform="translate(13.682 7.736)"/><g transform="translate(38.76 34.171)"><g transform="translate(0 5.568)"><path class="c" d="M421.687,118.488H406.706a.614.614,0,1,1,0-1.228h14.981a.614.614,0,1,1,0,1.228Z" transform="translate(-406.092 -117.26)"/><path class="c" d="M421.687,130.2H406.706a.614.614,0,0,1,0-1.228h14.981a.614.614,0,1,1,0,1.228Z" transform="translate(-406.092 -123.45)"/><path class="c" d="M421.687,141.921H406.706a.614.614,0,1,1,0-1.228h14.981a.614.614,0,1,1,0,1.228Z" transform="translate(-406.092 -129.641)"/></g><g transform="translate(135.25)"><g transform="translate(15.012 6.827)"><path class="c" d="M718.077,128.3a3.292,3.292,0,0,1-1.216-.669l.39-.821a3.223,3.223,0,0,0,1.079.616,3.965,3.965,0,0,0,1.353.237,2.437,2.437,0,0,0,1.369-.31.957.957,0,0,0,.453-.827.815.815,0,0,0-.247-.616,1.66,1.66,0,0,0-.611-.363q-.364-.127-1.027-.284a10.474,10.474,0,0,1-1.342-.4,2.218,2.218,0,0,1-.874-.616,1.645,1.645,0,0,1-.364-1.122,1.9,1.9,0,0,1,.311-1.064,2.133,2.133,0,0,1,.942-.758,3.822,3.822,0,0,1,1.569-.284,4.967,4.967,0,0,1,1.284.168,3.438,3.438,0,0,1,1.085.484l-.348.842a3.823,3.823,0,0,0-.99-.448,3.706,3.706,0,0,0-1.031-.152,2.274,2.274,0,0,0-1.343.326,1,1,0,0,0-.448.842.806.806,0,0,0,.253.616,1.749,1.749,0,0,0,.627.368,9.6,9.6,0,0,0,1.016.279,10.307,10.307,0,0,1,1.337.4,2.255,2.255,0,0,1,.869.611,1.61,1.61,0,0,1,.363,1.105,1.88,1.88,0,0,1-.316,1.058,2.115,2.115,0,0,1-.958.758,3.96,3.96,0,0,1-1.579.279A5.035,5.035,0,0,1,718.077,128.3Z" transform="translate(-716.861 -120.508)"/><path class="c" d="M734.01,125.477l-1.158,1.074v1.527h-1.011v-7.812h1.011v5.012l3.043-2.78h1.221l-2.348,2.306,2.58,3.274H736.1Z" transform="translate(-724.776 -120.107)"/><path class="c" d="M745.252,121.057a.622.622,0,0,1-.195-.463.64.64,0,0,1,.195-.469.665.665,0,0,1,.49-.195.687.687,0,0,1,.49.184.6.6,0,0,1,.195.458.651.651,0,0,1-.195.479.666.666,0,0,1-.49.195A.674.674,0,0,1,745.252,121.057Zm-.016,1.263h1.011v5.58h-1.011Z" transform="translate(-731.759 -119.93)"/><path class="c" d="M756.077,125.244a2.583,2.583,0,0,1,1.006,1,3.227,3.227,0,0,1,0,2.975,2.569,2.569,0,0,1-1.006,1.006,2.933,2.933,0,0,1-1.453.358,2.588,2.588,0,0,1-1.1-.232,2.279,2.279,0,0,1-.848-.674v2.885h-1.011v-7.623h.969v.884a2.145,2.145,0,0,1,.853-.7,2.693,2.693,0,0,1,1.138-.237A2.938,2.938,0,0,1,756.077,125.244Zm-.573,4.206a1.777,1.777,0,0,0,.673-.695,2.252,2.252,0,0,0,0-2.053,1.745,1.745,0,0,0-.673-.69,1.918,1.918,0,0,0-.964-.242,1.868,1.868,0,0,0-.953.247,1.8,1.8,0,0,0-.674.69,2.059,2.059,0,0,0-.247,1.021,2.124,2.124,0,0,0,.242,1.027,1.738,1.738,0,0,0,.674.695,1.988,1.988,0,0,0,1.922,0Z" transform="translate(-735.251 -122.549)"/></g><path class="c" d="M725.553,128.869H696.739a11.708,11.708,0,0,1,0-23.415h28.814a11.708,11.708,0,1,1,0,23.415Zm-28.814-22.187a10.479,10.479,0,0,0,0,20.959h28.814a10.479,10.479,0,1,0,0-20.959Z" transform="translate(-685.031 -105.454)"/></g></g><line class="c" x1="207.656" transform="translate(33.464 298.721)"/><g transform="translate(95.045 480.22)"><path class="d" d="M564.939,1036.44a3.823,3.823,0,1,0,3.822,3.823A3.827,3.827,0,0,0,564.939,1036.44Z" transform="translate(-546.116 -1036.44)"/><path class="d" d="M596.8,1044.2a3.823,3.823,0,1,1,3.822-3.823A3.827,3.827,0,0,1,596.8,1044.2Zm0-6.394a2.571,2.571,0,1,0,2.571,2.571A2.574,2.574,0,0,0,596.8,1037.808Z" transform="translate(-592.979 -1036.501)"/><path class="d" d="M596.8,1044.2a3.823,3.823,0,1,1,3.822-3.823A3.827,3.827,0,0,1,596.8,1044.2Zm0-6.394a2.571,2.571,0,1,0,2.571,2.571A2.574,2.574,0,0,0,596.8,1037.808Z" transform="translate(-546.979 -1036.501)"/><path class="d" d="M628.665,1044.319a3.823,3.823,0,1,1,3.822-3.823A3.828,3.828,0,0,1,628.665,1044.319Zm0-6.395a2.572,2.572,0,1,0,2.571,2.572A2.574,2.574,0,0,0,628.665,1037.925Z" transform="translate(-594.842 -1036.561)"/><path class="d" d="M628.665,1044.319a3.823,3.823,0,1,1,3.822-3.823A3.828,3.828,0,0,1,628.665,1044.319Zm0-6.395a2.572,2.572,0,1,0,2.571,2.572A2.574,2.574,0,0,0,628.665,1037.925Z" transform="translate(-563.842 -1036.561)"/></g></g><g transform="translate(357.978 148.281)"><g transform="translate(1.816 65.478)"><g transform="translate(1.447)"><path class="e" d="M601.446,509.153c10.651,18.709-4.761,55.416-102.5,29.905-49.005-12.79-85.611,16.023-93.155-4.089-17.57-46.847,54.186-101.039,94.088-63.2C536.35,506.347,582.062,475.1,601.446,509.153Z" transform="translate(-403.069 -459.048)"/></g><path class="f" d="M599.327,562.73H400c6.238-45.234,48.476-80.222,99.664-80.222S593.089,517.5,599.327,562.73Z" transform="translate(-400 -471.444)"/></g><g transform="translate(99.001)"><rect class="g" width="103.178" height="141.535" rx="51.589" transform="translate(0 13.855)"/><g transform="translate(4.623 19.559)"><rect class="f" width="84.923" height="123.361" transform="translate(4.702)"/><path class="h" d="M702.922,361.687c.026,48.1,1.579,106.121-3.824,118.966-23.8,2.319-51.668,3.063-81.1,3.2l11.188-121.8Z" transform="translate(-613.296 -361.686)"/><path class="b" d="M690.027,476.772c-37.1,5.937-61.89,6.25-82,4.757,2.606-27.739,3.65-73.822,4.7-119.83l44.7.1,40.457,2.67C698.478,412.221,698.543,456.33,690.027,476.772Z" transform="translate(-608.029 -361.693)"/><g transform="translate(13.248 11.377)"><rect class="i" width="44.687" height="6.807" transform="translate(10.967 0) rotate(1.348)"/><g transform="translate(0 13.279)"><g transform="translate(1.496)"><g transform="translate(22.228 3.476)"><rect class="i" width="40.308" height="3.116" transform="matrix(1, 0.024, -0.024, 1, 0.233, 0)"/><rect class="j" width="27.398" height="3.116" transform="translate(0.073 6.791) rotate(1.348)"/></g><rect class="k" width="9.542" height="9.542" transform="matrix(1, 0.024, -0.024, 1, 0.225, 3.136)"/><g transform="translate(1.76)"><path class="l" d="M643.044,419.611c.295,1.128.839,5.851,3.2,4.53a7.2,7.2,0,0,0,1.415-1.573l2.2-2.5,4.4-5c.376-.427-1.284-1.5-1.756-.962l-3.912,4.441-1.956,2.221c-.452.514-1.5,2.17-2.17,2.318l1.1.354c.258.211-.221-1.289-.232-1.33l-.546-2.09c-.15-.575-1.967-1.267-1.744-.415Z" transform="translate(-643.025 -413.965)"/></g></g><g transform="translate(1.088 17.613)"><g transform="translate(22.228 3.207)"><rect class="i" width="33.193" height="3.116" transform="translate(0.233 0) rotate(1.348)"/><rect class="j" width="40.308" height="3.116" transform="translate(0.073 6.791) rotate(1.348)"/></g><rect class="k" width="9.542" height="9.542" transform="matrix(1, 0.024, -0.024, 1, 0.225, 2.867)"/><g transform="translate(1.754)"><path class="l" d="M642.166,456.956c.294,1.128.838,5.85,3.2,4.53a7.209,7.209,0,0,0,1.415-1.573l2.2-2.5,4.4-5c.376-.427-1.284-1.5-1.756-.962l-3.912,4.441-1.956,2.22c-.452.514-1.5,2.171-2.17,2.318l1.1.354c.258.212-.221-1.288-.232-1.329l-.546-2.09c-.15-.575-1.967-1.267-1.744-.415Z" transform="translate(-642.147 -451.31)"/></g></g><g transform="translate(0.68 35.079)"><g transform="translate(22.229 3.084)"><rect class="i" width="40.308" height="3.116" transform="translate(0.233 0) rotate(1.348)"/><rect class="j" width="18.026" height="3.116" transform="translate(0.073 6.791) rotate(1.348)"/></g><rect class="k" width="9.542" height="9.542" transform="matrix(1, 0.024, -0.024, 1, 0.225, 2.744)"/><g transform="translate(1.884)"><path class="l" d="M641.575,493.991c.294,1.128.838,5.851,3.2,4.53a7.2,7.2,0,0,0,1.415-1.573l2.2-2.5,4.4-5c.376-.427-1.284-1.5-1.756-.962l-3.912,4.441-1.956,2.221c-.452.514-1.5,2.17-2.17,2.318l1.1.354c.258.212-.221-1.289-.232-1.33l-.546-2.09c-.15-.575-1.967-1.267-1.744-.415Z" transform="translate(-641.556 -488.345)"/></g></g><g transform="translate(0.272 52.309)"><g transform="translate(22.228 3.197)"><rect class="i" width="40.308" height="3.116" transform="translate(0.233 0) rotate(1.348)"/><rect class="j" width="31.842" height="3.116" transform="matrix(1, 0.024, -0.024, 1, 0.073, 6.791)"/></g><rect class="k" width="9.542" height="9.542" transform="matrix(1, 0.024, -0.024, 1, 0.225, 2.857)"/><g transform="translate(1.886)"><path class="l" d="M640.715,530.524c.294,1.128.839,5.851,3.2,4.53a7.212,7.212,0,0,0,1.415-1.573l2.2-2.5,4.4-5c.376-.427-1.284-1.5-1.756-.962l-3.912,4.441-1.956,2.221c-.453.514-1.5,2.17-2.17,2.318l1.1.354c.258.211-.221-1.289-.232-1.33l-.546-2.09c-.15-.575-1.967-1.267-1.744-.415Z" transform="translate(-640.696 -524.878)"/></g></g><g transform="translate(0 69.388)"><g transform="translate(22.095 3.331)"><rect class="i" width="15.978" height="3.116" transform="matrix(1, 0.024, -0.024, 1, 0.233, 0)"/><path class="j" d="M723.339,583.5l-40.3-.948-.074,3.115c15.59.366,35.441,1.1,39.491.475A3.5,3.5,0,0,0,723.339,583.5Z" transform="translate(-682.969 -575.762)"/></g><rect class="k" width="9.542" height="9.542" transform="translate(0.225 2.994) rotate(1.348)"/><g transform="translate(1.756)"><path class="l" d="M639.862,566.737c.295,1.128.839,5.851,3.2,4.53a7.2,7.2,0,0,0,1.415-1.573l2.2-2.5,4.4-5c.376-.427-1.284-1.5-1.756-.962l-3.912,4.441-1.956,2.221c-.452.514-1.5,2.17-2.17,2.318l1.1.354c.258.211-.221-1.289-.232-1.33l-.546-2.09c-.15-.575-1.967-1.267-1.744-.415Z" transform="translate(-639.843 -561.091)"/></g></g></g></g></g><g transform="translate(29.357)"><path class="l" d="M705.311,334.925v9.522H667.057v-9.522a5.5,5.5,0,0,1,1.61-3.889,4.508,4.508,0,0,1,.389-.348,5.457,5.457,0,0,1,3.5-1.262,6.475,6.475,0,0,0,2.812-.641,6.735,6.735,0,0,0,1.058-.637,6.477,6.477,0,0,0,2.347-3.329,6.5,6.5,0,0,1,6.216-4.606h2.387a6.5,6.5,0,0,1,6.217,4.606,6.471,6.471,0,0,0,2.347,3.329,6.73,6.73,0,0,0,1.057.637,6.478,6.478,0,0,0,2.812.641,5.507,5.507,0,0,1,5.5,5.5Z" transform="translate(-663.953 -320.213)"/><path class="h" d="M704.937,361.685v7.078H660.474v-7.078h3.1v4.675h38.254v-4.675Z" transform="translate(-660.474 -342.126)"/><ellipse class="b" cx="3.393" cy="3.225" rx="3.393" ry="3.225" transform="translate(18.839 2.482)"/></g></g><g transform="translate(0 27.689)"><g transform="translate(70.4 10.631)"><path class="m" d="M548.6,413.429c-1.357-.257-2.625-2.524-3.066-3.393a1.078,1.078,0,0,1-.1-.69l.54-2.862s1.246.212,1.15,1.871a1.214,1.214,0,0,0,.087.505l.477,1.248,1.41-1.092-.773-2.184a3.751,3.751,0,0,1-1.569.114c-1.1-.35.341-1.205.8-1.3s1.455-.455,1.911.319.728,1.228.728,1.228a17.126,17.126,0,0,0,.159-5.6c-.016-.174.42-.17.543-.046.366.373.95,1.508.981,4.959,0,0,.061-4.022.75-4.435.569-.341.856,1.627.455,4.965,0,0,.743-2.891,1.273-2.9.9-.008.012,7.719-2.241,10.022Z" transform="translate(-545.421 -401.466)"/><path class="m" d="M553.891,424.324q-.06.577-.132,1.117v0a32.592,32.592,0,0,1-.593,3.409c-.012.048-.02.092-.032.136-.685,2.808-.809,4.182-3.149,3.814l-2.407-2.74-.024-.028-.176-.2.489-1.442.064-.188.361-1.05.044-.136.617-1.807.249-.733Z" transform="translate(-546.455 -413.544)"/></g><g transform="translate(25.69 116.117)"><path class="n" d="M458.041,635.863l-.613,1.915c-4.2,1.38-6.653,2.962-6.81,4.807h12.15l.974-6.412A9.429,9.429,0,0,1,458.041,635.863Z" transform="translate(-450.619 -630.802)"/><path class="m" d="M467.881,625.768l-1.524,4.761a9.429,9.429,0,0,0,5.7.309l.628-4.136Z" transform="translate(-458.935 -625.468)"/><path class="m" d="M507.289,629.98l.357-4.849-5.708.3-.312,4.47A9.34,9.34,0,0,0,507.289,629.98Z" transform="translate(-477.57 -625.131)"/><path class="n" d="M513.607,642.259c-.157-1.845-2.3-4.372-7.01-4.973l.144-1.961a9.34,9.34,0,0,1-5.663-.079l-.49,7.013Z" transform="translate(-477.022 -630.476)"/></g><path class="m" d="M496.11,417.856l-6.886.048V407.49H495.9l0,.637.032,3.3.048,5.3Z" transform="translate(-445.328 -394.018)"/><path class="o" d="M496.929,413.2c-1.238,1.3-4.466-.168-5.828-1.6l5.8-1.7Z" transform="translate(-446.319 -395.292)"/><path class="m" d="M494.641,394.621a14.9,14.9,0,0,1-.18,2.343c-.337,2.1-1.226,3.914-3.277,3.97-4.847.141-6.229-2.632-7.142-4.9s.569-7.731.569-7.731l6.273-.621,3.445,2.824A25.745,25.745,0,0,1,494.641,394.621Z" transform="translate(-442.432 -383.552)"/><path class="p" d="M480.823,390.109s1.383-.064,1.619-3.633a4.886,4.886,0,0,0,5.711-1.574,3.306,3.306,0,0,0,5.8-1.184c.834-2.387-1.469-5.942-4.824-3.789-3.288-1.661-8.274-1.547-9.709,2.527,0,0-4.989,2.3.293,7.364A6.093,6.093,0,0,0,480.823,390.109Z" transform="translate(-439.018 -378.924)"/><path class="p" d="M510.934,508.836l-3.806,57.551h-8.946l2.236-55.845,1.369-.634Z" transform="translate(-450.061 -447.567)"/><path class="n" d="M468.786,487.353l-6.275,65.425h9.747l9.28-54.343,10.548-3.2.467-11.616-23.5-.534Z" transform="translate(-431.212 -433.958)"/><path class="q" d="M476.565,485.025c5.324,1.911,17.815-.273,20.409-2.935l-1.843-3.686-20.545,2.73Z" transform="translate(-437.593 -431.487)"/><path class="b" d="M500.087,451.249c-.172.072-.349.149-.529.216a36.15,36.15,0,0,1-6.673,1.987,30.627,30.627,0,0,1-4.474.548,25.831,25.831,0,0,1-7.026-.569l2.984-27.823.364-3.393s3.906,4.807,8.212-.5Z" transform="translate(-441.186 -401.534)"/><path class="r" d="M488.411,456.638a25.831,25.831,0,0,1-7.026-.569l2.984-27.823,1.065-1.54C488.066,433.107,490.762,447.281,488.411,456.638Z" transform="translate(-441.186 -404.171)"/><path class="l" d="M452.112,420.442c2.967,12.6,4.188,25.561-.184,39.956a16.366,16.366,0,0,1-10.548.133l.934-26.17-22,15.122-1.335-8.245C427.438,433.153,442.058,420.938,452.112,420.442Z" transform="translate(-408.213 -400.861)"/><path class="r" d="M511.1,458.2a36.143,36.143,0,0,1-6.673,1.987c-1.326-7.6-1.618-20.092-.54-25.728Z" transform="translate(-452.727 -408.266)"/><path class="s" d="M553.364,431.875c-.012.048-.02.092-.032.136-.685,2.808-.809,4.182-3.149,3.814l-2.407-2.74-.024-.028.312-1.642.064-.188.361-1.05.044-.136Z" transform="translate(-476.252 -405.933)"/><path class="l" d="M529.514,429.187S523.605,441.7,520.1,442c-3.4.291-5.007-3-5.007-3l2.4,18.294a15.338,15.338,0,0,1-9.482,1.334c-3.176-10.315-4.377-23.651-4.613-38.5,2.571.16,7.665.38,9.488,1.552,3.272,2.1,7.311,9.614,7.311,9.614l4.706-6.409Z" transform="translate(-452.819 -400.693)"/><g transform="translate(0.967 5.14)"><path class="t" d="M406.045,395.539s.358-5.988.967-5.706,1.832,5.49,1.832,5.49l-1.307,2.109Z" transform="translate(-402.345 -389.823)"/><path class="u" d="M429.488,631.218l.177,1.971a6.326,6.326,0,0,1-5.734,6.865l-.507.046a6.326,6.326,0,0,1-6.865-5.734l-.177-1.97Z" transform="translate(-407.806 -517.371)"/><rect class="v" width="13.159" height="95.815" transform="translate(0.002 19.594) rotate(-5.134)"/><rect class="w" width="4.673" height="83.985" transform="translate(4.054 17.301) rotate(-5.134)"/><path class="p" d="M428,614.719,414.9,615.9l-.344-3.845-.24-2.672-.741-8.212,13.106-1.178.737,8.212.24,2.672Z" transform="translate(-406.323 -500.871)"/><rect class="v" width="13.155" height="2.683" transform="translate(7.993 108.509) rotate(-5.136)"/><path class="u" d="M398.2,414.595l3.64-14.59a3.129,3.129,0,0,0,2.781-.384l6.686,13.8Z" transform="translate(-398.199 -395)"/></g><path class="m" d="M482.79,400.623c-.058-.215-1.037-.511-1.252-.57a1.5,1.5,0,0,0-1.022.009c-1.183.534-1.024,2.228-.412,3.118a2.666,2.666,0,0,0,1.446,1.062c.215.062,2.25.086,2.16-.241C483.711,404,482.792,400.631,482.79,400.623Z" transform="translate(-440.26 -390.043)"/><path class="m" d="M401.443,472.1a1.781,1.781,0,0,0-2.276-1.176c-1.491.515-2.79,1.388-2.991,2.874-.183,1.353.494,5.675,3.516,6.23l-.247-2.22s1.851-.432,2.221-1.234A9.3,9.3,0,0,0,401.443,472.1Z" transform="translate(-396.148 -427.483)"/><path d="M526.059,442.01c.159.946.294,1.895.424,2.843s.241,1.9.363,2.85l.31,2.857c.091.954.179,1.908.238,2.865l-.155.018c-.164-.946-.3-1.894-.43-2.843l-.357-2.851c-.1-.953-.216-1.9-.3-2.858s-.18-1.907-.244-2.864Z" transform="translate(-464.708 -412.257)"/><path d="M468.268,441.675c0,1.062-.028,2.123-.06,3.184s-.081,2.12-.121,3.181l-.174,3.179c-.071,1.059-.144,2.118-.247,3.175l-.157-.008c0-1.063.025-2.123.054-3.184l.127-3.181c.06-1.059.106-2.119.179-3.178s.143-2.118.241-3.175Z" transform="translate(-433.855 -412.077)"/><path class="p" d="M495.486,400.5a.63.63,0,0,1-.348.8c-.276.062-.569-.194-.654-.572a.63.63,0,0,1,.348-.8C495.108,399.862,495.4,400.118,495.486,400.5Z" transform="translate(-448.095 -390.015)"/><path class="p" d="M503.949,399.348c-.016.387-.259.691-.542.679s-.5-.335-.483-.722.259-.69.542-.679S503.966,398.961,503.949,399.348Z" transform="translate(-452.566 -389.334)"/><path class="o" d="M500.208,400.83a9.113,9.113,0,0,1,.2.959.751.751,0,0,0,.194.333,1.279,1.279,0,0,0,.376.185,1.046,1.046,0,0,1,.475.357.622.622,0,0,1,.049.656,1.233,1.233,0,0,1-.391.4c-.138.093-.27.191-.413.278l-.1-.118c.105-.13.221-.247.331-.371a1.177,1.177,0,0,0,.259-.337c.085-.185-.1-.388-.36-.493a1.393,1.393,0,0,1-.488-.277.976.976,0,0,1-.257-.53c-.066-.371.009-.689-.026-1Z" transform="translate(-451.05 -390.499)"/><path class="p" d="M492.582,397.99a1.165,1.165,0,0,1,.409-.624,1.243,1.243,0,0,1,.726-.272,1.343,1.343,0,0,1,1.263.709l-.123.1a1.72,1.72,0,0,0-1.121-.409,1.31,1.31,0,0,0-1.013.565Z" transform="translate(-447.102 -388.524)"/><path class="p" d="M501.348,397.06a1.2,1.2,0,0,1,.314-.506,1.05,1.05,0,0,1,.569-.282,1,1,0,0,1,1.062.53l-.125.094a1.27,1.27,0,0,0-.878-.23,1.13,1.13,0,0,0-.418.153,2.742,2.742,0,0,0-.389.32Z" transform="translate(-451.734 -388.083)"/><path class="b" d="M496.649,409.055c.7,1.095,1.631,1.214,2.351.062Z" transform="translate(-449.251 -394.845)"/><path class="x" d="M505.727,401.828a18.491,18.491,0,0,1-.2,2.61,1.206,1.206,0,0,1-.837-1.149A1.541,1.541,0,0,1,505.727,401.828Z" transform="translate(-453.5 -391.026)"/><circle class="x" cx="1.292" cy="1.292" r="1.292" transform="translate(44.399 11.686)"/><path class="o" d="M482.844,403.042a6.443,6.443,0,0,0-.722-.475.631.631,0,0,0-.319-.083.714.714,0,0,0-.333.153l-.132-.085a.623.623,0,0,1,.381-.409.744.744,0,0,1,.58.067,1.5,1.5,0,0,1,.67.738Z" transform="translate(-441.161 -391.174)"/><path class="y" d="M405.335,483.011l-1.859,5.649-.384-4.415A3.855,3.855,0,0,0,405.335,483.011Z" transform="translate(-399.817 -433.921)"/></g></g></g></g></svg>