<svg xmlns="http://www.w3.org/2000/svg" width="265" height="535" viewBox="0 0 265 535"><defs><style>.a{fill:#d4d4d4;}.b{fill:#fff;}.c{fill:#3e3d51;}.d{fill:#8282a8;}.e{fill:#fbc343;}.f,.h{fill:#e49b31;}.g{fill:#c01e29;}.h,.q{opacity:0.4;}.i{fill:#102048;}.j,.p{fill:#1f3c88;}.k{fill:#3a6bea;}.l{fill:rgba(0,0,0,0.22);}.m{fill:#f9b384;}.n{fill:#e28b6d;}.o{fill:#d3dfff;}.p{opacity:0.3;}.q{fill:#eb5d60;}</style></defs><g transform="translate(-323.907 -33)"><g transform="translate(323.907 33)"><g transform="translate(0 0)"><path class="a" d="M584.766,117.6h-.5V64.736A31.728,31.728,0,0,0,552.542,33H360.272a31.728,31.728,0,0,0-31.72,31.736V117.6h-.5a4.142,4.142,0,0,0-4.141,4.143v36.567a4.142,4.142,0,0,0,4.141,4.143h.5v8.722h-.5a4.142,4.142,0,0,0-4.141,4.143v36.567a4.142,4.142,0,0,0,4.141,4.143h.5V536.264A31.729,31.729,0,0,0,360.272,568h192.27a31.729,31.729,0,0,0,31.72-31.736V184.878h.5a4.142,4.142,0,0,0,4.141-4.144V121.742A4.142,4.142,0,0,0,584.766,117.6Z" transform="translate(-323.907 -33)"/><path class="b" d="M52.343,0H184.775a52.343,52.343,0,0,1,52.343,52.343v414.55a52.342,52.342,0,0,1-52.342,52.342H52.343A52.343,52.343,0,0,1,0,466.892V52.343A52.343,52.343,0,0,1,52.343,0Z" transform="translate(13.941 7.883)"/><g transform="translate(39.495 34.819)"><g transform="translate(0 5.674)"><path class="c" d="M421.982,118.511H406.718a.625.625,0,1,1,0-1.251h15.265a.625.625,0,1,1,0,1.251Z" transform="translate(-406.092 -117.26)"/><path class="c" d="M421.982,130.227H406.718a.626.626,0,1,1,0-1.251h15.265a.626.626,0,0,1,0,1.251Z" transform="translate(-406.092 -123.346)"/><path class="c" d="M421.982,141.944H406.718a.625.625,0,1,1,0-1.251h15.265a.625.625,0,1,1,0,1.251Z" transform="translate(-406.092 -129.432)"/></g><g transform="translate(132.789)"><g transform="translate(15.296 6.957)"><path class="c" d="M718.1,128.443a3.356,3.356,0,0,1-1.239-.681l.4-.837a3.284,3.284,0,0,0,1.1.628,4.04,4.04,0,0,0,1.379.241,2.483,2.483,0,0,0,1.395-.316.976.976,0,0,0,.461-.842.831.831,0,0,0-.252-.628,1.691,1.691,0,0,0-.622-.37q-.371-.129-1.046-.29a10.676,10.676,0,0,1-1.368-.408,2.261,2.261,0,0,1-.89-.628,1.676,1.676,0,0,1-.371-1.143,1.935,1.935,0,0,1,.317-1.084,2.173,2.173,0,0,1,.96-.772,3.9,3.9,0,0,1,1.6-.29,5.061,5.061,0,0,1,1.309.172,3.5,3.5,0,0,1,1.105.494l-.354.858a3.893,3.893,0,0,0-1.009-.456,3.775,3.775,0,0,0-1.051-.155,2.317,2.317,0,0,0-1.368.333,1.018,1.018,0,0,0-.456.858.821.821,0,0,0,.258.628,1.783,1.783,0,0,0,.639.375,9.792,9.792,0,0,0,1.035.285,10.5,10.5,0,0,1,1.362.408,2.3,2.3,0,0,1,.885.622,1.64,1.64,0,0,1,.37,1.126,1.915,1.915,0,0,1-.322,1.078,2.155,2.155,0,0,1-.976.772,4.035,4.035,0,0,1-1.609.285A5.131,5.131,0,0,1,718.1,128.443Z" transform="translate(-716.861 -120.498)"/><path class="c" d="M734.051,125.576l-1.18,1.094v1.556h-1.03v-7.961h1.03v5.107l3.1-2.832h1.245l-2.393,2.349,2.629,3.337h-1.266Z" transform="translate(-724.642 -120.104)"/><path class="c" d="M745.255,121.078a.634.634,0,0,1-.2-.472.653.653,0,0,1,.2-.478.678.678,0,0,1,.5-.2.7.7,0,0,1,.5.188.617.617,0,0,1,.2.467.664.664,0,0,1-.2.488.678.678,0,0,1-.5.2A.687.687,0,0,1,745.255,121.078Zm-.016,1.287h1.03v5.686h-1.03Z" transform="translate(-731.507 -119.93)"/><path class="c" d="M756.16,125.251a2.631,2.631,0,0,1,1.025,1.019,3.288,3.288,0,0,1,0,3.031,2.616,2.616,0,0,1-1.025,1.025,2.988,2.988,0,0,1-1.48.365,2.638,2.638,0,0,1-1.121-.236,2.323,2.323,0,0,1-.864-.687v2.94h-1.03V124.94h.987v.9a2.186,2.186,0,0,1,.869-.713,2.745,2.745,0,0,1,1.159-.242A2.994,2.994,0,0,1,756.16,125.251Zm-.584,4.286a1.811,1.811,0,0,0,.686-.708,2.3,2.3,0,0,0,0-2.092,1.778,1.778,0,0,0-.686-.7,1.954,1.954,0,0,0-.982-.247,1.9,1.9,0,0,0-.971.252,1.833,1.833,0,0,0-.687.7,2.1,2.1,0,0,0-.252,1.04,2.163,2.163,0,0,0,.247,1.046,1.77,1.77,0,0,0,.687.708,2.026,2.026,0,0,0,1.958,0Z" transform="translate(-734.939 -122.504)"/></g><path class="c" d="M726.321,129.313H696.961a11.93,11.93,0,0,1,0-23.859h29.361a11.93,11.93,0,1,1,0,23.859Zm-29.361-22.608a10.678,10.678,0,0,0,0,21.356h29.361a10.678,10.678,0,1,0,0-21.356Z" transform="translate(-685.031 -105.454)"/></g><g transform="translate(54.055 445.401)"><path class="d" d="M564.939,1036.44a3.823,3.823,0,1,0,3.822,3.823A3.827,3.827,0,0,0,564.939,1036.44Z" transform="translate(-531.116 -1036.44)"/><path class="d" d="M596.8,1044.2a3.823,3.823,0,1,1,3.822-3.823A3.827,3.827,0,0,1,596.8,1044.2Zm0-6.394a2.571,2.571,0,1,0,2.571,2.571A2.574,2.574,0,0,0,596.8,1037.808Z" transform="translate(-592.979 -1036.501)"/><path class="d" d="M596.8,1044.2a3.823,3.823,0,1,1,3.822-3.823A3.827,3.827,0,0,1,596.8,1044.2Zm0-6.394a2.571,2.571,0,1,0,2.571,2.571A2.574,2.574,0,0,0,596.8,1037.808Z" transform="translate(-577.979 -1036.501)"/><path class="d" d="M596.8,1044.2a3.823,3.823,0,1,1,3.822-3.823A3.827,3.827,0,0,1,596.8,1044.2Zm0-6.394a2.571,2.571,0,1,0,2.571,2.571A2.574,2.574,0,0,0,596.8,1037.808Z" transform="translate(-546.979 -1036.501)"/><path class="d" d="M628.665,1044.319a3.823,3.823,0,1,1,3.822-3.823A3.828,3.828,0,0,1,628.665,1044.319Zm0-6.395a2.572,2.572,0,1,0,2.571,2.572A2.574,2.574,0,0,0,628.665,1037.925Z" transform="translate(-594.842 -1036.561)"/><path class="d" d="M628.665,1044.319a3.823,3.823,0,1,1,3.822-3.823A3.828,3.828,0,0,1,628.665,1044.319Zm0-6.395a2.572,2.572,0,1,0,2.571,2.572A2.574,2.574,0,0,0,628.665,1037.925Z" transform="translate(-563.842 -1036.561)"/></g></g></g><line class="c" x1="206.568" transform="translate(34.099 298.721)"/></g><g transform="translate(354.386 140.293)"><g transform="translate(0 53.573)"><g transform="translate(101.109 61.686)"><rect class="e" width="70.116" height="51.434"/><rect class="f" width="18.681" height="0.767" transform="translate(51.437 11.644)"/><rect class="f" width="32.5" height="0.767" transform="translate(37.618 39.796)"/><path class="f" d="M633.013,546.254a59,59,0,0,1-2.7,17.651,21.05,21.05,0,0,1-20.084,14.757H598.059V527.62H630A59.087,59.087,0,0,1,633.013,546.254Z" transform="translate(-598.059 -527.617)"/></g><g transform="translate(0 88.205)"><path class="e" d="M6.226,0H58.546a6.227,6.227,0,0,1,6.227,6.227v0a6.226,6.226,0,0,1-6.226,6.226H6.227A6.227,6.227,0,0,1,0,6.226v0A6.226,6.226,0,0,1,6.226,0Z" transform="translate(7.163 12.461)"/><path class="e" d="M437.721,590.142v5.49a3.488,3.488,0,0,1-3.485,3.486h-57.8a3.483,3.483,0,0,1-3.485-3.486v-5.49a3.488,3.488,0,0,1,3.485-3.485h57.8A3.493,3.493,0,0,1,437.721,590.142Z" transform="translate(-372.948 -586.657)"/><path class="f" d="M469.091,602.6v5.482a3.483,3.483,0,0,1-3.485,3.485H424.156a31.631,31.631,0,0,1-5.666-12.453,61.338,61.338,0,0,1-1.6-12.461h41.549a3.493,3.493,0,0,1,3.485,3.485v5.49a3.488,3.488,0,0,1-3.485,3.486h7.163A3.483,3.483,0,0,1,469.091,602.6Z" transform="translate(-397.155 -586.657)"/></g><g transform="translate(25.496)"><path class="e" d="M541.359,392.3l-4.668,14.335-.345,1.06-2.165,6.656-.015.046-6.978-.154-26.778-.607-1.958-5.6-.33-.937-5.182-14.8C509.015,397.864,522.266,385.7,541.359,392.3Z" transform="translate(-464.541 -390.276)"/><path class="f" d="M543.106,429.045l-2.165,6.656-6.994-.107-26.778-.607-1.958-5.6C514.416,429.222,530.254,429.007,543.106,429.045Z" transform="translate(-471.301 -411.629)"/><path class="e" d="M531.436,517.757a21.044,21.044,0,0,1-20.084,14.757H450.7a19.5,19.5,0,0,1-18.794-14.319,61.17,61.17,0,0,1-2.18-14.787c-.008-.476-.015-.952-.015-1.428q0-.844.023-1.687a60.673,60.673,0,0,1,23.27-45.668l14.509-11.488,33.2.768,18.252,17.466a40.235,40.235,0,0,1,6.69,8.246,59.089,59.089,0,0,1,5.775,48.141Z" transform="translate(-429.713 -419.394)"/><g transform="translate(36.227 41.935)"><path class="b" d="M521.859,538.787V532.37a27.221,27.221,0,0,1-11.489-2.906l2.031-7.908a23.887,23.887,0,0,0,11.219,2.972c3.852,0,6.487-1.486,6.487-4.188,0-2.57-2.162-4.193-7.164-5.883-7.231-2.432-12.166-5.811-12.166-12.365,0-5.949,4.193-10.61,11.423-12.03v-6.422h6.62v5.949a24.384,24.384,0,0,1,9.8,2.229l-1.959,7.638a22.4,22.4,0,0,0-9.734-2.3c-4.391,0-5.811,1.893-5.811,3.786,0,2.229,2.366,3.648,8.111,5.812,8.039,2.84,11.286,6.554,11.286,12.64,0,6.015-4.259,11.149-12.029,12.5v6.89Z" transform="translate(-510.37 -483.641)"/></g><rect class="g" width="54.034" height="8.568" rx="4.284" transform="translate(25.999 21.373)"/><path class="h" d="M531.455,564.3a21.044,21.044,0,0,1-20.084,14.757h-60.65a19.5,19.5,0,0,1-18.794-14.319,61.167,61.167,0,0,1-2.18-14.787c10.034,9.567,21.857,22.074,49.495,22.458,34.32.477,49.111-15.609,51.768-44.777A59.011,59.011,0,0,1,531.455,564.3Z" transform="translate(-429.732 -465.938)"/></g></g><g transform="translate(132.452)"><g transform="translate(8.003 63.936)"><path class="i" d="M705.684,603.235l1.28,16.379h-21.3l10.748-7.422-.192-10.237Z" transform="translate(-685.66 -517.241)"/><path class="i" d="M788.411,589.278l5.758,14.012-14.587,12.284,2.111-13.82-2.879-9.213Z" transform="translate(-736.974 -510.258)"/><path class="j" d="M715.641,413.347a15.98,15.98,0,0,0-.537,2.042c-.284,1.42-.53,3.232-.737,5.367-.676,6.971-.96,17.329-1.037,28.331-.161,24.776.776,52.815.776,52.815l-3.9-.061-9.6-.146-3.393-.054a445.781,445.781,0,0,1-2.9-83.934c.023-.4.053-.768.069-1.113.161-2.119.269-3.248.269-3.248Z" transform="translate(-689.984 -413.347)"/><path class="j" d="M760.591,497.9l-1.95.484-10.226,2.557-6.249,1.567s-7.4-27.463-13.312-51.534c-2.841-11.609-5.343-22.427-6.495-28.991a42.193,42.193,0,0,1-.668-5.213l8.936.507,11.285.645s.276,1.62.814,4.53C744.875,434.049,751.178,466.172,760.591,497.9Z" transform="translate(-705.507 -415.23)"/><path class="i" d="M725.7,420.564a96.857,96.857,0,0,1-12.836.192c-2.695-.138-5.221-.376-7.531-.66a95.928,95.928,0,0,1-12.522-2.388c-1.313-.353-2.027-.584-2.027-.584l2.1-.53,12.928-3.248h8.33a15.948,15.948,0,0,0-.537,2.042l11.286.645S725.165,417.654,725.7,420.564Z" transform="translate(-688.483 -413.347)"/><path class="k" d="M726.422,475.108c-.621-2.6-3.554-14.932-3.936-17.019l-5.933-2.225.269-.719,6.39,2.4v.266c.044.569,2.39,10.553,3.956,17.122Z" transform="translate(-702.677 -436.371)"/><path class="k" d="M699.265,522.835a13.481,13.481,0,0,1-4.665-.733l.285-.713a14.767,14.767,0,0,0,7.589.364l.147.754A17.583,17.583,0,0,1,699.265,522.835Z" transform="translate(-690.584 -472.862)"/><path class="k" d="M750.3,521.25a20.024,20.024,0,0,1-3.4-.3l.143-.755c.053.01,5.244.972,7.641-.7l.44.628A8.724,8.724,0,0,1,750.3,521.25Z" transform="translate(-719.389 -471.815)"/><rect class="b" width="0.768" height="3.788" transform="translate(10.514 95.256) rotate(-52.544)"/><rect class="b" width="0.767" height="4.419" transform="translate(44.575 91.852) rotate(-67.896)"/></g><g transform="translate(0 21.907)"><path class="g" d="M697.465,319.906s-13.179,1.664-16.506,16.507l3.966,17.659-1.791,11.773a156.111,156.111,0,0,0,36.339-1.28l-5.6-30.008Z" transform="translate(-675.067 -319.846)"/><path class="l" d="M734.161,384.441s-3.967-2.911,1.216-15.675l3.455,12.572Z" transform="translate(-703.574 -346.761)"/><path class="i" d="M1.024,0h0A1.024,1.024,0,0,1,2.047,1.024V17.53a0,0,0,0,1,0,0H0a0,0,0,0,1,0,0V1.024A1.024,1.024,0,0,1,1.024,0Z" transform="translate(29.665 11.625) rotate(62.102)"/><path class="m" d="M723.053,370.689l-.391-.215-5.09-2.748-8.529-4.615a2.749,2.749,0,0,1,.576-2.5l-.422-.169a2.249,2.249,0,0,1-1.336-1.658l-.015-.092a3.873,3.873,0,0,1-.046-1.82l.2-.261a6.86,6.86,0,0,1,1.366-1.5l-1.09.062s-2.687.737-1.436-.99a10.781,10.781,0,0,1,3.884-2.718,1.206,1.206,0,0,1,1.374.246,88.508,88.508,0,0,0,10.188,8.423l.069.936.629,8.622Z" transform="translate(-689.14 -337.167)"/><g transform="translate(18.206 17.202)"><path class="n" d="M714.018,359.721l-2.324-1.135a1.26,1.26,0,0,0-.778-.111l-2.475.43-.066-.378,2.475-.43a1.651,1.651,0,0,1,1.013.144l2.323,1.135Z" transform="translate(-708.375 -358.072)"/><path class="n" d="M714.137,364.734l-2.786-1.068a1.079,1.079,0,0,0-.388-.071h-1.586v-.384h1.586a1.471,1.471,0,0,1,.526.1l2.786,1.068Z" transform="translate(-708.926 -360.903)"/><path class="n" d="M713.922,369.694l-2.531-.956a1.344,1.344,0,0,0-.629-.078l-1.037.118-.044-.381,1.037-.118a1.744,1.744,0,0,1,.809.1l2.53.956Z" transform="translate(-709.095 -363.688)"/></g><path class="n" d="M736.555,379.285l-.322.783-5.09-2.749,3.37-8.553,1.413,1.9Z" transform="translate(-702.71 -346.761)"/><path class="l" d="M735.941,401.861s7.614,7.23,13.819,7.038l-1.792-8.51Z" transform="translate(-705.354 -364.181)"/><path class="g" d="M717.708,319.833a20.2,20.2,0,0,1,2.5-.044A27.6,27.6,0,0,1,746.6,348.9c-.31,6.35-1.959,12.653-7.266,12.779L725.9,357.454c1.267-4.752,2.213-9.68,1.215-15.675l6.238,2.975Z" transform="translate(-695.31 -319.773)"/><path class="o" d="M694.786,372.695l-18.779.461-.514-1.589-1.889-5.8-5.466-16.791,18.779-.461Z" transform="translate(-668.005 -335.603)"/><path class="p" d="M684.293,382.441s-.031,5.19-2.1,7.816l-1.888-5.8Z" transform="translate(-674.709 -354.294)"/><g transform="translate(0 20.898)"><path class="m" d="M668.318,373.145a17.861,17.861,0,0,1,2.854-5.263c.377-.506,1.2-1.75,1.985-1.561,1.6.384,0,3.2,0,3.2s1.536-2.3,2.111-1.152a2.716,2.716,0,0,1-.256,2.431s2.431-1.6,1.535,1.6c0,0,1.983-.256.768,1.919a37.688,37.688,0,0,1-2.517,4.71,4.1,4.1,0,0,1-4.861,1.424c-2.009-.963-2.267-3.533-2.018-5.49A10.732,10.732,0,0,1,668.318,373.145Z" transform="translate(-667.841 -366.301)"/><path class="n" d="M676.343,374.88a.2.2,0,0,1-.078-.017.192.192,0,0,1-.1-.253l1.823-4.127a.192.192,0,1,1,.351.155l-1.823,4.127A.193.193,0,0,1,676.343,374.88Z" transform="translate(-672.419 -368.542)"/><path class="n" d="M680.509,378.829a.186.186,0,0,1-.081-.018.192.192,0,0,1-.093-.255l1.727-3.695a.192.192,0,1,1,.348.163l-1.727,3.695A.192.192,0,0,1,680.509,378.829Z" transform="translate(-674.714 -370.955)"/><path class="n" d="M683.714,382.665a.192.192,0,0,1-.17-.282l1.488-2.831a.193.193,0,0,1,.259-.08.191.191,0,0,1,.08.259l-1.488,2.831A.191.191,0,0,1,683.714,382.665Z" transform="translate(-676.479 -373.544)"/></g><path class="i" d="M688.115,349.417H681.4l-1.152-2.3h6.718Z" transform="translate(-674.674 -334.834)"/><path class="l" d="M713.093,334.663a5.883,5.883,0,0,1-3.321-1,.288.288,0,0,1,.351-.456,5.523,5.523,0,0,0,6.2-.082.288.288,0,1,1,.3.493A6.757,6.757,0,0,1,713.093,334.663Z" transform="translate(-690.877 -327.105)"/><path class="l" d="M735.588,384.291a.308.308,0,0,1-.082-.012.289.289,0,0,1-.194-.358c2.761-9.348,1.229-15.46,1.213-15.521l-.112-.43,11.889,1.993a.288.288,0,1,1-.095.568l-11.035-1.85c.3,1.564,1.082,7.311-1.308,15.4A.288.288,0,0,1,735.588,384.291Z" transform="translate(-705.001 -346.322)"/><path class="l" d="M750.016,355.572H750a.288.288,0,0,1-.27-.3,22.452,22.452,0,0,0-3.982-12.618.288.288,0,1,1,.477-.323A23.044,23.044,0,0,1,750.3,355.3.288.288,0,0,1,750.016,355.572Z" transform="translate(-710.728 -332.127)"/></g><g transform="translate(12.461)"><path class="m" d="M719.247,304.172v7.41a4.166,4.166,0,1,1-8.326,0v-7.41Z" transform="translate(-704.032 -289.273)"/><path class="i" d="M715.313,305.636s-.432,4.578-4.392,5.9v-6.5Z" transform="translate(-704.032 -289.748)"/><path class="m" d="M703.685,281.911s-1.292,10.393,2.76,11.626,7.75-2.349,7.75-2.349l-.763-8.573-5.989-3.523Z" transform="translate(-699.938 -275.458)"/><path class="i" d="M722.38,297.652l-7.992.53a9.42,9.42,0,0,1-1.957-4.445,5.556,5.556,0,0,0,.821,4.522l-2.165.146a18.349,18.349,0,0,1-1.627-14.664l.223-1.282s-1.367-4.139-3.348-4.315c0,0-6.794,4.584-9.819-.53-2.258-3.808-.354-8.814,5.074-5.121,0,0,13.043-6.119,13.013,6.427a7.962,7.962,0,0,0,2.5,5.966,4.488,4.488,0,0,0,.453.391C720.484,287.594,723.639,292.216,722.38,297.652Z" transform="translate(-695.584 -271)"/><ellipse class="m" cx="2.278" cy="1.949" rx="2.278" ry="1.949" transform="translate(11.722 13.086) rotate(-72.145)"/><path class="i" d="M726.589,296.056a.192.192,0,0,1-.192-.192,1.6,1.6,0,0,1,1.429-1.6h.009a.192.192,0,0,1,.01.384,1.2,1.2,0,0,0-1.065,1.216A.192.192,0,0,1,726.589,296.056Z" transform="translate(-712.557 -283.815)"/><path class="i" d="M705.919,293.605a.48.48,0,1,1-.48-.48A.48.48,0,0,1,705.919,293.605Z" transform="translate(-700.748 -283.187)"/><path class="i" d="M712.364,293.071a.48.48,0,1,1-.48-.48A.48.48,0,0,1,712.364,293.071Z" transform="translate(-704.298 -282.893)"/><path class="i" d="M707.859,297.791a.19.19,0,0,1-.134-.055,1.188,1.188,0,0,1-.474-1.076,1,1,0,0,1,.555-.623l-.043-.949a.193.193,0,0,1,.184-.2.2.2,0,0,1,.2.183l.054,1.223-.135.047c-.106.037-.391.181-.441.4-.054.242.17.522.368.716a.192.192,0,0,1-.134.329Z" transform="translate(-702 -284.159)"/><path class="i" d="M708.957,303.146a1.767,1.767,0,0,1-.274-.018.19.19,0,0,1-.159-.219.2.2,0,0,1,.218-.16,2.462,2.462,0,0,0,1.836-.6.192.192,0,1,1,.252.289A2.851,2.851,0,0,1,708.957,303.146Z" transform="translate(-702.711 -288.13)"/><circle class="q" cx="1.26" cy="1.26" r="1.26" transform="translate(8.713 11.113)"/></g></g></g></g></svg>