<svg xmlns="http://www.w3.org/2000/svg" xmlns:xlink="http://www.w3.org/1999/xlink" width="265" height="535" viewBox="0 0 265 535"><defs><style>.a,.aa,.ab,.ad,.af,.ag,.aj,.ak,.al,.am,.ao,.ap,.ar,.at,.au,.av,.aw,.ax,.ay,.az,.ba,.i,.j,.m,.n,.q,.s,.t,.z{fill:none;}.b{fill:#d4d4d4;}.c{fill:#fff;}.d{fill:#3e3d51;}.e{fill:#5280f0;}.f{fill:#7090fb;}.g{fill:#ededed;}.h{fill:#003d89;}.i{stroke:#ccc;}.aa,.ab,.ad,.af,.ag,.aj,.ak,.al,.am,.ao,.ap,.i,.j,.m,.n,.q,.s,.t,.z{stroke-miterlimit:10;}.i,.j,.m{stroke-width:2.185px;}.j{stroke:#e2e2e2;}.k{fill:#4d70f2;}.l{fill:#8066ff;}.m{stroke:#e5e5e5;}.n{stroke:#000;}.o{fill:#de6004;}.p{fill:#082e38;}.q{stroke:#ff3067;}.q,.s{stroke-width:2.143px;}.r{fill:#e06001;}.s{stroke:#fdfaf1;}.aa,.al,.am,.t{stroke:#8066ff;}.aa,.ab,.al,.am,.ar,.at,.au,.av,.aw,.ax,.ay,.az,.ba,.t,.z{stroke-linecap:round;}.ad,.t,.z{stroke-width:2px;}.u{fill:#c01e29;}.v{fill:#a63b00;}.w{fill:#0a1937;}.x{fill:#f2f2f2;}.y{fill:#d5e0f7;}.ab,.z{stroke:#d5e0f7;}.aa{stroke-width:5px;}.ac{fill:#df2424;}.ad{stroke:#ffa629;}.ae{clip-path:url(#a);}.af{stroke:#a9711e;mix-blend-mode:multiply;}.af,.ag{stroke-width:0.846px;opacity:0.26;isolation:isolate;}.ag{stroke:#ff9200;mix-blend-mode:screen;}.ah{fill:#f5f5f5;}.ai{clip-path:url(#b);}.aj,.ak{stroke:#fafafa;}.aj{stroke-width:14.809px;}.ak{stroke-width:74.045px;}.al{stroke-width:1.851px;}.am{stroke-width:0.463px;}.an{fill:#ff3067;}.ao,.ap{stroke:#a63b00;}.ao{stroke-width:0.841px;}.ap{stroke-width:0.8px;}.aq{opacity:0.4;}.ar,.at,.au,.av,.aw,.ax,.ay,.az,.ba{stroke:#fff;stroke-linejoin:round;}.ar{stroke-width:2.326px;}.as{opacity:0.3;}.at{stroke-width:2.77px;}.au{stroke-width:1.918px;}.av{stroke-width:1.952px;}.aw{stroke-width:1.385px;}.ax{stroke-width:1.609px;}.ax,.az{opacity:0.7;}.ay{stroke-width:1.182px;}.az{stroke-width:2.364px;}.ba{stroke-width:0.693px;}.bb{fill:#8282a8;}</style><clipPath id="a"><circle class="a" cx="38.201" cy="38.201" r="38.201"/></clipPath><clipPath id="b"><circle class="a" cx="30.094" cy="30.094" r="30.094"/></clipPath></defs><g transform="translate(-324.537 -33)"><g transform="translate(0.63)"><g transform="translate(323.907 33)"><path class="b" d="M584.766,117.6h-.5V64.736A31.728,31.728,0,0,0,552.542,33H360.272a31.728,31.728,0,0,0-31.72,31.736V117.6h-.5a4.142,4.142,0,0,0-4.141,4.143v36.567a4.142,4.142,0,0,0,4.141,4.143h.5v8.722h-.5a4.142,4.142,0,0,0-4.141,4.143v36.567a4.142,4.142,0,0,0,4.141,4.143h.5V536.264A31.729,31.729,0,0,0,360.272,568h192.27a31.729,31.729,0,0,0,31.72-31.736V184.878h.5a4.142,4.142,0,0,0,4.141-4.144V121.742A4.142,4.142,0,0,0,584.766,117.6Z" transform="translate(-323.907 -33)"/><path class="c" d="M52.343,0h132.03a52.343,52.343,0,0,1,52.343,52.343V466.665a52.342,52.342,0,0,1-52.342,52.342H52.343A52.343,52.343,0,0,1,0,466.665V52.343A52.343,52.343,0,0,1,52.343,0Z" transform="translate(14.142 7.996)"/><g transform="translate(40.065 35.321)"><g transform="translate(0 5.755)"><path class="d" d="M422.212,118.529H406.727a.634.634,0,1,1,0-1.269h15.485a.634.634,0,1,1,0,1.269Z" transform="translate(-406.092 -117.26)"/><path class="d" d="M422.212,130.245H406.727a.635.635,0,1,1,0-1.269h15.485a.635.635,0,0,1,0,1.269Z" transform="translate(-406.092 -123.264)"/><path class="d" d="M422.212,141.962H406.727a.634.634,0,1,1,0-1.269h15.485a.634.634,0,1,1,0,1.269Z" transform="translate(-406.092 -129.269)"/></g><g transform="translate(130.882)"><g transform="translate(15.517 7.057)"><path class="d" d="M718.118,128.55a3.4,3.4,0,0,1-1.257-.691l.4-.849a3.332,3.332,0,0,0,1.115.637,4.1,4.1,0,0,0,1.4.245,2.519,2.519,0,0,0,1.415-.321.99.99,0,0,0,.468-.855.843.843,0,0,0-.255-.637,1.714,1.714,0,0,0-.631-.375q-.376-.131-1.061-.294a10.83,10.83,0,0,1-1.387-.413,2.293,2.293,0,0,1-.9-.637,1.7,1.7,0,0,1-.376-1.159,1.963,1.963,0,0,1,.321-1.1,2.2,2.2,0,0,1,.974-.783,3.95,3.95,0,0,1,1.622-.294,5.134,5.134,0,0,1,1.327.174,3.554,3.554,0,0,1,1.121.5l-.359.871a3.952,3.952,0,0,0-1.023-.463,3.83,3.83,0,0,0-1.066-.157,2.351,2.351,0,0,0-1.388.337,1.033,1.033,0,0,0-.463.871.833.833,0,0,0,.261.637,1.808,1.808,0,0,0,.648.381,9.926,9.926,0,0,0,1.05.289,10.646,10.646,0,0,1,1.382.413,2.331,2.331,0,0,1,.9.631,1.664,1.664,0,0,1,.375,1.143,1.943,1.943,0,0,1-.327,1.094,2.186,2.186,0,0,1-.99.783,4.093,4.093,0,0,1-1.633.289A5.205,5.205,0,0,1,718.118,128.55Z" transform="translate(-716.861 -120.491)"/><path class="d" d="M734.083,125.652l-1.2,1.11v1.578h-1.045v-8.075h1.045v5.181l3.145-2.873h1.263l-2.427,2.383,2.667,3.385h-1.285Z" transform="translate(-724.538 -120.102)"/><path class="d" d="M745.258,121.095a.643.643,0,0,1-.2-.479.662.662,0,0,1,.2-.485.687.687,0,0,1,.506-.2.71.71,0,0,1,.506.191.625.625,0,0,1,.2.473.674.674,0,0,1-.2.5.688.688,0,0,1-.506.2A.7.7,0,0,1,745.258,121.095Zm-.016,1.306h1.045v5.768h-1.045Z" transform="translate(-731.312 -119.93)"/><path class="d" d="M756.225,125.256a2.67,2.67,0,0,1,1.04,1.034,3.336,3.336,0,0,1,0,3.075,2.655,2.655,0,0,1-1.04,1.039,3.032,3.032,0,0,1-1.5.37,2.675,2.675,0,0,1-1.137-.239,2.356,2.356,0,0,1-.876-.7v2.982h-1.045v-7.879h1v.914a2.217,2.217,0,0,1,.881-.723,2.784,2.784,0,0,1,1.176-.245A3.037,3.037,0,0,1,756.225,125.256Zm-.593,4.348a1.837,1.837,0,0,0,.7-.718,2.328,2.328,0,0,0,0-2.123,1.8,1.8,0,0,0-.7-.713,1.983,1.983,0,0,0-1-.25,1.931,1.931,0,0,0-.985.255,1.858,1.858,0,0,0-.7.713,2.129,2.129,0,0,0-.255,1.055,2.195,2.195,0,0,0,.25,1.061,1.8,1.8,0,0,0,.7.718,2.055,2.055,0,0,0,1.986,0Z" transform="translate(-734.698 -122.47)"/></g><path class="d" d="M726.917,129.657H697.133a12.1,12.1,0,1,1,0-24.2h29.784a12.1,12.1,0,1,1,0,24.2Zm-29.784-22.934a10.832,10.832,0,1,0,0,21.664h29.784a10.832,10.832,0,1,0,0-21.664Z" transform="translate(-685.031 -105.454)"/></g></g><line class="d" x1="205.726" transform="translate(34.591 298.721)"/></g><g transform="translate(359.158 161.01)"><g transform="translate(2.631 81.031)"><path class="e" d="M405.278,579.718c-.446-2.526-7.5-18.266-15.659-14.051-4.848,2.5-3.976,11.724,3.6,18.69-1.486-1.438-3.2-3.068-5.231-3.471a4.043,4.043,0,0,0-3.257,1.045,3.822,3.822,0,0,0-.979,2.733,10.756,10.756,0,0,0,4.791,9.2c-1.675-.936-3.126-2.107-5.037-2.272a2.343,2.343,0,0,0-1.962.856c-.313.6-.291,2.859,3.4,4.544-15.029-2.85-15.906,3.556-10.5,3.556H418.74" transform="translate(-371.406 -543.377)"/><path class="f" d="M449.3,537.858c-.714-4.042-8.159-29.455-21.226-22.707-7.761,4.009-6.365,18.769,5.758,29.921-2.38-2.3-5.127-4.911-8.375-5.556a6.472,6.472,0,0,0-5.215,1.672,6.116,6.116,0,0,0-1.567,4.375,17.22,17.22,0,0,0,7.67,14.729c-2.681-1.5-5-3.374-8.065-3.637a3.75,3.75,0,0,0-3.14,1.369c-.5.964-.466,4.577,5.437,7.276-24.06-4.563-25.464,5.693-16.816,5.693h57.158" transform="translate(-387.261 -514.018)"/><path class="f" d="M725.418,562.028c.561-3.175,9.427-22.969,19.69-17.668,6.1,3.149,5,14.742-4.522,23.5,1.869-1.807,4.027-3.857,6.577-4.364a5.083,5.083,0,0,1,4.1,1.314,4.8,4.8,0,0,1,1.231,3.436,13.526,13.526,0,0,1-6.024,11.569c2.106-1.177,3.931-2.65,6.334-2.857a2.946,2.946,0,0,1,2.466,1.076c.394.757.366,3.595-4.27,5.714,18.9-3.584,20,4.471,13.207,4.471H708.49" transform="translate(-570.133 -530.99)"/></g><g transform="translate(126.868 114.356)"><g transform="translate(0 13.398)"><rect class="c" width="30.347" height="7.908" transform="translate(20.738 1.375)"/><rect class="g" width="18.994" height="7.908" transform="translate(20.738 9.283) rotate(180)"/><path class="h" d="M718.611,624.316V626.3h29.923a1.921,1.921,0,0,1,2.044,1.768v3.146a1.921,1.921,0,0,1-2.044,1.768H718.611v1.988h31.011a3.326,3.326,0,0,0,3.539-3.061v-4.535a3.326,3.326,0,0,0-3.539-3.061Z" transform="translate(-700.203 -624.316)"/><rect class="h" width="18.408" height="1.988"/><rect class="h" width="18.408" height="1.988" transform="translate(0 8.67)"/><g transform="translate(1.743 3.591)"><line class="i" x2="18.994"/><line class="i" x2="18.994" transform="translate(0 2.186)"/><line class="i" x2="18.994" transform="translate(0 4)"/></g><g transform="translate(20.738 3.591)"><line class="j" x1="23.972"/><line class="j" x1="26.448" transform="translate(0 2.186)"/><line class="j" x1="23.972" transform="translate(0 4)"/></g></g><g transform="translate(4.613)"><path class="k" d="M6.7,0H26.917a0,0,0,0,1,0,0V13.4a0,0,0,0,1,0,0H6.7A6.7,6.7,0,0,1,0,6.7v0A6.7,6.7,0,0,1,6.7,0Z"/><rect class="c" width="25.645" height="10.647" transform="translate(43.902 12.023) rotate(180)"/><path class="l" d="M754.569,592.688v1.988H729.348a1.922,1.922,0,0,0-2.044,1.768v5.886a1.922,1.922,0,0,0,2.044,1.768h25.221v1.988H728.26a3.326,3.326,0,0,1-3.539-3.061v-7.275a3.326,3.326,0,0,1,3.539-3.061Z" transform="translate(-708.338 -592.688)"/><g transform="translate(20.641 3.591)"><line class="m" x2="19.271" transform="translate(3.99)"/><line class="m" x2="23.261" transform="translate(0 1.436)"/><line class="m" x2="21.746" transform="translate(1.515 4.926)"/><line class="m" x2="19.271" transform="translate(3.99 6.74)"/></g></g></g><g transform="translate(13.022 138.332)"><line class="n" x2="141.6" transform="translate(20.055)"/><line class="n" x1="8.103" transform="translate(166.748)"/><line class="n" x1="17.277"/></g><g transform="translate(0 12.268)"><g transform="translate(0 2.502)"><g transform="translate(0 48.178)"><path class="o" d="M398.535,603.883a13.666,13.666,0,0,1-4.752,3.512s2.018,4.61,5.782,2.049c0,0-1.23-1.247,3.475-3.591S398.535,603.883,398.535,603.883Z" transform="translate(-381.673 -547.719)"/><path class="p" d="M365.2,612.747s.1-1.152.469-1.4,8.148.024,9.769-1.274,1.783-2.255,2.165-2.143,2.229,1.067,2.466,1.668-.711,2.628,3.023,2.186c0,0,1.388,2.12-.4,5.793C382.689,617.578,365.243,612.584,365.2,612.747Z" transform="translate(-365.195 -550.06)"/><path class="q" d="M370.406,618.2l12.2,3.364a10.448,10.448,0,0,1,2.5.927" transform="translate(-368.199 -555.985)"/><g transform="translate(57.551 61.306)"><path class="r" d="M509.348,618.592q-.055,1.08-.044,2.161a3.722,3.722,0,0,0,.526,2.05c.527.882.786.735-.105,1.535-1.37,1.231-5.413,1.741-5.306-.949l.252-6.325a1.29,1.29,0,0,1,.2-.771c.673-.84,3.739.76,4.568,1.027Q509.38,617.955,509.348,618.592Z" transform="translate(-502.994 -616.052)"/><path class="p" d="M519.365,637.661s.218-1.136-.069-1.474-7.844-2.2-9.049-3.9-1.1-2.656-1.5-2.653-2.435.417-2.828.931-.034,2.722-3.506,1.276c0,0-1.914,1.661-1.2,5.681C501.216,637.526,519.363,637.49,519.365,637.661Z" transform="translate(-501.057 -623.883)"/><path class="q" d="M518.731,645.948l-12.652-.1a10.428,10.428,0,0,0-2.661.207" transform="translate(-502.417 -633.226)"/></g><path class="s" d="M406.432,599.029a19.229,19.229,0,0,0,5.783,1.868" transform="translate(-388.964 -544.934)"/><path class="p" d="M456.636,473.841s-2.642,32.366-3.033,43.052-.745,19.677-.745,19.677l-8.875-1.7s-.76-.706-.415-4.635-6.238,6.548-2.477-30.859l.281-6.046c-21.527,34.96-26.534,30.591-28.364,34.085s-2.851,3.679-2.851,3.679l-8.628-3.012s4.793-8.106,10.231-17.314,24-39.442,24-39.442" transform="translate(-386.138 -471.326)"/><path class="t" d="M510.09,610.588a19.222,19.222,0,0,1-5.876-1.549" transform="translate(-445.326 -550.704)"/><path class="t" d="M416.13,599.308a19.238,19.238,0,0,1-5.749-1.968" transform="translate(-391.24 -543.961)"/><path class="t" d="M480.471,480.441a9.886,9.886,0,0,1-2.5,3.715,5.566,5.566,0,0,1-3.249,1" transform="translate(-428.324 -476.58)"/><path class="t" d="M520.3,494.861a9.014,9.014,0,0,0,3.793,7.092" transform="translate(-454.6 -484.892)"/></g><g transform="translate(37.011)"><path class="u" d="M461.993,411.562l-9.425.039s1.2-8.585,3.283-11.019,17.2-7.584,18.308-7.653,4.311.139,6.745.208,5.734,36.441,5.734,36.441-1.713-.583-8.509-.106a27.364,27.364,0,0,1-13.4-2.7Z" transform="translate(-452.568 -377.952)"/><path class="v" d="M528.274,371.08a11.518,11.518,0,0,1-.83-2.82,2.383,2.383,0,0,1,.03-.873.7.7,0,0,1,.2-.362.615.615,0,0,1,.688-.016,1.809,1.809,0,0,1,.511.519,21.432,21.432,0,0,1,1.338,1.98l.561,1.814-2.355.382Z" transform="translate(-495.712 -362.963)"/><path class="w" d="M478.779,361.592c.6,3.751-2.022,9.945-5.652,9.945a6.73,6.73,0,0,1-6.572-6.878c0-3.8,3-6.215,6.572-6.879C476.439,357.165,478.2,357.965,478.779,361.592Z" transform="translate(-460.631 -357.592)"/><path class="o" d="M481.5,367.035s1.227,6.4.57,7.711a2.288,2.288,0,0,1-2.016,1.27l.745,3.9s1.752,1.533.263,2.673-6.484-.35-6.484-.35l-.57-7.623s-2.979-.175-2.717-2.629,2.8-1.1,2.8-1.1a4.691,4.691,0,0,0,.964-3.286s2.1,1.008,2.672-.482A3.379,3.379,0,0,0,481.5,367.035Z" transform="translate(-463.35 -363.035)"/><path class="v" d="M489.827,387.6a7.107,7.107,0,0,1-1.6-.469s.939,1.386,1.811,1.587Z" transform="translate(-473.124 -374.617)"/></g></g><path class="w" d="M476.375,358.165c1.5.447,3.2.852,4.232-.322a3.832,3.832,0,0,0,.784-1.877,6.057,6.057,0,0,0-.6-4.28,2.325,2.325,0,0,1-2.813,1.862,10.327,10.327,0,0,1-1.025-.424,5.069,5.069,0,0,0-4.919,1,11.307,11.307,0,0,0-2.975,4.284" transform="translate(-425.063 -351.686)"/></g><g transform="translate(45.041)"><path class="x" d="M513.369,371.087l94.783-1.593a2,2,0,0,1,2.039,1.989c.081,13.2.538,86.726.769,94.154.254,8.164,2.586,18.848-9.579,20.548-11.061,1.546-76.859-4.327-88.718-5.406a2,2,0,0,1-1.821-2.007l.556-105.69A2.005,2.005,0,0,1,513.369,371.087Z" transform="translate(-496.515 -349.682)"/><path class="p" d="M477.021,625.556s-.254,7.713,6.784,8.73,100.833-.036,100.833-.036-8.084-1.74-10.256-9.787Z" transform="translate(-477.02 -496.647)"/><g transform="translate(25.151 39.923)"><circle class="y" cx="6.71" cy="6.71" r="6.71" transform="translate(0.369 1.164)"/><line class="z" x2="57.189" transform="translate(18.598 3.466)"/><line class="z" x2="37.22" transform="translate(18.598 7.261)"/><path class="aa" d="M536.4,422.85l5.878,4.054,9.527-9.932" transform="translate(-536.395 -416.972)"/></g><rect class="y" width="14.907" height="14.907" rx="5.505" transform="translate(25.095 60.01)"/><rect class="ab" width="14.907" height="14.907" rx="5.505" transform="translate(51.251 60.01)"/><rect class="y" width="14.907" height="14.907" rx="5.505" transform="translate(25.095 83.547)"/><rect class="ab" width="14.907" height="14.907" rx="5.505" transform="translate(51.251 83.547)"/><rect class="y" width="14.907" height="14.907" rx="5.505" transform="translate(25.095 107.084)"/><rect class="ab" width="14.907" height="14.907" rx="5.505" transform="translate(51.251 107.084)"/><g transform="translate(43.395)"><path class="u" d="M7.847,0h23a7.847,7.847,0,0,1,7.847,7.847v7a0,0,0,0,1,0,0H0a0,0,0,0,1,0,0v-7A7.847,7.847,0,0,1,7.847,0Z" transform="translate(0 10.193) rotate(-1.124)"/><path class="ac" d="M8.324,0A8.324,8.324,0,1,1,0,8.324,8.324,8.324,0,0,1,8.324,0Z" transform="translate(9.647 16.372) rotate(-79.568)"/><path class="u" d="M605.474,341.946c0,.03.005.058.006.088l16.635-.326c0-.03,0-.058,0-.088a8.314,8.314,0,0,0-.493-2.648l-15.762.309A8.3,8.3,0,0,0,605.474,341.946Z" transform="translate(-594.455 -332.089)"/></g></g><g transform="translate(91.457 61.801)"><g transform="translate(17.573 70.418)"><path class="ad" d="M721.99,639.044l-4.187-4.187" transform="translate(-680.734 -634.857)"/><path class="ad" d="M630.293,639.344l3.966-3.966" transform="translate(-630.293 -635.157)"/></g><path class="u" d="M38.2,0A38.2,38.2,0,1,1,0,38.2,38.2,38.2,0,0,1,38.2,0Z"/><g class="ae"><path class="af" d="M669.621,471.933c2.038,1.656,7.686,4.71,9.724,6.367,3.616,2.939,6.017,6.773,8.492,10.722a31.088,31.088,0,0,1,2.792,5.97c2.592,7.157,3.737,15.021,1.976,22.426a55.81,55.81,0,0,1-2.976,8.477,24.511,24.511,0,0,1-2.817,5.4,25.219,25.219,0,0,1-4.757,4.458,44.39,44.39,0,0,1-8.361,5.606,43.851,43.851,0,0,1-10.33,2.925,45.19,45.19,0,0,1-10.891,1.211c-3.657-.186-9.391-1.91-12.023-4.456" transform="translate(-618.574 -470.53)"/><path class="ag" d="M594.048,526.952c-3.841-6.571-5.211-16.816-4.814-24.418a55.813,55.813,0,0,1,1.4-8.875,24.487,24.487,0,0,1,1.8-5.824,25.237,25.237,0,0,1,3.874-5.243,44.393,44.393,0,0,1,7.212-7.023c2.92-2.086,5.891-4.316,9.23-5.629,3.408-1.339,7.264-1.79,10.9-2.268" transform="translate(-589.016 -468.073)"/></g><circle class="ah" cx="30.094" cy="30.094" r="30.094" transform="translate(8.107 8.107)"/><g transform="translate(8.107 8.107)"><g class="ai"><line class="aj" y1="61.179" x2="61.179" transform="translate(-4.088 -12.857)"/><line class="ak" y1="61.179" x2="61.179" transform="translate(5.93 5.411)"/></g></g><path class="al" d="M678.99,515.075V533.49" transform="translate(-640.789 -495.397)"/><path class="al" d="M663.495,559.255,652.151,570.6" transform="translate(-625.319 -520.862)"/><g transform="translate(18.896 18.896)"><path class="am" d="M721.819,513.227l-2.017,2.017" transform="translate(-683.209 -513.227)"/><path class="am" d="M635.433,599.613l-2.017,2.017" transform="translate(-633.416 -563.02)"/></g><g transform="translate(18.896 18.896)"><path class="am" d="M721.819,601.63l-2.017-2.017" transform="translate(-683.209 -563.02)"/><path class="am" d="M635.433,515.244l-2.017-2.017" transform="translate(-633.416 -513.227)"/></g><g transform="translate(38.201 10.899)"><path class="al" d="M678.99,623.252" transform="translate(-678.99 -568.649)"/><path class="al" d="M678.99,494.35" transform="translate(-678.99 -494.35)"/></g><g transform="translate(10.899 38.201)"><path class="al" d="M614.539,558.8" transform="translate(-614.539 -558.801)"/><path class="al" d="M743.441,558.8" transform="translate(-688.838 -558.801)"/></g><circle class="h" cx="4.122" cy="4.122" r="4.122" transform="translate(34.079 34.079)"/></g><g transform="translate(36.119 18.673)"><path class="p" d="M520.822,440.937l2.233,1.345-.636-2.623Z" transform="translate(-492.034 -408.8)"/><path class="k" d="M504.863,414.707l6.76,11.13s1.517-.08,1.6-1.277l-6.586-11.1Z" transform="translate(-482.835 -393.7)"/><path class="an" d="M504.885,412.6a1.078,1.078,0,0,0-.279,1.5l1.778-1.22A1.078,1.078,0,0,0,504.885,412.6Z" transform="translate(-482.578 -393.096)"/><path class="o" d="M453.54,429.012s-1.528,10.076,0,12.509,4.589,2.5,10.151-3.129,7.3-9.1,8.481-8.894,3.129,2.364,6.536.347c0,0-.765,1.182-.417,1.669s3.546-.765,4.172-2.781a4.621,4.621,0,0,0-2.711-5.145,15.617,15.617,0,0,0-7.579.139c-2.5.765-10.012,5.284-10.012,5.284Z" transform="translate(-452.861 -399.306)"/><path class="ao" d="M467.07,437.176a19.266,19.266,0,0,0-5.535,6.578" transform="translate(-457.861 -407.368)"/><path class="ao" d="M513.674,437.523a6.07,6.07,0,0,0,.761-.824" transform="translate(-487.914 -407.093)"/><path class="ao" d="M517.687,431.723a4.89,4.89,0,0,1,1.508,2.067" transform="translate(-490.227 -404.225)"/><path class="ao" d="M519.246,429.085a6.151,6.151,0,0,1,.974,1.435" transform="translate(-491.125 -402.705)"/><path class="o" d="M532.962,368.073a1.671,1.671,0,0,1,.88-1,1.019,1.019,0,0,1,1.223.33.919.919,0,0,1,.5-.473,1.648,1.648,0,0,1,.7-.116,1.556,1.556,0,0,1,.72.168.849.849,0,0,1,.44.572,1.188,1.188,0,0,1,.959-.6,1.63,1.63,0,0,1,.808.031,1.325,1.325,0,0,1,.774.85,1.066,1.066,0,0,1,1.3-.172,1.384,1.384,0,0,1,.6.909,3.514,3.514,0,0,1,.015,1.115,8.048,8.048,0,0,1-1.73,4.576,1.281,1.281,0,0,1-.639.448.525.525,0,0,1-.632-.333,1.086,1.086,0,0,1-2.01-.055,1.485,1.485,0,0,1-1.028.657,1.381,1.381,0,0,1-1.092-.43.839.839,0,0,1-1.031.255,1.314,1.314,0,0,1-.725-.83,3.888,3.888,0,0,1-.148-1.125q-.039-1.184-.078-2.369a11.7,11.7,0,0,1,0-1.261A4.281,4.281,0,0,1,532.962,368.073Z" transform="translate(-498.906 -366.808)"/><path class="ap" d="M537.079,377.7q.241-2.308.547-4.61" transform="translate(-501.404 -370.427)"/><path class="ap" d="M542.122,378q.384-2.3.909-4.572" transform="translate(-504.311 -370.622)"/><path class="ap" d="M546.956,377.957l1.2-4.475" transform="translate(-507.098 -370.655)"/></g><g transform="translate(7.357 10.402)"><g class="aq" transform="translate(0 82.282)"><line class="ar" x2="2.626" transform="translate(0 1.313)"/><line class="ar" y1="2.625" transform="translate(1.313)"/></g><g class="as" transform="translate(170.155 34.164)"><line class="at" x2="3.126" transform="translate(0 1.563)"/><line class="at" y1="3.126" transform="translate(1.563)"/></g><g class="aq" transform="translate(33.525 14.676)"><line class="au" x2="3.705" transform="translate(0 1.853)"/><line class="au" y1="3.705" transform="translate(1.853)"/></g><g class="as" transform="translate(100.769)"><line class="at" x2="3.126" transform="translate(0 1.563)"/><line class="at" y1="3.126" transform="translate(1.563)"/></g><g transform="translate(21.26 51.007)"><line class="av" x2="2.203" transform="translate(0 1.101)"/><line class="av" y1="2.203" transform="translate(1.101)"/></g><g class="as" transform="translate(152.212 14.978)"><line class="aw" x2="1.563" transform="translate(0 0.782)"/><line class="aw" y1="1.563" transform="translate(0.782)"/></g><path class="ax" d="M553.375,370.142a1.234,1.234,0,1,1-1.234-1.234A1.234,1.234,0,0,1,553.375,370.142Z" transform="translate(-481.363 -359.747)"/><path class="ay" d="M808.187,549.45a.907.907,0,1,1-.907-.907A.906.906,0,0,1,808.187,549.45Z" transform="translate(-631.279 -463.289)"/><path class="az" d="M651.909,402.4a1.813,1.813,0,1,1-1.813-1.813A1.813,1.813,0,0,1,651.909,402.4Z" transform="translate(-538.531 -378.008)"/><path class="ba" d="M791.054,476.985a1.433,1.433,0,1,1-1.433-1.433A1.433,1.433,0,0,1,791.054,476.985Z" transform="translate(-620.797 -421.217)"/><path class="ba" d="M386.059,431.178a1.433,1.433,0,1,1-1.433-1.433A1.433,1.433,0,0,1,386.059,431.178Z" transform="translate(-382.926 -394.814)"/></g></g></g><g transform="translate(417.457 513.22)"><path class="bb" d="M564.939,1036.44a3.823,3.823,0,1,0,3.822,3.823A3.827,3.827,0,0,0,564.939,1036.44Z" transform="translate(-515.117 -1036.328)"/><path class="bb" d="M596.8,1044.2a3.823,3.823,0,1,1,3.822-3.823A3.827,3.827,0,0,1,596.8,1044.2Zm0-6.394a2.571,2.571,0,1,0,2.571,2.571A2.574,2.574,0,0,0,596.8,1037.808Z" transform="translate(-592.979 -1036.501)"/><path class="bb" d="M596.8,1044.2a3.823,3.823,0,1,1,3.822-3.823A3.827,3.827,0,0,1,596.8,1044.2Zm0-6.394a2.571,2.571,0,1,0,2.571,2.571A2.574,2.574,0,0,0,596.8,1037.808Z" transform="translate(-577.979 -1036.501)"/><path class="bb" d="M596.8,1044.2a3.823,3.823,0,1,1,3.822-3.823A3.827,3.827,0,0,1,596.8,1044.2Zm0-6.394a2.571,2.571,0,1,0,2.571,2.571A2.574,2.574,0,0,0,596.8,1037.808Z" transform="translate(-546.979 -1036.501)"/><path class="bb" d="M628.665,1044.319a3.823,3.823,0,1,1,3.822-3.823A3.828,3.828,0,0,1,628.665,1044.319Zm0-6.395a2.572,2.572,0,1,0,2.571,2.572A2.574,2.574,0,0,0,628.665,1037.925Z" transform="translate(-594.842 -1036.561)"/><path class="bb" d="M628.665,1044.319a3.823,3.823,0,1,1,3.822-3.823A3.828,3.828,0,0,1,628.665,1044.319Zm0-6.395a2.572,2.572,0,1,0,2.571,2.572A2.574,2.574,0,0,0,628.665,1037.925Z" transform="translate(-563.842 -1036.561)"/></g></g></svg>