<svg xmlns="http://www.w3.org/2000/svg" width="265" height="535" viewBox="0 0 265 535"><defs><style>.a{fill:#d4d4d4;}.b{fill:#fff;}.c{fill:#3e3d51;}.d{fill:#2c2858;}.e{fill:#95a6db;}.f{fill:#0e6a41;}.g{fill:#201d40;}.h{fill:#c4204a;}.i{fill:#e62552;}.j{fill:#f37a50;}.k{fill:#de623c;}.l{fill:#020205;}.m{fill:#c01e29;}.n{fill:#a01922;}.o{fill:#faba23;}.p{fill:#fad332;}.q{fill:#faee6c;}.r{fill:#e3eaff;}.s{fill:#4ead60;}.t{fill:#3f964f;}.u{fill:#f9cd2d;}.v{fill:#f9f93a;}.w{fill:#fac832;}.x{fill:#8282a8;}</style></defs><g transform="translate(-324.537 -33)"><g transform="translate(0.63)"><g transform="translate(323.907 33)"><path class="a" d="M584.766,117.6h-.5V64.736A31.728,31.728,0,0,0,552.542,33H360.272a31.728,31.728,0,0,0-31.72,31.736V117.6h-.5a4.142,4.142,0,0,0-4.141,4.143v36.567a4.142,4.142,0,0,0,4.141,4.143h.5v8.722h-.5a4.142,4.142,0,0,0-4.141,4.143v36.567a4.142,4.142,0,0,0,4.141,4.143h.5V536.264A31.729,31.729,0,0,0,360.272,568h192.27a31.729,31.729,0,0,0,31.72-31.736V184.878h.5a4.142,4.142,0,0,0,4.141-4.144V121.742A4.142,4.142,0,0,0,584.766,117.6Z" transform="translate(-323.907 -33)"/><path class="b" d="M52.343,0h129.97a52.343,52.343,0,0,1,52.343,52.343V465.5a52.342,52.342,0,0,1-52.342,52.342H52.343A52.343,52.343,0,0,1,0,465.5V52.343A52.343,52.343,0,0,1,52.343,0Z" transform="translate(15.172 8.579)"/><g transform="translate(42.984 37.894)"><g transform="translate(0 6.175)"><path class="c" d="M423.386,118.621H406.773a.681.681,0,1,1,0-1.361h16.613a.681.681,0,1,1,0,1.361Z" transform="translate(-406.092 -117.26)"/><path class="c" d="M423.386,130.338H406.773a.681.681,0,1,1,0-1.362h16.613a.681.681,0,1,1,0,1.362Z" transform="translate(-406.092 -122.848)"/><path class="c" d="M423.386,142.054H406.773a.681.681,0,1,1,0-1.361h16.613a.681.681,0,1,1,0,1.361Z" transform="translate(-406.092 -128.437)"/></g><g transform="translate(121.112)"><g transform="translate(16.647 7.571)"><path class="c" d="M718.21,129.1a3.651,3.651,0,0,1-1.349-.742l.432-.911a3.576,3.576,0,0,0,1.2.683,4.4,4.4,0,0,0,1.5.263,2.7,2.7,0,0,0,1.518-.344,1.062,1.062,0,0,0,.5-.917.9.9,0,0,0-.274-.683,1.84,1.84,0,0,0-.677-.4q-.4-.14-1.139-.315a11.618,11.618,0,0,1-1.488-.444,2.46,2.46,0,0,1-.969-.683,1.824,1.824,0,0,1-.4-1.244,2.106,2.106,0,0,1,.345-1.179,2.365,2.365,0,0,1,1.045-.84,4.238,4.238,0,0,1,1.74-.315,5.508,5.508,0,0,1,1.424.187,3.813,3.813,0,0,1,1.2.537l-.385.934a4.24,4.24,0,0,0-1.1-.5,4.109,4.109,0,0,0-1.144-.169,2.522,2.522,0,0,0-1.489.362,1.108,1.108,0,0,0-.5.934.894.894,0,0,0,.28.683,1.941,1.941,0,0,0,.7.408,10.658,10.658,0,0,0,1.127.31,11.421,11.421,0,0,1,1.483.444,2.5,2.5,0,0,1,.963.677,1.785,1.785,0,0,1,.4,1.226,2.085,2.085,0,0,1-.35,1.174,2.345,2.345,0,0,1-1.062.84,4.391,4.391,0,0,1-1.752.31A5.584,5.584,0,0,1,718.21,129.1Z" transform="translate(-716.861 -120.452)"/><path class="c" d="M734.246,126.045l-1.285,1.191v1.693h-1.121v-8.664h1.121v5.558l3.374-3.083h1.355l-2.6,2.557,2.861,3.631H736.57Z" transform="translate(-724.006 -120.09)"/><path class="c" d="M745.273,121.179a.69.69,0,0,1-.216-.514.71.71,0,0,1,.216-.52.737.737,0,0,1,.543-.216.761.761,0,0,1,.543.2.671.671,0,0,1,.216.508.723.723,0,0,1-.216.531.738.738,0,0,1-.543.216A.747.747,0,0,1,745.273,121.179Zm-.017,1.4h1.121v6.188h-1.121Z" transform="translate(-730.31 -119.93)"/><path class="c" d="M756.557,125.283a2.864,2.864,0,0,1,1.116,1.109,3.578,3.578,0,0,1,0,3.3,2.848,2.848,0,0,1-1.116,1.115,3.253,3.253,0,0,1-1.611.4,2.87,2.87,0,0,1-1.22-.257,2.527,2.527,0,0,1-.94-.747v3.2h-1.121v-8.453h1.074v.981a2.378,2.378,0,0,1,.946-.776,2.987,2.987,0,0,1,1.262-.263A3.258,3.258,0,0,1,756.557,125.283Zm-.636,4.665a1.971,1.971,0,0,0,.747-.77,2.5,2.5,0,0,0,0-2.277,1.935,1.935,0,0,0-.747-.765,2.128,2.128,0,0,0-1.068-.268,2.072,2.072,0,0,0-1.057.274,1.994,1.994,0,0,0-.747.765,2.284,2.284,0,0,0-.274,1.132,2.354,2.354,0,0,0,.268,1.139,1.927,1.927,0,0,0,.747.77,2.205,2.205,0,0,0,2.131,0Z" transform="translate(-733.462 -122.294)"/></g><path class="c" d="M729.968,131.42H698.014a12.983,12.983,0,0,1,0-25.966h31.954a12.983,12.983,0,0,1,0,25.966Zm-31.954-24.6a11.621,11.621,0,0,0,0,23.243h31.954a11.621,11.621,0,1,0,0-23.243Z" transform="translate(-685.031 -105.454)"/></g></g><line class="c" x1="201.408" transform="translate(37.111 298.721)"/></g><g transform="translate(366.534 139.254)"><g transform="translate(0)"><g transform="translate(25.737 60.245)"><path class="d" d="M500.684,526.688l-38.392.024a10.964,10.964,0,0,1-10.971-10.957l-.06-93.951a10.965,10.965,0,0,1,10.957-10.972l38.392-.024a10.964,10.964,0,0,1,10.971,10.957l.06,93.951A10.965,10.965,0,0,1,500.684,526.688Z" transform="translate(-449.195 -410.808)"/><path class="e" d="M504,527.443l-39.186.025a7.71,7.71,0,0,1-7.715-7.706l-.061-96.008a7.71,7.71,0,0,1,7.705-7.715l39.186-.025a7.71,7.71,0,0,1,7.715,7.705l.061,96.009A7.71,7.71,0,0,1,504,527.443Z" transform="translate(-452.12 -413.441)"/><path class="d" d="M448.792,460.437h0a1.711,1.711,0,0,1-1.711-1.711v-8.869a1.711,1.711,0,0,1,1.711-1.711h0a1.711,1.711,0,0,1,1.71,1.711v8.869A1.711,1.711,0,0,1,448.792,460.437Z" transform="translate(-447.081 -429.694)"/><path class="d" d="M572.239,460.437h0a1.711,1.711,0,0,1-1.711-1.711v-8.869a1.711,1.711,0,0,1,1.711-1.711h0a1.711,1.711,0,0,1,1.71,1.711v8.869A1.711,1.711,0,0,1,572.239,460.437Z" transform="translate(-509.523 -429.694)"/></g><g transform="translate(106.225 60.245)"><path class="d" d="M710.928,526.688l-38.393.024a10.965,10.965,0,0,1-10.971-10.957l-.059-93.951a10.965,10.965,0,0,1,10.957-10.972l38.392-.024a10.964,10.964,0,0,1,10.971,10.957l.06,93.951A10.965,10.965,0,0,1,710.928,526.688Z" transform="translate(-659.439 -410.808)"/><path class="e" d="M714.248,527.443l-39.185.025a7.71,7.71,0,0,1-7.715-7.706l-.061-96.008a7.71,7.71,0,0,1,7.705-7.715l39.186-.025a7.71,7.71,0,0,1,7.715,7.705l.061,96.009A7.71,7.71,0,0,1,714.248,527.443Z" transform="translate(-662.364 -413.441)"/><path class="d" d="M659.035,460.437h0a1.71,1.71,0,0,1-1.71-1.711v-8.869a1.71,1.71,0,0,1,1.71-1.711h0a1.711,1.711,0,0,1,1.711,1.711v8.869A1.711,1.711,0,0,1,659.035,460.437Z" transform="translate(-657.325 -429.694)"/><path class="d" d="M782.482,460.437h0a1.711,1.711,0,0,1-1.71-1.711v-8.869a1.711,1.711,0,0,1,1.71-1.711h0a1.711,1.711,0,0,1,1.711,1.711v8.869A1.711,1.711,0,0,1,782.482,460.437Z" transform="translate(-719.767 -429.694)"/><path class="d" d="M659.035,486.987h0a1.71,1.71,0,0,1-1.71-1.71v-8.87a1.71,1.71,0,0,1,1.71-1.711h0a1.711,1.711,0,0,1,1.711,1.711v8.87A1.71,1.71,0,0,1,659.035,486.987Z" transform="translate(-657.325 -443.124)"/></g><g transform="translate(0 90.923)"><g transform="translate(4.737 41.22)"><path class="f" d="M409.654,633c-1.29,5.417-5.9,2.438-4.936,5.861a.612.612,0,0,0,.573.431l2.708.1a1.219,1.219,0,0,0,.734-.213c1.428-.978,2.4-2.355,5.482-2.523-.023-1.317.037-3.2-.4-3.87Z" transform="translate(-404.586 -594.989)"/><path class="g" d="M419.8,556.3s-7.874,12.009-8.961,15.745,1.187,10.065.775,22.822a16.545,16.545,0,0,0,5.742.09s1.975-16-.348-19.779c3.48-5.311,12.223-16.906,12.223-16.906Z" transform="translate(-407.6 -556.296)"/></g><g transform="translate(14.497 38.792)"><path class="f" d="M431.145,636.749c-2,2.727-7,1.114-6.8,4.775,7.58-.121,10.731-.1,10.731-.1a26.009,26.009,0,0,0-.37-3.616Z" transform="translate(-424.335 -594.563)"/><path class="d" d="M431.3,551.383s-2.511,19.593-1.931,23.44,2.376,6.859,2.438,19.622c2.483.547,6.278,1.038,6.278,1.038s1.6-15.394-1.691-19.632c.932-6.281,5.378-22.08,5.378-22.08Z" transform="translate(-426.836 -551.383)"/></g><path class="h" d="M401.095,530.279l-3.061-3.432a.358.358,0,0,0-.26-.119l-2.521-.015c-.072,0-.294.4-.246.45l2.159,1.919a.079.079,0,0,0,.037.023l3.7,1.374C400.985,530.5,401.151,530.341,401.095,530.279Z" transform="translate(-395 -500.113)"/><path class="i" d="M400.863,530.913l-2.916-3.236a.36.36,0,0,0-.261-.119l-2.6-.047a.082.082,0,0,0-.062.137l2.053,2.264a.083.083,0,0,0,.037.023l3.662,1.111A.082.082,0,0,0,400.863,530.913Z" transform="translate(-395.002 -500.517)"/><path class="j" d="M408.544,535.389l-2.109-1.034s-2.08-2.106-2.389-2.576c-.463-.234-1.339-.824-1.535-.846a3.236,3.236,0,0,0-.6.038l.976,1.111a1.562,1.562,0,0,1-1.056-.284c-.592-.376-1.637-1.384-2.149-1.188l-.182.161s-.323-.345-.628-.217.3,1.648,2.021,3.259a5.112,5.112,0,0,0,.68,1.184l3.478,1.222Z" transform="translate(-396.921 -502.041)"/><path class="h" d="M399.886,528.368a.253.253,0,1,0-.051-.4A.288.288,0,0,0,399.886,528.368Z" transform="translate(-397.416 -500.719)"/><path class="j" d="M438.337,502.522c-.626.811,4.276,1.693,4.933.008s-.471-6.322-.471-6.322l-4.469.949S439.151,501.467,438.337,502.522Z" transform="translate(-416.893 -484.683)"/><g transform="translate(12.82)"><ellipse class="j" cx="5.127" cy="6.528" rx="5.127" ry="6.528" transform="translate(3.183 2.319) rotate(-5.99)"/><path d="M431.068,492.121a.534.534,0,1,1-.322-.683A.533.533,0,0,1,431.068,492.121Z" transform="translate(-425.54 -482.254)"/><path d="M438.063,490.514a.578.578,0,1,1-.348-.739A.577.577,0,0,1,438.063,490.514Z" transform="translate(-429.035 -481.411)"/><path class="k" d="M433.914,492.627c-.113.84-.27,1.874-.27,1.874a1.293,1.293,0,0,0,1.468.179c-.458.015-.957-.072-1.032-.657S433.914,492.627,433.914,492.627Z" transform="translate(-427.367 -482.871)"/><g transform="translate(3.986 8.178)"><path class="l" d="M430.394,489.905a.205.205,0,0,1-.2,0,.6.6,0,0,0-.437-.038.667.667,0,0,0-.349.428.2.2,0,0,1-.384-.142,1.047,1.047,0,0,1,.592-.671,1.01,1.01,0,0,1,.773.062.2.2,0,0,1,.082.278A.2.2,0,0,1,430.394,489.905Z" transform="translate(-429.008 -489.435)"/></g><g transform="translate(7.871 7.414)"><path class="l" d="M437.033,488.539a.2.2,0,0,0,.193-.062.594.594,0,0,1,.4-.179.668.668,0,0,1,.471.29.2.2,0,0,0,.316-.261,1.05,1.05,0,0,0-.781-.438,1.009,1.009,0,0,0-.709.313.2.2,0,0,0,.11.338Z" transform="translate(-436.87 -487.888)"/></g><path class="l" d="M433.958,482.9a4.247,4.247,0,0,1-1.343-3.926c-.9.059-1.152.444-1.152.444a1.964,1.964,0,0,1-.547-1.613c-1.95-.212-2.521,1.167-4.009,1.98-2.038,1.114-4.965.971-5.934-1.623a.471.471,0,0,1,.6-.61,2.075,2.075,0,0,0,1.281.027,2.215,2.215,0,0,1-.811-1.1.47.47,0,0,1,.655-.555,3.356,3.356,0,0,0,2.915-.3c.948-.455,2.8-2.669,4.308-2.74a3.634,3.634,0,0,1,3.2,1.994,3.785,3.785,0,0,1,4.073,2.595c1.114,3.015-3.063,7.674-3.063,7.674S434.448,483.382,433.958,482.9Z" transform="translate(-420.942 -472.886)"/><path class="b" d="M434.577,498.186a.157.157,0,0,1,.047-.285,11.139,11.139,0,0,0,2.767-1.037.157.157,0,0,1,.223.183,1.958,1.958,0,0,1-3.037,1.139Z" transform="translate(-427.802 -485.005)"/><g transform="translate(11.173 7.4)"><path class="j" d="M444.073,488.366a1.282,1.282,0,1,0,1.975-.184A1.417,1.417,0,0,0,444.073,488.366Z" transform="translate(-443.551 -487.86)"/><g transform="translate(0.754 0.702)"><path class="k" d="M445.431,490.8a.183.183,0,0,1-.071-.046.839.839,0,0,1-.185-1.013.894.894,0,0,1,.933-.448.185.185,0,0,1-.074.363.528.528,0,0,0-.534.264.474.474,0,0,0,.128.577.185.185,0,0,1-.2.3Z" transform="translate(-445.077 -489.28)"/></g></g></g><path class="m" d="M427.37,531.607c3.5.713,9.781,1.945,13.105.649,1.258-1.806,1.577-12.019,1.577-12.019.364-10.512-.9-12.072-3.74-15.594a18.987,18.987,0,0,1-5.492,1.026s-2.975,4.13-3.555,7.129a83.205,83.205,0,0,0-.71,11.545A30.557,30.557,0,0,1,427.37,531.607Z" transform="translate(-411.374 -488.949)"/><path class="n" d="M440.785,509.99c2.045,3.981,1.582,8.389-4.364,17.067a5.4,5.4,0,0,1-4.98-3.834s1.144-4.309,2.631-9.729S439.89,508.248,440.785,509.99Z" transform="translate(-413.433 -491.104)"/><path class="n" d="M412.4,536.2l8.915.712s3.823-.7,4.9,3.953c-1.913,1.49-6.853,2.049-14.955-.959A9.9,9.9,0,0,0,412.4,536.2Z" transform="translate(-403.223 -504.911)"/><path class="b" d="M438.366,504l-.085,2.4,6.032-2.529-.731-1.94Z" transform="translate(-416.893 -487.578)"/></g><g transform="translate(43.42 36.778)"><path class="o" d="M512.1,375.791a8.9,8.9,0,1,1-4.582-11.72A8.9,8.9,0,0,1,512.1,375.791Z" transform="translate(-495.047 -363.321)"/><path class="p" d="M512.268,376.774a7.31,7.31,0,1,1-3.764-9.627A7.329,7.329,0,0,1,512.268,376.774Z" transform="translate(-496.673 -364.942)"/><g transform="translate(6.102 2.744)"><path class="o" d="M509.693,381.175l0-1.513a4.359,4.359,0,0,1-2.294-.653l.357-1a3.989,3.989,0,0,0,2.159.638c1.064,0,1.781-.619,1.779-1.473,0-.824-.588-1.332-1.7-1.778-1.529-.6-2.475-1.281-2.479-2.585a2.457,2.457,0,0,1,2.255-2.419l0-1.513.929,0,0,1.453a4,4,0,0,1,1.949.518l-.372.99a3.626,3.626,0,0,0-1.889-.5c-1.153,0-1.586.694-1.584,1.293,0,.779.558,1.167,1.863,1.7,1.545.625,2.326,1.4,2.33,2.735a2.605,2.605,0,0,1-2.36,2.553l0,1.558Z" transform="translate(-507.395 -368.873)"/></g></g><g transform="translate(57.438 10.964)"><path class="o" d="M544.4,323.555a8.9,8.9,0,1,1-4.582-11.72A8.9,8.9,0,0,1,544.4,323.555Z" transform="translate(-527.347 -311.085)"/><path class="p" d="M544.569,324.538a7.31,7.31,0,1,1-3.764-9.627A7.33,7.33,0,0,1,544.569,324.538Z" transform="translate(-528.973 -312.706)"/><g transform="translate(6.102 2.744)"><path class="o" d="M541.993,328.939l0-1.513a4.363,4.363,0,0,1-2.294-.652l.356-1.005a4,4,0,0,0,2.159.638c1.064,0,1.781-.619,1.779-1.473,0-.824-.588-1.332-1.7-1.778-1.53-.595-2.475-1.281-2.479-2.585a2.458,2.458,0,0,1,2.255-2.418l0-1.513.929,0,0,1.453a3.994,3.994,0,0,1,1.949.519l-.372.989a3.621,3.621,0,0,0-1.889-.5c-1.153,0-1.586.693-1.584,1.292,0,.779.558,1.167,1.863,1.7,1.545.625,2.326,1.4,2.33,2.735a2.605,2.605,0,0,1-2.36,2.553l0,1.558Z" transform="translate(-539.695 -316.637)"/></g></g><g transform="translate(115.763 9.699)"><circle class="o" cx="8.898" cy="8.898" r="8.898" transform="translate(0 2.749) rotate(-8.886)"/><path class="p" d="M682.016,324.538a7.31,7.31,0,1,1-3.764-9.627A7.329,7.329,0,0,1,682.016,324.538Z" transform="translate(-665.155 -311.44)"/><g transform="translate(7.367 4.009)"><path class="o" d="M679.44,328.939l0-1.513a4.365,4.365,0,0,1-2.294-.652l.357-1.005a3.994,3.994,0,0,0,2.159.638c1.064,0,1.781-.619,1.779-1.473,0-.824-.588-1.332-1.7-1.778-1.529-.595-2.475-1.281-2.479-2.585a2.457,2.457,0,0,1,2.255-2.418l0-1.513.929,0,0,1.453a3.993,3.993,0,0,1,1.949.519l-.372.989a3.619,3.619,0,0,0-1.889-.5c-1.154,0-1.586.693-1.584,1.292,0,.779.557,1.167,1.862,1.7,1.545.625,2.326,1.4,2.33,2.735a2.606,2.606,0,0,1-2.36,2.553l0,1.558Z" transform="translate(-677.142 -316.637)"/></g></g><g transform="translate(133.015 36.778)"><path class="o" d="M718.541,375.791a8.9,8.9,0,1,1-4.581-11.72A8.9,8.9,0,0,1,718.541,375.791Z" transform="translate(-701.49 -363.321)"/><path class="p" d="M718.711,376.774a7.31,7.31,0,1,1-3.764-9.627A7.329,7.329,0,0,1,718.711,376.774Z" transform="translate(-703.116 -364.942)"/><g transform="translate(6.102 2.744)"><path class="o" d="M716.135,381.175l0-1.513a4.362,4.362,0,0,1-2.294-.653l.357-1a3.992,3.992,0,0,0,2.159.638c1.064,0,1.781-.619,1.779-1.473,0-.824-.588-1.332-1.7-1.778-1.53-.6-2.476-1.281-2.479-2.585a2.457,2.457,0,0,1,2.255-2.419l0-1.513.929,0,0,1.453a4,4,0,0,1,1.949.518l-.372.99a3.621,3.621,0,0,0-1.889-.5c-1.153,0-1.586.694-1.584,1.293,0,.779.557,1.167,1.863,1.7,1.545.625,2.326,1.4,2.33,2.735a2.605,2.605,0,0,1-2.36,2.553l0,1.558Z" transform="translate(-713.837 -368.873)"/></g></g><g transform="translate(89.572)"><path class="o" d="M618.442,301.368a8.9,8.9,0,1,1-4.582-11.72A8.9,8.9,0,0,1,618.442,301.368Z" transform="translate(-601.39 -288.898)"/><path class="p" d="M618.612,302.351a7.31,7.31,0,1,1-3.764-9.627A7.33,7.33,0,0,1,618.612,302.351Z" transform="translate(-603.016 -290.519)"/><g transform="translate(6.102 2.744)"><path class="o" d="M616.036,306.752l0-1.513a4.361,4.361,0,0,1-2.294-.653l.357-1a3.989,3.989,0,0,0,2.159.638c1.063,0,1.781-.619,1.778-1.473,0-.824-.588-1.332-1.7-1.778-1.529-.6-2.475-1.281-2.479-2.585a2.457,2.457,0,0,1,2.255-2.418l0-1.513.929,0,0,1.453a3.992,3.992,0,0,1,1.949.519l-.372.989a3.618,3.618,0,0,0-1.889-.5c-1.154,0-1.586.693-1.584,1.292,0,.779.557,1.167,1.862,1.7,1.545.625,2.326,1.4,2.33,2.735a2.606,2.606,0,0,1-2.36,2.553l0,1.558Z" transform="translate(-613.738 -294.45)"/></g></g><g transform="translate(57.231 20.371)"><g transform="translate(75.371 35.71)"><path class="e" d="M689.959,405.893a.781.781,0,0,1-.781-.78c0-.636-.016-1.278-.048-1.911a.781.781,0,1,1,1.559-.08c.034.659.051,1.328.051,1.991A.781.781,0,0,1,689.959,405.893Z" transform="translate(-689.129 -402.381)"/></g><g transform="translate(0.461)"><path class="e" d="M612.827,363.462a.78.78,0,0,1-.77-.66,37.018,37.018,0,0,0-.8-3.782.781.781,0,0,1,1.509-.4,38.52,38.52,0,0,1,.831,3.943.78.78,0,0,1-.772.9Zm-74.5-.033a.792.792,0,0,1-.122-.01.78.78,0,0,1-.65-.892,38.561,38.561,0,0,1,.835-3.943.781.781,0,0,1,1.508.4,36.787,36.787,0,0,0-.8,3.782A.782.782,0,0,1,538.324,363.43Zm72.471-7.588a.781.781,0,0,1-.729-.5,36.83,36.83,0,0,0-1.573-3.533.781.781,0,0,1,1.391-.71,38.544,38.544,0,0,1,1.64,3.684.781.781,0,0,1-.729,1.06Zm-70.433-.029a.781.781,0,0,1-.728-1.061,38.431,38.431,0,0,1,1.641-3.679.781.781,0,0,1,1.39.71,37.075,37.075,0,0,0-1.575,3.528A.781.781,0,0,1,540.362,355.813Zm66.851-7a.779.779,0,0,1-.655-.355,37.188,37.188,0,0,0-2.275-3.128.781.781,0,0,1,1.213-.982,38.767,38.767,0,0,1,2.37,3.26.781.781,0,0,1-.654,1.206Zm-63.266-.022a.781.781,0,0,1-.653-1.206,38.679,38.679,0,0,1,2.372-3.257.78.78,0,0,1,1.212.983,37.306,37.306,0,0,0-2.276,3.125A.78.78,0,0,1,543.947,348.793Zm58.3-6.107a.778.778,0,0,1-.552-.229,37.313,37.313,0,0,0-2.872-2.589.781.781,0,1,1,.984-1.212,38.953,38.953,0,0,1,2.992,2.7.781.781,0,0,1-.552,1.332Zm-53.334-.016a.781.781,0,0,1-.551-1.333,38.788,38.788,0,0,1,2.994-2.7.781.781,0,1,1,.983,1.213,37.29,37.29,0,0,0-2.874,2.588A.78.78,0,0,1,548.914,342.67Zm47.21-4.951a.774.774,0,0,1-.425-.127,37.055,37.055,0,0,0-3.345-1.937.781.781,0,1,1,.711-1.39,38.664,38.664,0,0,1,3.486,2.019.78.78,0,0,1-.426,1.435Zm-41.082-.014a.781.781,0,0,1-.426-1.435,38.677,38.677,0,0,1,3.489-2.017.781.781,0,1,1,.71,1.391,36.9,36.9,0,0,0-3.348,1.936A.777.777,0,0,1,555.043,337.7Zm34.064-3.572a.777.777,0,0,1-.28-.052,36.673,36.673,0,0,0-3.676-1.2.781.781,0,0,1,.4-1.508,38.274,38.274,0,0,1,3.833,1.247.781.781,0,0,1-.28,1.509Zm-27.037-.011a.781.781,0,0,1-.28-1.51,38.341,38.341,0,0,1,3.835-1.243.78.78,0,1,1,.4,1.508,36.692,36.692,0,0,0-3.679,1.193A.781.781,0,0,1,562.069,334.121Zm19.422-2.029a.8.8,0,0,1-.123-.01,37.4,37.4,0,0,0-3.846-.4.781.781,0,0,1,.081-1.559,38.76,38.76,0,0,1,4.007.419.781.781,0,0,1-.12,1.552Zm-11.8,0a.781.781,0,0,1-.12-1.552,38.752,38.752,0,0,1,4.008-.415.781.781,0,1,1,.08,1.559,37.286,37.286,0,0,0-3.846.4A.783.783,0,0,1,569.688,332.088Z" transform="translate(-537.543 -330.12)"/></g><g transform="translate(0 35.71)"><path class="e" d="M537.391,405.893a.78.78,0,0,1-.781-.78c0-.662.017-1.331.051-1.991a.781.781,0,1,1,1.559.08c-.033.633-.049,1.275-.049,1.911A.78.78,0,0,1,537.391,405.893Z" transform="translate(-536.61 -402.381)"/></g><g transform="translate(10.566 10.583)"><g transform="translate(0 25.128)"><path class="e" d="M558.771,405.894a.78.78,0,0,1-.78-.78c0-.668.024-1.342.071-2.005a.781.781,0,0,1,1.557.111c-.044.627-.067,1.264-.067,1.895A.78.78,0,0,1,558.771,405.894Z" transform="translate(-557.991 -402.383)"/></g><g transform="translate(0.617)"><path class="e" d="M560.021,374.391a.8.8,0,0,1-.166-.018.781.781,0,0,1-.6-.929,27.789,27.789,0,0,1,1.123-3.824.781.781,0,1,1,1.462.547,26.221,26.221,0,0,0-1.06,3.608A.78.78,0,0,1,560.021,374.391Zm53.049-.021a.781.781,0,0,1-.762-.615,26.354,26.354,0,0,0-1.062-3.606.781.781,0,0,1,1.462-.548,27.793,27.793,0,0,1,1.125,3.821.78.78,0,0,1-.6.929A.768.768,0,0,1,613.07,374.37Zm-50.347-7.216a.781.781,0,0,1-.684-1.156,28.122,28.122,0,0,1,2.158-3.348.781.781,0,1,1,1.249.937,26.537,26.537,0,0,0-2.037,3.161A.781.781,0,0,1,562.723,367.154Zm47.643-.013a.782.782,0,0,1-.685-.405,26.462,26.462,0,0,0-2.038-3.159.781.781,0,0,1,1.248-.937,28.042,28.042,0,0,1,2.158,3.346.781.781,0,0,1-.683,1.156Zm-43.007-6.166a.78.78,0,0,1-.552-1.332,28.072,28.072,0,0,1,3.009-2.608.78.78,0,1,1,.936,1.249,26.615,26.615,0,0,0-2.841,2.463A.779.779,0,0,1,567.358,360.975Zm38.37-.008a.777.777,0,0,1-.551-.228,26.557,26.557,0,0,0-2.843-2.462.781.781,0,0,1,.936-1.25,28.217,28.217,0,0,1,3.01,2.607.781.781,0,0,1-.552,1.333Zm-32.19-4.622a.781.781,0,0,1-.376-1.465,27.8,27.8,0,0,1,3.62-1.656.78.78,0,0,1,.546,1.462,26.337,26.337,0,0,0-3.417,1.563A.773.773,0,0,1,573.538,356.344Zm26.006-.007a.775.775,0,0,1-.374-.1,26.369,26.369,0,0,0-3.421-1.562.781.781,0,1,1,.545-1.463,27.849,27.849,0,0,1,3.624,1.655.781.781,0,0,1-.375,1.466Zm-18.775-2.692a.78.78,0,0,1-.165-1.543,27.99,27.99,0,0,1,3.942-.563.781.781,0,1,1,.11,1.557,26.555,26.555,0,0,0-3.722.532A.767.767,0,0,1,580.77,353.645Zm11.536,0a.794.794,0,0,1-.166-.018,26.485,26.485,0,0,0-3.722-.529.78.78,0,1,1,.109-1.557,28.007,28.007,0,0,1,3.942.56.781.781,0,0,1-.164,1.544Z" transform="translate(-559.24 -351.535)"/></g><g transform="translate(54.22 25.128)"><path class="e" d="M668.558,405.894a.78.78,0,0,1-.78-.78c0-.631-.023-1.269-.067-1.895a.781.781,0,0,1,1.557-.111c.047.663.071,1.338.071,2.005A.78.78,0,0,1,668.558,405.894Z" transform="translate(-667.709 -402.383)"/></g></g><g transform="translate(70.594 32.003)"><path class="e" d="M684.932,402.556h-.009a.487.487,0,0,1-.382-.2l-4.982-6.7a.488.488,0,0,1,.782-.582l4.607,6.195,4.587-5.694a.487.487,0,1,1,.759.611l-4.982,6.185A.489.489,0,0,1,684.932,402.556Z" transform="translate(-679.462 -394.881)"/></g><g transform="translate(5.862 32.003)"><path class="e" d="M553.941,402.556h-.009a.487.487,0,0,1-.382-.2l-4.982-6.7a.488.488,0,0,1,.782-.582l4.607,6.2,4.587-5.694a.487.487,0,0,1,.759.611l-4.982,6.185A.488.488,0,0,1,553.941,402.556Z" transform="translate(-548.471 -394.88)"/></g></g><g transform="translate(112.375 130.457)"><g transform="translate(15.568)"><g transform="translate(2.09 33.317)"><path class="p" d="M732.425,621.706v1.977a1.4,1.4,0,0,1-1.4,1.4H706.9a1.4,1.4,0,0,1-1.4-1.4v-1.977a1.4,1.4,0,0,1,1.4-1.4h24.126a1.4,1.4,0,0,1,1.4,1.4Z" transform="translate(-705.502 -620.307)"/><rect class="o" width="0.701" height="4.774" transform="translate(1.337)"/><rect class="o" width="0.701" height="4.774" transform="translate(4.276)"/><rect class="o" width="0.701" height="4.774" transform="translate(7.215)"/><rect class="o" width="0.701" height="4.774" transform="translate(10.153)"/><rect class="o" width="0.701" height="4.774" transform="translate(13.092)"/><rect class="o" width="0.701" height="4.774" transform="translate(16.031)"/><rect class="o" width="0.701" height="4.774" transform="translate(18.97)"/><rect class="o" width="0.701" height="4.774" transform="translate(21.908)"/><rect class="o" width="0.701" height="4.774" transform="translate(24.847)"/><path class="o" d="M732.433,620.8H706.17a1.4,1.4,0,0,1,1.068-.5h24.126A1.4,1.4,0,0,1,732.433,620.8Z" transform="translate(-705.84 -620.307)"/><path class="o" d="M732.433,628.963H706.17a1.4,1.4,0,0,0,1.068.5h24.126A1.4,1.4,0,0,0,732.433,628.963Z" transform="translate(-705.84 -624.685)"/></g><g transform="translate(3.777 28.544)"><path class="p" d="M735.84,612.046v1.977a1.4,1.4,0,0,1-1.4,1.4H710.315a1.4,1.4,0,0,1-1.4-1.4v-1.977a1.4,1.4,0,0,1,1.4-1.4h24.126a1.4,1.4,0,0,1,1.4,1.4Z" transform="translate(-708.917 -610.647)"/><rect class="o" width="0.701" height="4.774" transform="translate(1.337)"/><rect class="o" width="0.701" height="4.774" transform="translate(4.276)"/><rect class="o" width="0.701" height="4.774" transform="translate(7.215)"/><rect class="o" width="0.701" height="4.774" transform="translate(10.153)"/><rect class="o" width="0.701" height="4.774" transform="translate(13.092)"/><rect class="o" width="0.701" height="4.774" transform="translate(16.031)"/><rect class="o" width="0.701" height="4.774" transform="translate(18.969)"/><rect class="o" width="0.701" height="4.774" transform="translate(21.908)"/><rect class="o" width="0.701" height="4.774" transform="translate(24.847)"/><path class="o" d="M735.848,611.143H709.585a1.4,1.4,0,0,1,1.068-.5H734.78A1.4,1.4,0,0,1,735.848,611.143Z" transform="translate(-709.255 -610.647)"/><path class="o" d="M735.848,619.3H709.585a1.4,1.4,0,0,0,1.068.5H734.78A1.4,1.4,0,0,0,735.848,619.3Z" transform="translate(-709.255 -615.025)"/></g><g transform="translate(2.469 23.778)"><path class="p" d="M733.192,602.4v1.977a1.4,1.4,0,0,1-1.4,1.4H707.667a1.4,1.4,0,0,1-1.4-1.4V602.4a1.4,1.4,0,0,1,1.4-1.4h24.126a1.4,1.4,0,0,1,1.4,1.4Z" transform="translate(-706.269 -601.003)"/><rect class="o" width="0.701" height="4.774" transform="translate(1.337 0)"/><rect class="o" width="0.701" height="4.774" transform="translate(4.276 0)"/><rect class="o" width="0.701" height="4.774" transform="translate(7.215 0)"/><rect class="o" width="0.701" height="4.774" transform="translate(10.153 0)"/><rect class="o" width="0.701" height="4.774" transform="translate(13.092 0)"/><rect class="o" width="0.701" height="4.774" transform="translate(16.031 0)"/><rect class="o" width="0.701" height="4.774" transform="translate(18.97 0)"/><rect class="o" width="0.701" height="4.774" transform="translate(21.908 0)"/><rect class="o" width="0.701" height="4.774" transform="translate(24.847 0)"/><path class="o" d="M733.2,601.5H706.938a1.4,1.4,0,0,1,1.068-.5h24.126A1.4,1.4,0,0,1,733.2,601.5Z" transform="translate(-706.607 -601.003)"/><path class="o" d="M733.2,609.66H706.938a1.4,1.4,0,0,0,1.068.5h24.126A1.4,1.4,0,0,0,733.2,609.66Z" transform="translate(-706.607 -605.382)"/></g><g transform="translate(3.008 19.099)"><path class="p" d="M734.282,592.935v1.976a1.4,1.4,0,0,1-1.4,1.4H708.758a1.4,1.4,0,0,1-1.4-1.4v-1.976a1.4,1.4,0,0,1,1.4-1.4h24.126a1.4,1.4,0,0,1,1.4,1.4Z" transform="translate(-707.359 -591.536)"/><rect class="o" width="0.701" height="4.774" transform="translate(1.337)"/><rect class="o" width="0.701" height="4.774" transform="translate(4.276)"/><rect class="o" width="0.701" height="4.774" transform="translate(7.215)"/><rect class="o" width="0.701" height="4.774" transform="translate(10.153)"/><rect class="o" width="0.701" height="4.774" transform="translate(13.092)"/><rect class="o" width="0.701" height="4.774" transform="translate(16.031)"/><rect class="o" width="0.701" height="4.774" transform="translate(18.969)"/><rect class="o" width="0.701" height="4.774" transform="translate(21.908)"/><rect class="o" width="0.701" height="4.774" transform="translate(24.847)"/><path class="o" d="M734.29,592.032H708.027a1.4,1.4,0,0,1,1.068-.5h24.126A1.4,1.4,0,0,1,734.29,592.032Z" transform="translate(-707.697 -591.536)"/><path class="o" d="M734.29,600.192H708.027a1.4,1.4,0,0,0,1.068.5h24.126A1.4,1.4,0,0,0,734.29,600.192Z" transform="translate(-707.697 -595.914)"/></g><g transform="translate(0 14.254)"><path class="p" d="M728.2,583.129v1.977a1.4,1.4,0,0,1-1.4,1.4H702.672a1.4,1.4,0,0,1-1.4-1.4v-1.977a1.4,1.4,0,0,1,1.4-1.4H726.8a1.4,1.4,0,0,1,1.4,1.4Z" transform="translate(-701.273 -581.73)"/><rect class="o" width="0.701" height="4.774" transform="translate(1.337 0)"/><rect class="o" width="0.701" height="4.774" transform="translate(4.276 0)"/><rect class="o" width="0.701" height="4.774" transform="translate(7.215 0)"/><rect class="o" width="0.701" height="4.774" transform="translate(10.153 0)"/><rect class="o" width="0.701" height="4.774" transform="translate(13.092 0)"/><rect class="o" width="0.701" height="4.774" transform="translate(16.031 0)"/><rect class="o" width="0.701" height="4.774" transform="translate(18.969 0)"/><rect class="o" width="0.701" height="4.774" transform="translate(21.908 0)"/><rect class="o" width="0.701" height="4.774" transform="translate(24.847 0)"/><path class="o" d="M728.2,582.226H701.941a1.4,1.4,0,0,1,1.069-.5h24.126A1.4,1.4,0,0,1,728.2,582.226Z" transform="translate(-701.611 -581.73)"/><path class="o" d="M728.2,590.387H701.941a1.4,1.4,0,0,0,1.069.5h24.126A1.4,1.4,0,0,0,728.2,590.387Z" transform="translate(-701.611 -586.109)"/></g><g transform="translate(2.96 9.536)"><path class="p" d="M734.185,573.581v1.977a1.4,1.4,0,0,1-1.4,1.4H708.661a1.4,1.4,0,0,1-1.4-1.4v-1.977a1.4,1.4,0,0,1,1.4-1.4h24.126a1.4,1.4,0,0,1,1.4,1.4Z" transform="translate(-707.262 -572.183)"/><rect class="o" width="0.701" height="4.773" transform="translate(1.337 0)"/><rect class="o" width="0.701" height="4.773" transform="translate(4.276 0)"/><rect class="o" width="0.701" height="4.773" transform="translate(7.214 0)"/><rect class="o" width="0.701" height="4.773" transform="translate(10.153 0)"/><rect class="o" width="0.701" height="4.773" transform="translate(13.092 0)"/><rect class="o" width="0.701" height="4.773" transform="translate(16.031 0)"/><rect class="o" width="0.701" height="4.773" transform="translate(18.969 0)"/><rect class="o" width="0.701" height="4.773" transform="translate(21.908 0)"/><rect class="o" width="0.701" height="4.773" transform="translate(24.847 0)"/><path class="o" d="M734.193,572.679H707.93a1.4,1.4,0,0,1,1.068-.5h24.126A1.4,1.4,0,0,1,734.193,572.679Z" transform="translate(-707.6 -572.183)"/><path class="o" d="M734.193,580.839H707.93a1.4,1.4,0,0,0,1.068.5h24.126A1.4,1.4,0,0,0,734.193,580.839Z" transform="translate(-707.6 -576.561)"/></g><g transform="translate(1.91 4.747)"><path class="p" d="M732.061,563.893v1.977a1.4,1.4,0,0,1-1.4,1.4H706.537a1.4,1.4,0,0,1-1.4-1.4v-1.977a1.4,1.4,0,0,1,1.4-1.4h24.126a1.4,1.4,0,0,1,1.4,1.4Z" transform="translate(-705.138 -562.494)"/><rect class="o" width="0.701" height="4.774" transform="translate(1.337)"/><rect class="o" width="0.701" height="4.774" transform="translate(4.276)"/><rect class="o" width="0.701" height="4.774" transform="translate(7.214)"/><rect class="o" width="0.701" height="4.774" transform="translate(10.153)"/><rect class="o" width="0.701" height="4.774" transform="translate(13.092)"/><rect class="o" width="0.701" height="4.774" transform="translate(16.031)"/><rect class="o" width="0.701" height="4.774" transform="translate(18.969)"/><rect class="o" width="0.701" height="4.774" transform="translate(21.908)"/><rect class="o" width="0.701" height="4.774" transform="translate(24.847)"/><path class="o" d="M732.069,562.99H705.806a1.4,1.4,0,0,1,1.068-.5H731A1.4,1.4,0,0,1,732.069,562.99Z" transform="translate(-705.476 -562.494)"/><path class="o" d="M732.069,571.15H705.806a1.4,1.4,0,0,0,1.068.5H731A1.4,1.4,0,0,0,732.069,571.15Z" transform="translate(-705.476 -566.872)"/></g><g transform="translate(3.352)"><path class="p" d="M734.978,554.285v1.977a1.4,1.4,0,0,1-1.4,1.4H709.454a1.4,1.4,0,0,1-1.4-1.4v-1.977a1.4,1.4,0,0,1,1.4-1.4H733.58a1.4,1.4,0,0,1,1.4,1.4Z" transform="translate(-708.055 -552.887)"/><rect class="o" width="0.701" height="4.774" transform="translate(1.337 0)"/><rect class="o" width="0.701" height="4.774" transform="translate(4.276 0)"/><rect class="o" width="0.701" height="4.774" transform="translate(7.215 0)"/><rect class="o" width="0.701" height="4.774" transform="translate(10.154 0)"/><rect class="o" width="0.701" height="4.774" transform="translate(13.092 0)"/><rect class="o" width="0.701" height="4.774" transform="translate(16.031 0)"/><rect class="o" width="0.701" height="4.774" transform="translate(18.97 0)"/><rect class="o" width="0.701" height="4.774" transform="translate(21.908 0)"/><rect class="o" width="0.701" height="4.774" transform="translate(24.847 0)"/><path class="o" d="M734.987,553.383H708.724a1.4,1.4,0,0,1,1.068-.5h24.126A1.4,1.4,0,0,1,734.987,553.383Z" transform="translate(-708.393 -552.887)"/><path class="o" d="M734.987,561.544H708.724a1.4,1.4,0,0,0,1.068.5h24.126A1.4,1.4,0,0,0,734.987,561.544Z" transform="translate(-708.393 -557.266)"/></g></g><g transform="translate(0 5.731)"><circle class="o" cx="14.398" cy="14.398" r="14.398" transform="translate(0 9.018) rotate(-18.251)"/><path class="p" d="M705.711,592.8a11.832,11.832,0,0,1-19.407,4.937,12.049,12.049,0,0,1-.843-.891,11.83,11.83,0,0,1,16.3-16.988,11.593,11.593,0,0,1,.923.805,11.848,11.848,0,0,1,3.029,12.136Z" transform="translate(-676.273 -570.986)"/><path class="q" d="M701.759,579.863l-16.3,16.988a11.851,11.851,0,0,1-2.818-8.3l10.7-11.157a11.87,11.87,0,0,1,8.413,2.471Z" transform="translate(-676.273 -570.986)"/><path class="q" d="M708.461,586.662l-15.727,16.393a11.719,11.719,0,0,1-2.666-1.906l16.378-17.073A11.808,11.808,0,0,1,708.461,586.662Z" transform="translate(-680.037 -574.393)"/><path class="b" d="M704.578,576.2c-1.4-.147-1.652-.009-2.28,1.231.156-1.38.018-1.636-1.23-2.28,1.4.147,1.652.009,2.28-1.23C703.2,575.314,703.339,575.57,704.578,576.2Z" transform="translate(-685.602 -569.255)"/><path class="b" d="M695.132,621.513c-1.179-.124-1.394-.007-1.924,1.038.132-1.165.015-1.38-1.038-1.924,1.179.124,1.395.007,1.924-1.038C693.97,620.768,694.086,620.984,695.132,621.513Z" transform="translate(-681.101 -592.357)"/></g></g><g transform="translate(124.088 66.547)"><g transform="translate(0 8.419)"><path class="r" d="M709.275,472.2a15.8,15.8,0,1,1,15.8-15.8A15.821,15.821,0,0,1,709.275,472.2Zm0-30.825A15.022,15.022,0,1,0,724.3,456.4,15.039,15.039,0,0,0,709.275,441.378Z" transform="translate(-693.472 -440.598)"/></g><g transform="translate(13.705)"><path class="r" d="M723.3,456.751a2.1,2.1,0,0,1-2.1-2.1V425.659a2.1,2.1,0,1,1,4.2,0v28.995A2.1,2.1,0,0,1,723.3,456.751Z" transform="translate(-721.205 -423.561)"/></g></g><g transform="translate(124.088 66.547)"><g transform="translate(0 8.419)"><path class="r" d="M709.275,472.2a15.8,15.8,0,1,1,15.8-15.8A15.821,15.821,0,0,1,709.275,472.2Zm0-30.825A15.022,15.022,0,1,0,724.3,456.4,15.039,15.039,0,0,0,709.275,441.378Z" transform="translate(-693.472 -440.598)"/></g><g transform="translate(5.137)"><g transform="translate(8.568)"><path class="r" d="M723.3,456.751a2.1,2.1,0,0,1-2.1-2.1V425.659a2.1,2.1,0,1,1,4.2,0v28.995A2.1,2.1,0,0,1,723.3,456.751Z" transform="translate(-721.205 -423.561)"/></g><g transform="translate(0 19.555)"><path class="r" d="M714.677,478.49H714.6a2.1,2.1,0,0,1-1.614-.861l-8.711-11.162A2.1,2.1,0,1,1,707.662,464l7.147,9.013,6.7-9.141a2.1,2.1,0,1,1,3.189,2.725l-8.423,11.162A2.1,2.1,0,0,1,714.677,478.49Z" transform="translate(-703.868 -463.132)"/></g></g></g><g transform="translate(37.012 73.198)"><g transform="translate(0.162 0.161)"><path class="r" d="M497.36,468.951a15.8,15.8,0,1,1,15.8-15.8A15.82,15.82,0,0,1,497.36,468.951Zm0-30.824a15.022,15.022,0,1,0,15.022,15.022A15.039,15.039,0,0,0,497.36,438.127Z" transform="translate(-481.558 -437.346)"/></g><g transform="translate(0)"><circle class="r" cx="11.436" cy="11.436" r="11.436" transform="matrix(0.585, -0.811, 0.811, 0.585, 0, 18.555)"/><path class="e" d="M513.331,465.583a9.881,9.881,0,0,1-17.324,0,9.965,9.965,0,0,1,4.73-4.262,5.311,5.311,0,1,1,7.863,0A9.965,9.965,0,0,1,513.331,465.583Z" transform="translate(-488.705 -444.819)"/></g></g><g transform="translate(149.148 112.53)"><path class="o" d="M751.409,520.505l-6.63-3.565-.561,1.043h0c-.271.5,1,1.715,2.843,2.706s3.553,1.384,3.824.88C750.911,521.522,751.409,520.505,751.409,520.505Z" transform="translate(-744.182 -516.776)"/><path class="p" d="M751.96,520.414c-.271.5-1.983.11-3.824-.88s-3.114-2.2-2.843-2.705,1.984-.11,3.824.88S752.231,519.91,751.96,520.414Z" transform="translate(-744.726 -516.609)"/></g><g transform="translate(127.059 129.183)"><path class="o" d="M692.319,551.271l-6.71,1.09.171,1.056h0c.083.51,1.66.679,3.524.376s3.307-.961,3.224-1.472C692.521,552.273,692.319,551.271,692.319,551.271Z" transform="translate(-685.609 -550.795)"/><path class="p" d="M692.372,550.834c.083.51-1.36,1.169-3.224,1.472s-3.441.134-3.524-.376,1.361-1.169,3.224-1.471S692.29,550.324,692.372,550.834Z" transform="translate(-685.615 -550.308)"/></g><g transform="translate(134.275 114.716)"><path class="o" d="M708.656,524.375l-6.1-3-.472.959h0c-.228.464.96,1.516,2.653,2.35s3.252,1.135,3.48.671C708.239,525.308,708.656,524.375,708.656,524.375Z" transform="translate(-702.057 -521.205)"/><path class="p" d="M709.123,524.272c-.228.464-1.786.164-3.48-.671s-2.881-1.886-2.653-2.35,1.786-.163,3.48.671S709.351,523.809,709.123,524.272Z" transform="translate(-702.515 -521.034)"/></g><g transform="translate(125.806 106.058)"><path class="o" d="M689.826,504.521l-7.024,1.141.179,1.105h0c.087.534,1.738.71,3.689.393s3.461-1.007,3.375-1.54C690.037,505.57,689.826,504.521,689.826,504.521Z" transform="translate(-682.802 -504.023)"/><path class="p" d="M689.881,504.064c.087.534-1.424,1.224-3.374,1.54s-3.6.141-3.689-.393,1.424-1.224,3.375-1.54S689.794,503.53,689.881,504.064Z" transform="translate(-682.808 -503.513)"/></g><g transform="translate(28.602 114.285)"><rect class="r" width="49.448" height="15.863" rx="7.931"/><g transform="translate(2.566 3.522)"><path class="o" d="M480.743,529.467v4.463a2.177,2.177,0,0,1-2.177,2.177h-8.44a2.177,2.177,0,0,1-2.177-2.177v-4.463a2.177,2.177,0,0,1,2.177-2.178h8.44a2.18,2.18,0,0,1,2.177,2.178Z" transform="translate(-467.949 -527.289)"/><path class="e" d="M512.458,536.169h-14a1.815,1.815,0,0,1-1.815-1.816h0a1.815,1.815,0,0,1,1.815-1.815h14a1.815,1.815,0,0,1,1.816,1.815h0A1.816,1.816,0,0,1,512.458,536.169Z" transform="translate(-482.461 -529.944)"/><path class="s" d="M544.912,536.169h-7.018a1.816,1.816,0,0,1-1.815-1.816h0a1.815,1.815,0,0,1,1.815-1.815h7.018a1.815,1.815,0,0,1,1.816,1.815h0A1.816,1.816,0,0,1,544.912,536.169Z" transform="translate(-502.411 -529.944)"/></g><path class="p" d="M479.874,527.727l-10.948,8.02a2.175,2.175,0,0,1-.977-1.817v-4.463a2.177,2.177,0,0,1,2.177-2.178h8.44A2.164,2.164,0,0,1,479.874,527.727Z" transform="translate(-465.383 -523.767)"/><path class="i" d="M485.111,538.556a1.464,1.464,0,1,1-1.464-1.464A1.464,1.464,0,0,1,485.111,538.556Z" transform="translate(-472.583 -528.725)"/><path class="e" d="M488.63,538.556a1.464,1.464,0,1,1-1.464-1.464A1.464,1.464,0,0,1,488.63,538.556Z" transform="translate(-474.363 -528.725)"/></g><g transform="translate(161.131 95.423)"><path class="l" d="M787.774,490.7c.851-2.665.643-5.251-1.227-6.991-1.9-1.764-4.934-1.211-4.934-1.211h0a4.39,4.39,0,0,0-4.791.429c-2.665,1.815-1.562,4.24-2.831,5.726-.752.88-3.4.463-3.511,3.889a2.558,2.558,0,0,0,1.892,2.188c1.659.516,3.5.179,3.911,1.057,1.427,3.017,6.911,3.11,8.081,1.315.363-.557,4.568,1.7,5.117-2.555C789.76,492.39,787.013,493.082,787.774,490.7Z" transform="translate(-769.467 -481.993)"/><g transform="translate(7.405 2.19)"><path class="j" d="M783.458,491.9c-.345,3.281,1.464,6.16,4.04,6.431s4.946-2.169,5.291-5.449-1.464-6.16-4.04-6.431S783.8,488.614,783.458,491.9Z" transform="translate(-783.416 -486.425)"/><path d="M799.559,499.775a.451.451,0,1,0,.392-.5A.451.451,0,0,0,799.559,499.775Z" transform="translate(-791.579 -492.922)"/><path d="M792.217,499.01a.488.488,0,1,0,.425-.544A.488.488,0,0,0,792.217,499.01Z" transform="translate(-787.866 -492.514)"/><g transform="translate(3.787 5.236)"><path class="l" d="M791.27,497.72a.168.168,0,0,0,.1-.05,1.292,1.292,0,0,1,1.07-.291.17.17,0,0,0,.067-.333,1.612,1.612,0,0,0-1.379.387.17.17,0,0,0,.142.287Z" transform="translate(-791.08 -497.021)"/></g><g transform="translate(8.067 5.655)"><path class="l" d="M800.8,498.778a.174.174,0,0,0,.053-.016.17.17,0,0,0,.078-.227,1.19,1.19,0,0,0-1.018-.667.17.17,0,0,0,0,.339.85.85,0,0,1,.716.476A.17.17,0,0,0,800.8,498.778Z" transform="translate(-799.739 -497.868)"/></g><path class="k" d="M797.41,501.918a4.5,4.5,0,0,0,.438.86.179.179,0,0,1-.024.244,2.452,2.452,0,0,1-1.28.355.048.048,0,0,1-.02-.092,2.324,2.324,0,0,0,.738-.424.213.213,0,0,0,.064-.182c-.02-.155-.058-.47-.069-.724A.08.08,0,0,1,797.41,501.918Z" transform="translate(-790.031 -494.238)"/><path class="b" d="M791.3,504.787a.135.135,0,0,1,.189-.162,9.591,9.591,0,0,0,2.4.849.135.135,0,0,1,.045.245,1.687,1.687,0,0,1-2.635-.932Z" transform="translate(-787.402 -495.624)"/></g><path class="l" d="M783.533,490.858c2.97.623,7.959-.863,8.808-2.231.081-1.975-2.525-3.9-4.466-3.661S783.124,488.193,783.533,490.858Z" transform="translate(-776.05 -483.486)"/><path class="k" d="M801.263,514.856c3.057.763,8.28,7.9,8.769,13.259a5.553,5.553,0,0,1-3.593-.99l-4.153-5.972Z" transform="translate(-785.038 -498.616)"/><g transform="translate(4.275 33.621)"><path class="j" d="M804.405,631.655l1.637-6.448-4.062-.559c-.139,3.049-.367,6.051-.347,6.865Z" transform="translate(-789.5 -587.773)"/><path class="j" d="M783.292,624.574h-4.24c.139,1.016.7,6.519.7,6.519.358.813,3.518.628,3.518.17A56.46,56.46,0,0,1,783.292,624.574Z" transform="translate(-778.078 -587.735)"/><path class="n" d="M795.524,591.487l4.182.618,2.9-17.342c-.6-6.581-6.391-20.583-6.391-20.583l-6.531,2.287-.159,6.175,7.864,13.315C796.365,578.532,795.664,586.857,795.524,591.487Z" transform="translate(-783.376 -552.128)"/><path class="m" d="M786,552.544c-.06-.407-.08-.534-.418-.737l-6.272-1.779-1.493,1.474c-1.413,5.133-.538,12.273.577,17.94-1.632,4.9-.994,15.015-.336,19.766h4.459c.259-3.177.178-9.068.2-11.914h0c.577-2.287,1.135-4.726,1.633-7.293A84.993,84.993,0,0,0,786,560.573,46.879,46.879,0,0,0,786,552.544Z" transform="translate(-777.082 -550.028)"/></g><path class="j" d="M773.711,513.273c-1.475.968-7.689,9.052-4.264,15.711a53.924,53.924,0,0,0,2.9-4.56l3.237-6.409Z" transform="translate(-768.431 -497.815)"/><path class="j" d="M785.429,504.762l3.893,2.211s.345,1.576.518,2.088c.356,1.056-1.008,1.517-2.16.86a7.845,7.845,0,0,1-1.9-1.536Z" transform="translate(-777.029 -493.51)"/><path class="t" d="M790.249,533.744a24.684,24.684,0,0,1-1.878,2.044l-1.438-1.571-.01.027-.341.9-.4,1.05c-.334,0-10.367-2.247-10.367-2.247a27.381,27.381,0,0,1,2.247-6.953c-.334-2.642-.013-5.388-.118-6.911.81-4.085.232-5.653-.5-7.578l2.546-.751,4.582,1.615.34-1.1a28.764,28.764,0,0,1,3.477,1.023l1.085,4.53-.235,9.624A48.654,48.654,0,0,0,790.249,533.744Z" transform="translate(-772.166 -497.046)"/><path class="f" d="M784.219,510.721l-1.8.762c.189,2.156,5.013,3.444,5.013,3.444l.479-2.081Z" transform="translate(-775.509 -496.524)"/><path class="f" d="M793.538,513.189l1.42,1.578s1.228-1.27.783-2.055-2.072-1.315-2.072-1.315Z" transform="translate(-781.131 -496.866)"/><g transform="translate(16.15 76.161)"><path class="d" d="M803.154,637.348a1.829,1.829,0,0,1,1.333-1.239c1.765,2.354,6.1.909,5.956,4.094-6.591-.041-9.331,0-9.331,0a22.674,22.674,0,0,1,.291-3.147l.344.061Z" transform="translate(-801.112 -636.109)"/><path class="d" d="M0,0H9.334a0,0,0,0,1,0,0V0A.938.938,0,0,1,8.4.938H.938A.938.938,0,0,1,0,0V0A0,0,0,0,1,0,0Z" transform="translate(0 4.006)"/></g><g transform="translate(12.182 16.258)"><path class="f" d="M795.657,535.832l-.341.9c-.31-2.068-1.463-10.723-.812-13.113.611-2.245-.153-4.611-.892-6.9-.18-.56-.367-1.138-.528-1.7l.225-.065.224-.064c.159.553.344,1.127.523,1.683.76,2.354,1.545,4.787.9,7.166C794.392,525.8,795.252,532.909,795.657,535.832Z" transform="translate(-793.083 -514.892)"/></g><g transform="translate(5.072 76.097)"><path class="d" d="M783.958,640.169s-.529-1.974-.576-2.227c-.053-.289-.208-.971-.24-1.32a2.858,2.858,0,0,0-1.61-.64,2.817,2.817,0,0,0-1.814.648,20.664,20.664,0,0,1-.294,2.075c-.133.477-.5,1.589-.5,1.589Z" transform="translate(-778.813 -635.981)"/><g transform="translate(0 3.974)"><path class="d" d="M783.84,644.083c-.124.392-1.645-.06-2.755-.06-.932,0-2.138.362-2.275.221a2.326,2.326,0,0,0-.041,1.265s.971.05,2.136,0a23.207,23.207,0,0,0,3.019-.127A1.535,1.535,0,0,0,783.84,644.083Z" transform="translate(-778.694 -644.023)"/></g></g><g transform="translate(0.753 19.142)"><path class="j" d="M781.366,530.724s-8.029,8.049-11.149,6.651c-1.028-1.391,1.155-4.181,3.2-5.116s5.457-2.4,5.457-2.4Z" transform="translate(-769.954 -525.348)"/><path class="u" d="M796.108,523.371l3.336-2.574a.332.332,0,0,1,.255-.063l2.272.412c.065.011.2.408.146.448l-2.269,1.363a.073.073,0,0,1-.037.015l-3.567.612C796.169,523.591,796.047,523.417,796.108,523.371Z" transform="translate(-783.175 -520.729)"/><path class="v" d="M796.442,524.026l3.173-2.421a.327.327,0,0,1,.255-.063l2.348.4a.075.075,0,0,1,.033.134l-2.232,1.692a.072.072,0,0,1-.037.015l-3.486.381A.075.075,0,0,1,796.442,524.026Z" transform="translate(-783.337 -521.138)"/><path class="j" d="M787.83,526.732l1.875-.939s1.188-1.294,1.561-1.68a16.588,16.588,0,0,1,1.587-.523,2.613,2.613,0,0,1,.506.125l-1.085.849a1.423,1.423,0,0,0,1.063-.044c.621-.248,1.777-1.009,2.222-.736l.142.182s.391-.3.627-.092c.727.649-3.965,3.444-3.965,3.444l-1.955.234Z" transform="translate(-778.996 -522.176)"/><path class="u" d="M803.185,522.283a.231.231,0,1,1,.113-.348A.263.263,0,0,1,803.185,522.283Z" transform="translate(-786.562 -521.297)"/></g><path class="k" d="M811.444,540.2s-4.162,4.759-7.059,5.432c-.172-.954-.331-1.684-.331-1.684l3.95-5.2Z" transform="translate(-786.45 -510.702)"/><path class="k" d="M802.786,550.274a.405.405,0,0,1,.06-.111l-.021-.005c-.411-.137-.665-.487-.567-.782a.415.415,0,0,1,.073-.13.58.58,0,0,1-.258-.618.436.436,0,0,1,.153-.208.578.578,0,0,1-.267-.648.68.68,0,0,1,1.271.422.492.492,0,0,1-.122.193.661.661,0,0,1,.454.735.422.422,0,0,1-.073.131.58.58,0,0,1,.258.618.43.43,0,0,1-.137.2.5.5,0,0,1,.25.564.574.574,0,0,1-1.073-.357Z" transform="translate(-785.377 -515.082)"/><g transform="translate(5.884 7.034)"><path class="j" d="M782.874,497.053a1.354,1.354,0,1,1-1.992-.65A1.5,1.5,0,0,1,782.874,497.053Z" transform="translate(-780.337 -496.227)"/><g transform="translate(0.986 0.749)"><path class="k" d="M782.879,499.454a.194.194,0,0,0,.084-.031.885.885,0,0,0,.426-1,.943.943,0,0,0-.856-.679.2.2,0,1,0-.008.391.559.559,0,0,1,.488.4.5.5,0,0,1-.266.565.2.2,0,0,0,.132.357Z" transform="translate(-782.333 -497.743)"/></g></g></g><g transform="translate(28.602 133.505)"><rect class="r" width="49.448" height="15.863" rx="7.931"/><g transform="translate(2.566 3.522)"><path class="n" d="M480.743,568.359v4.463A2.177,2.177,0,0,1,478.566,575h-8.44a2.177,2.177,0,0,1-2.177-2.177v-4.463a2.177,2.177,0,0,1,2.177-2.178h8.44a2.18,2.18,0,0,1,2.177,2.178Z" transform="translate(-467.949 -566.181)"/><path class="e" d="M512.458,575.061h-14a1.815,1.815,0,0,1-1.815-1.816h0a1.815,1.815,0,0,1,1.815-1.815h14a1.815,1.815,0,0,1,1.816,1.815h0A1.816,1.816,0,0,1,512.458,575.061Z" transform="translate(-482.461 -568.836)"/><path class="s" d="M544.912,575.061h-7.018a1.816,1.816,0,0,1-1.815-1.816h0a1.815,1.815,0,0,1,1.815-1.815h7.018a1.815,1.815,0,0,1,1.816,1.815h0A1.816,1.816,0,0,1,544.912,575.061Z" transform="translate(-502.411 -568.836)"/></g><path class="m" d="M479.874,566.619l-10.948,8.019a2.175,2.175,0,0,1-.977-1.817v-4.463a2.177,2.177,0,0,1,2.177-2.178h8.44A2.163,2.163,0,0,1,479.874,566.619Z" transform="translate(-465.383 -562.659)"/><circle class="w" cx="1.464" cy="1.464" r="1.464" transform="translate(9.558 8.41) rotate(-1.683)"/><path class="e" d="M488.63,577.448a1.464,1.464,0,1,1-1.464-1.464A1.464,1.464,0,0,1,488.63,577.448Z" transform="translate(-474.363 -567.618)"/></g><g transform="translate(28.602 152.725)"><rect class="r" width="49.448" height="15.862" rx="7.931"/><g transform="translate(2.566 3.522)"><path class="o" d="M480.743,607.251v4.463a2.177,2.177,0,0,1-2.177,2.178h-8.44a2.178,2.178,0,0,1-2.177-2.178v-4.463a2.178,2.178,0,0,1,2.177-2.178h8.44a2.18,2.18,0,0,1,2.177,2.178Z" transform="translate(-467.949 -605.073)"/><path class="e" d="M512.458,613.953h-14a1.815,1.815,0,0,1-1.815-1.816h0a1.815,1.815,0,0,1,1.815-1.815h14a1.816,1.816,0,0,1,1.816,1.815h0A1.816,1.816,0,0,1,512.458,613.953Z" transform="translate(-482.461 -607.728)"/><path class="s" d="M544.912,613.953h-7.018a1.816,1.816,0,0,1-1.815-1.816h0a1.815,1.815,0,0,1,1.815-1.815h7.018a1.816,1.816,0,0,1,1.816,1.815h0A1.816,1.816,0,0,1,544.912,613.953Z" transform="translate(-502.411 -607.728)"/></g><path class="p" d="M479.874,605.511l-10.948,8.019a2.175,2.175,0,0,1-.977-1.817v-4.463a2.178,2.178,0,0,1,2.177-2.178h8.44A2.161,2.161,0,0,1,479.874,605.511Z" transform="translate(-465.383 -601.551)"/><path class="i" d="M485.111,616.34a1.464,1.464,0,1,1-1.464-1.464A1.464,1.464,0,0,1,485.111,616.34Z" transform="translate(-472.583 -606.51)"/><path class="e" d="M488.63,616.34a1.464,1.464,0,1,1-1.464-1.464A1.464,1.464,0,0,1,488.63,616.34Z" transform="translate(-474.363 -606.51)"/></g></g></g></g><g transform="translate(417.457 513.22)"><path class="x" d="M564.939,1036.44a3.823,3.823,0,1,0,3.822,3.823A3.827,3.827,0,0,0,564.939,1036.44Z" transform="translate(-500.117 -1036.328)"/><path class="x" d="M596.8,1044.2a3.823,3.823,0,1,1,3.822-3.823A3.827,3.827,0,0,1,596.8,1044.2Zm0-6.394a2.571,2.571,0,1,0,2.571,2.571A2.574,2.574,0,0,0,596.8,1037.808Z" transform="translate(-592.979 -1036.501)"/><path class="x" d="M596.8,1044.2a3.823,3.823,0,1,1,3.822-3.823A3.827,3.827,0,0,1,596.8,1044.2Zm0-6.394a2.571,2.571,0,1,0,2.571,2.571A2.574,2.574,0,0,0,596.8,1037.808Z" transform="translate(-577.979 -1036.501)"/><path class="x" d="M596.8,1044.2a3.823,3.823,0,1,1,3.822-3.823A3.827,3.827,0,0,1,596.8,1044.2Zm0-6.394a2.571,2.571,0,1,0,2.571,2.571A2.574,2.574,0,0,0,596.8,1037.808Z" transform="translate(-546.979 -1036.501)"/><path class="x" d="M628.665,1044.319a3.823,3.823,0,1,1,3.822-3.823A3.828,3.828,0,0,1,628.665,1044.319Zm0-6.395a2.572,2.572,0,1,0,2.571,2.572A2.574,2.574,0,0,0,628.665,1037.925Z" transform="translate(-594.842 -1036.561)"/><path class="x" d="M628.665,1044.319a3.823,3.823,0,1,1,3.822-3.823A3.828,3.828,0,0,1,628.665,1044.319Zm0-6.395a2.572,2.572,0,1,0,2.571,2.572A2.574,2.574,0,0,0,628.665,1037.925Z" transform="translate(-563.842 -1036.561)"/></g></g></svg>