<svg xmlns="http://www.w3.org/2000/svg" width="639.2" height="459.696" viewBox="0 0 639.2 459.696"><defs><style>.a{fill:#a6aaad;}.b{fill:#f0f0f0;}.c,.h{fill:#fff;}.d,.e{fill:#6695ff;}.e{font-size:43px;}.e,.h{font-family:Kanit-Bold, Kanit;font-weight:700;}.f{fill:#455a64;}.g{fill:#afafaf;}.h{font-size:22px;}.i{fill:#dd8762;}.j{fill:#9fc2ff;}.k{fill:#263238;}.l{fill:#ffbe9d;}.m,.p,.q,.r{fill:none;stroke-miterlimit:10;}.m{stroke:#dd8762;stroke-width:0.75px;}.n{fill:#3362cc;}.o{fill:#eb996e;}.p{stroke:#263238;stroke-width:1.404px;}.q,.r{stroke:#455a64;}.q{stroke-width:1.5px;}.s{fill:#e0e0e0;}.t{fill:#244a96;}.u{fill:#8cb0ff;}.v{fill:#355eaf;}</style></defs><g transform="translate(-65.343 -115.761)"><path class="a" d="M617.9,360.822H90.432a2.2,2.2,0,0,1-1.789-.918l-.572-.794H621.285l-1.163.931A3.553,3.553,0,0,1,617.9,360.822Z" transform="translate(16.188 173.32)"/><g transform="translate(65.343 157.133)"><rect class="b" width="288.364" height="416.512" rx="5" transform="translate(0)"/><rect class="c" width="159.656" height="232.126" transform="translate(14.914 71.033)"/><g transform="translate(0 0)"><path class="d" d="M345.147,139.924H73.9a8.561,8.561,0,0,0-8.561,8.561v49.261H353.708V148.485A8.561,8.561,0,0,0,345.147,139.924Z" transform="translate(-65.343 -139.924)"/><g transform="translate(31.745 85.797)"><text class="e" transform="translate(0.171 33)"><tspan x="0" y="0">T</tspan></text><rect class="f" width="94.249" height="4.798" transform="translate(31.746 8.104)"/><rect class="f" width="63.491" height="4.798" transform="translate(31.746 17.955)"/><rect class="f" width="94.249" height="4.798" transform="translate(31.746 28.284)"/><rect class="f" width="125.994" height="4.798" transform="translate(0 38.653)"/><rect class="f" width="107.48" height="4.798" transform="translate(0 48.861)"/><rect class="f" width="117.607" height="4.798" transform="translate(0 59.069)"/><rect class="f" width="125.994" height="4.798" transform="translate(0 132.242)"/><rect class="f" width="107.48" height="4.798" transform="translate(0 142.45)"/><rect class="f" width="117.607" height="4.798" transform="translate(0 152.658)"/><rect class="f" width="107.48" height="4.798" transform="translate(0 172.639)"/><rect class="f" width="117.607" height="4.798" transform="translate(0 182.847)"/><rect class="d" width="125.836" height="53.305" transform="translate(0.158 70.962)"/></g><rect class="d" width="92.073" height="22.868" transform="translate(184.859 71.032)"/><rect class="d" width="92.073" height="22.868" transform="translate(184.859 241.396)"/><rect class="d" width="262.017" height="22.868" transform="translate(14.914 312.721)"/><rect class="g" width="92.073" height="135.93" transform="translate(184.859 98.827)"/><path class="g" d="M0,0H262.017a0,0,0,0,1,0,0V53.438a8.9,8.9,0,0,1-8.9,8.9H8.9a8.9,8.9,0,0,1-8.9-8.9V0A0,0,0,0,1,0,0Z" transform="translate(14.914 335.59)"/><text class="h" transform="translate(22.39 36.642)"><tspan x="0" y="0">BLOG</tspan></text></g></g><g transform="translate(395.887 184.515)"><g transform="translate(238.474 86.569)"><path class="i" d="M425.621,239.3v-4.614c2.074-.443,5.969-1.5,5.467-3.1-.678-2.164-5.421-1.591-5.421-1.591s6.217-.7,5.337-3.286c-.62-1.815-3.644-2.178-5.383-2.234v-.586c4.219-.735,5.5-3.3,4.769-5.137s-4.769-1.467-4.769-1.467-5.137,20.912-5.137,21.461,2.935,7.522,5.137,7.155,6.787-3.3,4.964-5.871S425.621,239.3,425.621,239.3Z" transform="translate(-381.42 -198.795)"/><g transform="translate(17.29)"><path class="f" d="M407.767,270.355a1.056,1.056,0,0,0,1.056,1.077h23.942a2.447,2.447,0,0,0,2.447-2.392l.543-59.459a3.485,3.485,0,0,0-1.551-2.93h0a1.052,1.052,0,0,0-.7-.171l-23.584,2.445a1.058,1.058,0,0,0-.949,1.031Z" transform="translate(-407.767 -206.475)"/><path class="j" d="M428.784,210.215v53.7a1.093,1.093,0,0,1-1.092,1.092l-16.853-.217a1.092,1.092,0,0,1-1.092-1.092l.546-52.182a1.094,1.094,0,0,1,.974-1.087l16.307-1.3A1.092,1.092,0,0,1,428.784,210.215Z" transform="translate(-406.357 -204.588)"/><path class="k" d="M423.872,206.652a1.052,1.052,0,0,0-.7-.171l-.224.022-.68,64.93h.161a2.447,2.447,0,0,0,2.447-2.392l.543-59.459A3.485,3.485,0,0,0,423.872,206.652Z" transform="translate(-397.435 -206.475)"/><path class="k" d="M411.4,209.169a.691.691,0,1,1-.675-.842A.773.773,0,0,1,411.4,209.169Z" transform="translate(-406.14 -205.155)"/><path class="k" d="M412.829,209.838a.642.642,0,0,1-.053-1.282l9.433-.781a.63.63,0,0,1,.7.586.646.646,0,0,1-.587.693l-9.434.781Z" transform="translate(-404.619 -205.55)"/></g><path class="l" d="M420.2,261.614c2.873-5.582,1.949-11.154,2.046-13.96.1-2.931,5.414-9.308,6.1-15.34s-2.93-8.616-5-4.652-7.582,10.511-7.582,10.511V220.25a26.1,26.1,0,0,1-3.044,2.909c-1.38,1.036-7.679,6.96-7.5,15.706s-1.69,26.023-3.241,30.676a26.72,26.72,0,0,1-4.308,7.928l15.381,7.583s6.679-3.1,9.193-5.342,3.69-11.376,3.69-11.376l2.5-6.72Z" transform="translate(-397.669 -196.663)"/><path class="i" d="M419.062,244.408h-8.236l6.919,3.541Z" transform="translate(-388.298 -179.457)"/><path class="m" d="M405.915,240.632a21.648,21.648,0,0,1,3.978-9.914" transform="translate(-391.796 -189.208)"/><path class="m" d="M414.538,237.989s1.647,8.585-5.977,17.434" transform="translate(-389.911 -184.029)"/></g><path class="n" d="M518.742,263.174,499.52,252.749a2.835,2.835,0,0,0-3.7.907l-27.334,40.585c-2.342,3.649-3.421,4.12-7.048,1.741l-28.13-14.318c-17.131-7.941-28.579-15.741-45.273-15.735l-20.071.007s-.9-.031-2.508,0A76.992,76.992,0,0,0,293.8,319.411l-35.409,109.7h30.544l37.222-106.341-1.007,106.341h88.469V314.17l22.9,10.071c14.424,7.524,37.256,16.559,49.7-5.243.539-.947,1.075-1.894,1.669-2.808l31.875-48.978A2.834,2.834,0,0,0,518.742,263.174Z" transform="translate(-258.392 -87.192)"/><path class="o" d="M306.973,242.124v36.931h.055a26.371,26.371,0,0,0,52.7,0h.055V242.124Z" transform="translate(-223.791 -94.515)"/><path class="k" d="M290.669,262.871S279.642,251,279.642,219.387s27.2-53.072,52.185-55.113,29.065-11.727,34.674-7.138-10.9,14.789-10.9,14.789,47.1-17.848,52.709-11.729-18.357,14.787-18.357,14.787,28.7,7.323,33.8,22.62-8.3,15.807-8.3,15.807,9.462,24.435-2.4,57.62c-12.917,36.126-94.5,40.121-96.027,39.1S290.669,262.871,290.669,262.871Z" transform="translate(-243.257 -155.916)"/><path class="l" d="M408.006,228.645c-.045,0-.087.005-.132.007-.091,1.644-.163,2.664-.163,2.664l-2.137,17.169a2.571,2.571,0,0,1-4.811.916c-2.9-5.435-5.616-15.27-1.563-30.639a39.466,39.466,0,0,1-4.965-12.109l-.587-2.608c-11.563,2.995-12.107.05-19.805-3.44-.058-.027-.128.039-.08.082,2.875,2.58,10.653,10.371,5.1,14.681-6.132,4.753-26.009-11.359-29.892-14.061a.192.192,0,0,0-.291.224c.906,2.433,3.712,10.878-.361,12.311-6.25,2.2-17.675-15.069-20.922-20.233a.292.292,0,0,0-.534.211c.627,3.406,1.512,11.088-2.784,12.968-4.02,1.758-8.405-6.654-10.529-11.455a.821.821,0,0,0-1.567.26,64.343,64.343,0,0,1-6.232,19.951c5.351,17.23,2.455,28.05-.637,33.856a2.572,2.572,0,0,1-4.813-.916l-2.137-17.169s-.07-1.017-.161-2.656a19.965,19.965,0,0,0,.272,39.928c.245,0,.483-.027.728-.038,4.5,25.808,26.99,47.148,54.084,47.148s49.595-21.341,54.091-47.153c.279.012.553.043.834.043a19.971,19.971,0,1,0,0-39.943Z" transform="translate(-244.214 -129.167)"/><g transform="translate(38.903 91.508)"><path class="p" d="M311.394,240.544s8.714,13.818,22.925,10.189" transform="translate(-259.545 -187.148)"/><g transform="translate(32.411)"><path class="k" d="M311.741,224.284a4.676,4.676,0,1,1-4.676-4.676A4.677,4.677,0,0,1,311.741,224.284Z" transform="translate(-298.37 -202.059)"/><path class="k" d="M302.411,222.534a6.057,6.057,0,0,1,2.738-5.209,10.855,10.855,0,0,1,5.8-1.8,10.1,10.1,0,0,1,3.111.294,8.553,8.553,0,0,1,2.865,1.442,6.9,6.9,0,0,1,2.68,5.274,11.965,11.965,0,0,0-4.051-3.092,10.187,10.187,0,0,0-4.491-.728,14.911,14.911,0,0,0-4.716.764A7.893,7.893,0,0,0,302.411,222.534Z" transform="translate(-298.37 -204.986)"/><path class="k" d="M301.712,215.8a91.437,91.437,0,0,1,18.165-1.216c1.053.024,1.75-.825,1.216-1.5-1.349-1.685-4.344-4.079-10.34-3.686-6.78.442-9.51,3.132-10.6,5.012C299.714,215.181,300.616,216,301.712,215.8Z" transform="translate(-300.042 -209.359)"/><g transform="translate(51.189)"><path class="k" d="M331.1,224.284a4.675,4.675,0,1,0,4.674-4.676A4.675,4.675,0,0,0,331.1,224.284Z" transform="translate(-329.111 -202.059)"/><path class="k" d="M348.3,222.534a6.056,6.056,0,0,0-2.736-5.209,10.864,10.864,0,0,0-5.8-1.8,10.09,10.09,0,0,0-3.111.294,8.545,8.545,0,0,0-2.866,1.442,6.9,6.9,0,0,0-2.68,5.274,11.97,11.97,0,0,1,4.053-3.092,10.179,10.179,0,0,1,4.49-.728,14.911,14.911,0,0,1,4.715.764A7.886,7.886,0,0,1,348.3,222.534Z" transform="translate(-329.102 -204.986)"/><path class="k" d="M349.5,215.8a91.457,91.457,0,0,0-18.167-1.216c-1.053.024-1.75-.825-1.214-1.5,1.348-1.685,4.342-4.079,10.34-3.686,6.78.442,9.508,3.132,10.6,5.012C351.5,215.181,350.6,216,349.5,215.8Z" transform="translate(-329.938 -209.359)"/></g></g><path class="p" d="M325.928,220.267l8.035,24.865a4.593,4.593,0,0,1-4.37,6h-11.5" transform="translate(-254.777 -201.59)"/><path class="i" d="M291.515,218.735a15.108,15.108,0,0,0-6.517,4.95,12.444,12.444,0,0,0-2.284,7.524,12.024,12.024,0,0,0,8.8,12.251,11.234,11.234,0,0,1-7.619-3.907,12.783,12.783,0,0,1-2.782-8.344,12.512,12.512,0,0,1,2.909-8.3A12.664,12.664,0,0,1,291.515,218.735Z" transform="translate(-281.112 -202.681)"/><path class="i" d="M356.352,243.46a15.107,15.107,0,0,0,6.517-4.95,12.433,12.433,0,0,0,2.284-7.524,12.019,12.019,0,0,0-8.8-12.251,11.241,11.241,0,0,1,7.621,3.907,12.789,12.789,0,0,1,2.782,8.344,12.505,12.505,0,0,1-2.911,8.3A12.664,12.664,0,0,1,356.352,243.46Z" transform="translate(-227.525 -202.681)"/></g><g transform="translate(64.804 16.82)"><path class="q" d="M321.373,208.549s24.209,19.881,28.682,10.619-29.389-33.195-29.389-33.195" transform="translate(-278.843 -151.328)"/><path class="q" d="M333.8,197.119s11.311,11.893,27.036.683" transform="translate(-269.489 -143.389)"/><path class="q" d="M314.231,190.376s14.581,17.468,9.566,24.983" transform="translate(-283.426 -148.192)"/><path class="r" d="M333.4,165.773s23.341-1.526,45.694,15.768" transform="translate(-269.772 -165.739)"/><path class="q" d="M373.84,192.381s-13.6,3.866-35.772-6.941" transform="translate(-266.449 -151.707)"/><path class="r" d="M306.769,210.935s-7.185-6.536-10.529-25.5" transform="translate(-296.24 -151.707)"/></g></g><g transform="translate(380.204 450.264)"><path class="f" d="M470.449,436.315H272.638a12.428,12.428,0,0,1-12.354-11.076L249.307,324.9a12.428,12.428,0,0,1,12.354-13.78H481.428a12.428,12.428,0,0,1,12.354,13.78L482.8,425.239A12.427,12.427,0,0,1,470.449,436.315Z" transform="translate(-249.232 -311.122)"/><path class="k" d="M493.12,320.031a12.421,12.421,0,0,0-11.909-8.909H261.445a12.425,12.425,0,0,0-11.91,8.909Z" transform="translate(-249.016 -311.122)"/><path class="s" d="M335.945,355.485a10.79,10.79,0,1,1-10.79-10.79A10.789,10.789,0,0,1,335.945,355.485Z" transform="translate(-202.843 -287.211)"/></g><g transform="translate(272.496 115.761)"><g transform="translate(103.535)"><rect class="d" width="110.608" height="62.76"/><g transform="translate(33.519 8.715)"><g transform="translate(0)"><circle class="t" cx="16.564" cy="16.564" r="16.564" transform="translate(0 13.175) rotate(-23.434)"/></g><g transform="translate(18.805 16.598)"><path class="b" d="M277.354,132.177v7.729a1.629,1.629,0,0,0,2.621,1.293l5.133-3.936a1.629,1.629,0,0,0-.024-2.6l-5.133-3.791A1.629,1.629,0,0,0,277.354,132.177Z" transform="translate(-277.354 -130.545)"/></g></g><g transform="translate(6.36 50.755)"><path class="t" d="M343.871,149.055H251.782a1.273,1.273,0,0,1-1.272-1.272h0a1.272,1.272,0,0,1,1.272-1.27h92.089a1.27,1.27,0,0,1,1.271,1.27h0A1.272,1.272,0,0,1,343.871,149.055Z" transform="translate(-250.51 -144.615)"/><g transform="translate(29.176 1.897)"><path class="b" d="M331.735,146.512H267.55v2.543h64.185a1.272,1.272,0,0,0,1.271-1.272h0A1.27,1.27,0,0,0,331.735,146.512Z" transform="translate(-267.55 -146.512)"/></g><path class="t" d="M279.549,146.512H251.782a1.272,1.272,0,0,0-1.272,1.27h0a1.273,1.273,0,0,0,1.272,1.272h27.767Z" transform="translate(-250.51 -144.615)"/><g transform="translate(26.043)"><path class="t" d="M272.057,148.572a3.168,3.168,0,1,1-3.169-3.168A3.17,3.17,0,0,1,272.057,148.572Z" transform="translate(-265.72 -145.404)"/><g transform="translate(1.659 1.659)"><path class="u" d="M269.708,147.881a1.509,1.509,0,1,1-1.51-1.508A1.51,1.51,0,0,1,269.708,147.881Z" transform="translate(-266.689 -146.373)"/></g></g></g></g><g transform="translate(296.38 380.372)"><path class="d" d="M359.423,343.546v36.012a5.637,5.637,0,0,0,5.637,5.637h65.5a5.638,5.638,0,0,1,3.424,1.159l14.384,11a5.636,5.636,0,0,0,9.059-4.478V343.546a5.634,5.634,0,0,0-5.635-5.635H365.06A5.635,5.635,0,0,0,359.423,343.546Z" transform="translate(-359.423 -337.911)"/><g transform="translate(30.222 20.599)"><circle class="b" cx="3.753" cy="3.753" r="3.753"/><g transform="translate(16.308 0)"><path class="b" d="M394.1,353.7a3.753,3.753,0,1,1-3.753-3.753A3.752,3.752,0,0,1,394.1,353.7Z" transform="translate(-386.598 -349.942)"/></g><g transform="translate(32.615 0)"><path class="b" d="M403.628,353.7a3.753,3.753,0,1,1-3.753-3.753A3.752,3.752,0,0,1,403.628,353.7Z" transform="translate(-396.122 -349.942)"/></g></g></g><g transform="translate(326.193 97.102)"><path class="d" d="M482.689,177.422v37.383a4.952,4.952,0,0,1-4.95,4.952H403.47a4.96,4.96,0,0,0-3.007,1.017l-15.672,11.982a4.951,4.951,0,0,1-7.957-3.933v-51.4a4.95,4.95,0,0,1,4.95-4.95h95.953A4.952,4.952,0,0,1,482.689,177.422Z" transform="translate(-376.835 -172.472)"/><g transform="translate(9.465 13.742)"><path class="v" d="M401.807,190.22a9.722,9.722,0,1,1-9.722-9.722A9.722,9.722,0,0,1,401.807,190.22Z" transform="translate(-382.363 -180.498)"/><g transform="translate(26.483 1.89)"><path class="c" d="M397.83,186.328l1.6-4.726h2.589l-1.276,4.726Zm3.637,0,1.6-4.726h2.589l-1.274,4.726Z" transform="translate(-397.83 -181.602)"/><g transform="translate(48.533 11.89)"><path class="c" d="M426.175,193.272l1.6-4.726h2.587l-1.274,4.726Zm3.637,0,1.6-4.726H434l-1.274,4.726Z" transform="translate(-426.175 -188.546)"/></g><g transform="translate(9.628 1.618)"><rect class="t" width="50.192" height="2.24"/></g><g transform="translate(0.001 7.062)"><rect class="t" width="57.023" height="2.24"/></g><g transform="translate(0.001 12.505)"><rect class="t" width="47.001" height="2.24"/></g></g></g></g><g transform="translate(0 187.696)"><rect class="d" width="122.607" height="69.568"/><g transform="translate(5.779 6.234)"><rect class="v" width="110.1" height="56.799"/></g><g transform="translate(5.78 17.721)"><path class="t" d="M189.7,281.043l31.2-41.876a8.536,8.536,0,0,1,13.638-.07l22.9,30.08,12.619-11.864a8.537,8.537,0,0,1,12.664,1.08L299.8,281.043Z" transform="translate(-189.703 -235.731)"/></g><g transform="translate(65.434 14.57)"><path class="c" d="M242.706,242.973a9.082,9.082,0,1,1-9.082-9.082A9.08,9.08,0,0,1,242.706,242.973Z" transform="translate(-224.543 -233.891)"/></g></g></g></g></svg>