<svg xmlns="http://www.w3.org/2000/svg" width="72.229" height="54.172" viewBox="0 0 72.229 54.172"><defs><style>.a,.b{fill:#c01e29;}.b{fill-rule:evenodd;}</style></defs><path class="a" d="M60.936,9.014H2.25A4.514,4.514,0,0,1,6.764,4.5H60.936a4.514,4.514,0,0,1,4.514,4.514Z" transform="translate(2.264 -4.5)"/><path class="b" d="M67.715,13.514H4.514V49.629h63.2ZM4.514,9A4.514,4.514,0,0,0,0,13.514V49.629a4.514,4.514,0,0,0,4.514,4.514h63.2a4.514,4.514,0,0,0,4.514-4.514V13.514A4.514,4.514,0,0,0,67.715,9Z" transform="translate(0 0.029)"/><path class="a" d="M56.422,11.25a9.029,9.029,0,0,0,9.029,9.029V11.25Zm-45.143,0A9.029,9.029,0,0,1,2.25,20.279V11.25ZM56.422,47.365a9.029,9.029,0,0,1,9.029-9.029v9.029Zm-45.143,0A9.029,9.029,0,0,0,2.25,38.336v9.029Z" transform="translate(2.264 2.293)"/><path class="a" d="M45.47,21.21,26.626,40.054,16.36,29.817l-4.032,4.032,14.3,14.3L49.5,25.27Z" transform="translate(5.676 -3.652)"/></svg>