<svg xmlns="http://www.w3.org/2000/svg" width="109.866" height="80" viewBox="0 0 109.866 80"><defs><style>.a{fill:none;}.b,.c{fill:#c01e29;}.b{stroke:#c01e29;stroke-width:3px;fill-rule:evenodd;}</style></defs><g transform="translate(29.866)"><path class="a" d="M0,0H80V80H0Z"/><g transform="translate(18.092 3)"><path class="b" d="M41.75,4.375H15.5A4.375,4.375,0,0,0,11.125,8.75v52.5A4.375,4.375,0,0,0,15.5,65.625H41.75a4.375,4.375,0,0,0,4.375-4.375V8.75A4.375,4.375,0,0,0,41.75,4.375ZM15.5,0A8.75,8.75,0,0,0,6.75,8.75v52.5A8.75,8.75,0,0,0,15.5,70H41.75a8.75,8.75,0,0,0,8.75-8.75V8.75A8.75,8.75,0,0,0,41.75,0Z" transform="translate(-6.75)"/><path class="b" d="M20.125,35.75a4.375,4.375,0,1,0-4.375-4.375A4.375,4.375,0,0,0,20.125,35.75Z" transform="translate(1.75 25.5)"/></g><path class="c" d="M10.933,8.626,7.778,12.918H.41a6.874,6.874,0,0,0,8.038,4.226c1.231-.083,5.386-.743,7.108-.337,2.292.55,1.336.552,5.446,3.85l20.48,16.891c1.255,1.108,2.86.655,3.971-.6a3.407,3.407,0,0,0-.082-4.588L19.445,11.621c-1.623-1.3-2.033-3.107-2.593-5.185A9.838,9.838,0,0,0,7.828,0C4.662,0,1.254,2.739,0,5.14H7.778Z" transform="translate(-8.518 15.459) rotate(34)"/></g></svg>