<svg xmlns="http://www.w3.org/2000/svg" xmlns:xlink="http://www.w3.org/1999/xlink" width="966.557" height="634.717" viewBox="0 0 966.557 634.717"><defs><style>.a{fill:url(#a);}.b{fill:url(#b);}.ak,.ay,.c,.g,.o,.t{fill:none;stroke-miterlimit:10;}.c{stroke:#92d0ff;}.d{fill:url(#d);}.e{fill:url(#f);}.f{fill:url(#g);}.g{stroke:#b3d3f4;stroke-dasharray:4;}.h{fill:#f3faff;}.i{fill:#b3d3f4;}.j{fill:#cfe0f5;}.k{fill:#fff4e1;}.l,.m{fill:#e6f1fc;}.ac,.ae,.ak,.ao,.at,.av,.aw,.m{mix-blend-mode:multiply;isolation:isolate;}.n{fill:#fc8975;}.o{stroke:#cc6658;}.ak,.o,.t{stroke-width:0.5px;}.p{fill:#352e72;}.q{fill:url(#h);}.r{fill:#75a1e9;}.s{fill:url(#i);}.t{stroke:#4a578e;}.u{fill:#081466;}.v{fill:url(#j);}.w{fill:#2d4cba;}.x{fill:url(#k);}.y{fill:url(#l);}.z{fill:#fff;}.aa,.ab{fill:#eac38f;font-family:OpenSans-Bold, Open Sans;font-weight:700;}.aa{font-size:11px;letter-spacing:0.1em;}.ab{font-size:17px;}.ac,.ae{fill:#c9d3f4;}.ac{opacity:0.55;}.ad{fill:url(#m);}.ae,.at{opacity:0.35;}.af{fill:url(#n);}.ag{fill:url(#o);}.ah{fill:url(#p);}.ai,.at{fill:url(#q);}.aj{fill:url(#s);}.ak{stroke:#707070;}.ak,.ao,.av,.aw{opacity:0.75;}.al{fill:#a2c0ed;}.am{fill:url(#t);}.an{fill:#abd1ff;}.ao{fill:url(#u);}.ap{fill:url(#v);}.aq{fill:url(#w);}.ar{fill:url(#x);}.as{fill:#352e73;}.au,.av{fill:url(#ac);}.aw{fill:url(#ae);}.ax{fill:#f42a73;}.ay{stroke:#cfe0f5;}</style><linearGradient id="a" x1="0.5" y1="1" x2="0.5" gradientUnits="objectBoundingBox"><stop offset="0.005" stop-color="#fcf5f1"/><stop offset="0.477" stop-color="#fceeec"/><stop offset="1" stop-color="#fce1e3"/></linearGradient><linearGradient id="b" x1="0.5" y1="1" x2="0.5" gradientUnits="objectBoundingBox"><stop offset="0" stop-color="#466de5"/><stop offset="1" stop-color="#78bfff"/></linearGradient><linearGradient id="d" x1="1.294" y1="0.807" x2="-0.165" y2="0.279" xlink:href="#b"/><linearGradient id="f" x1="0.497" y1="0.987" x2="0.497" y2="0.033" xlink:href="#b"/><linearGradient id="g" x1="0.29" y1="1.082" x2="0.781" y2="0.221" xlink:href="#b"/><linearGradient id="h" x1="2.079" y1="1.011" x2="2.079" y2="0.007" gradientUnits="objectBoundingBox"><stop offset="0" stop-color="#29225e"/><stop offset="1" stop-color="#3f368c"/></linearGradient><linearGradient id="i" x1="3.277" y1="1.006" x2="3.277" y2="0.005" xlink:href="#h"/><linearGradient id="j" x1="0.459" y1="0.6" x2="1.246" y2="0.278" gradientUnits="objectBoundingBox"><stop offset="0" stop-color="#fcc73c"/><stop offset="1" stop-color="#fc7a3c"/></linearGradient><linearGradient id="k" x1="0.755" y1="1.136" x2="0.18" y2="0.178" gradientUnits="objectBoundingBox"><stop offset="0" stop-color="#b3d3f4"/><stop offset="1" stop-color="#d3dced"/></linearGradient><linearGradient id="l" x1="0.5" y1="1" x2="0.5" gradientUnits="objectBoundingBox"><stop offset="0" stop-color="#ffd5a7"/><stop offset="0.372" stop-color="#ffd7aa"/><stop offset="0.654" stop-color="#ffddb3"/><stop offset="0.907" stop-color="#ffe8c3"/><stop offset="1" stop-color="#fec"/></linearGradient><linearGradient id="m" x1="0.755" y1="1.235" x2="0.245" y2="-0.235" gradientUnits="objectBoundingBox"><stop offset="0" stop-color="#cde8ff"/><stop offset="1" stop-color="#eee7e9"/></linearGradient><linearGradient id="n" x1="0.75" y1="1.588" x2="0.25" y2="0.412" xlink:href="#m"/><linearGradient id="o" x1="-11.573" y1="1.069" x2="-11.037" y2="0.223" xlink:href="#b"/><linearGradient id="p" x1="0.92" y1="0.308" x2="-0.115" y2="1.072" xlink:href="#j"/><linearGradient id="q" x1="0.5" y1="1" x2="0.5" y2="0" xlink:href="#h"/><linearGradient id="s" x1="0.5" y1="0.433" x2="0.5" y2="0.97" xlink:href="#j"/><linearGradient id="t" x1="0.89" y1="1.185" x2="0.104" y2="-0.137" gradientUnits="objectBoundingBox"><stop offset="0" stop-color="#5789ee"/><stop offset="1" stop-color="#78bfff"/></linearGradient><linearGradient id="u" x1="0" y1="0.5" x2="1" y2="0.5" xlink:href="#j"/><linearGradient id="v" x1="0.5" y1="0.344" x2="0.5" y2="1.054" xlink:href="#j"/><linearGradient id="w" x1="0.5" y1="1" x2="0.5" gradientUnits="objectBoundingBox"><stop offset="0" stop-color="#fcae3c"/><stop offset="1" stop-color="#fc7a3c"/></linearGradient><linearGradient id="x" x1="0.5" y1="1" x2="0.5" y2="0" xlink:href="#w"/><linearGradient id="ac" x1="0.5" y1="0.317" x2="0.5" y2="1.015" xlink:href="#j"/><linearGradient id="ae" x1="0" y1="0.5" x2="1" y2="0.5" xlink:href="#j"/></defs><path class="a" d="M309.638,386.444h893.319c29.106,0-22.988,12.877-40.054,27.343s-16.071,20.478-58.542,31.425c-91.337,23.539-130.416-22.537-275.427-4.4-61.784,7.726-140.579,22.491-202.721,14.645-52.344-6.609-65.05-36.86-104.608-39.31-60.725-3.762-91.02-.065-146.425-2.36C327.709,411.82,233.708,386.444,309.638,386.444Z" transform="translate(-245.07 177.028)"/><g transform="translate(0 301.534)"><g transform="translate(746.42)"><path class="b" d="M569.062,523.184c-2.856-83.33,19.372-184.464,96.829-241.868,12.432-9.212,27.632-21.083,45.276-20,8.208.5,12.279,8.463,13.514,14.367,2.2,10.54.059,21.382-2.977,31.774C704.936,364.841,649.64,465.3,635.5,523.184" transform="translate(-568.823 -261.246)"/><path class="c" d="M674.661,272.011c-77,85.284-90.845,191.85-88.416,237.98" transform="translate(-543.611 -249.489)"/><g transform="translate(66.674 79.245)"><path class="b" d="M595.831,481.816c10.371-53.928,21.26-97.971,57.728-143.031,15-18.537,43.906-41.446,66.9-39.553,24.672,2.034,7.164,33.628-7.473,57.207C693.46,387.9,679.231,422.124,672.5,457.207c2.037-10.57,10.689-40.666,36.26-54.039,7.51-3.929,25.978-6.222,25.978,6.8,0,22.887-26.25,50.372-32.816,71.844" transform="translate(-595.831 -299.122)"/><path class="c" d="M688.828,307.129c-23.652,25.445-70.812,113.493-76.6,164.344" transform="translate(-571.746 -290.378)"/><path class="c" d="M667.513,353.017c-18.174,15.4-29.323,43.637-35.633,69.936" transform="translate(-542.886 -240.259)"/></g></g><g transform="translate(0 34.507)"><path class="d" d="M363.857,505.17c-15-105.137-4.1-150.954,10.023-180.075,6.582-13.572,16.039-27.012,29.424-36.588,53.563-38.308,51.936,36.172,49.421,58.749C446.993,398.69,431.781,453.665,430.4,505.17" transform="translate(-134.021 -277.739)"/><path class="b" d="M417.412,504.031c-1.7-33.075-19.12-65.343-41.306-92.035-22.314-26.845-53.005-48.258-73.1-76.455-10.764-15.108-27.795-38.86-2.609-51.248,27.926-13.735,68.948.665,91.408,16.369,24.425,17.079,40.477,41.273,53.877,65.168,23.667,42.2,28.417,91.475,28.787,138.2" transform="translate(-235.848 -276.599)"/><path class="e" d="M453.355,459.279c.111-33.665-20.127-69.206-52.089-95.5-20.88-17.181-45.861-33.283-74.347-40.369-14.787-3.68-56.121-9.509-60.266,11.323-1.57,7.892,6.833,22.725,26.968,36.239,27.992,18.784,105.324,47.993,114.651,88.309" transform="translate(-266.468 -231.848)"/><path class="c" d="M274.265,327.392c53.573,12.346,128.251,53.786,142.446,122.736" transform="translate(-255.017 -223.509)"/><path class="c" d="M298.109,287.675c53.689,24,119.169,98.931,126.493,205.832" transform="translate(-219.998 -266.887)"/><path class="c" d="M404.058,282.592C373.881,344.7,368.625,431.9,370.378,499.058" transform="translate(-114.299 -272.439)"/></g><g transform="translate(57.162 184.934)"><path class="f" d="M381.483,426.642c-4.794-18.16-9.006-37.088-21.779-52.734-8.354-10.233-25.388-24.491-40.551-24.267-11.272.165-13.835,9.354-12.524,17.627,3.439,21.683,17.626,28.3,23.134,51.746-2.748-8.881-19.658-39.634-34.5-27.876-16.33,12.932,8.021,35.5,8.021,35.5" transform="translate(-289.623 -349.639)"/><path class="c" d="M294.487,372.21c7.766,7.538,17.737,18.292,21.754,29.78" transform="translate(-282.479 -324.987)"/><path class="c" d="M303.994,356c20.567,17.432,34.93,54.215,38.652,63.693" transform="translate(-268.516 -342.69)"/></g></g><g transform="translate(172.666)"><path class="g" d="M716.314,460.727H995.449c43.172,0,78.171-29.659,78.171-66.249h0c0-36.586-35-66.247-78.171-66.247H399.51c-22.9,0-41.464-15.733-41.464-35.14h0c0-19.409,18.565-35.14,41.464-35.14H900.244c20.278,0,36.717-13.932,36.717-31.117h0c0-17.185-16.439-31.115-36.717-31.115H442.026c-11.154,0-20.2-7.666-20.2-17.118h0c0-9.455,9.045-17.118,20.2-17.118H575.254" transform="translate(-304.635 -68.674)"/><g transform="translate(252.538 36.967)"><path class="h" d="M488.32,135.3c-23.164-3.31-45.108,9.919-49.016,29.548-2.407,12.1,2.617,23.794,12.237,31.772L445.8,206.5l12.886-5.1a47.275,47.275,0,0,0,15.484,4.99c23.164,3.312,45.108-9.917,49.016-29.548S511.484,138.611,488.32,135.3Z" transform="translate(-438.707 -134.791)"/><path class="i" d="M451.538,178.587l-4.394-4.465a3.647,3.647,0,0,1,.607-5.714l5.061-3.578a5.4,5.4,0,0,1,6.742.515s2.338,2.979,5.081,2.448c3.12-.6,9.907-4.8,13.558-8.055,2.572-2.291-1.753-6.331-1.753-6.331a3.651,3.651,0,0,1,.61-5.716l5.061-3.578a5.4,5.4,0,0,1,6.742.517l4.394,4.463C503.151,159.155,460.166,187.353,451.538,178.587Z" transform="translate(-427.95 -125.639)"/></g><path class="h" d="M547.825,186.431c6.3-5.124,8.912-10.392,17.594-12.038a18.576,18.576,0,0,0,5.184-1.335c4.226-2.226,3.362-7.3,4.313-11.321,1.869-7.919,14.074-12.926,23.023-9.442,3.748,1.458,7.144,4.149,11.289,3.91,8.285-.479,7.293-9.141,12.956-14.08,5.347-4.666,16.244-5.277,23.2-2.318a35.115,35.115,0,0,1,12.205,8.4c3.37,3.7,3.219,9.417,5.705,13.495,2.37,3.942,8.045,5.655,10.521,9.532,2.145,3.362,2.8,6.94,1.057,10.492-3.538,7.2-13.921,12.392-23.334,12.392H524.368S540.8,192.137,547.825,186.431Z" transform="translate(-60.36 -94.319)"/><path class="h" d="M474.876,158.053c-5.327-4.331-7.532-8.783-14.869-10.174a15.7,15.7,0,0,1-4.382-1.128c-3.572-1.881-2.844-6.172-3.644-9.57-1.58-6.693-11.9-10.923-19.458-7.98-3.167,1.234-6.038,3.509-9.542,3.306-7-.4-6.164-7.724-10.951-11.9-4.52-3.944-13.728-4.458-19.6-1.958a29.637,29.637,0,0,0-10.317,7.1c-2.849,3.126-2.72,7.959-4.821,11.4-2,3.331-6.8,4.779-8.892,8.057-1.812,2.841-2.37,5.864-.894,8.867,2.99,6.084,11.766,10.474,19.722,10.474H494.7S480.811,162.876,474.876,158.053Z" transform="translate(-291.987 -117.122)"/><g transform="translate(593.019 44.212)"><path class="j" d="M655.753,227.219l-74.7-33.876,19.669-49.484,90.916,39.892Z" transform="translate(-570.122 -132.132)"/><path class="j" d="M679.939,189.874l-90.916-39.892,64.807-11.728Z" transform="translate(-558.42 -138.254)"/><path class="k" d="M4.311,5.1,83.625,0,79.315,60.9,0,66.006Z" transform="translate(40.318 5.194) rotate(27.373)"/><path class="l" d="M607.23,143.86l-30.6,50.094,59.679-3.332Z" transform="translate(-576.627 -132.132)"/><path class="l" d="M662.641,162.927l-30.6,50.094L600.8,169.8Z" transform="translate(-541.122 -111.307)"/><path class="m" d="M667.543,217.385l-90.916-39.892,69.138-18.563Z" transform="translate(-576.627 -115.672)"/><path class="l" d="M667.543,213.817l-90.916-39.892L641.435,162.2Z" transform="translate(-576.627 -112.104)"/></g><g transform="translate(0 103.96)"><path class="j" d="M415.539,214.063l-60.866,12.915-18.262-35.44,73.3-16.454Z" transform="translate(-336.411 -157.777)"/><path class="j" d="M409.706,184.12l-73.3,16.454,28.667-33.762Z" transform="translate(-336.411 -166.812)"/><path class="k" d="M0,0,60.092,2.291l1.935,43.965L1.935,43.965Z" transform="matrix(0.967, -0.256, 0.256, 0.967, 6.131, 29.03)"/><path class="l" d="M336.411,182.949l12.622,40.385,30.782-26.993Z" transform="translate(-336.411 -149.187)"/><path class="l" d="M383.883,175.085l12.622,40.385-42.513-10.54Z" transform="translate(-310.588 -157.777)"/><path class="m" d="M414.819,206.333l-73.3,16.454,27.029-39.337Z" transform="translate(-328.901 -148.64)"/><path class="l" d="M414.819,203.423l-73.3,16.454,28.667-33.762Z" transform="translate(-328.901 -145.73)"/></g></g><g transform="translate(345.43 73.777)"><g transform="translate(145.895)"><path class="n" d="M465.491,168.314l2.259-2.988a18.275,18.275,0,0,1-.644-4.825c0-1.2.467-4.375,1.032-4.638s.824,2.682,1.066,2.569,2.057-5.9,3.076-5.816c.516.042-1.257,5.647-1.257,5.647s1.748-6.084,2.555-5.873-1.116,6.015-1.116,6.015,1.686-5.515,2.367-5.335-1.089,5.553-1.089,5.553,1.674-4.781,2.044-4.511c.568.412-.072,3.707-1.694,8.358-.279.806-1.649,3.469-1.723,3.684s-1.617,5.032-1.617,5.032" transform="translate(-465.491 -152.385)"/><path class="o" d="M467.1,155.555a6.947,6.947,0,0,1,1.832,3.741,5.1,5.1,0,0,1-.639,2.387" transform="translate(-463.129 -148.924)"/></g><g transform="translate(28.253 153.599)"><path class="p" d="M438.573,332.221s13.2,4.086,13.291,7.394c.052,1.9-19.15,1.843-20.344.588-1.913-2.011,1.41-7.565,1.41-7.565Z" transform="translate(-398.613 -109.57)"/><path class="n" d="M437.437,328.984l.3,9.522a2.647,2.647,0,0,1-2.363,1.768,4.013,4.013,0,0,1-3.291-1.636l-.575-11.911" transform="translate(-397.764 -115.571)"/><path class="q" d="M466.536,227.27s7.186,36.965,3.575,107.888c-2.466,48.44-10.186,106.995-13.015,107.06a43.1,43.1,0,0,1-5.359-.23s-18-70.189-19.229-109.721C430.622,271.4,411.68,257.435,419.89,225.8" transform="translate(-417.837 -225.801)"/><path class="r" d="M439.721,327.4l-.53,4.194-7.887.184-.372-4.173Z" transform="translate(-398.606 -114.841)"/></g><g transform="translate(3.316 154.141)"><path class="p" d="M422.081,332.674s13.2,4.086,13.291,7.394c.052,1.9-19.15,1.843-20.344.588-1.916-2.011,1.41-7.565,1.41-7.565Z" transform="translate(-397.901 -109.617)"/><path class="n" d="M420.944,329.438l.3,9.522a2.647,2.647,0,0,1-2.363,1.768,4.013,4.013,0,0,1-3.291-1.636l-.575-11.911" transform="translate(-397.051 -115.618)"/><path class="s" d="M458.089,227.529s-3.387,47.016-7.645,101.283c-1.684,21.439-16.217,111.083-18.266,114.049l-7.184.167s-10.929-77.576-12.153-117.11c-1.886-60.868-9.611-68.224-1.4-99.858" transform="translate(-407.736 -226.06)"/><path class="r" d="M423.3,327.846l-.53,4.194-7.887.184-.373-4.173Z" transform="translate(-397.782 -114.89)"/><path class="t" d="M432.172,238.131s-2.8,60.073-7.976,95.257" transform="translate(-383.562 -212.876)"/></g><path class="u" d="M467.6,169.55c-4.5-6.731-16.715-5.712-23.7-2.63-9.9,4.373-12.257,16.832-21.512,22.163-4.1,2.358-9.04,3.745-12.324,6.917a12.72,12.72,0,0,0-2.659,14.005c1.913,4.682,6.172,8.446,11.094,10.986s10.5,3.963,16.093,5.055c8.922,1.743,18.424,2.676,27.082.123s16.17-9.394,16.14-17.321c-.027-6.708-5.221-12.978-4.313-19.639" transform="translate(-406.393 -139.12)"/><path class="v" d="M550.432,158.912s-23.638,28.742-29.047,35.285c-8.411,10.174-42.967,12.143-61.448,21.416l-12.81,1.18c-6.085,1.048-27.084,13.714-29.047,18.817-4.481,11.645-9,23.46-9.8,35.716a120.337,120.337,0,0,0,.049,12.482q.348,9.032.694,18.062a1.74,1.74,0,0,0,.331,1.149,2.337,2.337,0,0,0,1.306.548c23.2,4.538,47.367,2.094,70.98-.37a4.371,4.371,0,0,0,2.316-.69,3.07,3.07,0,0,0,.854-2.429c.126-3.852-.136-7.7-.316-11.551a283.2,283.2,0,0,1,2.071-49.941c7.315-3.889,37.564-11.938,47.688-23.91,22.658-26.793,22.658-54.4,22.658-54.4Z" transform="translate(-403.841 -145.257)"/><path class="n" d="M436.733,193.192l-.459-13.752-7.191.841L423.93,194.23s2.367,2.885,7.675,2.264C436.192,195.958,436.733,193.192,436.733,193.192Z" transform="translate(-380.637 -122.837)"/><path class="n" d="M422.928,185.957c-.37-5.392,1.513-11.183,4.873-14.35s9.625-3.626,14.249-3.09a9.591,9.591,0,0,1,4.4,1.508c4.562,3.216,4.258,10.626,3.938,15.166a17.08,17.08,0,0,1-4.453,10.722,8.554,8.554,0,0,1-3.273,2.264,17.682,17.682,0,0,1-14.321-1.808C424.708,193.922,423.193,189.8,422.928,185.957Z" transform="translate(-382.175 -134.975)"/><path class="u" d="M425.712,193.9c-1.691.67-4.318,1.155-5.631-.418-1.049-1.257-.136-3.145.234-4.481a105.818,105.818,0,0,1,4.436-12.821,22.7,22.7,0,0,1,3.5-6.195c3.113-3.63,11.953-5.316,17.15-4.9,5.713-.32,14.812,7.567,9.833,16.742-.741-2.247-1.79-2.055-3.74-3.948a12.558,12.558,0,0,1-7.112,2.659c-3.456.266-7.448-.4-9.981,1.651-2.6,2.1-2.059,5.85-3.938,8.463A10.485,10.485,0,0,1,425.712,193.9Z" transform="translate(-387.006 -138.578)"/><path class="n" d="M427.15,178.315a1.791,1.791,0,0,0-1.691-2.14c-2.627-.236-3.412,3.262-2.392,4.852.755,1.178,2.664,2.149,3.651.73" transform="translate(-382.538 -126.415)"/><g transform="translate(31.473 25.798)"><g transform="translate(9.905 29.289)"><path class="u" d="M430.795,183.726a14.387,14.387,0,0,1-1.93-.268,8.7,8.7,0,0,1-4.923-2.728,2.938,2.938,0,0,1-.787-1.749.276.276,0,0,1,.286-.266.285.285,0,0,1,.309.249,2.485,2.485,0,0,0,.674,1.465A8.13,8.13,0,0,0,429,182.958a22.017,22.017,0,0,0,5.493.257.286.286,0,0,1,.314.245.272.272,0,0,1-.282.27A30.067,30.067,0,0,1,430.795,183.726Z" transform="translate(-423.154 -178.715)"/><g transform="translate(10.277 3.929)"><path class="u" d="M429.749,180.775a2.539,2.539,0,0,0-1.676-.077c-1.891.521.158,2.6,1.869,1.534a1.1,1.1,0,0,0,.346-.32C430.531,181.52,430.245,181.009,429.749,180.775Z" transform="translate(-427.317 -180.593)"/></g></g><g transform="translate(4.931)"><path class="r" d="M421.139,181.767a19.571,19.571,0,0,1,4.582-10.478c3.328-3.6,7.779-6.574,12.05-6.574a15.82,15.82,0,0,1,5.357.713,24.074,24.074,0,0,0-11.645,5.841,16.444,16.444,0,0,0-5.629,11.741" transform="translate(-421.139 -164.716)"/></g><path class="r" d="M434.865,179.193a7.376,7.376,0,0,1-6.957,8.049,7.921,7.921,0,0,1-8.717-6.634,7.375,7.375,0,0,1,6.957-8.047A7.918,7.918,0,0,1,434.865,179.193Z" transform="translate(-419.142 -156.186)"/><path class="w" d="M430.121,178.419a4.927,4.927,0,0,1-4.518,5.494,5.3,5.3,0,0,1-5.727-4.571,4.929,4.929,0,0,1,4.52-5.494A5.294,5.294,0,0,1,430.121,178.419Z" transform="translate(-418.116 -154.765)"/></g></g><g transform="translate(281.473 111.285)"><path class="x" d="M645.121,170.313,380.485,366.695V636.737H909.757V366.695Z" transform="translate(-380.485 -170.313)"/><rect class="y" width="475.768" height="369.475" transform="translate(26.751 69.082)"/><g transform="translate(53.996 81.291)"><rect class="z" width="421.279" height="31.549" transform="translate(0 35.796)"/><rect class="z" width="421.279" height="31.549" transform="translate(0 82.125)"/><rect class="z" width="421.279" height="187.596" transform="translate(0 128.455)"/><text class="aa" transform="translate(13.634 54.558)"><tspan x="0" y="0">NAME</tspan></text><text class="aa" transform="translate(13.634 101.985)"><tspan x="0" y="0">EMAIL</tspan></text><text class="aa" transform="translate(13.634 148.265)"><tspan x="0" y="0">MESAGE</tspan></text><text class="ab" transform="translate(194.776 18)"><tspan x="-53.532" y="0">CONTACT US</tspan></text></g><path class="ac" d="M645.121,435.616,380.485,264.177V506.351H909.757V264.177Z" transform="translate(-380.485 -67.795)"/><path class="ad" d="M645.121,463.528,380.485,264.177V534.22H909.757V264.177Z" transform="translate(-380.485 -67.795)"/><path class="ae" d="M645.121,292.189,380.485,503.625H909.757Z" transform="translate(-380.485 -37.201)"/><path class="af" d="M645.121,302.039,380.485,492.867H909.757Z" transform="translate(-380.485 -26.443)"/></g><g transform="translate(717.149 491.265)"><path class="ag" d="M559.019,451.481c-5.357-23.656.237-47.949,11.391-68.174,7.3-13.231,24.1-31.663,42.852-31.372,13.936.216,19.784,12.095,20.591,22.788,2.113,28.029-13.427,36.586-13.346,66.894.782-11.478,13.884-48.752,34.344-36.036,20.038,12.453.518,45.9.518,45.9" transform="translate(-556.967 -351.931)"/><path class="c" d="M604.353,381.11c-6.861,9.748-15.353,23.65-16.681,38.5" transform="translate(-511.87 -320.063)"/><path class="c" d="M595.058,360.156c-18.913,22.535-24.909,70.088-26.479,82.342" transform="translate(-539.912 -342.949)"/></g><g transform="translate(322.772 144.005)"><g transform="translate(44.526 65.182)"><path class="n" d="M417.406,217.107s3.35,2.011,4.515,2.067,3.826-.676,7.125-.4c1.469.123,5.273.841,5.488,1.349s-3.444.431-3.352.649,6.838,2.35,6.544,3.212c-.148.435-6.683-1.642-6.683-1.642s7.127,2.1,6.715,2.77-7.162-1.559-7.162-1.559,6.438,1.994,6.09,2.557-6.643-.856-6.643-.856,5.478,1.013,5.182,1.567c-.153.287-6.162-.358-11.3-2a41.448,41.448,0,0,1-8.672-4.025" transform="translate(-415.251 -217.107)"/></g><path class="ah" d="M446.246,210.259c-5.935,7.664-19.668,16.512-27.252,21.937,4.352,5,28.99,20.593,28.99,20.593l-2.286,4.645s-46.957-7.139-48.451-26.79c-.9-11.758,16.666-29.079,30.3-37.22,12.778-7.628,27.738-8.873,35.613-6.164" transform="translate(-397.215 -185.952)"/></g><g transform="translate(702.242 228.739)"><path class="n" d="M564.277,247.87c-5.174-1.8-12.548-7.149-11.7-10.191.363-1.3,4.009,2.226,5.034,1.36.672-.571.119-3.18-1.75-4.446s-5.74-3.6-4.787-4.406,10.435.981,12.561,3.705c1.343,1.722,2.819,5.544,3.725,9.681l3.932,4.3" transform="translate(-550.928 -222.587)"/><g transform="translate(90.01 155.78)"><path class="p" d="M606.173,401.74s-16.153,4.147-16.138,7.27c.008,1.789,23.729,1.32,25.158.107,2.289-1.937-2.032-7.107-2.032-7.107Z" transform="translate(-583.502 -190.784)"/><path class="n" d="M596.572,398.752v8.992s.57,1.454,2.985,1.615a5.319,5.319,0,0,0,4-1.615l.254-11.254" transform="translate(-573.901 -196.518)"/><path class="ai" d="M590.792,303.322s-7.463,35.042-.286,101.894c4.9,45.662,16.686,100.752,20.181,100.752s6.616-.335,6.616-.335S636.857,439,636.857,401.661c0-57.487,22.872-71.078,11.512-100.752" transform="translate(-587.388 -300.91)"/><path class="r" d="M595.838,397.2l.815,3.947h9.753l.3-3.947Z" transform="translate(-574.979 -195.745)"/></g><g transform="translate(122.203 155.78)"><path class="p" d="M626.567,401.74s-16.153,4.147-16.138,7.27c.007,1.789,23.729,1.32,25.158.107,2.288-1.937-2.032-7.107-2.032-7.107Z" transform="translate(-585.742 -190.784)"/><path class="n" d="M616.966,398.752v8.992s.57,1.454,2.985,1.615a5.319,5.319,0,0,0,4-1.615l.254-11.254" transform="translate(-576.141 -196.518)"/><path class="ai" d="M600.429,303.322s5.984,44.294,13.323,95.414c2.9,20.2,24.292,104.476,26.938,107.231h8.882S660.1,432.517,660.1,395.18c0-57.485,9.263-64.6-2.1-94.27" transform="translate(-600.429 -300.91)"/><path class="r" d="M616.138,397.2l.815,3.947h9.753l.3-3.947Z" transform="translate(-577.357 -195.745)"/><path class="t" d="M601.67,312.773s5.757,56.631,13.5,89.721" transform="translate(-598.607 -287.953)"/></g><g transform="translate(11.729 21.122)"><path class="aj" d="M726.018,366.264c0-3.661,3.362-66.814-9.583-81.1-3.661-6.647-17.2-14.175-27.987-17.443-9.514-2.881-15.5-.636-19.829-.107-18.192-4.427-59.792-1.467-71.328-6.488-6.349-2.764-36.058-24.583-36.058-24.583l-5.555,3.661s17.747,31.429,37.7,42.413c14.034,7.726,34.855,12.017,45.984,13.886-.16,1.73-.3,3.63-.41,5.745a542.528,542.528,0,0,0-.588,64.021c.146,3.136-3.856,7.141-3.856,9.233s4.809,8.71,44.814,8.71c33.93,0,50.055-4.22,50.055-9.011C729.381,370.26,726.018,369.925,726.018,366.264Z" transform="translate(-555.679 -236.548)"/><path class="ak" d="M590.5,259.028s-.75,10.8-.926,12.928" transform="translate(-505.892 -211.996)"/></g><path class="n" d="M602.336,232.916c-1.518,5.065-5.206,18.993-1.815,23.355,3.353,4.314,10.7,5.551,16.321,3.55a19.069,19.069,0,0,0,11.3-11.545c1.795-4.935,1.748-10.208,1.363-15.361" transform="translate(-480.133 -219.393)"/><path class="n" d="M604.47,244.081l-2.35,16.886s.854,4.728,3.9,6.534a13.871,13.871,0,0,0,11.119-6.189L614.9,239.568" transform="translate(-475.743 -212.128)"/><path class="p" d="M625.236,244.656c-3.859-1.178-9.159-.755-14-1.452-3.362-.481-6.959-.544-10.124-1.72-5.764-2.138-5.239-9.519-.543-12.323a6.849,6.849,0,0,1,4.515-1.207c1.689.331,2.313,1.837,3.807,2.4a5.774,5.774,0,0,0,2.567.3,3.534,3.534,0,0,0,1.768-.565c.817-.6,1.158-1.563,1.95-2.205a6.472,6.472,0,0,1,2.809-1.211,9.86,9.86,0,0,1,6.7.866,8.743,8.743,0,0,0,2.027,1.126c1.247.343,2.659.282,3.826.829,3.229,1.513,5.318,5.383,5.589,8.379.044.473.965.939,1.3,1.27,3.207,3.174,3.429,7.622,2.56,11.551s-2.469,7.68-6.256,10.26a18.658,18.658,0,0,1-4.908,1.791c-6.678,2-3.286-13.606-3.594-18.093" transform="translate(-483.383 -226.452)"/><path class="n" d="M609.107,240.124c.057-1.14,2.036-2.092,3.315-1.308a2.3,2.3,0,0,1,1.341,1.768,4.268,4.268,0,0,1-3.4,4.3,1.833,1.833,0,0,1-1.849-1.515" transform="translate(-466.352 -213.263)"/><g transform="translate(126.378 3.437)"><g transform="translate(3.678 28.636)"><g transform="translate(1.678)"><path class="u" d="M608.307,246.682a15.085,15.085,0,0,0,1.93-.262,8.773,8.773,0,0,0,4.923-2.668,2.845,2.845,0,0,0,.788-1.709.276.276,0,0,0-.287-.262.284.284,0,0,0-.309.245,2.4,2.4,0,0,1-.674,1.431,8.191,8.191,0,0,1-4.582,2.473,22.519,22.519,0,0,1-5.493.251.284.284,0,0,0-.314.239.271.271,0,0,0,.281.266A30.91,30.91,0,0,0,608.307,246.682Z" transform="translate(-604.29 -241.782)"/></g><g transform="translate(0 3.842)"><path class="u" d="M604.237,243.8a2.566,2.566,0,0,1,1.676-.075c1.891.506-.158,2.546-1.869,1.5a1.085,1.085,0,0,1-.346-.314C603.454,244.524,603.741,244.026,604.237,243.8Z" transform="translate(-603.61 -243.618)"/></g></g><path class="r" d="M624.109,244.768a18.918,18.918,0,0,0-4.582-10.243c-3.328-3.525-7.779-6.429-12.05-6.429a16.124,16.124,0,0,0-5.357.7,24.29,24.29,0,0,1,11.645,5.71,15.944,15.944,0,0,1,5.629,11.48" transform="translate(-602.12 -228.095)"/><path class="r" d="M606.685,242.251c-.486,3.963,2.627,7.486,6.957,7.867s8.231-2.523,8.717-6.486-2.629-7.486-6.957-7.867S607.171,238.287,606.685,242.251Z" transform="translate(-595.489 -219.754)"/><path class="al" d="M608.182,241.492a4.846,4.846,0,0,0,4.518,5.371,5.264,5.264,0,0,0,5.725-4.467,4.845,4.845,0,0,0-4.518-5.371A5.26,5.26,0,0,0,608.182,241.492Z" transform="translate(-593.269 -218.365)"/></g><g transform="translate(40.218 52.3)"><g transform="translate(0 49.687)"><path class="al" d="M655.9,319.428H576.026l-7.826-40.9c-.333-1.743,1.257-3.327,3.34-3.327h71.195c2.713,0,5.026,1.67,5.461,3.94Z" transform="translate(-565.843 -275.199)"/><path class="am" d="M654.966,319.428H575.087l-7.823-40.9c-.333-1.743,1.257-3.327,3.34-3.327H641.8c2.716,0,5.029,1.67,5.463,3.94Z" transform="translate(-567.219 -275.199)"/><path class="an" d="M593.151,288.125c-.874-3.448-3.97-5.889-6.915-5.45s-4.629,3.59-3.755,7.038,3.97,5.889,6.915,5.452S594.025,291.575,593.151,288.125Z" transform="translate(-545.143 -267.09)"/></g><g transform="translate(62.873)"><path class="ao" d="M662.081,266.43c-3.661-6.647-13.331-9.457-24.119-12.725L635,284.594c1.333,14.08,7.342,34.431,7.342,34.431l-33.4,21.416.049.077a6.008,6.008,0,0,1-1.343.6c-.457,0-3.693-1.552-5.411-1.3s-3.693.347-3.693.875,2.629.577,2.629,1.08-1.77,1.5-2.58,1.5-5.567-.291-5.865.006,1.012,2.121,2.325,3.107a9.609,9.609,0,0,0,4.224,1.228,32.657,32.657,0,0,0,9.028-1.429c.555-.335,1.938-.987,3.281-1.6l1.131,1.772s45.513-3.073,59.214-8.369C672.356,318.969,672.245,277.644,662.081,266.43Z" transform="translate(-592.687 -248.987)"/><path class="n" d="M611.8,294.44a36.765,36.765,0,0,1-4.147,1.877c-.457,0-3.693-1.331-5.411-1.115s-3.693.3-3.693.749,2.629.494,2.629.923-1.77,1.28-2.58,1.28-5.567-.249-5.865.006,1.012,1.812,2.325,2.657a10.847,10.847,0,0,0,4.224,1.05,37.8,37.8,0,0,0,9.028-1.222c1.217-.63,6.424-2.571,6.424-2.571" transform="translate(-592.687 -204.497)"/><path class="ap" d="M624.422,251.45s23.376,1.251,34.485,19.558,7.638,57.32.849,63.073-58.508,12.844-58.508,12.844l-1.975-4.021,36.413-19.284s-11.341-32.213-11.341-45.29" transform="translate(-583.015 -251.45)"/></g></g><g transform="translate(123.123 48.839)"><path class="aq" d="M603.694,256.15c1.681,1.425,2.395,3.452,4.014,6.364a15.792,15.792,0,0,0,10.2-9.438l-3.1-3.115S608.71,255.311,603.694,256.15Z" transform="translate(-596.554 -249.616)"/><path class="ar" d="M607.957,256.33a15.206,15.206,0,0,0-3.9,5.381c-1.977-1.676-3.434-7.72-3.236-8.452a44,44,0,0,1,3.236-3.463A11.564,11.564,0,0,0,607.957,256.33Z" transform="translate(-600.802 -249.796)"/></g></g><g transform="translate(55.196 223.414)"><g transform="translate(78.978 100.509)"><path class="as" d="M337.811,401.072s-16.155,4.145-16.14,7.268c.01,1.791,23.731,1.32,25.161.109,2.288-1.939-1.777-7.808-1.777-7.808Z" transform="translate(-319.568 -131.389)"/><path class="n" d="M328.209,397.858v8.992s.57,1.454,2.985,1.615a5.31,5.31,0,0,0,4-1.615l.254-11.254" transform="translate(-309.965 -136.899)"/><path class="ai" d="M344.427,285.728c-10.857,11.9-23.608,45.557-23.608,109.455,0,45.16,17.281,139.742,17.281,139.742l9.875.7c31.577-169.051,20.917-167.3,28.8-197.363,4.937-18.83-5.093-66.312-5.093-66.312" transform="translate(-320.819 -271.947)"/><path class="at" d="M346.337,349.438s-6.811-32.073-6.811-38.628c-2.945,13.11-2.945,30.094,0,42.011,2.163,8.75,4.409,17.3,4.409,17.3Z" transform="translate(-296.588 -229.501)"/><path class="r" d="M327.648,396.522V400.1s10.324,1.471,10.324.929.467-4.113.467-4.113Z" transform="translate(-310.789 -135.887)"/><g transform="translate(16.866)"><path class="as" d="M368.892,401.072s16.153,4.145,16.138,7.268c-.007,1.791-23.731,1.32-25.161.109-2.286-1.939,1.78-7.808,1.78-7.808Z" transform="translate(-281.357 -131.389)"/><path class="n" d="M366.684,397.858l1.812,8.992s-.573,1.454-2.987,1.615a5.3,5.3,0,0,1-4-1.615L359.441,395.6" transform="translate(-280.961 -136.899)"/><path class="ai" d="M373.166,280.364c10.7,15.256,29.664,46.7,29.664,110.6,0,45.162-1.4,143.93-1.4,143.93l-8.472.728c-27.277-64.542-49.991-146.784-55.318-194.7-2.135-19.2,1.945-68.98,1.945-68.98" transform="translate(-313.893 -271.947)"/><path class="at" d="M388.183,280.526a351.536,351.536,0,0,0-35.09-7.059c-.027.372-.057.762-.089,1.19l-18.611,9.411a47.837,47.837,0,0,0-6.742,10.059,97.4,97.4,0,0,0,23.862,4.532c15.4,1.163,34.643-1.385,44.518-5.3A142.271,142.271,0,0,0,388.183,280.526Z" transform="translate(-327.651 -270.287)"/><path class="r" d="M370.414,396.2v3.573s-10.835,1.469-10.835.927-.489-4.113-.489-4.113Z" transform="translate(-281.477 -136.237)"/></g></g><g transform="translate(0 4.398)"><g transform="translate(239.905 60.426)"><path class="n" d="M386.006,265.363l3.5-1.613a17.964,17.964,0,0,1,1.99-4.264c.635-1,2.7-3.458,3.318-3.458s-.708,2.548-.442,2.548,4.851-4.111,5.678-3.649c.417.234-4.041,4.212-4.041,4.212s4.69-4.387,5.266-3.9-4.115,4.576-4.115,4.576,4.335-3.937,4.821-3.525-3.849,4.2-3.849,4.2,3.94-3.331,4.115-2.963c.264.563-2.014,3.057-5.841,6.3-.664.563-3.229,2.251-3.407,2.4s-4.024,3.563-4.024,3.563" transform="translate(-386.006 -254.891)"/><path class="o" d="M390.673,256.932a6.024,6.024,0,0,1-.41,3.82,5.771,5.771,0,0,1-1.8,1.739" transform="translate(-382.4 -252.661)"/></g><path class="n" d="M300.156,240.466l-2.444-2.661a16.679,16.679,0,0,0,.185-4.584c-.111-1.128-.842-4.084-1.41-4.293s-.553,2.575-.8,2.485-2.511-5.41-3.483-5.268c-.494.073,1.718,5.23,1.718,5.23s-2.232-5.609-2.99-5.358,1.617,5.586,1.617,5.586-2.118-5.076-2.76-4.862,1.55,5.153,1.55,5.153-2.044-4.389-2.377-4.109c-.509.425.4,3.483,2.385,7.752.343.741,1.9,3.155,1.992,3.354s2.012,4.628,2.012,4.628" transform="translate(-288.827 -226.009)"/><path class="o" d="M292.379,228.863a6.347,6.347,0,0,0-1.425,3.64,4.842,4.842,0,0,0,.832,2.205" transform="translate(-285.711 -222.892)"/><g transform="translate(4.301 12.166)"><path class="au" d="M528.644,289.29s-35.386,11.051-43.422,11.051c-6.633,0-17.933-15.189-33.572-25.541a94.819,94.819,0,0,0-20.774-9.95l-29.535-.523c-5.545,0-16.644.649-26.827,1.822-14.694,1.69-28.469,1.134-34.88-1.3-12.405-4.707-43.434-32.971-43.434-32.971a7.328,7.328,0,0,0-5.631,1.741c0,1.4,15.972,40.04,37.03,51.61,15.491,8.513,38.06,9.907,52.151,9.825v7.959c0,3.923-5.532,23.257,1.007,28.8,6.006,5.09,28.926,5.724,37.875,5.724,13.269,0,26.847-1.785,30.241-5.724,1.7-1.975,1.444-10.775.921-18.84,10.615,5.661,20.211,11.3,32.461,11.3,22.934,0,49.914-30.4,49.914-30.4Z" transform="translate(-290.569 -231.824)"/><path class="av" d="M361.261,280.656l-.3-5.608-9.912-8.5Z" transform="translate(-201.739 -193.903)"/><path class="aw" d="M329.965,268.395c0-1,1.995-10.628,1.995-12.162-2.977,5.433-7.492,12.116-7.492,12.116Z" transform="translate(-240.783 -205.165)"/></g></g><g transform="translate(89.061)"><path class="ax" d="M363.638,226.094c8.334,4.4,6.91,13.4,10.282,19.035,2.437,4.067,6.258,7.517,6.616,12.348.393,5.274-7.7,7.739-12.035,7.17-8.487-1.113-15.78,2.548-24.331,1.672-5.826-.6-3.629-3.076-7.428-6.867a13.475,13.475,0,0,1-3.728-8.262,29.711,29.711,0,0,1,.755-8.938" transform="translate(-313.136 -221.519)"/><path class="n" d="M344.515,243.758l-1.659,12.957-7.416.973s5.172,7.909,13.4,7.909,16.135-7.385,16.135-7.385l-8.038-2.109-3.056-18.2" transform="translate(-309.428 -208.622)"/><path class="n" d="M334.506,235.528c-.481,4.333-.96,8.752.158,13a14.588,14.588,0,0,0,8.826,10.109,22.124,22.124,0,0,0,6.8,1.132c3.9.146,8.068-.239,11.168-2.253a11.152,11.152,0,0,0,4.75-10.373c-.3-3.856-2.061-7.5-3.807-11.074q-2.433-4.987-4.871-9.973" transform="translate(-311.573 -221.519)"/><path class="ax" d="M328.793,255.168c-1.622,1.7-3.587,3.385-3.861,5.555-.269,2.144,1.368,4.3,3.688,5.182,2.054.787,3.989.519,6.157.4a32.335,32.335,0,0,1,7.127.243c1.995.333,3.908.948,5.866,1.421a23.792,23.792,0,0,0,8.9.657,1.806,1.806,0,0,0,1.316-.6c.257-.433-.02-.946-.267-1.383-1.822-3.27-1.852-7.042-1.511-10.647a24.5,24.5,0,0,1,1.044-5.494,28.93,28.93,0,0,1,2-4.354c1.454-2.707,3.264-5.3,4.644-8.03,1.343-2.716,2.185-6.913,6.67-6.362,2.888.356,4.115,4.3,6.036,6.708,2.854-2.762,6.063-4.435-.015-10.978-3.041-3.274-8.223-3.094-12.82-2.383-2.582-.146-2.4-1-4.984-1.153-8.431-.485-17.5,4.381-21.194,10.928C333.462,242.182,334.422,249.285,328.793,255.168Z" transform="translate(-324.903 -223.907)"/><g transform="translate(15.3 0.033)"><g transform="translate(9.905 28.636)"><path class="u" d="M342.754,242.51a15.084,15.084,0,0,1-1.931-.264,8.774,8.774,0,0,1-4.923-2.668,2.839,2.839,0,0,1-.787-1.709.274.274,0,0,1,.286-.259.281.281,0,0,1,.309.243,2.4,2.4,0,0,0,.674,1.431,8.191,8.191,0,0,0,4.582,2.473,22.627,22.627,0,0,0,5.493.253.28.28,0,0,1,.314.238.269.269,0,0,1-.281.264A30.9,30.9,0,0,1,342.754,242.51Z" transform="translate(-335.113 -237.61)"/><g transform="translate(10.277 3.841)"><path class="u" d="M341.708,239.624a2.579,2.579,0,0,0-1.676-.075c-1.891.508.158,2.546,1.869,1.5a1.077,1.077,0,0,0,.346-.312C342.49,240.352,342.207,239.852,341.708,239.624Z" transform="translate(-339.276 -239.446)"/></g></g><g transform="translate(4.931)"><path class="u" d="M333.1,240.594a18.917,18.917,0,0,1,4.582-10.243c3.328-3.525,7.779-6.427,12.05-6.427a16.168,16.168,0,0,1,5.357.7,24.294,24.294,0,0,0-11.645,5.712,15.936,15.936,0,0,0-5.629,11.48" transform="translate(-333.098 -223.923)"/></g><path class="u" d="M346.824,238.078c.486,3.963-2.627,7.486-6.957,7.867s-8.231-2.521-8.717-6.486,2.629-7.486,6.957-7.867S346.338,234.114,346.824,238.078Z" transform="translate(-331.101 -215.583)"/><path class="w" d="M342.079,237.319a4.849,4.849,0,0,1-4.518,5.373,5.264,5.264,0,0,1-5.725-4.469,4.846,4.846,0,0,1,4.518-5.371A5.264,5.264,0,0,1,342.079,237.319Z" transform="translate(-330.073 -214.194)"/></g></g></g><g transform="translate(44.285 73.776)"><path class="ay" d="M541.723,152.521l-12.4,4.4a1.587,1.587,0,0,0-.533,2.858l8.89,6.484a2.149,2.149,0,0,0,3.244-.841l3.51-10.881C544.875,153.172,543.266,151.973,541.723,152.521Z" transform="translate(73.487 -152.385)"/><path class="ay" d="M317.689,219.189l3.636,10.967a2.152,2.152,0,0,0,3.281.8l8.68-6.687a1.588,1.588,0,0,0-.59-2.831l-12.314-4.281C318.834,216.616,317.234,217.825,317.689,219.189Z" transform="translate(-235.641 -81.787)"/><path class="ay" d="M640.207,288.357l9.527-8.036a1.6,1.6,0,0,0-.778-2.818l-11.119-3.163c-1.4-.4-2.807.575-2.629,1.814l1.59,11.2C637,288.761,639.022,289.357,640.207,288.357Z" transform="translate(230.788 -19.287)"/><path class="ay" d="M619.187,222.6l3.5,11a2.151,2.151,0,0,0,3.273.828l8.761-6.609a1.587,1.587,0,0,0-.556-2.837L621.9,220.589C620.364,220.038,618.752,221.231,619.187,222.6Z" transform="translate(207.175 -78.044)"/><path class="j" d="M0,0,7.253.565,7.818,7.51.565,6.945Z" transform="translate(779.271 125.959) rotate(-37.391)"/><path class="j" d="M0,0,7.682.052l.052,6.515L.052,6.515Z" transform="matrix(0.999, -0.044, 0.044, 0.999, 722.319, 77.602)"/><path class="j" d="M0,0,7.53.4l.4,6.667L.4,6.667Z" transform="matrix(0.932, -0.363, 0.363, 0.932, 229.297, 164.001)"/><path class="j" d="M.392.392,7.926,0,7.534,6.663,0,7.054Z" transform="translate(305.397 2.499) rotate(20.972)"/><path class="j" d="M0,0,7.682.052l.052,6.515L.052,6.515Z" transform="matrix(0.999, -0.044, 0.044, 0.999, 0, 312.708)"/></g></svg>