<svg xmlns="http://www.w3.org/2000/svg" xmlns:xlink="http://www.w3.org/1999/xlink" width="118.369" height="110.038" viewBox="0 0 118.369 110.038"><defs><style>.a{opacity:0.55;}.b{fill:url(#a);}.c{fill:#8888e9;}.d{fill:#b0affd;}.e{opacity:0.7;}.f{fill:#9797ef;}.g{fill:url(#b);}.h{fill:#6a4ce5;}.i{fill:#2c546f;}.j{fill:#f2f2f2;}.k{fill:#d4b8ff;}.l,.n{fill:#fff;}.m{fill:none;stroke:#d4b8ff;stroke-linecap:round;stroke-linejoin:round;}.n{opacity:0.5;mix-blend-mode:screen;isolation:isolate;}.o{fill:url(#d);}.p{fill:#25485b;}</style><linearGradient id="a" x1="0.096" y1="1.17" x2="1.198" y2="-0.103" gradientUnits="objectBoundingBox"><stop offset="0" stop-color="#fff" stop-opacity="0"/><stop offset="0.559" stop-color="#e3cecf"/><stop offset="1" stop-color="#fabec1"/></linearGradient><linearGradient id="b" x1="0.269" y1="0.337" x2="1.766" y2="1.394" gradientUnits="objectBoundingBox"><stop offset="0" stop-color="#642bfb"/><stop offset="1" stop-color="#9e83ff"/></linearGradient><linearGradient id="d" x1="0.315" y1="0.104" x2="0.327" y2="0.796" gradientUnits="objectBoundingBox"><stop offset="0" stop-color="#25485b"/><stop offset="1" stop-color="#2c546f"/></linearGradient></defs><g transform="translate(-393.075 -182.501)"><g class="a" transform="translate(393.075 182.501)"><path class="b" d="M4.7,41.54C-.839,50.649-1.423,66.419,2.636,76.278c3.555,8.635,10.627,16.74,19.91,17.755,3.414.373,6.9-.237,10.281.379,11.619,2.116,15.941,16.435,24.971,24.047,6.284,5.3,15,7.172,23.159,6.151s15.791-4.708,22.512-9.438c5.307-3.735,10.273-8.328,12.892-14.266,5.489-12.447-.969-27.4-11-36.583-3.125-2.861-6.608-5.385-9.219-8.722s-4.272-7.79-3.028-11.84c.993-3.231,3.664-5.736,4.676-8.962,1.377-4.389-.7-9.313-4.116-12.4s-7.932-4.633-12.407-5.7C62.516,12.25,21.429,14.043,4.7,41.54Z" transform="translate(0 -14.84)"/></g><path class="c" d="M548.116,263.9a.694.694,0,0,1,.177.278,2.241,2.241,0,0,0-.269-.685,52.172,52.172,0,0,1-1.013-5.916c-.043-.4-.077-.809-.109-1.213.619-.72,2.366-1.941,2.764-2.378a11.839,11.839,0,0,0,2.358-3.154c.189-.477.5-1.912-.217-2.155-.807-.276-1.937,1.85-2.208,2.377a35.665,35.665,0,0,1-1.749,3.527,11.459,11.459,0,0,0-.971,1.518,45.207,45.207,0,0,1-.09-5.408c.586-.715,2.392-1.972,2.8-2.418a11.847,11.847,0,0,0,2.358-3.154c.189-.477.5-1.912-.217-2.155-.807-.276-1.937,1.85-2.209,2.376a35.6,35.6,0,0,1-1.749,3.527,11.607,11.607,0,0,0-.964,1.5,40.03,40.03,0,0,1,.68-5.667,37.418,37.418,0,0,1,.948-3.813c.931-.462,2.26-.962,2.653-1.213a11.816,11.816,0,0,0,3.1-2.427c.307-.41.979-1.716.355-2.136-.707-.478-2.354,1.278-2.754,1.716a35.521,35.521,0,0,1-2.611,2.947c-.175.154-.36.3-.543.454a38.2,38.2,0,0,1,1.969-4.909c.42-.128.828-.332,1.238-.5a30.647,30.647,0,0,1,3.245-.879c.487-.139,2.455-.732,2.358-1.454-.085-.637-1.338-.619-1.769-.54a10.1,10.1,0,0,0-3.034,1.451c-.321.194-1.129.94-1.813,1.475.372-.744.76-1.48,1.18-2.2a37.632,37.632,0,0,1,2.195-3.3,8.111,8.111,0,0,0,1.546-.579,30.473,30.473,0,0,1,3.245-.878c.487-.14,2.455-.732,2.358-1.455-.086-.637-1.339-.619-1.77-.54a10.108,10.108,0,0,0-3.034,1.451c-.373.224-1.4,1.193-2.131,1.712a35.258,35.258,0,0,1,3.488-3.969,11.914,11.914,0,0,0,1.314-.552,30.627,30.627,0,0,1,3.228-.94c.484-.149,2.44-.779,2.33-1.5-.1-.635-1.35-.594-1.779-.507a10.117,10.117,0,0,0-3.005,1.509,5.132,5.132,0,0,0-.511.408q-1.116.784-2.155,1.674a.332.332,0,0,1-.084.014c.026,0,.051-.008.077-.008a30.742,30.742,0,0,0-2.681,2.592c.155-.415.232-.873.347-1.305a30.383,30.383,0,0,1,1.264-3.115c.184-.472.9-2.4.269-2.757-.559-.318-1.3.69-1.5,1.082a10.12,10.12,0,0,0-.68,3.293c-.054.5.15,2.266.048,3.084a31.042,31.042,0,0,0-2.188,2.737,8.8,8.8,0,0,0,.206-1.594,30.576,30.576,0,0,1,.77-3.273c.109-.495.523-2.508-.158-2.766-.6-.228-1.182.883-1.317,1.3a10.115,10.115,0,0,0-.166,3.358c.025.529.558,2.434.523,3.183-.272.39-.54.783-.795,1.185a34.4,34.4,0,0,0-2.737,5.248c-.089-.309-.2-.617-.292-.923a30.667,30.667,0,0,1-.549-3.317c-.09-.5-.482-2.515-1.211-2.491-.642.021-.75,1.27-.715,1.706a10.11,10.11,0,0,0,1.14,3.164c.182.386,1.014,1.472,1.464,2.247a36.074,36.074,0,0,0-1.721,5.471c-.083-.372-.175-.742-.23-1.089-.137-.875-.244-1.755-.293-2.639a15.045,15.045,0,0,1,.291-4.13.714.714,0,0,0-1.188-.673q-.03.028-.057.059c-.781.845-.713,2.145-.578,3.287.1.869.63,5.59,1.79,6.406a38.686,38.686,0,0,0-.666,6.542c-.292-1.044-.333-2.143-.526-3.211-.09-.5-.485-2.515-1.213-2.491-.643.022-.75,1.27-.714,1.706a10.127,10.127,0,0,0,1.142,3.163c.164.346.85,1.253,1.315,2a40.332,40.332,0,0,0,.4,5.222c-.117-.184-.239-.365-.349-.549a30.557,30.557,0,0,1-1.361-3.074c-.212-.46-1.1-2.315-1.8-2.11-.616.181-.409,1.417-.265,1.831a10.1,10.1,0,0,0,1.9,2.778c.274.329,1.353,1.173,1.981,1.811q.31,1.978.809,3.914c-.534-.838-.912-1.771-1.4-2.641-.247-.442-1.275-2.222-1.956-1.963-.6.229-.3,1.445-.121,1.846a10.106,10.106,0,0,0,2.108,2.621c.241.247,1.032.788,1.684,1.3.693,2.41-.329,5.6.762,7.843C547.347,269,548.625,266.04,548.116,263.9Z" transform="translate(-66.24 -7.851)"/><path class="c" d="M8.446,27.076a.435.435,0,0,0-.122.163,1.4,1.4,0,0,1,.2-.411,32.117,32.117,0,0,0,.884-3.6c.045-.247.083-.495.121-.743-.35-.471-1.374-1.3-1.6-1.587A7.315,7.315,0,0,1,6.61,18.847c-.1-.3-.221-1.2.229-1.319.51-.135,1.113,1.225,1.257,1.562a22.113,22.113,0,0,0,.923,2.251,7.063,7.063,0,0,1,.533.978,28.058,28.058,0,0,0,.293-3.33c-.33-.466-1.388-1.321-1.618-1.613A7.319,7.319,0,0,1,6.91,15.328c-.1-.3-.222-1.2.228-1.319.51-.135,1.113,1.226,1.257,1.562a22.216,22.216,0,0,0,.924,2.251,7.284,7.284,0,0,1,.529.968,24.786,24.786,0,0,0-.171-3.524,23.2,23.2,0,0,0-.417-2.392c-.554-.326-1.351-.692-1.582-.864a7.317,7.317,0,0,1-1.806-1.632c-.171-.267-.528-1.1-.124-1.333.456-.263,1.395.891,1.622,1.179A22.065,22.065,0,0,0,8.85,12.155c.1.1.208.2.315.3a23.621,23.621,0,0,0-1-3.113c-.253-.1-.5-.241-.741-.363A18.838,18.838,0,0,0,5.462,8.3c-.293-.107-1.481-.559-1.39-1,.081-.389.852-.323,1.115-.255A6.255,6.255,0,0,1,6.994,8.071c.189.133.655.629,1.053.989-.2-.475-.4-.945-.631-1.407a23.23,23.23,0,0,0-1.208-2.13A5.027,5.027,0,0,1,5.28,5.1a18.811,18.811,0,0,0-1.962-.684c-.294-.108-1.481-.559-1.39-1,.081-.389.852-.323,1.115-.256A6.254,6.254,0,0,1,4.849,4.185c.22.155.811.8,1.238,1.149a21.788,21.788,0,0,0-1.976-2.6,7.4,7.4,0,0,1-.786-.4,18.806,18.806,0,0,0-1.949-.721C1.085,1.5-.094,1.028.006.589.094.2.864.282,1.125.355A6.256,6.256,0,0,1,2.912,1.416a3.313,3.313,0,0,1,.3.273q.654.533,1.255,1.127a.2.2,0,0,0,.052.013c-.017,0-.031-.007-.047-.009A19,19,0,0,1,6.007,4.536c-.078-.263-.1-.548-.156-.82A19,19,0,0,0,5.208,1.74c-.092-.3-.451-1.518-.045-1.712.359-.171.773.483.878.733a6.249,6.249,0,0,1,.275,2.06c.011.308-.192,1.39-.166,1.9A19.3,19.3,0,0,1,7.38,6.5a5.37,5.37,0,0,1-.057-.992A19,19,0,0,0,6.992,3.46c-.046-.31-.213-1.569.219-1.7.381-.114.69.6.755.859A6.246,6.246,0,0,1,7.92,4.7c-.038.325-.45,1.476-.462,1.939.151.252.3.506.438.765a21.249,21.249,0,0,1,1.457,3.356c.069-.187.151-.371.221-.556a18.8,18.8,0,0,0,.484-2.021c.078-.3.408-1.53.856-1.483.395.042.407.816.366,1.083a6.249,6.249,0,0,1-.841,1.9c-.129.23-.69.862-1,1.321a22.307,22.307,0,0,1,.821,3.448c.068-.225.141-.45.19-.661.123-.533.228-1.071.3-1.614a9.3,9.3,0,0,0,0-2.559.441.441,0,0,1,.762-.363l.033.039a2.517,2.517,0,0,1,.211,2.052c-.1.531-.633,3.418-1.385,3.87a23.908,23.908,0,0,1,.124,4.062c.226-.631.3-1.306.466-1.956.078-.3.409-1.529.857-1.483.4.042.407.816.365,1.084a6.259,6.259,0,0,1-.843,1.9c-.116.206-.579.735-.9,1.172a25.043,25.043,0,0,1-.477,3.2c.08-.108.163-.215.239-.323a18.958,18.958,0,0,0,.974-1.836c.15-.274.777-1.379,1.2-1.222.372.139.19.892.083,1.14a6.254,6.254,0,0,1-1.29,1.63c-.183.191-.886.663-1.3,1.03q-.278,1.206-.67,2.377c.366-.494.64-1.052.978-1.567.172-.261.884-1.314,1.292-1.124.36.168.12.9-.006,1.143a6.242,6.242,0,0,1-1.414,1.523c-.16.142-.671.44-1.1.725-.533,1.455-.043,3.468-.814,4.8C8.7,30.251,8.039,28.371,8.446,27.076Z" transform="translate(400.718 211.627) rotate(-22)"/><g transform="matrix(0.996, -0.087, 0.087, 0.996, 399.548, 223.03)"><path class="d" d="M13.021,32.484c-.022.017.466-1.829-1.79-4.28-2.275-2.574-8.254-3.723-8.55-5.77-.3-2.187,3.3-.838,5.261-1.926,1.985-1.119,2.694-1.684.572-2.664C6.393,16.9,5.1,16.4,5.545,14.557,6,12.7,2.127,12.721.621,10.923-.941,9.11.528,7.531,4.078,8.489c3.468,1.028,3.734.479,2.85-.305C6.06,7.408,3.207,5.745,4.738,5.1c1.569-.645,3.317.677,2.565-.765C6.566,2.888,4.317,1.432,5.826.407c1.509-1.042,4.562-.18,5.489,3.68.892,3.841,1.235,4.935,2.839,5.715,1.557.785,3.55-.628,5.407.6,1.835,1.243.989,3.084-.523,4.079-1.543.991-4.213,3.05-3.237,4.489.926,1.437,2.792.089,4.624.2,2.033.127,3.852,2.327,1.378,4.561-2.537,2.178-5.969,3.552-7.489,9.627Q13.675,32.908,13.021,32.484Z"/><g transform="translate(1.954 0.779)"><g class="e" transform="translate(5.409 0)"><path class="f" d="M6.369,32.292a.108.108,0,0,1-.1-.108C6.571,9.976.084.264.019.168A.108.108,0,0,1,.2.047c.066.1,6.591,9.865,6.293,32.14a.107.107,0,0,1-.109.106Z"/></g><g class="e" transform="translate(3.291 4.785)"><path class="f" d="M5.546,3.305a.1.1,0,0,1-.066-.032A11.909,11.909,0,0,0,.084.213.108.108,0,0,1,0,.085.1.1,0,0,1,.13,0,12.147,12.147,0,0,1,5.636,3.124a.107.107,0,0,1-.089.181Z"/></g><g class="e" transform="translate(10.367 10.526)"><path class="f" d="M.1,4.388a.108.108,0,0,1-.073-.041.107.107,0,0,1,.02-.15A42.558,42.558,0,0,1,7.031.01a.108.108,0,1,1,.091.2A42.374,42.374,0,0,0,.173,4.367.105.105,0,0,1,.1,4.388Z"/></g><g class="e" transform="translate(0 9.09)"><path class="f" d="M10.173,4.326a.1.1,0,0,1-.047-.017A34,34,0,0,0,.086.213.107.107,0,0,1,0,.086.1.1,0,0,1,.129,0,34.24,34.24,0,0,1,10.243,4.129a.108.108,0,0,1-.07.2Z"/></g><g class="e" transform="translate(2.789 21.408)"><path class="f" d="M8.852,3.833a.1.1,0,0,1-.051-.02C5.75,1.582.139.226.083.212A.107.107,0,0,1,0,.083.106.106,0,0,1,.132,0c.057.014,5.71,1.379,8.795,3.636a.107.107,0,0,1-.075.193Z"/></g><g class="e" transform="translate(11.618 20.25)"><path class="f" d="M.1,6.553a.1.1,0,0,1-.044-.016A.107.107,0,0,1,.016,6.39C2.409,2.51,7.128.036,7.176.012a.109.109,0,0,1,.145.046A.108.108,0,0,1,7.275.2C7.228.227,2.56,2.674.2,6.5A.108.108,0,0,1,.1,6.553Z"/></g></g></g><g transform="translate(478.188 219.087) rotate(16)"><path class="d" d="M12.086,39.351c.027.02-.564-2.215,2.168-5.185,2.755-3.119,10-4.51,10.358-6.989.362-2.649-4-1.015-6.374-2.334-2.4-1.356-3.263-2.04-.693-3.227,2.57-1.14,4.14-1.754,3.6-3.982-.547-2.255,4.141-2.224,5.965-4.4,1.893-2.2.113-4.108-4.188-2.948-4.2,1.245-4.523.581-3.452-.37,1.051-.94,4.508-2.954,2.653-3.732-1.9-.782-4.019.82-3.107-.927C19.906,3.5,22.63,1.734,20.8.494c-1.829-1.262-5.526-.219-6.65,4.458-1.081,4.653-1.5,5.978-3.439,6.923-1.886.951-4.3-.761-6.551.721-2.223,1.506-1.2,3.736.634,4.942,1.869,1.2,5.1,3.7,3.921,5.439-1.122,1.741-3.383.108-5.6.247-2.463.154-4.667,2.819-1.669,5.526,3.073,2.639,7.231,4.3,9.072,11.663Q11.294,39.866,12.086,39.351Z"/><g transform="translate(2.537 0.943)"><g class="e" transform="translate(8.532 0)"><path class="f" d="M.157,39.12a.131.131,0,0,0,.116-.131C-.087,12.085,7.771.32,7.85.2A.13.13,0,0,0,7.635.056C7.555.173-.349,12.007.012,38.992a.13.13,0,0,0,.132.128Z"/></g><g class="e" transform="translate(12.106 5.796)"><path class="f" d="M.145,4a.126.126,0,0,0,.08-.039A14.425,14.425,0,0,1,6.761.258.13.13,0,0,0,6.861.1.127.127,0,0,0,6.706,0,14.715,14.715,0,0,0,.036,3.785.13.13,0,0,0,.145,4Z"/></g><g class="e" transform="translate(1.695 12.752)"><path class="f" d="M8.588,5.316a.132.132,0,0,0,.089-.05.13.13,0,0,0-.024-.182A51.541,51.541,0,0,0,.185.012a.13.13,0,1,0-.11.236A51.307,51.307,0,0,1,8.494,5.29.127.127,0,0,0,8.588,5.316Z"/></g><g class="e" transform="translate(10.488 11.012)"><path class="f" d="M.145,5.241A.124.124,0,0,0,.2,5.221,41.188,41.188,0,0,1,12.365.258a.13.13,0,0,0,.1-.154.124.124,0,0,0-.154-.1A41.478,41.478,0,0,0,.06,5a.13.13,0,0,0,.085.239Z"/></g><g class="e" transform="translate(8.711 25.934)"><path class="f" d="M.144,4.643a.126.126,0,0,0,.062-.024C3.9,1.916,10.7.274,10.768.257A.13.13,0,1,0,10.708,0C10.639.02,3.79,1.675.053,4.409a.13.13,0,0,0,.091.234Z"/></g><g class="e" transform="translate(0 24.532)"><path class="f" d="M8.768,7.938a.126.126,0,0,0,.054-.019.13.13,0,0,0,.043-.179C5.965,3.04.248.044.19.014A.132.132,0,0,0,.014.07.131.131,0,0,0,.07.245C.127.275,5.782,3.239,8.642,7.877A.131.131,0,0,0,8.768,7.938Z"/></g></g></g><g transform="translate(415.272 203.587)"><g transform="translate(0 0)"><path class="g" d="M470.191,210.4h0V160.53a4.2,4.2,0,0,0-4.2-4.2H445.248a4.2,4.2,0,0,0-4.2,4.2V211.1a4.2,4.2,0,0,0,4.2,4.2h20.741a4.2,4.2,0,0,0,4.2-4.2Z" transform="translate(-441.046 -156.329)"/><path class="h" d="M479.238,164.354a.4.4,0,1,1-.4-.4A.4.4,0,0,1,479.238,164.354Z" transform="translate(-468.389 -161.905)"/><rect class="i" width="7.665" height="0.993" rx="0.496" transform="translate(11.847 1.953)"/><ellipse class="h" cx="1.599" cy="1.599" rx="1.599" ry="1.599" transform="translate(12.973 54.891)"/><rect class="j" width="27.631" height="49.17" transform="translate(0.643 4.898)"/></g><g transform="translate(8.154 9.973)"><g transform="translate(0 8.688)"><path class="k" d="M484.088,229.142l-4.237-2.974a2.335,2.335,0,0,0-2.614,0L473,229.142a3.563,3.563,0,0,0-1.61,2.9v15.974a2.4,2.4,0,0,0,2.4,2.4h9.508a2.4,2.4,0,0,0,2.4-2.4V232.042A3.556,3.556,0,0,0,484.088,229.142Zm-5.547-.012a.988.988,0,1,1,1.144-.976A1.07,1.07,0,0,1,478.54,229.131Z" transform="translate(-471.39 -225.768)"/><g transform="translate(3.302 7.144)"><path class="l" d="M488.136,253.7a3.829,3.829,0,0,1,1.247.387,3.779,3.779,0,0,1,.917.659,3.02,3.02,0,0,1,.573.774,1.826,1.826,0,0,1,.215.717.252.252,0,0,1-.086.222.328.328,0,0,1-.229.093h-.588a.476.476,0,0,1-.251-.057.633.633,0,0,1-.193-.258,2.713,2.713,0,0,0-.236-.366,2.142,2.142,0,0,0-.444-.43,2.777,2.777,0,0,0-.681-.358,2.654,2.654,0,0,0-.931-.151,3.1,3.1,0,0,0-.767.093,2.185,2.185,0,0,0-.652.279,1.474,1.474,0,0,0-.458.466,1.217,1.217,0,0,0-.172.652,1.147,1.147,0,0,0,.164.631,1.478,1.478,0,0,0,.531.466,4.636,4.636,0,0,0,.924.379q.559.172,1.361.387a8.728,8.728,0,0,1,1.383.473,3.606,3.606,0,0,1,.924.58,1.945,1.945,0,0,1,.523.745,2.624,2.624,0,0,1-.716,2.917,3.545,3.545,0,0,1-1.025.616,4.774,4.774,0,0,1-1.333.315v.931a.391.391,0,0,1-.387.387h-.588a.392.392,0,0,1-.387-.387v-.96a4.2,4.2,0,0,1-1.247-.373,4.315,4.315,0,0,1-.967-.63,2.842,2.842,0,0,1-.637-.781,1.858,1.858,0,0,1-.244-.824.318.318,0,0,1,.315-.315h.588a.524.524,0,0,1,.251.058.5.5,0,0,1,.193.258,2.131,2.131,0,0,0,.266.437,2.053,2.053,0,0,0,.48.444,2.9,2.9,0,0,0,.731.351,3.234,3.234,0,0,0,1.018.143,3.855,3.855,0,0,0,.953-.115,2.78,2.78,0,0,0,.795-.329,1.769,1.769,0,0,0,.545-.516,1.187,1.187,0,0,0,.2-.673.944.944,0,0,0-.229-.638,2.109,2.109,0,0,0-.659-.48,6.251,6.251,0,0,0-1.053-.394q-.624-.179-1.412-.38a5.639,5.639,0,0,1-1.218-.451,2.981,2.981,0,0,1-.817-.609,2.06,2.06,0,0,1-.451-.76,2.875,2.875,0,0,1-.136-.9,2.633,2.633,0,0,1,.172-.931,2.584,2.584,0,0,1,.509-.831,2.847,2.847,0,0,1,.853-.63,3.7,3.7,0,0,1,1.2-.344v-.946a.392.392,0,0,1,.387-.387h.588a.391.391,0,0,1,.387.387Z" transform="translate(-483.679 -252.351)"/></g></g><path class="m" d="M492.556,202.1c-.929-3.008-2.244-8.559.632-8.657,3.964-.134,0,10.52,0,10.52l-.208-.42" transform="translate(-486.047 -193.439)"/></g><g transform="translate(0.643 4.898)"><path class="n" d="M461.724,174.555l-18.285,28V186.957l8.1-12.4Z" transform="translate(-443.44 -174.555)"/><path class="n" d="M469.423,174.555,443.44,214.341v-7.226l21.265-32.56Z" transform="translate(-443.44 -174.555)"/><path class="n" d="M487.81,235.135v7.226l-16.761,25.664H466.33Z" transform="translate(-460.178 -218.855)"/></g></g><g transform="translate(456.863 203.587)"><g transform="translate(0 0)"><path class="g" d="M470.191,210.4h0V160.53a4.2,4.2,0,0,0-4.2-4.2H445.248a4.2,4.2,0,0,0-4.2,4.2V211.1a4.2,4.2,0,0,0,4.2,4.2h20.741a4.2,4.2,0,0,0,4.2-4.2Z" transform="translate(-441.046 -156.329)"/><path class="h" d="M479.238,164.354a.4.4,0,1,1-.4-.4A.4.4,0,0,1,479.238,164.354Z" transform="translate(-468.389 -161.905)"/><rect class="h" width="7.665" height="0.993" rx="0.496" transform="translate(11.847 1.953)"/><ellipse class="h" cx="1.599" cy="1.599" rx="1.599" ry="1.599" transform="translate(12.973 54.891)"/><rect class="j" width="27.631" height="49.17" transform="translate(0.643 4.898)"/></g><g transform="translate(8.154 9.973)"><g transform="translate(0 8.688)"><path class="k" d="M484.088,229.142l-4.237-2.974a2.335,2.335,0,0,0-2.614,0L473,229.142a3.563,3.563,0,0,0-1.61,2.9v15.974a2.4,2.4,0,0,0,2.4,2.4h9.508a2.4,2.4,0,0,0,2.4-2.4V232.042A3.556,3.556,0,0,0,484.088,229.142Zm-5.547-.012a.988.988,0,1,1,1.144-.976A1.07,1.07,0,0,1,478.54,229.131Z" transform="translate(-471.39 -225.768)"/><g transform="translate(3.302 7.144)"><path class="l" d="M488.136,253.7a3.829,3.829,0,0,1,1.247.387,3.779,3.779,0,0,1,.917.659,3.02,3.02,0,0,1,.573.774,1.826,1.826,0,0,1,.215.717.252.252,0,0,1-.086.222.328.328,0,0,1-.229.093h-.588a.476.476,0,0,1-.251-.057.633.633,0,0,1-.193-.258,2.713,2.713,0,0,0-.236-.366,2.142,2.142,0,0,0-.444-.43,2.777,2.777,0,0,0-.681-.358,2.654,2.654,0,0,0-.931-.151,3.1,3.1,0,0,0-.767.093,2.185,2.185,0,0,0-.652.279,1.474,1.474,0,0,0-.458.466,1.217,1.217,0,0,0-.172.652,1.147,1.147,0,0,0,.164.631,1.478,1.478,0,0,0,.531.466,4.636,4.636,0,0,0,.924.379q.559.172,1.361.387a8.728,8.728,0,0,1,1.383.473,3.606,3.606,0,0,1,.924.58,1.945,1.945,0,0,1,.523.745,2.624,2.624,0,0,1-.716,2.917,3.545,3.545,0,0,1-1.025.616,4.774,4.774,0,0,1-1.333.315v.931a.391.391,0,0,1-.387.387h-.588a.392.392,0,0,1-.387-.387v-.96a4.2,4.2,0,0,1-1.247-.373,4.315,4.315,0,0,1-.967-.63,2.842,2.842,0,0,1-.637-.781,1.858,1.858,0,0,1-.244-.824.318.318,0,0,1,.315-.315h.588a.524.524,0,0,1,.251.058.5.5,0,0,1,.193.258,2.131,2.131,0,0,0,.266.437,2.053,2.053,0,0,0,.48.444,2.9,2.9,0,0,0,.731.351,3.234,3.234,0,0,0,1.018.143,3.855,3.855,0,0,0,.953-.115,2.78,2.78,0,0,0,.795-.329,1.769,1.769,0,0,0,.545-.516,1.187,1.187,0,0,0,.2-.673.944.944,0,0,0-.229-.638,2.109,2.109,0,0,0-.659-.48,6.251,6.251,0,0,0-1.053-.394q-.624-.179-1.412-.38a5.639,5.639,0,0,1-1.218-.451,2.981,2.981,0,0,1-.817-.609,2.06,2.06,0,0,1-.451-.76,2.875,2.875,0,0,1-.136-.9,2.633,2.633,0,0,1,.172-.931,2.584,2.584,0,0,1,.509-.831,2.847,2.847,0,0,1,.853-.63,3.7,3.7,0,0,1,1.2-.344v-.946a.392.392,0,0,1,.387-.387h.588a.391.391,0,0,1,.387.387Z" transform="translate(-483.679 -252.351)"/></g></g><path class="m" d="M492.556,202.1c-.929-3.008-2.244-8.559.632-8.657,3.964-.134,0,10.52,0,10.52l-.208-.42" transform="translate(-486.047 -193.439)"/></g><g transform="translate(0.643 4.898)"><path class="n" d="M461.724,174.555l-18.285,28V186.957l8.1-12.4Z" transform="translate(-443.44 -174.555)"/><path class="n" d="M469.423,174.555,443.44,214.341v-7.226l21.265-32.56Z" transform="translate(-443.44 -174.555)"/><path class="n" d="M487.81,235.135v7.226l-16.761,25.664H466.33Z" transform="translate(-460.178 -218.855)"/></g></g><g transform="translate(438.51 208.485)"><g transform="translate(0 0)"><path class="o" d="M470.191,210.4h0V160.53a4.2,4.2,0,0,0-4.2-4.2H445.248a4.2,4.2,0,0,0-4.2,4.2V211.1a4.2,4.2,0,0,0,4.2,4.2h20.741a4.2,4.2,0,0,0,4.2-4.2Z" transform="translate(-441.046 -156.329)"/><path class="h" d="M479.238,164.354a.4.4,0,1,1-.4-.4A.4.4,0,0,1,479.238,164.354Z" transform="translate(-468.389 -161.905)"/><rect class="i" width="7.665" height="0.993" rx="0.496" transform="translate(11.847 1.953)"/><ellipse class="p" cx="1.599" cy="1.599" rx="1.599" ry="1.599" transform="translate(12.973 54.891)"/><rect class="j" width="27.631" height="49.17" transform="translate(0.643 4.898)"/></g><g transform="translate(8.155 9.973)"><g transform="translate(0 8.688)"><path class="k" d="M484.088,229.142l-4.237-2.974a2.335,2.335,0,0,0-2.614,0L473,229.142a3.563,3.563,0,0,0-1.61,2.9v15.974a2.4,2.4,0,0,0,2.4,2.4h9.508a2.4,2.4,0,0,0,2.4-2.4V232.042A3.556,3.556,0,0,0,484.088,229.142Zm-5.547-.012a.988.988,0,1,1,1.144-.976A1.07,1.07,0,0,1,478.54,229.131Z" transform="translate(-471.39 -225.768)"/><g transform="translate(3.302 7.144)"><path class="l" d="M488.136,253.7a3.829,3.829,0,0,1,1.247.387,3.779,3.779,0,0,1,.917.659,3.02,3.02,0,0,1,.573.774,1.826,1.826,0,0,1,.215.717.252.252,0,0,1-.086.222.328.328,0,0,1-.229.093h-.588a.476.476,0,0,1-.251-.057.633.633,0,0,1-.193-.258,2.713,2.713,0,0,0-.236-.366,2.142,2.142,0,0,0-.444-.43,2.777,2.777,0,0,0-.681-.358,2.654,2.654,0,0,0-.931-.151,3.1,3.1,0,0,0-.767.093,2.185,2.185,0,0,0-.652.279,1.474,1.474,0,0,0-.458.466,1.217,1.217,0,0,0-.172.652,1.147,1.147,0,0,0,.164.631,1.478,1.478,0,0,0,.531.466,4.636,4.636,0,0,0,.924.379q.559.172,1.361.387a8.728,8.728,0,0,1,1.383.473,3.606,3.606,0,0,1,.924.58,1.945,1.945,0,0,1,.523.745,2.624,2.624,0,0,1-.716,2.917,3.545,3.545,0,0,1-1.025.616,4.774,4.774,0,0,1-1.333.315v.931a.391.391,0,0,1-.387.387h-.588a.392.392,0,0,1-.387-.387v-.96a4.2,4.2,0,0,1-1.247-.373,4.315,4.315,0,0,1-.967-.63,2.842,2.842,0,0,1-.637-.781,1.858,1.858,0,0,1-.244-.824.318.318,0,0,1,.315-.315h.588a.524.524,0,0,1,.251.058.5.5,0,0,1,.193.258,2.131,2.131,0,0,0,.266.437,2.053,2.053,0,0,0,.48.444,2.9,2.9,0,0,0,.731.351,3.234,3.234,0,0,0,1.018.143,3.855,3.855,0,0,0,.953-.115,2.78,2.78,0,0,0,.795-.329,1.769,1.769,0,0,0,.545-.516,1.187,1.187,0,0,0,.2-.673.944.944,0,0,0-.229-.638,2.109,2.109,0,0,0-.659-.48,6.251,6.251,0,0,0-1.053-.394q-.624-.179-1.412-.38a5.639,5.639,0,0,1-1.218-.451,2.981,2.981,0,0,1-.817-.609,2.06,2.06,0,0,1-.451-.76,2.875,2.875,0,0,1-.136-.9,2.633,2.633,0,0,1,.172-.931,2.584,2.584,0,0,1,.509-.831,2.847,2.847,0,0,1,.853-.63,3.7,3.7,0,0,1,1.2-.344v-.946a.392.392,0,0,1,.387-.387h.588a.391.391,0,0,1,.387.387Z" transform="translate(-483.679 -252.351)"/></g></g><path class="m" d="M492.556,202.1c-.929-3.008-2.244-8.559.632-8.657,3.964-.134,0,10.52,0,10.52l-.208-.42" transform="translate(-486.047 -193.439)"/></g><g transform="translate(0.643 4.898)"><path class="n" d="M461.724,174.555l-18.285,28V186.957l8.1-12.4Z" transform="translate(-443.44 -174.555)"/><path class="n" d="M469.423,174.555,443.44,214.341v-7.226l21.265-32.56Z" transform="translate(-443.44 -174.555)"/><path class="n" d="M487.81,235.135v7.226l-16.761,25.664H466.33Z" transform="translate(-460.178 -218.855)"/></g></g></g></svg>