<svg xmlns="http://www.w3.org/2000/svg" xmlns:xlink="http://www.w3.org/1999/xlink" width="132.669" height="110.038" viewBox="0 0 132.669 110.038"><defs><style>.a{opacity:0.55;}.b{fill:url(#a);}.c{fill:#e5c2aa;}.d{fill:#fdd4b8;}.e{fill:#6d6a62;}.f{fill:#d1e9f5;}.g{fill:#587ea2;}.h{fill:#89a3af;}.i{fill:#92aeb7;}.j{fill:#e6f5ff;}.k{fill:#8098a0;}.l{fill:#6d8086;}.m{fill:#cbe8ef;}.n{fill:#d1eaf2;}.o{fill:#dbb79e;}.p{fill:#f9cfb3;}.q{fill:#3d3b36;}.r{fill:#bad1dd;}.s{fill:#3d5872;}.t{fill:#53666d;}.u{fill:#586b72;}.v{fill:#e4f4ff;}.w{fill:#495b60;}.x{fill:#455256;}.y{fill:#a7c0c6;}.z{fill:#b4cbd3;}.aa{fill:#cee5ef;}.ab{fill:#c7dde5;}</style><linearGradient id="a" x1="0.096" y1="1.17" x2="1.198" y2="-0.103" gradientUnits="objectBoundingBox"><stop offset="0" stop-color="#fff" stop-opacity="0"/><stop offset="0.559" stop-color="#e3cecf"/><stop offset="1" stop-color="#fabec1"/></linearGradient></defs><g transform="translate(-335.489 -210.734)"><g class="a" transform="translate(342.639 210.734)"><path class="b" d="M4.7,41.54C-.839,50.649-1.423,66.419,2.636,76.278c3.555,8.635,10.627,16.74,19.91,17.755,3.414.373,6.9-.237,10.281.379,11.619,2.116,15.941,16.435,24.971,24.047,6.284,5.3,15,7.172,23.159,6.151s15.791-4.708,22.512-9.438c5.307-3.735,10.273-8.328,12.892-14.266,5.489-12.447-.969-27.4-11-36.583-3.125-2.861-6.608-5.385-9.219-8.722s-4.272-7.79-3.028-11.84c.993-3.231,3.664-5.736,4.676-8.962,1.377-4.389-.7-9.313-4.116-12.4s-7.932-4.633-12.407-5.7C62.516,12.25,21.429,14.043,4.7,41.54Z" transform="translate(0 -14.84)"/></g><g transform="translate(335.489 230.423)"><g transform="translate(9.524 1.99)"><g transform="translate(11.941)"><path class="c" d="M353.581,246.07V250.7l5.447,5,1.735-1.964,2.816-3.184v-5.073Z" transform="translate(-349.514 -224.096)"/><path class="d" d="M368.519,241.983c-.018-.349-.2-.937-.661-.6-.2.152-.106.528-.3.653-.463.3-.508-.382-.538-.686-.117-1.153.4-2.261.263-3.394-.192-1.579-1.668-2.652-3.055-3.187a7.12,7.12,0,0,0-4.615-.031,7.128,7.128,0,0,0-4.618.031c-1.387.535-2.863,1.607-3.055,3.187-.138,1.133.381,2.241.264,3.394-.031.3-.076.991-.539.686-.192-.126-.09-.5-.3-.653-.456-.337-.642.251-.66.6a7.759,7.759,0,0,0,.668,3.73c.319.653.765.841,1.211,1.314.5.524.412,1.552.6,2.2a3.783,3.783,0,0,0,.572,1.205c.549.755,1.5,1.108,2.128,1.794a7.051,7.051,0,0,0,1.938,1.7,7.259,7.259,0,0,0,3.582,0,7.051,7.051,0,0,0,1.938-1.7c.627-.686,1.579-1.039,2.128-1.794a3.784,3.784,0,0,0,.572-1.205c.185-.652.1-1.681.6-2.2.446-.473.892-.66,1.211-1.314A7.759,7.759,0,0,0,368.519,241.983Z" transform="translate(-350.699 -228.663)"/><path class="e" d="M351.266,242.083a5.122,5.122,0,0,1,.192,1.8c0,.086-.008.22-.006.363h.828a4.391,4.391,0,0,0,0-.44,11.954,11.954,0,0,1,.017-1.331c.034-.639-.045-1.293.018-1.928a3.4,3.4,0,0,1,3.175-2.967c1.163-.092,2.329.147,3.494.15,1.44,0,2.09-.69,3.226-1.4.3-.19.123-.213.439-.133.207.052.471.334.649.443,1.08.66,3.017,1.315,3.329,2.71a13.606,13.606,0,0,1,.165,3.328,12.153,12.153,0,0,0-.106,1.565h.648c.209-.672.485-1.585.555-1.938a18.142,18.142,0,0,0,.274-2.641c.234-2.134.353-4.179-.962-5.968-1.409-1.917-3.5-3.037-4.611-2.895-.064.008-.817.076-.723.162a3.6,3.6,0,0,0-1.583-.5c-2.616-.625-5.925,1-7.826,2.739-2.005,1.835-1.709,4.194-1.482,6.461A13.747,13.747,0,0,0,351.266,242.083Z" transform="translate(-350.653 -230.326)"/></g><g transform="translate(0 25.034)"><path class="f" d="M353.581,256.962c-.034-.367,4.791-5.438,4.791-5.438h.617l4.59,5.12-4.793,12.82Z" transform="translate(-337.573 -246.642)"/><path class="g" d="M360.362,262.417l-1.631-7.406a1.014,1.014,0,0,1,.1-.694l.62-1.166a.185.185,0,0,0-.042-.2l-.715-.711a1.92,1.92,0,0,1-.452-.524c-.068-.152-.253-.491-.467-.347-.189.126-.251.323-.374.491a4.484,4.484,0,0,1-.457.454l-.639.636a.182.182,0,0,0-.042.2l.62,1.166a1.013,1.013,0,0,1,.095.694l-1.631,7.406a.173.173,0,0,0,.008.113l2.259,5.806a.342.342,0,0,0,.487,0l2.262-5.806A.192.192,0,0,0,360.362,262.417Z" transform="translate(-336.852 -246.722)"/><g transform="translate(0 2.577)"><path class="h" d="M362.95,267.529l-3.738-12.417-1.574-5.222-.168.052c-.392.116-1.442.432-2.775.833-3.573,1.084-9.147,2.775-9.3,2.876s-2.011,3.9-3.16,6.263V269.3a4.748,4.748,0,0,0,.934,2.066c4.8,4.821,17.47,4.609,19.868,4.907Z" transform="translate(-342.238 -249.891)"/><path class="i" d="M378.075,259.653c-1.153-2.372-2.887-5.9-3.033-6s-5.727-1.792-9.3-2.876c-1.325-.4-2.378-.714-2.772-.833l-.171-.052-2.195,7.068-3.472,11.189v.109l-.219-.727.09,8.749.128.017c1.073-.08,17.16-.017,20.143-4.924a8.508,8.508,0,0,0,.8-2.379Z" transform="translate(-336.202 -249.891)"/></g><path class="j" d="M364,248.065l-4.949,4.464a.2.2,0,0,1-.267,0l-4.948-4.464-1.106,3.24,2.138,7.079,3.888-5.469a.2.2,0,0,1,.323,0l3.888,5.469,2.14-7.079Z" transform="translate(-337.922 -248.065)"/><path class="k" d="M366.265,254.444l2.6,1.1-9.076,17.185-8.936-17.185,2.594-1.1-2.985-1.468a21.56,21.56,0,0,1,.854-2.216c1.332-.4,2.382-.717,2.775-.833l1.742,5.17,1.382,4.105,2.5,8.207L362.5,259.2l.761-2.259,2.365-7.016c.394.119,1.447.432,2.772.833a20.926,20.926,0,0,1,.854,2.216Z" transform="translate(-338.857 -247.299)"/></g></g><path class="l" d="M393.735,265.023H335.489v6.468h58.247v-6.468Z" transform="translate(-335.489 -214.066)"/><g transform="translate(14.764 37.344)"><path class="m" d="M377.048,255.377H346.389a.448.448,0,0,0-.378.186.352.352,0,0,0-.058.237l1.806,16.094a.445.445,0,0,0,.463.33h27a.446.446,0,0,0,.459-.33l1.806-16.094A.4.4,0,0,0,377.048,255.377Zm-12.161,10.432a.11.11,0,0,1-.114.082h-6.7a.109.109,0,0,1-.114-.082l-.449-3.993a.1.1,0,0,1,.109-.106h7.605a.1.1,0,0,1,.107.106l-.2,1.751Z" transform="translate(-345.95 -255.377)"/><path class="n" d="M361.857,259.865h-7.605a.1.1,0,0,0-.109.106l.449,3.993a.109.109,0,0,0,.114.082h6.7a.11.11,0,0,0,.114-.082l.251-2.241.2-1.751A.1.1,0,0,0,361.857,259.865Z" transform="translate(-342.581 -253.531)"/></g><path class="l" d="M371.105,242.246c.243-2.909,0-6.719-2.219-9.576a11.16,11.16,0,0,0-8.379-3.754,11.277,11.277,0,0,0-8.379,3.754c-2.216,2.856-2.461,6.667-2.217,9.576-1.264.656-1.6,2.3-1.356,4.1.288,2.116,1.267,2.677,3.181,2.523l-1.068-6.88-.008,0c-.2-2.766.058-6.3,2.07-8.89,1.473-1.9,4.708-3.349,7.778-3.456a10.308,10.308,0,0,1,7.779,3.456c2.011,2.591,2.272,6.124,2.068,8.89l-.007,0-1.067,6.88.044,0-3.314,3.861a.512.512,0,0,0-.686.007l-1.7,1.589a.471.471,0,0,0-.01.682l.347.346a.513.513,0,0,0,.707.011l1.7-1.589a.469.469,0,0,0,.13-.478l3.8-4.431c1.252-.127,1.932-.823,2.164-2.523C372.7,244.549,372.37,242.9,371.105,242.246Z" transform="translate(-330.146 -228.916)"/><g transform="translate(74.423)"><g transform="translate(9.524 1.99)"><g transform="translate(11.941)"><path class="c" d="M406.315,246.07V250.7l5.447,5,1.735-1.964,2.816-3.184v-5.073Z" transform="translate(-402.248 -224.096)"/><path class="d" d="M421.253,241.983c-.017-.349-.2-.937-.659-.6-.207.152-.1.528-.3.653-.463.3-.509-.382-.539-.686-.117-1.153.4-2.261.263-3.394-.191-1.579-1.667-2.652-3.055-3.187a7.124,7.124,0,0,0-4.616-.031,7.124,7.124,0,0,0-4.616.031c-1.387.535-2.864,1.607-3.055,3.187-.138,1.133.381,2.241.264,3.394-.031.3-.076.991-.539.686-.191-.126-.089-.5-.3-.653-.454-.337-.642.251-.661.6a7.759,7.759,0,0,0,.668,3.73c.32.653.765.841,1.211,1.314.5.524.412,1.552.6,2.2a3.788,3.788,0,0,0,.573,1.205c.548.755,1.5,1.108,2.127,1.794a7.052,7.052,0,0,0,1.938,1.7,7.259,7.259,0,0,0,3.582,0,7.059,7.059,0,0,0,1.939-1.7c.627-.686,1.579-1.039,2.127-1.794a3.789,3.789,0,0,0,.573-1.205c.183-.652.1-1.681.6-2.2.447-.473.892-.66,1.212-1.314A7.775,7.775,0,0,0,421.253,241.983Z" transform="translate(-403.433 -228.663)"/><path class="e" d="M404,242.083a5.159,5.159,0,0,1,.193,1.8c0,.086-.01.22-.007.363h.83a3.932,3.932,0,0,0,0-.44,11.639,11.639,0,0,1,.018-1.331c.033-.639-.047-1.293.017-1.928a3.4,3.4,0,0,1,3.175-2.967c1.164-.092,2.33.147,3.494.15,1.439,0,2.09-.69,3.226-1.4.3-.19.123-.213.44-.133.206.052.471.334.649.443,1.078.66,3.016,1.315,3.328,2.71a13.47,13.47,0,0,1,.165,3.328,11.955,11.955,0,0,0-.1,1.565h.648c.208-.672.486-1.585.553-1.938a18.226,18.226,0,0,0,.275-2.641c.234-2.134.353-4.179-.964-5.968-1.408-1.917-3.494-3.037-4.609-2.895-.064.008-.819.076-.723.162a3.608,3.608,0,0,0-1.583-.5c-2.618-.625-5.925,1-7.826,2.739-2.007,1.835-1.711,4.194-1.483,6.461A14.02,14.02,0,0,0,404,242.083Z" transform="translate(-403.387 -230.326)"/></g><g transform="translate(0 25.034)"><path class="f" d="M406.315,256.962c-.034-.367,4.791-5.438,4.791-5.438h.617l4.59,5.12-4.791,12.82Z" transform="translate(-390.307 -246.642)"/><path class="g" d="M413.1,262.417l-1.631-7.406a1.014,1.014,0,0,1,.095-.694l.62-1.166a.185.185,0,0,0-.042-.2l-.716-.711a1.918,1.918,0,0,1-.452-.524c-.068-.152-.253-.491-.467-.347-.189.126-.251.323-.374.491a4.343,4.343,0,0,1-.457.454l-.639.636a.182.182,0,0,0-.041.2l.618,1.166a1.014,1.014,0,0,1,.095.694l-1.631,7.406a.182.182,0,0,0,.007.113l2.262,5.806a.341.341,0,0,0,.485,0l2.262-5.806A.182.182,0,0,0,413.1,262.417Z" transform="translate(-389.586 -246.722)"/><g transform="translate(0 2.577)"><path class="h" d="M415.684,267.529l-3.739-12.417-1.572-5.222-.168.052c-.394.116-1.444.432-2.775.833-3.573,1.084-9.148,2.775-9.3,2.876s-2.012,3.9-3.161,6.263V269.3a4.746,4.746,0,0,0,.936,2.066c4.794,4.821,17.47,4.609,19.868,4.907Z" transform="translate(-394.972 -249.891)"/><path class="i" d="M430.81,259.653c-1.154-2.372-2.888-5.9-3.034-6s-5.727-1.792-9.3-2.876c-1.324-.4-2.377-.714-2.772-.833l-.171-.052-2.193,7.068-3.472,11.189v.109l-.22-.727.092,8.749.128.017c1.071-.08,17.16-.017,20.142-4.924a8.547,8.547,0,0,0,.8-2.379Z" transform="translate(-388.936 -249.891)"/></g><path class="j" d="M416.737,248.065l-4.949,4.464a.2.2,0,0,1-.265,0l-4.949-4.464-1.105,3.24,2.137,7.079,3.888-5.469a.2.2,0,0,1,.325,0l3.888,5.469,2.138-7.079Z" transform="translate(-390.655 -248.065)"/><path class="k" d="M419,254.444l2.6,1.1-9.075,17.185-8.936-17.185,2.594-1.1-2.986-1.468a21.645,21.645,0,0,1,.855-2.216c1.331-.4,2.381-.717,2.775-.833l1.74,5.17,1.382,4.105,2.5,8.207,2.79-8.207.761-2.259,2.364-7.016c.4.119,1.448.432,2.772.833a21,21,0,0,1,.855,2.216Z" transform="translate(-391.59 -247.299)"/></g></g><path class="l" d="M446.47,265.023H388.224v6.468H446.47v-6.468Z" transform="translate(-388.224 -214.066)"/><g transform="translate(14.764 37.344)"><path class="m" d="M429.783,255.377h-30.66a.447.447,0,0,0-.378.186.361.361,0,0,0-.058.237l1.808,16.094a.442.442,0,0,0,.461.33h27a.444.444,0,0,0,.457-.33l1.806-16.094A.4.4,0,0,0,429.783,255.377ZM417.62,265.809a.109.109,0,0,1-.114.082h-6.7a.112.112,0,0,1-.116-.082l-.447-3.993a.1.1,0,0,1,.109-.106h7.607a.1.1,0,0,1,.107.106l-.2,1.751Z" transform="translate(-398.685 -255.377)"/><path class="n" d="M414.593,259.865h-7.607a.1.1,0,0,0-.109.106l.447,3.993a.112.112,0,0,0,.116.082h6.7a.109.109,0,0,0,.114-.082l.251-2.241.2-1.751A.1.1,0,0,0,414.593,259.865Z" transform="translate(-395.315 -253.531)"/></g><path class="l" d="M423.839,242.246c.243-2.909,0-6.719-2.217-9.576a11.228,11.228,0,0,0-16.758,0c-2.217,2.856-2.461,6.667-2.219,9.576-1.264.656-1.6,2.3-1.355,4.1.288,2.116,1.266,2.677,3.18,2.523l-1.067-6.88-.008,0c-.2-2.766.058-6.3,2.069-8.89,1.473-1.9,4.708-3.349,7.778-3.456a10.305,10.305,0,0,1,7.779,3.456c2.012,2.591,2.272,6.124,2.069,8.89l-.008,0-1.067,6.88.044,0-3.312,3.861a.514.514,0,0,0-.687.007l-1.7,1.589a.474.474,0,0,0-.011.682l.349.346a.513.513,0,0,0,.707.011l1.7-1.589a.469.469,0,0,0,.128-.478l3.8-4.431c1.25-.127,1.931-.823,2.162-2.523C425.439,244.549,425.1,242.9,423.839,242.246Z" transform="translate(-382.88 -228.916)"/></g></g><g transform="translate(374.179 225.253)"><g transform="translate(0 2.505)"><g transform="translate(16.845)"><path class="o" d="M378.9,249.45v6.524l7.682,7.051,2.449-2.769,3.971-4.492v-7.157Z" transform="translate(-373.168 -218.153)"/><path class="p" d="M399.972,244.736c-.024-.494-.288-1.322-.93-.847-.291.215-.148.744-.419.922-.652.429-.716-.538-.759-.965-.164-1.627.569-3.191.373-4.79-.271-2.227-2.353-3.739-4.311-4.494-1.943-.749-3.6-4.54-5.594-3.844-2-.7-6.382-.175-8.325.574-1.959.756-3.142,5.536-3.412,7.763-.195,1.6.538,3.163.373,4.79-.044.428-.107,1.394-.759.965-.271-.178-.128-.707-.418-.922-.642-.476-.908.353-.931.847A10.946,10.946,0,0,0,375.8,250c.452.922,1.08,1.185,1.708,1.853.7.738.583,2.189.843,3.111a5.357,5.357,0,0,0,.806,1.7c.773,1.065,2.117,1.562,3,2.533a9.937,9.937,0,0,0,2.735,2.4,10.2,10.2,0,0,0,5.051,0,9.932,9.932,0,0,0,2.734-2.4c.885-.971,2.228-1.468,3-2.533a5.331,5.331,0,0,0,.809-1.7c.258-.922.143-2.372.84-3.111.631-.668,1.259-.931,1.709-1.853A10.93,10.93,0,0,0,399.972,244.736Z" transform="translate(-374.84 -225.645)"/><path class="q" d="M375.6,243.914a7.242,7.242,0,0,1,.271,2.532c0,.123-.013.31-.009.512h1.171a6.061,6.061,0,0,0-.007-.62,16.693,16.693,0,0,1,.024-1.88c.048-.9-.064-1.823.025-2.718.2-1.977,1.863-3.873,2.748-5.6.564-1.1,1.6-2.2,2.82-2.014a4.221,4.221,0,0,1,1.866,1.088,11.532,11.532,0,0,0,5.222,2.331c2.19.373,6.9-.342,7.535,2.508a19.153,19.153,0,0,1,.233,4.7,17.146,17.146,0,0,0-.15,2.207h.916c.294-.948.683-2.237.779-2.735a25.791,25.791,0,0,0,.389-3.723c.33-3.01.5-5.894-1.359-8.418a12.076,12.076,0,0,0-9.72-5.054c-3.267,0-7.951,1.15-9.8,4.062-3.5.819-3.641,6.7-3.369,9.412A19.513,19.513,0,0,0,375.6,243.914Z" transform="translate(-374.734 -227.028)"/></g><g transform="translate(0 35.615)"><path class="r" d="M378.9,264.812c-.048-.518,6.757-7.669,6.757-7.669h.874L393,264.366l-6.76,18.081Z" transform="translate(-356.324 -250.257)"/><path class="s" d="M388.47,272.505l-2.3-10.446a1.437,1.437,0,0,1,.136-.979l.874-1.643a.267.267,0,0,0-.061-.288l-1.009-1a2.683,2.683,0,0,1-.636-.737c-.095-.213-.356-.692-.659-.49-.265.178-.354.456-.526.693a6.039,6.039,0,0,1-.646.642c-.3.3-.6.6-.9.895a.264.264,0,0,0-.059.288l.874,1.643a1.436,1.436,0,0,1,.134.979l-2.3,10.446a.253.253,0,0,0,.011.158l3.187,8.191a.26.26,0,0,0,.346.143.257.257,0,0,0,.343-.143l3.188-8.191A.263.263,0,0,0,388.47,272.505Z" transform="translate(-355.307 -250.369)"/><g transform="translate(0 3.634)"><path class="t" d="M392.119,279.717l-5.275-17.511-2.216-7.367s-.083.024-.237.073c-.556.162-2.038.61-3.915,1.174-5.041,1.528-12.9,3.913-13.114,4.056s-2.838,5.5-4.458,8.836v13.241a6.719,6.719,0,0,0,1.32,2.919c6.763,6.8,24.642,6.5,28.023,6.919Z" transform="translate(-362.904 -254.839)"/><path class="u" d="M413.452,268.608c-1.627-3.345-4.073-8.327-4.278-8.465s-8.077-2.528-13.118-4.056c-1.87-.565-3.355-1.008-3.911-1.174-.158-.049-.241-.073-.241-.073l-3.1,9.971-4.9,15.78v.154l-.309-1.026.127,12.34.182.023c1.511-.113,24.205-.023,28.412-6.942a12.08,12.08,0,0,0,1.126-3.359Z" transform="translate(-354.39 -254.839)"/></g><path class="v" d="M393.6,252.264l-6.982,6.3a.279.279,0,0,1-.374,0l-6.982-6.3-1.559,4.57,3.016,9.985,5.483-7.714a.283.283,0,0,1,.459,0l5.481,7.714,3.017-9.985Z" transform="translate(-356.815 -252.264)"/><path class="w" d="M396.795,261.262l3.664,1.545-12.8,24.24-12.606-24.24,3.659-1.545-4.21-2.07a30.859,30.859,0,0,1,1.2-3.126c1.877-.565,3.359-1.012,3.915-1.174l2.453,7.294,1.952,5.789,3.521,11.573,3.935-11.573,1.073-3.185,3.336-9.9c.556.168,2.041.61,3.911,1.174a29.871,29.871,0,0,1,1.2,3.126Z" transform="translate(-358.134 -251.184)"/></g></g><path class="x" d="M403.62,244.056c.343-4.1,0-9.48-3.129-13.506-2.281-2.938-7.035-5.3-11.818-5.3-4.683,0-9.536,2.358-11.818,5.3-3.125,4.026-3.47,9.4-3.126,13.506-1.785.926-2.258,3.25-1.914,5.786.406,2.983,1.787,3.777,4.486,3.558l-1.506-9.7-.011,0c-.288-3.9.08-8.883,2.919-12.536,2.079-2.677,6.64-4.724,10.97-4.875,4.842.151,8.894,2.2,10.973,4.875,2.838,3.654,3.2,8.637,2.919,12.536l-.013,0-1.5,9.7.061,0-4.673,5.448a.728.728,0,0,0-.968.008l-2.394,2.241a.666.666,0,0,0-.016.964l.491.488a.726.726,0,0,0,1,.014l2.394-2.241a.662.662,0,0,0,.185-.675l5.359-6.251c1.766-.181,2.722-1.161,3.048-3.559C405.878,247.306,405.406,244.981,403.62,244.056Z" transform="translate(-359.282 -225.253)"/></g><path class="t" d="M353.386,276.184v9.122h82.157v-9.122Z" transform="translate(7.361 20.947)"/><g transform="translate(381.571 277.928)"><path class="y" d="M395.305,271.51a.143.143,0,0,1,.154.15l-.28,2.471A78.232,78.232,0,0,1,409.4,286.339a.622.622,0,0,0,.644-.463l2.547-22.7a.564.564,0,0,0-.612-.6H368.734a.627.627,0,0,0-.533.264,72.682,72.682,0,0,1,22.778,8.67Z" transform="translate(-368.118 -262.577)"/><path class="z" d="M395.2,274.054l-.354,3.16a.154.154,0,0,1-.161.116h-9.446a.156.156,0,0,1-.162-.116l-.632-5.631a.141.141,0,0,1,.154-.15H391a72.681,72.681,0,0,0-22.778-8.67.489.489,0,0,0-.079.333l2.547,22.7a.626.626,0,0,0,.651.464h38.082A78.23,78.23,0,0,0,395.2,274.054Z" transform="translate(-368.142 -262.5)"/><path class="aa" d="M379.85,268.907a.141.141,0,0,0-.154.15l.632,5.631a.156.156,0,0,0,.162.116h9.446a.154.154,0,0,0,.161-.116l.354-3.16q-2.125-1.423-4.2-2.621Z" transform="translate(-363.39 -259.974)"/><path class="ab" d="M388.667,268.907H384.34q2.07,1.2,4.2,2.621l.28-2.471A.143.143,0,0,0,388.667,268.907Z" transform="translate(-361.479 -259.974)"/></g></g></svg>