<svg xmlns="http://www.w3.org/2000/svg" xmlns:xlink="http://www.w3.org/1999/xlink" width="118.369" height="117.519" viewBox="0 0 118.369 117.519"><defs><style>.a{fill:none;}.b{fill:url(#a);}.c{fill:url(#b);}.d{fill:#dbd8e3;}.e{fill:#323657;}.f{fill:#eea987;}.g{fill:#e8734d;}.h{fill:#c4c1cc;}.i{fill:#efaa88;}.j{fill:#eea886;}.k{fill:#16202e;}.l{fill:#a77860;}.m{fill:#ffc955;}.n{clip-path:url(#c);}.o{fill:#96cbff;}.p{fill:#95caff;}.q{fill:#94c9ff;}.r{fill:#93c9ff;}.s{fill:#92c8ff;}.t{fill:#91c7ff;}.u{fill:#90c6ff;}.v{fill:#8fc6ff;}.w{fill:#8ec5ff;}.x{fill:#8dc4ff;}.y{fill:#8cc3ff;}.z{fill:#8bc2ff;}.aa{fill:#8ac2ff;}.ab{fill:#89c1ff;}.ac{fill:#88c0ff;}.ad{fill:#87bfff;}.ae{fill:#86bfff;}.af{fill:#85beff;}.ag{fill:#84bdff;}.ah{fill:#83bcff;}.ai{fill:#82bbff;}.aj{fill:#81bbff;}.ak{fill:#80baff;}.al{fill:#7fb9ff;}.am{fill:#7eb8ff;}.an{fill:#7db7ff;}.ao{fill:#7cb7ff;}.ap{fill:#7bb6ff;}.aq{fill:#7ab5ff;}.ar{fill:#79b4ff;}.as{fill:#78b4ff;}.at{fill:#77b3ff;}.au{fill:#76b2ff;}.av{fill:#74b1ff;}.aw{fill:#73b0ff;}.ax{fill:#72b0ff;}.ay{fill:#71afff;}.az{fill:#70aeff;}.ba{fill:#6fadff;}.bb{fill:#6eadff;}.bc{fill:#6dacff;}.bd{fill:#6cabff;}.be{fill:#6baaff;}.bf{fill:#6aa9ff;}.bg{fill:#69a9ff;}.bh{fill:#68a8ff;}.bi{fill:#67a7ff;}.bj{fill:#66a6ff;}.bk{fill:#65a6ff;}.bl{fill:#64a5ff;}.bm{fill:#63a4ff;}.bn{fill:#62a3ff;}.bo{fill:#61a2ff;}.bp{fill:#60a2ff;}.bq{fill:#5fa1ff;}.br{fill:#5ea0ff;}.bs{fill:#5d9fff;}.bt{fill:#5c9eff;}.bu{fill:#5b9eff;}.bv{fill:#5a9dff;}.bw{fill:#599cff;}.bx{fill:#589bff;}.by{fill:#579bff;}.bz{fill:#569aff;}.ca{fill:#59f;}.cb{fill:#cfa345;}.cc{fill:#e3f2ff;}.cd{fill:#ebebeb;}.ce{fill:#cf8c6c;}.cf{fill:#162d40;}.cg{fill:#1d3b54;}.ch{fill:#eddad3;}.ci{fill:#d1c0ba;}.cj{fill:#fae6de;}.ck{fill:#54281a;}.cl{fill:#db9c7c;}.cm{fill:#366e9c;}.cn{fill:#5c544d;}.co{fill:#3c4145;}.cp{fill:#fccca2;}.cq{fill:#e2d2ca;}.cr{fill:#f25f54;}.cs{fill:#c98462;}.ct{fill:#de9d7d;}</style><linearGradient id="a" x1="0.096" y1="1.17" x2="1.198" y2="-0.103" gradientUnits="objectBoundingBox"><stop offset="0" stop-color="#fff" stop-opacity="0"/><stop offset="0.559" stop-color="#e3cecf"/><stop offset="1" stop-color="#fabec1"/></linearGradient><linearGradient id="b" x1="-1.979" y1="6.266" x2="-0.989" y2="6.266" gradientUnits="objectBoundingBox"><stop offset="0" stop-color="#96cbff"/><stop offset="1" stop-color="#59f"/></linearGradient><clipPath id="c"><rect class="a" width="110.63" height="2.048"/></clipPath></defs><g transform="translate(0 7.481)"><path class="b" d="M4.7,41.54C-.839,50.649-1.423,66.419,2.636,76.278c3.555,8.635,10.627,16.74,19.91,17.755,3.414.373,6.9-.237,10.281.379,11.619,2.116,15.941,16.435,24.971,24.047,6.284,5.3,15,7.172,23.159,6.151s15.791-4.708,22.512-9.438c5.307-3.735,10.273-8.328,12.892-14.266,5.489-12.447-.969-27.4-11-36.583-3.125-2.861-6.608-5.385-9.219-8.722s-4.272-7.79-3.028-11.84c.993-3.231,3.664-5.736,4.676-8.962,1.377-4.389-.7-9.313-4.116-12.4s-7.932-4.633-12.407-5.7C62.516,12.25,21.429,14.043,4.7,41.54Z" transform="translate(0 -14.84)"/></g><path class="c" d="M172.607,178.728a23.329,23.329,0,0,0,1.457-5.522l3.335-1.171-.352-4.4-.352-4.4-3.463-.429a22.1,22.1,0,0,0-2.306-5.111l1.649-3.582-2.912-2.822-2.912-2.823-2.706,2.557a15.892,15.892,0,0,0-4.724-1.7l-1-3.9-3.767.411-3.767.411-.367,4.048a17,17,0,0,0-4.373,2.7l-3.064-1.927-2.415,3.4-2.415,3.4,2.187,3.163a23.315,23.315,0,0,0-1.457,5.522l-3.335,1.171.351,4.4.352,4.4,3.463.429a22.1,22.1,0,0,0,2.306,5.111l-1.649,3.582,2.912,2.823,2.912,2.822,2.706-2.557a15.9,15.9,0,0,0,4.724,1.7l1,3.9,3.767-.411,3.767-.411.367-4.048a17.006,17.006,0,0,0,4.373-2.7l3.064,1.928,2.415-3.4,2.415-3.4Zm-22.054-.5a12.139,12.139,0,0,1-1.219-15.267c3.27-4.609,9.118-5.247,13.061-1.425a12.139,12.139,0,0,1,1.219,15.267C160.344,181.407,154.5,182.045,150.554,178.223Z" transform="translate(-116.832 -128.086)"/><g transform="translate(30.348 0)"><g transform="translate(1.933 33.71)"><path class="d" d="M218.933,205.6q.417-6.577.582-12.311c-.906-.561-1.993-1.216-2.864-1.7-2.7-1.5-6.45-3.52-8.86-4.812-1.41-.758-2.792-1.311-2.792-1.311s-9.63-1.079-10.412-1.021a21.855,21.855,0,0,0-3.029,1.211c-3.415,1.515-10,4.6-11.047,5.479-1.537,1.286-7.038,32.805-7.185,34.945-.143,2.079,7.481,4.924,14.542,7.1-.005,3.2-.06,7.672-.122,11.758-.009.7-.02,1.383-.032,2.048h30.894c-.041-.7-.078-1.395-.108-2.048,0-.087-.007-.173-.011-.259-.118-2.767-.578-7.725-.461-12.552a51.887,51.887,0,0,1,.357-7.28C218.433,215.176,218.933,205.6,218.933,205.6ZM179.76,224.129c.051-4.1,4.725-11.736,4.725-11.736a1.719,1.719,0,0,1,.219-.1s.241-.039.241-.035.726-.8.731-.8c.172.73,1.72,11.038,2.1,17.039C183.386,227.488,179.734,226.086,179.76,224.129Z" transform="translate(-173.325 -184.441)"/></g><g transform="translate(35.16 35.42)"><path class="e" d="M278.821,247.3c-.2-1.71-.4-3.418-.569-5.091,0-.009,0-.015,0-.024-.056-.557-.113-1.107-.167-1.654,0-.026,0-.056-.008-.087-.226-2.3-.413-4.514-.548-6.537a24.111,24.111,0,0,1,.173-4.547c.537-10.347.8-21.257.8-21.257.283-4.465.445-8.639.553-12.529,0,0-12.092-6.68-13.188-7.063,0,0,2.294,6.3,4.014,20.368.661,5.4,1.885,14.5,2.775,23.788v0c.481,5.011,1.383,10.115,2.07,14.632q.157,1.048.3,2.048h4.048Q278.942,248.331,278.821,247.3Z" transform="translate(-265.868 -188.516)"/></g><g transform="translate(0 34.295)"><path class="e" d="M195.923,229.128a104.4,104.4,0,0,0,.7-13.313c-1.668-23-6.387-29.088-7.071-29.98-.529.236-2.543,1.12-3.132,1.393-3.227,1.487-9.806,4.213-10.693,4.957-1.537,1.287-7.6,34.33-7.782,36.466-.122,1.445,7.788,4.463,15.858,7.157a57.15,57.15,0,0,1-.6,10.044,10.129,10.129,0,0,0-.349,2l11.25-.052c.068-.68.14-1.361.211-2.048.214-2.055.438-4.16.66-6.4,3.374,1.021,5.668,1.678,5.668,1.678s3.169-6.263,4.088-8.8C204.888,231.8,200.809,230.653,195.923,229.128Zm-14.548-7.917c-.106-4.708-.088-7.994-.088-7.994.4,1.613.95,6.223,1.436,10.805C181.089,223.061,181.4,222.162,181.375,221.211Z" transform="translate(-167.942 -185.835)"/></g><g transform="translate(22.69 23.292)"><path class="f" d="M231.137,170.4s1.225-2.705.886-10.386c-.093-2.128,9.562,5.046,9.562,5.046s-.034.734-.054,1.723c-.011.412-.017.863-.017,1.328,0,.128,0,.256,0,.384,0,.21,0,.418.006.626.005.258.013.51.024.754.011.277.027.538.05.778a8.014,8.014,0,0,0,.357,1.508C242.4,173.352,234.752,173.421,231.137,170.4Z" transform="translate(-231.137 -159.618)"/></g><g transform="translate(29.67 38.958)"><path class="g" d="M251.693,196.945l1.779,2.794a1.974,1.974,0,0,1-2.894.427Z" transform="translate(-250.578 -196.945)"/></g><g transform="translate(30.617 41.791)"><path class="g" d="M254.687,203.771a119.833,119.833,0,0,1,5.129,42.255l-2.056,4.362-2.319-3.715s-.374-31.4-2.225-42.977Z" transform="translate(-253.216 -203.696)"/></g><g transform="translate(26.747 35.556)"><path class="f" d="M248.38,189.636l-1.905,2.606s-3.058-.692-3.956-2.56S248.38,189.636,248.38,189.636Z" transform="translate(-242.437 -188.84)"/></g><g transform="translate(30.785 34.072)"><path class="h" d="M256.025,185.3a11.5,11.5,0,0,1-2.342,4.886L256,193.825l1.253-7.543Z" transform="translate(-253.683 -185.303)"/></g><g transform="translate(22.29 31.683)"><path class="h" d="M231.005,179.611s4.421,5.846,7.513,7.275l-1.438,4.157-7.057-9.1Z" transform="translate(-230.024 -179.611)"/></g><g transform="translate(41.529 41.585)"><path class="e" d="M310.8,246.192s-5.869-6.653-9.718-7.76c-1.779-.512-4.123-3.384-6.35-6.759-.734-1.111-1.454-2.278-2.139-3.433a.008.008,0,0,1,0,0c-2.733-4.612-4.874-9.032-4.874-9.032s-8.077-11.064-1.6-16a9.421,9.421,0,0,1,4.3.9c1.567.994,4.908,9.146,5.475,10.59s6.7,14.85,7.115,15.152a17.46,17.46,0,0,0,3.552,2.949c3.007,1.892,7.73,7.431,7.73,7.431Z" transform="translate(-283.605 -203.206)"/></g><g transform="translate(32.7 80.692)"><path class="i" d="M266.87,307.964a3.247,3.247,0,0,1-1.171-.26s-.613-.46-1.066-.755a3.269,3.269,0,0,0-.358-.212,6.421,6.421,0,0,1-1.971-1.1c-.772-.687-3.288-3.439-3.288-3.439l1.626-2.922.751-2.893s5.866.682,6.648,1.226a2.314,2.314,0,0,1,.215.168,9.866,9.866,0,0,1,1.2,1.565c.109.12,1.131,1.4,1.074,1.917a1.742,1.742,0,0,1-.765,1.4,4.44,4.44,0,0,1-.827,2.027,2.6,2.6,0,0,1-1.116,1.822S267.536,307.809,266.87,307.964Z" transform="translate(-259.016 -296.385)"/></g><g transform="translate(21.937 3.643)"><path class="j" d="M238.317,113.027s10.6-2.987,8.369,12.7-4.776,16.964-11.235,13.836-6.01-13.164-6.394-18.075S234.925,113.256,238.317,113.027Z" transform="translate(-229.04 -112.8)"/></g><g transform="translate(22.97 13.555)"><path class="j" d="M234.59,137.6a1.336,1.336,0,0,0-2.66.229c-.162,2.073,1.132,5.685,2.014,5.312S234.808,139.5,234.59,137.6Z" transform="translate(-231.916 -136.417)"/></g><g transform="translate(21.091)"><path class="k" d="M228.165,124.475s.213-4.935,1.751-5.116,1.8,1.8,1.8,1.8l1.56.316s-.546-4.313.983-5.094,10,2.208,11.216.918.528-10.045-1.721-11.207-8.449-3.744-12.924-.091c0,0-3.528-.409-4.009,2.923S227.176,122.02,228.165,124.475Z" transform="translate(-226.682 -104.12)"/></g><g transform="translate(18.397 76.498)"><path class="e" d="M237.861,290.587l-4.378,8.8s-11.6-3.493-14.3-4.385l6.185-8.606S234.486,288.829,237.861,290.587Z" transform="translate(-219.181 -286.393)"/></g><g transform="translate(25.206 27.752)"><path class="l" d="M246.037,176.041h0a10.378,10.378,0,0,1-7.891-5.795A10.861,10.861,0,0,0,246,174.277c0,.128,0,.256,0,.384,0,.21,0,.418.006.626C246.018,175.545,246.026,175.8,246.037,176.041Z" transform="translate(-238.144 -170.246)"/></g></g><g transform="translate(75.654 66.159)"><path class="j" d="M294.127,269.065c6.591,7.93,15.3,17.918,15.3,17.918l3.4-7.554s-7.735-10.6-12.978-17.671A12.218,12.218,0,0,0,294.127,269.065Z" transform="translate(-294.127 -261.758)"/></g><g transform="translate(70.774 84.129)"><path class="j" d="M281.343,304.576a18.7,18.7,0,0,1,2.238,1.448c.463.447,2.341,2.09,2.8,2.476s-.687,1.486-4.043-.214S281.343,304.576,281.343,304.576Z" transform="translate(-280.533 -304.576)"/></g><g transform="translate(68.646 61.43)"><path class="m" d="M277.7,250.491,274.607,284.1h40.707l3.093-33.611Z" transform="translate(-274.607 -250.491)"/></g><g transform="translate(70.65 59.508)"><path class="m" d="M321.216,279.892H280.19l3.127-33.982h41.027Zm-40.672-.372h40.387l3.059-33.239H283.6Z" transform="translate(-280.19 -245.91)"/></g><g transform="translate(65.407 92.017)"><rect class="m" width="6.799" height="3.024" transform="translate(6.799 3.024) rotate(180)"/></g><g transform="translate(0 94.971)"><g class="n"><path class="o" d="M83.418,330.409v0Z" transform="translate(-83.418 -330.409)"/><rect class="o" width="1.702" height="2.048"/><rect class="p" width="1.702" height="2.048" transform="translate(1.702)"/><rect class="q" width="1.702" height="2.048" transform="translate(3.404)"/><rect class="r" width="1.702" height="2.048" transform="translate(5.106)"/><rect class="s" width="1.702" height="2.048" transform="translate(6.808)"/><rect class="t" width="1.702" height="2.048" transform="translate(8.51)"/><rect class="u" width="1.702" height="2.048" transform="translate(10.212)"/><rect class="v" width="1.702" height="2.048" transform="translate(11.914)"/><rect class="w" width="1.702" height="2.048" transform="translate(13.616)"/><rect class="x" width="1.702" height="2.048" transform="translate(15.318)"/><rect class="y" width="1.702" height="2.048" transform="translate(17.02)"/><rect class="z" width="1.702" height="2.048" transform="translate(18.722)"/><rect class="aa" width="1.702" height="2.048" transform="translate(20.424)"/><rect class="ab" width="1.702" height="2.048" transform="translate(22.126)"/><rect class="ac" width="1.702" height="2.048" transform="translate(23.828)"/><rect class="ad" width="1.702" height="2.048" transform="translate(25.53)"/><rect class="ae" width="1.702" height="2.048" transform="translate(27.232)"/><rect class="af" width="1.702" height="2.048" transform="translate(28.934)"/><rect class="ag" width="1.702" height="2.048" transform="translate(30.636)"/><rect class="ah" width="1.702" height="2.048" transform="translate(32.338)"/><rect class="ai" width="1.702" height="2.048" transform="translate(34.04)"/><rect class="aj" width="1.702" height="2.048" transform="translate(35.742)"/><rect class="ak" width="1.702" height="2.048" transform="translate(37.444)"/><rect class="al" width="1.702" height="2.048" transform="translate(39.146)"/><rect class="am" width="1.702" height="2.048" transform="translate(40.848)"/><rect class="an" width="1.702" height="2.048" transform="translate(42.55)"/><rect class="ao" width="1.702" height="2.048" transform="translate(44.252)"/><rect class="ap" width="1.702" height="2.048" transform="translate(45.954)"/><rect class="aq" width="1.702" height="2.048" transform="translate(47.656)"/><rect class="ar" width="1.702" height="2.048" transform="translate(49.358)"/><rect class="as" width="1.702" height="2.048" transform="translate(51.06)"/><rect class="at" width="1.702" height="2.048" transform="translate(52.762)"/><rect class="au" width="1.702" height="2.048" transform="translate(54.464)"/><rect class="av" width="1.702" height="2.048" transform="translate(56.166)"/><rect class="aw" width="1.702" height="2.048" transform="translate(57.868)"/><rect class="ax" width="1.702" height="2.048" transform="translate(59.57)"/><rect class="ay" width="1.702" height="2.048" transform="translate(61.272)"/><rect class="az" width="1.702" height="2.048" transform="translate(62.974)"/><rect class="ba" width="1.702" height="2.048" transform="translate(64.676)"/><rect class="bb" width="1.702" height="2.048" transform="translate(66.378)"/><rect class="bc" width="1.702" height="2.048" transform="translate(68.08)"/><rect class="bd" width="1.702" height="2.048" transform="translate(69.782)"/><rect class="be" width="1.702" height="2.048" transform="translate(71.484)"/><rect class="bf" width="1.702" height="2.048" transform="translate(73.186)"/><rect class="bg" width="1.702" height="2.048" transform="translate(74.888)"/><rect class="bh" width="1.702" height="2.048" transform="translate(76.59)"/><rect class="bi" width="1.702" height="2.048" transform="translate(78.292)"/><rect class="bj" width="1.702" height="2.048" transform="translate(79.994)"/><rect class="bk" width="1.702" height="2.048" transform="translate(81.696)"/><rect class="bl" width="1.702" height="2.048" transform="translate(83.398)"/><rect class="bm" width="1.702" height="2.048" transform="translate(85.1)"/><rect class="bn" width="1.702" height="2.048" transform="translate(86.802)"/><rect class="bo" width="1.702" height="2.048" transform="translate(88.504)"/><rect class="bp" width="1.702" height="2.048" transform="translate(90.206)"/><rect class="bq" width="1.702" height="2.048" transform="translate(91.908)"/><rect class="br" width="1.702" height="2.048" transform="translate(93.61)"/><rect class="bs" width="1.702" height="2.048" transform="translate(95.312)"/><rect class="bt" width="1.702" height="2.048" transform="translate(97.014)"/><rect class="bu" width="1.702" height="2.048" transform="translate(98.716)"/><rect class="bv" width="1.702" height="2.048" transform="translate(100.418)"/><rect class="bw" width="1.702" height="2.048" transform="translate(102.12)"/><rect class="bx" width="1.702" height="2.048" transform="translate(103.822)"/><rect class="by" width="1.702" height="2.048" transform="translate(105.524)"/><rect class="bz" width="1.702" height="2.048" transform="translate(107.226)"/><rect class="ca" width="1.702" height="2.048" transform="translate(108.928)"/><path class="ca" d="M391.539,332.457v0Z" transform="translate(-280.909 -330.409)"/></g></g><g transform="translate(88.208 74.804)"><path class="cb" d="M329.169,285.248c-.327,1.871.42,3.63,1.668,3.928s2.526-.977,2.853-2.848-.42-3.63-1.668-3.928S329.5,283.376,329.169,285.248Z" transform="translate(-329.092 -282.356)"/></g><g transform="translate(10.883 47.981)"><path class="m" d="M6.4,0h8.971a6.4,6.4,0,0,1,6.4,6.4V30.678a6.4,6.4,0,0,1-6.4,6.4H6.4a6.4,6.4,0,0,1-6.4-6.4V6.4A6.4,6.4,0,0,1,6.4,0Z"/></g><g transform="translate(13.196 51.225)"><g transform="translate(16.013 20.7)"><rect class="cc" width="1.128" height="10.032"/></g><g transform="translate(13.785 21.824)"><rect class="cc" width="1.128" height="8.908"/></g><g transform="translate(11.364 23.287)"><rect class="cc" width="1.128" height="7.445"/></g><g transform="translate(8.878 25.131)"><rect class="cc" width="1.128" height="5.601"/></g><g transform="translate(1.905)"><path class="cc" d="M125.719,250.117l-.244-.1,2.127-6.974,4.612-1.425,1.657-7.654,3.559-1.836.8-5.951.256.047-.819,6.115-3.573,1.843-1.664,7.683L127.8,243.3Z" transform="translate(-125.475 -226.175)"/></g><g transform="translate(8.058 14.756)"><path class="m" d="M143.84,261.632a.906.906,0,0,1-.1,1.139.627.627,0,0,1-.974-.115.905.905,0,0,1,.1-1.138A.627.627,0,0,1,143.84,261.632Z" transform="translate(-142.612 -261.335)"/></g><g transform="translate(7.929 14.605)"><path class="cc" d="M143.593,262.678a.744.744,0,0,1-1.156-.136,1.076,1.076,0,0,1,.116-1.352.744.744,0,0,1,1.156.136A1.076,1.076,0,0,1,143.593,262.678Zm-.876-1.252a.736.736,0,0,0-.08.925.509.509,0,0,0,.791.093.736.736,0,0,0,.08-.925A.509.509,0,0,0,142.718,261.425Z" transform="translate(-142.252 -260.974)"/></g><g transform="translate(9.737 7.134)"><path class="m" d="M148.517,243.469a.9.9,0,0,1-.1,1.138.626.626,0,0,1-.973-.114.905.905,0,0,1,.1-1.138A.626.626,0,0,1,148.517,243.469Z" transform="translate(-147.29 -243.173)"/></g><g transform="translate(9.608 6.982)"><path class="cc" d="M148.27,244.516a.744.744,0,0,1-1.156-.136,1.076,1.076,0,0,1,.116-1.352.744.744,0,0,1,1.156.136A1.076,1.076,0,0,1,148.27,244.516Zm-.876-1.252a.736.736,0,0,0-.08.925.509.509,0,0,0,.791.093.736.736,0,0,0,.079-.925A.509.509,0,0,0,147.394,243.264Z" transform="translate(-146.928 -242.812)"/></g><g transform="translate(13.241 5.245)"><path class="m" d="M158.276,238.97a.905.905,0,0,1-.1,1.138.626.626,0,0,1-.974-.114.906.906,0,0,1,.1-1.139A.626.626,0,0,1,158.276,238.97Z" transform="translate(-157.048 -238.673)"/></g><g transform="translate(13.112 5.094)"><path class="cc" d="M158.029,240.017a.745.745,0,0,1-1.156-.136,1.076,1.076,0,0,1,.116-1.351.744.744,0,0,1,1.156.136A1.076,1.076,0,0,1,158.029,240.017Zm-.876-1.253a.737.737,0,0,0-.079.925.509.509,0,0,0,.791.093.736.736,0,0,0,.079-.925A.51.51,0,0,0,157.153,238.764Z" transform="translate(-156.688 -238.313)"/></g><g transform="translate(3.464 16.253)"><path class="m" d="M131.046,265.2a.905.905,0,0,1-.1,1.138.627.627,0,0,1-.974-.114.905.905,0,0,1,.1-1.138A.627.627,0,0,1,131.046,265.2Z" transform="translate(-129.818 -264.902)"/></g><g transform="translate(3.335 16.102)"><path class="cc" d="M130.8,266.245a.744.744,0,0,1-1.156-.136,1.076,1.076,0,0,1,.116-1.351.745.745,0,0,1,1.157.136A1.077,1.077,0,0,1,130.8,266.245Zm-.876-1.252a.736.736,0,0,0-.08.925.509.509,0,0,0,.791.093.736.736,0,0,0,.08-.925A.509.509,0,0,0,129.924,264.993Z" transform="translate(-129.458 -264.541)"/></g><g transform="translate(0 7.28)"><path class="cd" d="M.839,0H6.09a.838.838,0,0,1,.838.838v0a.839.839,0,0,1-.839.839H.839A.839.839,0,0,1,0,.839v0A.839.839,0,0,1,.839,0Z"/></g><g transform="translate(0 4.347)"><path class="cd" d="M.839,0H6.09a.838.838,0,0,1,.838.838v0a.839.839,0,0,1-.839.839H.839A.839.839,0,0,1,0,.839v0A.839.839,0,0,1,.839,0Z"/></g></g><g transform="translate(0.51 58.674)"><g transform="translate(6.658 2.859)"><path class="k" d="M104.435,250.736s-.2,2.316.165,2.9c0,0-.969-.247-1.193-.637S104.435,250.736,104.435,250.736Z" transform="translate(-103.38 -250.736)"/></g><g transform="translate(13.637 9.91)"><path class="j" d="M122.946,267.881s.352-.276.406-.316a.879.879,0,0,1,.442,0,1.085,1.085,0,0,1,.491.214.237.237,0,0,1,.035.173.443.443,0,0,1-.074.189.283.283,0,0,1-.045.234.24.24,0,0,1-.079.224s.026.131-.057.188a1.173,1.173,0,0,0-.248.014,2.569,2.569,0,0,1-.8-.129S122.623,268.565,122.946,267.881Z" transform="translate(-122.82 -267.536)"/></g><g transform="translate(14.194 10.446)"><path class="ce" d="M124.539,268.813a1.238,1.238,0,0,1-.162.259c-.056.043.271.454.271.454S124.76,268.971,124.539,268.813Z" transform="translate(-124.371 -268.813)"/></g><g transform="translate(13.28 10.187)"><path class="j" d="M122.1,268.3a1.261,1.261,0,0,0,.358-.1c.136-.074-.026.8-.026.8a1.32,1.32,0,0,0-.547-.275C121.67,268.724,122.1,268.3,122.1,268.3Z" transform="translate(-121.825 -268.198)"/></g><g transform="translate(3.485 33.674)"><path class="cf" d="M95.45,324.184a14.6,14.6,0,0,0,.933,1.432s.483.293.5.526c.028.442.048.7-.586.723s-1.031,0-1.148-.451a3.671,3.671,0,0,0-.317-.8l-.048,1.169h-.143s-.064-1.172-.073-1.339-.1-.81.2-1.095A.738.738,0,0,1,95.45,324.184Z" transform="translate(-94.545 -324.159)"/></g><g transform="translate(3.64 33.367)"><path class="cf" d="M96.751,325.253a1.377,1.377,0,0,1-.751-.007c-.408-.12-.8-1.262-.919-1.357l-.106-.461h.8a1.9,1.9,0,0,0,.135.632A10.885,10.885,0,0,0,96.751,325.253Z" transform="translate(-94.975 -323.428)"/></g><g transform="translate(7.813 33.021)"><path class="cf" d="M107.663,322.839a3.146,3.146,0,0,0,.3.585c.144.219.59,1.119.787,1.181s.8.188.858.585.08.679-.518.711-.992.073-1.278-.418a3.377,3.377,0,0,0-.742-.847v1.281h-.232a13.382,13.382,0,0,0-.17-1.427,1.822,1.822,0,0,1,.331-1.651C107.552,322.306,107.663,322.839,107.663,322.839Z" transform="translate(-106.597 -322.603)"/></g><g transform="translate(8.088 33.117)"><path class="cf" d="M109.241,324.738s-.536.157-.742,0-.9-1.537-1.136-1.62c0,0,.224-.532.792-.146C108.155,322.972,109.089,324.508,109.241,324.738Z" transform="translate(-107.363 -322.832)"/></g><g transform="translate(2.821 13.7)"><path class="cg" d="M93.96,276.937A7.078,7.078,0,0,0,93,279.45c-.205,1.363.121,5.939.112,6.613a31.269,31.269,0,0,0-.4,4.04c.107,1.27.669,6.568.669,6.568l1.31-.028s-.262-5.717-.2-6.25.28-2.8.307-3.02,1.493-6.021,1.493-7S95.783,275.334,93.96,276.937Z" transform="translate(-92.694 -276.566)"/></g><g transform="translate(5.285 14.232)"><path class="cg" d="M102.158,278.123s1.242,5.542,1.39,6.31.442,1.771.429,1.912-.156,2.507-.156,2.507l-.353,8.055h-1.309s-.42-5.125-.488-6.159.483-2.633.349-3.072-2.159-5.5-2.159-5.5S98.328,276.514,102.158,278.123Z" transform="translate(-99.558 -277.835)"/></g><g transform="translate(7.063 6.224)"><path class="ch" d="M104.947,258.755a1.422,1.422,0,0,1,.873.525,6.962,6.962,0,0,1,.826,1.471c.1.251,1.476,2.574,1.548,2.626s.674-.133,1.156-.18a9.353,9.353,0,0,0,1.966-.546l.175,1.04s-2.9,1.093-3.566.9c-.818-.236-2.7-3.058-2.7-3.058S103.822,259.612,104.947,258.755Z" transform="translate(-104.51 -258.755)"/></g><g transform="translate(3.185 5.778)"><path class="ch" d="M97.157,257.73a6.2,6.2,0,0,0,.867.407,5.542,5.542,0,0,1,1.243,1.85,3.531,3.531,0,0,1-.313,2.047c-.313.846-.018,1.128-.161,1.975a27.632,27.632,0,0,0-.116,3.623c.027.47-4.138,1.357-4.969.5a10.771,10.771,0,0,1,1.229-2.983,3.726,3.726,0,0,0,.031-1.642c-.1-.293-1.207-2.476-1.207-2.476s-.081-2.215.4-2.654a5.428,5.428,0,0,1,1.77-.6A3.012,3.012,0,0,1,97.157,257.73Z" transform="translate(-93.708 -257.691)"/></g><g transform="translate(6.821 5.55)"><path class="ci" d="M103.854,259.091l.391-.535-.34-1.409A10.879,10.879,0,0,0,103.854,259.091Z" transform="translate(-103.835 -257.147)"/></g><g transform="translate(1.704 6.193)"><path class="j" d="M92.268,258.711s-.811-.271-1.276.773a6.394,6.394,0,0,0-.456,2.079c-.107.47-.536,3.615-.563,3.751a12.041,12.041,0,0,0-.385,2.225c.054.491.438,4.21.42,4.336s.742-.12.742-.12-.031-3.8,0-4.111A11.837,11.837,0,0,1,91,265.262c.2-.423.7-3.009.8-3.275S92.952,259.051,92.268,258.711Z" transform="translate(-89.585 -258.679)"/></g><g transform="translate(5.41 3.919)"><path class="j" d="M101.437,254.292s-.129,1.38-.1,1.829c0,0-.669.783-1.429-.914a2.686,2.686,0,0,0,.079-1.653C99.744,252.6,101.437,254.292,101.437,254.292Z" transform="translate(-99.906 -253.263)"/></g><g transform="translate(6.121 6.749)"><path class="j" d="M102.6,260.035v.716l-.719-.745Z" transform="translate(-101.885 -260.006)"/></g><g transform="translate(5.04 5.778)"><path class="ci" d="M100.675,259.407l-.319-.462-1.076-1.254-.4.209Z" transform="translate(-98.876 -257.691)"/></g><g transform="translate(6.891 5.549)"><path class="cj" d="M104.37,258.556l.493.159-.832-1.568Z" transform="translate(-104.03 -257.147)"/></g><g transform="translate(5.024 5.691)"><path class="cj" d="M100.326,258.824l-.45.843-1.046-1.918.448-.267Z" transform="translate(-98.83 -257.483)"/></g><g transform="translate(8.478 8.421)"><path class="ci" d="M108.784,266a7.454,7.454,0,0,0-.01-2.012s-.094.614-.325,1.57Z" transform="translate(-108.449 -263.989)"/></g><g transform="translate(3.814 8.452)"><path class="ci" d="M95.461,265.878s.445-1.721.471-1.815a17.031,17.031,0,0,1-.2,2.364S95.568,266.093,95.461,265.878Z" transform="translate(-95.461 -264.063)"/></g><g transform="translate(13.386 1.644)"><path class="ck" d="M129.122,247.841l-7,10.313.244.22Z" transform="translate(-122.119 -247.841)"/></g><g transform="translate(14.267 10.119)"><path class="cl" d="M125.357,268.053s-.525-.058-.544.04a.174.174,0,0,0,.025.146l-.225.091a.173.173,0,0,0,.062.266s-.125.134.062.213c0,0-.049.131.032.186a1.532,1.532,0,0,0,.421.075s.073-.033.057-.188a.226.226,0,0,0,.079-.224.257.257,0,0,0,.045-.234.313.313,0,0,0,.04-.361A.417.417,0,0,0,125.357,268.053Z" transform="translate(-124.574 -268.036)"/></g><g transform="translate(14.001 9.937)"><path class="j" d="M124.018,267.6a1.913,1.913,0,0,1,.426.437.146.146,0,0,1,.019.147c-.028.047-.121.061-.258-.029a1.2,1.2,0,0,0-.349-.136S123.739,267.881,124.018,267.6Z" transform="translate(-123.831 -267.602)"/></g><g transform="translate(5.024 0.252)"><path class="j" d="M100.205,244.524s1.185-.036,1.4,1.6a5.668,5.668,0,0,1-.483,3.311c-.2.231-1.382.056-1.661-.8a5.958,5.958,0,0,1-.627-2.2C98.9,245.706,98.748,244.5,100.205,244.524Z" transform="translate(-98.831 -244.524)"/></g><g transform="translate(4.262)"><path class="k" d="M100.3,246.4s.317-2.045-1.256-2.411a1.817,1.817,0,0,0-2.274,1.639,16.678,16.678,0,0,0,.027,2.857,8.313,8.313,0,0,0,1.675,1.353,13.636,13.636,0,0,1-.327-3.852,5.757,5.757,0,0,0,2.127-.01S100.3,246.312,100.3,246.4Z" transform="translate(-96.708 -243.924)"/></g><g transform="translate(5.943 4.829)"><path class="l" d="M102.362,255.858a1.814,1.814,0,0,1-.971-.429,2.383,2.383,0,0,0,.942.789S102.366,255.931,102.362,255.858Z" transform="translate(-101.391 -255.429)"/></g><g transform="translate(0 15.816)"><path class="cm" d="M0,0,4.656-.125,4.564,3.868l-4.656.125Z" transform="matrix(0.987, -0.161, 0.161, 0.987, 0, 0.873)"/></g><g transform="translate(1.82 18.597)"><path class="j" d="M90.059,290.215A.794.794,0,0,1,89.98,290s0-.142-.01-.243a.746.746,0,0,0-.009-.077,1.565,1.565,0,0,1-.053-.421,10.181,10.181,0,0,1,.23-.992l.405.017.381-.048a9.842,9.842,0,0,1,.469,1.2.472.472,0,0,1,0,.051,1.943,1.943,0,0,1-.074.34c0,.029-.06.313-.127.353a.214.214,0,0,1-.237.006.511.511,0,0,1-.317.055.315.315,0,0,1-.32-.011S90.139,290.308,90.059,290.215Z" transform="translate(-89.908 -288.236)"/></g><g transform="translate(1.709 6.193)"><path class="ch" d="M92.276,258.711s-.811-.271-1.276.773a5.4,5.4,0,0,0-.525,2c-.059.482-.625,3.343-.652,3.479s-.213,1.924-.226,2.575c-.01.5.089,3.74.071,3.866s1.284-.22,1.284-.22-.144-2.992-.117-3.306a20.184,20.184,0,0,1,.215-2.336c.154-.539.762-3.257.869-3.523S92.96,259.051,92.276,258.711Z" transform="translate(-89.596 -258.679)"/></g></g><g transform="translate(33.324 56.87)"><g transform="translate(12.341 35.24)"><path class="cn" d="M211.756,324.51l.084-.918a5.209,5.209,0,0,0-1.238.1s.094.771.106.887S211.756,324.51,211.756,324.51Z" transform="translate(-210.602 -323.591)"/></g><g transform="translate(10.638 36.076)"><path class="co" d="M206.833,327.586c1.318-.013,1.954.092,2.1-.158a6.8,6.8,0,0,0-.2-1.845,2.384,2.384,0,0,1-1.066.052,3.025,3.025,0,0,1-.646.668c-.318.2-.816.283-1,.492C205.873,326.948,205.515,327.6,206.833,327.586Z" transform="translate(-205.86 -325.584)"/></g><g transform="translate(4.919 35.24)"><path class="cn" d="M191.084,324.51l.084-.918a5.2,5.2,0,0,0-1.237.1s.094.771.106.887S191.084,324.51,191.084,324.51Z" transform="translate(-189.931 -323.591)"/></g><g transform="translate(2.607 36.076)"><path class="co" d="M185.073,327.586c1.318-.04,1.954.092,2.1-.158a6.8,6.8,0,0,0-.2-1.845,2.16,2.16,0,0,1-1.066.052,3.031,3.031,0,0,1-.646.668c-.317.2-1.485.369-1.673.579C183.444,327.034,183.218,327.643,185.073,327.586Z" transform="translate(-183.492 -325.584)"/></g><g transform="translate(9.106 15.424)"><path class="d" d="M204.461,276.375a13.153,13.153,0,0,1,.479,3.564,42.528,42.528,0,0,0,.431,5.178c.163,1.921.83,6.469.855,7.5s-.1,4.309-.1,4.309l-1.335.037s-1.122-7.951-1.412-8.763-1.731-6.6-1.779-7.245S204.461,276.375,204.461,276.375Z" transform="translate(-201.594 -276.375)"/></g><g transform="translate(4.738 15.202)"><path class="d" d="M191.049,276.41s-.734,4.522-.83,5.531-.161,4.886-.21,5.517-.323,8.258-.581,9.2h1.707a51.969,51.969,0,0,0,1.31-8.168,23.259,23.259,0,0,1,1.666-7.434c.653-1.731,2.149-1.772,2.551-4.983C196.663,276.069,191.593,275.392,191.049,276.41Z" transform="translate(-189.428 -275.848)"/></g><g transform="translate(7.432 0.168)"><path class="j" d="M199.327,240.169a1.518,1.518,0,0,0-1.966.61c-.621,1.2-.561,3.595.117,3.889a1.59,1.59,0,0,0,2.044-.609,6.767,6.767,0,0,0,.646-2.556A1.565,1.565,0,0,0,199.327,240.169Z" transform="translate(-196.93 -240.025)"/></g><g transform="translate(8.167 3.288)"><path class="j" d="M199.017,248.909a1.53,1.53,0,0,1-.036.615c-.09.2,1.693.209,1.693.209a15.655,15.655,0,0,1,.419-2.038C201.367,246.761,199.017,248.909,199.017,248.909Z" transform="translate(-198.978 -247.459)"/></g><g transform="translate(7.588)"><path class="cp" d="M200.059,243.148s-.123.237-.625.145-1.115-.873-1.325-.959-.211-.23-.211-.23l-.132.224-.223.017s.2-.7-.1-.984.318-2.261,1.929-1.6c0,0,1.154.266,1.224,1.087A4.2,4.2,0,0,1,200.059,243.148Z" transform="translate(-197.365 -239.625)"/></g><g transform="translate(8.065 4.757)"><path class="cq" d="M198.693,251.532s.006-.388.156-.425a9.182,9.182,0,0,1,1.845-.122v.452S200.339,251.692,198.693,251.532Z" transform="translate(-198.693 -250.961)"/></g><g transform="translate(8.114 1.881)"><path class="j" d="M198.871,244.406c.028-.138.328-.532.443-.11s-.174.99-.335.941S198.8,244.756,198.871,244.406Z" transform="translate(-198.831 -244.107)"/></g><g transform="translate(2.462 5.233)"><path class="bm" d="M188.691,252.189s-.828.348-1.787.825a2.284,2.284,0,0,0-1.223,1.906c-.063.756-.752,4.768-.881,5.108s-1.656,5.794-1.71,5.907,1.246.744,1.332.694,1.479-4.975,1.618-5.34c0,0,.8-2.952.823-3.393,0,0,.023,1.254.066,1.607s-.713,7.189-.691,7.378a17.039,17.039,0,0,0,4.8.252,14.61,14.61,0,0,0,2.469-.543s-1.075-5.4-1.042-5.994c.072-1.3.445-3.759.445-3.759l1.114,2.455-1.426,4.289.326,1.3s2.65-4.68,2.736-5.108a2.612,2.612,0,0,0-.27-1.324c-.14-.352-1.058-3.031-1.274-3.409s-.579-1.888-1.457-2.308a12.187,12.187,0,0,0-1.968-.64Z" transform="translate(-183.087 -252.094)"/></g><g transform="translate(0 14.584)"><g transform="translate(0 0)"><path class="cr" d="M0,0,6.512.262,6.694,5.47.183,5.208Z" transform="translate(1.117 0) rotate(14.381)"/></g></g><g transform="translate(1.664 20.187)"><path class="cs" d="M181.122,287.725s-.178.337-.244.433.16.156.257.059S181.122,287.725,181.122,287.725Z" transform="translate(-180.867 -287.725)"/></g><g transform="translate(1.905 18.96)"><path class="ct" d="M182.852,287.18a.824.824,0,0,0,.129-.211s.031-.154.059-.261a.819.819,0,0,1,.024-.082,1.636,1.636,0,0,0,.143-.443c.028-.208.106-1.142.106-1.142l-.484-.143-.388-.1a8.992,8.992,0,0,0-.884,1.169.516.516,0,0,0-.01.055,2.2,2.2,0,0,0,.012.389c0,.033,0,.357.067.418a.243.243,0,0,0,.257.072.6.6,0,0,0,.334.147.362.362,0,0,0,.35.076S182.746,287.259,182.852,287.18Z" transform="translate(-181.538 -284.802)"/></g><g transform="translate(2.463 14.841)"><path class="bm" d="M185.736,275.579s-1.108,3.922-1.312,4.335a3.393,3.393,0,0,1-1.332-.694l1.216-4.233Z" transform="translate(-183.092 -274.987)"/></g></g></svg>