<svg xmlns="http://www.w3.org/2000/svg" xmlns:xlink="http://www.w3.org/1999/xlink" width="123.369" height="117.519" viewBox="0 0 123.369 117.519"><defs><style>.a{opacity:0.55;}.b{fill:url(#a);}.c{fill:#2c546f;}.d{fill:#cca692;}.e{fill:#f9cfb3;}.f{fill:#e2bba1;}.g{fill:#3d3b36;}.h{fill:#25485b;}.i{fill:#cad9e0;}.j{fill:#17294b;}.k{fill:#e4f4ff;}.l{fill:#2c2c2c;}.m{fill:#a97c50;}.n{fill:#8b5e3c;}.o{fill:#c49a6c;}.p{fill:#799393;}.q{fill:#5e7477;}.r{fill:#6a8284;}.s{fill:#536668;}.t{fill:#607575;}</style><linearGradient id="a" x1="0.096" y1="1.17" x2="1.198" y2="-0.103" gradientUnits="objectBoundingBox"><stop offset="0" stop-color="#fff" stop-opacity="0"/><stop offset="0.559" stop-color="#e3cecf"/><stop offset="1" stop-color="#fabec1"/></linearGradient></defs><g transform="translate(-137.721 -119.326)"><g class="a" transform="translate(142.721 126.807)"><path class="b" d="M4.7,41.54C-.839,50.649-1.423,66.419,2.636,76.278c3.555,8.635,10.627,16.74,19.91,17.755,3.414.373,6.9-.237,10.281.379,11.619,2.116,15.941,16.435,24.971,24.047,6.284,5.3,15,7.172,23.159,6.151s15.791-4.708,22.512-9.438c5.307-3.735,10.273-8.328,12.892-14.266,5.489-12.447-.969-27.4-11-36.583-3.125-2.861-6.608-5.385-9.219-8.722s-4.272-7.79-3.028-11.84c.993-3.231,3.664-5.736,4.676-8.962,1.377-4.389-.7-9.313-4.116-12.4s-7.932-4.633-12.407-5.7C62.516,12.25,21.429,14.043,4.7,41.54Z" transform="translate(0 -14.84)"/></g><path class="c" d="M214.5,182.3c-2.17-8.178-3.257-17.745-5.125-25.794-.769-3.314-3.21-7.1-6.98-7.09,0-.032-7.09-1.412-8.967-1.952-1.137-.33-2.454-1.366-3.559-1.525-2.209-.317-3.53,3.034-4.211,4.663-1.172,2.8-2.262,5.656-3.408,8.454-.9,2.189-2.816,3.771-3.483,6.134-1.131,4-2.831,7.993-3.332,12.145-.33,2.741.29,5.289.45,8,.035.606-.072,5.067-.218,10.782h21.464a34.554,34.554,0,0,1-2.369,3.379c-.458.6,9.95.965,11.809-.926,2.206-2.244,4.918-4.579,6.278-7.477a7.865,7.865,0,0,0,.429-1.122C214.168,186.981,215.356,185.508,214.5,182.3Z" transform="translate(19.801 13.997)"/><g transform="translate(173.101 119.326)"><g transform="translate(10.35)"><path class="d" d="M187.9,139.746l.036.705.3,5.833-8.245,7.5-2.883-2.637-4.675-4.275-.364-7.171Z" transform="translate(-165.373 -108.602)"/><path class="e" d="M176.595,126.639c.936.253,2.2-.952,2.807-1.442a12.788,12.788,0,0,1,3.663-2.085,4.994,4.994,0,0,1,3.03-.31,4.184,4.184,0,0,1,2.7,3.376c.551,3.043-.978,6.191-.488,9.239.069.426.185,1.392.865.926.281-.192.1-.716.4-.946.665-.511.992.3,1.044.8a10.349,10.349,0,0,1-.743,5.325c-.438.948-1.1,1.245-1.743,1.949-.711.778-.514,2.224-.746,3.162a5.181,5.181,0,0,1-.781,1.746c-.775,1.11-2.195,1.682-3.1,2.7a10.517,10.517,0,0,1-2.818,2.553,6.027,6.027,0,0,1-2.7.453c-.124.012-.249.023-.374.034l-1.4-27.563C176.343,126.584,176.472,126.607,176.595,126.639Z" transform="translate(-163.191 -117.562)"/><path class="f" d="M167.961,137.244c0-.495.244-1.339.957-.9.324.2.2.737.5.9.723.394.742-.578.766-1.01.095-1.639-.771-3.166-.643-4.777a19.169,19.169,0,0,1,.433-4.452,5.528,5.528,0,0,1,2.335-3.089,4.6,4.6,0,0,1,3.532-.475,5.029,5.029,0,0,1,2.451,1.693c.76.849,1.117.839,2.27,1.1l1.4,27.563a5.341,5.341,0,0,1-2.358-.212,10.549,10.549,0,0,1-3.06-2.254c-1-.923-2.47-1.349-3.355-2.375a5.207,5.207,0,0,1-.952-1.658c-.327-.911-.276-2.369-1.064-3.072-.708-.633-1.4-.862-1.931-1.761A10.35,10.35,0,0,1,167.961,137.244Z" transform="translate(-167.535 -117.244)"/><path class="g" d="M194.29,135.865a12.582,12.582,0,0,0-.334,3l-1.259.063a5.449,5.449,0,0,1-.024-.623,15.84,15.84,0,0,0-.122-1.882c-.313-2.924.739-12.583-5.276-9.542-.884.447-1.662,1.078-2.528,1.56a8.745,8.745,0,0,1-8.214.085c-1.406-.746-3.648-2.476-5.121-.89-.962,1.035-.6,3.764-.679,5.034a34.794,34.794,0,0,0-.143,5.162c.056.727.246,1.43.266,2.164-1.937.725-1.52-1.426-1.9-2.544a19.614,19.614,0,0,1-.865-5.466c-.1-1.864-.756-3.9-.171-5.756,1.151-3.637,6.035-5.647,9.425-6.4a22.492,22.492,0,0,1,11.255.475c1.479.455,3.759,1.166,4.8,2.395s1.16,3.543,1.448,5.127A21.044,21.044,0,0,1,194.29,135.865Z" transform="translate(-167.682 -119.326)"/></g><g transform="translate(0 33.989)"><path class="h" d="M163.619,154.632c.093,3.666.292,7.331.443,11,.153,3.7.266,7.4.166,11.107-.093,3.431-.9,6.874-.966,10.27-.043,2.256-.145,5.771-.3,9.852h20.8c0-.162.009-.336.012-.495,0,0,.62-24.788.14-24.8-.008,0-.012.04-.218.618l-.143.4.011-.165-3.985-17.056-1.873-10.841s-3.5,1.386-5.1,1.992a33.115,33.115,0,0,1-5.258,1.741c-1.133.224-5.948,1.752-6.423,3C160.544,152.285,163.59,153.5,163.619,154.632Z" transform="translate(-160.901 -140.056)"/><path class="i" d="M174.418,163.054a38.148,38.148,0,0,1,2.386,6.291c.343,1.119.646,2.845,1.926,2.985,1.587.176,2.982-2.668,3.7-3.816,1.061-1.7,2.007-3.448,3.056-5.136.128-1.7.034-3.791.638-5.408.491-1.31,1.511-1.972,1.4-3.572a2.867,2.867,0,0,0-1.5-2.384,7.907,7.907,0,0,1-1.833-.775,13.135,13.135,0,0,1-1.335-1.636c-.553-.649-1.6-2.115-2.579-2.115-1.731-.343-4.153,3.48-5.366,4.644a12.853,12.853,0,0,0-3.547,6.268A26.248,26.248,0,0,1,174.418,163.054Z" transform="translate(-155.398 -138.505)"/><path class="j" d="M173.618,165.621l3.333-12.177a1.705,1.705,0,0,0-.063-1.137l-.818-1.865a.37.37,0,0,1,.09-.349l1.2-1.29a3.926,3.926,0,0,0,.768-.942c.124-.264.455-.862.771-.644.276.189.348.516.514.783a5.5,5.5,0,0,0,.647.711q.449.492.9.984a.31.31,0,0,1,.038.334l-1.107,2.018a1.929,1.929,0,0,0-.237,1.16l1.473,11.626a.331.331,0,0,1-.026.174l-4.045,9.228a.317.317,0,0,1-.368.192.228.228,0,0,1-.345-.108l-2.723-8.524A.307.307,0,0,1,173.618,165.621Z" transform="translate(-154.215 -138.661)"/><path class="k" d="M172.8,142.683l7.329,7.189a.292.292,0,0,0,.412-.034l8.327-8.243,3.413,6.172-6.583,11.256-5.162-8.533a.3.3,0,0,0-.5.041l-6.665,9.635-2.676-11.659Z" transform="translate(-155.75 -141.595)"/><path class="h" d="M194.007,151.867c-.18-.829.008-2.847-1.113-4.11a14.945,14.945,0,0,0-4.385-3.44l-4.6,12.187-1.393,3.427-6.609,15.223L175.7,187.4s3.454-9.954,6.363-15.786a63.033,63.033,0,0,1,10.969-15.535l-4.069-2.724Z" transform="translate(-153.112 -140.163)"/><path class="c" d="M166.872,152.361c.279-.8.8-3.614,2.065-4.73a17.57,17.57,0,0,1,4.635-3.092l3.2,12.88.96,3.571,3.361,12.88-.629,14.056a114.472,114.472,0,0,0-3.72-15.284,63.069,63.069,0,0,0-8.968-16.769l4.373-2.2Z" transform="translate(-157.759 -140.046)"/></g><path class="l" d="M194.336,131.047l-.357-.885s-3.959.037-5.875.1c-1.876.06-4.113.641-5.032,1.8l-.027-.049a2.826,2.826,0,0,1-2.744.089l-.024.05c-.991-1.1-3.26-1.537-5.136-1.476-1.917.061-6.6.731-6.6.731l-.27,1.215,1.951.981a2.456,2.456,0,0,0,0,.5c.276,2.462,2.808,3.674,5.167,3.6.066,0,.13,0,.194-.009a6.147,6.147,0,0,0,1.288-.22A5.613,5.613,0,0,0,180.647,134a1.827,1.827,0,0,0,.122-.7,3.783,3.783,0,0,0,.948.1,3.855,3.855,0,0,0,.937-.163,1.877,1.877,0,0,0,.166.687,5.621,5.621,0,0,0,3.985,3.217,6.148,6.148,0,0,0,1.3.137c.064,0,.128,0,.194,0,2.358-.076,4.808-1.447,4.925-3.923a2.52,2.52,0,0,0-.026-.495Zm-14.671,2.625a4.6,4.6,0,0,1-3.086,2.845,4.963,4.963,0,0,1-1.058.18l-.159.008c-1.88.06-3.891-.853-4.1-2.715a1.419,1.419,0,0,1,.377-1.178,5.2,5.2,0,0,1,3.532-1.145c1.954-.064,3.8.444,4.38,1.206A.773.773,0,0,1,179.666,133.672Zm8.6,2.621-.16,0a5.051,5.051,0,0,1-1.067-.113,4.6,4.6,0,0,1-3.26-2.642.77.77,0,0,1,.063-.807c.533-.8,2.338-1.419,4.293-1.482a5.206,5.206,0,0,1,3.6.917,1.421,1.421,0,0,1,.45,1.151C192.1,135.193,190.147,136.234,188.268,136.293Z" transform="translate(-157.022 -113.623)"/></g><g transform="translate(161.404 162.029)"><path class="h" d="M168.39,147.881c-2.068.807-4.928,1.429-6.313,3.333-1.885,2.595-3.005,6.917-3.759,9.982-1.79,7.286-3.646,14.227-4.925,21.708a30.11,30.11,0,0,0,.176,6.87,4.644,4.644,0,0,0,.394,1.838,4.826,4.826,0,0,0,1.6,1.569l13.392,9.57a2.419,2.419,0,0,0,3.372.047q3.3-1.951,6.6-3.9c.6-.354-5.7-6.36-6.256-6.823-2.772-2.309-3.167-3.1-3.312-6.949-.282-7.493,2-14.8,2-22.279A37.912,37.912,0,0,0,170,154.416a11.513,11.513,0,0,1-.4-3.6c.1-1.064.771-2.138.64-3.213a.359.359,0,0,0-.116-.261.4.4,0,0,0-.369.014C169.311,147.525,168.855,147.7,168.39,147.881Z" transform="translate(-153.238 -147.304)"/></g><g transform="translate(137.721 172.769)"><g transform="translate(0 33.064)"><path class="m" d="M241.324,182.179v3.175c0,2.581-2.431,4.677-5.43,4.677H152.781c-3,0-5.431-2.1-5.431-4.677v-3.175Z" transform="translate(-132.653 -172.754)"/><path class="n" d="M241.324,182.179v1.566a4.8,4.8,0,0,1-1.963.414H149.313a4.8,4.8,0,0,1-1.963-.414v-1.566Z" transform="translate(-132.653 -172.754)"/><path class="o" d="M253.469,185.523H145.34c-2.621,0-4.936-1.074-5.7-2.65l-1.731-3.558c-.8-1.636,1.053-3.312,3.655-3.312H257.246c2.6,0,4.452,1.676,3.655,3.312l-1.732,3.558C258.4,184.449,256.089,185.523,253.469,185.523Z" transform="translate(-137.721 -176.004)"/></g><path class="p" d="M165.991,154.938c-.131-.111-.263-.223-.4-.331a2.3,2.3,0,0,0-2.674.449,63.932,63.932,0,0,0-4.677,5.159,2.661,2.661,0,0,0-.578,1.862l-4.918,5.679a11.117,11.117,0,0,0-2.7,6.99,1.188,1.188,0,0,0-.725,1.09v8.48a1.165,1.165,0,0,0,.113.488,4.445,4.445,0,0,0-2.782,2.408H154.8a4.45,4.45,0,0,0-2.732-2.39,1.161,1.161,0,0,0,.125-.507v-8.48a1.18,1.18,0,0,0-.762-1.1,9.737,9.737,0,0,1,2.363-6.078l4.7-5.432a2.343,2.343,0,0,0,2.6-.493,63.937,63.937,0,0,0,4.678-5.159C166.434,156.757,166.6,155.46,165.991,154.938Z" transform="translate(-133.019 -154.341)"/><path class="p" d="M174.3,154.938c-.13-.111-.261-.223-.4-.331a2.3,2.3,0,0,0-2.674.449,64.233,64.233,0,0,0-4.678,5.159,2.662,2.662,0,0,0-.577,1.862l-4.918,5.679a11.123,11.123,0,0,0-2.7,6.99,1.188,1.188,0,0,0-.725,1.09v8.48a1.159,1.159,0,0,0,.113.488,4.451,4.451,0,0,0-2.784,2.408h8.146a4.439,4.439,0,0,0-2.731-2.39,1.161,1.161,0,0,0,.125-.507v-8.48a1.18,1.18,0,0,0-.762-1.1,9.737,9.737,0,0,1,2.363-6.078l4.7-5.432a2.345,2.345,0,0,0,2.6-.493,63.927,63.927,0,0,0,4.677-5.159C174.741,156.757,174.909,155.46,174.3,154.938Z" transform="translate(-128.648 -154.341)"/></g><g transform="translate(173.394 163.162)"><g transform="translate(0 11.382)"><path class="q" d="M182.867,174.3c-.675,0-1.232-.356-1.245-.794l-.148-4.782c-.012-.43.479-.772,1.114-.814L161.552,156.9a3.764,3.764,0,0,0-.436,2.213l2.521,22.96c.214,1.941,2.245,3.491,4.541,3.491h41.61a4.941,4.941,0,0,0,3.613-1.529L194.8,174.3Z" transform="translate(-161.093 -154.767)"/><path class="r" d="M174.446,164.932l.148,4.782c.014.438.571.794,1.245.794h11.929l-12.209-6.389C174.925,164.159,174.434,164.5,174.446,164.932Z" transform="translate(-154.066 -150.971)"/><path class="s" d="M216.7,159.858l-2.526,22.954a3.559,3.559,0,0,1-.925,1.958l-18.609-9.725h.3c.676,0,1.229-.354,1.245-.8l.143-4.782c.017-.456-.534-.839-1.229-.839H182.544c-.037,0-.072.015-.107.015l-21.044-11.008A4.244,4.244,0,0,1,165.2,155.5h47.248a4.243,4.243,0,0,1,3.825,2.132A3.746,3.746,0,0,1,216.7,159.858Z" transform="translate(-160.935 -155.504)"/><path class="t" d="M187.687,170.513c.673,0,1.232-.356,1.245-.794l.147-4.782c.015-.458-.536-.83-1.229-.83H175.292c-.041,0-.076.014-.116.017l12.209,6.389Z" transform="translate(-153.681 -150.976)"/></g><g transform="translate(0.458)"><path class="s" d="M174.747,148.049c-.02,0,0,0,0,.008C174.782,148.049,174.785,148.044,174.747,148.049Z" transform="translate(-154.369 -148.047)"/><path class="q" d="M216.272,157.636H161.393A4.244,4.244,0,0,1,165.2,155.5h47.248A4.243,4.243,0,0,1,216.272,157.636Z" transform="translate(-161.393 -144.122)"/></g></g></g></svg>