<svg xmlns="http://www.w3.org/2000/svg" xmlns:xlink="http://www.w3.org/1999/xlink" width="135.319" height="134.835" viewBox="0 0 135.319 134.835"><defs><style>.a{opacity:0.55;}.b{fill:url(#a);}.c{fill:#f5f5f5;}.d{fill:#e0e0e0;}.e,.f,.g,.h{fill:#da4d57;}.aa,.f,.q{opacity:0.2;}.f,.g{mix-blend-mode:multiply;isolation:isolate;}.ai,.g{opacity:0.3;}.al,.h,.y{opacity:0.6;}.i{fill:#455a64;}.am,.j{fill:#263238;}.k{fill:#ebebeb;}.l{fill:#fafafa;}.am,.m{opacity:0.1;}.n{fill:#f0f0f0;}.o{opacity:0.78;}.p,.y,.z{fill:#c01e29;}.r,.v,.x{fill:#fff;}.r{opacity:0.4;}.s{fill:#27debf;}.t{opacity:0.35;}.u,.w{opacity:0.5;}.x{opacity:0.8;}.z{opacity:0.7;}.ab{opacity:0.15;}.ac{fill:#37474f;}.ad{fill:#a01922;}.ae{opacity:0.05;}.af{opacity:0.45;}.ag{opacity:0.65;}.ah{fill:#ffa8a7;}.aj{fill:#f28f8f;}.ak{fill:#b16668;}.an{fill:#9a4a4d;}</style><linearGradient id="a" x1="0.096" y1="1.17" x2="1.198" y2="-0.103" gradientUnits="objectBoundingBox"><stop offset="0" stop-color="#fff" stop-opacity="0"/><stop offset="0.559" stop-color="#e3cecf"/><stop offset="1" stop-color="#fabec1"/></linearGradient></defs><g transform="translate(-7.89 -29.728)"><g class="a" transform="translate(8.819 53.709)"><path class="b" d="M4.737,41.739c-5.582,9.176-6.17,25.063-2.081,35,3.581,8.7,10.706,16.865,20.058,17.887,3.439.376,6.954-.238,10.358.382,11.705,2.132,16.059,16.557,25.156,24.225,6.331,5.336,15.115,7.225,23.331,6.2s15.908-4.743,22.679-9.508c5.347-3.763,10.349-8.39,12.988-14.372,5.53-12.539-.976-27.6-11.083-36.854-3.148-2.883-6.657-5.425-9.287-8.787s-4.3-7.848-3.051-11.928c1-3.255,3.691-5.779,4.711-9.028,1.388-4.421-.707-9.382-4.146-12.487s-7.99-4.667-12.5-5.739C62.98,12.231,21.588,14.037,4.737,41.739Z" transform="translate(0 -14.84)"/></g><g transform="translate(7.89 78.528)"><ellipse class="c" cx="67.66" cy="39.063" rx="67.66" ry="39.063"/></g><g transform="translate(13.649 85.783)"><ellipse class="d" cx="17.475" cy="10.089" rx="17.475" ry="10.089" transform="translate(77.591 35.465)"/><ellipse class="d" cx="17.641" cy="10.185" rx="17.641" ry="10.185" transform="translate(35.194 36.189)"/><path class="d" d="M402.494,365l4.738-2.736a.464.464,0,0,0,0-.879l-15.61-9.013a1.681,1.681,0,0,0-1.522,0l-4.738,2.736a.464.464,0,0,0,0,.879L400.972,365A1.682,1.682,0,0,0,402.494,365Z" transform="translate(-285.406 -318.128)"/><path class="d" d="M55.566,278.362,28.5,262.741l56.166-32.428,27.068,15.621Z" transform="translate(-28.497 -230.313)"/></g><g transform="translate(113.422 104.323)"><g transform="translate(0 0)"><g transform="translate(0)"><path class="e" d="M405.916,306.9V319.81a2.28,2.28,0,0,1-1.016,1.77l-1.22.7a2.248,2.248,0,0,1-1.436.21,1.811,1.811,0,0,1-.591-.2.085.085,0,0,1-.029-.015l-.076-.044-14.333-8.275a3.386,3.386,0,0,1-1.692-2.932V298.892a.964.964,0,0,1,.437-.754l2.393-1.38a.951.951,0,0,1,.868,0l16.259,9.387a.872.872,0,0,1,.309.323A.9.9,0,0,1,405.916,306.9Z" transform="translate(-385.522 -296.653)"/><path class="f" d="M447.508,332.2v12.913a2.28,2.28,0,0,1-1.016,1.77l-1.22.7a2.248,2.248,0,0,1-1.436.21,1.812,1.812,0,0,1-.591-.2V347.6c.559.262,1-.029,1-.69V334.347a1.346,1.346,0,0,0-.192-.649l3.328-1.922A.9.9,0,0,1,447.508,332.2Z" transform="translate(-427.114 -321.961)"/></g><path class="g" d="M402.652,314.775a1.46,1.46,0,0,0-.658-1.14l-15.367-8.873c-.608-.351-1.1-.064-1.1.638v11.368a3.385,3.385,0,0,0,1.692,2.932l14.334,8.276c.607.351,1.1.064,1.1-.637Z" transform="translate(-385.521 -302.389)"/><path class="h" d="M385.522,303.371a2.8,2.8,0,0,0,1.261,2.184l14.609,8.435c.693.4,1.261.073,1.261-.728v-4.318a.693.693,0,0,1,.347-.6l2.24-1.287-16.887-10.028-2.483,1.426a.694.694,0,0,0-.347.6Z" transform="translate(-385.522 -296.923)"/><path class="e" d="M388.57,297.028l-2.483,1.426a.691.691,0,0,0-.263.275l17.143,9.863a.694.694,0,0,1,.25-.248l2.24-1.287Z" transform="translate(-385.739 -296.923)"/><path class="e" d="M410.461,336.581l2.274,1.313a1.406,1.406,0,0,1,.635,1.092l0,.518c0,.4-.277.565-.625.364l-2.288-1.321a1.393,1.393,0,0,1-.63-1.092v-.511C409.831,336.543,410.114,336.38,410.461,336.581Z" transform="translate(-403.037 -325.361)"/><g transform="translate(6.836 0.481)"><path class="e" d="M412.881,303.773v1.8l-1.038.6v-2.742c0-.142.1-.2.221-.128Z" transform="translate(-411.323 -301.902)"/><path class="e" d="M416.984,302.151v3.343l-.771.446-.519-.3V302.9a.492.492,0,0,0-.221-.384l-3.934-2.27-.817-.472c-.123-.07-.221-.014-.221.128v2.742l-.52-.3V299a.253.253,0,0,1,0-.044.491.491,0,0,1,.219-.34l.329-.191a.489.489,0,0,1,.442,0l5.789,3.342A.49.49,0,0,1,416.984,302.151Z" transform="translate(-409.981 -298.373)"/><path class="e" d="M416.213,303.806v3.343l-.519-.3v-2.742a.492.492,0,0,0-.221-.384l-3.934-2.27-.817-.472c-.123-.07-.221-.014-.221.128v2.742l-.52-.3v-3.342a.253.253,0,0,1,0-.044c.019-.108.11-.147.219-.084l5.788,3.342A.494.494,0,0,1,416.213,303.806Z" transform="translate(-409.981 -299.582)"/></g></g></g><g transform="translate(11.58 52.258)"><g transform="translate(0)"><g transform="translate(11.887 31.861)"><g transform="translate(0 9.941)"><g transform="translate(0 9.337)"><path class="i" d="M66.594,297.175a1.419,1.419,0,0,0,.032.3.688.688,0,0,0,.27.417l.01.007a.789.789,0,0,0,.829-.064,2.517,2.517,0,0,0,1.14-1.975.808.808,0,0,0-.321-.723l0,0L68.5,295.1h0a.705.705,0,0,0-.485-.019,1.3,1.3,0,0,0-.279.122A2.517,2.517,0,0,0,66.594,297.175Z" transform="translate(-65.765 -294.571)"/><path class="j" d="M64.769,293.494a1.046,1.046,0,0,1,.507-.154.6.6,0,0,1,.321.09l.029.016.735.424a.706.706,0,0,0-.485-.019,1.3,1.3,0,0,0-.279.122,2.517,2.517,0,0,0-1.14,1.972,1.418,1.418,0,0,0,.032.3.688.688,0,0,0,.27.417L64,296.224l-.013-.006-.064-.039a.064.064,0,0,1-.019-.013.84.84,0,0,1-.279-.7A2.517,2.517,0,0,1,64.769,293.494Z" transform="translate(-63.629 -293.34)"/></g><g transform="translate(12.333 2.705)"><path class="i" d="M110.725,273.444a1.419,1.419,0,0,0,.032.3.688.688,0,0,0,.27.418l.01.006a.787.787,0,0,0,.829-.064,2.517,2.517,0,0,0,1.14-1.975.808.808,0,0,0-.321-.723l0,0-.055-.032h0a.707.707,0,0,0-.485-.019,1.285,1.285,0,0,0-.279.122A2.515,2.515,0,0,0,110.725,273.444Z" transform="translate(-109.897 -270.84)"/><path class="j" d="M108.9,269.763a1.044,1.044,0,0,1,.507-.154.6.6,0,0,1,.321.09l.029.016.736.424a.707.707,0,0,0-.485-.019,1.287,1.287,0,0,0-.279.122,2.515,2.515,0,0,0-1.14,1.972,1.418,1.418,0,0,0,.032.3.688.688,0,0,0,.27.418l-.755-.437-.013-.006-.064-.039a.065.065,0,0,1-.019-.013.84.84,0,0,1-.279-.7A2.517,2.517,0,0,1,108.9,269.763Z" transform="translate(-107.761 -269.609)"/></g><g transform="translate(8.681 11.926)"><path class="i" d="M96.974,306.44a1.438,1.438,0,0,1-.032.3.689.689,0,0,1-.27.417l-.009.006a.788.788,0,0,1-.829-.064,2.518,2.518,0,0,1-1.14-1.975.808.808,0,0,1,.321-.722l0,0,.055-.032h0a.707.707,0,0,1,.485-.019,1.3,1.3,0,0,1,.279.122A2.516,2.516,0,0,1,96.974,306.44Z" transform="translate(-94.694 -303.836)"/><path class="j" d="M97.632,302.759a1.043,1.043,0,0,0-.507-.154.6.6,0,0,0-.321.09l-.029.016-.736.424a.707.707,0,0,1,.485-.019,1.3,1.3,0,0,1,.279.122,2.516,2.516,0,0,1,1.14,1.972,1.439,1.439,0,0,1-.032.3.689.689,0,0,1-.27.417l.755-.437.013-.006.064-.039a.067.067,0,0,0,.019-.013.84.84,0,0,0,.279-.7A2.516,2.516,0,0,0,97.632,302.759Z" transform="translate(-95.663 -302.605)"/></g><g transform="translate(16.687 8.005)"><path class="i" d="M125.621,292.408a1.42,1.42,0,0,1-.032.3.689.689,0,0,1-.27.418l-.01.006a.788.788,0,0,1-.829-.064,2.517,2.517,0,0,1-1.14-1.975.809.809,0,0,1,.321-.722l0,0,.055-.032h0a.707.707,0,0,1,.485-.019,1.3,1.3,0,0,1,.279.122A2.517,2.517,0,0,1,125.621,292.408Z" transform="translate(-123.341 -289.804)"/><path class="j" d="M126.279,288.727a1.043,1.043,0,0,0-.507-.154.6.6,0,0,0-.321.09l-.029.016-.735.424a.707.707,0,0,1,.485-.019,1.307,1.307,0,0,1,.279.122,2.517,2.517,0,0,1,1.14,1.972,1.42,1.42,0,0,1-.032.3.689.689,0,0,1-.27.418l.755-.437.013-.006.064-.038a.065.065,0,0,0,.019-.013.839.839,0,0,0,.279-.7A2.516,2.516,0,0,0,126.279,288.727Z" transform="translate(-124.31 -288.573)"/></g><g transform="translate(1.212 3.195)"><path class="i" d="M70.247,275.2a1.416,1.416,0,0,1-.032.3.689.689,0,0,1-.27.418l-.009.006a.788.788,0,0,1-.829-.064,2.517,2.517,0,0,1-1.14-1.975.808.808,0,0,1,.321-.723l0,0,.055-.032h0a.707.707,0,0,1,.485-.019,1.284,1.284,0,0,1,.279.122A2.515,2.515,0,0,1,70.247,275.2Z" transform="translate(-67.967 -272.594)"/><path class="j" d="M70.9,271.517a1.042,1.042,0,0,0-.507-.154.6.6,0,0,0-.321.09l-.029.016-.736.424a.707.707,0,0,1,.485-.019,1.284,1.284,0,0,1,.279.122,2.515,2.515,0,0,1,1.14,1.972,1.416,1.416,0,0,1-.032.3.689.689,0,0,1-.27.418l.755-.437.013-.006.064-.039a.069.069,0,0,0,.019-.013.841.841,0,0,0,.279-.7A2.515,2.515,0,0,0,70.9,271.517Z" transform="translate(-68.935 -271.363)"/></g><g transform="translate(9.896 2.029)"><path class="k" d="M100.478,269.051l4.07-1.167v.869l-4.07,2.348Z" transform="translate(-100.077 -267.69)"/><path class="c" d="M99.443,268.55l-.4-.246,4.083-1.116.389.195Z" transform="translate(-99.042 -267.188)"/></g><g transform="translate(2.767 2.83)"><path class="k" d="M79.3,273.5l-5.771-2.162v-.88l5.771.516Z" transform="translate(-73.529 -270.346)"/><path class="c" d="M73.529,270.169l.424-.112,5.69.367-.343.26Z" transform="translate(-73.529 -270.057)"/></g><path class="l" d="M93.625,265.635c0,.654,2.007.654,2.007,0v-5.706H93.625Z" transform="translate(-85.242 -259.929)"/><g transform="translate(9.204 4.221)"><path class="c" d="M97.246,275.035l1.1,7.166H97.6l-1.032-7.166A1.24,1.24,0,0,0,97.246,275.035Z" transform="translate(-96.563 -275.035)"/><path class="k" d="M96.563,275.035V277l1.032,6.411V282.2Z" transform="translate(-96.563 -275.035)"/><rect class="d" width="0.755" height="1.213" transform="translate(1.032 7.166)"/></g><g transform="translate(0.954 4.011)"><path class="k" d="M76.148,276.959l-7.441,3.9v-1.2l7.441-4.6Z" transform="translate(-68.242 -274.839)"/><path class="c" d="M74.95,274.5a.827.827,0,0,1-.478-.216l-7.428,4.506.465.313Z" transform="translate(-67.044 -274.281)"/><path class="d" d="M67.509,291.92v-1.2l-.465-.313v1.164Z" transform="translate(-67.044 -285.899)"/></g><path class="k" d="M108.406,279.273l-7.95-2.722v-1.786l7.95,3.307Z" transform="translate(-90.165 -270.62)"/><path class="c" d="M100.457,273.971c.065-.018.092-.133.1-.309l8.087,3.518-.235.1Z" transform="translate(-90.165 -269.824)"/><path class="d" d="M129.138,286.251v1.162l-.235.136v-1.2Z" transform="translate(-110.662 -278.895)"/><rect class="m" width="0.755" height="1.213" transform="translate(10.236 11.387)"/><path class="m" d="M67.509,291.92v-1.2l-.465-.313v1.164Z" transform="translate(-66.09 -281.888)"/><path class="m" d="M129.138,286.251v1.162l-.235.136v-1.2Z" transform="translate(-110.662 -278.895)"/></g><path class="n" d="M94.533,224.355h-3.4v11.769c0,.977,3.4.977,3.4,0Z" transform="translate(-83.448 -224.355)"/></g><g class="o" transform="translate(2.18 0.676)"><path class="p" d="M35.935,142.32l13.024-6.8a13.614,13.614,0,0,0-2.171-9.31s.918-8.655-.622-11.533c-1.127-2.2-2.479-1.9-2.479-1.9L28.9,119.458Z" transform="translate(-28.896 -112.765)"/><path class="q" d="M35.935,142.32l13.024-6.8a13.614,13.614,0,0,0-2.171-9.31s.918-8.655-.622-11.533c-1.127-2.2-2.479-1.9-2.479-1.9L28.9,119.458Z" transform="translate(-28.896 -112.765)"/><path class="p" d="M43.688,112.78,28.9,119.458l.486,1.579,16.176-7.3C44.605,112.578,43.688,112.78,43.688,112.78Z" transform="translate(-28.896 -112.766)"/><g transform="translate(8.078 13.161)"><path class="r" d="M82.015,160.557c.031.229.229.315.443.191a.7.7,0,0,0,.332-.639c-.031-.229-.229-.315-.443-.192A.7.7,0,0,0,82.015,160.557Z" transform="translate(-75.245 -159.861)"/><path class="r" d="M73.945,165.217c.031.229.229.315.444.191a.7.7,0,0,0,.332-.639c-.031-.229-.229-.315-.444-.191A.7.7,0,0,0,73.945,165.217Z" transform="translate(-69.43 -163.219)"/><path class="r" d="M65.875,169.877c.031.229.229.315.443.191a.7.7,0,0,0,.332-.639c-.031-.229-.229-.315-.443-.191A.7.7,0,0,0,65.875,169.877Z" transform="translate(-63.615 -166.577)"/><path class="r" d="M57.8,174.537c.031.229.229.315.444.192a.7.7,0,0,0,.332-.639c-.031-.229-.229-.315-.443-.192A.7.7,0,0,0,57.8,174.537Z" transform="translate(-57.801 -169.935)"/></g></g><g transform="translate(9.219 22.108)"><path class="s" d="M81.994,196.326v.718a2.6,2.6,0,0,1-1.267,2.1l-14.52,7.621a2.892,2.892,0,0,1-2.507-.051l-8.374-4.835a2.74,2.74,0,0,1-1.24-2.147v-.718a2.593,2.593,0,0,1,1.269-2.094L69.1,189.738a3.145,3.145,0,0,1,2.549-.022l9.068,4.538A2.535,2.535,0,0,1,81.994,196.326Z" transform="translate(-54.085 -189.457)"/><path class="q" d="M81.994,196.326v.718a2.6,2.6,0,0,1-1.267,2.1l-14.52,7.621a2.892,2.892,0,0,1-2.507-.051l-8.374-4.835a2.74,2.74,0,0,1-1.24-2.147v-.718a2.593,2.593,0,0,1,1.269-2.094L69.1,189.738a3.145,3.145,0,0,1,2.549-.022l9.068,4.538A2.535,2.535,0,0,1,81.994,196.326Z" transform="translate(-54.085 -189.457)"/><path class="q" d="M65.275,226.53a2.827,2.827,0,0,1-1.574-.3L55.326,221.4a2.746,2.746,0,0,1-1.239-2.147v-.72a2.615,2.615,0,0,1,1.088-1.983c-.517.37-.468.91.151,1.267L63.7,222.65a2.679,2.679,0,0,0,1.281.309Z" transform="translate(-54.086 -208.977)"/><path class="s" d="M68.1,203.181l14.52-7.621c.7-.367.694-.952-.013-1.306l-9.068-4.538a3.145,3.145,0,0,0-2.549.022l-13.743,7.179c-.7.366-.714.983-.029,1.378l8.374,4.835A2.892,2.892,0,0,0,68.1,203.181Z" transform="translate(-55.979 -189.457)"/><path class="p" d="M68.1,203.181l14.52-7.621c.7-.367.694-.952-.013-1.306l-9.068-4.538a3.145,3.145,0,0,0-2.549.022l-13.743,7.179c-.7.366-.714.983-.029,1.378l8.374,4.835A2.892,2.892,0,0,0,68.1,203.181Z" transform="translate(-55.979 -189.457)"/></g><g transform="translate(16.972)"><path class="p" d="M81.826,111.036a4.356,4.356,0,0,1,4.4-.146c2.257,1.3,1.511,5.687,1.27,8.511s-.321,7.748,1.657,9.538,8.455-.589,11.281-.589L97.94,137.54A42.619,42.619,0,0,0,87.1,133.774s.121-5.729-2.506-9c0,0,.969-2.292.335-6.883C84.341,113.64,83.547,112.03,81.826,111.036Z" transform="translate(-81.826 -110.346)"/><path class="t" d="M81.826,111.036a4.356,4.356,0,0,1,4.4-.146c2.257,1.3,1.511,5.687,1.27,8.511s-.321,7.748,1.657,9.538,8.455-.589,11.281-.589L97.94,137.54A42.619,42.619,0,0,0,87.1,133.774s.121-5.729-2.506-9c0,0,.969-2.292.335-6.883C84.341,113.64,83.547,112.03,81.826,111.036Z" transform="translate(-81.826 -110.346)"/><path class="p" d="M138.792,183.96c-.128-.821-.649-5.551.233-7.609.767-1.79,2.781-1.9,3.414-1.128.6.727.067,1.7-.94,3.011-.85,1.109-1.156,2.146-1.156,4.831Z" transform="translate(-122.678 -156.767)"/><path class="q" d="M138.792,183.96c-.128-.821-.649-5.551.233-7.609.767-1.79,2.781-1.9,3.414-1.128.6.727.067,1.7-.94,3.011-.85,1.109-1.156,2.146-1.156,4.831Z" transform="translate(-122.678 -156.767)"/><g class="u" transform="translate(16.417 18.577)"><path class="v" d="M142.761,177.011a.79.79,0,0,1,.565.174c.223.271-.072.906-.957,2.061-.937,1.223-1.267,2.418-1.309,4.735a.209.209,0,0,1-.1.176l-.069.033c-.2-2.12-.216-4.825.314-6.061a1.716,1.716,0,0,1,1.558-1.118m0-.191a1.9,1.9,0,0,0-1.734,1.234c-.591,1.38-.5,4.329-.328,6.154a.2.2,0,0,0,.293.151l.061-.035a.4.4,0,0,0,.2-.338c.041-2.312.363-3.439,1.269-4.622.987-1.288,1.254-1.932.953-2.3a.963.963,0,0,0-.712-.244Z" transform="translate(-140.571 -176.82)"/></g></g><g transform="translate(0 6.787)"><path class="p" d="M29.775,162.1l10.056,5.05-.214-3.7,1.551-.9c-.112-2.873-.9-5.819-2.932-6.472-2.542-.8-5.842-1.064-7.82-2.854s-1.9-6.714-1.657-9.538.987-7.208-1.27-8.511a4.357,4.357,0,0,0-4.4.146c-.965.626-2.086,1.079-1.991,1.839a.817.817,0,0,0,.686.774L27.4,159.174A4.588,4.588,0,0,0,29.775,162.1Z" transform="translate(-21.095 -134.633)"/><path class="w" d="M29.775,162.1l10.056,5.05-.214-3.7,1.551-.9c-.112-2.873-.9-5.819-2.932-6.472-2.542-.8-5.842-1.064-7.82-2.854s-1.9-6.714-1.657-9.538.987-7.208-1.27-8.511a4.357,4.357,0,0,0-4.4.146c-.965.626-2.086,1.079-1.991,1.839a.817.817,0,0,0,.686.774L27.4,159.174A4.588,4.588,0,0,0,29.775,162.1Z" transform="translate(-21.095 -134.633)"/><path class="p" d="M26.011,137.8c.9,1.081,1.369,2.8,1.2,7.015s-.1,7.619,1.551,9.685c1.957,2.451,8.667,4.4,8.667,4.4l2.621-1.2a3.289,3.289,0,0,0-1.815-1.62c-2.542-.8-5.842-1.064-7.82-2.854s-1.9-6.714-1.657-9.538.987-7.208-1.27-8.511a4.357,4.357,0,0,0-4.4.146c-.965.626-2.086,1.079-1.991,1.839a.817.817,0,0,0,.686.774C23.044,137.522,25.108,136.716,26.011,137.8Z" transform="translate(-21.095 -134.633)"/><path class="t" d="M26.011,137.8c.9,1.081,1.369,2.8,1.2,7.015s-.1,7.619,1.551,9.685c1.957,2.451,8.667,4.4,8.667,4.4l2.621-1.2a3.289,3.289,0,0,0-1.815-1.62c-2.542-.8-5.842-1.064-7.82-2.854s-1.9-6.714-1.657-9.538.987-7.208-1.27-8.511a4.357,4.357,0,0,0-4.4.146c-.965.626-2.086,1.079-1.991,1.839a.817.817,0,0,0,.686.774C23.044,137.522,25.108,136.716,26.011,137.8Z" transform="translate(-21.095 -134.633)"/><path class="p" d="M78.066,218.422l1.551-.9c0-1.719-.443-5.455-2.619-6.358-1.727-.717-2.561.337-2.542.987.021.732.549,1.215,1.423,1.718C77.036,214.54,78.066,215.736,78.066,218.422Z" transform="translate(-59.544 -189.607)"/><path class="q" d="M78.066,218.422l1.551-.9c0-1.719-.443-5.455-2.619-6.358-1.727-.717-2.561.337-2.542.987.021.732.549,1.215,1.423,1.718C77.036,214.54,78.066,215.736,78.066,218.422Z" transform="translate(-59.544 -189.607)"/><g class="u" transform="translate(15.485 21.894)"><path class="v" d="M77.4,213.168a2.093,2.093,0,0,1,.785.182c1.439.6,2.047,3.068,2.137,5.181a.056.056,0,0,1-.027.052l-.068.04a5.008,5.008,0,0,0-2.487-3.934c-.948-.546-1.035-.843-1.041-1.078a.408.408,0,0,1,.127-.235.765.765,0,0,1,.575-.207m0-.191a.95.95,0,0,0-.712.265.579.579,0,0,0-.181.373c.01.356.208.7,1.137,1.239a4.877,4.877,0,0,1,2.413,3.95.085.085,0,0,0,.084.076.084.084,0,0,0,.042-.011l.207-.12a.247.247,0,0,0,.122-.226c-.092-2.172-.733-4.718-2.255-5.349a2.279,2.279,0,0,0-.858-.2Z" transform="translate(-76.505 -212.977)"/></g></g></g></g><g transform="translate(17.526 56.844)"><g transform="translate(0 3.922)"><path class="p" d="M65.635,184.623,42.37,171.191l52.65-30.4,23.264,13.432Z" transform="translate(-42.37 -140.794)"/><path class="x" d="M65.635,184.623,42.37,171.191l52.65-30.4,23.264,13.432Z" transform="translate(-42.37 -140.794)"/><g transform="translate(0 30.398)"><path class="s" d="M42.37,249.568v26.863l1.224.707V274.31L64.41,286.328v2.828l1.224.707V263Z" transform="translate(-42.37 -249.568)"/></g><path class="y" d="M42.37,249.568v26.863l1.224.707V274.31L64.41,286.328v2.828l1.224.707V263Z" transform="translate(-42.37 -219.17)"/><g transform="translate(1.225 55.14)"><path class="s" d="M46.752,340.932l1.224-.707v-1.414l-1.224-.707Z" transform="translate(-46.752 -338.105)"/></g><path class="p" d="M46.752,340.932l1.224-.707v-1.414l-1.224-.707Z" transform="translate(-45.528 -282.964)"/><g transform="translate(23.264 13.432)"><path class="s" d="M125.618,246.118l1.224-.707v-2.828l50.2-28.984v2.828l1.225-.707V188.857l-52.65,30.4Z" transform="translate(-125.618 -188.857)"/></g><path class="z" d="M125.618,246.118l1.224-.707v-2.828l50.2-28.984v2.828l1.225-.707V188.857l-52.65,30.4Z" transform="translate(-102.354 -175.425)"/><g transform="translate(73.466 38.174)"><path class="p" d="M306.482,280.221l-1.224-.707V278.1l1.225-.707Z" transform="translate(-305.257 -277.393)"/></g></g><g class="aa" transform="translate(41.229 10.062)"><path d="M190.011,172.017l3.888,2.24a.577.577,0,0,0,.522,0l15.4-8.888a.159.159,0,0,0,0-.3l-3.888-2.24a.577.577,0,0,0-.522,0l-15.4,8.889A.159.159,0,0,0,190.011,172.017Z" transform="translate(-189.903 -162.764)"/></g><g transform="translate(26.117 18.133)"><g class="aa" transform="translate(0 1.493)"><path d="M135.94,201.493l9.709,5.606a.6.6,0,0,0,.547,0l7.145-4.125a.167.167,0,0,0,0-.316l-9.709-5.606a.6.6,0,0,0-.547,0l-7.145,4.125A.166.166,0,0,0,135.94,201.493Z" transform="translate(-135.826 -196.987)"/></g><g transform="translate(0 0.987)"><path class="k" d="M135.939,199.684l9.709,5.606a.6.6,0,0,0,.547,0l7.145-4.125a.166.166,0,0,0,0-.316l-9.709-5.605a.6.6,0,0,0-.547,0l-7.145,4.125A.167.167,0,0,0,135.939,199.684Z" transform="translate(-135.826 -195.178)"/></g><g transform="translate(0.473 0.987)"><path class="d" d="M144.3,195.243l-6.785,3.917,9.349,5.4a.6.6,0,0,0,.547,0l6.785-3.917-9.349-5.4A.6.6,0,0,0,144.3,195.243Z" transform="translate(-137.52 -195.178)"/></g><g transform="translate(0)"><path class="l" d="M135.94,196.152l9.709,5.605a.6.6,0,0,0,.547,0l7.145-4.125a.167.167,0,0,0,0-.316l-9.709-5.605a.6.6,0,0,0-.547,0l-7.145,4.125A.167.167,0,0,0,135.94,196.152Z" transform="translate(-135.826 -191.646)"/></g></g><g class="aa" transform="translate(5.014 33.765)"><path d="M64.91,248.037a1.16,1.16,0,0,1,0,2.2,4.208,4.208,0,0,1-3.808,0,1.16,1.16,0,0,1,0-2.2A4.208,4.208,0,0,1,64.91,248.037Z" transform="translate(-60.313 -247.581)"/></g><g transform="translate(5.12 27.662)"><g transform="translate(0.066 3.364)"><g transform="translate(0 0.693)"><path class="k" d="M65.049,243.979c.849-.867,1.348-3.031.52-3.718H61.354c-.828.687-.33,2.85.519,3.717L61.9,244l.029.029c.024.023.049.046.077.068l.02.016c.021.016.041.032.064.048a1.213,1.213,0,0,0,.11.07,2.8,2.8,0,0,0,2.53,0h0a1.169,1.169,0,0,0,.111-.071c.021-.015.04-.03.06-.045l.025-.02c.027-.022.051-.044.074-.066l.034-.033Z" transform="translate(-60.93 -240.261)"/></g><g transform="translate(0.069)"><path class="l" d="M61.9,238.2a1.061,1.061,0,0,0,0,2.011,3.849,3.849,0,0,0,3.483,0,1.061,1.061,0,0,0,0-2.011A3.849,3.849,0,0,0,61.9,238.2Z" transform="translate(-61.176 -237.78)"/></g><g transform="translate(1.033 0.557)"><path class="k" d="M65.066,240.026a.646.646,0,0,0,0,1.223,2.341,2.341,0,0,0,2.119,0,.646.646,0,0,0,0-1.223A2.341,2.341,0,0,0,65.066,240.026Z" transform="translate(-64.627 -239.772)"/></g><g transform="translate(1.122 1.137)"><path class="d" d="M67.412,242.1a2.342,2.342,0,0,0-2.119,0,.323.323,0,1,0,0,.643,2.341,2.341,0,0,0,2.119,0,.322.322,0,1,0,0-.642Z" transform="translate(-64.943 -241.85)"/></g></g><g transform="translate(2.757)"><path class="p" d="M70.783,230.952a3.137,3.137,0,0,0,1.3-1.641,4.2,4.2,0,0,0-.188-3.077c-.471-.77-1.617-.682-1.276.6a5.118,5.118,0,0,1,.014,3.609Z" transform="translate(-70.56 -225.743)"/><g class="aa"><path d="M70.783,230.952a3.137,3.137,0,0,0,1.3-1.641,4.2,4.2,0,0,0-.188-3.077c-.471-.77-1.617-.682-1.276.6a5.118,5.118,0,0,1,.014,3.609Z" transform="translate(-70.56 -225.743)"/></g><g transform="translate(0.21 0.291)"><path class="v" d="M71.364,231.469a.051.051,0,0,1-.035-.013.052.052,0,0,1,0-.073,3.749,3.749,0,0,0,.959-2.795,3.188,3.188,0,0,0-.533-1.713.052.052,0,1,1,.068-.078,3.241,3.241,0,0,1,.568,1.785,3.85,3.85,0,0,1-.985,2.871A.052.052,0,0,1,71.364,231.469Z" transform="translate(-71.312 -226.783)"/></g></g><g transform="translate(0 0.648)"><path class="p" d="M62.691,232.622a.5.5,0,0,0-.209-.274,2.023,2.023,0,0,0-.378-.163c-.226-.082-.517-.2-.547-.476a.77.77,0,0,1,.035-.289.625.625,0,0,0,.039-.4c-.049-.122-.179-.187-.29-.259a.952.952,0,0,1-.305-.289.6.6,0,0,1-.089-.352c.022-.255.266-.421.272-.674.01-.368-.85-.867-.391-1.215.588-.445,1.508.07,1.772.448s.263.547.744.868c.4.266.87.321.87.843s-.672.548-.143,1.141c.318.357-.207.665-.4,1.088A.87.87,0,0,1,62.691,232.622Z" transform="translate(-60.693 -228.061)"/><g transform="translate(0.697 0.361)"><path class="v" d="M65.018,233.7h0a.052.052,0,0,1-.05-.054c.116-3.042-1.432-4.112-1.742-4.2a.052.052,0,0,1-.036-.064.053.053,0,0,1,.064-.036c.524.143,1.928,1.427,1.819,4.3A.052.052,0,0,1,65.018,233.7Z" transform="translate(-63.185 -229.353)"/></g><g transform="translate(0.804 1.942)"><path class="v" d="M64.994,235.513a.05.05,0,0,1-.034-.013,2.343,2.343,0,0,0-1.336-.386.052.052,0,0,1-.053-.051.051.051,0,0,1,.051-.053,2.4,2.4,0,0,1,1.407.412.052.052,0,0,1-.034.091Z" transform="translate(-63.571 -235.011)"/></g></g></g><g transform="translate(12.421 29.74)"><g class="aa" transform="translate(0 0.491)"><path d="M109.086,242.386c.019.032.006.07-.038.095l-9.164,5.292a.223.223,0,0,1-.114.025.189.189,0,0,1-.114-.025l-12.795-7.386a.091.091,0,0,1-.041-.044.054.054,0,0,1,.013-.063.048.048,0,0,1,.013-.013.03.03,0,0,1,.016-.013l9.164-5.289a.242.242,0,0,1,.228,0l12.795,7.386s.009.006.013.01l0,0a.054.054,0,0,1,.028.025A.011.011,0,0,0,109.086,242.386Z" transform="translate(-86.816 -234.937)"/></g><g transform="translate(0.477)"><path class="p" d="M88.523,238.472v.221a.241.241,0,0,0,.109.189l12.274,7.087a.241.241,0,0,0,.219,0l8.793-5.077a.241.241,0,0,0,.109-.189v-.221a.241.241,0,0,0-.109-.189l-12.274-7.087a.242.242,0,0,0-.218,0l-8.793,5.077A.241.241,0,0,0,88.523,238.472Z" transform="translate(-88.523 -233.18)"/><path class="r" d="M142.143,258.667c.045.035.04.085-.015.116l-8.793,5.076a.22.22,0,0,1-.109.026v.473a.229.229,0,0,0,.109-.026l8.793-5.077a.242.242,0,0,0,.109-.189v-.221A.244.244,0,0,0,142.143,258.667Z" transform="translate(-120.733 -251.544)"/><path class="ab" d="M88.614,251.483l-.006,0-.009.008,0,0-.015.015v0a.247.247,0,0,0-.056.118.175.175,0,0,0,0,.027v.221a.242.242,0,0,0,.109.189l12.274,7.087a.228.228,0,0,0,.109.027v-.473a.222.222,0,0,1-.11-.026L88.631,251.6a.092.092,0,0,1-.041-.043.057.057,0,0,1,.013-.06Z" transform="translate(-88.522 -246.368)"/><g transform="translate(3.323 1.641)"><path class="j" d="M100.415,239.563c0,.2.276.406.352.582a.394.394,0,0,1,.016.044c-.038.125-.153.212-.178.3a.193.193,0,0,0-.009.057c0,.032,0,.147,0,.166a.882.882,0,0,0,.016.116.805.805,0,0,1-.029.122.725.725,0,0,0-.04.209c0,.029,0,.136,0,.162a.146.146,0,0,0,.083.15l.492.284,3.685-2.128v-.164l-.492-.284a.436.436,0,0,0-.248-.048h-.033c-.082,0-.191.009-.337.024a3.032,3.032,0,0,1-.555.013c-.051,0-.1-.006-.143-.006a1,1,0,0,0-.1,0,2.381,2.381,0,0,1-.859.1l-.013,0a7.056,7.056,0,0,0-1-.2h-.034a.815.815,0,0,0-.39.105c-.132.077-.181.158-.182.241C100.415,239.427,100.415,239.537,100.415,239.563Zm.559.114a.228.228,0,0,1,.089-.086.424.424,0,0,1,.092-.039.943.943,0,0,1,.674.1.471.471,0,0,1,.2.193.229.229,0,0,1-.089.086.739.739,0,0,1-.5.039.948.948,0,0,1-.266-.1A.467.467,0,0,1,100.974,239.677Z" transform="translate(-100.415 -239.053)"/><path class="ac" d="M104.063,239.127h-.033c-.082,0-.191.009-.337.024a3.032,3.032,0,0,1-.555.013c-.051,0-.1-.006-.143-.006a1,1,0,0,0-.1,0,2.381,2.381,0,0,1-.859.1l-.013,0a7.056,7.056,0,0,0-1-.2h-.034a.815.815,0,0,0-.39.105c-.45.26.062.573.17.823s-.126.38-.162.5.064.191-.022.461-.02.321.043.357l.492.284,3.685-2.128-.492-.284A.436.436,0,0,0,104.063,239.127ZM101.3,241.2a.228.228,0,0,1-.2-.017c-.064-.037-.077-.089-.03-.117a.228.228,0,0,1,.2.017C101.335,241.118,101.349,241.17,101.3,241.2Zm.638-1.265a.739.739,0,0,1-.5.039.948.948,0,0,1-.266-.1c-.242-.14-.29-.338-.109-.443a.426.426,0,0,1,.092-.038.94.94,0,0,1,.674.1C102.071,239.63,102.12,239.828,101.939,239.933Zm2.2-.376a.228.228,0,0,1-.2-.016c-.064-.037-.077-.089-.029-.117a.228.228,0,0,1,.2.017C104.179,239.476,104.192,239.529,104.144,239.556Z" transform="translate(-100.414 -239.053)"/></g><g transform="translate(1.847 0.962)"><path class="c" d="M105.435,247.206l7.652-4.417a.145.145,0,0,0,.065-.113v-.085a.145.145,0,0,0-.065-.113l-10.109-5.837a.145.145,0,0,0-.131,0L95.2,241.057a.145.145,0,0,0-.065.113v.086a.145.145,0,0,0,.065.113l10.109,5.836A.144.144,0,0,0,105.435,247.206Z" transform="translate(-95.13 -236.624)"/><path class="d" d="M141.684,258.747l2.642-1.526.1.055-2.642,1.526Z" transform="translate(-128.674 -251.465)"/><path class="d" d="M130.337,265.3l2.642-1.526.1.055-2.642,1.526Z" transform="translate(-120.498 -256.185)"/><path class="l" d="M139.5,257.608c.019.02.014.046-.016.064l-7.651,4.417a.133.133,0,0,1-.066.016v.236a.126.126,0,0,0,.065-.016l7.652-4.417a.142.142,0,0,0,.065-.113v-.085A.146.146,0,0,0,139.5,257.608Z" transform="translate(-121.532 -251.744)"/><path class="d" d="M95.182,252.524a.1.1,0,0,0-.018.018l-.008.01a.184.184,0,0,0-.018.035.117.117,0,0,0-.006.024.108.108,0,0,0,0,.016v.085a.146.146,0,0,0,.065.113l10.109,5.836a.134.134,0,0,0,.066.016v-.236a.137.137,0,0,1-.065-.016L95.2,252.59C95.165,252.572,95.16,252.544,95.182,252.524Z" transform="translate(-95.13 -248.081)"/><g transform="translate(9.619 5.382)"><g transform="translate(0 2.016)"><path class="ac" d="M130.771,264.942c-.024.027.01.065.028.091a.331.331,0,0,1-.029.132.159.159,0,0,1-.06.089c-.038.022-.088-.008-.114-.024-.01-.006-.032,0-.036.005s0,.031,0,.047a.131.131,0,0,1-.042-.026.141.141,0,0,0-.051-.027c-.012,0-.029,0-.032.007s0,.046.006.066.019.055.008.079-.058-.014-.067-.024a.581.581,0,0,1-.049-.069c-.006-.009-.039-.006-.038,0a.419.419,0,0,1,0,.1.508.508,0,0,1-.03.142c-.007.017-.027.076-.069.075a.061.061,0,0,1-.049-.03c0-.015.006-.029.008-.043a.332.332,0,0,0,0-.215.116.116,0,0,0-.036-.039.038.038,0,0,0-.032,0,.082.082,0,0,0-.036.088c0,.03.012.058.017.088a.458.458,0,0,0,.023.093.194.194,0,0,0,.015.031.3.3,0,0,1-.057.125c-.032.04-.129.115-.208.065a.248.248,0,0,1-.1-.144c-.005-.015-.008-.03-.013-.046a.6.6,0,0,0,.1-.126.386.386,0,0,0,.037-.122.287.287,0,0,0,0-.155.057.057,0,0,0-.037-.038.1.1,0,0,0-.072.01.133.133,0,0,0-.065.107,1.019,1.019,0,0,0-.019.145.637.637,0,0,0,.022.193.8.8,0,0,1-.143.108s.005.008.009.005a.8.8,0,0,0,.137-.1h0a.293.293,0,0,0,.092.161.156.156,0,0,0,.09.034.239.239,0,0,0,.127-.032.26.26,0,0,0,.126-.16l.016.007a.109.109,0,0,0,.128-.039.332.332,0,0,0,.05-.148.74.74,0,0,0,.008-.079.2.2,0,0,0,.022.025.106.106,0,0,0,.11.024c.034-.016.022-.053.018-.075s-.008-.034-.012-.051,0-.013,0-.019c.033.02.051.049.109.045a.022.022,0,0,0,.018-.008.067.067,0,0,0,0-.034.178.178,0,0,0,.107.019.127.127,0,0,0,.094-.083.389.389,0,0,0,.035-.107c.02.031.039.063.057.094a1.79,1.79,0,0,1,.139.312c.02.059.04.118.062.177,0,.011.042.009.039,0a2.561,2.561,0,0,0-.143-.392,2.023,2.023,0,0,0-.111-.194l-.038-.058a.154.154,0,0,0-.028-.085C130.8,264.93,130.777,264.935,130.771,264.942Zm-1.064.526a.748.748,0,0,1,0-.139.5.5,0,0,1,.018-.11.1.1,0,0,1,.077-.074.036.036,0,0,1,.041.026.244.244,0,0,1,0,.141.446.446,0,0,1-.036.132.522.522,0,0,1-.089.119A.654.654,0,0,1,129.707,265.467Zm.4,0c-.005-.027-.012-.054-.017-.081a.106.106,0,0,1,.008-.086.126.126,0,0,1,.029.081.448.448,0,0,1-.009.105l0,.018C130.111,265.5,130.108,265.485,130.105,265.472Z" transform="translate(-129.55 -264.42)"/><path class="ac" d="M134.953,263.1c-.01-.007-.035,0-.035.006s.009.02.02.029l0,0a.119.119,0,0,1,.006.047.4.4,0,0,1-.013.086.327.327,0,0,1-.01.039.1.1,0,0,1-.009.018l0,0a.121.121,0,0,1-.034-.013.508.508,0,0,0-.05-.019c-.011,0-.033,0-.032.008a.153.153,0,0,1,0,.084.018.018,0,0,1-.014.013c-.009,0-.026-.014-.032-.018a.14.14,0,0,0-.049-.028c-.011,0-.027,0-.028.008a.177.177,0,0,0,.009.049c0,.01.016.049,0,.056s-.034-.015-.05-.039a.062.062,0,0,0-.033-.064c-.01,0-.031,0-.031.006a.1.1,0,0,0,.025.058v0a.284.284,0,0,1-.015.077.186.186,0,0,1-.07.118.09.09,0,0,1-.1-.017.271.271,0,0,0,0-.157.375.375,0,0,0-.193-.227.03.03,0,0,0-.025,0c-.027.015-.023.041-.02.06a.331.331,0,0,0,.031.083.932.932,0,0,0,.105.18.377.377,0,0,0,.077.075.243.243,0,0,1-.032.067s.01.008.013,0a.23.23,0,0,0,.038-.06.142.142,0,0,0,.113.015.16.16,0,0,0,.1-.119.441.441,0,0,0,.016-.065.08.08,0,0,0,.061.019c.059-.007.04-.06.03-.1a.147.147,0,0,0,.035.024.077.077,0,0,0,.068,0,.056.056,0,0,0,.019-.049.2.2,0,0,0,0-.034.2.2,0,0,0,.069.022c.052,0,.058-.038.063-.058a.612.612,0,0,0,.018-.1.156.156,0,0,0,0-.016h0a.784.784,0,0,1,.08.089.74.74,0,0,1,.089.133.263.263,0,0,0-.119.058c-.042.038-.094.134.021.149a.135.135,0,0,0,.163-.1.185.185,0,0,0-.017-.092.4.4,0,0,1,.1,0c.023,0,.032-.015.007-.018a.5.5,0,0,0-.116,0,.548.548,0,0,0-.045-.072,1.179,1.179,0,0,0-.079-.1.744.744,0,0,0-.061-.061l-.03-.022A.083.083,0,0,0,134.953,263.1Zm-.625.438a.974.974,0,0,1-.093-.154.48.48,0,0,1-.034-.077c0-.016-.015-.043,0-.06a.367.367,0,0,1,.174.209.3.3,0,0,1,.011.141A.43.43,0,0,1,134.329,263.538Zm.819.028a.1.1,0,0,1-.1.011c-.031-.022-.012-.06,0-.084a.2.2,0,0,1,.117-.076A.118.118,0,0,1,135.147,263.565Z" transform="translate(-132.873 -263.096)"/></g><g transform="translate(2.712)"><path class="ac" d="M140.143,260.073a.058.058,0,0,0-.023.041.41.41,0,0,0-.019.1.141.141,0,0,0-.057-.031.039.039,0,0,0-.028,0,.075.075,0,0,0-.029.036.1.1,0,0,0-.1-.036.112.112,0,0,0-.083.085.236.236,0,0,0-.009.044,1.2,1.2,0,0,1-.046-.117.517.517,0,0,0-.1-.2.146.146,0,0,0-.172-.055.169.169,0,0,0-.064.061.25.25,0,0,0-.039.083.318.318,0,0,0-.008.042l-.092-.047c-.008,0-.029,0-.017.005.034.021.072.04.108.06a.51.51,0,0,0,.01.127.414.414,0,0,0,.038.13.067.067,0,0,0,.037.035.068.068,0,0,0,.059-.009c.068-.049.047-.125.016-.179a.3.3,0,0,0-.122-.1.242.242,0,0,1,.079-.178.07.07,0,0,1,.041-.022.081.081,0,0,1,.053.02.282.282,0,0,1,.057.062.577.577,0,0,1,.075.171,1.8,1.8,0,0,0,.069.169l.007.016a.2.2,0,0,0,.025.154c.006.009.036.006.038,0a.233.233,0,0,0-.023-.154v-.009a.4.4,0,0,1,.02-.12.089.089,0,0,1,.045-.054.043.043,0,0,1,.048.014.177.177,0,0,1,.048.07c0,.009,0,.018.008.026s.042.009.04,0a.166.166,0,0,0,0-.017.16.16,0,0,1-.006-.039.073.073,0,0,1,.016-.051c.042.019.058.056.08.082.008.01.043,0,.037-.007a.207.207,0,0,1,0-.149.4.4,0,0,1,.013-.039.086.086,0,0,1,.022.038c.008.028.012.056.022.083a.8.8,0,0,0,.037.087,1.45,1.45,0,0,0,.093.166.656.656,0,0,0,.153.171c.007.005.034,0,.026-.005a1.494,1.494,0,0,1-.149-.184,1.31,1.31,0,0,1-.105-.2.528.528,0,0,1-.032-.1.107.107,0,0,0-.037-.075A.051.051,0,0,0,140.143,260.073Zm-.684.145a.159.159,0,0,1,.05.166.109.109,0,0,1-.023.035l-.011.01,0,0c-.016-.006-.022-.025-.027-.035a.443.443,0,0,1-.031-.114.633.633,0,0,1-.012-.107A.356.356,0,0,1,139.459,260.217Z" transform="translate(-139.255 -258.802)"/><path class="ac" d="M143.874,259a.271.271,0,0,0-.12.009.447.447,0,0,0-.052-.045.786.786,0,0,0-.126-.08c-.01-.005-.042,0-.036.009a.321.321,0,0,1,.034.114.079.079,0,0,1-.008.058c-.012.016-.035.006-.054,0s-.031,0-.032.006.01.039,0,.042-.047-.022-.058-.025-.025,0-.026,0,.015.039,0,.054a.313.313,0,0,1-.044-.025c-.008-.005-.036-.006-.031,0a.356.356,0,0,1,.016.04c0,.01.015.038,0,.046s-.011,0-.018-.005l-.023-.016a.141.141,0,0,0-.044-.024c-.009,0-.027,0-.027.006a.466.466,0,0,0,.006.065.161.161,0,0,1,0,.037c0,.008,0,.025-.015.03-.045.018-.113-.1-.123-.121s-.035-.009-.031,0a.832.832,0,0,1,.038.1c.007.032.015.08-.049.094-.011,0,0,.01.011.009a.074.074,0,0,0,.07-.089.117.117,0,0,0,0-.017.11.11,0,0,0,.1.04c.043-.006.044-.041.044-.061a.579.579,0,0,0-.006-.066c.028.019.058.047.1.03.024-.01.022-.03.019-.045a.164.164,0,0,0-.007-.027l.019.011a.033.033,0,0,0,.024,0c.028-.012.025-.031.02-.049a.073.073,0,0,0,.061.012c.027-.007.025-.023.023-.038a.1.1,0,0,0,.067,0,.057.057,0,0,0,.029-.055.265.265,0,0,0-.018-.1l.047.031a.439.439,0,0,1,.075.064.151.151,0,0,0-.034.022c-.027.022-.032.067.03.07s.075-.034.068-.059a.1.1,0,0,0-.015-.029.191.191,0,0,1,.091-.008C143.88,259.022,143.9,259,143.874,259Zm-.132.081c-.007.015-.026.02-.035,0s.008-.03.026-.041l0,0A.04.04,0,0,1,143.742,259.081Z" transform="translate(-141.988 -258.043)"/><path class="ac" d="M144.885,256.5c.018.056.039.112.054.169a1.321,1.321,0,0,1,.033.172c.007.058.009.115.019.173h0a.939.939,0,0,0-.092-.112.529.529,0,0,0-.14-.1.169.169,0,0,0-.142-.005.152.152,0,0,0-.051.037h-.007l-.055,0a.176.176,0,0,1-.063-.007c-.008,0-.027,0-.016,0,.028.02.088.013.127.018h0a.157.157,0,0,0-.024.051.123.123,0,0,0,.122.163.094.094,0,0,0,.1-.072.137.137,0,0,0-.089-.125.3.3,0,0,0-.06-.023.135.135,0,0,1,.032-.026.114.114,0,0,1,.122.013.553.553,0,0,1,.12.095c.037.039.064.081.1.122.01.013.021.027.031.041s0,.007,0,.011a.061.061,0,0,0,.025.059c.011.007.035,0,.035-.006a.1.1,0,0,0-.023-.066h0c0-.03-.011-.06-.016-.089-.008-.056-.01-.113-.017-.169a.744.744,0,0,0-.1-.323C144.906,256.491,144.883,256.488,144.885,256.5Zm-.188.431a.07.07,0,0,1-.017.1c-.04.026-.081-.009-.1-.03a.117.117,0,0,1-.017-.1.148.148,0,0,1,.023-.054A.188.188,0,0,1,144.7,256.926Z" transform="translate(-142.978 -256.321)"/><path class="ac" d="M148.009,256.173a1.09,1.09,0,0,0-.228-.285c-.009-.008-.042-.006-.039.006a.4.4,0,0,1,.041.143.051.051,0,0,1-.018.039.364.364,0,0,1-.039.02.036.036,0,0,0-.021.029.327.327,0,0,0-.047-.03c-.01,0-.035,0-.036.006a.34.34,0,0,0,.005.058.077.077,0,0,1,0,.046.359.359,0,0,1-.079-.074.031.031,0,0,0-.039,0c-.012.023,0,.053,0,.077a.23.23,0,0,1,0,.046c0,.006,0,.027-.013.03,0,0-.006,0-.01,0a.06.06,0,0,1-.017-.014.151.151,0,0,1-.027-.044.2.2,0,0,1-.021-.08c0-.013-.04-.013-.04,0a1.8,1.8,0,0,1,0,.219.221.221,0,0,1-.044.11.218.218,0,0,1-.05.045.21.21,0,0,1-.084.036c-.028,0-.032-.025-.036-.036a.477.477,0,0,1-.016-.064.309.309,0,0,1,0-.036.2.2,0,0,0,.092-.212c0-.019-.019-.066-.072-.049a.046.046,0,0,0-.03.033.224.224,0,0,0-.01.055c0,.046-.017.092-.02.139,0,.012,0,.023,0,.035l-.031.021c-.01.006.015.012.024.008l.009-.006a.313.313,0,0,0,0,.032.231.231,0,0,0,.022.071c.025.044.1.026.145,0a.24.24,0,0,0,.114-.1.314.314,0,0,0,.028-.17.1.1,0,0,0,.02.018.08.08,0,0,0,.085,0c.024-.02.017-.052.015-.074s0-.026,0-.039a.241.241,0,0,0,.061.044.039.039,0,0,0,.028,0,.047.047,0,0,0,.032-.053.294.294,0,0,0,0-.044.182.182,0,0,0,.05.027c.013,0,.033,0,.033-.009s-.007-.026.005-.037a.289.289,0,0,1,.041-.021.065.065,0,0,0,.032-.061.206.206,0,0,0-.018-.077,1.131,1.131,0,0,1,.13.178l.035.051a.233.233,0,0,0-.124.088.191.191,0,0,0-.037.083.115.115,0,0,0,.032.1.167.167,0,0,0,.151.023.13.13,0,0,0,.092-.083.25.25,0,0,0-.065-.2.2.2,0,0,1,.045,0c.016,0,.024-.009.008-.013A.227.227,0,0,0,148.009,256.173Zm-.845.122c.006-.029.006-.059.012-.088a.125.125,0,0,1,.006-.022s.007-.01.01-.015l0,0a.058.058,0,0,1,.009.02.188.188,0,0,1,0,.1.184.184,0,0,1-.055.089A.511.511,0,0,1,147.164,256.295Zm.877.011a.127.127,0,0,1,0,.09.108.108,0,0,1-.1.066.084.084,0,0,1-.089-.084.118.118,0,0,1,.011-.066.209.209,0,0,1,.119-.114A.462.462,0,0,1,148.041,256.306Z" transform="translate(-144.895 -255.883)"/></g></g></g><g transform="translate(3.989 2.304)"><path class="d" d="M109.149,241.445l.089.051a.053.053,0,0,1,0,.1l-6.142,3.547a.194.194,0,0,1-.175,0l-.089-.052a.053.053,0,0,1,0-.1l6.142-3.547A.194.194,0,0,1,109.149,241.445Z" transform="translate(-102.796 -241.424)"/><path class="d" d="M111.069,242.553l.089.051a.053.053,0,0,1,0,.1l-6.142,3.546a.192.192,0,0,1-.175,0l-.089-.051a.053.053,0,0,1,0-.1l6.142-3.546A.194.194,0,0,1,111.069,242.553Z" transform="translate(-104.18 -242.223)"/><path class="d" d="M112.979,243.656l.089.051a.053.053,0,0,1,0,.1l-6.142,3.546a.192.192,0,0,1-.175,0l-.089-.051a.053.053,0,0,1,0-.1l6.142-3.546A.192.192,0,0,1,112.979,243.656Z" transform="translate(-105.556 -243.017)"/><g transform="translate(2.253 1.301)"><path class="d" d="M117.211,246.1l.089.051a.053.053,0,0,1,0,.1l-6.142,3.547a.192.192,0,0,1-.175,0l-.089-.051a.053.053,0,0,1,0-.1l6.142-3.546A.192.192,0,0,1,117.211,246.1Z" transform="translate(-110.857 -246.078)"/><path class="d" d="M119.131,247.208l.089.051a.053.053,0,0,1,0,.1l-6.142,3.547a.194.194,0,0,1-.175,0l-.089-.051a.053.053,0,0,1,0-.1l6.142-3.546A.192.192,0,0,1,119.131,247.208Z" transform="translate(-112.241 -246.877)"/><path class="d" d="M121.041,248.31l.089.051a.053.053,0,0,1,0,.1l-6.142,3.547a.194.194,0,0,1-.175,0l-.089-.052a.053.053,0,0,1,0-.1l6.142-3.547A.194.194,0,0,1,121.041,248.31Z" transform="translate(-113.617 -247.672)"/></g><g transform="translate(4.506 2.601)"><path class="d" d="M125.272,250.753l.089.051a.053.053,0,0,1,0,.1l-6.142,3.546a.192.192,0,0,1-.175,0l-.089-.051a.053.053,0,0,1,0-.1l6.143-3.546A.194.194,0,0,1,125.272,250.753Z" transform="translate(-118.919 -250.733)"/><path class="d" d="M127.193,251.862l.089.051a.053.053,0,0,1,0,.1l-6.142,3.547a.192.192,0,0,1-.175,0l-.089-.051a.053.053,0,0,1,0-.1l6.143-3.546A.192.192,0,0,1,127.193,251.862Z" transform="translate(-120.303 -251.531)"/><path class="d" d="M129.1,252.965l.089.051a.053.053,0,0,1,0,.1l-6.142,3.547a.193.193,0,0,1-.175,0l-.089-.051a.053.053,0,0,1,0-.1l6.142-3.546A.192.192,0,0,1,129.1,252.965Z" transform="translate(-121.679 -252.326)"/></g></g><g transform="translate(4.505 1.252)"><path class="ac" d="M104.645,240.746v.165a.382.382,0,0,0,.086.225l4.508-2.6v-.164a.984.984,0,0,0-.44-.111h-.006a.727.727,0,0,0-.3.062c-.327.148-.422.2-.622.279a.33.33,0,0,1-.307-.044l-.007-.006-.135-.124-.365-.338a.222.222,0,0,0-.173-.055h-.009a.541.541,0,0,0-.086.009,1.241,1.241,0,0,1-.375-.005.817.817,0,0,1-.406-.155.946.946,0,0,0-.628-.223h-.018a.919.919,0,0,0-.416.1.446.446,0,0,0-.273.487.439.439,0,0,0,.157.421.334.334,0,0,1,.1.192.445.445,0,0,1-.088.21.174.174,0,0,0-.049.11v.164a.106.106,0,0,0,.04.082l.423.387.135.124.015.015a.27.27,0,0,1-.031.044l-.545.426A.453.453,0,0,0,104.645,240.746Zm1.2-2.472a.319.319,0,0,1-.158.167.625.625,0,0,1-.474.028.514.514,0,0,1-.18-.1.155.155,0,0,1,.072-.294.468.468,0,0,1,.063-.028.615.615,0,0,1,.59.1A.321.321,0,0,1,105.849,238.274Z" transform="translate(-104.645 -237.66)"/><path class="i" d="M108.8,238.26h-.006a.727.727,0,0,0-.3.062c-.327.148-.422.2-.622.279a.33.33,0,0,1-.307-.044l-.007-.006-.135-.124-.365-.338a.222.222,0,0,0-.173-.055h-.009a.541.541,0,0,0-.086.009,1.241,1.241,0,0,1-.375-.005.817.817,0,0,1-.406-.155.946.946,0,0,0-.628-.223h-.018a.919.919,0,0,0-.416.1.43.43,0,0,0-.116.744.446.446,0,0,1,.012.565c-.1.124-.008.192-.008.192l.423.387.135.124c.1.092-.016.223-.016.223l-.545.426c-.235.212-.223.385-.1.552l4.508-2.6A.984.984,0,0,0,108.8,238.26Zm-3.038-.276a.265.265,0,0,1-.071.457.625.625,0,0,1-.474.028.514.514,0,0,1-.18-.1.265.265,0,0,1,.072-.457.469.469,0,0,1,.063-.028A.615.615,0,0,1,105.761,237.983Z" transform="translate(-104.644 -237.66)"/></g></g></g><g transform="translate(28.226 30.793)"><path class="q" d="M143.4,239.84l6.677,3.858,1.141.232a.035.035,0,0,0,.038-.051l-.357-.655-6.678-3.859C143.994,239.236,143.223,239.738,143.4,239.84Z" transform="translate(-143.373 -238.675)"/><g transform="translate(0.206)"><path class="ad" d="M144.665,237a.12.12,0,0,1,.033.012l-.064-.037-.012-.006h0l-.013-.005-.006,0-.011,0-.018,0h-.02a.278.278,0,0,0-.137.042.677.677,0,0,0-.306.53.32.32,0,0,0,.008.076.062.062,0,0,0,0,.014.028.028,0,0,0,0,.008l.005.015a.183.183,0,0,0,.025.046l.007.009h0l.008.008.014.012.011.007,0,0,.073.042a.13.13,0,0,1-.033-.026.243.243,0,0,0,.176-.037.676.676,0,0,0,.306-.53A.244.244,0,0,0,144.665,237Zm-.452.73.005,0Z" transform="translate(-144.11 -236.949)"/><path class="n" d="M151.266,240.8l-.432.75-.073-.042-6.3-3.637a.13.13,0,0,1-.033-.026.244.244,0,0,1-.056-.172.676.676,0,0,1,.306-.53.275.275,0,0,1,.137-.042.175.175,0,0,1,.039,0,.12.12,0,0,1,.033.012l.005,0h0Z" transform="translate(-144.299 -237.056)"/><path class="s" d="M167.476,250.3c.169-.1.306-.018.306.177a.676.676,0,0,1-.306.53c-.169.1-.306.018-.306-.177A.676.676,0,0,1,167.476,250.3Z" transform="translate(-160.726 -246.539)"/><path class="d" d="M168.134,250.756l-.008-.009-.39-.429h0l0,0-.007-.008,0,0h0a.2.2,0,0,0-.245,0,.676.676,0,0,0-.306.53.2.2,0,0,0,.118.21h0l.022,0h.006l.566.124a.139.139,0,0,0,.1-.021.386.386,0,0,0,.175-.3A.144.144,0,0,0,168.134,250.756Z" transform="translate(-160.726 -246.54)"/><g transform="translate(2.215 1.418)"><path class="i" d="M152.228,242.036h0l-.01-.006a.08.08,0,0,0-.071.01.242.242,0,0,0-.109.189.081.081,0,0,0,.025.066h0l.013.008,4.649,2.684.306-.177Z" transform="translate(-152.036 -242.024)"/><path class="ac" d="M167.267,251.045l.432.249.306-.177-.584-.338A.737.737,0,0,0,167.267,251.045Z" transform="translate(-163.011 -248.333)"/></g><g transform="translate(6.808 3.989)"><path class="ad" d="M169.224,251.653h0l-.354-.389-.009-.011a.138.138,0,0,0-.174,0,.478.478,0,0,0-.216.374.142.142,0,0,0,.082.149h0l.014,0,.519.113h0a.078.078,0,0,0,.056-.012.217.217,0,0,0,.1-.17A.076.076,0,0,0,169.224,251.653Z" transform="translate(-168.47 -251.222)"/><path class="m" d="M169.224,251.653h0l-.354-.389-.009-.011a.138.138,0,0,0-.174,0,.478.478,0,0,0-.216.374.142.142,0,0,0,.082.149h0l.014,0,.519.113h0a.078.078,0,0,0,.056-.012.217.217,0,0,0,.1-.17A.076.076,0,0,0,169.224,251.653Z" transform="translate(-168.47 -251.222)"/><g transform="translate(0.288 0.209)"><path class="p" d="M169.987,252.247a.218.218,0,0,1-.1.17.079.079,0,0,1-.056.012h0l-.262-.057c-.041-.009-.068-.048-.068-.11a.348.348,0,0,1,.157-.273.1.1,0,0,1,.126,0l.007.008.176.193h0A.077.077,0,0,1,169.987,252.247Z" transform="translate(-169.502 -251.968)"/><ellipse class="m" cx="0.139" cy="0.08" rx="0.139" ry="0.08" transform="matrix(0.5, -0.866, 0.866, 0.5, 0.248, 0.416)"/></g></g><g transform="translate(1.064 0.754)"><path class="l" d="M148.1,239.654a.075.075,0,0,0-.077.008.239.239,0,0,0-.108.188.075.075,0,0,0,.032.07h0l1.144.661a.081.081,0,0,1-.025-.066.242.242,0,0,1,.109-.189.08.08,0,0,1,.071-.01Z" transform="translate(-147.918 -239.646)"/><path class="c" d="M148.135,239.724a.24.24,0,0,1-.108.188.076.076,0,0,1-.076.008.074.074,0,0,1-.032-.07.239.239,0,0,1,.108-.188.075.075,0,0,1,.077-.008A.076.076,0,0,1,148.135,239.724Z" transform="translate(-147.918 -239.646)"/></g><path class="p" d="M145.417,237.527h0l0,0,0,0-.452-.26-.01-.006h0a.2.2,0,0,0-.186.023.609.609,0,0,0-.275.477.193.193,0,0,0,.081.179h0l.457.264h0l0,0h0a.2.2,0,0,0,.191-.021.608.608,0,0,0,.275-.477A.2.2,0,0,0,145.417,237.527Z" transform="translate(-144.379 -237.159)"/><path class="ae" d="M145.417,237.527h0l0,0,0,0-.452-.26-.01-.006h0a.2.2,0,0,0-.186.023.609.609,0,0,0-.275.477.193.193,0,0,0,.081.179h0l.457.264h0l0,0h0a.2.2,0,0,0,.191-.021.608.608,0,0,0,.275-.477A.2.2,0,0,0,145.417,237.527Z" transform="translate(-144.379 -237.159)"/><path class="m" d="M146.4,238.225c.152-.088.275-.017.275.159a.609.609,0,0,1-.275.477c-.152.088-.275.016-.275-.159A.608.608,0,0,1,146.4,238.225Z" transform="translate(-145.562 -237.841)"/><g transform="translate(7.432 4.468)"><path class="i" d="M170.98,253.053h0l-.187-.112h0a.035.035,0,0,0-.037,0,.112.112,0,0,0-.05.087.035.035,0,0,0,.015.033h0l.186.112h0a.068.068,0,0,0,.034.009.072.072,0,0,0,.039-.132Z" transform="translate(-170.706 -252.937)"/><path class="j" d="M171.483,253.356h0l-.01-.008h0a.038.038,0,0,0-.032.006.111.111,0,0,0-.05.087.034.034,0,0,0,.014.032l0,0,0,0a.058.058,0,0,0,.023,0,.072.072,0,0,0,.072-.072A.07.07,0,0,0,171.483,253.356Z" transform="translate(-171.198 -253.232)"/></g></g></g><path class="q" d="M228.424,200.577l15.511-8.955a.678.678,0,0,1,.614,0l.538.31a.187.187,0,0,1,0,.354l-15.511,8.956a.678.678,0,0,1-.614,0l-.538-.311A.187.187,0,0,1,228.424,200.577Z" transform="translate(-176.338 -173.443)"/><g transform="translate(41.813)"><g transform="translate(0 9.065)"><path class="s" d="M191.992,168.7v-.1a.577.577,0,0,1,.261-.452l15.4-8.889a.577.577,0,0,1,.522,0l3.151,1.82a.577.577,0,0,1,.261.452v.1a.577.577,0,0,1-.261.452l-15.4,8.889a.578.578,0,0,1-.522,0l-3.151-1.82A.576.576,0,0,1,191.992,168.7Z" transform="translate(-191.992 -159.197)"/><g class="u"><path d="M191.992,168.7v-.1a.577.577,0,0,1,.261-.452l15.4-8.889a.577.577,0,0,1,.522,0l3.151,1.82a.577.577,0,0,1,.261.452v.1a.577.577,0,0,1-.261.452l-15.4,8.889a.578.578,0,0,1-.522,0l-3.151-1.82A.576.576,0,0,1,191.992,168.7Z" transform="translate(-191.992 -159.197)"/></g><g transform="translate(0.153)"><path class="s" d="M192.647,168.449l3.151,1.819a.576.576,0,0,0,.522,0l15.4-8.888a.159.159,0,0,0,0-.3l-3.151-1.82a.577.577,0,0,0-.522,0l-15.4,8.889A.159.159,0,0,0,192.647,168.449Z" transform="translate(-192.539 -159.197)"/></g><g class="aa" transform="translate(0.153)"><path d="M192.647,168.449l3.151,1.819a.576.576,0,0,0,.522,0l15.4-8.888a.159.159,0,0,0,0-.3l-3.151-1.82a.577.577,0,0,0-.522,0l-15.4,8.889A.159.159,0,0,0,192.647,168.449Z" transform="translate(-192.539 -159.197)"/></g></g><g transform="translate(8.57)"><path class="s" d="M239.825,141.366l1.1-13.36a1.259,1.259,0,0,0-.551-1.106,1.4,1.4,0,0,0-1.267.023l-14.631,8.447a1.614,1.614,0,0,0-.715,1.129l-1.1,13.36a1.259,1.259,0,0,0,.551,1.106,1.4,1.4,0,0,0,1.267-.023l14.631-8.447A1.613,1.613,0,0,0,239.825,141.366Z" transform="translate(-222.658 -126.759)"/><path class="w" d="M239.825,141.366l1.1-13.36a1.259,1.259,0,0,0-.551-1.106,1.4,1.4,0,0,0-1.267.023l-14.631,8.447a1.614,1.614,0,0,0-.715,1.129l-1.1,13.36a1.259,1.259,0,0,0,.551,1.106,1.4,1.4,0,0,0,1.267-.023l14.631-8.447A1.613,1.613,0,0,0,239.825,141.366Z" transform="translate(-222.658 -126.759)"/><g transform="translate(1.345)"><path class="p" d="M243.293,141.366l1.1-13.36a1.259,1.259,0,0,0-.551-1.106,1.4,1.4,0,0,0-1.266.023l-14.631,8.447a1.475,1.475,0,0,0-.475.48l2.274,1.313V149.9l12.832-7.409A1.613,1.613,0,0,0,243.293,141.366Z" transform="translate(-227.471 -126.759)"/><path class="q" d="M243.293,141.366l1.1-13.36a1.259,1.259,0,0,0-.551-1.106,1.4,1.4,0,0,0-1.266.023l-14.631,8.447a1.475,1.475,0,0,0-.475.48l2.274,1.313V149.9l12.832-7.409A1.613,1.613,0,0,0,243.293,141.366Z" transform="translate(-227.471 -126.759)"/></g><g transform="translate(1.226 0.782)"><path class="p" d="M227.048,152.583l1.1-13.36a1.614,1.614,0,0,1,.715-1.129l14.631-8.447c.361-.208.626-.041.591.375l-1.1,13.36a1.613,1.613,0,0,1-.715,1.129l-14.631,8.447C227.279,153.166,227.014,153,227.048,152.583Z" transform="translate(-227.045 -129.557)"/><path class="t" d="M227.048,152.583l1.1-13.36a1.614,1.614,0,0,1,.715-1.129l14.631-8.447c.361-.208.626-.041.591.375l-1.1,13.36a1.613,1.613,0,0,1-.715,1.129l-14.631,8.447C227.279,153.166,227.014,153,227.048,152.583Z" transform="translate(-227.045 -129.557)"/></g><g transform="translate(8.775 11.167)"><path class="ad" d="M254.063,168.639a2.537,2.537,0,0,1,1.071-1.8c.535-.31.923-.006.866.678a2.537,2.537,0,0,1-1.071,1.8C254.394,169.627,254.006,169.324,254.063,168.639Z" transform="translate(-254.057 -166.718)"/></g><g transform="translate(7.297 14.684)"><g transform="translate(1.216)"><path class="p" d="M253.733,181.747l3.6-2.09-.613-.354-3.595,2.091Z" transform="translate(-253.123 -179.303)"/></g><g class="aa" transform="translate(1.216)"><path d="M253.733,181.747l3.6-2.09-.613-.354-3.595,2.091Z" transform="translate(-253.123 -179.303)"/></g><g transform="translate(0 0.355)"><path class="p" d="M255.863,186.706l-4.379,2.529a.542.542,0,0,1-.281.063.557.557,0,0,1-.238-.06s0,0-.006,0l-1.929-1.114-.009-.006a.565.565,0,0,1-.251-.447v-.1c0-.166.115-.235.26-.151l1.165.67.26.151-.057-.3-.411-5.63.611.354,3.6-2.09,1.873,5.685A.453.453,0,0,1,255.863,186.706Z" transform="translate(-248.77 -180.574)"/></g><g class="af" transform="translate(0 0.355)"><path d="M255.863,186.706l-4.379,2.529a.542.542,0,0,1-.281.063.557.557,0,0,1-.238-.06s0,0-.006,0l-1.929-1.114-.009-.006a.565.565,0,0,1-.251-.447v-.1c0-.166.115-.235.26-.151l1.165.67.26.151-.057-.3-.411-5.63.611.354,3.6-2.09,1.873,5.685A.453.453,0,0,1,255.863,186.706Z" transform="translate(-248.77 -180.574)"/></g><g transform="translate(0.081 6.312)"><path class="p" d="M249.059,202.753l1.494-.862.3,2.01Z" transform="translate(-249.059 -201.891)"/></g><g transform="translate(0.081 6.312)"><path class="w" d="M249.059,202.753l1.494-.862.3,2.01Z" transform="translate(-249.059 -201.891)"/></g><g transform="translate(0 2.091)"><path class="p" d="M250.6,187.139l-.611-.354.411,5.63c.033.163-.06.229-.2.145l-1.165-.67c-.145-.084-.26-.015-.26.151v.1a.565.565,0,0,0,.251.447l.009.006,1.929,1.114s0,0,.006,0a.557.557,0,0,0,.238.06Z" transform="translate(-248.77 -186.785)"/></g><g class="ag" transform="translate(0 2.091)"><path d="M250.6,187.139l-.611-.354.411,5.63c.033.163-.06.229-.2.145l-1.165-.67c-.145-.084-.26-.015-.26.151v.1a.565.565,0,0,0,.251.447l.009.006,1.929,1.114s0,0,.006,0a.557.557,0,0,0,.238.06Z" transform="translate(-248.77 -186.785)"/></g></g></g></g></g><g transform="translate(54.257 41.827)"><g transform="translate(0 0)"><g transform="translate(1.103)"><g transform="translate(11.523 15.459)"><path class="ah" d="M224.051,156.919h0a89.177,89.177,0,0,1-3.51-9.3,116.71,116.71,0,0,1,.249-12.111c.246-2.653,1.029-3.914,2.74-4.5a3.828,3.828,0,0,1,2.294,2.289,10.633,10.633,0,0,1,.258,4.254l-.772,10.055,1.972,7.463a3.589,3.589,0,0,0,1.192,1.866,12.8,12.8,0,0,1,1.238,1.033,22.58,22.58,0,0,0,1.507,1.8c.608.549.411.646.008.811s-1.106-.241-1.684-.78c-.184-.171-.354-.311-.5-.426a11.753,11.753,0,0,0,1.9,3.674c.71.864.914,1.6-.113,1.925a4.071,4.071,0,0,1-3.708-.386,6.873,6.873,0,0,1-2.058-3.654A33.95,33.95,0,0,0,224.051,156.919Z" transform="translate(-220.051 -130.257)"/><path class="ac" d="M224.47,145.66l.148-2.846s.831-8.9.844-10.6c.015-1.931-.528-2.8-1.239-3.129a10.817,10.817,0,0,0-3.014-.745c-2.195,1.373-2.076,7.7-2.144,11.5s-.234,5.7.336,6.891S222.99,155,222.99,155a5.452,5.452,0,0,0,3.3-1.631Z" transform="translate(-218.989 -128.336)"/></g><g transform="translate(0 39.288)"><path class="ah" d="M181.969,376.466h3.43l.683-6.071h-4.113Z" transform="translate(-180.791 -326.579)"/><path class="ah" d="M221.106,353.677l3.654.121-.065-6.287-4.133-.079Z" transform="translate(-208.599 -310.033)"/><path class="ac" d="M178.969,213.845c-.067,3.329-.772,26.2-.772,26.2a48.867,48.867,0,0,0-.437,5.427c-.091,4.4.831,14.848.831,14.848.2.95,3.752,1.336,4.221.478,0,0,1.938-15.154,2.487-19.51.479-3.8,1.964-15.788,1.964-15.788l1.322,11.761a38.077,38.077,0,0,0,.1,4.277c.143,2.015,1.154,13.9,1.154,13.9.018.74,3.7,1.353,4.327.261,0,0,1.166-17.352,1.2-19.2.041-2.107-.253-22.9-.253-22.9Z" transform="translate(-177.754 -213.607)"/><path class="j" d="M183.459,384.545l.058-.518c.19,0,.272.214.35.67a9.94,9.94,0,0,0,.909,2.794,13.931,13.931,0,0,0,2.07,3.14,13.574,13.574,0,0,1,1.1,1.268c.214.381.29,1.443-.074,1.686a6.165,6.165,0,0,1-4.811.5,2.759,2.759,0,0,1-2.088-2.346,7.085,7.085,0,0,0-1.023-3.111,6.69,6.69,0,0,1-.806-1.061,3.643,3.643,0,0,1,.131-2.275c.165-.627.343-1.316.557-1.258,0,.077,0,.387,0,.387a3.474,3.474,0,0,0,1.963.6C182.315,385.037,183.463,384.941,183.459,384.545Z" transform="translate(-178.655 -336.402)"/><path class="j" d="M223.479,365.893c.09.06.3.3.665.639a13.267,13.267,0,0,0,1.183.914,22.005,22.005,0,0,0,2.631,1.652c1.088.6,2.068.961,3.367,1.547a1.054,1.054,0,0,1,.363.241.727.727,0,0,1,.158.323,1.348,1.348,0,0,1-.544,1.3,3.577,3.577,0,0,1-1.358.578,6.989,6.989,0,0,1-3.388.1,9.587,9.587,0,0,1-2.721-1.258,6.078,6.078,0,0,0-2.328-1,5.28,5.28,0,0,1-2.26-.507c-.7-.485-.422-1.52-.223-2.41.217-.971.266-2.452.708-2.421l.034.388c.039.419,1.054.612,1.84.613.651,0,1.882-.17,1.878-.476C223.484,366.12,223.478,365.9,223.479,365.893Z" transform="translate(-207.328 -323.12)"/><path class="ai" d="M212.51,231.711a11.122,11.122,0,0,0,3.743-2.405,6.752,6.752,0,0,1-3.046,3.18l.161,15.2-1.235-10.869Z" transform="translate(-202.526 -224.919)"/></g><g transform="translate(0.004 15.139)"><path class="j" d="M184.507,127.285c-.621.15-2.6.681-4.2,1.246a4.469,4.469,0,0,0-2.023,1.548c-1.163,1.7-.114,5.473.742,12.586-.066,4.593-.2,9.456-.2,9.456,2.111,1.538,11.962,2.583,16.406-.662,0,0,.147-16.389-.146-18.63-.562-4.289-2.242-5.436-5.709-5.638Z" transform="translate(-177.77 -127.191)"/></g><path class="p" d="M218.488,145.036c.312,1.073,2.057,8.157,1.929,10.822a5.228,5.228,0,0,1-1.3,3.545.952.952,0,0,1-1.606-.054,6.049,6.049,0,0,1-.963-2.623c-.148-1.424.639-6.355.419-11.429A1.092,1.092,0,0,1,218.488,145.036Z" transform="translate(-205.693 -124.769)"/><path class="p" d="M215.926,136.323c.731.624-.068,2.42-.068,2.42a2.068,2.068,0,0,0-1.522.26s-1.456-.622-1.458-1.7c0-.981,1.042-.667,1.783-.8C215.447,136.373,215.84,135.8,215.926,136.323Z" transform="translate(-203.062 -118.476)"/><path class="q" d="M215.858,139.851c-.119-.421-.692-.382-1.149-.526a1.243,1.243,0,0,1-.617-.53c-.235-.407,0-1.083.33-1.151h0c-.708.05-1.546-.11-1.544.769,0,1.077,1.458,1.7,1.458,1.7A2.068,2.068,0,0,1,215.858,139.851Z" transform="translate(-203.062 -119.584)"/><g transform="translate(3.22)"><path class="j" d="M205.594,80a4.489,4.489,0,1,0,4.38-4.595A4.489,4.489,0,0,0,205.594,80Z" transform="translate(-201.033 -74.735)"/><path class="j" d="M194.17,103.543a38.762,38.762,0,0,0,1.114,3.953,1.547,1.547,0,0,0,.911.7l-.108-2.4Z" transform="translate(-192.802 -95.013)"/><path class="j" d="M192.724,85.93a1.685,1.685,0,0,0-1.382.523c-.584.626-.2,2.534.586,4.393l1.374.125Z" transform="translate(-190.561 -82.316)"/><path class="ah" d="M192.428,85.168c-.271.171-.675-.348-1.022-.694a1.192,1.192,0,0,0-1.988.371,2.489,2.489,0,0,0,1.43,2.99c1.511.435,1.714-.533,1.714-.533l.257,6.126h0c1.069,1.305,3.349.95,4.6.7,1-.2,1.253-.481.269-1.567l-.046-1.755a9.469,9.469,0,0,0,2.025.056,2.745,2.745,0,0,0,2.079-2.286,18.227,18.227,0,0,0,.113-7.246c-.568-4.127-5.409-4.051-7.967-2.354S192.428,85.168,192.428,85.168Z" transform="translate(-189.276 -76.523)"/><path class="j" d="M197.4,82.128c-.138.006-.684-.853-1.033-1.156-.484-.42.034-4.338.034-4.338a1.894,1.894,0,0,1,.276-2.115c.632-.73,1.516-1.623,4.47-1.346,2.105.2,4.406.8,6.23-.153a3.143,3.143,0,0,1-1.015,3.364,6.306,6.306,0,0,1-2.41.7,25.98,25.98,0,0,1-4.871.024c-.511-.058-.608.439-.851,1.795C198.014,80.1,197.861,82.108,197.4,82.128Z" transform="translate(-194.234 -73.02)"/><path class="j" d="M192.716,83.437l-1.682-.852a.915.915,0,0,1,1.247-.446A.991.991,0,0,1,192.716,83.437Z" transform="translate(-190.543 -79.52)"/><path class="aj" d="M207.43,118.912a18.9,18.9,0,0,1-3.347-.874,2.835,2.835,0,0,1-1.218-1.149,3.882,3.882,0,0,0,.709,1.373c.649.79,3.872,1.356,3.872,1.356Z" transform="translate(-199.067 -104.629)"/><g transform="translate(6.665 6.13)"><path class="j" d="M215.914,101.126a.494.494,0,1,1-.467-.539A.5.5,0,0,1,215.914,101.126Z" transform="translate(-214.424 -99.013)"/><path class="j" d="M214.266,96.347l-1.085.528a.633.633,0,0,1,.289-.827A.589.589,0,0,1,214.266,96.347Z" transform="translate(-213.125 -95.7)"/><path class="aj" d="M217.187,113.692l1.54.421a.784.784,0,0,1-.966.586A.836.836,0,0,1,217.187,113.692Z" transform="translate(-216.034 -108.456)"/><path class="j" d="M230.09,95.772l-1.15-.394a.583.583,0,0,1,.752-.39A.638.638,0,0,1,230.09,95.772Z" transform="translate(-224.52 -94.955)"/><path class="j" d="M230.087,100.591a.494.494,0,1,1-.539-.467A.5.5,0,0,1,230.087,100.591Z" transform="translate(-224.636 -98.678)"/><path class="aj" d="M224.164,100.937l.178,2.968,1.547-.537Z" transform="translate(-221.079 -99.265)"/></g><g transform="translate(2.377 14.024)"><path class="ac" d="M203.544,126.783c-1.371-.288-4.369-1.128-4.682-2.711l-.04-.869c-.532-.005-.776.594-1.037,1.444-.11,2.238,2.25,4.282,4.623,4.833a3.611,3.611,0,0,1,.342-1.769A4.116,4.116,0,0,1,203.544,126.783Z" transform="translate(-197.781 -123.202)"/><path class="ac" d="M218.632,124.952a2.333,2.333,0,0,1,.957.573,4.114,4.114,0,0,1,.762,4.247s-.08-1.053-.6-1.409a2.59,2.59,0,0,0-1.351-.319,1.326,1.326,0,0,0,.269-1.567Z" transform="translate(-212.64 -124.463)"/></g></g></g><g transform="translate(29.837 0.711)"><path class="ak" d="M296.047,137.683c-1.055,3.076-2.374,8.455-2.374,8.455l-9.874,3.974.274,1.3-2.346-.965-1.152,1.184s1.281,3,2.992,2.615a11.165,11.165,0,0,0,1.2-.3c.539-.189.959-.427,1.378-.591.618-.242,1.251-.437,2.076-.682,3.227-.962,6.658-1.861,7.664-2.169,1.548-.474,1.569-.8,2.213-2.573.923-2.546,2.71-8.572,2.71-8.572v-5.69C298.775,133.69,297.189,134.353,296.047,137.683Z" transform="translate(-280.575 -117.43)"/><g transform="translate(12.898)"><g transform="translate(0 31.753)"><path class="ac" d="M390.872,369.9a28.033,28.033,0,0,1,.512,2.816c.137,1.066.222,1.855.532,3.675.283,1.66.5,2.928-.676,4.177-1.031,1.1-2.851,1.52-3.449.271-.684-1.427-.595-3.742-.5-5.185s.072-1.863.083-3.012c.01-1.012.061-1.426.117-2.3C388.6,370.284,389.765,369.985,390.872,369.9Z" transform="translate(-370.319 -319.397)"/><path class="j" d="M354.76,377.848l-.38-.056a8.215,8.215,0,0,0-.252-2.85l.542-1.466Z" transform="translate(-346.471 -321.975)"/><path class="j" d="M357.094,369.656a18.8,18.8,0,0,0-.584,3.272,13.913,13.913,0,0,0,.042,2.062l-.394.1-.09-4.372Z" transform="translate(-347.869 -319.223)"/><path class="j" d="M327.5,374.087s.018.478.224.634.639.629,2.741.5a4.869,4.869,0,0,0,3.557-1.3c.718-.655.907-2.376,1.015-3.188a5.994,5.994,0,0,1,1.473-3.19,1.4,1.4,0,0,0,.062-.816,2.648,2.648,0,0,0-2.49,1.828c-.753,1.925-1.342,4.16-3.042,4.694A29.184,29.184,0,0,1,327.5,374.087Z" transform="translate(-327.283 -317.116)"/><path class="ak" d="M347.555,239.689c-.016-1.356,0-3.16.124-5.55.143-2.784.163-4.954.152-7.9a42.063,42.063,0,0,0-.916-8.487c.838-8.592,1.144-17.474.129-20.739A18.9,18.9,0,0,0,344.5,191.9a6.252,6.252,0,0,1-1.152-2.715,17.578,17.578,0,0,1-6.207,1.208c-3.984.037-5.376-1.045-5.376-1.045s-1.8,20.819-1.422,27.614c.222,4.021.545,9.973.665,12.9.092,2.256.352,5.191.328,6.436a10.4,10.4,0,0,1-.634,3.17,22.661,22.661,0,0,1-1.305,3.215,3.243,3.243,0,0,1-.482.762,8.957,8.957,0,0,1-.891.865c-.643.555-.965.828-.91,1.343s.438.72.872.85a7.159,7.159,0,0,0,3.235,0,3.392,3.392,0,0,0,2.63-1.657,4.015,4.015,0,0,0,.247-.908,13.06,13.06,0,0,1,.791-3,6.774,6.774,0,0,1,.575-1.163,2.968,2.968,0,0,0,.653-1.308,3.025,3.025,0,0,0-.683-1.6l-.009-.013c-.356-.536-.259-.908-.134-2.6.27-3.656,1.014-6.285,1.639-10.725a20.463,20.463,0,0,0-.129-6.425c.424-2.909,1.16-5.962,1.593-7.969.7,4.2,1.151,5.738,1.532,8.917.529,4.407,3.008,13.632,3.4,16s.642,3.964.826,5.892c.159,1.671.283,5.034.493,6.565.336,2.449,2.86,1.7,3.268-.461C348.186,244.61,347.576,241.565,347.555,239.689Z" transform="translate(-327.002 -189.188)"/><path class="ac" d="M339.2,194.753c-.229,2.885-1.277,14.519-1.483,18.187-.165,2.937-.08,6.4,0,8.8,1.934,1.256,9.847,3.514,13.935-2.425.831,2.021,1.836,3.121,3.021,2.437,0,0,.87-8.492.906-13.962s-.621-8.091-1.948-10.061-2.282-3.357-2.282-3.357Z" transform="translate(-334.581 -192.922)"/><path class="ac" d="M335.831,359.534c-.3-.528-.573-.677-.861-1.132a2.255,2.255,0,0,0-.679,1.109c-.128.42-.465,2.484-.973,4.126a3.118,3.118,0,0,1-1.9,2.221,3.537,3.537,0,0,1-1.732.195h-.008c-1.092-.15-.837-.936-.837-.936-.253.347-1.294,1.2-1.911,1.823a.952.952,0,0,0,.08,1.24c.3.262,1.016.787,3.626.408,2.317-.336,2.859-1.407,3.079-1.889a11.459,11.459,0,0,0,.481-2.175,6.837,6.837,0,0,1,.813-2.307c.052-.09.1-.173.152-.245h0c.156-.229.34-.483.549-.735.162-.2.289-.288.337-.475A1.765,1.765,0,0,0,335.831,359.534Z" transform="translate(-326.729 -311.114)"/></g><g transform="translate(2.574 16.237)"><path class="s" d="M337.548,144.01c.06,1.155.579,5.336.579,5.336,4.714,3.191,11.583-.163,11.583-.163l1.286-8.7a5.3,5.3,0,0,1-.511-6.519l-3.741-.24-4-.02-2.046-.038a17.938,17.938,0,0,0-4.388,4.944C335.838,139.82,335.454,141.543,337.548,144.01Z" transform="translate(-335.938 -133.667)"/></g><g class="al" transform="translate(2.574 16.237)"><path class="v" d="M337.548,144.01c.06,1.155.579,5.336.579,5.336,4.714,3.191,11.583-.163,11.583-.163l1.286-8.7a5.3,5.3,0,0,1-.511-6.519l-3.741-.24-4-.02-2.046-.038a17.938,17.938,0,0,0-4.388,4.944C335.838,139.82,335.454,141.543,337.548,144.01Z" transform="translate(-335.938 -133.667)"/></g><path class="am" d="M358.254,163.9a3.854,3.854,0,0,0,3.857.488,3.521,3.521,0,0,0,2.167-2.85,3.1,3.1,0,0,1-1.956,3.379C359.923,165.895,358.376,164.429,358.254,163.9Z" transform="translate(-349.444 -137.513)"/><g transform="translate(2.632)"><path class="j" d="M341.34,88.409s7.053,2.75,7.053,1.519c1.323-2.451,3.993-3.239,3.993-7.526,0-4.472-3.716-6.661-7.433-6.661h0a6.753,6.753,0,0,0-5.793,3.239c-2.122.546-1.579,3.487.544,4.013Z" transform="translate(-337.35 -75.692)"/><path class="j" d="M374.385,118.082a2.721,2.721,0,1,1,3.612-.408A2.578,2.578,0,0,1,374.385,118.082Z" transform="translate(-363.154 -102.88)"/><g transform="translate(2.125 3.694)"><path class="ak" d="M352.672,101.428V95.987a1.293,1.293,0,0,0,1.726-.056,2.154,2.154,0,0,0,.66-2.865,1.515,1.515,0,0,0-2.422.318,7.894,7.894,0,0,1-3.773-1.6c-2.174-1.544-2.645-2.856-3.955-3.006-.615.469-1.212,1.852-1.149,5.5a5.43,5.43,0,0,0,1.873,4.451,2.768,2.768,0,0,0,2.234.253v2.557s-3.217,3.581-.624,3.421A6.627,6.627,0,0,0,352.672,101.428Z" transform="translate(-343.753 -88.783)"/><path class="j" d="M372.788,101.788v1.5h0a1.056,1.056,0,0,1-1.066-1.045v-1.445Z" transform="translate(-363.906 -97.437)"/><g transform="translate(4.453 3.888)"><path class="j" d="M359.689,103.175a.5.5,0,0,0,.467.525.5.5,0,0,0,.519-.479.5.5,0,0,0-.467-.525A.5.5,0,0,0,359.689,103.175Z" transform="translate(-359.688 -102.695)"/></g><g transform="translate(0.267 2.147)"><path class="j" d="M344.783,97.391l1.076-.6a.6.6,0,0,0-.83-.243A.632.632,0,0,0,344.783,97.391Z" transform="translate(-344.709 -96.466)"/></g><g transform="translate(3.459 7.228)"><path class="an" d="M357.506,114.646l-1.375.49a.713.713,0,0,0,.92.448A.748.748,0,0,0,357.506,114.646Z" transform="translate(-356.131 -114.646)"/></g><g transform="translate(0.686 3.781)"><path class="j" d="M346.207,102.792a.5.5,0,0,0,.467.525.5.5,0,0,0,.519-.479.5.5,0,0,0-.467-.525A.5.5,0,0,0,346.207,102.792Z" transform="translate(-346.207 -102.312)"/></g><g transform="translate(1.569 4.011)"><path class="an" d="M350.861,103.135l-.071,2.648-1.421-.432Z" transform="translate(-349.369 -103.135)"/></g><g transform="translate(4.112 8.476)"><path class="an" d="M358.467,120.841c1.147-.148,3.507-.813,3.875-1.728a2.365,2.365,0,0,1-.827,1.168,12.568,12.568,0,0,1-3.047,1.26Z" transform="translate(-358.467 -119.113)"/></g></g><path class="j" d="M345.5,75.779c-2.37-.541-3.315.145-5.712-.109a4.771,4.771,0,0,0-2.541.181,2.173,2.173,0,0,0-1.087,2.269,2.8,2.8,0,0,0,2.111,2.26s1.645-3.7,3.831-3.674A5.644,5.644,0,0,0,345.5,75.779Z" transform="translate(-336.148 -75.565)"/></g></g><g transform="translate(17.522 30.961)"><path class="j" d="M343.314,186.662l-.04,2.316a8.465,8.465,0,0,0,4.326,1.355c2.8.187,6.732-.915,7.82-1.738a3.823,3.823,0,0,1-.294-2.24,13.923,13.923,0,0,1-6.939,1.55C344.266,187.719,343.314,186.662,343.314,186.662Z" transform="translate(-343.274 -186.355)"/></g><path class="ak" d="M389.692,158.458h0a83.965,83.965,0,0,0,.629-9.25c-.224-1.373-2.588-9.229-3.407-11.614-.777-2.265-1.966-2.953-3.96-2.953a2.939,2.939,0,0,0-1.393,2.85,9.193,9.193,0,0,0,.844,3.429l3.517,9.981.206,6.933a3.228,3.228,0,0,1-.551,1.912,11.512,11.512,0,0,0-.8,1.206,20.3,20.3,0,0,1-.84,1.932c-.384.628-.189.662.2.7s.891-.49,1.252-1.1c.115-.195.226-.358.325-.5a10.567,10.567,0,0,1-.7,3.649c-.392.925-.378,1.614.589,1.63a4.393,4.393,0,0,0,3.4-1.428,6.175,6.175,0,0,0,.84-3.674A30.487,30.487,0,0,1,389.692,158.458Z" transform="translate(-353.34 -118.132)"/></g><g transform="translate(0 16.479)"><path class="ah" d="M253.694,194.184c-.383-.061-1.082-.152-1.543-.191-1.324-.112-3.045-.214-3.045-.214l.412-4.18,2.5.358a7.041,7.041,0,0,0,2.321-.055c1.009-.177,1.883-.879,2.907-.879.529,0,.828.338,1.151.751a6.138,6.138,0,0,1,.583.786,14.223,14.223,0,0,0,2.314,3.134.9.9,0,0,0,.8.138c.573.973-1.483,1.253-2.368,1.48a5.98,5.98,0,0,1-2.884-.052C256.125,195.034,254.077,194.245,253.694,194.184Z" transform="translate(-228.063 -173.084)"/><path class="ac" d="M177.454,131.987a6.617,6.617,0,0,0-2.686,1.6c-1.11,1.11-1.175,3-.614,4.887s5.431,10.327,6.153,11.617c.935,1.669,1.486,1.665,3.082,1.856,1.988.238,13.911,1.018,13.911,1.018.7-.137,1.071-3.618.373-4.252l-12.559-1.96-4.242-9.2S179.725,132.312,177.454,131.987Z" transform="translate(-173.808 -131.987)"/><g transform="translate(25.368 15.797)"><path class="ak" d="M280.317,189.1a3.7,3.7,0,0,1-2.3-.322,2.327,2.327,0,0,0-1.861-.122c-.661.21-1.421.36-1.691.75-.083.12-.352.943-.558,1.552.018.3.738.409,1.054-.03.27-.376.33-.594.451-.733a8.041,8.041,0,0,1,1.439,0l3.3,1.476Z" transform="translate(-271.303 -188.513)"/><path class="ak" d="M264.684,206.123a1.165,1.165,0,0,1,.963-.487,6.81,6.81,0,0,1,1.244.065c.373.044.747.073,1.12.118.189.023.378.05.565.086.122.023.289.109.272.261a1.558,1.558,0,0,1,.486-.125.645.645,0,0,1,.468.149c.276.253.085.646-.093.894a1.428,1.428,0,0,1-.828.61,5.039,5.039,0,0,1-1.935-.1C266.309,207.436,264.09,206.732,264.684,206.123Z" transform="translate(-264.584 -200.845)"/></g></g></g></g><g transform="translate(75.267 29.728)"><g transform="translate(0 0)"><ellipse class="p" cx="9.85" cy="8.628" rx="9.85" ry="8.628" transform="translate(1.102)"/><path class="p" d="M252.169,77.773a5.088,5.088,0,0,1-3.093,3.756.122.122,0,0,0,0,.233,5.311,5.311,0,0,0,5.59-1.649Z" transform="translate(-248.991 -64.347)"/><path class="p" d="M309.556,77.773a5.087,5.087,0,0,0,3.093,3.756.122.122,0,0,1,0,.233,5.311,5.311,0,0,1-5.59-1.649Z" transform="translate(-290.829 -64.347)"/><g transform="translate(3.649 6.941)"><path class="l" d="M263.734,54.565a2.133,2.133,0,0,1,.727.118,1.719,1.719,0,0,1,.569.332,1.527,1.527,0,0,1,.375.511,1.759,1.759,0,0,1,.153.649c0,.081.006.155.006.222v.384c0,.066,0,.137-.006.214a1.783,1.783,0,0,1-.15.652,1.537,1.537,0,0,1-.366.508,1.664,1.664,0,0,1-.557.332,2.087,2.087,0,0,1-.721.118H262.2a.157.157,0,0,1-.156-.156V54.721a.157.157,0,0,1,.156-.156Zm.756,1.587q-.034-.664-.785-.664h-.588v2.193h.617q.727,0,.756-.664.006-.121.006-.228v-.412Q264.5,56.273,264.49,56.152Z" transform="translate(-262.049 -54.565)"/><path class="l" d="M279.868,57.681a.157.157,0,0,1,.156.156v.612a.157.157,0,0,1-.156.156h-2.735a.157.157,0,0,1-.156-.156V54.721a.157.157,0,0,1,.156-.156h2.689a.157.157,0,0,1,.156.156v.611a.157.157,0,0,1-.156.156h-1.777v.623h1.65a.157.157,0,0,1,.156.156v.611a.157.157,0,0,1-.156.156h-1.65v.646Z" transform="translate(-272.805 -54.565)"/><path class="l" d="M291.511,54.565a.233.233,0,0,1,.176.063.376.376,0,0,1,.084.127l1.258,3.635a.263.263,0,0,1,.023.086.128.128,0,0,1-.127.127H292.2a.227.227,0,0,1-.165-.049.215.215,0,0,1-.06-.1l-.162-.479h-1.535l-.162.479a.215.215,0,0,1-.06.1.228.228,0,0,1-.165.049h-.727a.128.128,0,0,1-.127-.127.261.261,0,0,1,.023-.086l1.258-3.635a.374.374,0,0,1,.084-.127.233.233,0,0,1,.176-.063Zm-.935,2.522h.935l-.468-1.385Z" transform="translate(-281.494 -54.565)"/><path class="l" d="M307.907,57.681a.158.158,0,0,1,.156.156v.612a.158.158,0,0,1-.156.156h-2.672a.158.158,0,0,1-.156-.156V54.721a.158.158,0,0,1,.156-.156h.756a.158.158,0,0,1,.156.156v2.96Z" transform="translate(-293.054 -54.565)"/></g></g></g></g></svg>