<svg xmlns="http://www.w3.org/2000/svg" xmlns:xlink="http://www.w3.org/1999/xlink" width="100.122" height="96.986" viewBox="0 0 100.122 96.986"><defs><style>.a{fill:none;}.b{fill:#f4f7fa;}.c{fill:url(#a);}.d{clip-path:url(#b);}.e{mix-blend-mode:soft-light;}.af,.ag,.ah,.ao,.e,.o,.s,.u{isolation:isolate;}.f{fill:#fcfdfe;}.g{fill:#d8dee8;}.h{clip-path:url(#c);}.i{clip-path:url(#d);}.j{fill:url(#e);}.k{fill:#beb8f2;}.l{fill:url(#f);}.m{fill:url(#g);}.n{fill:url(#h);}.af,.ag,.ah,.ao,.o,.s,.u{opacity:0.3;mix-blend-mode:multiply;}.o{fill:url(#i);}.p{fill:url(#j);}.q{fill:#de8bdf;}.r{fill:url(#k);}.s{fill:url(#l);}.t,.u{fill:url(#m);}.v{fill:url(#o);}.w{fill:url(#p);}.x{fill:url(#q);}.y{fill:url(#r);}.z{fill:url(#s);}.aa{fill:url(#t);}.ab{fill:#fff;}.ac{fill:url(#u);}.ad{fill:url(#v);}.ae{fill:url(#w);}.af{fill:url(#x);}.ag{fill:url(#y);}.ai{fill:url(#aa);}.aj{fill:url(#ac);}.ak{fill:url(#ad);}.al{fill:url(#ae);}.am{fill:url(#af);}.an{fill:url(#ag);}.ao{fill:url(#ah);}</style><linearGradient id="a" x1="-0.717" y1="1.79" x2="-0.253" y2="3.735" gradientUnits="objectBoundingBox"><stop offset="0" stop-color="#ffc444"/><stop offset="0.996" stop-color="#f36f56"/></linearGradient><clipPath id="b"><path class="a" d="M734.573,942.3c-1.821,4.6-3.484,9.353-5.292,13.995-2.822.051-6.142.041-6.546-3.45-.561-4.853-8.776-7.228-12.7-7.572-4.862-.425-15.285-2.32-12.638-8.991,2.2-5.553,5.764-8.1-.354-12.083s-8.338-9.058-4.994-14.844c3.519-6.088-2.106-14.992,4.218-18.623,11.019-6.327,17.815,12.446,16.486,22.406s4.278,8.141,10.589,10.516c8.616,3.241.624,10.881,3.61,14.995C729.288,941.88,731.32,941.446,734.573,942.3Z" transform="translate(-690.489 -889.463)"/></clipPath><clipPath id="c"><path class="a" d="M1734.67,884.68c1.771,4.261,3.4,8.67,5.157,12.971,2.633,0,5.73-.058,6.052-3.321.447-4.536,8.073-6.881,11.731-7.263,4.528-.473,14.221-2.405,11.647-8.585-2.143-5.145-5.5-7.465.14-11.276s7.635-8.581,4.425-13.925c-3.378-5.624,1.729-14.017-4.228-17.305-10.378-5.729-16.422,11.89-15.026,21.16s-3.862,7.662-9.712,9.976c-7.986,3.159-.411,10.159-3.131,14.044C1739.594,884.2,1737.691,883.828,1734.67,884.68Z" transform="translate(-1734.67 -834.855)"/></clipPath><clipPath id="d"><path class="a" d="M1072.32,546.235q5.867-.935,11.712-2.123c.065.052,1.158-7.958-3-12.059-8.209-7.941-2.989-15.335-1.554-19.681,2.316-6.135.874-13.5-6.25-11.964-6.944,1.341-8.328-12.074-7.375-22.451.905-5.06-4.322-11.065-9.424-12.354-5.212-1.438-10.3,1.84-11.637,11.916-2.114,11.678,7.123,18.5,10.621,24.256,3.442,5.653-4.13,10.446,2.178,15.385,5.312,4.395,11.947,7.495,9.686,13.2C1064.953,536.012,1065.654,540.574,1072.32,546.235Z" transform="translate(-1044.486 -465.281)"/></clipPath><linearGradient id="e" x1="2.974" y1="1.666" x2="2.307" y2="2.597" gradientUnits="objectBoundingBox"><stop offset="0" stop-color="#ff9085"/><stop offset="1" stop-color="#fb6fbb"/></linearGradient><linearGradient id="f" x1="1.21" y1="0.814" x2="0.347" y2="0.446" gradientUnits="objectBoundingBox"><stop offset="0" stop-color="#444b8c"/><stop offset="0.996" stop-color="#26264f"/></linearGradient><linearGradient id="g" x1="0.452" y1="-0.413" x2="0.523" y2="0.938" xlink:href="#f"/><linearGradient id="h" x1="0.549" y1="-0.06" x2="0.364" y2="2.015" gradientUnits="objectBoundingBox"><stop offset="0" stop-color="#aa80f9"/><stop offset="0.996" stop-color="#6165d7"/></linearGradient><linearGradient id="i" x1="0.548" y1="-0.051" x2="0.365" y2="2.007" xlink:href="#h"/><linearGradient id="j" x1="0.441" y1="-8.055" x2="0.614" y2="16.64" xlink:href="#f"/><linearGradient id="k" x1="1.007" y1="-0.542" x2="0.94" y2="2.012" xlink:href="#e"/><linearGradient id="l" x1="1.07" y1="-0.573" x2="1.006" y2="1.889" xlink:href="#e"/><linearGradient id="m" x1="2.488" y1="-1.884" x2="2.222" y2="1.759" xlink:href="#e"/><linearGradient id="o" x1="2.487" y1="-1.903" x2="2.222" y2="1.767" xlink:href="#e"/><linearGradient id="p" x1="-6.444" y1="-3.524" x2="-6.212" y2="6.387" xlink:href="#f"/><linearGradient id="q" x1="-17.278" y1="1.882" x2="-17.632" y2="-8.958" xlink:href="#a"/><linearGradient id="r" x1="2.398" y1="-1.189" x2="2.698" y2="2.684" xlink:href="#f"/><linearGradient id="s" x1="2.266" y1="1.268" x2="2.088" y2="-3.814" xlink:href="#a"/><linearGradient id="t" x1="-3.122" y1="0.668" x2="-2.117" y2="0.31" xlink:href="#h"/><linearGradient id="u" x1="-0.714" y1="0.737" x2="0.904" y2="0.111" xlink:href="#h"/><linearGradient id="v" x1="0" y1="0.5" x2="1" y2="0.5" xlink:href="#e"/><linearGradient id="w" x1="0.577" y1="0.683" x2="0.361" y2="0.44" xlink:href="#f"/><linearGradient id="x" x1="-4.183" y1="0.693" x2="-2.779" y2="0.332" xlink:href="#h"/><linearGradient id="y" x1="-2.887" y1="0.5" x2="-1.887" y2="0.5" xlink:href="#e"/><linearGradient id="aa" x1="0.352" y1="-0.146" x2="0.565" y2="0.812" xlink:href="#e"/><linearGradient id="ac" x1="0.329" y1="0.554" x2="-0.255" y2="0.738" gradientUnits="objectBoundingBox"><stop offset="0" stop-color="#fcb148"/><stop offset="0.052" stop-color="#fdb946"/><stop offset="0.142" stop-color="#fec144"/><stop offset="0.318" stop-color="#ffc444"/><stop offset="0.485" stop-color="#fdb946"/><stop offset="0.775" stop-color="#f99c4c"/><stop offset="0.866" stop-color="#f8924f"/><stop offset="1" stop-color="#f8924f"/></linearGradient><linearGradient id="ad" x1="0.727" y1="0.007" x2="0.207" y2="1.135" gradientUnits="objectBoundingBox"><stop offset="0" stop-color="#ffdb44"/><stop offset="1" stop-color="#feef06"/></linearGradient><linearGradient id="ae" x1="0.636" y1="1.231" x2="0.531" y2="0.666" xlink:href="#ac"/><linearGradient id="af" x1="0.409" y1="0.31" x2="0.858" y2="1.247" xlink:href="#ac"/><linearGradient id="ag" x1="0.253" y1="0.019" x2="0.711" y2="1.039" xlink:href="#ad"/><linearGradient id="ah" x1="0.464" y1="0.369" x2="1.215" y2="1.306" xlink:href="#ac"/></defs><g transform="translate(1)"><rect class="a" width="90" height="90"/><g transform="translate(-441.368 -455)"><path class="b" d="M506.91,457.069a79.233,79.233,0,0,0-22.4-1.919c-6.6.443-14.089,1.651-19.4,5.98-2.533,2.063-5.553,5.77-6.381,9.04,0,0-4.36,17.213-13.081,20.9S430.867,557.712,497,551.564c0,0,38.842-1.611,41.181-48.012.565-11.209.249-23.532-6.519-32.9-5.186-7.182-12.453-10.376-20.8-12.61Q508.9,457.514,506.91,457.069Z" transform="translate(0 0)"/><g transform="translate(449.031 470.049)"><g transform="translate(0)"><path class="c" d="M723.97,954.126a5.93,5.93,0,0,0,2.556-1.138c2.111-2.364,6.352-6.532,6.366-9.882,0-.572-2.512-1.262-2.836-1.808a6.773,6.773,0,0,1-3.1-2.51c-3.057-4.39,5.01-11.762-3.626-15.076-6.326-2.428-11.917-.548-10.591-10.523s-5.468-28.732-16.487-22.41c-6.324,3.628-.7,12.536-4.218,18.623-3.345,5.784-1.123,10.86,4.995,14.844s2.555,6.525.354,12.084c-2.644,6.677,7.766,8.546,12.645,9C713.953,945.692,723.713,949.272,723.97,954.126Z" transform="translate(-690.474 -889.504)"/><g transform="translate(0.001)"><g class="d"><g class="e" transform="translate(-1.331 -1.598)"><path class="f" d="M950.284,889.665a58.012,58.012,0,0,0,16.553,14.083l.081-.142a58.526,58.526,0,0,1-23.795-25.573,70.756,70.756,0,0,1-6.616-34.7l-.163-.009a70.919,70.919,0,0,0,6.632,34.784A60.264,60.264,0,0,0,950.284,889.665Z" transform="translate(-926.383 -843.32)"/><path class="f" d="M847.784,2287.926c6.238-1.62,16.464-1.03,22.8,1.314l.057-.153c-6.358-2.354-16.628-2.947-22.894-1.32Z" transform="translate(-840.965 -2236.849)"/><path class="f" d="M1611.078,1888.275q.314.39.666.75l.117-.114c-2.451-2.511-3.539-6.163-3.234-10.858a39.937,39.937,0,0,1,2.836-11.629l-.152-.059a40.093,40.093,0,0,0-2.846,11.677C1608.184,1882.338,1609.063,1885.775,1611.078,1888.275Z" transform="translate(-1575.287 -1830.929)"/><path class="f" d="M652.072,1593.685c4.872.533,11.593,2.2,15.939,7.136l.122-.108c-4.38-4.973-11.142-6.655-16.043-7.19Z" transform="translate(-652.072 -1567.537)"/><path class="f" d="M976.83,916.023l.163,0c-.03-3.2.893-9.646,7.416-16.814l-.121-.11C977.728,906.307,976.8,912.8,976.83,916.023Z" transform="translate(-965.581 -897.165)"/></g></g></g></g></g><g transform="translate(485.2 468.158)"><g transform="translate(0 0)"><path class="g" d="M1788.413,895.541a5.532,5.532,0,0,1-2.4-1.021c-2.007-2.171-6.028-5.993-6.094-9.118-.011-.534,2.323-1.217,2.617-1.731a6.321,6.321,0,0,0,2.854-2.391c2.782-4.143-4.859-10.892,3.145-14.12,5.863-2.364,11.108-.7,9.714-9.982s4.648-26.887,15.027-21.164c5.956,3.285.848,11.683,4.228,17.305,3.211,5.343,1.219,10.113-4.425,13.925s-2.281,6.127-.14,11.277c2.572,6.187-7.109,8.094-11.654,8.593C1797.623,887.516,1788.576,891.009,1788.413,895.541Z" transform="translate(-1778.35 -834.892)"/><g class="h"><g class="e" transform="translate(4.644 -1.513)"><path class="f" d="M1884.03,834.614a54.122,54.122,0,0,1-15.219,13.4l-.077-.131a54.6,54.6,0,0,0,21.793-24.229,66.013,66.013,0,0,0,5.625-32.476l.152-.011a66.159,66.159,0,0,1-5.639,32.551A56.208,56.208,0,0,1,1884.03,834.614Z" transform="translate(-1868.733 -791.164)"/><path class="f" d="M2178.939,2140.792c-5.844-1.413-15.374-.7-21.243,1.585l-.055-.142c5.894-2.3,15.465-3.011,21.335-1.591Z" transform="translate(-2147.633 -2093.196)"/><path class="f" d="M1975.1,1777.74q-.287.369-.609.71l-.111-.1c2.247-2.381,3.2-5.8,2.846-10.179a37.257,37.257,0,0,0-2.828-10.8l.141-.057a37.412,37.412,0,0,1,2.839,10.848C1977.707,1772.157,1976.941,1775.376,1975.1,1777.74Z" transform="translate(-1970.722 -1723.841)"/><path class="f" d="M2530.379,1486.586c-4.536.574-10.779,2.237-14.755,6.908l-.116-.1c4.008-4.707,10.288-6.383,14.852-6.96Z" transform="translate(-2493.105 -1462.352)"/><path class="f" d="M2434.162,862.839h-.152c-.022-2.988-.985-8.984-7.182-15.568l.111-.1C2433.172,853.79,2434.14,859.829,2434.162,862.839Z" transform="translate(-2407.497 -845.228)"/></g></g></g></g><g transform="translate(461.293 455.356)"><g transform="translate(0 0)"><g class="i"><path class="j" d="M1072.32,546.235q5.867-.935,11.712-2.123c.065.052,1.158-7.958-3-12.059-8.209-7.941-2.989-15.335-1.554-19.681,2.292-6.13.849-12.684-5.763-12.641-7.337-.087-8.941-11.415-7.863-21.774.905-5.06-4.322-11.065-9.424-12.354-5.212-1.438-10.3,1.84-11.637,11.916-2.114,11.678,7.123,18.5,10.621,24.256,3.442,5.653-4.13,10.446,2.178,15.385,5.312,4.395,11.947,7.495,9.686,13.2C1064.953,536.012,1065.654,540.574,1072.32,546.235Z" transform="translate(-1044.486 -465.281)"/><g class="e" transform="translate(-0.978 -2.551)"><path class="f" d="M1390.717,475.515l.175-.007a248.186,248.186,0,0,0-11.021-33c-.957-2.628-1.992-5.277-2.993-7.838-2.68-6.859-5.451-13.952-6.857-21.043a42.511,42.511,0,0,1,.971-21.934l-.167-.048a42.664,42.664,0,0,0-.976,22.012c1.409,7.1,4.182,14.2,6.865,21.069,1,2.561,2.035,5.209,2.993,7.839A247.675,247.675,0,0,1,1390.717,475.515Z" transform="translate(-1356.653 -391.646)"/><path class="f" d="M1031.458,775.5l.127-.112c-4.485-4.457-9.921-10.81-12.841-14.223-2.351-2.748-2.365-2.745-2.463-2.729l.016.081-.035.073h0c.122.078,1.1,1.225,2.345,2.677C1021.53,764.686,1026.968,771.043,1031.458,775.5Z" transform="translate(-1016.262 -745.733)"/><path class="k" d="M1407.6,679.187l.188.024c1.453-9.765,7.986-13.817,8.547-13.907a.079.079,0,0,1-.049-.012l.1-.15c-.051-.03-.112-.014-.207.028C1414.712,665.805,1408.958,670.043,1407.6,679.187Z" transform="translate(-1394.042 -655.655)"/><path class="k" d="M1793.631,1487.453l.188-.025c-.734-4.835.347-10.076,3.212-15.577a44.862,44.862,0,0,1,5.727-8.384c.168-.2.227-.266.246-.3l-.166-.086c-.014.023-.113.139-.228.273a45.054,45.054,0,0,0-5.749,8.417C1793.978,1477.307,1792.891,1482.582,1793.631,1487.453Z" transform="translate(-1766.488 -1425.971)"/><path class="f" d="M1317.742,1807.85l.026-.077.009.08c.094-.005,9.926.306,14.723,7.2l.147-.089c-4.88-7.018-14.82-7.3-14.9-7.275l-.063.078Z" transform="translate(-1307.24 -1758.643)"/><path class="k" d="M1978.226,2418.378l.189-.01c-.134-2.108.585-5.721,4.771-10.967.231-.29.231-.29.223-.337l-.187.029.094-.015-.087-.033c-.012.022-.1.127-.194.25C1978.814,2412.583,1978.09,2416.241,1978.226,2418.378Z" transform="translate(-1944.891 -2337.236)"/><path class="k" d="M1660.811,2405.184l.181-.053c-.537-1.6-2.573-4.708-10.175-7.582-.1-.04-.172-.065-.2-.076l-.083.16c.025.011.1.039.208.081C1658.275,2400.559,1660.284,2403.615,1660.811,2405.184Z" transform="translate(-1628.568 -2327.995)"/></g></g></g></g><g transform="translate(468.094 467.216)"><path class="l" d="M1277.282,810.631v66.182c0,.99-.824,1.22-1.758,1.271l-32.35,2.4-.495.027a1.753,1.753,0,0,1-1.849-1.781V809.5a1.8,1.8,0,0,1,1.849-1.821l.672.022,32.464,2.566C1276.748,810.3,1277.282,809.641,1277.282,810.631Z" transform="translate(-1240.829 -807.68)"/><path class="m" d="M1306.672,810.63v66.162a1.876,1.876,0,0,1-1.7,1.892l-32.886,1.808a1.752,1.752,0,0,1-1.848-1.78V809.5a1.8,1.8,0,0,1,1.848-1.82l32.886,1.094A1.827,1.827,0,0,1,1306.672,810.63Z" transform="translate(-1269.222 -807.68)"/><path class="n" d="M1337.72,925.272v61.31a1.756,1.756,0,0,1-1.592,1.765l-30.926,1.646a1.637,1.637,0,0,1-1.722-1.662V924.37a1.7,1.7,0,0,1,.844-1.483,1.645,1.645,0,0,1,.873-.221l30.93.88A1.7,1.7,0,0,1,1337.72,925.272Z" transform="translate(-1301.31 -918.682)"/><path class="o" d="M1337.72,988.06v4.689a1.756,1.756,0,0,1-1.592,1.765L1305.2,996.16a1.637,1.637,0,0,1-1.722-1.662v-63.96a1.7,1.7,0,0,1,.844-1.483c2.542.867,9.974,5,10.569,23.865C1315.479,971.4,1333.8,975.677,1337.72,988.06Z" transform="translate(-1301.31 -924.85)"/><path class="p" d="M1589.994,865.3l-.034,2.292a1.453,1.453,0,0,0,1.4,1.5l12.082.205a1.452,1.452,0,0,0,1.455-1.451l.034-2.3Z" transform="translate(-1577.867 -863.304)"/><path class="q" d="M1745.388,898.034a.6.6,0,0,1-.61.616.647.647,0,0,1-.611-.654.6.6,0,0,1,.611-.616A.647.647,0,0,1,1745.388,898.034Z" transform="translate(-1726.732 -894.273)"/><path class="q" d="M1841.158,902.754a.6.6,0,0,1-.611.616.648.648,0,0,1-.612-.654.6.6,0,0,1,.612-.616A.647.647,0,0,1,1841.158,902.754Z" transform="translate(-1819.183 -898.829)"/></g><g transform="translate(492.449 482.869)"><path class="r" d="M2000.375,1096.3l-3.034.392-.461.059-.111-.293c-.034-.1-.084-.213-.141-.35s-.127-.293-.207-.468a12.762,12.762,0,0,0-1.7-2.7,13.4,13.4,0,0,0-1.5-1.55c-.294-.249-.6-.5-.93-.738l-.123-.091-.127-.086-.256-.174c-.177-.109-.351-.226-.536-.33a13.125,13.125,0,0,0-2.382-1.095c-.425-.146-.863-.268-1.308-.375l-.337-.071c-.056-.011-.113-.025-.167-.035l-.164-.029-.164-.029c-.055-.009-.107-.02-.171-.027l-.367-.05-.046-.006-.021-.028,0-.026h-.005l-.082.016-.174-.005c-.115-.012-.231-.019-.346-.025l-.346-.02-.347-.009a13.049,13.049,0,0,0-1.381.04l-.172.013-.17.019c-.114.013-.227.024-.34.039-.226.034-.451.063-.673.107s-.441.089-.661.136c-.109.026-.216.055-.324.082l-.161.041-.159.047c-.426.118-.835.265-1.234.419-.2.081-.394.159-.583.247s-.377.177-.561.266a14.136,14.136,0,0,0-1.968,1.208,13.786,13.786,0,0,0-1.5,1.272,14.615,14.615,0,0,0-1.031,1.125c-.133.165-.254.312-.35.444s-.183.241-.248.338l-.091.131a.205.205,0,0,1-.244.073.2.2,0,0,1-.035-.017l-.014-.009a.206.206,0,0,1-.069-.276l.078-.138c.055-.1.133-.225.223-.372s.2-.312.319-.5a15.3,15.3,0,0,1,.96-1.27,14.669,14.669,0,0,1,1.451-1.485,15.117,15.117,0,0,1,1.976-1.486c.188-.115.377-.235.576-.344s.4-.22.606-.327c.415-.208.847-.41,1.3-.584l.169-.067.172-.062c.115-.041.231-.084.348-.124.235-.075.471-.155.714-.219s.486-.129.734-.19c.124-.028.249-.053.374-.079l.188-.038.19-.033a14.581,14.581,0,0,1,1.543-.191l.392-.025.393-.012c.132-.005.263,0,.394,0h.3l.11.005.37.015c.059,0,.129.007.2.012l.2.016.2.017c.068.005.132.015.2.022l.393.045c.522.074,1.04.167,1.55.289a15.4,15.4,0,0,1,2.911,1.017c.23.1.45.22.672.331l.324.177.161.089.157.093c.422.242.816.51,1.2.776a16.319,16.319,0,0,1,2,1.7,15.827,15.827,0,0,1,2.418,3.132c.121.208.23.394.315.56s.164.306.22.423C1999.947,1095.316,2000.375,1096.3,2000.375,1096.3Z" transform="translate(-1972.813 -1086.359)"/><path class="s" d="M2001.41,1132.859a.814.814,0,0,1-.015.133l-.46.059-.111-.293c-.034-.1-.084-.213-.141-.35s-.127-.293-.207-.468a12.753,12.753,0,0,0-1.7-2.7,13.413,13.413,0,0,0-1.5-1.55c-.294-.249-.6-.5-.93-.737l-.123-.091-.127-.086-.256-.174c-.177-.109-.351-.226-.536-.33a13.141,13.141,0,0,0-2.383-1.094c-.425-.146-.864-.268-1.308-.375l-.337-.071c-.056-.011-.113-.025-.167-.035l-.164-.029-.164-.029c-.055-.009-.107-.02-.171-.027l-.367-.049-.046-.006-.021-.028,0-.026h-.005l-.082.016-.174-.005c-.115-.012-.231-.019-.346-.024l-.346-.02-.347-.009a13.015,13.015,0,0,0-1.381.04l-.172.013-.171.019c-.114.013-.228.024-.34.039-.226.034-.451.063-.673.108s-.441.089-.66.136c-.109.026-.216.055-.324.082l-.161.041-.159.047c-.426.118-.835.265-1.234.419-.2.081-.394.159-.584.247s-.377.177-.561.266a14.149,14.149,0,0,0-1.968,1.208,13.851,13.851,0,0,0-1.5,1.272,14.61,14.61,0,0,0-1.031,1.125c-.133.165-.254.312-.35.443s-.183.241-.248.338l-.091.131a.206.206,0,0,1-.244.073c.887-1.241,5.03-6.529,11.241-6.544C1995.288,1123.947,2001.532,1129.012,2001.41,1132.859Z" transform="translate(-1976.866 -1122.661)"/><path class="t" d="M2608.986,1346.428l-2.7,6.287-4.321-7.334Z" transform="translate(-2580.177 -1336.409)"/><path class="u" d="M2608.986,1346.428l-2.7,6.287-4.321-7.334Z" transform="translate(-2580.177 -1336.409)"/><path class="v" d="M2621.428,1348.251l-3.082,6.26-3.937-7.273Z" transform="translate(-2592.187 -1338.202)"/></g><g transform="translate(445.567 503.472)"><path class="w" d="M1073.782,3207.128a3.583,3.583,0,0,0-.024.787,5.63,5.63,0,0,0,2.347.272c.582-.069-.347-.663-.718-.775S1073.782,3207.128,1073.782,3207.128Z" transform="translate(-1057 -3160.272)"/><path class="x" d="M1075.124,3177.251l-.181,1.184s-.461.207-.682,0l-.024-1.238Z" transform="translate(-1057.479 -3131.379)"/><path class="y" d="M773.489,3175.017s.364.27.267.594a5.688,5.688,0,0,1-1.551,1.987c-.605.368-.415-.4-.239-.875a9.18,9.18,0,0,1,.8-1.7C772.942,3174.841,773.489,3175.017,773.489,3175.017Z" transform="translate(-765.51 -3129.198)"/><path class="z" d="M790.486,3139.67c-.176.49-.345.894-.477,1.19a4.252,4.252,0,0,1-.634,1.119c-.158.186-.532.584-.633.518s.172-.551.7-1.967c.077-.206.319-.86.319-.86h.726Z" transform="translate(-781.853 -3095.15)"/><path class="aa" d="M1041.971,2547.3a30.634,30.634,0,0,1,.066,5.466,48.554,48.554,0,0,1-1.6,8.163c-.464,1.97-1.088,4.871-1.653,8.5a1.6,1.6,0,0,1-1.014.2,1.539,1.539,0,0,1-.609-.231c-1.483-4.531-1.045-7.339-.329-9.088a9.793,9.793,0,0,0,.872-2.48c.262-1.517-.062-2.364-.523-5.877-.329-2.5-.272-2.891-.053-3.266C1038,2547.178,1040.679,2547.208,1041.971,2547.3Z" transform="translate(-1020.735 -2523.262)"/><path class="ab" d="M1469.756,2137.881s.208-.816.554-1.032.836-.446.948-.54.243.188-.08.4l-.323.217a.318.318,0,0,0,.013.139.487.487,0,0,0,.442.278,3.531,3.531,0,0,0,1.28.145c.019-.005.091-.029.121,0,.049.051-.039.214-.076.271a1.412,1.412,0,0,1-1.586.224c-.213-.1-.295-.2-.45-.177-.247.042-.4.367-.488.637Z" transform="translate(-1439.299 -2126.526)"/><path class="ac" d="M814.83,2563.472a35.446,35.446,0,0,1-2.475,8.548,23.436,23.436,0,0,0-1.246,3.042,24.789,24.789,0,0,0-.757,2.9,16.208,16.208,0,0,1-3.17,6.292.791.791,0,0,1-.721.037.7.7,0,0,1-.292-.3c.272-2.633.585-4.845.856-6.552.057-.358.308-1.925.7-4,.154-.81.379-2,.649-3.216.336-1.518.852-3.584,1.646-6.059Z" transform="translate(-798.698 -2538.91)"/><path class="ad" d="M1175.851,1998.151l-.708-.63a3.575,3.575,0,0,1-3.109.944,4.053,4.053,0,0,1-2.361-1.889c-1.346-1.91-.541-3.312-1.991-4.61a2.327,2.327,0,0,0-1.709-.664c-1.23.317-1.938,4.017-.748,6.927.24.587,1.564,3.822,4.566,4.172C1172.214,2002.684,1174.784,2000.977,1175.851,1998.151Z" transform="translate(-1144.725 -1986.536)"/><path class="ae" d="M607.359,1860.389a5.712,5.712,0,0,0,2-2.3,2.955,2.955,0,0,0-.1-2.786,2.223,2.223,0,0,0-2.074-.889c-.646.127-.747.577-1.844,1.482a7.759,7.759,0,0,1-1.878,1.233c-1.309.54-2.1.032-3.41.09a5.992,5.992,0,0,0-4.394,2.282c-1.6,2.325.719,4.684-1.037,7.409-.576.893-.859.693-2.223,2.42s-2.048,2.595-1.926,3.655a3.74,3.74,0,0,0,3.245,2.972c1.458.093,2.384-1.053,3.126-.552.528.357.226,1.051.787,1.886a3.578,3.578,0,0,0,2.374,1.325c2.131.322,5-2.177,6.223-5.137C608.423,1868.141,604.559,1862.978,607.359,1860.389Z" transform="translate(-590.453 -1854.383)"/><path class="af" d="M1036.834,2562.862a9.793,9.793,0,0,0,.872-2.48c.262-1.517-.062-2.364-.523-5.877-.329-2.5-.272-2.891-.053-3.266a3.317,3.317,0,0,1,2.51-1.326c-.014.053-.027.105-.039.156-.539,2.462,1.518,3.965.59,6.671-.458,1.334-1.188,1.64-1.358,3.188-.16,1.45.419,1.752.3,3.07-.185,1.97-1.584,2.447-1.948,3.955-.237.98-.037,2.414,1.691,4.489-.029.179-.057.358-.086.541a1.6,1.6,0,0,1-1.014.2,1.539,1.539,0,0,1-.609-.231C1035.681,2567.419,1036.119,2564.612,1036.834,2562.862Z" transform="translate(-1020.735 -2525.822)"/><path class="ag" d="M1166.249,2071.892c2.219,1.752,1.972,5.114,3.336,5.284.417.052.394-.267,1.387-.59,1.453-.473,2.136,0,3.158-.354a3.168,3.168,0,0,0,1.517-1.216l.205.182c-1.067,2.826-3.637,4.533-6.061,4.251-3-.351-4.325-3.585-4.566-4.172a8.914,8.914,0,0,1-.564-4.187A4.633,4.633,0,0,1,1166.249,2071.892Z" transform="translate(-1144.726 -2063.584)"/><path class="ad" d="M640.046,1973.707c-.136-.211-.568-.8-2.4-1.228a10.556,10.556,0,0,0-4.806-.123,10.735,10.735,0,0,0-5.579,3.2,7.528,7.528,0,0,1,2.956,3.695,6.939,6.939,0,0,1-.066,5.153,9.614,9.614,0,0,1-2.455,2.9c-1.2,1.067-1.826,1.231-2.229,2.187-.439,1.041,0,1.549-.542,2.261-.586.765-1.272.41-2.265,1.184-1.017.793-.655,1.445-1.581,2.322-1.345,1.273-3.128.859-3.21,1.432-.071.493,1.2,1.161,2.272,1.432a6.663,6.663,0,0,0,4.544-.642c1.531-.769,1.266-1.267,2.434-1.853,1.954-.982,3.29.111,7.741.223,2.411.061,3.629.075,4.3-.741.61-.745.289-1.562-.077-5.083h0c-.118-1.176-.364-3.638-.365-5.042a31.24,31.24,0,0,1,.862-4.894c.034-.16.345-1.624.6-3.579C640.4,1974.742,640.364,1974.2,640.046,1973.707Z" transform="translate(-616.913 -1968.056)"/><g class="ah" transform="translate(0.949 7.298)"><path class="ai" d="M621.076,2084.983c.925-.876.564-1.529,1.581-2.322.993-.774,1.679-.418,2.265-1.183.545-.713.1-1.22.542-2.261.4-.956,1.026-1.12,2.229-2.187a9.62,9.62,0,0,0,2.455-2.9,6.939,6.939,0,0,0,.066-5.153,7.528,7.528,0,0,0-2.956-3.695c.056-.06.121-.128.191-.2,3.8.522,6.014,2.717,6.288,3.367.633,1.5-.369,2.055-.4,6.388-.012,2.072.211,2.889-.461,3.754-.769.989-1.654.683-2.766,1.976-.854.993-.717,1.623-1.515,2.042-.857.45-1.4-.074-2.371.132-1.616.344-1.961,2.208-3.029,3.227-.808.771-2.3,1.31-5.247.731a.41.41,0,0,1-.088-.287C617.949,2085.843,619.731,2086.256,621.076,2084.983Z" transform="translate(-617.863 -2065.086)"/></g><path class="ad" d="M794.82,2003.474c.4.858-1.452,2.855-3.515,3.8-.42.193-3.438,1.581-4.783.247-1.112-1.1-.394-3.383-.138-4.2,1.258-4,5.119-6.03,6.738-6.763,1.208,3.02.5,4.366.217,4.786a16.105,16.105,0,0,1-1.976,2.173c-.61.571-.99.849-.938.938.064.111.778-.1,3.555-1.45A1.08,1.08,0,0,1,794.82,2003.474Z" transform="translate(-779.149 -1991.639)"/><path class="ab" d="M1020.58,1910.762s-.192,1.532-.757,1.883-1.479.809-1.58.934a9.981,9.981,0,0,0,5.288-.389h0c-.588-.123-.748-.168-.748-.168a3.311,3.311,0,0,1-.756-.3,2.571,2.571,0,0,1-.831-.769l.007-.848Z" transform="translate(-1003.424 -1908.809)"/><path class="ab" d="M1073.622,1887.153a.848.848,0,0,0,.947.3c.518-.189.209-1.526-.2-1.678a.725.725,0,0,0-.556.077.805.805,0,0,0-.253.905c-.131-.038-.246,0-.275.061-.037.082.074.194.1.219A.439.439,0,0,0,1073.622,1887.153Z" transform="translate(-1056.552 -1884.658)"/><path class="ab" d="M1022.412,2132.464a12.765,12.765,0,0,1,2.381-1.987c.689-.256.275.118,0,.334s-.459.288-.318.616.4.62-.006.878a1.888,1.888,0,0,1-.876.4l-.315.04-.413.22S1022.334,2132.9,1022.412,2132.464Z" transform="translate(-1007.443 -2120.83)"/></g><g transform="translate(522.019 516.639)"><path class="aj" d="M2612.767,2255.459a8.019,8.019,0,0,1-8.3,8.177,9.389,9.389,0,0,1-8.917-9.338,8,8,0,0,1,8.917-8.136A9.451,9.451,0,0,1,2612.767,2255.459Z" transform="translate(-2595.553 -2245.715)"/><path class="ak" d="M2649.075,2243.866a8.019,8.019,0,0,1-8.3,8.177,9.389,9.389,0,0,1-8.917-9.338,8,8,0,0,1,8.917-8.136A9.451,9.451,0,0,1,2649.075,2243.866Z" transform="translate(-2630.604 -2234.523)"/><path class="al" d="M2660.437,2255.033a7.652,7.652,0,0,1-7.931,7.8,8.962,8.962,0,0,1-8.5-8.912,7.632,7.632,0,0,1,8.5-7.766A9.018,9.018,0,0,1,2660.437,2255.033Z" transform="translate(-2642.331 -2245.715)"/><path class="am" d="M2668.525,2263.006a7.391,7.391,0,0,1-7.669,7.538,8.657,8.657,0,0,1-8.2-8.607,7.372,7.372,0,0,1,8.2-7.5A8.709,8.709,0,0,1,2668.525,2263.006Z" transform="translate(-2650.681 -2253.706)"/><g transform="translate(6.197 2.192)"><path class="an" d="M2778.405,2297.8h0a.469.469,0,0,1,.414.46v.793a11.628,11.628,0,0,1,1.374.238q.507.119,1.008.284a.464.464,0,0,1,.316.476l-.1.994a.372.372,0,0,1-.532.309,5.745,5.745,0,0,0-.676-.252,6.148,6.148,0,0,0-1.275-.238l-.117-.01v2.27a5.964,5.964,0,0,1,2.635,1.348,2.849,2.849,0,0,1,.844,2.1,2.768,2.768,0,0,1-.934,2.187,4.259,4.259,0,0,1-2.641.93v.875a.4.4,0,0,1-.414.4h-.007a.44.44,0,0,1-.416-.438v-.863l-.184-.008a12.15,12.15,0,0,1-1.53-.163,9.991,9.991,0,0,1-1.057-.243.455.455,0,0,1-.332-.471l.114-1.278a.4.4,0,0,1,.565-.333,8.341,8.341,0,0,0,.93.305,8.124,8.124,0,0,0,1.487.248l.007-2.525a5.472,5.472,0,0,1-2.566-1.259,2.883,2.883,0,0,1-.85-2.142,2.5,2.5,0,0,1,.921-2.081,4.087,4.087,0,0,1,2.6-.725v-.81A.375.375,0,0,1,2778.405,2297.8Zm-.415,3.031a1.394,1.394,0,0,0-.827.292.85.85,0,0,0-.3.681.915.915,0,0,0,.274.677,1.946,1.946,0,0,0,.85.433Zm.734,4.572v2.315a1.281,1.281,0,0,0,.885-.275.991.991,0,0,0,.308-.78,1.065,1.065,0,0,0-.286-.762A2.1,2.1,0,0,0,2778.724,2305.4Z" transform="translate(-2774.471 -2297.799)"/></g><path class="ao" d="M2659.468,2265.231c.259-2.559,2.611-3.642,2.3-6a5.93,5.93,0,0,0-2.516-3.628,7.373,7.373,0,0,0-6.6,7.5,8.657,8.657,0,0,0,8.2,8.607,7.747,7.747,0,0,0,1.267-.062A8.376,8.376,0,0,1,2659.468,2265.231Z" transform="translate(-2650.681 -2254.877)"/></g><g transform="translate(511.667 502.146)"><path class="aj" d="M2310.952,1833.466a6.646,6.646,0,0,1-6.875,6.777,7.781,7.781,0,0,1-7.391-7.739,6.627,6.627,0,0,1,7.391-6.743A7.832,7.832,0,0,1,2310.952,1833.466Z" transform="translate(-2296.686 -1825.39)"/><path class="ak" d="M2341.044,1823.858a6.646,6.646,0,0,1-6.875,6.777,7.781,7.781,0,0,1-7.39-7.739,6.627,6.627,0,0,1,7.39-6.743A7.832,7.832,0,0,1,2341.044,1823.858Z" transform="translate(-2325.736 -1816.115)"/><path class="al" d="M2350.459,1833.113a6.342,6.342,0,0,1-6.573,6.468,7.428,7.428,0,0,1-7.042-7.386,6.325,6.325,0,0,1,7.042-6.436A7.474,7.474,0,0,1,2350.459,1833.113Z" transform="translate(-2335.454 -1825.39)"/><path class="am" d="M2357.163,1839.721a6.125,6.125,0,0,1-6.356,6.247,7.175,7.175,0,0,1-6.793-7.133,6.109,6.109,0,0,1,6.793-6.217A7.218,7.218,0,0,1,2357.163,1839.721Z" transform="translate(-2342.375 -1832.013)"/><g transform="translate(5.136 1.816)"><path class="an" d="M2448.227,1868.558h0a.388.388,0,0,1,.343.381v.657a9.628,9.628,0,0,1,1.138.2q.42.1.835.235a.384.384,0,0,1,.262.394l-.081.824a.309.309,0,0,1-.441.256,4.757,4.757,0,0,0-.56-.209,5.091,5.091,0,0,0-1.057-.2l-.1-.008v1.881a4.945,4.945,0,0,1,2.184,1.117,2.362,2.362,0,0,1,.7,1.743,2.3,2.3,0,0,1-.774,1.812,3.529,3.529,0,0,1-2.189.771v.725a.33.33,0,0,1-.343.335h-.006a.365.365,0,0,1-.344-.364v-.715l-.153-.007a10.1,10.1,0,0,1-1.268-.135,8.322,8.322,0,0,1-.876-.2.378.378,0,0,1-.275-.39l.1-1.059a.335.335,0,0,1,.468-.276,6.86,6.86,0,0,0,.771.253,6.761,6.761,0,0,0,1.232.206l.006-2.093a4.533,4.533,0,0,1-2.126-1.043,2.389,2.389,0,0,1-.7-1.775,2.076,2.076,0,0,1,.764-1.725,3.387,3.387,0,0,1,2.152-.6v-.671A.31.31,0,0,1,2448.227,1868.558Zm-.344,2.511a1.157,1.157,0,0,0-.686.242.7.7,0,0,0-.246.565.758.758,0,0,0,.228.561,1.611,1.611,0,0,0,.7.359Zm.608,3.79v1.919a1.061,1.061,0,0,0,.734-.228.821.821,0,0,0,.256-.646.883.883,0,0,0-.238-.632A1.743,1.743,0,0,0,2448.491,1874.858Z" transform="translate(-2444.967 -1868.556)"/></g><path class="ao" d="M2349.657,1841.566c.215-2.121,2.164-3.019,1.909-4.97a4.913,4.913,0,0,0-2.084-3.007,6.11,6.11,0,0,0-5.468,6.216,7.175,7.175,0,0,0,6.793,7.134,6.433,6.433,0,0,0,1.05-.051A6.943,6.943,0,0,1,2349.657,1841.566Z" transform="translate(-2342.375 -1832.984)"/></g></g></g></svg>