<svg xmlns="http://www.w3.org/2000/svg" xmlns:xlink="http://www.w3.org/1999/xlink" width="98" height="96.986" viewBox="0 0 98 96.986"><defs><style>.a,.ah,.w,.y{fill:none;}.b{fill:#569f87;}.c{fill:#7edbea;}.d{fill:#f4f7fa;}.e{fill:url(#a);}.f{clip-path:url(#b);}.g{mix-blend-mode:soft-light;}.g,.q{isolation:isolate;}.h{fill:#fcfdfe;}.i{fill:#d8dee8;}.j{clip-path:url(#c);}.k{clip-path:url(#d);}.l{fill:url(#e);}.m{fill:#beb8f2;}.n{fill:url(#f);}.o{fill:url(#g);}.p{fill:url(#h);}.q{opacity:0.3;mix-blend-mode:multiply;fill:url(#i);}.r{fill:url(#j);}.s{fill:#de8bdf;}.t{clip-path:url(#k);}.u{fill:#e1aa99;}.v{fill:#edbeac;}.w{stroke:#e1aa99;}.ah,.w,.y{stroke-linecap:round;stroke-linejoin:round;}.w,.y{stroke-width:0.24px;}.x{fill:#d09484;}.y{stroke:#d09484;}.z{fill:#82d190;}.aa{clip-path:url(#l);}.ab{fill:#438e73;}.ac{clip-path:url(#m);}.ad{clip-path:url(#n);}.ae{clip-path:url(#o);}.af{fill:#66cdd8;}.ag{fill:#a1eff7;}.ah{stroke:#1d5942;stroke-width:0.43px;}.ai{fill:#e9eaf2;}</style><linearGradient id="a" x1="1.717" y1="1.79" x2="1.253" y2="3.735" gradientUnits="objectBoundingBox"><stop offset="0" stop-color="#ffc444"/><stop offset="0.996" stop-color="#f36f56"/></linearGradient><clipPath id="b"><path class="a" d="M690.489,942.3c1.821,4.6,3.484,9.353,5.292,13.995,2.822.051,6.142.041,6.546-3.45.561-4.853,8.776-7.228,12.7-7.572,4.862-.425,15.285-2.32,12.638-8.991-2.2-5.553-5.764-8.1.354-12.083s8.338-9.058,4.994-14.844c-3.519-6.088,2.106-14.992-4.218-18.623-11.019-6.327-17.815,12.446-16.486,22.406s-4.278,8.141-10.589,10.516c-8.616,3.241-.624,10.881-3.61,14.995C695.774,941.88,693.742,941.446,690.489,942.3Z" transform="translate(-690.489 -889.463)"/></clipPath><clipPath id="c"><path class="a" d="M1775.357,884.68c-1.771,4.261-3.4,8.67-5.157,12.971-2.633,0-5.73-.058-6.052-3.321-.447-4.536-8.073-6.881-11.731-7.263-4.528-.473-14.221-2.405-11.647-8.585,2.143-5.145,5.5-7.465-.14-11.276s-7.635-8.581-4.425-13.925c3.378-5.624-1.729-14.017,4.228-17.305,10.378-5.729,16.422,11.89,15.026,21.16s3.862,7.662,9.712,9.976c7.986,3.159.411,10.159,3.131,14.044C1770.434,884.2,1772.336,883.828,1775.357,884.68Z" transform="translate(-1734.67 -834.855)"/></clipPath><clipPath id="d"><path class="a" d="M1056.375,546.235q-5.867-.935-11.712-2.123c-.065.052-1.158-7.958,3-12.059,8.209-7.941,2.989-15.335,1.554-19.681-2.316-6.135-.874-13.5,6.25-11.964,6.944,1.341,8.328-12.074,7.375-22.451-.905-5.06,4.322-11.065,9.424-12.354,5.212-1.438,10.3,1.84,11.637,11.916,2.114,11.678-7.123,18.5-10.621,24.256-3.442,5.653,4.13,10.446-2.178,15.385-5.312,4.395-11.947,7.495-9.686,13.2C1063.743,536.012,1063.042,540.574,1056.375,546.235Z" transform="translate(-1044.486 -465.281)"/></clipPath><linearGradient id="e" x1="-1.974" y1="1.666" x2="-1.307" y2="2.597" gradientUnits="objectBoundingBox"><stop offset="0" stop-color="#ff9085"/><stop offset="1" stop-color="#fb6fbb"/></linearGradient><linearGradient id="f" x1="-0.21" y1="0.814" x2="0.653" y2="0.446" gradientUnits="objectBoundingBox"><stop offset="0" stop-color="#444b8c"/><stop offset="0.996" stop-color="#26264f"/></linearGradient><linearGradient id="g" x1="0.548" y1="-0.413" x2="0.477" y2="0.938" xlink:href="#f"/><linearGradient id="h" x1="0.451" y1="-0.06" x2="0.636" y2="2.015" gradientUnits="objectBoundingBox"><stop offset="0" stop-color="#aa80f9"/><stop offset="0.996" stop-color="#6165d7"/></linearGradient><linearGradient id="i" x1="0.452" y1="-0.051" x2="0.635" y2="2.007" xlink:href="#h"/><linearGradient id="j" x1="0.559" y1="-8.055" x2="0.386" y2="16.64" xlink:href="#f"/><clipPath id="k"><rect class="a" width="19.626" height="12.674"/></clipPath><clipPath id="l"><path class="b" d="M591.8,235.774c-1.336,2.275-2,3.427-3.34,5.708h0c1.317,2.257,1.975,3.379,3.3,5.56,0-.951,0-1.426.008-2.378.409-.019.609-.03,1.019-.053,3.683-.172,5-2.769,3.257-5.668-.448-.742-.926-1.577-1.487-2.55.411.907.225,1.676-.727,1.7-.817.027-1.226.04-2.039.059C591.789,237.2,591.791,236.726,591.8,235.774Z" transform="translate(-588.457 -235.774)"/></clipPath><clipPath id="m"><path class="b" d="M532.569,214.886c-1.225-2.337-1.851-3.513-3.081-5.851h0c-2.612-.074-3.913-.108-6.463-.137.805.506,1.208.757,2.015,1.263-.2.357-.3.533-.493.893-1.8,3.218-.289,5.705,3.091,5.76.867.011,1.828.047,2.951.085-.988-.13-1.542-.694-1.06-1.516.409-.708.614-1.062,1.027-1.762C531.361,214.126,531.764,214.378,532.569,214.886Z" transform="translate(-523.024 -208.898)"/></clipPath><clipPath id="n"><path class="b" d="M582.438,179.084c2.637-.082,3.968-.131,6.609-.217h0c1.208-2.318,1.807-3.473,2.946-5.754-.807.5-1.209.756-2.016,1.261-.234-.335-.35-.5-.588-.834-2.109-3.024-5.006-2.751-6.531.266-.389.775-.84,1.624-1.365,2.617.548-.832,1.3-1.084,1.827-.291.458.677.687,1.016,1.137,1.694C583.649,178.33,583.246,178.582,582.438,179.084Z" transform="translate(-581.492 -171.403)"/></clipPath><clipPath id="o"><path class="c" d="M576.094,216.249a1.993,1.993,0,0,0-1.927-2.053,1.863,1.863,0,0,1-3.19,0,1.993,1.993,0,0,0-1.927,2.053,2.184,2.184,0,0,0,.059.507h0s.063,1.118,1.746,2.4l.1.082a2.5,2.5,0,0,0,3.236,0l.1-.086c1.683-1.285,1.746-2.4,1.746-2.4h0A2.184,2.184,0,0,0,576.094,216.249Z" transform="translate(-569.049 -214.196)"/></clipPath></defs><g transform="translate(4 6)"><rect class="a" width="90" height="90"/><g transform="translate(-102 -100)"><g transform="translate(98 94)"><path class="d" d="M471.827,457.069a79.234,79.234,0,0,1,22.4-1.919c6.6.443,14.089,1.651,19.4,5.98,2.533,2.063,5.553,5.77,6.381,9.04,0,0,4.36,17.213,13.081,20.9s14.777,66.64-51.355,60.493c0,0-38.842-1.611-41.181-48.012-.565-11.209-.249-23.532,6.519-32.9,5.186-7.182,12.453-10.376,20.8-12.61Q469.836,457.514,471.827,457.069Z" transform="translate(-440.368 -455)"/><g transform="translate(45.252 15.049)"><g transform="translate(0)"><path class="e" d="M699.4,954.126a5.93,5.93,0,0,1-2.556-1.138c-2.111-2.364-6.352-6.532-6.366-9.882,0-.572,2.512-1.262,2.836-1.808a6.773,6.773,0,0,0,3.1-2.51c3.057-4.39-5.01-11.762,3.626-15.076,6.326-2.428,11.917-.548,10.591-10.523s5.468-28.732,16.487-22.41c6.324,3.628.7,12.536,4.218,18.623,3.345,5.784,1.123,10.86-4.995,14.844s-2.555,6.525-.354,12.084c2.644,6.677-7.766,8.546-12.645,9C709.412,945.692,699.652,949.272,699.4,954.126Z" transform="translate(-688.807 -889.504)"/><g transform="translate(0)"><g class="f"><g class="g" transform="translate(4.88 -1.598)"><path class="h" d="M952.859,889.665a58.012,58.012,0,0,1-16.553,14.083l-.081-.142a58.527,58.527,0,0,0,23.795-25.573,70.756,70.756,0,0,0,6.616-34.7l.163-.009a70.919,70.919,0,0,1-6.632,34.784A60.265,60.265,0,0,1,952.859,889.665Z" transform="translate(-936.225 -843.32)"/><path class="h" d="M870.6,2287.926c-6.238-1.62-16.464-1.03-22.8,1.314l-.057-.153c6.358-2.354,16.628-2.947,22.894-1.32Z" transform="translate(-836.879 -2236.849)"/><path class="h" d="M1609.195,1888.275q-.314.39-.666.75l-.117-.114c2.451-2.511,3.539-6.163,3.234-10.858a39.937,39.937,0,0,0-2.836-11.629l.152-.059a40.093,40.093,0,0,1,2.846,11.677C1612.089,1882.338,1611.21,1885.775,1609.195,1888.275Z" transform="translate(-1604.45 -1830.929)"/><path class="h" d="M668.133,1593.685c-4.872.533-11.593,2.2-15.939,7.136l-.122-.108c4.38-4.973,11.142-6.655,16.043-7.19Z" transform="translate(-627.598 -1567.537)"/><path class="h" d="M984.409,916.023l-.163,0c.03-3.2-.893-9.646-7.416-16.814l.121-.11C983.51,906.307,984.439,912.8,984.409,916.023Z" transform="translate(-955.123 -897.165)"/></g></g></g></g></g><g transform="translate(12.481 13.157)"><g transform="translate(0 0)"><path class="i" d="M1810.542,895.541a5.532,5.532,0,0,0,2.4-1.021c2.007-2.171,6.028-5.993,6.094-9.118.011-.534-2.323-1.217-2.617-1.731a6.321,6.321,0,0,1-2.854-2.391c-2.782-4.143,4.859-10.892-3.145-14.12-5.863-2.364-11.108-.7-9.714-9.982s-4.648-26.887-15.027-21.164c-5.956,3.285-.848,11.683-4.228,17.305-3.211,5.343-1.219,10.113,4.425,13.925s2.281,6.127.14,11.277c-2.572,6.187,7.109,8.094,11.654,8.593C1801.331,887.516,1810.379,891.009,1810.542,895.541Z" transform="translate(-1779.917 -834.892)"/><g transform="translate(0)"><g class="j"><g class="g" transform="translate(-1.23 -1.513)"><path class="h" d="M1881.2,834.614a54.122,54.122,0,0,0,15.219,13.4l.077-.131a54.6,54.6,0,0,1-21.793-24.229,66.011,66.011,0,0,1-5.625-32.476l-.152-.011a66.158,66.158,0,0,0,5.639,32.551A56.208,56.208,0,0,0,1881.2,834.614Z" transform="translate(-1859.218 -791.164)"/><path class="h" d="M2157.676,2140.792c5.844-1.413,15.374-.7,21.243,1.585l.055-.142c-5.894-2.3-15.465-3.011-21.335-1.591Z" transform="translate(-2151.708 -2093.196)"/><path class="h" d="M1976.733,1777.74q.287.369.609.71l.111-.1c-2.247-2.381-3.2-5.8-2.846-10.179a37.257,37.257,0,0,1,2.828-10.8l-.141-.057a37.412,37.412,0,0,0-2.839,10.848C1974.127,1772.157,1974.893,1775.376,1976.733,1777.74Z" transform="translate(-1943.839 -1723.841)"/><path class="h" d="M2515.509,1486.586c4.536.574,10.779,2.237,14.755,6.908l.116-.1c-4.008-4.707-10.288-6.383-14.852-6.96Z" transform="translate(-2515.509 -1462.352)"/><path class="h" d="M2426.828,862.839h.152c.022-2.988.985-8.984,7.182-15.568l-.111-.1C2427.819,853.79,2426.851,859.829,2426.828,862.839Z" transform="translate(-2416.22 -845.228)"/></g></g></g></g></g><g transform="translate(37.351 0.356)"><g transform="translate(0 0)"><g class="k"><path class="l" d="M1056.375,546.235q-5.867-.935-11.712-2.123c-.065.052-1.158-7.958,3-12.059,8.209-7.941,2.989-15.335,1.554-19.681-2.292-6.13-.849-12.684,5.763-12.641,7.337-.087,8.941-11.415,7.863-21.774-.905-5.06,4.322-11.065,9.424-12.354,5.212-1.438,10.3,1.84,11.637,11.916,2.114,11.678-7.123,18.5-10.621,24.256-3.442,5.653,4.13,10.446-2.178,15.385-5.312,4.395-11.947,7.495-9.686,13.2C1063.743,536.012,1063.042,540.574,1056.375,546.235Z" transform="translate(-1044.486 -465.281)"/><g class="g" transform="translate(2.181 -2.551)"><path class="h" d="M1369.042,475.515l-.175-.007a248.177,248.177,0,0,1,11.021-33c.957-2.628,1.992-5.277,2.993-7.838,2.68-6.859,5.451-13.952,6.857-21.043a42.511,42.511,0,0,0-.971-21.934l.167-.048a42.664,42.664,0,0,1,.976,22.012c-1.409,7.1-4.182,14.2-6.865,21.069-1,2.561-2.035,5.209-2.993,7.839A247.666,247.666,0,0,0,1369.042,475.515Z" transform="translate(-1364.584 -391.646)"/><path class="h" d="M1016.389,775.5l-.127-.112c4.485-4.457,9.921-10.81,12.841-14.223,2.351-2.748,2.365-2.745,2.463-2.729l-.015.081.035.073h0c-.122.078-1.1,1.225-2.345,2.677C1026.318,764.686,1020.88,771.043,1016.389,775.5Z" transform="translate(-993.065 -745.733)"/><path class="m" d="M1416.385,679.187l-.188.024c-1.453-9.765-7.986-13.817-8.547-13.907a.079.079,0,0,0,.049-.012l-.1-.15c.051-.03.112-.014.207.028C1409.271,665.805,1415.025,670.043,1416.385,679.187Z" transform="translate(-1391.42 -655.655)"/><path class="m" d="M1802.779,1487.453l-.188-.025c.734-4.835-.347-10.076-3.212-15.577a44.862,44.862,0,0,0-5.727-8.384c-.168-.2-.227-.266-.246-.3l.166-.086c.014.023.113.139.228.273a45.054,45.054,0,0,1,5.749,8.417C1802.432,1477.307,1803.518,1482.582,1802.779,1487.453Z" transform="translate(-1791.402 -1425.971)"/><path class="h" d="M1332.584,1807.85l-.026-.077-.009.08c-.094-.005-9.926.306-14.723,7.2l-.147-.089c4.88-7.018,14.82-7.3,14.9-7.275l.063.078Z" transform="translate(-1304.566 -1758.643)"/><path class="m" d="M1983.4,2418.378l-.189-.01c.134-2.108-.585-5.721-4.771-10.967-.231-.29-.231-.29-.223-.337l.187.029-.094-.015.087-.033c.012.022.1.127.194.25C1982.809,2412.583,1983.533,2416.241,1983.4,2418.378Z" transform="translate(-1978.211 -2337.236)"/><path class="m" d="M1650.719,2405.184l-.181-.053c.537-1.6,2.573-4.708,10.175-7.582.1-.04.172-.065.2-.076l.083.16c-.025.011-.1.039-.208.081C1653.255,2400.559,1651.246,2403.615,1650.719,2405.184Z" transform="translate(-1644.441 -2327.995)"/></g></g></g></g><g transform="translate(32.824 12.216)"><path class="n" d="M1240.829,810.631v66.182c0,.99.824,1.22,1.758,1.271l32.35,2.4.495.027a1.753,1.753,0,0,0,1.849-1.781V809.5a1.8,1.8,0,0,0-1.849-1.821l-.672.022-32.464,2.566C1241.363,810.3,1240.829,809.641,1240.829,810.631Z" transform="translate(-1239.832 -807.68)"/><path class="o" d="M1270.241,810.63v66.162a1.876,1.876,0,0,0,1.7,1.892l32.886,1.808a1.752,1.752,0,0,0,1.848-1.78V809.5a1.8,1.8,0,0,0-1.848-1.82l-32.886,1.094A1.827,1.827,0,0,0,1270.241,810.63Z" transform="translate(-1270.241 -807.68)"/><path class="p" d="M1303.48,925.272v61.31a1.756,1.756,0,0,0,1.592,1.765L1336,989.992a1.637,1.637,0,0,0,1.722-1.662V924.37a1.7,1.7,0,0,0-.844-1.483,1.645,1.645,0,0,0-.873-.221l-30.93.88A1.7,1.7,0,0,0,1303.48,925.272Z" transform="translate(-1302.44 -918.682)"/><path class="q" d="M1303.48,988.06v4.689a1.756,1.756,0,0,0,1.592,1.765L1336,996.16a1.637,1.637,0,0,0,1.722-1.662v-63.96a1.7,1.7,0,0,0-.844-1.483c-2.542.867-9.974,5-10.569,23.865C1325.721,971.4,1307.4,975.677,1303.48,988.06Z" transform="translate(-1302.44 -924.85)"/><path class="r" d="M1604.9,865.3l.034,2.292a1.453,1.453,0,0,1-1.4,1.5l-12.082.205a1.452,1.452,0,0,1-1.455-1.451l-.034-2.3Z" transform="translate(-1579.58 -863.304)"/><path class="s" d="M1744.167,898.034a.6.6,0,0,0,.61.616.647.647,0,0,0,.611-.654.6.6,0,0,0-.611-.616A.647.647,0,0,0,1744.167,898.034Z" transform="translate(-1725.373 -894.273)"/><path class="s" d="M1839.935,902.754a.6.6,0,0,0,.611.616.648.648,0,0,0,.612-.654.6.6,0,0,0-.612-.616A.647.647,0,0,0,1839.935,902.754Z" transform="translate(-1824.46 -898.829)"/></g></g><g transform="translate(-381.49 -31.182)"><g transform="translate(522.454 180.606)"><g class="t" transform="translate(0 0)"><g transform="translate(0 1.75)"><path class="u" d="M583.194,287.513l1.4-2.142a.993.993,0,0,0,.121-.913l-.826-2.26a.261.261,0,0,0-.362-.146.969.969,0,0,0-.437,1.172c.1.427.321,1.645.321,1.645a5.16,5.16,0,0,1-3.215,2.1Z" transform="translate(-574.03 -281.7)"/><path class="u" d="M598.152,286.42l1.427-2.223a1.111,1.111,0,0,0,.159-.4l.43-2.382a.214.214,0,0,0-.143-.242.739.739,0,0,0-.948.43c-.345.794-.754,2.2-.754,2.2l-1.572,1.983-2.938.712,4.154.77Z" transform="translate(-584.606 -281.006)"/><path class="u" d="M595.677,285.078l.509-2.3.206-1.959a.215.215,0,0,0-.191-.236.779.779,0,0,0-.831.449,29.642,29.642,0,0,0-.83,2.981l-2.894,1.421,1.2.891,2.456-.68Z" transform="translate(-582.924 -280.576)"/><path class="v" d="M552.637,322.438l1.244-12.241,3.721.751,1.029,12.119Z" transform="translate(-552.637 -303.574)"/><path class="v" d="M558.2,300.5a3.019,3.019,0,0,1,3.045-2.792l4.814.631,4.969,1.979-9.525,2.1Z" transform="translate(-556.956 -293.878)"/><path class="v" d="M599.322,292.314l.325-.053a1.089,1.089,0,0,0,.658-.373l3.013-3.846a.392.392,0,0,0-.1-.547,1.016,1.016,0,0,0-.953.046c-.6.387-3.294,3.064-3.294,3.064l-4.333.016Z" transform="translate(-585.25 -285.873)"/><path class="u" d="M582.692,299.491,580.6,301.72l-5.746,1.263-.009-1.069,7.6-3.353Z" transform="translate(-569.878 -294.539)"/><path class="w" d="M613.568,300.461a.811.811,0,0,0,.472.737" transform="translate(-599.943 -296.015)"/><path class="x" d="M586.978,298.223l.535.151a5.229,5.229,0,0,0,1.4.173l.658-.008-1.954.914-1.965-.882Z" transform="translate(-578.27 -294.277)"/><line class="y" x1="0.76" y2="0.959" transform="translate(12.145 3.814)"/><path class="v" d="M559.479,299.35a3.262,3.262,0,0,1,3.152-1.789,34.425,34.425,0,0,1,5.191.711l1.429-.25a1.461,1.461,0,0,1,1.5.367h0a.279.279,0,0,1-.084.411l-2.2,1.266a1.627,1.627,0,0,1-.466.178l-4.638,1.137a.567.567,0,0,0-.437.54l-.006.284Z" transform="translate(-557.949 -293.76)"/></g></g></g><g transform="translate(513.761 154.07)"><g transform="translate(2.071 3.007)"><path class="z" d="M611.288,217.386c.422-1.154-.233-2.543-1.04-3.921-1.453-2.477-2.182-3.76-3.626-6.353,2.192-1.3,3.291-1.947,5.48-3.139,1.062,1.862,1.595,2.776,2.661,4.548a3.324,3.324,0,0,1-.028,3.591C613.358,214.161,612.667,215.227,611.288,217.386Z" transform="translate(-587.93 -195.821)"/><g transform="translate(14.631 15.261)"><path class="b" d="M591.8,235.774c-1.336,2.275-2,3.427-3.34,5.708h0c1.317,2.257,1.975,3.379,3.3,5.56,0-.951,0-1.426.008-2.378.409-.019.609-.03,1.019-.053,3.683-.172,5-2.769,3.257-5.668-.448-.742-.926-1.577-1.487-2.55.411.907.225,1.676-.727,1.7-.817.027-1.226.04-2.039.059C591.789,237.2,591.791,236.726,591.8,235.774Z" transform="translate(-588.457 -235.774)"/><g class="aa"><path class="ab" d="M615.718,238.539s2.721,5.015.136,8.068l2.994-1.49-1.573-6.017Z" transform="translate(-609.623 -237.921)"/></g></g><g transform="translate(0 9.252)"><path class="b" d="M532.569,214.886c-1.225-2.337-1.851-3.513-3.081-5.851h0c-2.612-.074-3.913-.108-6.463-.137.805.506,1.208.757,2.015,1.263-.2.357-.3.533-.493.893-1.8,3.218-.289,5.705,3.091,5.76.867.011,1.828.047,2.951.085-.988-.13-1.542-.694-1.06-1.516.409-.708.614-1.062,1.027-1.762C531.361,214.126,531.764,214.378,532.569,214.886Z" transform="translate(-523.024 -208.898)"/><g class="ac"><path class="ab" d="M531.717,230.28s-5.7-.339-6.922-4.147l-.316,3.329,5.94,1.843Z" transform="translate(-524.153 -222.279)"/></g></g><g transform="translate(13.073 0.868)"><path class="b" d="M582.438,179.084c2.637-.082,3.968-.131,6.609-.217h0c1.208-2.318,1.807-3.473,2.946-5.754-.807.5-1.209.756-2.016,1.261-.234-.335-.35-.5-.588-.834-2.109-3.024-5.006-2.751-6.531.266-.389.775-.84,1.624-1.365,2.617.548-.832,1.3-1.084,1.827-.291.458.677.687,1.016,1.137,1.694C583.649,178.33,583.246,178.582,582.438,179.084Z" transform="translate(-581.492 -171.403)"/><g class="ad"><path class="ab" d="M580.259,172.484s2.793-4.976,6.754-4.416l-2.857-1.738-4.252,4.539Z" transform="translate(-580.259 -167.464)"/></g></g><path class="z" d="M556.015,167.952c-1.171.165-2.1,1.493-2.913,2.946-1.462,2.616-2.2,3.943-3.654,6.559-2.174-1.292-3.261-1.935-5.436-3.124,1.063-1.891,1.6-2.856,2.661-4.8a3.691,3.691,0,0,1,3.223-2.017C552.345,167.616,553.571,167.706,556.015,167.952Z" transform="translate(-539.319 -167.52)"/><path class="z" d="M528.573,240.8c.752.942,2.313,1.2,3.918,1.27,2.884.123,4.331.151,7.233.152-.009,2.624-.015,3.936-.025,6.56-2.121,0-3.179-.039-5.284-.173a3.825,3.825,0,0,1-3.164-2.148C530.182,244.152,529.647,243.013,528.573,240.8Z" transform="translate(-527.332 -224.412)"/><g transform="translate(10.291 10.437)"><path class="c" d="M576.094,216.249a1.993,1.993,0,0,0-1.927-2.053,1.863,1.863,0,0,1-3.19,0,1.993,1.993,0,0,0-1.927,2.053,2.184,2.184,0,0,0,.059.507h0s.063,1.118,1.746,2.4l.1.082a2.5,2.5,0,0,0,3.236,0l.1-.086c1.683-1.285,1.746-2.4,1.746-2.4h0A2.184,2.184,0,0,0,576.094,216.249Z" transform="translate(-569.049 -214.196)"/><g class="ae"><path class="af" d="M582.428,224.858a5.11,5.11,0,0,0,3.319-3.495c.127-.352.673-.23.692.144a4.163,4.163,0,0,1-1.175,3.023,3.064,3.064,0,0,1-2.752,1.254A.478.478,0,0,1,582.428,224.858Z" transform="translate(-579.185 -219.599)"/></g><g transform="translate(1.318 1.61)"><path class="ag" d="M575.53,222.83c0,.085-.131.154-.293.154s-.294-.069-.294-.154.131-.154.294-.154S575.53,222.745,575.53,222.83Z" transform="translate(-574.943 -222.39)"/><ellipse class="ag" cx="0.294" cy="0.154" rx="0.294" ry="0.154" transform="translate(3.897 0.286)"/><path class="ah" d="M578.718,221.4a.378.378,0,0,1-.545,0" transform="translate(-577.451 -221.397)"/><path class="ah" d="M589.607,221.4a.378.378,0,0,1-.545,0" transform="translate(-585.905 -221.397)"/><path class="ah" d="M582.978,223.8s-.053.365.365.365c.436,0,.382-.365.382-.365" transform="translate(-581.179 -223.265)"/></g></g></g><g transform="translate(0 22.376)"><path class="ai" d="M513.761,255.731s.825-1.65,2.19-1.587c.967.045,1.121.5,1.648.72a2.04,2.04,0,0,0,1.467.028c.168-.059.385-.259.662-.367a1.466,1.466,0,0,1,1.936,1.206Z" transform="translate(-513.761 -254.142)"/></g><g transform="translate(26.029 14.664)"><path class="ai" d="M630.173,220.772s.58-1.161,1.538-1.116c.679.032.749.243,1.157.506a1.233,1.233,0,0,0,1.031.126c.118-.041.27-.182.465-.258a.974.974,0,0,1,1.36.741Z" transform="translate(-630.173 -219.654)"/></g><g transform="translate(15.884 0)"><path class="ai" d="M584.8,155.292s.634-1.27,1.682-1.221c.743.035.819.266,1.266.554a1.348,1.348,0,0,0,1.127.138c.129-.045.3-.2.508-.282a1.066,1.066,0,0,1,1.487.811Z" transform="translate(-584.802 -154.07)"/></g></g></g></g></g></svg>