<svg xmlns="http://www.w3.org/2000/svg" xmlns:xlink="http://www.w3.org/1999/xlink" width="90" height="90" viewBox="0 0 90 90"><defs><style>.a{fill:url(#a);}.b{fill:url(#b);}.c{fill:none;}.d{fill:#f4f7fa;}.e{clip-path:url(#d);}.f{mix-blend-mode:soft-light;}.af,.f,.l,.w{isolation:isolate;}.g{fill:#fff;}.h{clip-path:url(#f);}.i{fill:#26264f;}.j{fill:url(#g);}.k{fill:url(#h);}.l{opacity:0.35;fill:url(#i);}.af,.l,.w{mix-blend-mode:multiply;}.m{fill:#de8bdf;}.n{fill:url(#j);}.o{fill:#d8dee8;}.p{opacity:0.63;}.q{fill:url(#o);}.r{fill:url(#p);}.s{fill:url(#q);}.t{fill:url(#r);}.u{fill:url(#s);}.v{fill:url(#t);}.w{opacity:0.25;fill:url(#u);}.x{fill:#444b8c;}.y{fill:url(#v);}.z{fill:url(#w);}.aa{fill:url(#x);}.ab{fill:url(#y);}.ac{fill:url(#z);}.ad{fill:url(#aa);}.ae{fill:url(#ab);}.af{opacity:0.3;fill:url(#ac);}.ag{fill:url(#ad);}</style><linearGradient id="a" x1="1.003" y1="0.208" x2="0.398" y2="0.591" gradientUnits="objectBoundingBox"><stop offset="0.004" stop-color="#e38ddd"/><stop offset="1" stop-color="#9571f6"/></linearGradient><linearGradient id="b" x1="0.614" y1="0.23" x2="0.417" y2="0.78" gradientUnits="objectBoundingBox"><stop offset="0" stop-color="#aa80f9"/><stop offset="0.996" stop-color="#6165d7"/></linearGradient><clipPath id="d"><path class="a" d="M1022.37,518.814a32.62,32.62,0,0,0,3.007-17.275c-.979-8.221-4.9-10.271-7.651-19.244-3.923-12.808,2.985-21.027-2.047-25.358a8.783,8.783,0,0,0-9.394-1.015c-7.9,4.428-8.364,27.4,2.309,37.548,4.827,4.588,9.472,4.611,12.857,10.237C1024.443,508.678,1023.511,514.707,1022.37,518.814Z" transform="translate(-1000.457 -455)"/></clipPath><clipPath id="f"><path class="b" d="M536.565,957.263c.935-3.35,1.837-8.641-.422-13.707-3.941-8.837-13.069-7.039-20.552-16.862-6.035-7.922-3.281-13.27-10.315-18.863-1.177-.936-7.379-6.058-12.634-3.95a9.153,9.153,0,0,0-4.561,4.7c-3.822,8.378,3.552,22.947,14.414,30.424,6.241,4.3,8.506,3.36,19.719,8.8A66.02,66.02,0,0,1,536.565,957.263Z" transform="translate(-487.061 -903.378)"/></clipPath><linearGradient id="g" x1="0.118" y1="0.5" x2="1.619" y2="0.466" gradientUnits="objectBoundingBox"><stop offset="0" stop-color="#444b8c"/><stop offset="0.996" stop-color="#26264f"/></linearGradient><linearGradient id="h" x1="0.794" y1="0.113" x2="-0.747" y2="2.041" gradientUnits="objectBoundingBox"><stop offset="0" stop-color="#ffc444"/><stop offset="0.996" stop-color="#f36f56"/></linearGradient><linearGradient id="i" x1="0.793" y1="0.123" x2="-0.826" y2="2.208" xlink:href="#h"/><linearGradient id="j" y1="0.5" x2="1" y2="0.5" gradientUnits="objectBoundingBox"><stop offset="0" stop-color="#ff9085"/><stop offset="1" stop-color="#fb6fbb"/></linearGradient><linearGradient id="o" x1="-32.573" y1="10.777" x2="-33.417" y2="6.737" gradientUnits="objectBoundingBox"><stop offset="0" stop-color="#311944"/><stop offset="1" stop-color="#893976"/></linearGradient><linearGradient id="p" x1="0.416" y1="0.207" x2="0.655" y2="0.651" xlink:href="#h"/><linearGradient id="q" x1="-21.158" y1="1.152" x2="-21.158" y2="-0.027" xlink:href="#h"/><linearGradient id="r" x1="-22.156" y1="0.734" x2="-22.156" y2="-0.116" xlink:href="#h"/><linearGradient id="s" x1="-3.005" y1="0.5" x2="-2.005" y2="0.5" xlink:href="#o"/><linearGradient id="t" x1="-3.036" y1="0.129" x2="-2.316" y2="0.731" xlink:href="#o"/><linearGradient id="u" x1="-2.753" y1="0.047" x2="-2.032" y2="0.677" xlink:href="#o"/><linearGradient id="v" x1="-2.935" y1="-13.206" x2="-2.113" y2="-11.65" xlink:href="#a"/><linearGradient id="w" x1="-2.388" y1="0.343" x2="-1.95" y2="1.272" xlink:href="#a"/><linearGradient id="x" x1="-26.506" y1="3.551" x2="-25.954" y2="5.666" xlink:href="#a"/><linearGradient id="y" x1="-31.516" y1="11.666" x2="-31.969" y2="8.829" xlink:href="#o"/><linearGradient id="z" x1="1.253" y1="7.476" x2="0.612" y2="1.611" xlink:href="#o"/><linearGradient id="aa" x1="-2.21" y1="-0.093" x2="-1.475" y2="1.694" xlink:href="#g"/><linearGradient id="ab" x1="-3.61" y1="1.019" x2="-2.844" y2="2.819" xlink:href="#a"/><linearGradient id="ac" x1="-2.582" y1="-0.327" x2="-2.125" y2="1.644" xlink:href="#a"/><linearGradient id="ad" x1="0.505" y1="0.258" x2="0.428" y2="3.252" gradientUnits="objectBoundingBox"><stop offset="0" stop-color="#e1473d"/><stop offset="1" stop-color="#e9605a"/></linearGradient></defs><rect class="c" width="90" height="90"/><g transform="translate(-9.083 -9.129)"><g transform="translate(11.833 11.283)"><path class="d" d="M555.609,501.634c-1.324-1.817-12.66-16.84-31.035-16.108-.918.036-18.839.985-25.449,12.761-4.889,8.711.287,16.44-5.678,22.375-5.2,5.172-11.585,1.749-14.779,5.93-4.865,6.37,2.883,23.575,14.787,33.169,12.292,9.907,35.808,17.175,54.085,3.957C568.062,548.879,567.853,518.432,555.609,501.634Z" transform="translate(-477.194 -484.545)"/><g transform="translate(0.309)"><g transform="translate(16.079)"><path class="a" d="M1022.37,518.814a32.62,32.62,0,0,0,3.007-17.275c-.979-8.221-4.9-10.271-7.651-19.244-3.923-12.808,2.985-21.027-2.047-25.358a8.783,8.783,0,0,0-9.394-1.015c-7.9,4.428-8.364,27.4,2.309,37.548,4.827,4.588,9.472,4.611,12.857,10.237C1024.443,508.678,1023.511,514.707,1022.37,518.814Z" transform="translate(-1000.457 -455)"/><g class="e"><g class="f" transform="translate(-0.053 -1.898)"><path class="g" d="M1256.227,449.825a31.445,31.445,0,0,0-1.212-5.251,29.587,29.587,0,0,0-4.947-9.028,73.341,73.341,0,0,1-4.563-6.954c-3.181-5.57-4.145-7.511-4.867-10.549a29.055,29.055,0,0,1,.1-13.7,28.333,28.333,0,0,1,4.771-9.948l.122.091a28.182,28.182,0,0,0-4.745,9.895,28.9,28.9,0,0,0-.1,13.631c.718,3.019,1.68,4.953,4.852,10.509a73.235,73.235,0,0,0,4.554,6.941,29.7,29.7,0,0,1,4.968,9.069,31.591,31.591,0,0,1,1.218,5.277Z" transform="translate(-1232.316 -394.391)"/><path class="g" d="M1060.717,527.356l-.1-.071a15.385,15.385,0,0,1-3.732-4.087,14.059,14.059,0,0,1-1.594-11.643l.146.041a13.91,13.91,0,0,0,1.576,11.521,15.517,15.517,0,0,0,3.588,3.969,10.861,10.861,0,0,1,6.03-7.972,18.823,18.823,0,0,1,5.249-1.865l.024.15a18.674,18.674,0,0,0-5.205,1.851,10.688,10.688,0,0,0-5.965,7.982Z" transform="translate(-1052.94 -507.886)"/><path class="g" d="M1007.2,1068.93a11.84,11.84,0,0,1-8.43-3.258l.106-.109c4.876,4.724,11.478,2.909,12.181,2.7-1.2-8.243,4.6-11.785,4.663-11.82l.077.131c-.058.035-5.8,3.547-4.58,11.732l.009.063-.061.021A14.04,14.04,0,0,1,1007.2,1068.93Z" transform="translate(-998.768 -1035.707)"/><path class="g" d="M1170.377,1338.289a16.234,16.234,0,0,1-7.2-1.858l.067-.136c7.187,3.547,11.525.944,12.005.629-1.36-4.483,1.967-11.123,2-11.189l.135.069c-.034.067-3.36,6.705-1.975,11.129l.016.052-.044.032A9.1,9.1,0,0,1,1170.377,1338.289Z" transform="translate(-1158.032 -1296.566)"/></g></g></g><g transform="translate(0 14.042)"><path class="b" d="M536.565,957.263c.935-3.35,1.837-8.641-.422-13.707-3.941-8.837-13.069-7.039-20.552-16.862-6.035-7.922-3.281-13.27-10.315-18.863-1.177-.936-7.379-6.058-12.634-3.95a9.153,9.153,0,0,0-4.561,4.7c-3.822,8.378,3.552,22.947,14.414,30.424,6.241,4.3,8.506,3.36,19.719,8.8A66.02,66.02,0,0,1,536.565,957.263Z" transform="translate(-487.061 -903.378)"/><g class="h"><g class="f" transform="translate(-2.218 -3.383)"><path class="g" d="M745.64,856.842c-.808-8.3-3.413-14.09-7.743-17.221a13.922,13.922,0,0,0-5.772-2.35,15.464,15.464,0,0,1-6.834-2.967,13.424,13.424,0,0,1-4.432-5.859,32.2,32.2,0,0,0-4.844-7.668,34.319,34.319,0,0,0-5.929-5.647,16.5,16.5,0,0,1-4.708-4.993c-2.456-4.064-3.431-9.036-2.9-14.777l.151.014c-.531,5.708.436,10.648,2.875,14.684a16.377,16.377,0,0,0,4.671,4.951,34.441,34.441,0,0,1,5.952,5.669,32.336,32.336,0,0,1,4.864,7.7,13.3,13.3,0,0,0,4.387,5.8,15.336,15.336,0,0,0,6.775,2.939,14.048,14.048,0,0,1,5.828,2.375c4.367,3.158,6.993,8.988,7.805,17.329Z" transform="translate(-693.38 -795.362)"/><path class="g" d="M433.79,942.441l-.1-.008a22.334,22.334,0,0,1-13.306-5.7,21.12,21.12,0,0,1-4.155-4.994l.134-.072a20.959,20.959,0,0,0,4.127,4.957,22.184,22.184,0,0,0,13.111,5.653c-.228-1.158-2.219-12.021,2.284-16.089l.1.113c-4.672,4.22-2.242,15.926-2.217,16.044Z" transform="translate(-416.228 -922.088)"/><path class="g" d="M501.685,1276.305l-.348,0a26.461,26.461,0,0,1-15.739-5.312l.092-.121a27.089,27.089,0,0,0,23.037,4.375c-.967-6.1,1.375-14.312,1.4-14.395l.146.042c-.024.083-2.373,8.319-1.385,14.393l.01.064-.062.02A25.829,25.829,0,0,1,501.685,1276.305Z" transform="translate(-483.425 -1246.272)"/><path class="g" d="M996.578,1657.06a39.46,39.46,0,0,1-5.106-.336l.02-.151c10.971,1.432,18.02-2.161,18.79-2.578-3.856-6.009-1.131-14.85-1.1-14.939l.145.046c-.028.089-2.752,8.93,1.129,14.879l.044.067-.069.04C1010.367,1654.123,1005.19,1657.06,996.578,1657.06Z" transform="translate(-973.456 -1612.633)"/></g></g></g></g><g transform="translate(23.147 6.831)"><path class="i" d="M1253.477,677.384q4.021,33.983,8.041,67.255a1.717,1.717,0,0,1-1.528,1.956q-16.159,1.533-32.318,3.133c-1.922.093-2.977-.981-3.1-2.056q-4.139-35.919-8.277-72.589c-.124-1.1.806-2.042,2.728-1.948q16.239,1.158,32.478,2.285A2.271,2.271,0,0,1,1253.477,677.384Z" transform="translate(-1216.283 -673.129)"/><path class="j" d="M1293.924,677.515q4.046,34.131,8.092,67.543a1.726,1.726,0,0,1-1.538,1.965q-16.78,1.421-33.559,2.9a1.99,1.99,0,0,1-2.083-1.8q-4.165-36.083-8.329-72.927a1.574,1.574,0,0,1,1.643-1.879q16.892,1.127,33.784,2.227A2.284,2.284,0,0,1,1293.924,677.515Z" transform="translate(-1255.234 -673.307)"/><path class="k" d="M1343.516,813.146q3.748,31.622,7.5,62.627a1.607,1.607,0,0,1-1.437,1.833q-15.78,1.291-31.56,2.63a1.862,1.862,0,0,1-1.941-1.679q-3.851-33.328-7.7-67.307a1.478,1.478,0,0,1,1.529-1.761q15.878.924,31.757,1.83A2.11,2.11,0,0,1,1343.516,813.146Z" transform="translate(-1305.475 -805.215)"/><path class="l" d="M1400.983,812.081q-15.69-.894-31.38-1.808a23.98,23.98,0,0,0,1.838,5.945c3.47,7.528,8.567,7.942,10.561,14.5,2.054,6.758-2.579,8.873-.315,14.975,2.456,6.621,8.481,5.663,11.664,12.925,2.745,6.26-.789,9.121,2.049,12.925,3.11,4.17,8.865,2.756,14.837,4.168q-3.7-30.6-7.4-61.8A2.111,2.111,0,0,0,1400.983,812.081Z" transform="translate(-1364.8 -805.978)"/><path class="m" d="M1844.772,757.459a.526.526,0,0,1-.55.627.8.8,0,0,1-.7-.7.525.525,0,0,1,.551-.627A.805.805,0,0,1,1844.772,757.459Z" transform="translate(-1823.869 -754.134)"/><ellipse class="n" cx="2.421" cy="2.856" rx="2.421" ry="2.856" transform="translate(22.262 17.984)"/><ellipse class="n" cx="2.421" cy="2.856" rx="2.421" ry="2.856" transform="translate(31.899 17.984)"/><ellipse class="o" cx="2.456" cy="2.856" rx="2.456" ry="2.856" transform="translate(27.019 17.984)"/><ellipse class="n" cx="2.421" cy="2.856" rx="2.421" ry="2.856" transform="translate(41.537 17.984)"/><ellipse class="o" cx="2.456" cy="2.856" rx="2.456" ry="2.856" transform="translate(36.657 17.984)"/><ellipse class="o" cx="2.456" cy="2.856" rx="2.456" ry="2.856" transform="translate(46.294 17.984)"/><ellipse class="o" cx="2.456" cy="2.856" rx="2.456" ry="2.856" transform="translate(17.382 17.984)"/><path class="n" d="M1293.257,800.547l15.024,17.237h38.776l-18.79-15.053Z" transform="translate(-1290.846 -796.557)"/><g transform="translate(2.411 3.991)"><path class="d" d="M1293.257,800.548l15.024,17.237h4.858L1297.3,800.8Z" transform="translate(-1293.257 -800.548)"/><path class="d" d="M1560.849,817.233l16.29,16.714h4.8l-16.718-16.441Z" transform="translate(-1552.469 -816.71)"/><path class="d" d="M1841.044,834.706l17.125,16.167h4.823l-17.51-15.89Z" transform="translate(-1823.888 -833.636)"/><path class="d" d="M2129.985,852.723l-4.505-.281,17.873,15.611h4.846Z" transform="translate(-2099.416 -850.817)"/></g><path class="n" d="M2851.07,1350.914a2.4,2.4,0,1,0,4.792,0Z" transform="translate(-2799.871 -1329.687)"/><g class="p" transform="translate(14.793 50.027)"><path class="d" d="M1711.4,2278.708l-20.44.619a1.454,1.454,0,0,1-1.481-1.234l-.828-5.449a1.454,1.454,0,0,1,1.4-1.672l20.463-.474a1.454,1.454,0,0,1,1.471,1.235l.806,5.3A1.454,1.454,0,0,1,1711.4,2278.708Z" transform="translate(-1688.637 -2270.497)"/><path class="d" d="M1758.913,2585.812l-20.428.7a1.453,1.453,0,0,1-1.487-1.234l-.008-.051a1.454,1.454,0,0,1,1.391-1.672l20.436-.647a1.454,1.454,0,0,1,1.483,1.234h0A1.454,1.454,0,0,1,1758.913,2585.812Z" transform="translate(-1735.459 -2573.121)"/></g></g><g transform="translate(49.543 34.226)"><g transform="translate(0)"><path class="q" d="M2060.5,1631.473a2.334,2.334,0,0,0,.03-1.252,2.281,2.281,0,0,0-1.4-1.594c-.05.042.114.333.194.459.168.263.267.264.3.4.063.276-.326.4-.428.822a1.013,1.013,0,0,0,.268.923A1.145,1.145,0,0,0,2060.5,1631.473Z" transform="translate(-2059.12 -1626.09)"/><path class="r" d="M2859.276,2290.693l-.316-1.087,1.318-.977.822-.307-.487,1.521Z" transform="translate(-2833.911 -2265.131)"/><path class="s" d="M2816.925,3057.384a6.644,6.644,0,0,1,.531,2.619,8.077,8.077,0,0,0,1.276-.114,8.753,8.753,0,0,1-.372-1.237,12.186,12.186,0,0,1-.076-1.45Z" transform="translate(-2793.192 -3009.931)"/><path class="i" d="M2491.639,3198.251a.563.563,0,0,1,.136.333.538.538,0,0,1-.041.223c-.123.323-.316.366-.525.71-.127.209-.1.273-.22.367a.765.765,0,0,1-.5.134,8.947,8.947,0,0,1-1.159-.065q.388-.5.827-1.015.193-.225.384-.44l.761-.257Z" transform="translate(-2475.857 -3146.554)"/><path class="t" d="M2498.14,3080.545s-.435,2.27.118,2.906c.472.635-.228.182-.228.182l-.835.729-.5.866a14.328,14.328,0,0,0,.338-3.1c-.123-.882-.185-1.476-.185-1.476Z" transform="translate(-2482.99 -3032.544)"/><path class="u" d="M2454.324,2273.908s-1.169,1.046-1.169,5.352.553,13.655.553,13.655l.886,6.694a5.861,5.861,0,0,0,1.533-.152c.553-2.522,1.456-6.788,1.025-10.356a27.763,27.763,0,0,1,1.538-8.734s1.476,4.921,2.522,7.381,3.036,10.168,3.221,10.722a3.034,3.034,0,0,0,1.746-.212s-.785-8.3-1.522-11.432-.677-10.7-1.907-12.856C2459.982,2272.863,2454.324,2273.908,2454.324,2273.908Z" transform="translate(-2440.814 -2250.737)"/><path class="v" d="M2454.323,2273.908s-1.169,1.046-1.169,5.352.554,13.655.554,13.655l.885,6.694a5.862,5.862,0,0,0,1.534-.152c.554-2.522,1.456-6.788,1.025-10.356a27.76,27.76,0,0,1,1.538-8.734s1.476,4.921,2.522,7.381,3.037,10.168,3.221,10.722a3.029,3.029,0,0,0,1.746-.213s-.785-8.3-1.522-11.432-.677-10.7-1.907-12.855C2459.981,2272.863,2454.323,2273.908,2454.323,2273.908Z" transform="translate(-2440.813 -2250.736)"/><path class="w" d="M2460.394,2281.8a7.758,7.758,0,0,0,2.915,5.284c1.458,1.093.365,3.462.911,5.284.182.546.729,1.093.911,1.64.678,1.356.045,3.015.352,4.451a1.949,1.949,0,0,0,.7-.2s-.785-8.3-1.522-11.432-.677-10.7-1.907-12.855c-2.768-1.107-8.427-.061-8.427-.061s-1.169,1.046-1.169,5.352c0,.349,0,.732.01,1.14a4.431,4.431,0,0,0,5.225.122.722.722,0,0,1,.292-.133l.008-.023.006.021C2459.393,2280.261,2460.236,2281.166,2460.394,2281.8Z" transform="translate(-2440.813 -2250.736)"/><g transform="translate(23.909 49.416)"><path class="i" d="M2822.712,3168.64s-.18,0-.165.232-.081,1.031.833,1.069a2.784,2.784,0,0,0,1.084-.065,7.407,7.407,0,0,0-.239-.764l-.292-.374-.786-.083Z" transform="translate(-2822.546 -3167.295)"/><path class="x" d="M2825.694,3127.844a2.9,2.9,0,0,0-.236-.741c-.161-.363-.029-.5-.183-.829a.986.986,0,0,0-.218-.33.947.947,0,0,0-.646-.246.656.656,0,0,0-.3.072.7.7,0,0,0-.273.289,3.2,3.2,0,0,0-.22.653,1.662,1.662,0,0,0-.057.222,1.627,1.627,0,0,0-.024.2,4.259,4.259,0,0,1,1.355.18.762.762,0,0,1,.292.622c0,.24.12.352.24.344A.393.393,0,0,0,2825.694,3127.844Z" transform="translate(-2823.502 -3125.698)"/></g><path class="x" d="M2487.792,3163.137c.206,0,.356.167.47.562s.661.744.023.661-1.1.82-1.329,1.154-.839.631-.824.3.285-.479.36-.813S2487.323,3163.13,2487.792,3163.137Z" transform="translate(-2472.76 -3112.549)"/><path class="y" d="M2524.564,1833.207a6.926,6.926,0,0,0-2.006-5.359,6.8,6.8,0,0,0-4.362-1.677c-1.957-.008-2.662.938-3.413.474-1.275-.787-1.24-4.743.663-6.086,2.145-1.514,5.922.813,7.683,2.551a9.959,9.959,0,0,1,2.8,5.676,9.718,9.718,0,0,1-.215,3.565Z" transform="translate(-2499.665 -1811.544)"/><path class="z" d="M2376.241,1820.772c-2.153.533-3.783,1.044-4.441,2.24-.694,1.263.616,2.08,1.147,4.7.813,4.012-1.4,5.7-.437,9.724a10.556,10.556,0,0,0,1.238,2.994,11.126,11.126,0,0,0,3.48,1.646c2.267.612,3.324.083,6.31.036,4.884-.077,5.715,1.281,7.85.253,2.157-1.039,3.591-3.525,3.047-4.5-.326-.585-1.189-.142-2.519-.793-1.715-.839-1.534-2.168-2.95-3.194-2.034-1.473-3.759.29-5.5-.993-1.762-1.3-2.211-4.734-1.656-6.84.362-1.375.265-2.835.506-4.237a.891.891,0,0,0-.057-.5c-.33-.771-1.789-.818-2.891-.842A12.52,12.52,0,0,0,2376.241,1820.772Z" transform="translate(-2361.816 -1811.92)"/><path class="aa" d="M2461.7,1819.129l.382-.251s.275.536,1.645.215a2.1,2.1,0,0,0,1.111-.778l.348.126a2.3,2.3,0,0,1-1.407,1.239A2.09,2.09,0,0,1,2461.7,1819.129Z" transform="translate(-2449.088 -1809.844)"/><g transform="translate(12.943)"><path class="ab" d="M2472.417,1718.006a1.875,1.875,0,0,1,.36-1.307c.347-.489.428-.552.574-.626l.2-.094.023-.006a2.2,2.2,0,0,1,.62.036c.259.089.413,1.208.148,2.731.007.121.014.241.021.361.6-.065.769,0,.8.077.062.175-.5.583-1.069.765-.719.229-1.578.141-1.631-.1-.021-.1.082-.252.574-.519l.146-.418C2473.081,1718.843,2472.491,1718.483,2472.417,1718.006Z" transform="translate(-2472.4 -1710.698)"/><path class="ac" d="M2492.244,1763.724c.135-.146.322.029.3.236a.38.38,0,0,1-.44.334C2491.913,1764.229,2492.061,1763.92,2492.244,1763.724Z" transform="translate(-2491.4 -1756.91)"/><path class="ad" d="M2514.7,1548.46c-2.844-1.718-7.688.388-9.931,3.083-1.042,1.253-1.407,2.48-2.914,3.012a5.209,5.209,0,0,1-4.468-.473c-.169-.123-.854-.647-1.837-1.273a2.064,2.064,0,0,0-1.383-.462,1.013,1.013,0,0,0-.778.427,1.023,1.023,0,0,0,.042.948c.088.155.146.157.17.268.068.312-.45.607-.375.752.054.1.333-.021.423.1s-.182.358-.208.779a1.667,1.667,0,0,0-.134,1.308,5.423,5.423,0,0,0,.753,1.99c1.485,2.252,2.548,3.863,4.162,4.466,2.136.8,3.366-.87,7.779-2.359,6.041-2.04,8.169-.409,9.956-2.467C2518.188,1555.991,2517.654,1550.243,2514.7,1548.46Z" transform="translate(-2492.568 -1547.838)"/></g><path class="ae" d="M2075.8,1712.458a6.386,6.386,0,0,0,7.235,5.368c1.94-.259,2.509-1.293,3.317-.936,1.371.606,1.876,4.529.175,6.12-1.917,1.793-5.977,0-7.96-1.476a9.957,9.957,0,0,1-3.546-5.24,9.715,9.715,0,0,1-.275-3.561,1.723,1.723,0,0,1,1.054-.274Z" transform="translate(-2074.201 -1707.299)"/><path class="af" d="M2411.392,2205.676c-.706-.4-.434-1.7-1.48-2.3-.971-.559-1.634.313-3.028-.006-1.789-.409-1.821-2.1-3.536-2.515-1.234-.3-1.542.5-3.278.658a6.932,6.932,0,0,1-5.638-2.126,6.218,6.218,0,0,1-1.315-2.3,10.053,10.053,0,0,0-.234,5.183,10.564,10.564,0,0,0,1.238,2.994,11.121,11.121,0,0,0,3.48,1.646c2.267.612,3.324.083,6.31.036,4.884-.077,5.715,1.281,7.85.253a6.322,6.322,0,0,0,2.919-2.993C2412.858,2205.739,2411.9,2205.966,2411.392,2205.676Z" transform="translate(-2382.188 -2176.748)"/></g></g><g transform="translate(45.751 58.186) rotate(3)"><path class="ag" d="M11.977,2.283A2.385,2.385,0,0,1,9.916,4.911l-7.473.664A2.316,2.316,0,0,1,.011,3.345l0-.046A2.386,2.386,0,0,1,2.068.672L9.541.008a2.317,2.317,0,0,1,2.432,2.229Z" transform="translate(0 0)"/><g transform="translate(2.539 1.094)"><path class="g" d="M0,.131A3.743,3.743,0,0,1,.684.012a1.151,1.151,0,0,1,.756.113.6.6,0,0,1,.309.5.659.659,0,0,1-.384.645v.008a.686.686,0,0,1,.576.648.761.761,0,0,1-.206.6,1.381,1.381,0,0,1-.941.347,4.209,4.209,0,0,1-.583.014ZM.553,1.2.8,1.173c.327-.029.5-.211.48-.448C1.256.463,1.062.359.762.386A1.219,1.219,0,0,0,.495.43Zm.1,1.288A1.933,1.933,0,0,0,.9,2.473c.3-.027.563-.176.537-.521-.025-.324-.3-.434-.623-.4l-.234.021Z" transform="translate(0 0.501)"/><path class="g" d="M.473.138.6,1.771c.042.549.273.783.592.755.342-.031.526-.3.484-.851L1.549.042,2.022,0l.123,1.6c.066.865-.316,1.283-.938,1.338C.606,2.992.19,2.665.123,1.784L0,.18Z" transform="translate(2.207 0.219)"/><path class="g" d="M1.033,2.919.944,1.752,0,.191.538.143.9.835c.1.2.182.351.266.537h.007c.052-.185.111-.365.184-.577L1.619.048,2.153,0,1.415,1.7l.09,1.18Z" transform="translate(4.54 0)"/></g></g></g></g></svg>