<svg xmlns="http://www.w3.org/2000/svg" xmlns:xlink="http://www.w3.org/1999/xlink" width="90.517" height="90" viewBox="0 0 90.517 90"><defs><style>.a{fill:none;}.b{fill:#f4f7fa;}.c{fill:url(#a);}.d{clip-path:url(#b);}.e{opacity:0.8;}.aa,.e,.n{mix-blend-mode:soft-light;}.aa,.e,.n,.r,.u{isolation:isolate;}.f{fill:#fcfdfe;}.g{fill:url(#c);}.h{clip-path:url(#d);}.i{clip-path:url(#e);}.j{fill:url(#f);}.k{fill:url(#g);}.l{fill:url(#i);}.aa,.m{fill:#fff;}.o{clip-path:url(#j);}.p{fill:url(#k);}.q{fill:url(#l);}.aa,.r{opacity:0.3;}.r,.u{mix-blend-mode:multiply;}.r{fill:url(#m);}.s{fill:url(#n);}.t{fill:url(#o);}.u{opacity:0.4;fill:url(#p);}.v{fill:url(#q);}.w{fill:url(#r);}.x{fill:url(#w);}.y{fill:url(#x);}.z{fill:url(#y);}.ab{fill:url(#z);}.ac{fill:url(#aa);}.ad{fill:url(#ab);}.ae{fill:url(#ac);}.af{fill:url(#ad);}.ag{fill:url(#ae);}.ah{fill:url(#af);}</style><linearGradient id="a" x1="-3.542" y1="-1.829" x2="-3.06" y2="0.08" gradientUnits="objectBoundingBox"><stop offset="0" stop-color="#ffc444"/><stop offset="0.996" stop-color="#f36f56"/></linearGradient><clipPath id="b"><path class="a" d="M1915.9,975.24c1.979,4.287,3.815,8.73,5.784,13.057,2.692-.1,5.856-.285,6.056-3.634.278-4.655,7.982-7.353,11.707-7.888,4.611-.662,14.445-3.02,11.569-9.237-2.394-5.176-5.922-7.415-.3-11.534s7.467-9.074,3.974-14.411c-3.676-5.616,1.214-14.4-5.005-17.525-10.836-5.447-16.32,12.8-14.526,22.226s-3.646,7.986-9.536,10.582c-8.04,3.545-.019,10.4-2.647,14.482C1920.912,974.556,1918.953,974.25,1915.9,975.24Z" transform="translate(-1915.898 -923.072)"/></clipPath><linearGradient id="c" x1="-2.875" y1="-2.514" x2="-2.441" y2="-0.479" gradientUnits="objectBoundingBox"><stop offset="0.004" stop-color="#e38ddd"/><stop offset="1" stop-color="#9571f6"/></linearGradient><clipPath id="d"><path class="a" d="M644.166,1108.023c-1.1,4-2.063,8.111-3.153,12.143-2.348.3-5.117.587-5.768-2.287-.9-4-7.967-5.237-11.272-5.17-4.091.083-12.952-.56-11.345-6.359,1.338-4.828,4.076-7.272-1.382-10.041s-7.766-6.8-5.5-11.926c2.386-5.392-3.1-12.309,1.841-15.905,8.617-6.266,15.972,8.774,15.759,17.2s4.3,6.4,9.774,7.814c7.475,1.927,1.5,9.015,4.358,12.176C639.721,1108.144,641.377,1107.6,644.166,1108.023Z" transform="translate(-604.882 -1066.992)"/></clipPath><clipPath id="e"><path class="a" d="M965.533,529.293q5.7.845,11.442,1.477c.047.061,3.072-6.222.23-10.735-5.658-8.785,1.057-13.425,3.482-16.6,3.694-4.4,4.2-10.855-2.826-11.552-6.8-.809-4.734-12.214-1.248-20.48,2.11-3.909-1.255-10.283-5.685-12.746-4.495-2.616-10.054-1.321-13.825,6.591-4.894,9.016,2,17.161,3.82,22.856,1.791,5.592-6.464,7.448-1.824,13.243,3.848,5.073,9.253,9.446,5.716,13.517C961.231,518.865,960.741,522.807,965.533,529.293Z" transform="translate(-955.38 -457.432)"/></clipPath><linearGradient id="f" x1="0.537" y1="-0.803" x2="-0.285" y2="0.086" gradientUnits="objectBoundingBox"><stop offset="0" stop-color="#ff9085"/><stop offset="1" stop-color="#fb6fbb"/></linearGradient><linearGradient id="g" y1="0.5" x2="1" y2="0.5" gradientUnits="objectBoundingBox"><stop offset="0" stop-color="#444b8c"/><stop offset="0.996" stop-color="#26264f"/></linearGradient><linearGradient id="i" x1="0.622" y1="0.068" x2="0.123" y2="1.423" xlink:href="#c"/><clipPath id="j"><path class="a" d="M501.576,1696.279c-7.264-7.421-11.39-31.122-4.127-38.195,7.153-6.965,38.662-1.294,43.954,7.326,7.22,11.759-7.891,24.229-14.612,31.147A17.509,17.509,0,0,1,501.576,1696.279Z" transform="translate(-493.647 -1654.961)"/></clipPath><linearGradient id="k" x1="-2.662" y1="0.48" x2="-1.858" y2="0.513" xlink:href="#a"/><linearGradient id="l" x1="3.641" y1="1.891" x2="2.423" y2="0.228" gradientUnits="objectBoundingBox"><stop offset="0" stop-color="#aa80f9"/><stop offset="0.996" stop-color="#6165d7"/></linearGradient><linearGradient id="m" x1="4.881" y1="1.98" x2="3.159" y2="0.25" xlink:href="#l"/><linearGradient id="n" x1="2.048" y1="2.106" x2="0.955" y2="0.493" xlink:href="#l"/><linearGradient id="o" x1="0.481" y1="0.835" x2="1.145" y2="-0.249" xlink:href="#a"/><linearGradient id="p" x1="0.59" y1="0.808" x2="1.43" y2="-0.847" xlink:href="#f"/><linearGradient id="q" y1="0.5" x2="1" y2="0.5" gradientUnits="objectBoundingBox"><stop offset="0.004" stop-color="#6165d7"/><stop offset="1" stop-color="#aa80f9"/></linearGradient><linearGradient id="r" y1="0.5" x2="1" y2="0.5" gradientUnits="objectBoundingBox"><stop offset="0" stop-color="#311944"/><stop offset="1" stop-color="#893976"/></linearGradient><linearGradient id="w" x1="0.838" y1="0.728" x2="0.376" y2="0.417" gradientUnits="objectBoundingBox"><stop offset="0.004" stop-color="#26264f"/><stop offset="1" stop-color="#444b8c"/></linearGradient><linearGradient id="x" x1="-4.115" y1="0.558" x2="-5.159" y2="1.055" xlink:href="#w"/><linearGradient id="y" x1="0.521" y1="4.564" x2="0.495" y2="-0.403" xlink:href="#l"/><linearGradient id="z" x1="-0.558" y1="1.634" x2="0.334" y2="-0.264" xlink:href="#a"/><linearGradient id="aa" x1="-1.329" y1="-3.784" x2="-1.845" y2="-1.74" gradientUnits="objectBoundingBox"><stop offset="0" stop-color="#40447e"/><stop offset="0.996" stop-color="#3c3b6b"/></linearGradient><linearGradient id="ab" x1="-2.234" y1="-3.525" x2="-2.601" y2="-2.003" xlink:href="#aa"/><linearGradient id="ac" x1="-1.355" y1="-3.778" x2="-1.881" y2="-1.734" xlink:href="#l"/><linearGradient id="ad" x1="-2.223" y1="-3.52" x2="-2.59" y2="-1.999" xlink:href="#l"/><linearGradient id="ae" x1="-18.28" y1="-25.981" x2="-18.153" y2="-28.643" xlink:href="#l"/><linearGradient id="af" x1="-3.452" y1="-4.073" x2="-3.434" y2="-4.485" xlink:href="#l"/></defs><g transform="translate(0.517)"><rect class="a" width="90" height="90"/><g transform="translate(-469.343 -449.762)"><path class="b" d="M551.2,479.22c2.268-20.658-17.76-27.835-31.958-22.546-14.314,5.332-17.632-3.507-37.759-.981-20.38,2.557-10.033,34.548-10.033,34.548s3.243,27.818,7.085,40.641c3.821,12.753,40.4,8.139,49.293,7.759,8.846-.378,16.533.352,24.23-13.651C559.742,511.012,548.942,499.81,551.2,479.22Z"/><g transform="translate(512.959 469.276)"><g transform="translate(0 0)"><path class="c" d="M1978.4,985.951a5.66,5.66,0,0,1-2.5-.949c-2.137-2.141-6.4-5.889-6.59-9.081-.032-.545,2.327-1.336,2.607-1.873a6.465,6.465,0,0,0,2.824-2.557c2.681-4.345-5.4-10.944,2.658-14.56,5.9-2.648,11.328-1.153,9.537-10.589s3.691-27.672,14.527-22.23c6.219,3.123,1.328,11.911,5.005,17.526,3.494,5.336,1.645,10.291-3.975,14.411s-2.09,6.354.3,11.535c2.873,6.224-6.949,8.555-11.575,9.245C1987.5,977.383,1978.385,981.311,1978.4,985.951Z" transform="translate(-1967.682 -923.115)"/><g class="d"><g class="e" transform="translate(4.967 -1.59)"><path class="f" d="M2078.838,930.128a55.247,55.247,0,0,0,12.818-11.4,57.215,57.215,0,0,0,8.561-14.3,67.681,67.681,0,0,0,4.479-33.495l-.127.014c2.764,24.811-6.88,46.893-25.8,59.069Z" transform="translate(-2078.769 -870.937)"/><g transform="translate(9.926 47.877)"><path class="f" d="M2425.951,2441.4l.025-.125c-6.055-1.219-15.808-.111-21.741,2.468l.051.117C2410.2,2441.285,2419.917,2440.181,2425.951,2441.4Z" transform="translate(-2404.235 -2440.775)"/></g><g transform="translate(2.85 35.156)"><path class="f" d="M2173.1,2045.254c2.231-2.554,3.086-6.13,2.542-10.63a38.25,38.25,0,0,0-3.329-10.975l-.116.053a38.142,38.142,0,0,1,3.319,10.937c.54,4.462-.305,8.005-2.511,10.53Z" transform="translate(-2172.201 -2023.65)"/></g><g transform="translate(21.894 24.252)"><path class="f" d="M2796.761,1673.892c3.884-4.935,10.2-6.884,14.822-7.65l-.021-.126c-4.64.769-10.992,2.729-14.9,7.7Z" transform="translate(-2796.661 -1666.116)"/></g><g transform="translate(17.608 2.313)"><path class="f" d="M2664.2,962.494c-.33-7.163-5.154-12.928-8-15.727l-.09.091c2.833,2.786,7.634,8.522,7.962,15.642Z" transform="translate(-2656.115 -946.767)"/></g></g></g></g></g><g transform="translate(472.975 455.074)"><g transform="translate(0 18.59)"><path class="g" d="M636.384,1118.836a4.971,4.971,0,0,0,2.028-1.179c1.548-2.16,4.708-6.017,4.418-8.811-.049-.477-2.208-.826-2.527-1.252a5.68,5.68,0,0,1-2.812-1.814c-2.943-3.385,3.119-10.256-4.379-12.242-5.492-1.455-9.984.615-9.776-7.82s-7.143-23.461-15.761-17.2c-4.946,3.594.546,10.514-1.841,15.905-2.268,5.123.04,9.155,5.5,11.926s2.717,5.21,1.382,10.042c-1.6,5.8,7.243,6.426,11.351,6.365C627.275,1112.706,635.733,1114.812,636.384,1118.836Z" transform="translate(-604.867 -1067.031)"/><g transform="translate(0)"><g class="h"><g class="e" transform="translate(-1.122 -1.172)"><g transform="translate(5.965)"><path class="f" d="M794.536,1076.2a48.533,48.533,0,0,1-12.735-8.052,50.266,50.266,0,0,1-9.459-11.176,59.457,59.457,0,0,1-8.656-28.4l.112-.006c1.139,21.9,12.647,39.668,30.782,47.527Z" transform="translate(-763.687 -1028.573)"/></g><g transform="translate(7.883 40.98)"><path class="f" d="M826.6,2374.15l-.04-.1c5.075-1.919,13.687-2.349,19.2-.958l-.027.109C840.237,2371.809,831.656,2372.237,826.6,2374.15Z" transform="translate(-826.559 -2372.27)"/></g><g transform="translate(29.536 27.208)"><path class="f" d="M1540.287,1939.537c-2.3-1.9-3.549-4.874-3.718-8.852a33.613,33.613,0,0,1,1.322-9.988l.108.029a33.5,33.5,0,0,0-1.318,9.954c.168,3.945,1.405,6.9,3.678,8.77Z" transform="translate(-1536.548 -1920.697)"/></g><g transform="translate(0 22.577)"><path class="f" d="M582.024,1773.469c-4.07-3.725-9.826-4.513-13.938-4.519v-.112c4.132.006,9.917.8,14.013,4.548Z" transform="translate(-568.086 -1768.838)"/></g><g transform="translate(8.632 0.838)"><path class="f" d="M851.227,1070.819c-.735-6.256,2.625-11.941,4.693-14.773l.091.066c-2.058,2.818-5.4,8.475-4.672,14.693Z" transform="translate(-851.124 -1056.046)"/></g></g></g></g></g><g transform="translate(10.69 0)"><g class="i"><path class="j" d="M965.533,529.293q5.7.845,11.442,1.477c.047.061,3.072-6.222.23-10.735-5.658-8.785,1.057-13.425,3.482-16.6,3.67-4.407,3.968-10.191-2.2-11.974-6.813-2.09-5.47-11.841-1.872-20.057,2.11-3.909-1.255-10.283-5.685-12.746-4.495-2.616-10.054-1.321-13.825,6.591-4.894,9.016,2,17.161,3.82,22.856,1.791,5.592-6.464,7.448-1.824,13.243,3.848,5.073,9.253,9.446,5.716,13.517C961.231,518.865,960.741,522.807,965.533,529.293Z" transform="translate(-955.38 -457.432)"/><g class="e" transform="translate(1.017 -0.785)"><g transform="translate(9.867)"><path class="f" d="M1316.32,506.08a194.632,194.632,0,0,0-2-30.107c-.234-2.428-.535-4.889-.825-7.269-.779-6.38-1.585-12.977-1.118-19.2a32.633,32.633,0,0,1,6.42-17.816l.119.071c-8.433,11.151-6.9,23.681-5.282,36.946.291,2.381.591,4.842.825,7.269a194.409,194.409,0,0,1,2,30.144l-.135-.039.068.02Z" transform="translate(-1312.234 -431.687)"/></g><g transform="translate(0 6.554)"><path class="f" d="M998.634,664.775c-3.065-4.9-6.539-11.621-8.4-15.231-.8-1.543-1.428-2.762-1.518-2.85l.039-.028.006-.073c.094.014.157.123,1.6,2.913,1.865,3.608,5.338,10.325,8.4,15.222Z" transform="translate(-988.711 -646.593)"/></g><g transform="translate(9.964 10.019)"><path class="f" d="M1315.474,769.556l-.051-.2A17.528,17.528,0,0,1,1322.2,762a13.188,13.188,0,0,1,4.715-1.79c.107-.008.15,0,.18.028l-.1.073a.059.059,0,0,0,.029.016,11.854,11.854,0,0,0-4.392,1.576A17.9,17.9,0,0,0,1315.474,769.556Z" transform="translate(-1315.423 -760.209)"/></g><g transform="translate(13.12 36.608)"><path class="f" d="M1418.888,1649.511c.53-4.2,2.862-8.236,6.931-11.988a39.334,39.334,0,0,1,7.46-5.334c.148-.083.265-.148.283-.163l.1.089c-.025.021-.105.066-.3.176-3.934,2.2-13.207,8.292-14.337,17.244Z" transform="translate(-1418.888 -1632.027)"/></g><g transform="translate(0.646 39.306)"><path class="f" d="M1021.881,1730.588c-2.752-7.017-11.765-9.937-11.92-9.98h0l.01-.057-.036.048-.031-.068.065-.039c.084,0,9.26,2.964,12.047,10.07Z" transform="translate(-1009.901 -1720.491)"/></g><g transform="translate(13.963 64.026)"><path class="f" d="M1446.546,2538.94c.408-1.791,2-4.594,7.248-7.776.123-.075.23-.139.246-.154l.044.036.082.013c0,.034,0,.034-.284.2-5.218,3.162-6.8,5.938-7.2,7.71Z" transform="translate(-1446.546 -2531.011)"/></g><g transform="translate(6.25 59.272)"><path class="f" d="M1201.332,2384.281c-.23-3.348-4.806-7.027-7.514-8.923-.092-.065-.152-.106-.172-.123l.09-.083c.02.016.077.056.165.117,2.728,1.91,7.338,5.62,7.571,9.016Z" transform="translate(-1193.646 -2375.152)"/></g></g></g></g></g><g transform="translate(487.613 457.916)"><g transform="translate(0 0)"><path class="k" d="M1147.076,553.493l-8.492,70.58a1.86,1.86,0,0,0,1.624,2.108l35.369,3.883c2.167.135,3.353-.972,3.487-2.1l8.915-75.039c.133-1.119-.93-2.132-3.106-2.132l-35.69.752A2.25,2.25,0,0,0,1147.076,553.493Z" transform="translate(-1136.931 -550.79)"/><path class="k" d="M1093.4,553.195l-8.538,70.933a1.868,1.868,0,0,0,1.629,2.119l36.667,3.651a2.144,2.144,0,0,0,2.338-1.848l8.965-75.426a1.779,1.779,0,0,0-1.873-2.009l-37.074.626A2.26,2.26,0,0,0,1093.4,553.195Z" transform="translate(-1084.843 -550.614)"/><path class="l" d="M1136.089,693.994l-7.914,65.769a1.742,1.742,0,0,0,1.526,1.976l34.484,3.352a2,2,0,0,0,2.173-1.725l8.285-69.677a1.667,1.667,0,0,0-1.739-1.883l-34.838.371A2.1,2.1,0,0,0,1136.089,693.994Z" transform="translate(-1126.841 -687.5)"/><path class="m" d="M1994.275,611.592a.587.587,0,0,0,.606.675.809.809,0,0,0,.771-.694.587.587,0,0,0-.607-.675A.809.809,0,0,0,1994.275,611.592Z" transform="translate(-1966.535 -609.06)"/><g class="n" transform="translate(9.476)"><path class="m" d="M1401.272,601.255c7.06-13.052,17.606-16.959,20.781-30.411a36.1,36.1,0,0,0-1.423-20.008l13.172-.222a1.779,1.779,0,0,1,1.873,2.009l-8.965,75.426a2.143,2.143,0,0,1-2.337,1.848l-28.824-2.87C1395.335,615.332,1398.125,607.073,1401.272,601.255Z" transform="translate(-1395.537 -550.613)"/></g></g><g transform="translate(13.092 15.478)"><path class="m" d="M1526.662,1677.376l-1.839.841a.586.586,0,0,0-.3.762l.458,1.048a9.4,9.4,0,0,0-1.26,1.012l-.915-.665a.577.577,0,0,0-.8.136l-1.19,1.616a.578.578,0,0,0,.108.806l.9.675a9.543,9.543,0,0,0-.6,1.507l-1.122-.125a.587.587,0,0,0-.638.516l-.258,2.012a.577.577,0,0,0,.492.656l1.119.138a9.593,9.593,0,0,0,.217,1.641l-1.051.458a.611.611,0,0,0-.312.786l.768,1.93a.58.58,0,0,0,.765.333l1.066-.456a9.757,9.757,0,0,0,1.01,1.361l-.7.957a.643.643,0,0,0,.116.872l1.657,1.342a.584.584,0,0,0,.848-.1l.718-.978a9.877,9.877,0,0,0,1.579.691l-.135,1.249a.668.668,0,0,0,.547.73l2.147.339a.6.6,0,0,0,.692-.541l.128-1.271a9.539,9.539,0,0,0,1.723-.21l.529,1.21a.67.67,0,0,0,.851.371l2.034-.823a.624.624,0,0,0,.317-.849l-.552-1.222a9.39,9.39,0,0,0,1.368-1.069l1.084.811a.649.649,0,0,0,.917-.11l1.3-1.775a.654.654,0,0,0-.17-.911l-1.106-.8a9.539,9.539,0,0,0,.6-1.621l1.343.166a.62.62,0,0,0,.711-.556l.174-2.188a.672.672,0,0,0-.606-.7l-1.336-.149a9.613,9.613,0,0,0-.324-1.688l1.206-.516a.6.6,0,0,0,.307-.821l-.963-1.947a.665.665,0,0,0-.855-.306l-1.187.517a9.768,9.768,0,0,0-1.109-1.285l.74-1.009a.585.585,0,0,0-.156-.838l-1.766-1.183a.638.638,0,0,0-.862.146l-.729.993a9.851,9.851,0,0,0-1.567-.558l.121-1.2a.58.58,0,0,0-.544-.63l-2.062-.163a.607.607,0,0,0-.654.529l-.127,1.169a9.531,9.531,0,0,0-1.609.276l-.477-1.057A.576.576,0,0,0,1526.662,1677.376Zm6.065,16.214a6.26,6.26,0,0,1-8.156-3.388,6.11,6.11,0,0,1,3.117-7.957,6.262,6.262,0,0,1,8.179,3.079A6.093,6.093,0,0,1,1532.727,1693.589Z" transform="translate(-1519.042 -1657.865)"/><path class="m" d="M1518.216,1059.284l-1.181.831a.4.4,0,0,0-.125.551l.436.626a7.09,7.09,0,0,0-.762.862l-.712-.3a.435.435,0,0,0-.543.212l-.649,1.256a.369.369,0,0,0,.166.52l.707.309a6.557,6.557,0,0,0-.251,1.095l-.8.091a.441.441,0,0,0-.389.443l.047,1.379a.371.371,0,0,0,.418.358l.8-.085a5.98,5.98,0,0,0,.337,1.054l-.682.471a.422.422,0,0,0-.129.571l.754,1.157a.4.4,0,0,0,.57.1l.69-.474a6.039,6.039,0,0,0,.853.737l-.38.746a.406.406,0,0,0,.178.557l1.3.616a.439.439,0,0,0,.574-.2l.386-.76a6.7,6.7,0,0,0,1.161.2l.045.842a.416.416,0,0,0,.456.39l1.5-.126a.447.447,0,0,0,.412-.466l-.052-.852a7.159,7.159,0,0,0,1.148-.414l.491.706a.448.448,0,0,0,.617.105l1.283-.861a.427.427,0,0,0,.121-.6l-.5-.708a7.077,7.077,0,0,0,.8-.911l.816.357a.469.469,0,0,0,.6-.215l.678-1.355a.409.409,0,0,0-.212-.565l-.827-.352a6.537,6.537,0,0,0,.227-1.147l.916-.1a.451.451,0,0,0,.415-.469l-.119-1.447a.418.418,0,0,0-.48-.366l-.91.1a5.94,5.94,0,0,0-.4-1.051l.753-.516a.406.406,0,0,0,.117-.58l-.855-1.126a.448.448,0,0,0-.608-.074l-.743.513a6.072,6.072,0,0,0-.888-.676l.39-.769a.371.371,0,0,0-.2-.526l-1.325-.517a.465.465,0,0,0-.569.222l-.387.759a6.78,6.78,0,0,0-1.13-.136l-.049-.8a.373.373,0,0,0-.441-.336l-1.432.194a.445.445,0,0,0-.391.446l.043.791a7.182,7.182,0,0,0-1.078.421l-.447-.628A.4.4,0,0,0,1518.216,1059.284Zm5.953,9.749a4.275,4.275,0,0,1-5.967-.943,4.188,4.188,0,0,1,1.266-5.738,4.3,4.3,0,0,1,5.926.789A4.17,4.17,0,0,1,1524.169,1069.032Z" transform="translate(-1514.113 -1058.124)"/></g></g><g transform="translate(469.583 491.597)"><g class="o" transform="translate(0 0)"><g transform="translate(2.422 2.729)"><path class="m" d="M1940.49,2034.662s-.337-1.673.075-2.01,1.773-2.684,1.71-2.022a8.167,8.167,0,0,1-.349,1.51s1.286.125.961.886-1.142.8-1.076,1.195S1940.54,2036.023,1940.49,2034.662Z" transform="translate(-1898.66 -2021.788)"/><path class="p" d="M1335.051,2016.594l1.91-.133c1.5,6.07.425,11.959-2.966,14.124-5.3,3.383-15.142-2.991-17.275-9.932-.936-3.047-.723-7.443,1.148-8.3.52-.237,1.326-.274,3.072.707,5.216,2.928,5.353,8.463,8,8.931C1330.124,2022.2,1332.028,2021.45,1335.051,2016.594Z" transform="translate(-1293.516 -2004.048)"/><path class="q" d="M1150.518,2869.549h6.938c-.327-5.878-.323-11.327-.122-16.265l-9.727,1.505a58.845,58.845,0,0,0,2.791,14.4Q1150.458,2869.372,1150.518,2869.549Z" transform="translate(-1130.085 -2819.466)"/><path class="r" d="M1150.518,2889.78h4.055c-.422-2.24-1.813-3.615-2.564-5.22-.923-1.972-1.276-5.139,1.21-10.408l-5.613.869a58.843,58.843,0,0,0,2.791,14.4Q1150.458,2889.6,1150.518,2889.78Z" transform="translate(-1130.085 -2839.698)"/><path class="s" d="M885.805,2853.7q.784-8.432,1.678-16.644c-6.414-.648-8.738,1.517-9.49,2.389-2.129,2.472-1.682,6.526-.461,14.255Z" transform="translate(-867.252 -2803.617)"/><path class="t" d="M674.483,1974.306a25.829,25.829,0,0,1,8.374-3.865,22.5,22.5,0,0,1,7.216-.213c4.861.369,7.9.6,9.895,2.889a8.293,8.293,0,0,1,1.815,5.211c.049,2.253-.827,3.4-1.471,5.27-1.036,3.005.012,3.568.317,11.558,0,0,.3,9.479-2.113,10.923-1.034.618-1.915,2.742-7.19,2.219-3.537-.351-4.687-.416-6.478.191-2.439.825-3.4-.757-4.408-1.208-.965-.432-1.088-2.1-1.2-5-.18-4.48-.169-7.525-.185-8.615-.076-5-1.342-8.819-2.964-13.71C675.071,1976.9,675.3,1976.046,674.483,1974.306Z" transform="translate(-671.39 -1963.161)"/><path class="u" d="M774.252,2360.729c-2.594-1.107-2.579-3.4-5-4.354-3.4-1.339-7.708,1.31-7.874.926-.184-.427,6.153-2.1,7.952-6.814.684-1.791.861-4.413-.427-5.518-1.537-1.319-3.665.8-6.054-.378-2.748-1.357-2.273-5.316-4.616-5.979-1.241-.351-2.563.423-3.513,1.164a36.47,36.47,0,0,1,2.12,11.134c.017,1.09.006,4.135.185,8.615.117,2.9.239,4.57,1.2,5a4.533,4.533,0,0,0,4.313.376c1.791-.606,3.227-.351,6.764,0,5.274.523,5.965-.961,7-1.579a2.768,2.768,0,0,0,1.207-2.169A6.453,6.453,0,0,1,774.252,2360.729Z" transform="translate(-749.177 -2320.406)"/><path class="v" d="M795.858,2226.286s-.561-7.624,4.6-7.869,13.9-3.445,15.193.792,1.609,20.959,1,23.092-2.51,6.579-4.96,5.877-15.984,2.128-16.582-.7S792.718,2228.714,795.858,2226.286Z" transform="translate(-787.317 -2202.615)"/><g transform="translate(13.798)"><path class="m" d="M1029.9,1813.722a14.707,14.707,0,0,1-.419,2.922c-.194.774-.314.97-.463,1.127-.223.236-.553.426-2.378.776-.993.191-1.119.177-1.146.273-.131.469,2.455,2.229,5.237,1.986,1.7-.148,3.291-1.03,3.224-1.542s-1.77-.331-2.224-1.28c-.316-.66.125-1.549.629-2.278C1031.954,1814.841,1030.3,1814.587,1029.9,1813.722Z" transform="translate(-1025.488 -1811.609)"/><g transform="translate(3.154)"><path class="w" d="M1133.255,1747.211a1.78,1.78,0,0,0,.073-2.041,1.939,1.939,0,0,0-1.357-.692,2.932,2.932,0,0,0-2.986,1.164c-.312.574.23,1.83.313,2.055.094.254.285.35.456.548.236.274.606.71,1.209,1.438a4.469,4.469,0,0,1,.284-.719,3.942,3.942,0,0,1,.559-.833C1132.4,1747.473,1132.851,1747.693,1133.255,1747.211Z" transform="translate(-1128.889 -1744.434)"/><path class="m" d="M1142.48,1814.225a2.415,2.415,0,0,0,2.065,1.186c1.27-.015,1.606-2.842.83-3.487a1.6,1.6,0,0,0-1.24-.228c-.263.059-.357.162-.789.25-.4.081-.507.032-.631.125-.155.117-.28.417-.076,1.26a.689.689,0,0,0-.724-.281.434.434,0,0,0-.177.155C1141.545,1813.519,1141.819,1813.949,1142.48,1814.225Z" transform="translate(-1141.288 -1809.609)"/><path class="w" d="M1146.019,1819.223c.058.049-.14.266-.171.588a1.551,1.551,0,0,0,1.175,1.506c.38.058.5-.167,1.132-.2a2.9,2.9,0,0,1,.918.1,1.523,1.523,0,0,1-.537,1.663,1.586,1.586,0,0,1-1.39-.026,1.812,1.812,0,0,1-1-.816c-.279-.557.041-.866-.293-1.25a2.939,2.939,0,0,1-.606-.655,1.733,1.733,0,0,1-.115-.247C1145.479,1819.56,1145.934,1819.152,1146.019,1819.223Z" transform="translate(-1144.639 -1816.934)"/><path class="m" d="M1233.191,1892.393a1.542,1.542,0,0,1-.752.076c-.023,0-.049,0-.052.015a.581.581,0,0,0,.562.2c.2-.045.365-.225.341-.274C1233.28,1892.387,1233.235,1892.388,1233.191,1892.393Z" transform="translate(-1229.23 -1887.878)"/></g></g><path class="v" d="M831.858,1980.689s3.319,7.575,2.684,9.951-2.5.731-2.58.245-3.943-8.921-3.943-8.921A4.644,4.644,0,0,1,831.858,1980.689Z" transform="translate(-820.244 -1973.441)"/><path class="v" d="M1307.882,1983.81c-.075.042,2.756,6.872,2.42,8.422s2.538.652,2.223-.638-1.156-6.688-1.738-7.227A3.9,3.9,0,0,0,1307.882,1983.81Z" transform="translate(-1285.47 -1976.41)"/><path class="v" d="M1083.882,2333.989l9.505-1.6s1.117,5.3-3.4,5.972S1083.994,2336.457,1083.882,2333.989Z" transform="translate(-1068.303 -2314.459)"/><g transform="translate(19.941 15.322)"><path class="x" d="M1240.676,2253.141l-10.1,1.434a.275.275,0,0,0-.228.206l-3.421,13.744c-.049.2.214.651.413.609l9.888-2.391a.274.274,0,0,0,.208-.2l3.7-12.881C1241.19,2253.474,1240.871,2253.113,1240.676,2253.141Z" transform="translate(-1226.918 -2252.947)"/><path class="y" d="M1246.849,2263.208l-10.1,1.434a.275.275,0,0,0-.228.206l-3.421,13.744a.275.275,0,0,0,.324.336l9.977-2.118a.275.275,0,0,0,.208-.2l3.546-13.06A.275.275,0,0,0,1246.849,2263.208Z" transform="translate(-1232.901 -2262.705)"/><path class="z" d="M1469.42,2248.1l.283-1.1a.147.147,0,0,0-.157-.183l-3.692.378a.147.147,0,0,0-.129.116l-.252,1.207a.147.147,0,0,0,.163.175l3.661-.488A.147.147,0,0,0,1469.42,2248.1Z" transform="translate(-1458.195 -2246.815)"/><path class="aa" d="M1373.928,2275.12c.44-2.2-.786-3.484.15-5.257,1.325-2.509,4.789-1.859,5.641-3.86a3.03,3.03,0,0,0-.215-2.464l2.317-.328a.275.275,0,0,1,.3.344l-3.546,13.06a.275.275,0,0,1-.208.2l-6.064,1.287A6.065,6.065,0,0,0,1373.928,2275.12Z" transform="translate(-1367.872 -2262.708)"/></g><path class="m" d="M1177.3,2561.407a9.065,9.065,0,0,0,2.054-.894,3.718,3.718,0,0,1,1.994-1.151c.875-.056,1.8.3,1.405.44s-1.062,1.018-1.6,1.392a5.567,5.567,0,0,1-2.1.544,4.971,4.971,0,0,0-1.152.687Z" transform="translate(-1158.871 -2534.502)"/><path class="ab" d="M592.389,2123.719a3.078,3.078,0,0,1,1.223,1.947c.342,2.713-4.315,6.145-8.759,6.518a11.123,11.123,0,0,1-8.655-3.252c-4.046-4.16-4.285-11.982-.037-19.039l3.258,1.614a7.892,7.892,0,0,1,4.386,8.1,5.346,5.346,0,0,0,1.683,5.109C587.124,2125.875,590.011,2125.494,592.389,2123.719Z" transform="translate(-573.069 -2098.747)"/></g></g></g><g transform="translate(506.745 476.954)"><path class="ac" d="M1720.608,1190.758l6.431-2.017,1.469-6.578-7.113-5.839c-.432-.4.264-1.4.849-1.454a10.311,10.311,0,1,1-6.1,17.865c-2.214-2.036-3.682-4.49-3.68-7.279,0-.588,1.044-1.221,1.477-.823Z" transform="translate(-1712.457 -1174.833)"/><path class="ad" d="M2193.155,1621.013l24.709,21.129a3.757,3.757,0,0,1,.29,5.368h0a3.757,3.757,0,0,1-5.373.163l-23.147-22.83Z" transform="translate(-2175.073 -1607.405)"/><path class="ae" d="M1719.942,1205.06l6.431-2.017,1.469-6.578-6.664-6.125a.674.674,0,0,1,.4-1.168,10.311,10.311,0,1,1-9.43,10.261.674.674,0,0,1,1.13-.5Z" transform="translate(-1712.148 -1188.698)"/><path class="af" d="M2181.467,1635.316l24.709,21.129a3.757,3.757,0,0,1,.29,5.368h0a3.757,3.757,0,0,1-5.373.164l-23.147-22.831Z" transform="translate(-2163.741 -1621.272)"/><path class="ag" d="M2245.911,1703.156a1.525,1.525,0,1,0,2.155-.091A1.525,1.525,0,0,0,2245.911,1703.156Z" transform="translate(-2229.242 -1686.565)"/><path class="ah" d="M2327.359,1779.886l20.055,18.433a.9.9,0,0,0,1.275-.054h0a.9.9,0,0,0-.053-1.275l-20.055-18.433Z" transform="translate(-2308.596 -1760.145)"/></g></g></g></svg>