<svg xmlns="http://www.w3.org/2000/svg" xmlns:xlink="http://www.w3.org/1999/xlink" width="411.379" height="336.104" viewBox="0 0 411.379 336.104"><defs><style>.a,.ac,.ag,.ah,.ai,.g,.k,.m,.o,.w,.x,.y{fill:none;}.b{opacity:0.39;}.c,.i{fill:#d1c4e9;}.c{opacity:0.64;}.d{fill:#b39ddb;opacity:0.31;}.e{opacity:0.24;mix-blend-mode:overlay;isolation:isolate;}.f{clip-path:url(#a);}.g,.k,.m,.o,.y{stroke:#fff;}.ac,.g,.k,.m,.o{stroke-miterlimit:10;}.g{stroke-width:1.594px;}.h{clip-path:url(#b);}.i{opacity:0.3;}.j{fill:#32b5c6;}.k{stroke-width:1.177px;}.l{fill:#4dd0e1;}.m{stroke-width:1.593px;}.n{fill:#60e3f4;}.o{stroke-width:1.494px;}.p{fill:#39306c;}.q{fill:#4b4583;}.r,.v{fill:#fff;}.r{opacity:0.74;}.s{fill:#e02d76;}.t{fill:#f7327a;}.u{fill:#221b4c;}.ag,.ah,.ai,.w,.x{stroke:#4b4583;}.ag,.ah,.ai,.w,.x,.y{stroke-linecap:round;stroke-linejoin:round;}.w{stroke-width:0.978px;}.x{stroke-width:0.684px;}.y{stroke-width:1.665px;}.z{fill:#dd3178;}.aa{fill:#f4ae98;}.ab{fill:#ffb99f;}.ac{stroke:#f7327a;stroke-width:1.052px;}.ad{fill:#47417f;}.ae{fill:#5e5896;}.af{opacity:0.07;}.ah{stroke-width:2px;}.ai{stroke-width:1.398px;}</style><clipPath id="a"><ellipse class="a" cx="34.59" cy="34.59" rx="34.59" ry="34.59" transform="matrix(0.23, -0.973, 0.973, 0.23, 0, 67.329)"/></clipPath><clipPath id="b"><ellipse class="a" cx="21.607" cy="21.607" rx="21.607" ry="21.607"/></clipPath></defs><g transform="translate(-158.257 -4.916)"><g transform="translate(158.257 4.916)"><g class="b"><path class="c" d="M669.819,134c-22.043-5-62.533-35.333-94.543,9.836-28.449,40.145-68.306,32.587-88.742,24-34.132-14.341-79.52-22.421-94.307,17.454s8.362,73.421-63.215,91.6-58.037,99.361,12.619,108.861,89.993-29,153.569-19.538c64.441,9.591,59.673,107.176,169.124,86.4Z" transform="translate(-281.536 -119.403)"/><path class="d" d="M689.289,166.585c-18,12-84.56,26.4-113.726-7.3-30.679-35.45-72.852-56.778-97.774-.7S460.967,234.719,383.36,225.5c-77.761-9.237-99.955,64.4-48.026,96.273C388.657,354.5,403.027,396.858,491.03,405c54.04,5,157.583-23.743,186-69.319C703.023,293.992,689.289,166.585,689.289,166.585Z" transform="translate(-281.536 -119.403)"/></g><g class="e" transform="translate(178.312 70.371)"><g transform="translate(102.461)"><g class="f"><g transform="translate(-121.678 -15.019)"><line class="g" x1="113.262" y2="113.262"/><line class="g" x1="113.262" y2="113.262" transform="translate(5.926)"/><line class="g" x1="113.262" y2="113.262" transform="translate(11.851)"/><line class="g" x1="113.262" y2="113.262" transform="translate(17.776)"/><line class="g" x1="113.262" y2="113.262" transform="translate(23.702)"/><line class="g" x1="113.262" y2="113.262" transform="translate(29.627)"/><line class="g" x1="113.262" y2="113.262" transform="translate(35.553)"/><line class="g" x1="113.262" y2="113.262" transform="translate(41.478)"/><line class="g" x1="113.262" y2="113.262" transform="translate(47.404)"/><line class="g" x1="113.262" y2="113.262" transform="translate(53.329)"/><line class="g" x1="113.262" y2="113.262" transform="translate(59.254)"/><line class="g" x1="113.262" y2="113.262" transform="translate(65.18)"/><line class="g" x1="113.262" y2="113.262" transform="translate(71.105)"/><line class="g" x1="113.262" y2="113.262" transform="translate(77.031)"/><line class="g" x1="113.262" y2="113.262" transform="translate(82.956)"/><line class="g" x1="113.262" y2="113.262" transform="translate(88.882)"/><line class="g" x1="113.262" y2="113.262" transform="translate(94.807)"/><line class="g" x1="113.262" y2="113.262" transform="translate(100.733)"/><line class="g" x1="113.262" y2="113.262" transform="translate(106.658)"/><line class="g" x1="113.262" y2="113.262" transform="translate(112.583)"/><line class="g" x1="113.262" y2="113.262" transform="translate(118.509)"/><line class="g" x1="113.262" y2="113.262" transform="translate(124.434)"/><line class="g" x1="113.262" y2="113.262" transform="translate(130.36)"/><line class="g" x1="113.262" y2="113.262" transform="translate(136.285)"/><line class="g" x1="113.262" y2="113.262" transform="translate(142.211)"/><line class="g" x1="113.262" y2="113.262" transform="translate(148.136)"/><line class="g" x1="113.262" y2="113.262" transform="translate(154.061)"/><line class="g" x1="113.262" y2="113.262" transform="translate(159.987)"/><line class="g" x1="113.262" y2="113.262" transform="translate(165.912)"/><line class="g" x1="113.262" y2="113.262" transform="translate(171.838)"/><line class="g" x1="113.262" y2="113.262" transform="translate(177.763)"/><line class="g" x1="113.262" y2="113.262" transform="translate(183.689)"/><line class="g" x1="113.262" y2="113.262" transform="translate(189.614)"/><line class="g" x1="113.262" y2="113.262" transform="translate(195.54)"/><line class="g" x1="113.262" y2="113.262" transform="translate(201.465)"/><line class="g" x1="113.262" y2="113.262" transform="translate(207.391)"/><line class="g" x1="113.262" y2="113.262" transform="translate(213.316)"/></g></g></g><g transform="translate(0 59.187)"><g class="h"><g transform="translate(-141.682 -35.024)"><line class="g" x1="113.262" y2="113.262"/><line class="g" x1="113.262" y2="113.262" transform="translate(5.925)"/><line class="g" x1="113.262" y2="113.262" transform="translate(11.851)"/><line class="g" x1="113.262" y2="113.262" transform="translate(17.776)"/><line class="g" x1="113.262" y2="113.262" transform="translate(23.702)"/><line class="g" x1="113.262" y2="113.262" transform="translate(29.627)"/><line class="g" x1="113.262" y2="113.262" transform="translate(35.553)"/><line class="g" x1="113.262" y2="113.262" transform="translate(41.478)"/><line class="g" x1="113.262" y2="113.262" transform="translate(47.404)"/><line class="g" x1="113.262" y2="113.262" transform="translate(53.329)"/><line class="g" x1="113.262" y2="113.262" transform="translate(59.254)"/><line class="g" x1="113.262" y2="113.262" transform="translate(65.18)"/><line class="g" x1="113.262" y2="113.262" transform="translate(71.105)"/><line class="g" x1="113.262" y2="113.262" transform="translate(77.031)"/><line class="g" x1="113.262" y2="113.262" transform="translate(82.956)"/><line class="g" x1="113.262" y2="113.262" transform="translate(88.882)"/><line class="g" x1="113.262" y2="113.262" transform="translate(94.807)"/><line class="g" x1="113.262" y2="113.262" transform="translate(100.733)"/><line class="g" x1="113.262" y2="113.262" transform="translate(106.658)"/><line class="g" x1="113.262" y2="113.262" transform="translate(112.583)"/><line class="g" x1="113.262" y2="113.262" transform="translate(118.509)"/><line class="g" x1="113.262" y2="113.262" transform="translate(124.434)"/><line class="g" x1="113.262" y2="113.262" transform="translate(130.36)"/><line class="g" x1="113.262" y2="113.262" transform="translate(136.285)"/><line class="g" x1="113.262" y2="113.262" transform="translate(142.211)"/><line class="g" x1="113.262" y2="113.262" transform="translate(148.136)"/><line class="g" x1="113.262" y2="113.262" transform="translate(154.062)"/><line class="g" x1="113.262" y2="113.262" transform="translate(159.987)"/><line class="g" x1="113.262" y2="113.262" transform="translate(165.912)"/><line class="g" x1="113.262" y2="113.262" transform="translate(171.838)"/><line class="g" x1="113.262" y2="113.262" transform="translate(177.763)"/><line class="g" x1="113.262" y2="113.262" transform="translate(183.689)"/><line class="g" x1="113.262" y2="113.262" transform="translate(189.614)"/><line class="g" x1="113.262" y2="113.262" transform="translate(195.54)"/><line class="g" x1="113.262" y2="113.262" transform="translate(201.465)"/><line class="g" x1="113.262" y2="113.262" transform="translate(207.391)"/><line class="g" x1="113.262" y2="113.262" transform="translate(213.316)"/></g></g></g><g transform="translate(121.326 175.182)"><g class="h"><g transform="translate(-141.682 -35.024)"><line class="g" x1="113.262" y2="113.262"/><line class="g" x1="113.262" y2="113.262" transform="translate(5.925)"/><line class="g" x1="113.262" y2="113.262" transform="translate(11.851)"/><line class="g" x1="113.262" y2="113.262" transform="translate(17.776)"/><line class="g" x1="113.262" y2="113.262" transform="translate(23.702)"/><line class="g" x1="113.262" y2="113.262" transform="translate(29.627)"/><line class="g" x1="113.262" y2="113.262" transform="translate(35.553)"/><line class="g" x1="113.262" y2="113.262" transform="translate(41.478)"/><line class="g" x1="113.262" y2="113.262" transform="translate(47.404)"/><line class="g" x1="113.262" y2="113.262" transform="translate(53.329)"/><line class="g" x1="113.262" y2="113.262" transform="translate(59.254)"/><line class="g" x1="113.262" y2="113.262" transform="translate(65.18)"/><line class="g" x1="113.262" y2="113.262" transform="translate(71.105)"/><line class="g" x1="113.262" y2="113.262" transform="translate(77.031)"/><line class="g" x1="113.262" y2="113.262" transform="translate(82.956)"/><line class="g" x1="113.262" y2="113.262" transform="translate(88.882)"/><line class="g" x1="113.262" y2="113.262" transform="translate(94.807)"/><line class="g" x1="113.262" y2="113.262" transform="translate(100.732)"/><line class="g" x1="113.262" y2="113.262" transform="translate(106.658)"/><line class="g" x1="113.262" y2="113.262" transform="translate(112.583)"/><line class="g" x1="113.262" y2="113.262" transform="translate(118.509)"/><line class="g" x1="113.262" y2="113.262" transform="translate(124.434)"/><line class="g" x1="113.262" y2="113.262" transform="translate(130.36)"/><line class="g" x1="113.262" y2="113.262" transform="translate(136.285)"/><line class="g" x1="113.262" y2="113.262" transform="translate(142.211)"/><line class="g" x1="113.262" y2="113.262" transform="translate(148.136)"/><line class="g" x1="113.262" y2="113.262" transform="translate(154.062)"/><line class="g" x1="113.262" y2="113.262" transform="translate(159.987)"/><line class="g" x1="113.262" y2="113.262" transform="translate(165.912)"/><line class="g" x1="113.262" y2="113.262" transform="translate(171.838)"/><line class="g" x1="113.262" y2="113.262" transform="translate(177.763)"/><line class="g" x1="113.262" y2="113.262" transform="translate(183.689)"/><line class="g" x1="113.262" y2="113.262" transform="translate(189.614)"/><line class="g" x1="113.262" y2="113.262" transform="translate(195.54)"/><line class="g" x1="113.262" y2="113.262" transform="translate(201.465)"/><line class="g" x1="113.262" y2="113.262" transform="translate(207.391)"/><line class="g" x1="113.262" y2="113.262" transform="translate(213.316)"/></g></g></g></g><path class="i" d="M456.287,142.966a4.983,4.983,0,0,0-7.309-2.141,4.972,4.972,0,0,0-8.118-1.3,8.326,8.326,0,0,0-12.8.262,4.965,4.965,0,0,0-3.831-1.823c-.056,0-.107.014-.162.016a11.362,11.362,0,0,0-20.615.391,4.991,4.991,0,0,0-6.849,3.512,4.955,4.955,0,0,0-6.852,1.081Z" transform="translate(-281.536 -119.403)"/><path class="i" d="M589.933,162.841a4.185,4.185,0,0,1,6.139-1.8,4.175,4.175,0,0,1,6.818-1.091,6.993,6.993,0,0,1,10.754.22,4.173,4.173,0,0,1,3.218-1.531c.047,0,.09.012.136.014a9.543,9.543,0,0,1,17.316.328,4.192,4.192,0,0,1,5.753,2.95,4.161,4.161,0,0,1,5.755.908Z" transform="translate(-281.536 -119.403)"/></g><g transform="translate(220.233 13.381)"><g transform="translate(211.338 100.247)"><g transform="translate(29.998)"><path class="j" d="M595.59,307.757c-8.7-1.532-18.11-26.882-1.914-35.376s21.658-13,25.043-32.778,14.9-10.393,12.307,1.186,14.7,10.14,18.3,15.663c6.251,9.57-7.576,11.1-15.494,16.546s6.213,9.175.593,18.393S610.42,310.369,595.59,307.757Z" transform="translate(-584.848 -228.116)"/><g transform="translate(9.852 37.623)"><path class="k" d="M594.7,307.516c.808-.95,17.268-28.542,27.218-41.778" transform="translate(-594.7 -265.738)"/><line class="k" y1="4.924" x2="21.198" transform="translate(8.979 22.486)"/><line class="k" y1="12.699" x2="0.435" transform="translate(17.595 1.232)"/></g></g><g transform="translate(0 22.75)"><path class="l" d="M598.306,320.467s-4.879-9.526,3.452-15.632,12.018-13.954,7.265-21.166-16.955-2.716-22.114-6.164-2.941-10.826-7.171-18.806c-5.669-10.695-16.641-7.872-19.209-6.221s-7.117,6.7-1.162,16.4,1.566,13.105-3.174,20.72,3.567,10.576,17.051,13.148,15.812,19.134,15.812,19.134l9.25-1.413" transform="translate(-554.85 -250.866)"/><g transform="translate(8.189 10.416)"><path class="m" d="M594.877,330.04s2.025-35.927-27.436-68.758" transform="translate(-563.039 -261.282)"/><path class="m" d="M589.175,299.062s-7.683-10.578-26.136-8.764" transform="translate(-563.039 -261.282)"/><path class="m" d="M591.237,304.99s-3.777-15.222,11.658-20.144" transform="translate(-563.039 -261.282)"/></g></g><g transform="translate(41.801 45.478)"><path class="n" d="M627.508,315.546c15.445,3.906,15.819-9.553,6.356-17.058-5.915-4.692,6.161-7.2,10.837-11.756,8.036-7.838-4.851-17.69-11.535-10.825s-10.83,8.973-15.7,9.572-18.613.748-17.427,9.491c.739,5.448-3.972,10.1-3.329,15.563C610.994,305.7,619.461,313.511,627.508,315.546Z" transform="translate(-596.651 -273.594)"/><g transform="translate(0.06 13.241)"><path class="o" d="M596.711,310.533s20.68-15.522,37.634-23.7" transform="translate(-596.711 -286.835)"/><line class="o" y1="11.905" x2="1.938" transform="translate(15.866 0.749)"/><line class="o" x2="21.933" y2="0.065" transform="translate(11.636 15.471)"/></g></g><g transform="translate(26.905 79.223)"><path class="p" d="M613.155,335.681h-22.6l-5.261-22.59h33.124Z" transform="translate(-581.755 -307.338)"/><rect class="q" width="40.198" height="9.094"/></g></g><g transform="translate(27.431 109.233)"><path class="r" d="M391.716,310.14c1.609-3.987,5.477-5.193,7.37-8.792,3.389-6.441-2.311-8.1-2.988-12.382-.9-5.7,3.1-5.186,5.165-8.657,2.428-4.08-1.682-8.908.839-12.783,6.266-9.632,16.465.949,23.111,3.175,4.071,1.364,10.162,1.937,13.366-.653,4.231-3.419,8.448-11.341,3.968-15.915-6.313-6.444-4-9.746,2.828-11.377,3.022-.722,4.406-3.025,1.052-5.655,5.1,7.365-11.9.657-14.928,5.655-2.1,3.471.49,5.521,1.221,8.189,1.869,6.827-2.822,12.7-12.606,5.865-5.626-3.931-5.152-10.933-11.119-12.716-5.578-1.667-12.062,3.329-14.113,10.032-2.03,6.633-4.439,10.035-11.588,9.28-8.494-.9-15.045,4.367-11.246,11.969,3.368,6.739,12.7,2.91,17.427,6.774,5.251,4.288,3.617,10.193-3.176,15.733-2.11,1.72-5.354,4.288-4.518,7.218.542,1.9,3.933,4.919,6.116,5Z" transform="translate(-370.943 -237.101)"/><path class="s" d="M404.29,312.8h-1.815v-2.454a1.894,1.894,0,0,0-1.893-1.894h-21.5a1.894,1.894,0,0,0-1.893,1.894v15.032A10.307,10.307,0,0,0,387.5,335.681h4.67a10.3,10.3,0,0,0,9.742-6.966h2.38a3.292,3.292,0,0,0,3.292-3.292v-9.334A3.292,3.292,0,0,0,404.29,312.8Zm1.188,12.627a1.189,1.189,0,0,1-1.188,1.188h-1.9a10.508,10.508,0,0,0,.081-1.237V314.9h1.815a1.189,1.189,0,0,1,1.188,1.188Z" transform="translate(-370.943 -237.101)"/><path class="t" d="M399.715,313.787a13.874,13.874,0,0,0-1.09-5.339H379.084a1.894,1.894,0,0,0-1.893,1.894v15.032a10.255,10.255,0,0,0,1.3,5.012c.3.01.587.036.886.036C390.611,330.422,399.715,322.974,399.715,313.787Z" transform="translate(-370.943 -237.101)"/></g><g transform="translate(0 207.813)"><path class="p" d="M629.867,358.333H357.622a5.273,5.273,0,0,1-5.273-5.273h0a5.273,5.273,0,0,1,5.273-5.273H629.867a5.273,5.273,0,0,1,5.273,5.273h0A5.273,5.273,0,0,1,629.867,358.333Z" transform="translate(-343.512 -335.681)"/><path class="u" d="M636.538,350.56H350.951a7.44,7.44,0,0,1-7.439-7.439h0a7.44,7.44,0,0,1,7.439-7.44H636.538a7.439,7.439,0,0,1,7.439,7.44h0A7.439,7.439,0,0,1,636.538,350.56Z" transform="translate(-343.512 -335.681)"/></g><g transform="translate(227.495 46.868)"><ellipse class="q" cx="19.319" cy="19.319" rx="19.319" ry="19.319"/><ellipse class="v" cx="15.063" cy="15.063" rx="15.063" ry="15.063" transform="translate(4.255 4.255)"/><g transform="translate(19.319 10.261)"><line class="w" y1="9.057"/><line class="w" x2="5.537" y2="5.537" transform="translate(0 9.057)"/></g><g transform="translate(5.961 5.955)"><line class="x" y1="1.788" transform="translate(13.357 24.935)"/><line class="x" x1="0.894" y1="1.551" transform="translate(19.141 23.384)"/><line class="x" x1="1.551" y1="0.894" transform="translate(23.375 19.151)"/><line class="x" x1="1.797" transform="translate(24.926 13.366)"/><line class="x" x1="1.542" y2="0.894" transform="translate(23.384 6.688)"/><line class="x" x1="0.894" y2="1.542" transform="translate(19.141 1.797)"/><line class="x" y1="1.797" transform="translate(13.357)"/><line class="x" x1="0.894" y1="1.551" transform="translate(6.678 1.797)"/><line class="x" x1="1.542" y1="0.894" transform="translate(1.788 6.688)"/><line class="x" x1="1.788" transform="translate(0 13.366)"/><line class="x" x1="1.551" y2="0.894" transform="translate(1.788 19.151)"/><line class="x" x1="0.894" y2="1.551" transform="translate(6.678 23.384)"/></g><ellipse class="q" cx="0.874" cy="0.874" rx="0.874" ry="0.874" transform="translate(18.444 18.444)"/></g><g transform="translate(71.344 39.307)"><path class="t" d="M450.357,173.272a20.816,20.816,0,1,0-4,32.56,3.088,3.088,0,0,1,2.47-.3l5.263,1.567a.527.527,0,0,0,.655-.655l-1.566-5.264a3.091,3.091,0,0,1,.3-2.476A20.818,20.818,0,0,0,450.357,173.272Z" transform="translate(-414.856 -167.175)"/><g transform="translate(9.001 11.709)"><line class="y" x2="23.591"/><line class="y" x2="5.658" transform="translate(17.933 6.07)"/><line class="y" x2="12.313" transform="translate(0 6.07)"/><line class="y" x2="12.804" transform="translate(10.787 12.14)"/><line class="y" x2="6.157" transform="translate(0 12.14)"/><line class="y" x2="5.658" transform="translate(17.933 18.21)"/><line class="y" x2="12.036" transform="translate(0 18.21)"/></g></g><g transform="translate(56.331 31.862)"><g transform="translate(72.31)"><path class="u" d="M493.9,183.146s-2.1-9.295,6.84-17.274,22.765-7.252,30.343-3.091c9.821,5.393,19.462,19.664,10.65,40.051S573.3,214.8,559.751,242.421s-36.959,8.55-45.377,19.993-37.557-18.558-12.663-39.531S495.784,202,493.9,183.146Z" transform="translate(-472.153 -159.73)"/><path class="z" d="M491.621,244c-10.218,4.355-18.678,30.249-19.468,85.491h22.021S507.553,237.211,491.621,244Z" transform="translate(-472.153 -159.73)"/><path class="t" d="M518.941,235.767c12.076-1.192,31.762.814,38.837,8.627,1.561,1.724,1.569,4.953.732,9.42-2.955,15.783-16.457,47.017-9.281,81.867H486.358s5.963-27.233,2.631-35.826c-3.81-9.825-7.107-18.7-3.356-26.91,8.541-18.686.892-26.422,6.3-29.123A78.59,78.59,0,0,1,518.941,235.767Z" transform="translate(-472.153 -159.73)"/><path class="s" d="M544.888,282.011c-2.63,15.258-20.3,17.143-29.155,14.161,0,0,12.89,7.8,22.184,3.42,0,0,2.368,7.453-1.172,30.892H548.3s0-.047-.007-.12a116.8,116.8,0,0,1,.341-34.644,49.1,49.1,0,0,1,1.235-7.134l.017-.065c1.465-7.473,3.3-14.3,4.943-20.267a66.582,66.582,0,0,0,.971-12.022A62.907,62.907,0,0,0,544.888,282.011Z" transform="translate(-472.153 -159.73)"/><path class="aa" d="M545.547,314.762s-10.982,13.489-16.293,9.836c-7.032-4.838-12.82-4.751-17.467-1.975a17.039,17.039,0,0,0-6.664,7.861h37.694l10.971-9.495Z" transform="translate(-472.153 -159.73)"/><path class="t" d="M558.191,244.95s9.691,25.312,18,46.005c6.708,16.7-33.743,39.467-33.743,39.467l-6.68-8.952,23.3-25.824L544.817,265.6s-8.26-16.387,4.28-22.2C556.074,240.176,558.191,244.95,558.191,244.95Z" transform="translate(-472.153 -159.73)"/><path class="aa" d="M527.21,211.118s-1.524,19.189,3.079,24.2c5.918,6.445-4.472,20.343-20.08,30.865,0,0-8.725-9.689-1.885-25.472s.21-24.7.21-24.7Z" transform="translate(-472.153 -159.73)"/><path class="ab" d="M530.289,202.832c0,13.148-9.263,23.8-17.089,23.8s-17.6-8.744-18.92-24.922c-1.065-13.105,6-22.68,16.674-22.68S530.289,189.684,530.289,202.832Z" transform="translate(-472.153 -159.73)"/><path class="u" d="M497.677,175.946c-1.1.634-3.481,2.178-6.257,4.025-3.023,2.013-6.245,5.5-7.354,9.313-1.9,6.55,2.917,14.848,12.5,11.918s14.168-18.309,21.947-9.419c9.667,11.049,13.175,4.891,13.175,4.891s-1.939-13.756-11.735-19.947C514.707,173.409,506.8,170.685,497.677,175.946Z" transform="translate(-472.153 -159.73)"/><g transform="translate(19.267 12.045)"><path class="t" d="M536.745,198.1c0,4.289-2.535,7.766-5.663,7.766s-5.663-3.477-5.663-7.766,2.535-7.766,5.663-7.766S536.745,193.808,536.745,198.1Z" transform="translate(-491.42 -171.775)"/><path class="t" d="M513.26,172.211c-8.71-1.678-17.109,1.614-21.84,7.76a25.309,25.309,0,0,1,19.066-3.768c11.57,2.228,19.765,11.625,20.037,22.059a18.618,18.618,0,0,0,.532-2.086C533.161,185.238,525.194,174.509,513.26,172.211Z" transform="translate(-491.42 -171.775)"/><g transform="translate(18.789 28.857)"><path class="ac" d="M529.85,200.632s1.579,17.552-14.555,19.218" transform="translate(-510.209 -200.632)"/><path class="t" d="M514.242,221.6H511.7a1.491,1.491,0,0,1-1.49-1.491h0a1.491,1.491,0,0,1,1.49-1.491h2.543a1.491,1.491,0,0,1,1.491,1.491h0A1.491,1.491,0,0,1,514.242,221.6Z" transform="translate(-510.209 -200.632)"/></g></g></g><g transform="translate(0 110.838)"><g transform="translate(58.204 59.854)"><rect class="p" width="96.204" height="5.259" rx="2.317"/></g><path class="ad" d="M509.6,335.681h-84.57a5.466,5.466,0,0,1-5.137-3.6L400.178,277.9a5.467,5.467,0,0,1,5.137-7.337h84.569a5.468,5.468,0,0,1,5.137,3.6l19.72,54.18A5.467,5.467,0,0,1,509.6,335.681Z" transform="translate(-399.843 -270.568)"/><path class="q" d="M403.363,270.926c.318,32.022,43.2,57.922,96.067,57.922,5.183,0,10.268-.252,15.228-.731l-19.637-53.952a5.468,5.468,0,0,0-5.137-3.6H405.315A5.46,5.46,0,0,0,403.363,270.926Z" transform="translate(-399.843 -270.568)"/><path class="ae" d="M462.6,302.047a6.4,6.4,0,1,1-6.4-6.4A6.4,6.4,0,0,1,462.6,302.047Z" transform="translate(-399.843 -270.568)"/></g></g><g transform="translate(206.398)"><path class="t" d="M554.329,132.291a15.1,15.1,0,1,1,2.9,23.617,2.234,2.234,0,0,0-1.791-.216l-3.818,1.136a.382.382,0,0,1-.475-.475l1.136-3.818a2.246,2.246,0,0,0-.219-1.8A15.1,15.1,0,0,1,554.329,132.291Z" transform="translate(-549.91 -127.868)"/><g transform="translate(4.273 12.66)"><ellipse class="v" cx="2.438" cy="2.438" rx="2.438" ry="2.438"/><ellipse class="v" cx="2.438" cy="2.438" rx="2.438" ry="2.438" transform="translate(8.375)"/><ellipse class="v" cx="2.438" cy="2.438" rx="2.438" ry="2.438" transform="translate(16.75)"/></g></g></g><g class="af" transform="translate(226.065 17.357)"><g transform="translate(268.891)"><line class="ag" x2="2.156" y2="2.156"/><line class="ag" x1="2.156" y2="2.156"/></g><g transform="translate(0 114.962)"><line class="ah" x2="4.311" y2="4.311"/><line class="ah" x1="4.311" y2="4.311"/></g><g transform="translate(118.929 89.759)"><line class="ai" x2="3.014" y2="3.014"/><line class="ai" x1="3.014" y2="3.014"/></g><g transform="translate(289.168 195.365)"><line class="ai" x2="3.013" y2="3.013"/><line class="ai" x1="3.013" y2="3.013"/></g><path class="ai" d="M520.687,142.966a1.848,1.848,0,1,1-1.848-1.848A1.847,1.847,0,0,1,520.687,142.966Z" transform="translate(-349.344 -131.844)"/><path class="ai" d="M417.713,218.622a1.848,1.848,0,1,1-1.848-1.847A1.848,1.848,0,0,1,417.713,218.622Z" transform="translate(-349.344 -131.844)"/><path class="ai" d="M641.866,195.247a1.848,1.848,0,1,1-1.847-1.847A1.848,1.848,0,0,1,641.866,195.247Z" transform="translate(-349.344 -131.844)"/><path class="ai" d="M359.048,299.062a4.382,4.382,0,1,1-4.382-4.381A4.382,4.382,0,0,1,359.048,299.062Z" transform="translate(-349.344 -131.844)"/><path class="ai" d="M600.244,243.758a4.382,4.382,0,1,1-4.381-4.381A4.381,4.381,0,0,1,600.244,243.758Z" transform="translate(-349.344 -131.844)"/></g></g></svg>