<svg xmlns="http://www.w3.org/2000/svg" xmlns:xlink="http://www.w3.org/1999/xlink" width="146.153" height="140" viewBox="0 0 146.153 140"><defs><style>.a{fill:#c01e29;}.b{fill:#fff;fill-rule:evenodd;}.c{filter:url(#a);}</style><filter id="a" x="0" y="0" width="146.153" height="140" filterUnits="userSpaceOnUse"><feOffset dx="5" dy="10" input="SourceAlpha"/><feGaussianBlur stdDeviation="15" result="b"/><feFlood flood-color="#e76f51" flood-opacity="0.4"/><feComposite operator="in" in2="b"/><feComposite in="SourceGraphic"/></filter></defs><g transform="translate(40 35)"><g class="c" transform="matrix(1, 0, 0, 1, -40, -35)"><rect class="a" width="56.153" height="50" rx="20" transform="translate(40 35)"/></g><g transform="translate(15.395 16.279)"><path class="b" d="M10.706,15.82,7.615,17.7a.606.606,0,0,1-.893-.439V13.121l12.641-8.66L4.248,11.8.333,9.356A.723.723,0,0,1,.539,8.039L25.957-.37a.364.364,0,0,1,.412.565L14.9,17.514a.9.9,0,0,1-1.168.188Z" transform="translate(0.012 0.395)"/></g></g></svg>